<svg xmlns="http://www.w3.org/2000/svg" viewBox="0 0 211.38 272.57"><defs><style>.cls-1{fill:#f7ebf2;}.cls-2{fill:#a173a8;}.cls-3{fill:#c27aab;}.cls-4{fill:#da99be;}.cls-5{fill:#a377ab;}.cls-6{fill:#9f70a6;}.cls-7{fill:#db9ec1;}.cls-8{fill:#bb7cad;}.cls-9{fill:#d691b9;}.cls-10{fill:#a67aad;}.cls-11{fill:#cb7dad;}.cls-12{fill:#b276aa;}.cls-13{fill:#dda2c4;}.cls-14{fill:#ae77ab;}.cls-15{fill:#a67bad;}.cls-16{fill:#887bb0;}.cls-17{fill:#6e65a3;}.cls-18{fill:#af88b5;}.cls-19{fill:#ba99c0;}.cls-20{fill:#a97faf;}.cls-21{fill:#d58db7;}.cls-22{fill:#c1a4c6;}.cls-23{fill:#8e85b6;}.cls-24{fill:#8d6ea7;}.cls-25{fill:#9b76ab;}.cls-26{fill:#9491bd;}.cls-27{fill:#956fa7;}.cls-28{fill:#af7cae;}.cls-29{fill:#a678ab;}.cls-30{fill:#7f79ae;}.cls-31{fill:#8266a2;}.cls-32{fill:#d696bd;}.cls-33{fill:#b490ba;}.cls-34{fill:#ae86b4;}.cls-35{fill:#b28db9;}.cls-36{fill:#776ca6;}.cls-37{fill:#a87eaf;}.cls-38{fill:#b181b0;}.cls-39{fill:#c59bc1;}.cls-40{fill:#c48cb7;}.cls-41{fill:#d090b9;}.cls-42{fill:#c0a2c5;}.cls-43{fill:#8c72a9;}.cls-44{fill:#987aae;}.cls-45{fill:#8b87b7;}.cls-46{fill:#916fa7;}.cls-47{fill:#9e82b2;}.cls-48{fill:#ede5ee;}.cls-49{fill:#958ab8;}.cls-50{fill:#bd9dc2;}.cls-51{fill:#c679aa;}.cls-52{fill:#b575a8;}.cls-53{fill:#c17eae;}.cls-54{fill:#bd78aa;}.cls-55{fill:#ba76a9;}.cls-56{fill:#b47eaf;}.cls-57{fill:#cf8ab5;}.cls-58{fill:#d594bb;}.cls-59{fill:#b179ac;}.cls-60{fill:#a67aac;}.cls-61{fill:#ad78ab;}.cls-62{fill:#a97fb0;}.cls-63{fill:#b089b6;}.cls-64{fill:#b077aa;}.cls-65{fill:#b578aa;}.cls-66{fill:#ac73a7;}.cls-67{fill:#d08eb7;}.cls-68{fill:#d494bb;}.cls-69{fill:#b475a9;}.cls-70{fill:#be94bd;}.cls-71{fill:#b380b0;}.cls-72{fill:#cc84b1;}.cls-73{fill:#ca7aaa;}.cls-74{fill:#c87bac;}.cls-75{fill:#aa81b1;}.cls-76{fill:#ac73a8;}.cls-77{fill:#716ba7;}.cls-78{fill:#9678ad;}.cls-79{fill:#a57eb0;}.cls-80{fill:#8474ab;}.cls-81{fill:#7a70a9;}.cls-82{fill:#8a80b3;}.cls-83{fill:#7b72aa;}.cls-84{fill:#9977ac;}.cls-85{fill:#bd8ab6;}.cls-86{fill:#8f6da6;}.cls-87{fill:#7967a4;}.cls-88{fill:#856aa5;}.cls-89{fill:#b793bc;}.cls-90{fill:#bf87b4;}.cls-91{fill:#b67aac;}.cls-92{fill:#9675aa;}.cls-93{fill:#9676ab;}.cls-94{fill:#b883b2;}.cls-95{fill:#9870a7;}.cls-96{fill:#ad76aa;}.cls-97{fill:#7968a4;}.cls-98{fill:#cfc4db;}.cls-99{fill:#c77eae;}.cls-100{fill:#c27cac;}.cls-101{fill:#be79ab;}.cls-102{fill:#a877aa;}.cls-103{fill:#c98eb8;}.cls-104{fill:#c883b1;}.cls-105{fill:#a477ab;}.cls-106{fill:#a578ab;}.cls-107{fill:#c6a3c6;}.cls-108{fill:#d0b8d3;}.cls-109{fill:#6c65a3;}.cls-110{fill:#c58fb9;}.cls-111{fill:#a672a8;}.cls-112{fill:#bc96be;}.cls-113{fill:#796ca7;}.cls-114{fill:#a694be;}.cls-115{fill:#af7cad;}.cls-116{fill:#b97cad;}.cls-117{fill:#c587b4;}.cls-118{fill:#a77aad;}.cls-119{fill:#bf7eae;}.cls-120{fill:#a87bad;}.cls-121{fill:#c094bc;}.cls-122{fill:#a883b2;}.cls-123{fill:#b983b2;}.cls-124{fill:#bc95bd;}.cls-125{fill:#b78cb7;}.cls-126{fill:#fff;}</style></defs><title>2413150</title><g id="OBJECTS"><path class="cls-1" d="M115.1,238.29H104.4a.44.44,0,0,1,.19-.63,30.56,30.56,0,0,1,10.32,0A.47.47,0,0,1,115.1,238.29Z"/><path class="cls-2" d="M26.3,174.5a9.13,9.13,0,0,1-.61-2.84,20.46,20.46,0,0,0,1.82-3.23c.66-1.26.32-1.86-1.09-1.92-.57,0-1.31.09-1.4-.74s.52-1,1.12-1.18a1.76,1.76,0,0,0,1.36-2.69,3.42,3.42,0,0,1,.11-2.5c.38-1.09.8-2.14,2.26-2.06a.9.9,0,0,0,.68-.38c1.58-1.75,3.68-1.87,5.83-1.84a7.45,7.45,0,0,0,2.16-.1c.49-.13.53-.5.45-.94-.14-.76-.6-.31-.84-.16-1.47.9-3,.56-4.62.51-.47,0-1,0-1.07-.61s.21-1,.69-1c1.63,0,2.75-1.62,4.47-1.24.78.17.73-.39.76-1,.11-2.26,1-3,3.26-2.8.38,0,.88.36,1.13,0,1-1.44,2.15-2.23,3.95-1.77.18,0,.44-.19.41-.36-.23-1.86,1.82-2.27,2.35-3.69.35-.94,3-.87,4.31.07.8.56,1.48,1.3,2.32,1.83a1,1,0,0,1,.48,1,2.19,2.19,0,0,0,2.17,2.47c.84.08,1.42.29,1.59,1.13.73,3.53,1.51,3.37,4.77,3a3.8,3.8,0,0,1,4.35,2.07c.61,1.06,1.2,1.75,2.62,1.32,1.09-.33,2.2.29,3.29.52s1.48,1,.77,2.06a2,2,0,0,0-.52,1c.47.51,1,.16,1.51.18s1.2-.05,1.42.47c.32.76-.46.95-1.28,1.51a4.78,4.78,0,0,1,3.77-.6c1.36.39,2.55,1,4.15.24,1-.42,2.2.89,3.24,1.45a8.45,8.45,0,0,0,6.65.78c.76-.22,1.46-.29,1.67.75,0,.11-.32.43.29.37a14.17,14.17,0,0,0,6-1.71c2.84-1.81,5.52-.93,8.3-.88.52,0,1,.22,1.12.9-.38.74-1.29,1.44.17,2.15.59.29.51,1.19.24,1.82a11.4,11.4,0,0,1-1.76,3.28c-2.09,2.29-3.35,5.16-5.37,7.5a5,5,0,0,0-1,3.49c0,2.49.46,4.93.5,7.41-1.61,0-3,1.72-4.77.63a2.32,2.32,0,0,0-1.18-.7,15.68,15.68,0,0,1-6.59-2.77,8.47,8.47,0,0,0-6.29-.85,13.07,13.07,0,0,1-5.61.12,50.61,50.61,0,0,0-6.14-.58c-.16.26-.09.31,0,.42.66.55,2,.65,1.8,1.78s-1.46.55-2.21.83a8.77,8.77,0,0,1-4.1.23c-.45-.05-1,.08-1.22-.45s.18-1,.54-1.36a2.87,2.87,0,0,0,.87-1.18c-1.25-.25-2.4.21-3.54.25-.81,0-1.29-1.51-2.42-.27-.53.59-2-.2-3,.12s-2.08-.1-3.14.11c-1.4.29-2.78,0-4.17,1s-2.92-.27-2.76-2.19a6.72,6.72,0,0,1,.65-2.27,15.76,15.76,0,0,0,.92-1.95,3.18,3.18,0,0,0-2.35-.31c-2,.13-3.43-1.26-5.24-1.56a.23.23,0,0,1-.16-.11c-1.47-2.8-4.37-1.52-6.56-2.3-.27-.09-.79.25-.95,0-1.87-2.52-3.83-.22-5.7,0-1.31.13-1.68-.23-1.69-1.42-.92,1.37-2.66,1.33-3.91,2.19a.3.3,0,0,1-.17-.29C26.24,174.56,26.27,174.5,26.3,174.5Z"/><path class="cls-3" d="M60.83,223.58a1.15,1.15,0,0,0-1.16-.76A8.5,8.5,0,0,1,56.08,220h0c-.76-.42-1.62-.72-2-1.61l-.37-.37c-.6-.42-1.57-.57-1.22-1.69a3.47,3.47,0,0,0,1.77-2.22,1.24,1.24,0,0,1,.67-.93c2.12-1,2.59-3,3-4.95a2.16,2.16,0,0,1,1.93-1.91c.9,0,1.53-.14,1.83-1.23a6.83,6.83,0,0,1,1.85-3.08c.25-.09.6-.21.75-.05,1.45,1.42,2.93.83,4.49.23a2,2,0,0,1,1.88.29c.13,1.5-1.81.57-1.91,1.72,2.63,1.31,5.57,1.49,8.53,1.66.47,0,1.2-.18,1.3.54s-.5,1.09-1.08,1.25a3.06,3.06,0,0,0-2.19,1.77c-.39.81-2.93,1.39-3.77,1-1.38-.64-.16-1.22.06-1.79-2.24-2.16-4.52-.62-6.81-.11,1.49.77,3,.14,4.54.22.51,0,1.11-.25,1.43.33a1.41,1.41,0,0,1-.15,1.5c-.46.68-1,.31-1.58.1a1,1,0,0,0-.77-.05c2.06.47,4.21.61,6.16,1.5,1.22.56,1.42-.37,1.48-1s-.62-1.3.39-1.6a2.06,2.06,0,0,1,2.3.73c1,1.14,1,1.12,1.82,1-1.18.56-1.34-.76-1.61-1.82-.16-.64.3-1.21.86-.91,1.42.76,2.69,0,4-.17s2.48-.37,2.36,1.54c0,.19.07.54.2.5,1.91-.58,3.29,2,5.47.71,1.5-.84,2.47,0,2.78,1.78.2,1.08.55,1.78,1.59.7s1.43.44,2.24.36c-.86-.05-.74-1-1.3-1.31-.36-.21-1.08-.18-.9-.81S97,211,97.6,211a21.08,21.08,0,0,1,4.07.61c-1.18-.6-1.74-1.29-.57-2.42.7-.67.65-1.8,1.4-2.45.59-.77,1.18-1.55,2.19-.51.55.56,1.19.26,1.84.23a11.28,11.28,0,0,1,5.53.78,2,2,0,0,1,1.29,2c.14,2.57.66,3,3.17,3a3,3,0,0,1,2.37.71,1.6,1.6,0,0,0,1.84.24c1-.4,2.16-.51,3.22-.9s2.13-.22,2.22,1.3a2.43,2.43,0,0,0,1,1.86c1.2,1.08,2,2.64,4,2.61a1.34,1.34,0,0,1,1.18,1.57,2,2,0,0,0,1.06,2.14c.64.43,1.11.88.69,1.77s.38,1.08.91,1.44c1.75,1.2,2.07,2.47,1,4.19,1.23.52,2.5-1,3.55,0a7.29,7.29,0,0,1,2.15,2.76c-.15.35-.51.34-.81.44a1.66,1.66,0,0,1-2,.78l-2.74.77c-2.21-.17-4.41.21-6.65,0-1.47-.15-3,1-4.59.37a5,5,0,0,1-1.1-.41c-.67-.91-2.36-.89-2.3-2.49,0-1.09-.34-1.94-1.57-2.17s-1.56-1-1.73-2.08c-.35-2.18-1.45-2.57-3.29-1.24-2.67,1.93-5.32,3.86-8.6,4.76a10.81,10.81,0,0,1-4.27.56,36.38,36.38,0,0,0-11.77.77,5.18,5.18,0,0,1-3.08-.36,21,21,0,0,0-5.93-1.52,10.28,10.28,0,0,1-4.68-1.35c-1.69-1.05-3,.31-4.31,1.09l0,.11a3.51,3.51,0,0,1-3.18-1.55L62,224.38C61.46,224.36,61.15,224,60.83,223.58Z"/><path class="cls-4" d="M195.14,160.23a.6.6,0,0,0,0,.35.37.37,0,0,1-.47.12,1.65,1.65,0,0,1-.39-.44c-1.39,1.22-2.71.49-4-.14-.33-.15-.57-.53-.83.16a2.32,2.32,0,0,1-2.47,1.31c-1.92-.13-3.39.78-4.92,1.65a7.92,7.92,0,0,1-1.22.65,1.13,1.13,0,0,1-1.29-.16c-.43-.43-.25-.83.09-1.22a1.24,1.24,0,0,0,.14-1.14c.15,1-.43,1.26-1.24,1.19a4.47,4.47,0,0,0-4.44,2.27c-.32.51-.84,1.26-1.57.87-1-.52-2.28-.85-2.62-2-.25-.81.71-1.25,1.47-1.52,1.29-.5-.18-1,0-1.52a.24.24,0,0,1,.22-.2c-.12-.05-.19,0-.2.18-.25.52.66,1.07-.06,1.56-1.23-.21-1.94-1.46-3.28-1.55-.55,0-.47-.74,0-1s1.06-.54.93-1.29c.06-.16.26-.2.34-.34a1.21,1.21,0,0,0-.39.42c-.16.55-.52,1-.9.32-.58-.95-1.52-2,0-3,.87-.59.71-1.36,0-2-.94-.78-.55-1.38.25-1.83,2-1.13,2.44-2.69,1.74-4.85-.26-.8.17-1.79-.21-2.69a.68.68,0,0,1,.58-.89c1.15-.15,1.19-.85,1.16-1.82A1.65,1.65,0,0,0,169.9,140c-3.06.31-2.19-2.41-3.06-3.76a2.63,2.63,0,0,1-.12-1,1.57,1.57,0,0,1,.31-1.05,74.87,74.87,0,0,0,2-8c.19-1.32-.79-1.86-2.06-2.14a25.27,25.27,0,0,0-7.16-.1.75.75,0,0,1-.59-.5,1.57,1.57,0,0,1,1.38-1.81c.67-.12.14-.66.46-.84,2.74-1.92,5.74-1.92,8.84-1.18.69.16,1.36.48,2.11-.11-.8-.77-1.62-.3-2.41-.19-.59.09-1.3.18-1.51-.54s.45-1,1-1.26a7,7,0,0,1,2.81-.88c1.38,0,2.78.13,3.1-1.78.07-.43.68-.59,1.13-.7a15,15,0,0,1,6.82-.43c1.17.26,2.48.55,2.88,2,.24.87,1,1,1.72,1a.8.8,0,0,1,.42.35,2.1,2.1,0,0,0,.48,1.5,4.2,4.2,0,0,1,1.59,4l.68,1.3c.43.32.35.69.12,1.09.53,1.71,1,3.43,1.58,5.15a3.63,3.63,0,0,1,1,3.61,48.84,48.84,0,0,0,1.3,7.09,1.65,1.65,0,0,1,.43,1.14c-.09.69-.51,1.37-.07,2.08a.66.66,0,0,0,0,.34,1.64,1.64,0,0,1,.43,1.28,11.16,11.16,0,0,0-.05,4.71v3.86a11.16,11.16,0,0,0,.05,4.71A1.6,1.6,0,0,1,195.14,160.23Z"/><path class="cls-5" d="M112.32,161.82c-2.44-1.16-5-.28-7.56-.67-.67,2.15-2.74,1.16-4.06,1.84-.88.47-1.62,1.26-2.75.62-.37-.22-.59.06-.7.42a.68.68,0,0,1-.92.51c-.84-.33,0-.69.06-1,.08-.76-.25-1-.92-.74A7,7,0,0,1,88.4,162c-.86-.62-2.44-.08-2.91-1.95-1,2.15-2.45,1.19-3.64.7a4,4,0,0,0-3.87,0,1,1,0,0,1-1.61-.64c.6-.41,1.63.07,2-1a3,3,0,0,0-1.87,0c-.5.14-1.09.49-1.43-.06a1.41,1.41,0,0,1,.41-1.77c1.45-1.29.68-1.41-.67-1.61s-2.74-.85-4.17-.06c-.5.28-.58-.25-.79-.58a18.46,18.46,0,0,0-1.61-2.45c-.8-.88-1.57-1.27-2.69-.67-1.3.7-2.65-.24-4.05,0-.48.1-1.54-1.51-1.58-2.74,0-.9.35-2.17-1.37-1.15-.54.32-.87-.42-1.27-.72-.58-.43-.81-1.66-2-.78-.25.19-.7-.21-.61-.54s-.07-1.17.75-1.15c.3,0,.62.28.9-.3-1.68-1.24-3.3-2.58-5.48-3a1.41,1.41,0,0,0-.56,0c-.29,1.62-2.65,1.92-2.46,3.79.18,1.71-1.37,1.35-1.8,1.11-1.31-.73-1.82.12-2.35.89s-.87,1.27-2.12.79c-1.9-.72-3.14.76-2.52,2.74.44,1.39-.88,1.44-1.29,1.23a1.78,1.78,0,0,0-2.34.5c-.76.73-2.13-.15-2.82,1.11,2.44.32,4.7.47,6.62-1,.41.12.19.31.2.48.15,2.48.15,2.38-2.65,2.35-2.27,0-4.74-.29-6.16,2.2-.14.24-.4.5-.63.34-1.71-1.18-1.38.87-2.07,1.28a1.47,1.47,0,0,1-.42-1.39c.09-.65.52-1.18.6-1.83s.06-1.14-.7-1.08c-1.58.11-2.51-1.16-3.79-1.67v-1.54c.11-.07.25-.13.31-.24,1.16-1.77,2.34-2.92,4.92-2.39,1.18.24,2.58-.39,3.65.8a2.38,2.38,0,0,1,.36.75c-.39-1.78,1.76-1.95,2-3.31.28-.55.88-.75,1.29-1.12-.29-.74-.87-.58-1.36-.59-.75,0-1.33-.18-1.08-1.14.76-1.39,2.25-1.39,3.53-1.76-1.95.56-3.91-.45-5.86.06-.49.13-.95-.48-.86-1.09a1.14,1.14,0,0,1,1.28-1c1.75.1,3.52-.61,5.27.12a1.23,1.23,0,0,0,1.42-.18c-.81.2-1.42.16-1.61-.6a1.13,1.13,0,0,1,.86-1.37,5.27,5.27,0,0,0,2.68-1.72c-.84-.23-1.83.23-2.19-1s.62-1.31,1-1.91a2.9,2.9,0,0,1,2.36-1.58c.61,0,1.21-.09,1.81-.08,1.72-.44,3.29.93,5,.39a3.16,3.16,0,0,1,.53-.13c1.12-.09,2.24-.19,3.36-.26.75,0,1.55,0,1.81.86s-.71.8-1,1.23a2.14,2.14,0,0,0-.43.61c.65.11,1.32-.14,1.89.18.23.13-.08,0,.17.09,2.3.58,3.15,2,2.43,4.27a5.44,5.44,0,0,0,0,1.56c.14.46.46,1,1,.6,1.1-.89,2.51-.61,3.69-1.13.15-.1.31-.18.46-.27.7-.6,1.14-1.48,2-1.83.44-.17.93-.33,1.27.12a.75.75,0,0,1-.23,1.05c-.66.58-.47.79.24,1.19a9.13,9.13,0,0,1,2,1.92c.94,1,1.93.71,2.34-.57.16-.51.15-1.05.27-1.56a1.76,1.76,0,0,1,1.36-1.52,24.7,24.7,0,0,1,7.07-.48,2.34,2.34,0,0,1,1.5.9,6,6,0,0,0,4.2,2.27c.93.07,1.86.67,1.64,1.83-.18.95.2,2.46-1.69,2.23.83.1,1.55-.35,2.33-.19,1.58.22,2.5,1.55,3.79,2.26a3.42,3.42,0,0,0,1.94.76c2.36.67,4.66.05,7-.18s4.89-.2,7.21,1.22c1.5.92,3.45,1,5.17,1.55,1.52.48,2.35,1.13,1.75,2.57a9.45,9.45,0,0,0-.39,6C113.2,160.72,113.43,161.64,112.32,161.82Z"/><path class="cls-6" d="M26.43,174.89c.36-.58.53-1.32,1.53-1.24.47,0,.95-.42,1.46-.5,1-.15.17-1.84,1.14-1.53.79.24-.16,1.31.2,2a1.78,1.78,0,0,0,.4.37c.81-1.14,2.47.14,3.31-1.26.66-1.09,1.62-.6,2.29.17s1,1.3,2.18.65c.83-.45,1.87.65,3.05.57.66,0,1.48.39,2.36.2.57-.13,1.48-.08.86,1a.65.65,0,0,0,.48,1.05c2.23.24,4.16,1.93,6.58,1.33a1.79,1.79,0,0,1,1.48.21c.48.54-.35.84-.54,1.28a15.58,15.58,0,0,0-1.34,3.24c-.17.93-.06,1.94.71,2.21s2,.41,2.35-1c.11-.48.51-1,1-.61,1.07.79,2.26,0,3.09.23,1.75.49,3.31-.66,5.08,0,1.26.49,0-1,.7-1.54,1.37,3.52,4.44.3,6.43,1.63-.2,1.21-1.39,1.66-2,2.58,2.52.76,4.82,0,7.52-.26a14,14,0,0,0-3.49-2.11,3.41,3.41,0,0,1,3-.61c1.48.39,3,.82,4.5,0a.57.57,0,0,1,.84.27c.38,1.35.77.87,1.51.2s1.29.83,2.14.32c2-1.17,4-.28,6-.28a4.3,4.3,0,0,1,3,1.51c1.53,1.49,3.42,1.44,5.2,1.94.4.1,1.42-.05.93,1l-.22.13a14.69,14.69,0,0,1-2.48.37c-.56.07-.71.65-1.11.93a8.38,8.38,0,0,1-.95.47,3.76,3.76,0,0,1-1.3.39c-.65-.11-1.11.31-1.64.55-.9.41-3.39-.63-3.73-1.5s.9-.74,1-1.37a1,1,0,0,0-1.27-.06c-1.61,1.27-3.61,1.21-5.43,1.75-1,.3-.83,1.07-.17,1.4,1.45.75,1.52,1.82,1.1,3.14-.36,1.1-.76,2.15-2.23,2-1.57-1.18-3.82-1.65-4-4.28-.06-1-1-1.5-2.1-1.05-.82.34-1.54.81-2.55.33-.64-.3-1.25.32-1.62.88A4.36,4.36,0,0,1,69,194c-1.67.43-3.07,1.66-5,1.67-.56,0-1.88.32-.9,2,.5.84-.47,2.77-1.67,3.78a11.49,11.49,0,0,1-7.26-1.16,4.1,4.1,0,0,0-2.69-.27c-1,0-2.13.72-2.66-.76a3.57,3.57,0,0,1,.62-1.21c1.11-2.06,1.09-2.12-1-2.95-.37-.14-.79-.27-.81-.73a1.08,1.08,0,0,1,1-1.08A2.08,2.08,0,0,0,50.51,191a1.72,1.72,0,0,0-.31-1.29c-.88-1.2-.5-2.61.1-3.89.48-1,.7-2-.27-2.86-.54-.41-1.2-.14-1.79-.28-2.94.5-5-1.83-7.55-2.43a2.32,2.32,0,0,0-2.43-.16,3.44,3.44,0,0,1-2,.62c-1.33-.49-2.68.25-4.07-.15a11.25,11.25,0,0,1-3.23-1.31,2,2,0,0,1-.4-.36,2.92,2.92,0,0,0-1.32-1.23l-.13-1.18C26.6,176.05,26,175.7,26.43,174.89Z"/><path class="cls-7" d="M187.61,117c-1.22.1-2.44.34-2.39-1.62,0-.34-1-.89-1.63-1a14.45,14.45,0,0,0-8,.47c-1.14.35-.16,1.16.1,1.72-2.44.83-5.18.21-7.62,2.2,1.85.56,4.12-1.62,5.06,1.26a6.72,6.72,0,0,1-3.94-.07c-2.74-.92-5.49,0-8.1,1-1.84,0-2.72-.93-2.49-2.75.09-.74.63-1.5-.77-1.89-1.23-.33.34-1.22.09-1.6s-1.44-.26-1.58-1.2a.51.51,0,0,1,.3-.48c1.66-.66.69-1.4.13-2.07-2.3,1.18-4.2,3.06-6.83,3.59a1.56,1.56,0,0,1-.51-.27,7.32,7.32,0,0,0-3.6-3.88,3,3,0,0,1-1.37-4.2c.52-1.15,0-2.35.5-3.44.64-1.08,1.25-2.12.39-3.43-.47-.71,1-1.9-.56-2.48-1-.38-1.92.15-2.89,0-.71-.08-1.44,0-2.15-.1-.47-.11-1.12-.17-.83-1,3-2.26,6-2.69,9.26-.57a4,4,0,0,0,4.92,0,12.68,12.68,0,0,1,6.51-1.94c1.29.18,1.71,1.4,2.32,2.22.79,1,.1,2.12-1.37,2.48-.91.23-.9,1-.79,1.56s.2,1.42.89,1.82c.1,0,.24-.06.31-.18a.27.27,0,0,0,0-.36c-.26-.3-.67-.42-.93-.72s-.52-1,.14-1.07c1.6-.3,3.23-.76,4.81.14.3.17.73.56.6.67-1.65,1.39.76,2.38.3,3.56-.21.55-1.09.41-1.54,1.05a2.33,2.33,0,0,0,2.53.45,2.78,2.78,0,0,1,2.1,0c.71.35,1.6.59,1.66,1.5s-.71,1.29-1.5,1.59a21.78,21.78,0,0,0,4.18.15,2.12,2.12,0,0,0,2.22-1.85c.11-.63-.15-1.5.74-1.6s1.21.66,1.54,1.32a1,1,0,0,0,.3.49c.23,0,.36-.12.48-.28.51-.65.88-1.69,2-1s1.38,1.46.24,2.38c-.31.25-.1.62-.15.92-.25,1.32-2,2-2.81,1s-1.49-.74-2.16-.3a4.86,4.86,0,0,1-3.88.67c4,.73,8,1.08,11.79-1a.73.73,0,0,1,.5.92c.38.55.75,1.11,1.12,1.67C186.52,113.16,187.77,114.79,187.61,117Z"/><path class="cls-8" d="M141.66,232a5.94,5.94,0,0,1-1.32-1.16c-.85-1.36-1.75-2-3.33-1a1.19,1.19,0,0,1-1.74-.38c-.65-1.09.4-.88.86-1.2.61-.43-.22-2.35-1.28-2.83s-2.41-.64-1.08-2.4c.5-.66-1.12-.68-1.44-1.47-.18-.45-1.05-.44-.49-1.39a1.26,1.26,0,0,0-1.24-1.87c-2.52.76-2.61-1.48-3.62-2.58.12-1,.42-1.95-.21-3-.86-1.46-.18-2.26,1.56-2.16.62,0,1.23.48,2,0-2.29-.12-4.53,0-5.67-2.36,0-1,.68-1.23,1.49-1,1.14.39,1.76.39,1.51-1.14a1.71,1.71,0,0,1,1.89-2c1.75,0,3.41-1.1,5.2-.36.3.12.6-.21.89-.36a4.09,4.09,0,0,1,2.1.71c1.15,2.44,3.7,2.41,5.76,3.24a4.56,4.56,0,0,1,.52.18c.83.38,1.84.13,2.63.68a1.8,1.8,0,0,1,.39.39c.26,1.48,1.75,1.38,2.64,2.06.32.62,0,1.12-.3,1.63a1.08,1.08,0,0,0,.07,1.44,1.5,1.5,0,0,0,1.61.43c.59-.2,1.13-.9,1.79-.4,1,.74,2.27,1.66,2.47,2.58.28,1.24.85,1.34,1.72,1.56.55.13,1.19.25,1.29,1-1.06,1.8-3.09.81-4.62,1.47.58.76,1.29.53,1.91.6s1.07.12,1.27.73a1.45,1.45,0,0,1-.52,1.58,3.15,3.15,0,0,1-1.88,1c-3.14.41-3.89,1.06-4.58,3.84l-5.15,2.79a1.42,1.42,0,0,1-1.6.72A2.61,2.61,0,0,0,141.66,232Z"/><path class="cls-9" d="M171.36,162.21c-.28.61-1.64,1.07-.69,1.8s2.19,2.34,3.4.08a3.81,3.81,0,0,1,4.44-1.93c.66.13.93,0,.91-.79a1,1,0,0,1,.92-1.08c.09.09.25.22.23.25a9.16,9.16,0,0,0-.82,3,3.86,3.86,0,0,0,3.32-1.54c.77-1,1.63-.8,2.32-.8a13,13,0,0,0,2.09-.16c1.07-.18,2.24-.55,1.34-2.32,3.48,2.12,4.18,2.17,5.64.48l.31,1.46c.34.59,0,1.29.31,1.89a1.42,1.42,0,0,1-.32,1.22c-.78.92-.09,2.25-.88,3.17-.44.74-1.38.71-1.95,1.3.65-.26,1.28-.66,1.95-.12-.13.53-.26,1.06-.4,1.59a1.74,1.74,0,0,1-1.69.27,5.39,5.39,0,0,0-4.27.58s.1,0,.25,0c.7.32,1.86.52,1.73,1.33s-1.32.95-2.14,1.09c-2.12.35-2.59,1-2,3.11.24.84.67,1.59-.73,1.9-.7.15-.13.77.1,1.09.5.72.91,1.43-.17,1.93-.88.41-1.79.56-2.45-.45-.32-.5-.46-1.09-.82-1.57-1.35.94-2.11.81-2.52-.43-.89-2.7-1.35-3-4.17-2.72-1.44-.2-2.85.38-4.32.09-2.8-.54-3.93-1.65-4.16-4.44,0-.19,0-.45-.11-.57-2.3-2.32-.16-4.4.38-6.54a7.68,7.68,0,0,0-.38-4.12c-.54-1.72-1.85-3.18-1.88-5.17,0-.44-.83-.63-.92-1.22.58-1.3.72-2.73,1.62-4a3.71,3.71,0,0,0-.11-3.18c-.85-1.54-.14-2.53.63-3.53s1.75-2.12-.06-3.15c-.22-.13-.46-.54-.35-.66,1.18-1.15.37-3.27,2-4.16.07,1.47,1.7,2.5.89,4.49,2-1.36,2.94.43,4.28.81a4.49,4.49,0,0,0,.1,2.78c0,.18-.94.57-1.55.49a.66.66,0,0,0-.77.35c.37.68,1.49,1.38.37,2.39a.57.57,0,0,0,.16.86c.88.46.12,1.11.21,1.43.69,2.71-2,2.71-3,4,2,1.49,2,1.77.15,3.44-.85.76.15,1.41.34,2.05s.47-.21.76-.15c.53,1.12.53,1.12-1.39,2.09A4.29,4.29,0,0,1,171.36,162.21Z"/><path class="cls-10" d="M40.61,179.65c2.73.67,5,2.79,7.93,2.77.22,0,0,1.08.65.24.16-.23.59-.24.92-.24a2.06,2.06,0,0,1,1,3c-.87,1.63-1.26,3-.15,4.76.78,1.25-.37,3-1.91,3.37-.43.11-.9.21-1.1.81.77.89,2.93-.46,2.87,1.45a3.27,3.27,0,0,1-1.87,3.25c-1.13.43-1.09-.48-1.25-1.12-.65-2.66-1.49-3.08-3.94-2a2.45,2.45,0,0,1-.5.22,3.79,3.79,0,0,0-4,2.87,1.06,1.06,0,0,1-1.36.73h-.33a1.69,1.69,0,0,1-.82-1.26c0-.32-.05-.6-.4-.71a1.89,1.89,0,0,1-.8-1.25.67.67,0,0,0-.07-.31c-.64-.52-1.39-1-1.15-2a5.4,5.4,0,0,0-1.14-2c-.63-.5-1.15-1.05-.9-2-.62-1.19-.88-2.58-1.89-3.57a9.27,9.27,0,0,1-1.61-4c-.42-1.56-.83-3.13-1.25-4.7,1-.61.9.4,1.23.78a8.71,8.71,0,0,0,3.09,1.62,2.76,2.76,0,0,0,2.56-.1,1.89,1.89,0,0,1,1.88.07l2-.8A17.18,17.18,0,0,0,40.61,179.65Z"/><path class="cls-7" d="M72.26,229.87c1-1.66,2.74-2.67,4-1.81,1.91,1.32,4,1.43,6.11,1.74A20,20,0,0,1,88,231.47c1.38.63,2.83.12,4-.23,3.44-1,6.85-.55,10.29-.49a15.89,15.89,0,0,0,9.48-3.24,34.54,34.54,0,0,0,3-2.17c1.72-1.46,3.32-1.44,3.67.4a4.27,4.27,0,0,0,3.22,3.71,1.71,1.71,0,0,1,.2,2.1s-.13.13-.12.15c1.16,2.11-.29,2.39-1.83,2.63a3.08,3.08,0,0,0-1.75.85c-.85.81-2,1.25-2.82.38s0-2,.58-2.85c.16-.27.58-.27.92-.57a1.65,1.65,0,0,0-1.87.76,4.85,4.85,0,0,1-1.65,1.66,1.44,1.44,0,0,0-.65,1.72c.2.76.87.64,1.45.72,1.54.23,3.15-.56,4.62.38a.39.39,0,0,1-.09.49l-1.54,0h-2l-10.7,0H102l-1.55,0c-.75-.45-1.63,0-2.39-.33l-3.59-.44-.8.05a1.82,1.82,0,0,1-1.57-.39l-1.6-.42c-.76.44-1.37.06-2-.37l-1.2-.41c-.77.46-1.32-.16-2-.39a32.5,32.5,0,0,0-6.33-2,4.33,4.33,0,0,1-2-.81c-.15-.35-.47-.36-.78-.39a2,2,0,0,1-2-.88Z"/><path class="cls-11" d="M187.26,188.77c-.66,1.32-1.31,2.64-2,3.95a1.84,1.84,0,0,1-.92,2l-.42.77a2,2,0,0,1-1.19,2l-.3,0a1.8,1.8,0,0,1-1.85.23,1.14,1.14,0,0,1-.51-.73c-.08-2.65-.66-3.2-3.29-3.08a3.69,3.69,0,0,0-4.65-2.77,2.84,2.84,0,0,1-3.53-1.66,2,2,0,0,0-2-1.23,4.26,4.26,0,0,1-1.86-.49,4,4,0,0,1-2.79-4.45c-.94-2.26-.95-2.29,1.21-2.66.87-.15,1.26-.4.57-1.22-.26-.31-.6-.72-.46-1,1-2.11.43-4.33.61-6.5a1.84,1.84,0,0,1,1.2-1.45c.92.23.76,1,.69,1.6-.32,2.83,1.31,4.95,2.85,6.93a3.72,3.72,0,0,0,3.69,1c1.12-.38,1.88-.63,2.79.25.39.38,1,.21,1.52.29,1.72.26,3.4.56,4.36,2.29a1.65,1.65,0,0,0,1.37.66c.53.06,1.17,0,1.49.43a4.23,4.23,0,0,0,4.55,1.74c.06,0,.08.19,0,.33s0,.48,0,.72C188.19,187.5,188.15,188.36,187.26,188.77Z"/><path class="cls-12" d="M159.88,93.68c-2.68.57-5.38,1-7.64,2.76a3.08,3.08,0,0,1-3.71-.27c-3-2.31-5.86-2.19-8.9-.33a3,3,0,0,1-.75.22c-.77,1.07-1.65,1.94-3.14,1.68-.34-.53.09-.85.33-1.22s.33-.62-.18-.93c-2.07-1.29-2-1.31-.17-2.54-.06-.36-.36-.3-.59-.32-.66-.07-1.22-.34-1.16-1.07s.77-1,1.46-1a3.57,3.57,0,0,1,1.16.23c.61,0,1.26.72,1.79.12s.74-.77,1.27-.29a1.45,1.45,0,0,1,.36,1.79,10.16,10.16,0,0,1-.95,1.29c1.27,0,1.57-.8,1.47-1.77-.07-.71-.29-1.42-.36-2.14,0-.48-.5-1.07.12-1.44s1,.13,1.48.3,1,.81,1.7,1.16c.47-.83.19-2.63,1.85-2,.92.34,1.69,1.15,2.9,1.68a2.16,2.16,0,0,0-2-1.81c-.51-.12-1.05-.12-1.55-.28-.66-.21-1.29-.58-1.19-1.36s.83-.72,1.42-.74a11.76,11.76,0,0,1,2.37.09A2.57,2.57,0,0,0,150,84.24c.77-1.5,1.88-1.58,3.25-1.53.65,0,1.31-.12,2-.1,2.72,1.46,5.71,2.21,8.57,3.31,1.18-.23,1.54.66,2,1.45a1.23,1.23,0,0,0,.82.72c1.41,0,1.81,1.11,2.35,2.07l1.63,1.92a1,1,0,0,1-.86.37A16.66,16.66,0,0,0,159.88,93.68Z"/><path class="cls-13" d="M159.88,93.68c2.56-2.7,5.84-1.93,9-1.83a14.81,14.81,0,0,1,1.74.23l.74.45c1.31.24,1.62,1.33,2,2.36a5.18,5.18,0,0,0,1.57,1.59,23.38,23.38,0,0,1,5.53,7.19A5.17,5.17,0,0,0,182,106a3.31,3.31,0,0,1,1.62,3.13c-1.49,1.19-3,2.12-5.1,1.82a33.3,33.3,0,0,0-5.64.12c-.33,0-.88.09-.94,0-.27-.57-1.12-1.14-1.07-1.33.25-.84.95-.27,1.49-.21a3.58,3.58,0,0,0,3.09-.63c.7-.58,2.84-.82,2.72-.2-.4,2,.83.72,1.25.82a.77.77,0,0,0,.92-.58c.16-.63-.73-.44-.83-1,.14-.56.75-.39,1.1-.65s.75-.44.44-.9a2.63,2.63,0,0,0-1-.92c-.49-.22-.58.35-.82.64-.37.46-.12,1.53-1.12,1.34a1,1,0,0,1-.77-1.43c0-.07-.49-1.13-1-1-.91.27.07.87,0,1.18-.42,1.34-1.09,2.53-2.8,2.5s-3.58,0-5.94,0c.72-.52.92-.67,1.13-.81.62-.47,2-.61,1.5-1.61a2.17,2.17,0,0,0-2.78-.85,4.16,4.16,0,0,1-4.1-.73,3.73,3.73,0,0,1,2.79-1.55c-2.56-1.2-2.59-1.38-.83-3.18-1.66-1.35-3.44-.51-5.49-.38a8.81,8.81,0,0,1,1,.65c.39.32,1.45-.18,1.23.8-.17.74-1,1-1.69,1.22a1.2,1.2,0,0,1-.67-.21c.32-1.38-.52-2.67-.29-4,.09-.46.71-1,1.21-.73s1,1,1.05,0c0-.4.71-1.69-.66-1.84C159.81,95.35,161.05,93.8,159.88,93.68Z"/><path class="cls-14" d="M155.11,83c-1.08,0-2.13.63-3.23.17-.36-.14-.77,0-.86.27-.86,3.24-3.49,2.4-5.71,2.49-.53,0-1.41-.49-1.44.32s1,1.21,1.64,1c1.39-.46,2,.62,2.94,1.11s.43,1.07.14,1.49c-.39.57-1,.71-1.37-.08s-1.9-.38-2.23-1.64c-.06-.21-1.06.6-.86,1.26s.09.78-.52,1.06-.67,0-.91-.45c-.47-.87-1.57-.74-2.32-1.54.35,2.22,1.06,4.17.14,6.24L138,93.74c1.05-.12,1.41-.94,1.8-1.68a.92.92,0,0,0-.44-1.19c-.94-.41-.35.56-.45.61a2.47,2.47,0,0,1-2.39-.19,3.93,3.93,0,0,0-2-.85c-.49-.07-1.16,0-1.32-.61s.43-1,.93-1.4c-.58.14-.8.68-1.22,1-.64.44-1.27.82-1.88,0a1.32,1.32,0,0,1,.15-2c.79-.61,1.42-1.36,2.15-2,.39-.36.83-1,1.42-.11.25.36.74.22,1.05-.06a.68.68,0,0,0,.16-.73c-.21-.57-.68-.18-1-.2-1.66-.1-3.47-.58-4.39,1.51a.72.72,0,0,1-.48.28c-.68-1.54-2.31-.86-3.35-1.47a1.32,1.32,0,0,1-.41-1.45,1.37,1.37,0,0,1,1.32-1c1,.11,1.42-.46,1.82-1.22.58-1.11,1.23-2.19,1.76-3.32a1.61,1.61,0,0,1,1.89-1.06c2-.15,4-.11,5.7-1.4,1.07-.7,1.56-1.91,2.47-2.75a1.41,1.41,0,0,1,1.56.51l.8.39a1.16,1.16,0,0,1,1.43.75c.33,2.65-2,3.54-3.15,5a8.72,8.72,0,0,1,7.45,1.17,3.46,3.46,0,0,0,3.71.58,2.37,2.37,0,0,1,2.26.36c.54.29,1.44.42,1.3,1.22S155.53,82.47,155.11,83Z"/><path class="cls-15" d="M41.79,132.89c-1.56.11-1.76,1.93-3,2.42-.62.24.12.62.1.95,0,.48.2.52.61.4.57-.16,1.38-.66,1.61.24s-.53,1.17-1.24,1.52a7.55,7.55,0,0,1-1.91.82c-.5.1-1,.5-.6,1.15s.62,0,.91-.26a.57.57,0,0,1,.86.12c.09.17,0,.5-.16.71a1.19,1.19,0,0,1-1.52.58c-1.76-.55-3.55-.08-5.32-.24-.51-.05-.91,0-1.18.45a.54.54,0,0,0,.13.7c.39.39.75.18,1.22.06,2-.48,4,.62,6.1,0-1.24,1.37-3.26,1-4.48,2.28a.7.7,0,0,1-.76.16c-1.43-1-2.38-1-3,.09-2,.67-4,1.72-6.28.89a14,14,0,0,0-.32-1.54,1.6,1.6,0,0,1,.45-1.19.32.32,0,0,0,0-.3c.37-.65,0-1.41.31-2.06l.42-4c-.46-.77-.06-1.38.38-2,.4-1.58.81-3.17,1.22-4.76-.48-.78-.08-1.38.39-2,.67-1.87,1.38-3.72,2-5.61a3.21,3.21,0,0,1,.83-1.47c2-.8,2.94-.32,3.55,1.63a6.42,6.42,0,0,1,0,4.87c-.57,1.24,0,2.61-.37,3.9-.25.81.49.61.88.59a6.61,6.61,0,0,1,2.73-.09C38.14,132.56,40.1,131.93,41.79,132.89Z"/><path class="cls-16" d="M72.3,74.78c.79-.48,1.78-.56,2.43-1.3a16.37,16.37,0,0,1,6-2.34c.57.2,1-.28,1.48-.35.64.26,1.3-.29,1.93,0,2.08.9,3.8.19,5.37-1.19A2.37,2.37,0,0,1,93,70c.69.84,1.31,1.82,2.68,1.45a.89.89,0,0,1,.51,0,2.13,2.13,0,0,1,1.36,1.08c.32.78.64.81,1.35.38a.94.94,0,0,1,1.44.58c.13,1.56,1.27,1.34,2.24,1.52.72.12,1.66-.18,2,.9a1.44,1.44,0,0,1-1.14.8,13.92,13.92,0,0,0-1.75,0c.27.12.75-.13,1.15.14a1.72,1.72,0,0,1,.65.89c.25.71-.38,1.53.26,2.2l.57.46a3.19,3.19,0,0,1,1.13,1,1.14,1.14,0,0,1,0,.52.67.67,0,0,1-.37.4.65.65,0,0,1-.67-.1c.14.21.47.2.54.48-.32.84-1.08.68-1.63.53-1.29-.34-1.68.36-1.9,1.39a1.22,1.22,0,0,1-.65.53c-2.47.48-4.92.07-7.38-.1-.36-1.12.83-2.1,0-3.45-.6-1-.95-1.43-2.13-1.39s-2.78-.22-3.39-1.56a3.62,3.62,0,0,1,.61-4,6.84,6.84,0,0,1-2.59.2,1.21,1.21,0,0,0-1.49.91c-.36.93-.73,1.9-2,1.84-.05,0,.15.08.21.16.42.57.16,1-.31,1.33-1.27.2-1.86-1.48-3.17-1.14-.29-.25-.53-.67-1-.52-2,.64-3.48-.88-5.3-1C71.93,76.39,71.44,75.67,72.3,74.78Z"/><path class="cls-17" d="M37.81,104.75c.56-.91,1.13-1.82,1.7-2.72a4.92,4.92,0,0,1,2-2.77l.7-.82c.06-.41.38-.57.72-.71a4.45,4.45,0,0,1,4-1.28c.25.06,0,.14.18,0,2-1.77,4.28-.07,6.39-.4a3.31,3.31,0,0,0,3-.45c2.65-1.37,5.85-.22,6.29,2.26-.44.7-1.08.6-1.69.42,2.4,1.06,2.62,1.8,1,3.48,0,1.39-.56,2.41-2.09,2.63a3.73,3.73,0,0,1-1.61.45c-1.53.11-2.44-.2-2.38-2.15.07-2.36-1.34-3.54-4.28-4.17-.25-.07-.13.38-.12.11,0-.05.07-.06.2,0,2.5.76,3,1.89,2,4.17,2.4.79,2.81,1.47,1.63,2.77-3-.13-5.63.9-8.35,1.93-2.46.94-5.16,1.68-7.1-1.16C39.48,105.49,38,106,37.81,104.75Z"/><path class="cls-18" d="M36.24,132.49c-.89-.64-1.76.08-2.65.06-1.39,0-1.19-.27-1.22-1.45a18.67,18.67,0,0,1,1-6.27c-1.54-.62-.62-2.19-1.22-3.18-.7-1.16-1.79-.32-2.65-.59,0-.28,0-.56.07-.84.93-1.61,2.36-2,4.13-1.93,3.2.16,6.36-.49,9.55-.73.8.71,2.41,1.12,2.12,2.28s-1.94.65-2.9.69c-1.19,0-2,.94-2.87.91,1.16-.67,2.77-.4,4.23-.93.64-.23,1.17.17,1.65.42a8.26,8.26,0,0,0,4.75.83c1.18-.12,2.49-.4,3.6.46a1.87,1.87,0,0,0,2,1.47,1.48,1.48,0,0,1,1.4.53c-.16,1-1.06.76-1.67.83-1.19.12-1.08.69-.65,1.46a1.29,1.29,0,0,1-.36.41c-1.77.75-2,.61-3.08-1.7-.89-1.92-1.57-2-3.06-.3.58,0,1.23-.07,1.4.66A1.17,1.17,0,0,1,49,127c-2.41.56-3.7,2.21-4.74,4.31-.53,1.07-2,.59-2.65-.92a4.5,4.5,0,0,0-2.73-2.81c-.87-.33-1.17-.23-1.52.48-.46.94-.88,1.93-2.09,2.26,1.14,0,2.46-.19,2.6,1.35C38,132.88,36.67,132,36.24,132.49Z"/><path class="cls-19" d="M37.81,104.75a6.38,6.38,0,0,1,3.71,2.38c1.11,1.39,2.83.3,4.27.27a5.2,5.2,0,0,0,2.2-.8,13.3,13.3,0,0,1,7.66-1.43c.26.22.7,0,.9.41.12.59-.62,1-.33,1.61s.79,1.07.12,1.56-1-.13-1.29-.52c-.82-1-1.63.66-2.55,0-.15-.1-.83,1-.38,1.79a1.26,1.26,0,0,1,.2.48c-.07,1.09.68.19,1,.38.73.41,1.7,0,2.46.52.83,1.17-.29,1.22-.9,1.57a9.31,9.31,0,0,1-2.68.53c-1.33-.08-2.39,0-2.92,1.56-.29.83-1.24,1-2.09,1.25-2,.54-4,.12-6,.25a7,7,0,0,1-1.86-.35,1,1,0,0,1-.58-1.68c-.39,1.45-1.45,1.62-2.89,1.18a4.55,4.55,0,0,0-2.7.13c-.37.11-1.15.66-1.32-.37.32-1.61,1.49-2.84,1.93-4.39a9.94,9.94,0,0,1,2.78-4.75Z"/><path class="cls-20" d="M51.31,199.46a5.35,5.35,0,0,1,4,.8c1.87,1,4.16.86,6.32.78a.41.41,0,0,1,0,.5c-.17.11-.38.07-.55.12s.09.08.15.13c.91.87,1.34,1.79-.19,2.36-1.35.5-.64,1.64-1,2.44-2.26.62-1.28,3-2.35,4.3-.07.08,0,.26,0,.38a28.83,28.83,0,0,1-5.13,5.22c-.63.47-.92,0-1.19-.45a79.81,79.81,0,0,0-6.31-6.3.34.34,0,0,1-.15-.43,4.77,4.77,0,0,0,1.23-2.45,23.69,23.69,0,0,0,1.3-3,2.06,2.06,0,0,1,.21-.48A4.14,4.14,0,0,1,48,203c.47-.29.52-.86.82-1.26C49.64,201,50.52,200.28,51.31,199.46Z"/><path class="cls-21" d="M188.4,186a4.64,4.64,0,0,1-4.4-1,35.07,35.07,0,0,0-5.86-3.66c-.52-.23-1.21.11-1.63-.47a2.24,2.24,0,0,1-.76-1.14c-.25-1.41-.14-3-1.64-3.86a1,1,0,0,1,.09-.16q.12-.13.33,0c2.6-1,4.25-.06,4.63,2.68a1.27,1.27,0,0,0,.78,1c.49.22.57-.37.79-.66l.73-.9s.12,0,.37,0c-.29,1,.31,1.75.68,2.57.55,1.21,1.6.5,2.16.19.84-.46-.23-.72-.36-1.1-.21-.64-1.19-1-.75-1.83s1.2,0,1.76-.22c-.25-1-.91-1.81-.72-3,.29-1.71,1.09-2.21,2.74-1.9.57.11,1.24-.34,2.07-.6l-3-1.54c3.87-1.16,3.87-1.16,7.09-.7,0,.38,0,.76,0,1.14a6.57,6.57,0,0,1-1.42,5.2c-.13.66-.61,1.25-.44,2a4.27,4.27,0,0,1-1.54,4A18.2,18.2,0,0,1,188.4,186Z"/><path class="cls-22" d="M167,216.12a2.38,2.38,0,0,0-1.22,1.12c-.47.77-.73,1.79-2,1.66l0-.16c-1-.63-1.73-1.79-3.23-1.3a.94.94,0,0,1-1.19-1c.09-1.78-.93-1.47-2-1.16-1.33.13-2.42-.31-2.73-1.66-.13-.6-.45-.44-.73-.56a1.62,1.62,0,0,1-1.12-1.48c0-.77.5-1.1,1.15-1.41,1-.5.84-1.8,1.54-2.56.15-.16-.37-.46-.65-.62-.56-.32-1.35-.59-1.06-1.41s1.06-.63,1.71-.64a5.18,5.18,0,0,1,.78.09c1.48.17,2.82-.59,4.26-.68a3.52,3.52,0,0,1,2.11.18c1.61.91,3.65,1.91,4.23,3.37.91,2.3,2.77,2.8,4.44,3.82l-2,2.32C168.8,215,168.41,216.14,167,216.12Z"/><path class="cls-23" d="M103.21,77.82a.83.83,0,0,1-.4-.8c-.25-.45.19-.56.4-.79l1.19-.4c.12-.74.9-.35,1.24-.72-.79-.53-.31-1.81-1.63-2.2-1.8-.53-1.77-.93-.57-2.83-1.15,0-2.33.34-3.29-.54a14.5,14.5,0,0,1,1.4,1.43,1.53,1.53,0,0,1,.22,1.84c-.4.6-1,.21-1.42,0a5.17,5.17,0,0,0-1.75-.11c-.65,0-1.29-.36-.85-1.12s-.32-1-.6-1.38-.82-.3-1.24-.14c-.06,0,.4.31.34.66a.9.9,0,0,1-.57.73c-1.33.55-1.85-.8-2.77-1.19a3.32,3.32,0,0,0-2.78-.79c-.16.08-.35.11-.41-.09s.14-.51.41-.65l.42-.41a1.73,1.73,0,0,1,2-.32l3.13-.53c.58-.44,1.46.15,2-.57a1.7,1.7,0,0,1,.88-.23,5.32,5.32,0,0,0,1.77.23c3.09-.31,6.18-.18,9.27-.2.94,0,1.9.23,1.71,1.37s.32,1.28,1,1.53c1.11.38,1.33,1.62,2,2.22,1.23,1,.18,1.73.07,2.58a7,7,0,0,0,0,.79c-.43.76-1.71.56-1.86,1.64a1,1,0,0,1-.35.32c.46,1.48-.2,2.91-.95,2.47-1.07-.62-2.12.21-3-.44a2,2,0,0,1-.72-1.1c-.21-.78-.7.13-1-.15.24.28.54.54.49,1,0,1,.36,2.08-.79,2.74-.35.16-.69.34-1.08.1v-.39c-.13-.66-.81-.5-1.19-.79l-.4-.4C103.05,79.47,104.06,78.49,103.21,77.82Z"/><path class="cls-24" d="M56.11,84.57l3.21-2c2.06-.85,4.17-.14,6.26-.18.61,0,1.06.49,1.57.76s1,.46.91,1.12-.74.62-1.43.68c1.5,1.54,3.29,2.63,4.6,4.23a20.39,20.39,0,0,0,.48,3.65.76.76,0,0,1-.55,1.07c-.21.07-.45-.14-.64.07a2.49,2.49,0,0,1,.37.09c.18,0,.34.51.57,0a2,2,0,0,0,.3-1.47c-.13-.52.24-.68.71-.59a2,2,0,0,1,.51.25c.93.62.61,1.49.46,2.32a11.26,11.26,0,0,1-2.9,4.14c-1.52.8-2.47,2.55-4.41,2.64-.43-.25-.3-.62-.2-1s.21-.49.29-.75c.07-.44,0-1.11.41-1.23,2-.54.6-1.81.62-2.73s-.68-.21-1-.3c-1-.24-2.47.36-2.63-1.43a1,1,0,0,1,.92-.22c.85.29,1,0,.81-.78s1-1,1.3-2.13c-2.25,1.54-4.29-.27-6.39.43a2,2,0,0,1-2.14-1.11c-.81-1.69-2.31-1.55-3.67-1.8-.66-.12-1.37,0-1.37-1a.79.79,0,0,1,.31-.45l.76-.76C54.46,85.27,55.34,85,56.11,84.57Z"/><path class="cls-25" d="M71.11,89.31a39.85,39.85,0,0,1-5.32-4.5c.68-.51,1.47.07,2-.65-1.57-1.67-3.84-1-5.7-1.64-.62-.22-1.76.86-2.75.06,1.12-1.47,2.92-2,4.29-3.12.76-1.37,2.19-1.69,3.48-2.25A2.42,2.42,0,0,1,69,78c.3.41.76.82.48,1.41s-.89.36-1.41.3c.77.46,1.29.49,1.89-.4.89-1.33,1.17-1.11,2.32.08s2.1,2.62,3.77,3.2c.82.28.82.75.25,1.31-.91.39-1.41,1.35-2.4,1.68a1.33,1.33,0,0,0-.71,1.32c0,.58-.38,1.37.1,1.67s.81-.19.54-.76c-.11-.24-.37-.39-.46-.64a.87.87,0,0,1,.45-1.16c.71-.43,1.73-.34,2,.2.71,1.43,2,2.6,2,4.35,0,.18-.19.34-.34.47-1.64.35-3.1,1.31-4.81,1.41C71.87,91.57,72.27,90.05,71.11,89.31Z"/><path class="cls-26" d="M114.3,75.44c-1-1-.72-1.83.49-2.46-.39-.62-2,0-1.31-1.72.37-1-1.49-1.13-2.34-1.58-.53-.28-1-.24-.58-.92,1.09-1.63-.11-1.61-1.16-1.63-3,0-6,0-9.05-.06-.07-.16,0-.27.16-.32l.72,0a1.64,1.64,0,0,1,1.41-.38,88.43,88.43,0,0,0,13.81,0,1.71,1.71,0,0,1,1.42.41l.69.05c.65.38,1.43-.05,2.07.33.54.1,1,.55,1.6.39.69-.45,1.35-.59,1.93.18l.44.2a3.6,3.6,0,0,1,3.57.41c.13.27.09.59-.2.63-1.88.21-3.23,1.55-4.86,2.28a1.69,1.69,0,0,1-.5.08c-.26,0-.6-.05-.36.42.84,1.8.84,1.8-1.9,2a2.8,2.8,0,0,1-.89-.37c-1.53-1-1.56-.13-1.35,1.07a2.44,2.44,0,0,1,.09.54c-.08,1.43-1.18,1.47-2.2,1.62a2.08,2.08,0,0,1-.54-.11C115,76.23,114.47,76,114.3,75.44Z"/><path class="cls-27" d="M53.27,87.3c.07.41.18.85.72.63,1.65-.67,2.74.88,4.19,1,.25,0-.33.73.44,1.21,1.11.7,2.15.42,3.2.46a3,3,0,0,1,2,.39c1.22.87,1.75-.68,2.86-1.12-.27.9,1.25,1.89-.68,2.5-.93.3,0,1.23.08,1.88-.9.47-1.64-.42-2.49-.23-.94,1.17-2.17.9-3.39.68A5,5,0,0,0,56.46,96c-.77,1.25-1.81.59-2.78.4-1.27-.53-2.89.35-4-1.07-.35-.46-1-.73-.82-1.44s.65-.93,1.25-1.11a22.53,22.53,0,0,1,5-1.19,4,4,0,0,0-5-.24c-.31.19-.8.18-.78-.46l2-2.37C51.82,87.85,52.31,87.22,53.27,87.3Z"/><path class="cls-28" d="M155.11,83c.25-.51.84-.27,1.34-.64-1.47-.66-2.59-1.79-4.4-.5-.54.38-2.32-.39-3.13-1.09-2.06-1.78-4.33-1.57-6.68-1.2-.63.1-1.22.44-2,0,2.16-1.3,4.07-2.73,4.59-5.31a.48.48,0,0,1,.76.1L150,76.58a1.73,1.73,0,0,1,1.94.93l.76.43a2.31,2.31,0,0,1,2,1.16c.36.62,1,.79,1.6,1.15a2.72,2.72,0,0,1,2.38,1.58L160.25,83c.65-.11.93.31,1.18.8l2.38,2a.21.21,0,0,1,.13.21c0,.09-.05.13-.07.13-2.67-.6-5.37-1.13-7.71-2.68A6.22,6.22,0,0,0,155.11,83Z"/><path class="cls-29" d="M76.27,83.76c0-.13.07-.25.11-.38-1.83.07-2.09-2-3.51-2.54-.57-.21-1.32-.38-1.09-1.34a.61.61,0,0,0-.52-.72c-.4-.09-.59.27-.78.51-1.33,1.67-1.67,1.68-3.57,0,.78-.47,1.45,0,2.15.25.16-1.47-1-1.71-1.91-2.07a.84.84,0,0,1,.82-.84l4.33-1.9c-.06.49-.35,1.27.42,1.2,1.82-.17,3.29,1.86,5.21.77.23.51,2-.56,1.13,1.07,1,.59,2.06,1.16,1.46,2.64A2.48,2.48,0,0,1,79.91,82C78.55,83.35,78.55,83.35,76.27,83.76Z"/><path class="cls-30" d="M120.25,73.45c.73.14,1.31-1.18,2.08,0,.34-.95-.66-1.29-.51-2,0-.73.34-.65.8-.4h0c1.84,1,2.86-.88,4.31-1.27.39-.1.89-.79,1.15-.37,1.22,1.93,2.45.26,3.66.11a4.06,4.06,0,0,1,2.39.7c.44.81-.12,1.17-.72,1.13-1.79-.09-2.81,1.06-3.9,2.15A2,2,0,0,1,128,74c-3.07-.59-5.26,1-7.41,2.81-.46.37-1.06.47-1.53.85.82.22,1.14.69.79,1.48a3.14,3.14,0,0,1-3.71,1.5,7.43,7.43,0,0,0-1.46-.51c-1.1-.46-1.14-.77-.4-2-.94-.11-.2,1.49-1.29,1.29-.73-.65-.57-1.55-.7-2.37a3,3,0,0,1,3.17-.8h0a1.84,1.84,0,0,0,2.3.07,1,1,0,0,0,.08-1.65h0C118.13,73.39,118.46,73.23,120.25,73.45Z"/><path class="cls-31" d="M42.61,206.52l-1.15-1.15a4.49,4.49,0,0,1-2-2.71c0-1.6-.53-3.24.87-4.68a5.69,5.69,0,0,1,3.08-2.09h0c2.11-.66,3.55.13,3.93,2.15.52,2.83.53,2.85-2,4.24a1.89,1.89,0,0,0-1.22,2C43.79,205.16,43.92,206.33,42.61,206.52Z"/><path class="cls-32" d="M118.72,237.52c-1.69,0-3.38,0-5.06-.05-.58,0-1.58.37-1.6-.57s-.57-2.25.78-2.76a2.88,2.88,0,0,0,1.7-1.68c.53-1.12,1.63-1.19,3.66-.38a3.42,3.42,0,0,0-2.73,3.39c2.44.36,3.84-2.9,6.16-1.84.77-.85-1.55-1.42.2-2.08-.08,1.4,1.85.79,2,2-.18.74-.43,1.42.74,1.68.7.15,1,.77.45,1.48-.13.13-.26.27-.4.4l-4,.46A2.76,2.76,0,0,1,118.72,237.52Z"/><path class="cls-33" d="M171.37,211.74c-1.66.4-2.66-1.39-4.25-1.26a.36.36,0,0,1-.31-.57c1.18-1.77-.53-2-1.41-2.73-.1-.08-.27-.1-.34-.19-2.16-2.82-4.87-2.47-7.71-1.33a.8.8,0,0,1-1-.26.63.63,0,0,0-.51-.2c-1.68.08-2.66-.52-2.34-2.39a3.51,3.51,0,0,1,4.3,0c.23.14.28.7.7.43,1.77-1.14,3.26,0,4.82.53a2.43,2.43,0,0,1,.46.22c.37.26.58.77,1.15.73a2.94,2.94,0,0,1,.51.05c1.72.44,3.21,1.85,5.21,1.13a.74.74,0,0,1,.89.6c.11.55-.24.86-.69,1a10.49,10.49,0,0,1-1.93.5c.35.41,1,.59.89,1.16s-.81,1,.33.53a3.63,3.63,0,0,1,3.23-.06c.19,1.25-.61,1.72-1.6,2Z"/><path class="cls-34" d="M173.23,209.75c-1,.12-2.08-.24-3,.51-.73.55-1.14-.31-1.65-.64l1-.48c-.2-.83-1.43-.37-1.6-1.39.86-.2,1.74-.45,2.64-.59.38-.07.69-.16.67-.53a.52.52,0,0,0-.75-.4c-2.16,1-3.64-.73-5.43-1.23a2.89,2.89,0,0,0,1.37-2.84,1,1,0,0,1,.25-.73c.43-.47,5,0,5.25.61s0,1-.49,1.35-1.38.42-2.09,1.11a3,3,0,0,0,2.66-.12,1.87,1.87,0,0,1,1.86.07c.47.25.9.54.68,1.16-.3.86.22,1.28.82,1.69.18.44,0,.68-.43.82l-.78.8C173.86,209.24,173.8,209.77,173.23,209.75Z"/><path class="cls-35" d="M31.9,115.48c1.4.21,2.74-.75,4.17-.23,1.19.44,2.26.49,2.5-1.18,0,0,.88-.08,1,.13.38.46,0,.51-.44.62-.7.16-.1.62,0,.89s.34.54.76.32.51-.21.72.25a.18.18,0,0,0,.17.07c.06,0,.11-.06.16-.1,1.26-.18,1.89.6,2.38,1.58a23.49,23.49,0,0,1-6.91.87c-1.47-.08-2.9.53-4.38.07-1.29-.4-1.23,1.69-2.48,1.45l.42-1.13a2.06,2.06,0,0,1,.71-2C31.13,116.53,31.51,116,31.9,115.48Z"/><path class="cls-36" d="M49.35,90.93c1.16.69,1.49-.82,2.51-.92,1.58-.16,2.66,1,4.07,1.07.24,0,.36.37.25.65s-.22.6-.67.56a7.82,7.82,0,0,0-4.5.87c-.62.32-2-.13-1.69,1A2.61,2.61,0,0,0,51.44,96c.75.11,1.6-.3,2.24.4-1.29-.16-2.76.69-3.88-.65a.75.75,0,0,0-.7.1c-1.06,1.34-2.38,1.13-3.82.83-1-.22-1.11,1.59-2.29,1.31-.24-.29-.25-.55.1-.76l1.11-1.16c.42-.78.65-1.73,1.68-2Z"/><path class="cls-37" d="M35.06,147.55c.71,1.12-.28,1.27-.92,1.66-1,.58-1.4,1.2.24,2l-2.47.72c.49-1,.34-1.57-.45-2.09s-1.25-.85-1.8.24c-.19.39-.76,0-1.07-.12-1.91-.9-3.08-.06-3.77,1.65-.33.8-.69.59-1.19.34l0-4.29a.92.92,0,0,1,.39-.39,36.25,36.25,0,0,1,7.53-.65C32.86,146.7,34,146.7,35.06,147.55Z"/><path class="cls-38" d="M175.31,207.38c-1.3.29-1.48-.47-1.5-1.51,0-.27,1.14-.73-.07-.87a1.27,1.27,0,0,1,0-1.62c1.54-2.29,3.84-3.84,5.75-5.77a1,1,0,0,1,.94-.14h2c-.15.37-.29.74-.44,1.12a3.59,3.59,0,0,1-1.59,2.38c-.64.34-.85,1-1.18,1.59-.18.45-.25,1-.8,1.17a8.94,8.94,0,0,0-2,2.41C176.13,206.58,176.4,207.63,175.31,207.38Z"/><path class="cls-18" d="M27.92,157.85c0,.53,0,1.06,0,1.59a5.69,5.69,0,0,0,.21,2.78A1.86,1.86,0,0,1,26.41,165c-.47,0-1.09.14-1,.64.09.87.74.3,1.18.29,1.88,0,2.58,1.05,1.51,2.55-.76,1.08-.57,2.91-2.37,3.19a.7.7,0,0,1-.2.08,5.26,5.26,0,0,1-.77-4c.27-1-.66-1.8-.36-2.79a1.34,1.34,0,0,1-.37-1.13,3.74,3.74,0,0,0,.19-1.45c.5-1.43,2.42-1.58,2.8-3.13a5.57,5.57,0,0,1,.26-1.07C27.4,157.94,27.58,157.74,27.92,157.85Z"/><path class="cls-39" d="M157.49,214.91a3.14,3.14,0,0,1,1.7-.4c.72,0,1.16.1.69,1S160,217.28,161,217c1.72-.49,2.28.55,2.85,1.74l-.83.87a11,11,0,0,1-5.61,4c-.48-.77.44-1.73-.5-2.59-.46-.42.39-1.2,1-1.64.22-.14.59-.44.52-.5C157.12,217.77,157.94,216.2,157.49,214.91Z"/><path class="cls-40" d="M158.28,219.66c-.54.61-2.11.9-.45,2.1.59.42-.39,1.12-.35,1.76a3.63,3.63,0,0,1-2.81,2,5.63,5.63,0,0,0-2,1.17,2.37,2.37,0,0,1-2,1.18L150,228c.18-.8-.47-1.33-.69-2.05.51-.34,1.19-.13,1.61-.85A2.47,2.47,0,0,1,154,223.7a1.79,1.79,0,0,0,2-.78c.27-.41.8-.65.57-1.24s-.76-.25-1.19-.26c-1.07,0-2.19,0-2.47-1.44,1.65-1,3.71,0,5.34-1.11A.54.54,0,0,1,158.28,219.66Z"/><path class="cls-41" d="M125,236.69c0-.65-.1-1.12-.91-1.2a2.46,2.46,0,0,1-1.8-1c.37-.66,1.41,0,1.52-.92,1.57.34,3,.88,4.7-.07,1.28-.73,2.83.55,4.32.09a3.93,3.93,0,0,1,3.3.4c-1.21.85-2.76.78-4,1.47a3.81,3.81,0,0,1-3.53.88Z"/><path class="cls-42" d="M27.92,157.85l-.44.46c-2.35,1.19-3.43.61-3.89-2.07,0-.93,0-1.85,0-2.77.88.08,1.87-.19,2.41.88a.8.8,0,0,0,.62.4c.67,0,1.44-1,1.92.22A2.68,2.68,0,0,1,27.92,157.85Z"/><path class="cls-43" d="M129.36,73.45c.72-1.45,1.56-2.75,3.51-2.44.64.1,1.17.06,1.26-.75a.81.81,0,0,0,.38,0c.68-.45,1.17-.18,1.58.4l.8.45c.9.65.27,1.07-.25,1.46-1.16.85-1.34,1.12-1.3,2.19a1.73,1.73,0,0,1-1.32.09c-.89.08-1.76-.7-2.66,0a.73.73,0,0,1-.93-.23C130.24,74,129.67,73.86,129.36,73.45Z"/><path class="cls-44" d="M135.3,74.64a1.35,1.35,0,0,0-.48-1c-.75-.7-.54-1,.43-1s1.83-.2,1.64-1.5l1.12.14c.48-.08,1-.24,1.2.41a2.5,2.5,0,0,0,1.65.6c.35-.06.48.08.39.43-.42,1.24-.83,2.5-2.38,2.78s-1.24-1.09-1.93-1.68c-.42.4,0,1.44-1,1.5C135.59,75.29,135.19,75.23,135.3,74.64Z"/><path class="cls-45" d="M131.74,69.56c-2.35,2-2.69,2-4-.06-.43,1.77-2.29,1.32-3.27,2.4-.73.8-1.38-.12-1.81-.81,1.7-1.17,3.23-2.71,5.57-2.39.1-.18.23-.2.38-.06Z"/><path class="cls-46" d="M43.38,195.89c-1.85.71-2.64,2.41-3.66,3.89-.2.29-.4.79-.18.88,1.34.55.22,1.34.25,2-.42.12-.62-.09-.69-.48l-1.25-2.38c.27-.46,1.7-.37.7-1.45a7.45,7.45,0,0,1,1.87-2c.71-.06.71-.06.37-1.23C41.7,195.49,42.45,196.12,43.38,195.89Z"/><path class="cls-47" d="M42.61,206.52c.38-.64.77-1.28,1.16-1.92a.17.17,0,0,1,.27-.1c.21-.15.2.16.1-.08,0,0-.2-.08-.17-.25-.06-1.91,1.59-2.48,2.78-2.76,1.71-.4.91,1.18,1,2v.39c-1.18.76-1.79,2.11-3,2.85l-.3.42a3.61,3.61,0,0,1-.66.8.31.31,0,0,1-.41-.16Z"/><path class="cls-48" d="M23.59,156.24c.39,2.39,2.08,2.35,3.89,2.07l0,1.1c-1,.84-1.84,2.14-3.47,1.25l-.12,0c-.49-.74-.91-1.49-.35-2.38C23.58,157.58,23.58,156.91,23.59,156.24Z"/><path class="cls-49" d="M84.19,71.08c-.66-.08-1.37.22-2-.29a5.32,5.32,0,0,0,2-.83,1.72,1.72,0,0,1,1.59-.41l1.17,0,.12.31C86.59,71.49,86.1,71.7,84.19,71.08Z"/><path class="cls-50" d="M24,160.66c1.35.13,2.35-.73,3.47-1.25-.48,1.58-2,2-3.16,2.8-.23-.06-.26-.28-.37-.44Z"/><path class="cls-21" d="M193.88,168.15c-1,0-1.85.89-3.11.13,1.19-.38,2-1.2,3.11-1.31Z"/><path class="cls-49" d="M90.13,68.76c-.06.25-.43.5,0,.74l-.39.39c-.94.08-1.93.54-2.75-.33l0,0a1.09,1.09,0,0,0,0-.26c.4-.65,1-.57,1.6-.41Z"/><path class="cls-2" d="M28.72,178.85c-.42-.25-.6-.87-1.23-.78-.1-.13-.19-.27-.29-.41C28.05,177.62,28.85,177.65,28.72,178.85Z"/><path class="cls-51" d="M112.32,161.82c.73-1,.27-2,0-2.92a4.32,4.32,0,0,1,.27-3.84,3,3,0,0,0,.48-2c0-.42-.38-1-.55-.93-1.94,1.21-2.94-1.81-4.79-1a1.39,1.39,0,0,1-1.28-.23c-1-1.29-2.35-1-3.61-1.45-2.14-.69-4.21-.1-6,.32s-3.15-.34-4.7-.2c-1.69-1-3-2.49-4.63-3.55-.78-.5-.8-1.45-1.2-2.18-.14-.33-.3-.65-.46-1a35.15,35.15,0,0,1-2.06-4.5,1.36,1.36,0,0,1-.2-.48c-.15-.89,1.25-1.18.83-2.17l-.24-.44a8.64,8.64,0,0,1-.64-1.69,2.5,2.5,0,0,1,0-.82A9.86,9.86,0,0,1,84,130.8c.63-1.11,1.82-1.09,2.85-1.4a5.12,5.12,0,0,1,.56-.15,2.78,2.78,0,0,0,2.31-1.58,1.19,1.19,0,0,1,.46-.62,4.73,4.73,0,0,0,2.95-4c.17-1.11,1.42-1.41,2.45-1.67,1.26,0,2.34-.93,3.64-.74l2-2.65c0-1.46.93-1.46,1.84-1.11a3.41,3.41,0,0,0,3.84-.64,2.42,2.42,0,0,1,1.27-.51,2.93,2.93,0,0,0,2.56-2.6c.59-2.62.93-2.7,3-1a5.57,5.57,0,0,0,1.48,1,18.1,18.1,0,0,0,1.89.49,3.42,3.42,0,0,1,1.35,1.12c1.3,1.53,3.06,1.64,4.88,1.58,1.52.36,3.1,0,4.6.43,1.15,1.51,1.06,1.74-1.18,2.76,1.85.91,2.54,3.26,4.9,3.32.3,0,.72.56.6.69-1.19,1.24.45,3.14-1.28,4.39a3.5,3.5,0,0,1,2.9,1.71,2.74,2.74,0,0,0,2.21,1.12c1.08.15,1.84.59,1.1,1.84-.46.77-.18,1.19.53,1.56,1.35.7.9,1.55.13,2.37-.4.43-1,.69-1.25,1.25-.79,1.8-1.92,3-4.25,2.12.14,1.85,1.32,3.63-.81,4.8,1.07.62,2,.14,3,.12.61,0,1.26,0,1.51.7s-.44,1-.88,1.3a1.8,1.8,0,0,1-.53.28c-1.66.5-3.35.95-4,2.62,2.12-.17,4.45-.53,6.67.67.9.49,1.4,1.07.53,2s-.27,2.58-1.74,3.37c1.75-.18,2.49.62,2.55,2.14,0,1.11,1.51,1.37,1.48,2.45,0,1.23.39,2.36-.18,3.76a4.2,4.2,0,0,0,1.06,4c.42.41.8,1.08.4,1.36-1.5,1.09-2,3.61-4.58,3.17a2.27,2.27,0,0,0-1.47.27,37.86,37.86,0,0,0,4.12.37c.94.14,1.92.37,1.4,1.75-2.93,1.69-8.06.85-10-1.67a1.39,1.39,0,0,0-1.14-.66c-3.57.14-7.05-.82-10.61-.85a17.31,17.31,0,0,0,4.24.56,9.59,9.59,0,0,1,4,1c.54.24,1.15.56.95,1.3s-.89.94-1.58.8c-1.82-.37-3.66-.46-5.49-.73a7.22,7.22,0,0,0-2.36-.1,2.94,2.94,0,0,1-3.64-1.89c-.73-1.6-2-1.59-3.44-.22.6.65,1.22.09,1.82.06,1.44-.09,2,.64,1.4,1.92a2.19,2.19,0,0,0-.31,2c.5,1.13-.22,1.32-1.15,1.41-3.29.3-4.36,1.46-4.37,4.82,0,1.35,0,2.63-1.16,3.61-.49.42-.39,1.08-.48,1.67-.18,1.15,0,2.39-.69,3.45-1,.09-1.12-.71-1.25-1.35a13.69,13.69,0,0,1-.39-2.63c-1.22-2.81-.54-5.85-1-8.76a3,3,0,0,1,.8-2c2.25-3.14,4.6-6.24,6.57-9.56,1.58-2.65,1.37-2.78-1.32-4.07C110.56,162.2,112.08,162.94,112.32,161.82Z"/><path class="cls-52" d="M105.2,187.57c.83.37.81,1.11.78,1.84a2.44,2.44,0,0,0,.79,2.12,1.21,1.21,0,0,1,.43,1.24c-.39,1.48-.28,2.53,1.39,3.29,1.18.54,2.1,1.41,3.58,1a2.79,2.79,0,0,1,3.15,1c.67,1,1.66.91,2.63,1a8.76,8.76,0,0,0,3.78,0,1.78,1.78,0,0,1,1.14.11c.33.23.29.55.21.87-.16.59-.47,1.2.65.78.47-.18.88.22,1,.71a1.25,1.25,0,0,1-.57,1.36c-.84.59-1.28,1.12-.66,2.23.36.66,0,1.4-1,1.57-1.61-1.89-3.53-1.76-5.84-1.44-1.35.19-3.17.89-4.58-.39-.09-.08-.27-.17-.36-.13-2.38,1.25-4.59-.59-7-.44a7.3,7.3,0,0,1-5.34-1.76,7.22,7.22,0,0,0-2.64-2.24c-.69-.38-1.3-.88-1.21-1.62.23-2.13-1.23-2.37-2.72-2.65a4.68,4.68,0,0,1-1.56-1.16c0-.26-.26.3-.07.11s.14-.06.16.11c.14,1-.07,1.94-1.09,2.21a2.89,2.89,0,0,1-3.2-1c-1-1.52-1.58-1.51-2.79-.24s-3,1-4.62,1c-.57,0-.54-.62-.16-1.05a2.16,2.16,0,0,1,2.28-.17c1.43.11,1.76-.88,2-2,3.11-.29,5.27-3.19,8.56-3,.73,0,1.34-.78,2.14-.91l1.19-.4c.4.15.52-.27.79-.4.23-.56.09-1.49,1.19-1.18.92.68,1.85.09,2.78,0s1.8.53,2.6-.46C103.65,186.78,104.47,187.54,105.2,187.57Z"/><path class="cls-5" d="M88.87,167.26c-.83-.32-.51-1.29-.8-1.91-.17-.37.58-1.16,1.31-1.1,1.14.1.49.84.28,1.25C89.38,166.07,90.11,167.05,88.87,167.26Z"/><path class="cls-53" d="M92.91,195.89c2-.24,2.78.32,3,2.45.15,1.76,2.05,1.7,2.84,2.83.2.28.41.9.92,1.06,0,1,0,2,1.39,2.39,1,.27.61,2,1.78,2.36,0,.66-1.37,1.13-.27,1.94a2.9,2.9,0,0,1-.7.66c-.4.19-1.16-.14-1,.77.14.69.52,1.06,1.26.91.39-.09.86-.24.81.38,0,.37-.42.4-.79.36-1.39-.18-2.8-.29-4.19-.53a2.08,2.08,0,0,0-1.84.63c2.11-.87,1.1,2.8,3.44,1.28-.89.94-1.66,1.51-2.44.44-.3-.42-.44-.45-.6,0a1.32,1.32,0,0,1-1.66,1c-.91-.26-.95-1.36-.83-1.95.47-2.41-1.68-1.42-2.13-1.34-1.6.3-3.11,1.11-4.28-.78-.22-.35-.51-.4-.68.09a.76.76,0,0,1-1.13.43c-.59-.25-.3-.89-.25-1.23.19-1.31-.15-1.73-1.44-1.22-1,.39-2.28-.14-3.11.88a1.75,1.75,0,0,0-2.09-.68c.87.43,0,3,2.18,1.26a.63.63,0,0,1,.88.18c.08.16,0,.5-.18.7-.64,1.05-3,1.14-3.25,0-.44-1.76-1.5-1.15-3.15-1.22,2.85,1.51.29,2.18.19,3.2,0,.24-.44.16-.68,0a17,17,0,0,0-8.07-2.06c.8-.65,1.41-1.15,2.37-.72.37.17.83.64,1.17,0,.15-.27.33-.68.23-.91-.34-.79-.94-.16-1.35-.07-1,.21-2.11-.7-2.88.5-.6-.73-1.67-.37-2.26-1-.29-.3-.15-1.21.27-1.15,1.82.23,3.39-.89,5.08-.85,1.23,0,2.09,1.41,3.44,1.44-.15,1-1.3.7-1.57,1.42,2,.66,3.51.23,4-1.41.25-.87.87-.72,1.31-.88.66-.25,1.45-.19,1.8-1.17A26.58,26.58,0,0,1,68,204.61c.29-1.07.29-1.07,2.7-2,1.33-1.61,3.18-1.45,4.9-1.21a17.84,17.84,0,0,0,8.93-.7,25.1,25.1,0,0,0,6.63-4.05A2.55,2.55,0,0,1,92.91,195.89Z"/><path class="cls-54" d="M102.81,207c-.63-.23-2.29.73-1.4-1.28.18-.41-.46-.87-1-1-1.7-.38-1.68-1.29-.74-2.47.87.32,1.58,2.22,2.73.21.18-.31.72.34.84.8.25.9.87,1,1.69.91,1.62-.16,3.36-.91,4.69.76,1.48-.91,3,.24,4.2.08,2.16-.29,4.36-.15,6.52-.55.89-.16,1.75,1.17,2.31,2.15.33.19.64.39.35.83a1.65,1.65,0,0,0-.54,1,3,3,0,0,1,.71-1.18c1-.46,1.43.24,1.86.93,1.32,1.38,2.76,2.38,4.82,1.65a.87.87,0,0,1,1.15.48c.12.26.16.51-.14.67s-.66.79-1.17.42a4.39,4.39,0,0,0-1.46-.51,1.08,1.08,0,0,0-1.35.45c-.36.52,0,.85.32,1.19,1.07,1.13.93,2.18-.19,3.18-1.3-.11-1.4-1.15-1.29-2,.17-1.42-.89-1.4-1.42-1-1.14.82-2.6.34-3.67,1.21a1.34,1.34,0,0,1-1.8-.24c-.71-1.28-1.93-.85-2.85-.89s-2.29.13-2.32-.3c-.08-1.15-.92-1.92-1-2.92a2.5,2.5,0,0,0-2.84-2.42c-1.5.14-3-.55-4.53.1a.53.53,0,0,1-.79-.32C103.77,204.91,103.34,206.76,102.81,207Z"/><path class="cls-55" d="M92.91,195.89a29,29,0,0,1-5.9,4.38,15,15,0,0,1-10.36,1.83,10.66,10.66,0,0,0-5.93.53A7.86,7.86,0,0,0,66,203.86c-.45.24-1,.13-.9-.16.65-1.71-.92-1.06-1.46-1.47a.34.34,0,0,1-.49,0c0-2,1.95-2,3-2.84a4.39,4.39,0,0,1,3.58-.79c1.69.3,2.54-.53,3.38-1.74,1.18-1.69,4.93-2,6.4-.58,1.29.79,4,.17,5-1.06.2-.24.33-1.42,1-.57s2.31-.49,2,.53c-.5,1.87.93,1.34,1.56,1.68.46.25,1.32.72,1.56-.3.08-.37,1.44-1.48-.43-1.36a.62.62,0,0,1-.15-.47.47.47,0,0,1,.63-.31C91.47,194.82,92.44,195,92.91,195.89Z"/><path class="cls-56" d="M63.19,202.23h.4c-.05,1.47-2,2.27-1.46,4a1.52,1.52,0,0,1-2.11.34c-1-1.43-.93-2.49,1-2.93.22,0,.77-.1.56-.58a2.45,2.45,0,0,0-.77-1c-.26-.19-1,.9-1-.24,0-.54.76-.31,1.18-.36.2,0,.4,0,.6,0C62.56,200.84,62.78,201.73,63.19,202.23Z"/><path class="cls-54" d="M116.76,214.12l2,1C117.67,216.19,117.64,216.18,116.76,214.12Z"/><path class="cls-57" d="M167,135.27a6,6,0,0,0-.8,2.95c0,.22.08.45-.19.69-.74.66-.76.83-.13,1.06,1.85.7,1.35,1.72.48,2.82-.25.31-.73.56-.78.87-.11.85-1.78,1.49-.21,2.63.83.6-.75,1.74.07,2.71s-.21,1.61-.79,2.25c-.21.23-.8.5-.6.66,1.5,1.24-.59,1.28-.62,2-1.23,1.16-4.39,1.51-5.72.65a1.24,1.24,0,0,1-.66-1.13c0-.52.48-.57.88-.59,1,0,2-.81,3,0-.61-.72-1.32-.36-2-.33-1.13,0-2.48.39-2.89-1.27-.05-.2,0-.36-.29-.06-1,.88-1.79.43-2.33-.66a2.72,2.72,0,0,0-1.16-1c-2.13-1.29-2.16-1.81-.08-3.75-1.46-.48-2.22-1.32-1.4-2.85.08-.15.27-.34-.14-.57-1.53-.88-1.5-.92-.8-2.4-1-.24-2.09.21-3.13,0s-1.69-.61-.67-1.66c.28-.29.71-.68.2-.95-2.1-1.11-1.72-3.38-2.51-5.1-.74-1.51-1-3,.39-4.31a1.31,1.31,0,0,0,.33-.7l2.28-4.38c-1.68.69-3.16.07-3.43-1.27-.23-1.17,1.59-.66,2.66-1.37-1.2-.16-2.27-.29-2.22-1.63,0-1.13,1.05-.85,1.75-1.14-.77-.39-2.25.16-2.16-.87.13-1.39,1.75-1.26,3.33-1.78-2.7-.31-3.49-1.67-3-3.83,2.07-.75,3.25.15,2.92,2.24,0,.08-.16.14-.12.23a.51.51,0,0,1,.37-.11,5.18,5.18,0,0,1,2.72,1H150c1.3.35,2.62.6,3.39,2,.28.49,1,.6,1.59.65s1.38.46,1.2,1c-.41,1.34.58,1.71,1.19,2.49.75,1,1.11,2.22,2.14,3l.39.4c.09.7.06,1.45,1,1.69a2.6,2.6,0,0,1,1.63,1.33,1.23,1.23,0,0,0,.52.56c.95.4,2.08.07,3,.83s-.33,1.91.73,2.81c.89.76.19,2.34.69,3.47A.83.83,0,0,0,167,135.27Z"/><path class="cls-58" d="M159.47,123.38c-1.72.31-2.23-1.48-2.36-2.19-.29-1.54-1.07-1-1.88-1a5.51,5.51,0,0,1-1.15-.3c1.13-.41,1.81-.81,1.78-1.74,0-.51-.15-.93-.78-.85-1.56.19-2.37-.67-3.06-1.94-.38-.69-1.74,0-2.06-1.09,2.27-1.17,4.78-2,6.57-4.36.63.29,1.2,1.33,1.65,2.07,1,1.67-1,.89-1.61,1.52.7.86,1.83.62,2.73.94-.21,1-1.6.53-1.6,1.54.61.58,1-.19,1.58-.27-.54,4-.34,4.55,1.78,5.29.39.77.39.76-.23.94A1.8,1.8,0,0,0,159.47,123.38Z"/><path class="cls-58" d="M167.39,134.47c-.51-.66-1.58-1.12-.75-2.28.39-.55-.11-.93-.5-1.31s-1.67-.68-.32-1.82c.58-.49-1-1.17-1.49-1a1.79,1.79,0,0,1-2.49-1.39,1.41,1.41,0,0,0-1.28-.77c-1.61-.23-1.41-1.07-.7-2.08,1.39-.46,3-1,4.24-.61,1.69.52,3.79-.36,5.11,1.49.38.54.72,1,.46,1.59-.49,1-.21,2.83-.46,3.06C167.64,130.8,168.57,133,167.39,134.47Z"/><path class="cls-9" d="M171.36,162.21c.14-.53-.72-1.06,0-1.58.24.6,1.44.2,1.29,1.09C172.54,162.33,171.85,162.18,171.36,162.21Z"/><path class="cls-9" d="M171.63,159.46c.27,0,.6,0,.61.32a.77.77,0,0,1-.69.82c-.41.06-.33-.33-.4-.52C171,159.65,171.31,159.53,171.63,159.46Z"/><path class="cls-7" d="M162.71,122.23c.57-.65,1.08-.36,1.71-.39C163.87,122.43,163.44,122.78,162.71,122.23Z"/><path class="cls-9" d="M170.37,158.18c-.58.48-1,0-1.39.07.07-.17.11-.46.2-.48A1.17,1.17,0,0,1,170.37,158.18Z"/><path class="cls-59" d="M83.79,132.89v.79c0,.65,0,1.3.8,1.59h0c.31.56.35,1.1-.27,1.45a1.23,1.23,0,0,0-.75,1.18c-.95.64-1.62,0-2.13-.61s0-1.2.5-1.64c.77-.68,0-.81-.38-1.1a2.82,2.82,0,0,0-3.12-.87,2.2,2.2,0,0,1-2.2-.41c0-.85-1-.63-1.26-1.27,0-.34.34-.53.44-.87-1.25-.36-2.26.37-3.4.62.44.9,1.32,1.22,2,1.77a.88.88,0,0,1,.28,1,1.47,1.47,0,0,1-1.63,0c-1.32-.59-2.09-.1-2.47,1.21-1,1.38-2.12,2.37-4,2.16a2.78,2.78,0,0,0-3,1.76,8.51,8.51,0,0,1-.8,1.56H62c-1.1.12-2.57,1.07-2.48-1.39-1,.6-1.85,1.83-2.67.2-.94-1,.58-2.09.1-2.89s-2.11-.12-2.47-1.47a1.82,1.82,0,0,1,1.83-.33,2.15,2.15,0,0,0,2.15-.6A3.22,3.22,0,0,0,59.61,133,1.51,1.51,0,0,1,61.45,132a20.56,20.56,0,0,0,3.14,0c.68,0,1.48.1,1.79-1-.93-.42-1.77.39-2.64.16-.54-.15-1-.35-1.07-1s.48-.67.9-.82c1.27-.44,2.64-2.09,2.41-3-.34-1.38-1.53-1.43-2.66-1.52a1.06,1.06,0,0,1-.54-.21c.56-1.8,1.89-2.49,3.85-2.38s4-.27,5.94-.2a14.51,14.51,0,0,0,6.71-1.47c1.09-.48,2.28.66,3.48.93.58.13.21.87,0,1.37-.5,1.22-1.69,1.72-2.61,2.5A7.18,7.18,0,0,0,82,124.25c1.17-.92,1.86-.51,2.5.62s0,1.83-1,2.28a6.31,6.31,0,0,1-2.11.44,2.25,2.25,0,0,0-1.84.78c1.43.69,2.8.25,4.13.36,1.06.48,2.35.24,3.33,1-.81.66-2.06.29-2.77,1.19C83.63,131.48,84.18,132.28,83.79,132.89Z"/><path class="cls-60" d="M62.79,124.57c1.83-.38,3.51.27,3.84,1.45s-.92,1.83-1,3.06c0,1.42-2,.13-2.78,1.12.61,1,1.54.73,2.25.29a1.34,1.34,0,0,1,1.77,0c.25.2.56.47.32.82a2,2,0,0,1-1.53,1.13,34.89,34.89,0,0,1-4.34,0c-.81-.08-1.29-.06-1.34.86-1.07.93-2.45-.07-3.61.61.85.27,1.88,0,2.42,1a1.79,1.79,0,0,1-2.43,1,9.26,9.26,0,0,0-1.92-.21h-.39c-.7,0-1.72.79-1.94-.27a1.51,1.51,0,0,1,1.91-1.7c-1.76-1.14-3.49-.13-5.13-.41.39-2.13-1.28-.2-1.55-.7.31.17,1,0,1.15.7-.27.4-.91.79-1.1.62-1.19-1.12-2.77-.45-4-1,.37-.65,1.15-.88,1.57-1.47.18-.25.58-.31.56-.73-.06-1.39.18-1.69,1.51-1.29,1,.29,1.81-.13,2.7-.18.43,0,.81-.25.74-.75-.25-2,1.17-1.48,2-1.23a10.31,10.31,0,0,0,4.84.21c.49-.28,1.42-.06,1.26-1.09a1,1,0,0,1,.24-.46C60.09,125.24,61.21,124.21,62.79,124.57Z"/><path class="cls-61" d="M62.4,141.21c.93-3.47.94-3.36,4.76-3.72a4.62,4.62,0,0,0,2.76-1.83c2.49,1.58,4.84-.07,7.2-.43a16.19,16.19,0,0,0,4.69-1.15c.76.53,1.76.71.37,2-1.75,1.6.81,1.29,1.22,2q.19-.28.39,0h0c.16.12.43.24.42.39-.09,1.8.92,3.08,2,4.37.13.26.27.52.4.79.2.92.59,1.85,0,2.77a8.14,8.14,0,0,0-2.55.22c-.39.14-.59-.19-.59-.57s0-.64.53-.29,1.44.43,1.27-.38,1.37-2.37-.45-2.56c-2.49-.27-4-1.8-5.83-3.18-.91-.69-2.72-.22-4.12-.22-.51,0-1,.21-1.54.24-1.7.09-3,.39-2.79,2.66.07.65-.15,2.05-1.2,1.94-.59-.07-1.65.4-2.24-1-.3-.7-1.22-2.91-3.26-1.68-.06-1.36,1.26-1.56,1.69-2.48C63.68,138.83,63.45,140.61,62.4,141.21Z"/><path class="cls-62" d="M57.64,127.74c-2.29,1.12-4.51-.19-7-.19,1.19,1.81.38,1.94-1.33,2.33-1.45.33-2.73-.37-4.08,0,1.21,1.06.5,2.17-1.86,3-.53,0-1.06.38-1.59,0l-5.55-.4c.1-.72,1.58.09,1.22-1.05s-1.17-.86-1.88-.45-1,.17-1.22-.42c-.15-.4,0-1,.4-.94,1.87.36,1.73-1.33,2.36-2.2s.67-1.26,2-.44c1.59,1,2.82,1.85,3.08,3.79.08.56,1.18,0,1.25.8.56-.12.53-.65.77-1,1-1.48,1.33-3.76,3.92-3.54.31,0,.66-.38,1-.6s.67-.53.41-1-.67-.29-.9.1-.48.35-.76.08-.15-.47,0-.82c.47-1.25,1.88-1.22,2.62-2.08.16-.19.6.08.58.32-.08,1,1,1.44,1.12,2.43.16,1.32,1,1.81,2.31,1C55.42,127.26,57,126.29,57.64,127.74Z"/><path class="cls-63" d="M23.91,147.53c0-.53.07-1.05.1-1.58l6.29-1.18a2.27,2.27,0,0,1,2.78,0h.79c.06.4.13.72.7.63.79-.12,1.8-.45,2.08.67s-1.11.92-1.59,1.47C31.35,146.54,27.63,147.23,23.91,147.53Z"/><path class="cls-61" d="M56.85,140c.59,0,1.35,1.12,1.7-.36.15-.63.91-.54,1.35-.33.92.44.4,1.15,0,1.88H62c-1.23.82-3,.27-4.06,1.7-.5.65-.62-.48-.92-.78A1.65,1.65,0,0,1,56.85,140Z"/><path class="cls-64" d="M95.46,152.89a14,14,0,0,1,2.28-.94,2,2,0,0,1,2.45,1.45c.23.54.29,1-.3,1.34a2,2,0,0,1-2.63-.58A3.18,3.18,0,0,0,95.46,152.89Z"/><path class="cls-65" d="M86.57,146.36v-2.77c.91,2.85,4.12,3.57,5.55,5.94-1.56,0-2.48-1.27-3.62-2C87.87,147.11,87.23,146.72,86.57,146.36Z"/><path class="cls-62" d="M48.53,133.29c-.73-.54-1.64-.29-3.07-.67,1.7-.59,3-1.47,4.12-.79,1.5.91-.56.88-.65,1.46Z"/><path class="cls-2" d="M61.29,148.75c0-.49.16-.73.53-.73a.85.85,0,0,1,.9.81.51.51,0,0,1-.53.63A.85.85,0,0,1,61.29,148.75Z"/><path class="cls-2" d="M40.37,147.47a1.64,1.64,0,0,1,2.06-1.05c.53.11.3.84.18.76C41.8,146.63,41.27,147.56,40.37,147.47Z"/><path class="cls-2" d="M70.92,153.54c.28,0,.49.18.44.48a.41.41,0,0,1-.53.39.63.63,0,0,1-.36-.4C70.41,153.71,70.63,153.57,70.92,153.54Z"/><path class="cls-66" d="M63.19,202.23c-.55-.22-.9-.85-1.58-.79V201c.58-1-.12-2.57,1.46-3.09-.36-.7-1.93-.5-1.33-1.38a3.7,3.7,0,0,1,2.72-1.64,4.38,4.38,0,0,0,2.84-.77c.71-.37,1.39-1.2,2.48-.8.61.23.79-.52,1.11-.92.89-1.13,1.55-2.92,3.5-1.35.57-.84,1.47-.73,2.31-.82s2.26,1.28,1.94,2.2c-.19.53-.1,1.19.2,1.16,1.74-.15,1.72,1.88,3,2.26l-2.37.4c-1.81-1.49-3.58.26-5.38.09-.58,0-.45.69-.66,1.06-1,1.74-2.61,1.93-4.45,1.77a3.35,3.35,0,0,0-3.63,1.63C64.89,201.64,63.15,200.6,63.19,202.23Z"/><path class="cls-2" d="M94.49,190a2.46,2.46,0,0,1-2.34,1.18,4.92,4.92,0,0,0-3.26,1.2,6.41,6.41,0,0,1-5.1,1.58c-.07-.69,1-1.69-.22-2-2.61-.72-1.21-2.07-.75-3.41.56.15,1,1.74,1.59.14.14-.37.74-.33,1.08-.15,1,.52,1.6,0,2.22-.64a1.51,1.51,0,0,1,.79-.54c.86-.07,2.08-.62,2.43.51.44,1.45-1.21.61-1.71,1.2.38.76,1.38.61,1.88,1.27a1,1,0,0,0,1.68,0A1.16,1.16,0,0,1,94.49,190Z"/><path class="cls-46" d="M44.19,204.62l-.42,0c-.82-1.39.11-2.1,1.1-2.74s2.62-.4,2.37-2c-.55-3.44-1.13-3.91-3.86-4a2.41,2.41,0,0,1,2.88-1,2.71,2.71,0,0,1,1.88,2.88c-.06.59,0,1.21.79,1.31.59,1.31,1.55.45,2.38.39a3.21,3.21,0,0,1-2.38,2.38c-.37.47,0,1.29-.8,1.58h-.39c-.44-.1-1.6.2-.46-.79.3-.26.39-.49.14-.8a.51.51,0,0,0-.69-.14c-1.16.7-2.7,1.09-2.55,2.93Z"/><path class="cls-2" d="M36.25,180.44a3.63,3.63,0,0,0-2.53.66c-.93.74-3.69-.6-5-2.25C31,180.36,33.73,179.94,36.25,180.44Z"/><path class="cls-2" d="M44.87,179.2c.92-.19,1.6-1.63,2.75-.64.26.23.41.51.13.84C46.76,180.54,45.86,179.41,44.87,179.2Z"/><path class="cls-2" d="M40.18,176.36a3.75,3.75,0,0,1-3.45.2C37.93,175.2,38.91,175.85,40.18,176.36Z"/><path class="cls-2" d="M89.55,184.3c.36.25,1.23-.15,1.16.65-.06.62-.73.64-1.26.62s-.83-.07-.82-.6S88.94,184.14,89.55,184.3Z"/><path class="cls-2" d="M100.44,188c-1.59,1-2.12,1-2.78,0C98.58,188.16,99.51,187.58,100.44,188Z"/><path class="cls-2" d="M88.33,185.5c-1.09,1.05-1.68,1.47-2.31.34C86.61,185.36,87.24,185.71,88.33,185.5Z"/><path class="cls-2" d="M50.11,182.42l-2.1,1.4c.25-.68.39-1,.53-1.4C49.06,182.56,49.59,181.7,50.11,182.42Z"/><path class="cls-2" d="M40.61,179.65a2.09,2.09,0,0,1-2.38,0C39,179.34,39.81,179,40.61,179.65Z"/><path class="cls-2" d="M94.25,188.23c.51-.38.87-.76,1.16-.41s-.15.48-.43.52A3.62,3.62,0,0,1,94.25,188.23Z"/><path class="cls-2" d="M96.47,189.15c-.3.28,0,.89-.51,1a3.39,3.39,0,0,1-.28-.61A.82.82,0,0,1,96.47,189.15Z"/><path class="cls-67" d="M149.57,114.27c-1.18.24-2.08-.63-3.15-.8-.17,0-.46.1-.31-.38.48-1.53-.57-2.34-2.49-2-1.24.79-1.91-.32-2.76-.83a2.93,2.93,0,0,1-.37-.42,6.46,6.46,0,0,1-2.18-3c-.45-1.49-2.36-2.33-2.79-4.08,0-.15-.34-.14-.54-.15a3.38,3.38,0,0,0-.78,0,2.44,2.44,0,0,1-2.93-1.39c-.38-1.15,1.15-1.35,1.81-2,.77-.43,1-1.69,2.27-1.36.68.84,1.32,1.09,2.29.26a2.68,2.68,0,0,1,3.84.72c.15.24.27.45.56.48,1.05.12,2,.28,1.67,1.78-.08.38.61.35.95.5.51.22,1,.45.55,1.14-.19,1.29.19,2.55-.48,3.91a2.64,2.64,0,0,0,1.62,3.53A4.72,4.72,0,0,1,149.57,114.27Z"/><path class="cls-68" d="M145.21,102.78c-.12-1-.91-.74-1.53-.8s-1.09-.13-1.07-.86c0-.45,1.3-.21.63-1-.41-.5-1-.07-1.49-.13-1.15-.13-1.09-.81-.49-1.79-.8.06-1.35,1.36-2.06,0-.56-1.08-1,.22-1.37.55-1.5,1.26-1.85,1.18-2.53-.67a.47.47,0,0,1,.4-.39c1.27-.1,2-1.22,3.18-1.57a6.19,6.19,0,0,0,4.75.17c1.66-.58,1.78,1.32,2.93,1.23C144.87,98.92,147.74,101.53,145.21,102.78Z"/><path class="cls-62" d="M144,207.78h-.4c-.82-.54.8-1.07.06-1.5-1.54-.89-2.61-3-4.91-2a.93.93,0,0,1-1.09-.08c-.83.17-1.36-.43-2-.79-.29.16-.48,0-.67-.19s-.13-.21-.2-.31c-.19-.26,0-1.11-.77-.46a2.1,2.1,0,0,1-.78-.21c-.18-.07-.35-.16-.52-.24-1-.31-1.66-.79-1.15-2a14.24,14.24,0,0,1,2.95-2.58,3.74,3.74,0,0,1,3.72-.68c2.45,1.06,5.07,1.3,7.62,1.88a6.75,6.75,0,0,1,3.4,1.42,3,3,0,0,1,.41,1.29c.24,1.7,0,2-1.78,1.64-1.11-.24-2.17-.43-3,.16,1.76-.12,3.72.14,5.67,0,.77,1.85.56,2.25-1.17,2.23-1,0-2,.35-3.09.39.2.88.88.67,1.28.92a1.54,1.54,0,0,1,.9.78c-.11,1.15-.71,1.48-1.76,1.06C146.13,207.39,144.85,208.36,144,207.78Z"/><path class="cls-69" d="M131.74,200.25c-.31,1.36,1.12,1,1.53,1.64-.75.76-1.82.08-2.7.48.87-.41,2,.57,2.7-.48a4,4,0,0,1,.84.34c.42.24.79.53,1.19.79l.4.4c.15,1.1-.54,1-1.2.78-1.15-.32-2.28-.7-3.22.46-.26.31-.55.1-.87,0-1.74-.49-2.48.21-2,1.94.13.47.23.9-.19,1.25a1.29,1.29,0,0,1-1.63,0c-.6-.37-1.25-1-1.56.27-.62-.35-1.15-.95-2-.79-.13-.26-.26-.53-.4-.79.42-.47,1.12-1,.32-1.59-1.23-1-.57-1.46.4-2a3.91,3.91,0,0,0,.92-.71.6.6,0,0,0,.06-.87.51.51,0,0,0-.84-.07,1.55,1.55,0,0,1-1.32.6,4.61,4.61,0,0,1,.86-2.54c.58-1.53,1.93-1.41,3.06-1.16A26.92,26.92,0,0,1,131.74,200.25Z"/><path class="cls-70" d="M158.28,219.66v-.79a4.41,4.41,0,0,0-2.75-.81c-.77,0-1.41-.29-.6-1.18.49-.54.29-.73-.32-.87s-1-.74-1.28-1.35-.78-1.24-1.6-.26-1.88.26-2.6-.27a1.38,1.38,0,0,1,0-2.34,1.47,1.47,0,0,0,.43-1.24.65.65,0,0,1,.07-1c1.4-.59,1.42-1.87,1.67-3.05a1.81,1.81,0,0,1,.2-.5,1.63,1.63,0,0,0,.39-1.41c-.39-1.28.31-1.58,1.38-1.58l.26,0c1.29,1.72,1.38,1.8,2.77,2.38a5.06,5.06,0,0,0-.78,0c-.49.06-1.24-.26-1.39.36-.2.8.73.48,1.09.75.8.62,2.38,1,.26,2.13-1.18.61.12,1.23.33,1.94-.88.18-1.91-.46-2.5.53-.29.47,0,.83.25,1.24.57.89,1.24.11,1.89,0-.59,1.83-.15,2.33,2,2.5a2,2,0,0,0,.34.47c.35.28,1.15-.08,1.12.75s-.9.47-1.28.82C158.2,217.81,159.28,218.51,158.28,219.66Z"/><path class="cls-71" d="M137.68,204.21c2.22-1.32,4-.73,5.48,1.23a2.3,2.3,0,0,0,1.94.68c0,1-1.79.41-1.48,1.66a30.86,30.86,0,0,0-3.36-.95C138.8,206.65,138.11,205.52,137.68,204.21Z"/><path class="cls-71" d="M151.55,206.58c1,2.15-1.37,2.63-2,4a2.16,2.16,0,0,1-2.77-2c.73-.14,1.47-.25,1.59-1.19C149.18,206.09,150.44,206.64,151.55,206.58Z"/><path class="cls-71" d="M144,207.78c.93.26,2.19-.66,2.77.79C146,207.86,144.8,208.56,144,207.78Z"/><path class="cls-72" d="M144,132.1a19.55,19.55,0,0,1,1.11,2.89c.19.89.19,1.68,1.41,1.69.54,0,.75.56.78,1,.09,1-1.29.49-1.51,1.42,1.5,1.11,3.69-.73,5.2,1.08-1.85-.11-1,1.09-1.24,1.9.75.09,1-1.17,1.75-.45s-.16,1-.34,1.47c-.35.88-1,1.74.75,1.85.47,0,.91.59,1.33.88-.36.8-1.38-.05-1.52.68s-1.83,1.87.44,2.38c.5.11,1.57.38,1.73,1.36.09.51.08,1.11.89,1,.63-.1,1.14-.28.95-1.32.54,2.46,2.18,2.48,3.81,2.09,1.07-.25,1.7.38,2.84.78-1.79.88-3.58-.4-5.21.88,2.1,1,4.11,1.41,6.24.21.35.81,2.67.56,1.21,2.48-.3.39,1.33,1.68,1.21,2.93,1.93-.16.63,1.36.81,1.95s0,1.6.6,2.33-.3.73-.52,1.09c-.68,1.09.07,2.86-1.62,3.54a.67.67,0,0,0,.06.54c1.43,1.22,1.44,2.73,1.38,4.49-.05,1.3,4.14,2.76,6.16,2.31.64-.14,1.25-.53,1.81.13,2.29,1.09,1.09,3.53,2,5.16-.07,0-.15,0-.2,0-1.4,1-2.11-1.41-2.86-.86-1.16.85-1.95,1.18-3,.12a.35.35,0,0,0-.15-.12c-3.55-1.38-5.26-4.32-4.89-8.42a1,1,0,0,0-.37-1.05c-.87.14-1-.45-1.08-1.09.21-2-1.07-3.47-1.92-5a8.93,8.93,0,0,0-3.2-3.36c-1.74-1.07-2.79-3-3.85-4.67a9.65,9.65,0,0,0-6.85-4.55c-1.35-.26-3,.24-4-1.24a2.43,2.43,0,0,1-.17-.54c0-1.28-.83-2.15-1.47-3.13a2.62,2.62,0,0,1-.44-1,1.33,1.33,0,0,1,.21-1.13c1.1-1.12,1.18-2-.33-2.9-.93-.58-.29-1.51.27-2a3.53,3.53,0,0,0,1.12-4.23,5.58,5.58,0,0,1,.32-3.09A1.16,1.16,0,0,1,144,132.1Z"/><path class="cls-73" d="M131.74,200.25c-1.67.35-3.06-.57-4.47-1.12a4.22,4.22,0,0,0-4.25.32h-1.19a8.55,8.55,0,0,1-4,0,2.48,2.48,0,0,1-3.13-1.25c-.67-1.16-2-.79-3.06-.59s-5-1.53-5.25-2.52c-.37-1.2.72-2.32.34-3.57-.26-1.5.53-3,.15-4.47a.79.79,0,0,1,.32-.69c1.42-.81,1.31-2.06,1.38-3.5.2-4.45,1.07-5.14,6.13-5.53-1.28-1-1.51-2-.14-3a.68.68,0,0,0,.22-1,.92.92,0,0,0-1.24-.24c-.84.42-1.67.9-2.54.11a.72.72,0,0,1-.07-1.06,3.37,3.37,0,0,1,2.81-1.18,2.08,2.08,0,0,1,2.06,1.8c.32,1.43,1.09,1.6,2.45,1.44,2.76-.33,5.47.4,8.2.74.56.07,1.27.55,1.47-.31.14-.63-.64-.71-1.1-.91-2.54-1.11-5.3-.72-7.94-1.2-.48-.09-1.25.2-1.31-.51-.07-.95.81-.64,1.32-.68a21.2,21.2,0,0,1,6.1.61c1.45.31,2.9,0,4.33.2.91.12,1.85-.1,2.17,1.51.28,1.42,2.37,1.5,3.52,1.48,1.92,0,3.9.57,5.79-.24l.11.24c0,.74-.52,1.28-.64,2,.53.44,1.19.23,1.78.37.9-.09,1.79.08,2.69,0a5.29,5.29,0,0,1,.56,0c2.43-.39,2.74-.19,2.77,1.78.12.79.55.1.82.16a6.76,6.76,0,0,0,5,.89,1.14,1.14,0,0,1,1.56.79,1.43,1.43,0,0,1-1.16,1.61,10.23,10.23,0,0,0-2.42.79c.3,0,.53-.22.79-.21a38.37,38.37,0,0,0,8-.46,2.25,2.25,0,0,1,1.5.37c.22.23.68.52.63.67-.34,1.1-1.16,2.24.88,2.57,1.08.17,1.48,1.81,3.07,1.26A1.7,1.7,0,0,1,169,189.2c.24,1.17,1.33,2,3.08,1.44,2.63-.87,5.07,1,4.81,3.27a6.88,6.88,0,0,1-.61.91,15.38,15.38,0,0,1-5.6,3.94,32.82,32.82,0,0,1-4.27,1.53,27.84,27.84,0,0,1-6.12-.12,7.07,7.07,0,0,0-3.9.3c-1.77.78-3.64.48-5.45.76a1.67,1.67,0,0,1-1.79-1,41.23,41.23,0,0,0-8.13-2c-.25-.05-.6.07-.77-.06-3.13-2.38-5.44-.55-7.73,1.47C132.29,199.9,132,200.06,131.74,200.25Z"/><path class="cls-74" d="M147.59,179.65c.41-2.08.14-2.26-2.38-1.59a1.13,1.13,0,0,1,.12-1.06c-.43.42-.35.79-.52,1.06-.92.09-1.85-.34-2.77,0-.52-1.26-.09-2,1.23-2.27a1,1,0,0,0,1-1.21c0-.66-.26-1-1-.54s-1.38,1.27-2.44.85c-.08-1.08-.83-1.2-1.69-1.19-1.24,0-2.49,0-3.73-.06-.46,0-1-.2-1.07-.69s.58-.67,1-.76a7.55,7.55,0,0,1,1.58-.07c1.16,0,2.32.13,2.43-1.54,0-.26.34-.56.6-.72.44-.26,1.38,0,1.17-.94s-1.15-.66-2-.9c1.28-.8.9-1.71.36-2.65s-1-1.64.28-2.3c.54-.28.73-.79,0-1.21-.49-.29-.27-.75-.36-1.15-.35-1.56-1.47-2.82-1.94-4.38-.12-.42-.89-.12-1.36.22a.64.64,0,0,1-.87-.24c-.24-.35,0-.63.28-.82.9-.66,1.68-1.34,1.11-2.61a.45.45,0,0,1,0-.2c.08-.72,2-.77,1-1.57s-2.37-1.6-3.81-1.1c-.91.32-1.68-.16-2.52-.07s-1.55.75-2.59,0c1.25-.46,2.46-.81,2.53-2.35,0-.35.61-.47,1-.44,1.42.1,2.45-.77,4-1.47-2.08-1.09-4.12.69-5.75-.82-.21-1.25,2.42-.4,1.78-2.12-.34-.91.36-2.25-1.32-2.6a2.4,2.4,0,0,1,2.28-.73c1.94.88,2.15-.76,2.78-1.71.28-.43.38-.9.87-1.23.94-.64,2.69-1.39,0-2.15-.93-.26-1-1.12-.26-1.87.28-.26.73-.47.45-.94a.88.88,0,0,0-1-.36,2.05,2.05,0,0,1-2.25-.89c-.81-1.05-1.45-2.17-3.08-1.8-.16,0-.53-.22-.6-.41a.76.76,0,0,1,.57-.91c1.43-.49,1.26-1,.18-1.78-.72-.51-.52-1,.32-1.18.36-.09.9,0,.8-.61A.8.8,0,0,0,131,123c-2.62.39-2.8-2.87-5-3.32-.48-.11-.26-1.09.67-1,1.36.18,1.84-.36,1.45-1.68,1.22-.62,1.87-.49,1.69,1.12A3.5,3.5,0,0,0,132,122c1.91,1.06,2.92,3.4,5.24,4.08.38.11.22.84.3,1.29.29,1.83.08,3.72,2.63,4.54,1.9.61,2.65,3.81,1.94,6.25a15.3,15.3,0,0,1-.58,2.08c-.31.73-.33,1.31.66,1.7s1.23,1.35.37,2.18a1.24,1.24,0,0,0-.08,1.9c.14.26.27.52.4.79.21,1.21.27,2.51,1.59,3.17v.39c-.24.7,0,1.45-.26,2.13-.64,1.62-.31,2.67,1.56,3,1.32.25.87,1.4,1,2.52,1.12-1.26,2.1-1.73,2.72.24.22.71,1,.57,1.55.4a2.75,2.75,0,0,1,3.36,1.4c.42.67.89,1.11,1.77.85,1.26-.36,2.29.46,3.42.75.64.17.59.76.66,1.29.2,1.55.58,2.86,2.39,3.44a2.68,2.68,0,0,1,1.65,3,1.19,1.19,0,0,0,.79,1.19c-.45,1.36-1.81,2.62-.21,4.14.5.47,0,1.12-.37,1.6-.79,1.11-1.6,2.21.14,3.22a.71.71,0,0,1,.36.85,1,1,0,0,1-1.26.68c-2-.23-2.29.59-1.43,2.19a65.44,65.44,0,0,1-9.89.62,2.5,2.5,0,0,1-2-.9c1.5.3,2.5-.62,3.76-.58a1,1,0,0,0,1-1.21c-.1-.48-.86-.62-1.34-.41-2,.84-3.56.11-5.08-1.08A.84.84,0,0,1,147.59,179.65Z"/><path class="cls-75" d="M166.6,199.85c2.83-1.24,5.83-2.11,8.26-4.21.49-.42.77-1,1.26-1.33,2.36-.88,3.41.64,4.35,2.37,0,.27,0,.53,0,.79a67.52,67.52,0,0,0-6.42,6.24,1.87,1.87,0,0,0-.32,1.29c-1.15-1.05-2.12.41-3.23.24-.57-.09-1.5.77-1.55-.5,0-.51-.51-2,1.16-1.26.28.12.81-.34,1.22-.54a.5.5,0,0,0,.32-.63.39.39,0,0,0-.59-.29c-.69.36-1.29-.17-1.9-.13-.79.06-1.88-.81-2.16-.21-.39.87-.88,2.1.22,2.94-.7.93-1.58-.4-2.21.38h-.4c-.46-.07-.53-.53-.79-.8h-.4c-.09-.18-.09-.5,0-.52,1.93-.3,2.24-1.81,2.57-3.34C166.08,200.12,166.41,200,166.6,199.85Z"/><path class="cls-38" d="M180.47,196.68c-1.43-.83-2.19-2.88-4.35-2.37a.81.81,0,0,1,.79-.4c.65-.28,1.16-1.22,2-.49S181.13,195.05,180.47,196.68Z"/><path class="cls-76" d="M135.7,97.63l-.4.39c-1,.08-1.08,1.36-2,1.59-2.19,1.14-4.45.44-6.45-.25-2.9-1-5.63-2.55-6.74-5.79a1.45,1.45,0,0,1,.14-1.12,12.22,12.22,0,0,0,.48-1.27.85.85,0,0,1,.37-.38c.24,0,.58.37.62.18.36-1.68,2-2.19,2.92-3.35.35-1.15.85-2.25,1.1-3.44.09-.41.19-.92.82-.84.14.81.33,1.78,1.43,1.16,1.71-1,1.59.48,2.11,1.53.55-3,2.57-2.43,4.49-2.09.74.14,1.14-.37,1.9-.89-.27,1.22.59,2.33-.62,3.16-.19-.94-2,.76-1.67-1-1.21.41-1.18,2.2-2.73,2.4-.47.06-.6.94-.18,1.55s.88.14,1.28-.11c.89-.56,1.46-2,3-1.07-.58.83-1.88.58-2.17,1.81a3.23,3.23,0,0,1,3.06,1.45,5,5,0,0,1-.76-.19,1.15,1.15,0,0,0-1.39.43.57.57,0,0,0,.06.53c.36.49.8.22,1.24.1a5,5,0,0,1,1,0c-.12,1.5-.9,2.1-2.28,2,.13.79.73.89,1.19,1s1.26-.51,1.52.34-.35,1.18-.92,1.57A2.7,2.7,0,0,0,135.7,97.63Z"/><path class="cls-7" d="M165.61,94.53c-.58.8-1.2.29-1.74.38s-1.25.71-1.73-.13c-.2-.36.16-.67.42-.77.67-.26,1.31-1,2.11-.27C165,94,165.26,94.23,165.61,94.53Z"/><path class="cls-77" d="M126.58,83.35c-.53,1.58-1,3.17-1.58,4.76-.74-1.19-.55-3-2.41-3.46-.48-.13-.74-1.05-.57-1.58.45-1.33-.27-2.42-.53-3.6-.26.66.35,1.09.48,1.64s.19,1.06-.41,1.11c-3,.23-2.61,2.69-3,4.59-.07.3,0,.65-.15,1-1.88.31-2.74-.45-2.47-2.21,0-.32.31-.75,0-.93-1.66-1,.24-2.59-.57-3.79-.17-.24.3-.84.91-.64.77.4,3.25-.6,3.41-1.4.2-1-.83-.69-1.24-1,3.18-2.69,6.4-5.16,10.91-4.32,1.41,0,1.41,0,1.19.8-.67.09-.89.44-.63,1.07a.76.76,0,0,1-.4.33c-.55.31-1,.81-1.73.76s-1.05.13-.88,1-1,1-1.53,1.44c1,.26,2.43-.39,2.93,1.15-.47.78-.28,1.7-.54,2.52A1.21,1.21,0,0,0,126.58,83.35Z"/><path class="cls-78" d="M129.36,75.44h.39c.29-.74,1.16-.32,1.59-.78.13-.31-.23-1.17.55-.77a5.15,5.15,0,0,0,2.23.38c0,1-.83,1.76-.8,2.76a1.41,1.41,0,0,0-1.72,1.09,20.26,20.26,0,0,1-2,3.89c-.38.63-.89,1.41-1.81.56-.57-.91-1-1.79.39-2.38,1.3-1.17.6-2.83,1-4.22A1.11,1.11,0,0,1,129.36,75.44Z"/><path class="cls-79" d="M133.32,77c-1.32-1.38.37-1.89.8-2.76l1.18.38c.91.21,1,.21,1.06-.78,0-.54.09-.92.61-1,1-.18.12.68.49.91.65.4.37,1.59,1.41,1.68-.12.29-.2.81-.35.83C136.79,76.53,135.13,77.33,133.32,77Z"/><path class="cls-76" d="M137.5,87.68c-.33.5-.67.84-1.17.6a.53.53,0,0,1-.15-.5C136.55,87,137.07,87.88,137.5,87.68Z"/><path class="cls-5" d="M33.08,144.77H30.3c-.05-.29-.68-.41-.41-.7C30.55,143.36,32.59,143.85,33.08,144.77Z"/><path class="cls-80" d="M100.83,85l.4-.4c.62.63,1.58.73,2.18,1.41-.31,1.61-1.91,2.25-3,2.66a9,9,0,0,1-4.68,1,2,2,0,0,1-1-.58c.3-1.12-.11-1.51-1.25-1.33-.72.11-1.37-.2-2.19-1.27.34,2.27-1.11,3-1.89,4.15-.61-.36-.61-1-.66-1.58.54-2.31-.78-3.92-2.07-5.57-.37-.47-.81-.3-1.23-.35-.72-.08-1.45-.13-1.81-.91C84,80.91,85.09,80.4,86,79.81c.54-.35-.08-.43,0-.63.08-.64.06-1.34.95-1.44.92,1.37,1.91,2.61,3.73,2.85a1.14,1.14,0,0,1,1,1.29c0,.79-.19,1.62-1.24.76-.38-.31-.92-.1-1.17-.41.89.48,2.51.64,1.58,2.38.79-1.14,1.49-.61,2.16.25a1.54,1.54,0,0,0,2.14,1C97,85.37,99,85.6,100.83,85Z"/><path class="cls-81" d="M92.91,85c-1-.81-1.82-.48-2.73.63.92-1.71.9-2.7-1.05-3-.69-.1-.73-.81-.13-1.74-.07,1.84,1.71.74,2.08,2.35.36-1.47.31-2-.9-2.29-1.62-.34-3-1.16-3.22-3.08a.66.66,0,0,1-.23-.52c0-.51.22-1.09-.68-1.06s-.87.4-.74,1c.23,1.15-.46,1.7-1.37,2.1-.67.3-1.31.52-1.73-.36.46-.58-.85-1.76.89-2.07.81-.14.93-1.63,1.29-2.56.16-.42.48-.24.82-.11a3.21,3.21,0,0,0,2.43.08,1,1,0,0,1,1.56.58c.39,1.21-.77.2-.84.47a6.06,6.06,0,0,0-.25,2.84c.26,1.38,1.92,1.52,2.36,1.43,2.5-.55,2.9.85,3.81,2.72s-1.15,1.58-1,2.56A.23.23,0,0,1,92.91,85Z"/><path class="cls-82" d="M95.68,71.48c.74-1.06-.21-1.13-.89-1.45,1,0,1.51-.66,2.17-1.31.5.94.53,2.28,2.46,1.38l-1.6,2c1.14.93,2.65-.63,3.63,1.26.38-2.41-1.14-2.89-2.47-3.87,2-.28,3.72.68,5.42-.12.13.72-.34.7-.53.91-1.28,1.36-1.22,1.71.46,2.4a3.64,3.64,0,0,1,1.87,3.78c-.71.16-.88-1.6-1.8-.58l-4.89-1c-.34-.63,1.27-.71.42-1.5a1,1,0,0,0-.88-.26c-.94.13-.27,1-.66,1.48C97.23,73.75,97.24,71.89,95.68,71.48Z"/><path class="cls-83" d="M103.21,85.74c-1.13.38-1.78,0-2-1.19-.38-1.28,0-1.74,1.41-1.81.69,0,1.54.73,2.16-.17a5.83,5.83,0,0,1,1.24-.64,4.11,4.11,0,0,1,1.44.09,5.06,5.06,0,0,1,2.59.59c.33.57,2.12.8.44,1.84-1.48-.38-3-.76-4.29.39A4.54,4.54,0,0,1,104,86.05,1.05,1.05,0,0,1,103.21,85.74Z"/><path class="cls-81" d="M82.21,79a1.26,1.26,0,0,0,1.58,0c.8.1,1.68-.32,2.38.4l.48.23c-1,.64-1.53,2-2.87,2.15A.84.84,0,0,1,83,81.7c-1-.34-2.12-.51-2.79-1.5.71-1.33-1.21-1.37-1.16-2.38C80.44,77.33,81.22,78.44,82.21,79Z"/><path class="cls-84" d="M92.91,85h.39c1.12-.8,2.25-.09,3.38,0,1.38.09,2.77-.35,4.15,0-1.37,1.55-3.29,1-5,1.26a2,2,0,0,0-.77.14C93.61,87.08,92.83,86.65,92.91,85Z"/><path class="cls-23" d="M87,69.56c.9.29,1.91-.4,2.75.33-1.58,1.85-4.38,2.45-5.55,1.19C85.45,71.18,86.68,71.2,87,69.56Z"/><path class="cls-82" d="M92.91,70.29c.45-.17.92-.61,1.21.24s.91.85,1.56,1C94.58,72.21,93.67,71.82,92.91,70.29Z"/><path class="cls-82" d="M103.21,77.82c1.75.52.31,1.57.39,2.37C101.63,79.71,103.55,78.57,103.21,77.82Z"/><path class="cls-82" d="M106,82.18c-.28.46-.75.38-1.18.39-.21-.09,0-.44.39-.8l.79-.39A.53.53,0,0,1,106,82.18Z"/><path class="cls-82" d="M103.21,76.23c-.13.27-.27.53-.4.79-.43,0-.91.15-1.3-.23C101.87,76,102.61,76.32,103.21,76.23Z"/><path class="cls-82" d="M104,80.59c.19.57,2-1.28,1.19.79Z"/><path class="cls-85" d="M54.87,112.68c.11-.49,1.38-.22.79-1.19a4.87,4.87,0,0,1,4.57-3.66A18.38,18.38,0,0,0,58,108a4.21,4.21,0,0,1-2.35-.83c-.79-1,1-.89.79-1.63,0-1.54,1.43-.58,2-1.13l1.58-.45c1.35,0,2.37-1,3.63-1.21a11,11,0,0,0,3.86-1.42,1.29,1.29,0,0,1,2.1.53,5.05,5.05,0,0,0,.65,1c.94,1,.68,1.67-.48,2.28a2.66,2.66,0,0,0-1.23,3.8c.57,1,.11,1.44-.62,1.59-1.72.36-2,1.49-1.81,2.93-.39.66-1.27,1-1.24,1.93-.1.75-.17,1.52-1,1.84a2.55,2.55,0,0,1-2.71-.05c-1.19-.67-2.67,0-4-.34-2.11-.45-2.17-.53-1-2.35C56.86,113.16,55.23,113.3,54.87,112.68Z"/><path class="cls-86" d="M58.45,104.38c-.52.64-1.67.16-2,1.13a.79.79,0,0,1-.8-.34c.54-1.27-.37-1.58-1.26-1.7-.49-.06-1,.21-1.53-.2-.09-1.06,2.15-1.38.85-3A3.08,3.08,0,0,0,50.65,99a3.67,3.67,0,0,1,5.59,1.64c.26.66.7,1.48.5,2C56,104.63,57.34,104.35,58.45,104.38Z"/><path class="cls-87" d="M56.46,96c.77-1.39,2.29-1.47,3.56-2a1.3,1.3,0,0,0,1.48.7c.78-.17,1.37-.14,1.73.76.44,1.1,1.52.32,2.26.63s1.93-.28,1.87,1.11-1.18,1.2-2.06,1.25A4.15,4.15,0,0,1,63,98.24l-.2-.22C61.78,95.71,59.2,94.9,56.46,96Z"/><path class="cls-88" d="M64,103.16c-1.32.26-2.53,1.06-3.94.77.42-.61,2.78-.06,1.13-2-.3-.35.54-.23.84-.35a3.68,3.68,0,0,0,1.24-.94c.93-1.41,2-1.18,3.12-.25l-.39.8C66,102.57,64.6,102.48,64,103.16Z"/><path class="cls-87" d="M66.36,100.4c-1.26-.27-2.52-.64-3.27.95-.1.21-.71.17-1.09.24,1-1.37,1-1.37-1.5-3.57h2.3a5.18,5.18,0,0,0,2.33.73c.72.16,1.45.35,1.62,1.24Z"/><path class="cls-89" d="M54.87,112.68c.83.09,1.89-.37,2.06,1.12.08.73.31,1.29-.75,1.27-.3,0-.7,0-.72.46a.6.6,0,0,0,.62.63c1.33-.26,2.63,1,4,.09a.85.85,0,0,1,1.07.17,2.66,2.66,0,0,0,2.48.62,1,1,0,0,1,.2,1.09,1.18,1.18,0,0,1-.42.38,27.14,27.14,0,0,1-5.24.67A1.87,1.87,0,0,0,56,120.49c-.35,1.08-1.62,1-2.3,1.7a38.53,38.53,0,0,0-4.92.17,6.33,6.33,0,0,1-2.44-.49c-.79-.17-1.65-2.09-2.58-.17-1.63-1.56-3.56.92-5.33-.29,2.1-.85,4-1.85,6.28-1.27.13,0,.47-.17.46-.23,0-.24-.12-.6-.27-.65a2.2,2.2,0,0,1-1.5-1.43c-1-.24-1.5-1.18-2.38-1.58.15-.3.39-.71.7-.56,1.72.85,3.43.42,5.19.15,1.23-.2,2.23-.46,2.41-1.86.1-.71.52-1.22,1.13-1C52,113.4,53.39,112.64,54.87,112.68Z"/><path class="cls-90" d="M53.68,122.19c0-.53,0-1.14.73-1.15.89,0,1.2-.25,1.16-1.29s1.24-1.07,1.82-1c2.11.18,4.11-.69,6.19-.5.55.92-.24,1.26-.75,1.71-1.15,1-2.65,1.68-2.94,3.51-.13.76-1.26.81-1.87,1.29a.73.73,0,0,1-.77-.17c-.45-.56-1.09-.45-1.64-.38C54,124.42,53.46,123.68,53.68,122.19Z"/><path class="cls-62" d="M57.25,124.57H58a1.2,1.2,0,0,1,.79,1.59,3.35,3.35,0,0,1-4,.39c-.15-.73-.92-.53-1.42-.78C54.48,124.26,55.92,124.6,57.25,124.57Z"/><path class="cls-91" d="M54.87,126.55a14.64,14.64,0,0,0,4-.39c.17.46.34.93.51,1.42-.56.33-1.18-.3-1.7.16-.84-1-2.57.44-3.17-1.18Z"/><path class="cls-89" d="M55.66,107.14c1.7.59,3.56.14,5.31.83-2.89-.41-3.64,2.25-5.31,3.52h-4c.2-.49.34-.84.49-1.18a1.66,1.66,0,0,0,.3-.49c-.12.15-.19.33-.3.49-2-.65-.38-1.71-.12-2.36.52-1.34,1.2.15,1.94,0,.3-.33-.54-.93.28-1.38l1.88,2.08C56.59,107.88,55.71,107.62,55.66,107.14Z"/><path class="cls-92" d="M44.18,206.58c1.29-.79,1.72-2.68,3.56-2.77-.54,1.06.11,2.7-1.59,3.17a1,1,0,0,1-.48.3A1.62,1.62,0,0,1,44.18,206.58Z"/><path class="cls-93" d="M45.76,207h.39c.69,1.29-.21,1.83-1.11,2.37l-1.28-1.53a.89.89,0,0,1,.41-.83C44.7,206.89,45.23,207.46,45.76,207Z"/><path class="cls-47" d="M48.13,203.42l.8-1.58C48.85,202.46,49.19,203.29,48.13,203.42Z"/><path class="cls-70" d="M162.75,215.16c.14-.12.35-.42.49-.39a1.12,1.12,0,0,1,.76.47c.13.25-.18.42-.46.43S162.89,215.7,162.75,215.16Z"/><path class="cls-82" d="M109.94,83a5.06,5.06,0,0,0-2.77-.4c0-1.31-.78-2.9,1.19-3.57.43-.08.81.35,1.31,0s-.31-1.28.61-1.11c.77.15.24,1,.73,1.65.13-.72,2.73-.65.35-1.95-.24-.13-.55-.53-.27-.81s.82.1,1.23.22l.8,2.37-.16.2c-.57.52-.11.7.29.94a2.08,2.08,0,0,1,1.08,2.53,1.06,1.06,0,0,1-.78.14,1.75,1.75,0,0,1-.85-.42c-.59-.54-1.09-1.14-1.57.16C111,83.35,110.36,83.24,109.94,83Z"/><path class="cls-16" d="M108.36,79c-1.52.82-.27,2.55-1.19,3.57L106,82.18v-.8c1.4-.41.14-1.71.79-2.38.39-.4.17-1.41,1.19-1.18Z"/><path class="cls-82" d="M115.49,76.23l-3.17.8c-.1-1.48.65-1.91,2-1.59Z"/><path class="cls-82" d="M108,77.82,106.77,79c0-1-1.22-.84-1.39-1.79C106,79.14,107.52,75.18,108,77.82Z"/><path class="cls-82" d="M107.9,75.05c-.22.14-.35.3-.49.31s-.51-.1-.43-.41c0-.11.3-.22.45-.22S107.69,74.9,107.9,75.05Z"/><path class="cls-94" d="M64,103.16l2-2c1.73-.49,2.77-2,4.35-2.78.67.33.54.8.21,1.29s-.61.89,0,1.35a1.41,1.41,0,0,0,1.79.22,19.12,19.12,0,0,1,3.21-1.42c1.17-.49,2-.33,2.57.84.86,1.3,2.29.75,3.44,1.08a3,3,0,0,0,1.16,1,.38.38,0,0,1-.08.45,1.72,1.72,0,0,1-.53.51c.4-.06.44-.57.83-.62.63.19,1.11.58.92,1.26a1.3,1.3,0,0,1-1.59.85c-2.28-.48-3.86.66-5.37,2.08-.79.34-1.43.66-2.21-.29a1.54,1.54,0,0,0-2.41.18c-.71,1.17-1.94,1.79-2.57,3a17.71,17.71,0,0,1-1.87,2.77c-.44.64-1,1-1.83.58-.68-.92-.17-1.76.14-2.65.44-1.23,2,0,2.47-1.31-2.5-.35-.44-2-.73-3.11-.5-1.81,2-1.26,2.65-2.42a1.32,1.32,0,0,0-.07-.27c-1.11-2.56-2.77-2.38-4.76-1A5.62,5.62,0,0,1,64,103.16Z"/><path class="cls-85" d="M77.85,100.8c-1.91-1.7-3.54,0-4.94.74a2.23,2.23,0,0,1-2.63,0c-.94-.56-1.52-1.15-.19-2,.49-.29.49-.73.23-1.19a16.47,16.47,0,0,0,2.79-3.94c.71-1.21,1.7-.78,2.29-.09,1.61,1.9,3.66,1.73,5.76,1.52a1.84,1.84,0,0,1,1.32.26c.24.21.22.54.82.55,1.51,0,2,1.19,1.31,2.7a3.2,3.2,0,0,1-3.19.22c-1.47-.81-2.49-.21-3.34,1Z"/><path class="cls-95" d="M82.6,96.42c-1-.51-1.84.41-2.81.21-1.66-.35-3.61.18-4.7-1.81a1.21,1.21,0,0,0-2-.34c-.07-.68.38-1.47-.41-2a7.76,7.76,0,0,1,4.75-1.59c.64.32,1.26.64,2,.15a1.07,1.07,0,0,1,1.41.09c.91,1,1.36,2.46,3.16,2.27.43,0,1,.55,1,1.11,0,.91-1,.64-1.45,1.07C83.2,95.84,83,96.23,82.6,96.42Z"/><path class="cls-88" d="M66.75,100a2.16,2.16,0,0,0-1.91-.78,2,2,0,0,1-2-1.19c1,0,2,0,3,0,.59,0,1.22.12,1.23-.79,0-1.14-.72-.29-1.08-.4C65,96.55,64,96,63,97.4c-.13-1.67-.35-2.92-2.2-2.39-.36.1-.8-.39-.81-1,1.19.73,2.38.31,3.56,0,1,1.2,2.25,1,3.53.62.32-.11.64-.29.92-.05s0,.57-.1.85-.37.79-.28.87c1.57,1.39,1.11,2-.75,2.28C66,98.78,67.64,99.62,66.75,100Z"/><path class="cls-95" d="M71.11,89.31c2.32.16,1,2.17,1.59,3.17-1.22.26-.69,1.33-.74,2s-.42.79-.48.64c-.34-.9-1.81-.49-1.79-1.47,0-.8.52-.23.93-.12,1,.28,1-.42.66-1A3.47,3.47,0,0,1,71.11,89.31Z"/><path class="cls-96" d="M80.62,91.29c-.58-.43-.86.23-1.29.36-.82.25-1.65.48-1.88-.76.36-.78-.3-1.28-.49-1.92s-1.8-1-1-2.18a14.13,14.13,0,0,0-1.39-.59.72.72,0,0,0-.83.39c-.39.74.41.62.68.9s.53.69.08,1.17-1,1-1.67.67c-.38-.16-.46-.67-.32-1.21.65-2.73,1.81-4.13,3.75-4.36,1.68.22,2.19-1.66,3.57-2,1.1-.88,2.37-.24,3.55-.36l.39.37c.23.23.52.69.67.65,2.36-.64,3.06,1.56,4.36,2.61s.28,2.57.52,3.87c-.91.56-1.29.19-1.44-.76A2.49,2.49,0,0,0,86.16,86c-.08-.07,0,.45,0,.2,0-.08.09-.06.19.05a5.07,5.07,0,0,1,.54,3.91c-.52,1.34-1.73,1.14-2.68,1s-2.5.59-3-1.13C80.85,90.32,81.75,91.4,80.62,91.29Z"/><path class="cls-82" d="M117.87,74.65c1.56.63.7,1.73.15,2.24-.94.88-1.84.19-2.53-.66C116.47,76,117.86,76.36,117.87,74.65Z"/><path class="cls-82" d="M120.25,73.45a3.42,3.42,0,0,0-2.38,1.2c-.89-.71.07-1.61-.33-2.44C118.76,72.06,119.48,72.8,120.25,73.45Z"/><path class="cls-45" d="M122.62,71.08a.84.84,0,0,0-.8.4c-.23,0-.65-.07-.46-.38C121.7,70.55,122.19,70.55,122.62,71.08Z"/><path class="cls-97" d="M54.57,93.76c-.78.16-1.19,1.19-2.37,1C52.9,93.9,53.28,92.91,54.57,93.76Z"/><path class="cls-80" d="M83.39,81.41c-1.13.61-2.36.29-3.55.36.13-.52.26-1,.38-1.57Z"/><path class="cls-16" d="M73.29,77.33a1.28,1.28,0,0,1,1.58-.08C74.34,78,73.88,77.9,73.29,77.33Z"/><path class="cls-83" d="M113.51,83h.79a1.54,1.54,0,0,0-.54-2.15c-.5-.39-.92-.71-.64-1.41h0c-.05-1.24,1-1.57,1.85-2.33.1.56.35,1.07.2,1.28-.89,1.18-.92,1.15.65,1.5.17,0,.31.23.46.34-.43.29-1.07.61-.37,1.15,1.45,1.14.2,1.39-.58,1.86.5.87,2.44,1.15.87,2.89-.49.55.87,1.65,2.06,1.63.81.66,1.64,1.31,1.52,2.52A5.8,5.8,0,0,1,115,89.15a14.74,14.74,0,0,0-2.49-1.58,2.14,2.14,0,0,1-1.38-2.36C111.81,84.33,113,84,113.51,83Z"/><path class="cls-34" d="M166.6,199.85a6.7,6.7,0,0,0-.56,1.67c-.08,1.39.29,3.09-2.13,2.12-.07,0-.31.37-.48.57a2.4,2.4,0,0,1-1.47-.44,2.68,2.68,0,0,0-3.45,0c-.54.44-.67.35-.89-.51-.11-.41-.35-.6-.65-.58-1.15.08-2.37-.44-3.44.35a2.77,2.77,0,0,1-2.08.06c-.56-.19,0,.35-.27.39a.31.31,0,0,1-.43-.05,12.72,12.72,0,0,1-6.31-.17c1.37-2.25,3.21-.44,4.89-.52-.05-.83-.11-1.65-.16-2.47,2,1,4.11.36,6,0a16.44,16.44,0,0,1,5.71-.53A54.29,54.29,0,0,0,166.6,199.85Z"/><path class="cls-34" d="M163.83,204.21a1.36,1.36,0,0,1,.79.8C163.56,205.55,164,204.62,163.83,204.21Z"/><path class="cls-30" d="M131.34,74.65c-.22.88-1.11.41-1.59.78-.11-.65-.34-1.37.8-1.18A.81.81,0,0,0,131.34,74.65Z"/><path class="cls-98" d="M44.18,204.62c.43-.18.88-.4,1.08.26,0,.1-.15.39-.25.4-.47.06-.64-.32-.82-.66Z"/><path class="cls-20" d="M45.76,207a1,1,0,0,1-1.59,0c0-.14,0-.28,0-.41Z"/><path class="cls-99" d="M142.43,146c-1-.6-1.62-1.3-.31-2.18,1-.65.56-1.21-.06-1.67-.45-.33-1.42-.29-1.38-.9a13.44,13.44,0,0,1,.76-3.06,2.24,2.24,0,0,1,.43-.56c-1.24-1,.7-2,.16-2.77-.67-1-1.51-1.9-2.25-2.85-.37-.47-.39.67-1.09.74-.52-1.22-1.49-2.51-1.51-3.81a3.58,3.58,0,0,0-2.54-3.8c-.89-.33-2-.48-1.59-2,.11-.45-.61-.63-1-.8-2.37-1-2.93-2-2.53-4.56.18-1.18-.83-.59-1.33-.76-1.71-.16-3.48.38-5.15-.39-.35-.38-.15-.73,0-1.07.46-.78.07-1.1-.65-1.18-1.53-.19-3-1.07-4.61-.37a.68.68,0,0,1-.73-.16c-.67-.09-1.43.27-2-.39.37-1,1.23-1,2.08-1.18,1.48-.24,3-.44,4-1.78.72-1,2.14-.39,3.17-1.21-1.63-1.12-3.15-1.87-5-1a1.15,1.15,0,0,1-.37.12c-.77.16-1.57.39-2.22-.28a1.14,1.14,0,0,1-.15-1.46c.5-.84,1.3-.64,2.15-.42-.31-.81-.78-.78-1.33-.68-3.39.61-4.09-.17-3.24-3.62.2-.35.67-.28,1-.56a1.39,1.39,0,0,1-1.34-.18,3.23,3.23,0,0,1-.6-1.61,1.39,1.39,0,0,1,.21-.84c.1-.09.24-.22.33-.19,1.42.59,2.84,1.16,4.32,1.61.6.19.49.87.16,1.36a2.31,2.31,0,0,1-1.72,1.16c1.51.12,2.89,1,4.43.46.36-.14.61,0,.79.38,1.27,2.45,3.67,1.39,5.6,1.73.6.11,1.4-.77,1.94.07s-.36,1.39-.84,2c-.17.2-.4.35-.38.67.25.45.67.29,1,.22.54-.11,1.08-.21,1.42.35s-.18,1-.52,1.33c-.59.68-.56,1.18.42,1.38.26.06.69.15.66.33-.28,1.51,1.46,2.2,1.55,3,.2,1.94,1.53,1.52,2.46,1.68,2,.36,2,.26,1.41,2.06,0,.14-.19.19-.15.18.2,0,.38-.16.57-.12,1.14.25,2.23.66,2.15,2.09-.06,1.1.92,1,1.43,1.34,1.86,1.1,1.92,1.5.06,2.8.64.66,2,.66,2,1.82a3.93,3.93,0,0,1-.77,2.6c-.58.73,0,1,.52,1.35a2.73,2.73,0,0,1,1.76,2.06,10.11,10.11,0,0,0,.19,4.63c.36,1-.42,2-1.41,2.78-.83.62-1.4,1.33.11,2.08,1.09.54,1.49,1.54.19,2.44A1.6,1.6,0,0,0,142.43,146Z"/><path class="cls-100" d="M114.3,102a6,6,0,0,1,.09,1.33c-.08.54-.78,1.13,0,1.56s1.66,1.05,2.38.48c1.79-1.38,2.19,0,2.88,1.17-.59.32-1.07.52-1.63,0-.33-.31-.75-.1-1,.22a.85.85,0,0,0-.08,1.09.78.78,0,0,0,1,.29c.36-.12.83,0,1.11-.21,2.1-1.41,3.8.14,5.62.72.29.09.62.44.48.76s-.6.82-.79.77c-2.32-.59-3.32,1.75-5.16,2.3-1.35.4-2.93-.09-4.07,1-1.52,0-1.87-1.83-3.43-2-.17.69-.34,1.47-.54,2.25a4.6,4.6,0,0,1-.37,1.1c-.83,1.44-6,3.23-7.56,2.62-.55-.22-1.15-.66-1.6,0s.33.7.59,1,.12.88-.06.81c-1.7-.6-1.76.44-1.79,1.64,0,.15-.45.48-.59.43-1.46-.53-2.67.77-4.07.52a1,1,0,0,1,0-.76,27.84,27.84,0,0,1,3.89-6.23c-.74-.88-2.33.08-2.8-1.28.6-1.56,1.48-2.8,3.37-2.86,1.45,0,1.74.36,1.25,2,1.22-.27,2.29.6,3.56.25-.62-.78-2.28-.66-2-1.83s1.73-.38,2.76-.84a2.64,2.64,0,0,0-2-.14c-.86.1-1.71-.05-1.86-1-.19-1.15.79-1.18,1.58-1.25s1.85,0,2.63-.64c-.42-.19-.93,0-1.29-.38s-.58-.89.13-1.21a6,6,0,0,1,1.73-.41,3.65,3.65,0,0,0,3.1-2C110.64,101.39,112.6,101.82,114.3,102Z"/><path class="cls-101" d="M96.87,113.48c1.1.86,2.74,0,3.81,1.2-2.7,1.64-3.23,4.81-5,7.12-1.63.41-2.71,1.24-2.4,3.15,0,.18,0,.5-.11.55-2.26,1-3,4-5.81,4.22-.17-1,1-.9,1.28-1.72a4,4,0,0,1-3.12-.81c-.69-1.58-2.22-3-1.16-5,.2-.39-.13-.87-.65-1.07-1.3-.48-.93-1.49-.56-2.3.45-1,1.07-2,2.48-1.81,1.76.28,3.46.64,5.2-.32a3,3,0,0,1,2.69-.15,2.83,2.83,0,0,0,2.8-.31c.63-.43,1.13-.81,0-1.22-.91-.32-1.2-.9-.52-1.74A.93.93,0,0,1,96.87,113.48Z"/><path class="cls-100" d="M117.08,113.87c2.12-1.49,4.21.09,6.32.12.72,0,1,.76.51,1.47-.28.4-.92.54-.89,1.19C120.28,117.34,118.57,115.85,117.08,113.87Z"/><path class="cls-102" d="M85.77,127a3.52,3.52,0,0,0,2.39.62c.41-.09,1.13-.48,1.31.32.11.51-.45.73-.82,1s-.86.57-1.29.85H87c-1.24,0-2.54.21-3.56-.79C83,126.84,84.56,127.1,85.77,127Z"/><path class="cls-91" d="M86.17,142.8c-2.37-.8-2-3-2.38-4.76.13,0,.33,0,.36.09C84.84,139.68,85.5,141.24,86.17,142.8Z"/><path class="cls-91" d="M83.79,138H83.4c-.63-1.36,1.5-1.54,1.19-2.77C86.31,136.76,83.65,137,83.79,138Z"/><path class="cls-91" d="M84.59,135.27c-.82-.26-2.18-.23-.8-1.59Z"/><path class="cls-73" d="M111,175.42c-.08.27-.25.46-.54.39a.42.42,0,0,1-.34-.57.6.6,0,0,1,.43-.29A.4.4,0,0,1,111,175.42Z"/><path class="cls-91" d="M83.79,132.89c-.11-.71-.43-1.46.4-2C84.09,131.58,84.45,132.34,83.79,132.89Z"/><path class="cls-54" d="M119,203.42c-1-.68-2.75.22-4.36-.34-.54-.18-1.25-.45-1.68-.24-.76.36-1.56.53-1.84-.22s.82-1.08,1.33-1.35c1.44-.75,2.94-1.38,4.56-.19a2.53,2.53,0,0,0,2.56.53c.5-.21.9.11,1.27.34s.9.46.7,1-.62.43-1,.43Z"/><path class="cls-54" d="M117.87,199.46h4A4.45,4.45,0,0,1,117.87,199.46Z"/><path class="cls-103" d="M91.14,202.19c-.43.69-.78,1.25-1.47,1.36a.85.85,0,0,1-1-.78,1,1,0,0,1,1-1.18C90.18,201.58,90.64,202,91.14,202.19Z"/><path class="cls-8" d="M123.18,208.69c.14.58-.18.65-.52.6s-.75-.33-.69-.76.29-1.18.85-1.07S122.33,208.53,123.18,208.69Z"/><path class="cls-104" d="M144,132.49c-.75-.74-1.3-1.67-2.55-1.83a1,1,0,0,1-.75-1.52c1.9-3.27,1.93-3.26-1.31-4.27.18-.66.76-.62,1.26-.74a1.08,1.08,0,0,0,.84-1.19c-.08-.85-.61-.3-1-.21-.14-1.18-3-.26-1.92-2.59.19-.42-1-1.59-2.19-1.19-.41.14-.72.58-1.23.32,0-.15-.11-.35-.07-.38.67-.48,1.84-.86,1.61-1.72s-1.35,0-2-.26-1.5-.48-2.24-.75a.71.71,0,0,1-.57-.7c0-1.24,0-1.27-1-1.31-.39,0-.82.18-1-.34s.31-.64.66-.81a.78.78,0,0,0,.33-1c-.1-.31-.37-.3-.62-.13-1.2.79-.85-.59-1.18-.92-.56-.54-.19-1.07.44-1.37.38-.19,1.08-.21.69-.86s-.78-.12-1.16.13c-.65.43-1,.05-1.44-.45-.62-.75.09-1,.46-1.3.18-.19.38-.36.55-.56s.74-.53.45-1-.74-.1-1.17.07c-2,.76-3.89-.11-5.79-.49a1.22,1.22,0,0,1-.74-1.66c-2.21,1.34-4-.65-6-.71a2.36,2.36,0,0,1,.68-.33c1,0,2.11-.71,2-1.51s-1.31-1-2.27-.63c-.61.25-.78-.06-.87-.63s-.69-.9-1.35-.83c-.92.94-1.62.93-1.44-.56.09-.74-.53-1-.59-1.5,1.21-1,2.3-2.29,4-.48.62.69,1.84.48,2.71,1.07.69.47.91-.42,1.16-.93.5-1,.16-2.24,1-3.16,1.33,1.45,2.06,3.28,4.06,4.37a17.08,17.08,0,0,0,9,2l-.6.49c-.45.34-1.19.35-1.22,1.13.93-.17,1,1.34,2,1.06a11,11,0,0,1,1.91-.26c.48,0,1.21.07,1,.58-.5,1.07.44,1.31.8,1.87.76,1.19,2.32,1.87,2,3.77-.11.65,2,.18,1.67,1.66,1,.29,1.61,1.35,2.77,1.19.21.41.58.83.58,1.24,0,1.19.4,1.69,1.67,1.61.59,0,1.52.3,1.48,1s-.94.44-1.46.47a4.88,4.88,0,0,0-2.36.93c.48.86,1.17.27,1.75.27s1.28.22,1.24.93-.65.69-1.2.51-.93-.45-1.17.18a1.51,1.51,0,0,0,.18.92c.28.63.6.42,1.06.09.65-.48.9,0,1.06.59.25,1-.55,1.17-1.09,1.28s-1.27-.39-1.83.28c0,.68,1.14.07,1.13,1,0,.52.6.66,1,.08s.69-.74,1.31-.41.38.61.26,1c-.18.55-.26,1.43-.93,1.32-2.18-.38-1.43,1.15-1.28,2s.17,1.29-.42,1.75a2.14,2.14,0,0,0-.39,3.4c.07.09-.11.36-.17.55Z"/><path class="cls-9" d="M165.7,141.1c.21,1.87-.6,2-1.88,1.78Z"/><path class="cls-91" d="M85.77,127c-.8.64-2.32.42-2.37,2-1.14.67-2.38.26-3.58.3a1,1,0,0,1-1.1-.93c0-.63.52-.77,1-1,1.12-.44,2.32-.08,3.44-.55.53-.23,1.14-.56,1.11-.93a2.88,2.88,0,0,0-.84-1.67c-.53-.52-.9.26-1.34.45-1,.45-1.64,2.24-3.42,1,1.42-1,2.94-1.62,3.73-3.1.2-.36.24-1,.09-.9-1.37,1-2-.91-3.07-.73a5.21,5.21,0,0,0-2.84,1.58c-1,1-1.72-.12-2.57-.14s-1.53-.33-2.09.49c-.2.28-.65.62-.78.45-1.39-1.82-3.15.44-4.83-.54-1.27-.74-2.63.62-3.56,1.79l-4,1.59L58,124.57c.06-.56.16-1,.92-1s1.09-.35.45-1l-.26-.25c.21-.14.44-.27.64-.43,1.2-1,2.39-1.94,3.56-3,.16-.14.16-.47.23-.72h0c2.58-.33,5.19-.36,7.74-.86.26-.05.72,0,.74-.17.35-2.33,4-2.12,3.76-5-.06-.71,1-.86,2-1-1.41-1.28-2.58-2.43-1.18-4.1,1.29-2,3-3,5.46-2.4.48.12,1.2.13,1.38-.44s-.44-.86-.9-1.13v-.39a1.05,1.05,0,0,1,1.44-.66c1.76.66,3.47.14,5.19-.13.47-.22,1.54.53,1.3-.86,0-.23.42-.44.72-.57a1.4,1.4,0,0,1,1.15.06c.49,1-.33,1.84-.31,2.81,0,.52-.73.33-1.17.34-2.28.06-2.53.39-2.47,2.7,0,1.36.93,3.1-1.41,3.71,1.57,0,2.62.43,2.28,2.27-.14.71.65,1.29.53,2.06-.81,1.22-2.23.8-3.35,1.23,2.36-.37,4.7,0,7,0a3.53,3.53,0,0,1,2.92.89c-1,.64-2,1.16-3.21.26-.62-.46-1.58-.06-2.05.2a6.19,6.19,0,0,1-6,.22c-.73-.32-2.4,2.41-2,3.17a.57.57,0,0,0,.44.25c2-.68.55,1.44,1.37,1.72-1.4,1.43-.61,2.52.52,3.59C85.8,126.26,85.42,126.71,85.77,127Z"/><path class="cls-105" d="M81.81,134.08c-1.64,1.6-3.91,1.36-5.89,1.87-.57.15-1.36,0-1.8.43-1.78,1.77-2.9.11-4.2-.72.39-2.06,1.11-2.5,2.89-1.61a2.9,2.9,0,0,0,1.47.42c.7-.48.53-2,2-1.58a1.91,1.91,0,0,0,2,.35C79.65,133,81,132.44,81.81,134.08Z"/><path class="cls-91" d="M75.82,129.48c2.41.62,5,.86,7.34,2.76-1.86.37-3.45-1.1-4.75.39-.36-.36-1.07-.75-1-1.07C77.5,130.3,76.55,130.1,75.82,129.48Z"/><path class="cls-106" d="M73.89,133.69a3,3,0,0,1-2.51-2.23,32,32,0,0,1,3.16-.91c.59-.11,1.51-.32,1.77.39.34.95-1,.53-1.23,1.16C75.48,133.22,75.22,133.86,73.89,133.69Z"/><path class="cls-5" d="M58.83,134.87c-1.18-.55-2.52-.24-3.89-.6,1.56-1.77,3.41-.86,5.08-1A1.86,1.86,0,0,1,58.83,134.87Z"/><path class="cls-91" d="M73.89,133.69a1.58,1.58,0,0,0,1.19-1.59c.5.1,1.32-.28,1.19.79-1.08,0-.73,1.8-2,1.58Z"/><path class="cls-91" d="M76,128.29c-.27-1.43.71-1.37,1.38-1.59a.55.55,0,0,1,.7.49c.07.56-.44.47-.79.58S76.47,128.09,76,128.29Z"/><path class="cls-71" d="M150.75,203.42h.4a2.4,2.4,0,0,1,.66,1.83c-.47,1.15-1.3,1.84-2.52,1.39-.76-.29-1.09.55-1.7.34-.46,0-.93,0-1.38,0s-.6-.46-.59-.88-.12-.76.37-.74c1.17,0,2.53-.81,3.3-.53C151.25,205.52,150.58,204.18,150.75,203.42Z"/><path class="cls-34" d="M147.59,207c.46-.4.64-1.2,1.63-.64s1.7-.24,2.33-.94a.55.55,0,0,1,0,.79v.39c-.92.8-2.2.2-3.17.8A.81.81,0,0,1,147.59,207Z"/><path class="cls-8" d="M135.3,203a1.2,1.2,0,0,1-1.19-.79C135,201.75,135,202.6,135.3,203Z"/><path class="cls-8" d="M133.42,201.84c-.4.87-.43,1.93-1.61.95a.93.93,0,0,0-1.25.21c-.47.46-.88.27-1.06-.25-.25-.75.28-.9.87-.91Z"/><path class="cls-33" d="M151.55,206.19v-.79c-.14-.66-.27-1.32-.4-2-.07-.5-1.09-.19-.82-.8s.76-.2,1.13.08c.63.49,1.37.27,2.07.32-.49.48-1.93.34-1,1.75A1.11,1.11,0,0,1,151.55,206.19Z"/><path class="cls-99" d="M164.23,169.34c-.64-1.4-1.08-2.75-3.13-3-.95-.1-1.12-1.91-1.54-3-.15-.4.69-1.2,0-1.29-1.16-.14-2.14-1.43-3.3-.73s-1.67.17-2.11-.78c-.68-1.49-1.69-2.11-3.32-1.4-1,.42-1.86.35-2-1-.17-1.6-.68-1.17-1.28-.22a1.62,1.62,0,0,1-1.25.78,1,1,0,0,1-.21-1.15c.53-1.25.22-1.7-1.19-1.85a1.64,1.64,0,0,1-1.41-2.58c.48-.93-.13-2.19,1-2.87.92,1.5,2.59.89,3.78,1a8.25,8.25,0,0,1,2.78.83c3.2,1.37,4.67,4.28,6.52,6.86a5.44,5.44,0,0,0,1.89,1.95c3.14,1.49,3.59,4.81,5.18,7.35A.81.81,0,0,1,164.23,169.34Z"/><path class="cls-99" d="M144.42,149.93c-2.06-.43-2.22-.77-1.59-3.17C143.55,147.72,144.69,148.47,144.42,149.93Z"/><path class="cls-51" d="M140.85,174.89a8.17,8.17,0,0,0,1.85-1c.4-.4,1-1,1.67-.5a2.17,2.17,0,0,1,.41,2c-.1.82-.51,1-1.36.83-1.49-.29-.89,1.22-1.38,1.82a4.61,4.61,0,0,0-2.88.08Z"/><path class="cls-51" d="M140.29,179c.92.89,1.78,1.32,2.81.36.09-.08.55.06.66.22s0,.5-.16.68c-.74.92-1.79.71-2.72.53S140.46,179.64,140.29,179Z"/><path class="cls-51" d="M135.64,181.37c-.88.18-.59-.75-1.15-.75-.37,0-.85,1.06-1.09-.07-.08-.41.3-.73.7-.83.56-.14,1.05-.07,1.22.62C135.39,180.65,135.5,180.94,135.64,181.37Z"/><path class="cls-51" d="M129.7,177.48c0,.33-.24.49-.52.39a1.09,1.09,0,0,1-.71-1.07c0-.09.28-.28.41-.26A.9.9,0,0,1,129.7,177.48Z"/><path class="cls-51" d="M130,173c.34,0,.72.18.7.53s-.41.62-.85.56-.65-.21-.6-.6S129.64,173,130,173Z"/><path class="cls-51" d="M144.81,178.06c-.65-1.09,0-1.48,1.19-1.83-.32.73-.55,1.28-.79,1.83Z"/><path class="cls-51" d="M126.9,177.69c-.11.32-.29.63-.67.59s-.43-.43-.32-.73.34-.61.73-.5S127,177.41,126.9,177.69Z"/><path class="cls-51" d="M133,180.2c-1.06.65-1.46.13-2.26-.1C131.77,179.59,132.15,180.14,133,180.2Z"/><path class="cls-51" d="M147.59,179.65h1.18c-.07.76-.57.9-1.17.69C147.17,180.18,147.32,179.88,147.59,179.65Z"/><path class="cls-51" d="M126.55,183c-.25.18-.43.4-.64.44s-.44-.23-.3-.47a1.11,1.11,0,0,1,.57-.38S126.38,182.8,126.55,183Z"/><path class="cls-51" d="M124.28,176.88c.21.1.46.14.5.26.11.29-.1.47-.37.45a.55.55,0,0,1-.39-.28C124,177.21,124.17,177,124.28,176.88Z"/><path class="cls-51" d="M146.78,169.76c-.35,1.23.7.64,1.17.77s.89.07.91.54c0,.63-.54.61-1,.64a5.87,5.87,0,0,0-2.64.47c-1.06.6-1.06-.79-1-1.07a3.13,3.13,0,0,1,2.25-2.43C147.31,168.42,147,169.21,146.78,169.76Z"/><path class="cls-51" d="M147.83,165.92c-.59.86-1.07,1.54-2,1.5-.37,0-.29-.54-.19-.83C146.05,165.59,146.85,165.73,147.83,165.92Z"/><path class="cls-51" d="M149.24,174.44c-1,1.47-1.74-.06-2.55.4C147.44,173.09,148.36,174.7,149.24,174.44Z"/><path class="cls-51" d="M140.21,143.43a.86.86,0,0,1-.94.53c-.35,0-.7-.11-.62-.53a.78.78,0,0,1,.9-.58A.67.67,0,0,1,140.21,143.43Z"/><path class="cls-51" d="M149.21,174.44c.49-.57.9-1.17,1.64-.73a.74.74,0,0,1,.21.68C150.5,175.27,149.79,174.14,149.21,174.44Z"/><path class="cls-51" d="M134.23,125.9c.27.09.48.28.43.55-.1.44-.26.91-.87.81a.38.38,0,0,1-.29-.58C133.64,126.34,133.73,125.92,134.23,125.9Z"/><path class="cls-99" d="M144.68,158.69c.37.06.7.2.66.59s-.39.49-.73.53-.34-.33-.41-.52C144,158.84,144.34,158.73,144.68,158.69Z"/><path class="cls-51" d="M144.53,160.09c.11.46-.16.55-.4.63-.45.15-.58-.19-.63-.5s.28-.35.53-.38S144.58,159.79,144.53,160.09Z"/><path class="cls-51" d="M139.51,137.28c.36.07.61.17.64.47,0,.07-.27.23-.42.23a.5.5,0,0,1-.55-.44C139.17,137.45,139.42,137.35,139.51,137.28Z"/><path class="cls-51" d="M135,143.63c.05.27-.14.32-.34.33s-.56.07-.63-.24c0-.1.19-.34.34-.39A.5.5,0,0,1,135,143.63Z"/><path class="cls-107" d="M103.21,85.74H104c.39.23.92.2,1.19.65a2.47,2.47,0,0,0,3.34,1.53,4.59,4.59,0,0,1,3.08.19c.87.33,1,.79.18,1.37-.33.22-1.05.17-.74.87a1.19,1.19,0,0,0,1.16.62c2.55.07,5.09.59,7.65.14a1.66,1.66,0,0,1,1.15.18c0,.45.08.9-.36,1.21-3.13,2.43-6.56,2.33-10.11,1.2-.79-1.8-2.36-2.61-4.61-2.4-1.22.11-2.47.61-3.62-.26-1-.65-1.44.72-2.29.63a15.54,15.54,0,0,1-3.73-.22A3.54,3.54,0,0,1,95,91.09c-.57-.35-1.24-.82-1-1.53s1.06-.5,1.67-.25c1.65.07,3-1.21,4.75-.85C100.43,86.61,103,87.39,103.21,85.74Z"/><path class="cls-108" d="M121,91.28a12.83,12.83,0,0,1-5.11.27,5.61,5.61,0,0,0-3.31-.17,1.13,1.13,0,0,1-1.29-.12c-.41-.45-1.31-.45-1.22-1.36.12-1.33,1.43-.41,2.11-1.15a5.73,5.73,0,0,0-4-.26c-1.58.56-2.77-.43-3.41-2a7.58,7.58,0,0,0,1.18-2c1.34-1.48,2.83-1.31,4.38-.4.36.31,1,.17,1.18.8-.12,1.21.53,1.79,1.55,2.39,2.14,1.25,4.14,2.74,6.77,2.77a1.06,1.06,0,0,1,1.18.82C121,91.05,121,91.17,121,91.28Z"/><path class="cls-109" d="M121,90.93l-1.18-.82a4.06,4.06,0,0,1-1.59-2.39c-.32-2.15-.2-4.1,1.62-5.72.73-.65,1.2,0,1.79-.12.4-.89-.49-1-.84-1.53s0-1,.12-1.5c.06-.29.41-.24.67-.19.62.11.65.62.59,1.07-.14,1.18.78,2.23.25,3.53-.16.38,0,1.86,1.45,1.46.73-.2.85.2.84.88a21.55,21.55,0,0,0,.25,2.51c-1.28,1-2.81,1.86-3.18,3.79C121.48,91.48,121.26,91.2,121,90.93Z"/><path class="cls-110" d="M110.73,93.66c2.65-.12,5.35.87,8-.5.39-.21,1,.4.86-.75-.09-.66.7.06,1.11.08l-.39.77a7.55,7.55,0,0,1-.85,4.18c-.23.38-.54,1.27-1.11.72-.9-.87-2.63-.71-2.92-1.18-1.39-2.24-2.59-.37-3.85-.15l-.22.15c-1.22-.5-.76-2-1.59-2.71a2.72,2.72,0,0,0,0-.28.87.87,0,0,1,.27-.46A.64.64,0,0,1,110.73,93.66Z"/><path class="cls-30" d="M129.36,75.44c.69,1.7,0,3.37-.29,5-.18.89-.55-.29-.91-.24-1-1.5-2.45-.56-3.7-.51-.18-.59,0-1.1.43-1.19,1-.21,1.78-.39,1.3-1.8-.22-.65.62-1.06,1.19-.8C128.24,76.27,128.71,75.61,129.36,75.44Z"/><path class="cls-111" d="M80.62,91.29c.43-.71-.26-2.12,1.31-2.11-.09,1.32,1,1.91,3.13,1.63a1.58,1.58,0,0,0,1.25-2.63c-.1-.15-.35-.36-.31-.43.17-.32,1.36,0,.56-.89-.27-.29-.84-.28-1.27-.43a5.71,5.71,0,0,1-.65-.31c2.77-1,3.13,0,3.63,2.23.17.71.65.49,1.06.56.08.54-.18,1.16.41,1.57,1-.36,1.9-1.21,3-.27.17,2.69-.81,4.13-3.31,4.78a2.08,2.08,0,0,0-1.08.43c-1.86,2-3.6,1.17-5.34-.17.4-.61,1.1-.28,2.1-.65C83.14,93.74,81,93.52,80.62,91.29Z"/><path class="cls-112" d="M95.68,89.31c-.45.12-1.26-.28-1.28.4a1.33,1.33,0,0,0,1.32,1.16l4.72.43c.28.9,0,1.71-.92,1.79-1.39.11-2.62.91-4,.8a20.41,20.41,0,0,1-2.68-3.83.8.8,0,0,1,0-.55,1.34,1.34,0,0,1,1.61-.91,1.52,1.52,0,0,1,.48.31A.82.82,0,0,1,95.68,89.31Z"/><path class="cls-113" d="M94.89,88.91h-.4c-1.15-1-1.37-.11-1.59.78l0,.06c-.15.11-.19.36-.45.34-1-.25-1.73,1-2.75.39.24-.78-.66-2.16,1.15-2.1.31,0,.42-.27.38-.56-.08-.54-.78.1-.87-.49L92.26,86c.69,2.63,2.61.76,3.91,1.14C96.17,88,94.83,88,94.89,88.91Z"/><path class="cls-16" d="M86.17,79.4c-.79-.13-1.68.32-2.38-.4.4-.49,1.46-.49,1.15-1.54-.16-.54-.72-1.3-.14-1.61a5.4,5.4,0,0,1,2.26-.18c.44,0,.54.3.41.68s-.34,1-.51,1.47Z"/><path class="cls-81" d="M84.08,78.09a1.07,1.07,0,0,1-.36-.29c-.14-.24.08-.34.26-.32a.63.63,0,0,1,.43.25C84.51,77.93,84.36,78.06,84.08,78.09Z"/><path class="cls-30" d="M111.53,85l-1.18-.8c1.21-.86-.6-.67-.41-1.18.61,0,1.27,0,1.1-.92-.07-.35-.42-.77.17-1a.78.78,0,0,1,1,.48c.26.67.93.9,1.33,1.41C113.43,84.71,113.43,84.71,111.53,85Z"/><path class="cls-114" d="M106,84.55c-.12.82.47,2.07-1.18,2-.26-.26-.52-.53-.79-.79Z"/><path class="cls-80" d="M84,81.16c-.16-.54.11-1.09.45-1,.63.08.28.51,0,.78A2.24,2.24,0,0,1,84,81.16Z"/><path class="cls-115" d="M76.66,107.14c0,1.28-.74,2.77,1.4,3.23.81.18-.26.77-.13,1.27.19.74-.23.56-.62.3a.74.74,0,0,0-1.23.62c.85,2.19-1.12,2.3-2.15,3-.52.38-1.52.27-.78,1.42.36.57-.32.71-.77.79-2.47.42-5,.21-7.42,1.06-.59.21-.88-.5-1.37-.65V117c.92-.4.79-1.21.79-2a6.86,6.86,0,0,1,4.11-1.57c1.23,0,2.16-.85,3.23-1.3a1.24,1.24,0,0,0,.57-1.68c-.24-.69-.82-.43-1.33-.32a1.73,1.73,0,0,1-1.82-.28c.64-1.37,2.38-1.76,2.82-3.43.2-.77,2.55-.26,3.27.59C75.61,107.53,76.18,107,76.66,107.14Z"/><path class="cls-116" d="M69.14,109.91c.64,0,1.37.21,1.91-.24.85-.7,1.64-.45,1.82.42s.5,2-.6,2.55C69.8,114,67,114.1,64.38,115.06A1.65,1.65,0,0,1,66,113.47C67.78,113,68.37,111.36,69.14,109.91Z"/><path class="cls-89" d="M61.44,112.49a1.63,1.63,0,0,0-1.62.44c-.34.31-.9.73-1.4.23-.66-.66,0-1.37.14-2a.91.91,0,0,1,1.4-.58,3.92,3.92,0,0,0,2.62.51c.43,0,1.15-.57,1.12.4a1,1,0,0,1-1.13,1.08C62.31,112.53,62.06,112.53,61.44,112.49Z"/><path class="cls-19" d="M52.48,108.87a.63.63,0,0,1,.66.58c0,.44-.28.66-.66.8s-.53-.22-.55-.49A.83.83,0,0,1,52.48,108.87Z"/><path class="cls-30" d="M113.12,79.4a4,4,0,0,0,1.07,1.29c.7.58,1.4,1.46.11,2.27-.42-.91-.55-2-1.89-2.22a.86.86,0,0,1-.54-1.1C112.08,79.2,112.68,79.45,113.12,79.4Z"/><path class="cls-117" d="M92.49,90.09l.45-.34c.72,1.34,2.27,2.18,2.34,3.91a3.77,3.77,0,0,1,.06,1.11c-.34,1.55-.38,3.14-.67,4.7-.38.67-1.11.94-1.66,1.41a.48.48,0,0,1-.5-.08H91.32c-1,0-1.24,1.16-2,1.58-1.74.39-3.46,1.26-5.26.17-.53-.33-1,0-1.48.23-.5,0-1.23.17-.79-.79l.12-.25c1.43-.27,1.72-1.74,2.66-2.53,0-1.95-.44-2.37-2-1.63-.29.15-.47.2-.62-.06-.34-.63.5-.68.59-1.1l.4-1.17c2,.67,4,1.41,5.81-.68.43-.5,2.61-.22,2.59-.77C91.35,92.35,92.87,91.5,92.49,90.09Z"/><path class="cls-118" d="M81.81,102c-1.48.15-3.14.86-4-1.19a3,3,0,0,1,1.29-1.18c.8-.4,1.53-.75,2.35-.07A1.64,1.64,0,0,1,81.81,102Z"/><path class="cls-91" d="M82.58,103.19c-.33,1.49-1,.73-1.73.65C81.24,102.71,82.2,103.89,82.58,103.19Z"/><path class="cls-94" d="M81.81,102c0-2.74-.47-3-2.91-1.71l-1.05.52c.36-1.63,1.66-2.63,2.89-1.94a5,5,0,0,0,3.85.35C84.15,100.62,83.91,102.24,81.81,102Z"/><path class="cls-119" d="M92.51,100.8h.39a1.93,1.93,0,0,1,2-.42c2.87,1.22,6,.72,8.93,1.17a2.52,2.52,0,0,0,2.41-.94c.94-1,1.9-2.19,3.52-2.31.87-.06.91-1.26,1.74-1.47h0c.16.61,3,0,.76,1.74-.31.24,0,.48,1.22.25v.79c-.22.62.25,1.06.4,1.58l2.11-.34c-.25,1.05-1,1.14-1.72,1.14a3.78,3.78,0,0,1-2.09.4c-1.3,0-2.31.29-2.39,1.88,0,.82-.75,1-1.41,1.09-1.25.23-2.5.49-3.81.74.59,1,1.58.35,2.19.79-.5,1.4-1.62,1.5-2.87,1.46-.6,0-1.36-.33-1.78.43a.62.62,0,0,0,.11.53,1.27,1.27,0,0,0,1.77.2.66.66,0,0,1,.37-.13,3.37,3.37,0,0,1,2,.49.53.53,0,0,1,.14.7c-.49.92-1.32.17-2,.41-.47.17-1-.51-1.53.17a7,7,0,0,0,3.45,1.43c-1.26.82-2.1,1.66-3.38.74a2,2,0,0,0-.93-.23c-.67-.08-1.59.59-1.94-.31-.28-.71,1.1-.57,1.13-1.5-1.43-.24-2.77-.45-3.55,1.28-.17.38-.65.61-1,.92h-1.2c-1.81,1.53-3.87,1.15-5.93.79-.53-.81-1.66-1.36-.81-2.71.24-.38-.71-1.09-1.24-.87-.79.32-.86-.25-1.33-.7,2.62-.13,1.72-2,1.68-3.28-.1-3.31.53-3.94,3.9-3.27C91,102.26,92.08,101.62,92.51,100.8Z"/><path class="cls-100" d="M126.05,111.55a1.38,1.38,0,0,1-1.08,1,.86.86,0,0,1-1.09-.83.76.76,0,0,1,.88-.82C125.22,111,125.83,110.93,126.05,111.55Z"/><path class="cls-100" d="M126.73,114.41c-.07.41-.31.58-.57.51a.94.94,0,0,1-.57-.44.31.31,0,0,1,.35-.47A3.09,3.09,0,0,1,126.73,114.41Z"/><path class="cls-104" d="M133.21,118.82c.44-.27.85-.29,1.16.15a.61.61,0,0,1,0,.49A.86.86,0,0,1,133.21,118.82Z"/><path class="cls-104" d="M113.91,101.19c-.4-.46-1.07-.85-.4-1.58A2.65,2.65,0,0,1,113.91,101.19Z"/><path class="cls-120" d="M89.74,114.27c1.91-.74,4,0,5.93-.79,0,.53,0,1,.73,1.17.56.11,1.49-.34,1.55.66s-.9,1-1.48,1.34A31.19,31.19,0,0,0,86,116.52c-.31.06-.7.2-.81-.24a.93.93,0,0,1,.27-.67A1.7,1.7,0,0,1,87.2,115,3,3,0,0,0,89.74,114.27Z"/><path class="cls-99" d="M142.66,120.76c-.67.3-1.17.39-1.69-.16C141.54,120.07,142,120.12,142.66,120.76Z"/><path class="cls-67" d="M140.84,110c-.08.32-.18.56-.48.58s-.58,0-.48-.36c.05-.16.37-.26.59-.32S140.87,109.71,140.84,110Z"/><path class="cls-119" d="M89.34,102.38c.37-.9.64-1.91,2-1.58C90.56,101.2,90.82,102.89,89.34,102.38Z"/><path class="cls-121" d="M110.73,93.66a7.59,7.59,0,0,1-.81,0c-1.11-1.85-2.47-.54-3.69-.5,1.24.16,2.6-.45,3.69.5a3.39,3.39,0,0,1,0,.43c-.8.88-2,.79-3,1.1-.81.18-1.62.46-2.28-.37s-1.2,0-1.8-.07a.74.74,0,0,1-.59-.49c0-1-.66-1.85-.47-2.86a.84.84,0,0,1,.56-.85,2.31,2.31,0,0,0,2.16.44c1.72-.59,3.39,0,5.07.52C110.84,91.9,110.62,92.81,110.73,93.66Z"/><path class="cls-122" d="M102.41,94.06l.4.4c1.91,1,2,1.45.33,2.49-.7.17-1.41.33-2-.36-.09-2.1-.08-2-2.24-1.82-1.34.12-2.81,1.19-4-.31a.85.85,0,0,1,.39-.8c1.47-.15,2.71-1.2,4.32-1,.62.08.45-1,.84-1.38.48-.7.83-1.7,2-.78l-.36.77A4.15,4.15,0,0,0,102.41,94.06Z"/><path class="cls-123" d="M101.22,96.44a1.31,1.31,0,0,0,1.59,0c1.91.93,3.07,0,4-1.59a9.41,9.41,0,0,1,3.17-.79c.94.69.92,1.93,1.59,2.77-.32,2.42-3.08,1.84-4.15,3.42-1.77,2.62-4.39,1.33-6.81,1.52-2.73.22-5-1.36-7.67-1,.13-.94.87-1,1.59-1.2C96,97.08,98.51,96.49,101.22,96.44Z"/><path class="cls-80" d="M92.9,89.69c0-.63-.79-1.44.27-1.84.91-.34,1,.56,1.32,1.06C93.75,88.74,93.36,89.28,92.9,89.69Z"/><path class="cls-124" d="M101.22,96.44c-2.37.8-4.84,1.36-6.73,3.16-.46-1.76.24-3.43.4-5.14,1.62.81,3.22,0,4.7-.34a1.71,1.71,0,0,1,2,.46C102.4,95.41,101.44,95.84,101.22,96.44Z"/><path class="cls-112" d="M94,93.27c-.2-.12-.44-.19-.47-.31-.08-.31.17-.44.43-.4a.47.47,0,0,1,.34.31C94.3,93,94.1,93.12,94,93.27Z"/><path class="cls-125" d="M106.77,94.85a2,2,0,0,1-.25.53c-.47.51.39,1.68-.33,1.61-1.11-.11-2.53,1.09-3.38-.55,2.94-.66-.23-1.32,0-2,.89-.33,1.86-1.57,2.52.36C105.49,95.28,106.28,94.7,106.77,94.85Z"/><path class="cls-107" d="M105.21,92.75c1.47.22,2.32-.87,3.56-.7.73.11,1.36.23,1.33,1.06,0,1-.89.57-1.32.47C107.69,93.33,106.43,94.2,105.21,92.75Z"/><path class="cls-125" d="M102.41,94.06c-1.24-.77-.83-1.77-.38-2.77.65.67,0,1.89,1,2.42Z"/><path class="cls-126" d="M161.59,199.72c-.28-.5-7-12.36-28.81-17.24l-.86-58.82C152.37,118,159.68,107,160,106.51a4.67,4.67,0,0,0-7.84-5.08c-.06.09-6.51,9.56-25.53,14l-.68.15-.2,0-.06,0a93.54,93.54,0,0,1-18.72,2,86.39,86.39,0,0,1-19.68-1.76C69.45,112,64,103.17,64,103.09a4.67,4.67,0,0,0-8.16,4.53c.27.47,6.46,11.31,26,16.55l.88,60.36c-17.89,5.69-24.53,15.21-25.23,16.3A4.66,4.66,0,0,0,65.22,206c.64-.91,6.85-8.93,23.23-13.4a89.19,89.19,0,0,1,22-2.86,93.09,93.09,0,0,1,14,.77v.11h.71l2.6.46,2.19.38c17.92,3.82,23.45,12.75,23.49,12.83a4.68,4.68,0,0,0,4.13,2.37,4.42,4.42,0,0,0,2.17-.57A4.68,4.68,0,0,0,161.59,199.72Zm-38.16-18.78a107.68,107.68,0,0,0-11.42-.59l-1.69,0A106.42,106.42,0,0,0,92,182.17l-.82-56.12a105.88,105.88,0,0,0,16,.92,109,109,0,0,0,15.52-1.29Z"/></g></svg>