<svg xmlns="http://www.w3.org/2000/svg" viewBox="0 0 211.38 272.57"><defs><style>.cls-1{fill:#f7ebf2;}.cls-2{fill:#a173a8;}.cls-3{fill:#c27aab;}.cls-4{fill:#da99be;}.cls-5{fill:#a377ab;}.cls-6{fill:#9f70a6;}.cls-7{fill:#db9ec1;}.cls-8{fill:#bb7cad;}.cls-9{fill:#d691b9;}.cls-10{fill:#a67aad;}.cls-11{fill:#cb7dad;}.cls-12{fill:#b276aa;}.cls-13{fill:#dda2c4;}.cls-14{fill:#ae77ab;}.cls-15{fill:#a67bad;}.cls-16{fill:#887bb0;}.cls-17{fill:#6e65a3;}.cls-18{fill:#af88b5;}.cls-19{fill:#ba99c0;}.cls-20{fill:#a97faf;}.cls-21{fill:#d58db7;}.cls-22{fill:#c1a4c6;}.cls-23{fill:#8e85b6;}.cls-24{fill:#8d6ea7;}.cls-25{fill:#9b76ab;}.cls-26{fill:#9491bd;}.cls-27{fill:#956fa7;}.cls-28{fill:#af7cae;}.cls-29{fill:#a678ab;}.cls-30{fill:#7f79ae;}.cls-31{fill:#8266a2;}.cls-32{fill:#d696bd;}.cls-33{fill:#b490ba;}.cls-34{fill:#ae86b4;}.cls-35{fill:#b28db9;}.cls-36{fill:#776ca6;}.cls-37{fill:#a87eaf;}.cls-38{fill:#b181b0;}.cls-39{fill:#c59bc1;}.cls-40{fill:#c48cb7;}.cls-41{fill:#d090b9;}.cls-42{fill:#c0a2c5;}.cls-43{fill:#8c72a9;}.cls-44{fill:#987aae;}.cls-45{fill:#8b87b7;}.cls-46{fill:#916fa7;}.cls-47{fill:#9e82b2;}.cls-48{fill:#ede5ee;}.cls-49{fill:#958ab8;}.cls-50{fill:#bd9dc2;}.cls-51{fill:#c679aa;}.cls-52{fill:#b575a8;}.cls-53{fill:#c17eae;}.cls-54{fill:#bd78aa;}.cls-55{fill:#ba76a9;}.cls-56{fill:#b47eaf;}.cls-57{fill:#cf8ab5;}.cls-58{fill:#d594bb;}.cls-59{fill:#b179ac;}.cls-60{fill:#a67aac;}.cls-61{fill:#ad78ab;}.cls-62{fill:#a97fb0;}.cls-63{fill:#b089b6;}.cls-64{fill:#b077aa;}.cls-65{fill:#b578aa;}.cls-66{fill:#ac73a7;}.cls-67{fill:#d08eb7;}.cls-68{fill:#d494bb;}.cls-69{fill:#b475a9;}.cls-70{fill:#be94bd;}.cls-71{fill:#b380b0;}.cls-72{fill:#cc84b1;}.cls-73{fill:#ca7aaa;}.cls-74{fill:#c87bac;}.cls-75{fill:#aa81b1;}.cls-76{fill:#ac73a8;}.cls-77{fill:#716ba7;}.cls-78{fill:#9678ad;}.cls-79{fill:#a57eb0;}.cls-80{fill:#8474ab;}.cls-81{fill:#7a70a9;}.cls-82{fill:#8a80b3;}.cls-83{fill:#7b72aa;}.cls-84{fill:#9977ac;}.cls-85{fill:#bd8ab6;}.cls-86{fill:#8f6da6;}.cls-87{fill:#7967a4;}.cls-88{fill:#856aa5;}.cls-89{fill:#b793bc;}.cls-90{fill:#bf87b4;}.cls-91{fill:#b67aac;}.cls-92{fill:#9675aa;}.cls-93{fill:#9676ab;}.cls-94{fill:#b883b2;}.cls-95{fill:#9870a7;}.cls-96{fill:#ad76aa;}.cls-97{fill:#7968a4;}.cls-98{fill:#cfc4db;}.cls-99{fill:#c77eae;}.cls-100{fill:#c27cac;}.cls-101{fill:#be79ab;}.cls-102{fill:#a877aa;}.cls-103{fill:#c98eb8;}.cls-104{fill:#c883b1;}.cls-105{fill:#a477ab;}.cls-106{fill:#a578ab;}.cls-107{fill:#c6a3c6;}.cls-108{fill:#d0b8d3;}.cls-109{fill:#6c65a3;}.cls-110{fill:#c58fb9;}.cls-111{fill:#a672a8;}.cls-112{fill:#bc96be;}.cls-113{fill:#796ca7;}.cls-114{fill:#a694be;}.cls-115{fill:#af7cad;}.cls-116{fill:#b97cad;}.cls-117{fill:#c587b4;}.cls-118{fill:#a77aad;}.cls-119{fill:#bf7eae;}.cls-120{fill:#a87bad;}.cls-121{fill:#c094bc;}.cls-122{fill:#a883b2;}.cls-123{fill:#b983b2;}.cls-124{fill:#bc95bd;}.cls-125{fill:#b78cb7;}.cls-126{fill:#fff;}</style></defs><title>2413150</title><g id="OBJECTS"><path class="cls-1" d="M113.4,237.43H102.71a.45.45,0,0,1,.19-.63,30.76,30.76,0,0,1,10.31,0A.45.45,0,0,1,113.4,237.43Z"/><path class="cls-2" d="M24.61,173.65a9,9,0,0,1-.61-2.84,22.29,22.29,0,0,0,1.82-3.23c.66-1.26.32-1.87-1.09-1.93-.57,0-1.32.09-1.4-.73s.52-1,1.12-1.18a1.76,1.76,0,0,0,1.36-2.69,3.42,3.42,0,0,1,.11-2.5c.38-1.1.8-2.14,2.26-2.06a.93.93,0,0,0,.68-.38c1.58-1.75,3.68-1.88,5.82-1.84a8.28,8.28,0,0,0,2.17-.1c.49-.13.53-.51.45-.94-.14-.77-.6-.31-.84-.17-1.47.9-3.06.57-4.62.52-.47,0-1,0-1.07-.62s.21-1,.69-1c1.63,0,2.75-1.62,4.47-1.24.78.17.73-.39.76-1,.11-2.27,1-3,3.26-2.8.38,0,.88.36,1.12,0,1-1.43,2.16-2.23,4-1.77a.38.38,0,0,0,.41-.35c-.23-1.87,1.81-2.27,2.35-3.69.35-.94,3-.87,4.31.07.8.56,1.48,1.29,2.32,1.83a.94.94,0,0,1,.47,1,2.21,2.21,0,0,0,2.18,2.47c.84.07,1.41.28,1.59,1.13.73,3.53,1.51,3.36,4.77,2.95a3.79,3.79,0,0,1,4.34,2.07c.62,1.07,1.21,1.76,2.63,1.33,1.09-.33,2.2.29,3.28.52s1.49,1,.77,2a2.08,2.08,0,0,0-.51,1c.47.51,1,.15,1.51.18s1.2-.06,1.42.47c.32.76-.46,1-1.29,1.51a4.8,4.8,0,0,1,3.78-.6c1.36.38,2.55,1,4.15.24.95-.43,2.2.89,3.24,1.44a8.41,8.41,0,0,0,6.65.78c.76-.22,1.46-.28,1.67.76,0,.11-.32.42.29.36a14.35,14.35,0,0,0,6-1.7c2.84-1.82,5.52-.93,8.3-.88.52,0,1.05.21,1.11.9-.37.74-1.28,1.44.18,2.15.59.28.51,1.19.24,1.82a11.19,11.19,0,0,1-1.77,3.28c-2.08,2.29-3.35,5.16-5.36,7.49a5,5,0,0,0-1,3.49c0,2.5.46,4.94.5,7.41-1.61,0-3,1.73-4.78.63a2.28,2.28,0,0,0-1.17-.69,15.68,15.68,0,0,1-6.59-2.77A8.47,8.47,0,0,0,84.8,183a13.12,13.12,0,0,1-5.62.12,50.27,50.27,0,0,0-6.13-.59c-.17.26-.09.32,0,.43.66.55,2,.65,1.8,1.78s-1.46.55-2.21.83a8.77,8.77,0,0,1-4.1.23c-.45-.06-1,.07-1.22-.45s.18-1,.54-1.36a3,3,0,0,0,.87-1.18c-1.26-.26-2.4.21-3.54.25-.82,0-1.29-1.52-2.42-.27-.53.59-2-.21-3,.12s-2.08-.11-3.14.11c-1.4.29-2.78,0-4.17,1s-2.93-.27-2.76-2.19a6.72,6.72,0,0,1,.65-2.27,15.76,15.76,0,0,0,.92-2,3.14,3.14,0,0,0-2.35-.32c-2,.14-3.43-1.25-5.24-1.55a.26.26,0,0,1-.16-.11c-1.47-2.8-4.38-1.53-6.56-2.3-.27-.09-.79.24-1,0-1.87-2.52-3.83-.23-5.7,0-1.31.13-1.68-.23-1.69-1.43-.92,1.37-2.66,1.34-3.91,2.2-.13-.09-.19-.18-.17-.29S24.58,173.65,24.61,173.65Z"/><path class="cls-3" d="M59.14,222.73A1.17,1.17,0,0,0,58,222a8.47,8.47,0,0,1-3.59-2.78h0c-.76-.42-1.62-.72-2-1.61l-.37-.37c-.6-.42-1.57-.58-1.22-1.69a3.52,3.52,0,0,0,1.77-2.22,1.24,1.24,0,0,1,.67-.93c2.12-1,2.59-3,3-5a2.17,2.17,0,0,1,1.93-1.92c.9,0,1.53-.13,1.83-1.22a6.79,6.79,0,0,1,1.84-3.08c.26-.1.6-.21.76,0,1.44,1.42,2.93.82,4.49.23a2,2,0,0,1,1.88.28c.13,1.51-1.81.58-1.91,1.73,2.63,1.31,5.57,1.49,8.53,1.65.47,0,1.2-.17,1.3.55s-.5,1.09-1.08,1.24a3.09,3.09,0,0,0-2.19,1.77c-.39.82-2.93,1.4-3.77,1-1.38-.64-.16-1.23.06-1.79-2.24-2.16-4.52-.62-6.81-.11,1.49.77,3,.14,4.54.22.51,0,1.11-.25,1.43.33a1.4,1.4,0,0,1-.15,1.49c-.46.69-1,.31-1.59.11a1,1,0,0,0-.76-.05c2.06.47,4.21.61,6.16,1.5,1.22.55,1.42-.37,1.48-1s-.62-1.29.39-1.59a2.07,2.07,0,0,1,2.3.72c1,1.15,1,1.13,1.81,1-1.17.55-1.33-.76-1.6-1.82-.16-.64.3-1.21.86-.91,1.42.76,2.69,0,4-.18s2.47-.36,2.36,1.55c0,.19.07.53.2.49,1.91-.57,3.29,1.95,5.47.72,1.5-.84,2.46,0,2.78,1.78.19,1.08.55,1.78,1.59.7s1.43.43,2.24.36c-.86-.06-.74-1-1.3-1.32-.36-.21-1.08-.18-.9-.81s.84-.78,1.46-.78a20.86,20.86,0,0,1,4.06.61c-1.17-.6-1.73-1.29-.56-2.42.7-.67.65-1.8,1.4-2.46.59-.77,1.17-1.54,2.19-.51.55.56,1.19.27,1.84.24a11.35,11.35,0,0,1,5.52.77,2,2,0,0,1,1.3,2c.14,2.56.66,3,3.17,3a3,3,0,0,1,2.36.71,1.63,1.63,0,0,0,1.85.24c1-.4,2.16-.52,3.22-.91s2.13-.21,2.22,1.31a2.43,2.43,0,0,0,1,1.86c1.2,1.08,2,2.63,4,2.61a1.34,1.34,0,0,1,1.19,1.57,2,2,0,0,0,1.06,2.14c.64.43,1.11.88.68,1.77s.39,1.08.91,1.44c1.76,1.2,2.08,2.46,1,4.19,1.22.52,2.49-1,3.55,0A7.43,7.43,0,0,1,140,231.1c-.16.36-.51.35-.81.44a1.64,1.64,0,0,1-2,.78l-2.75.77c-2.21-.16-4.4.22-6.64,0-1.47-.15-3,1-4.59.38a5,5,0,0,1-1.1-.41c-.68-.91-2.36-.9-2.3-2.49,0-1.09-.34-1.95-1.57-2.17s-1.56-1-1.74-2.08c-.34-2.18-1.45-2.57-3.28-1.25-2.67,1.94-5.32,3.86-8.6,4.76a11,11,0,0,1-4.27.57,36.11,36.11,0,0,0-11.77.77,5.23,5.23,0,0,1-3.09-.36,20.9,20.9,0,0,0-5.92-1.52,10.41,10.41,0,0,1-4.68-1.35c-1.69-1.06-3,.31-4.31,1.09l.05.11a3.53,3.53,0,0,1-3.18-1.55l-7.11-4.05A1.69,1.69,0,0,1,59.14,222.73Z"/><path class="cls-4" d="M193.44,159.38a.82.82,0,0,0,0,.35.37.37,0,0,1-.47.12,1.8,1.8,0,0,1-.38-.44c-1.39,1.22-2.71.49-4-.14-.32-.16-.56-.53-.83.16a2.32,2.32,0,0,1-2.46,1.31c-1.92-.13-3.39.77-4.92,1.64a7.14,7.14,0,0,1-1.22.65,1.1,1.1,0,0,1-1.29-.16c-.43-.43-.25-.82.08-1.21a1.24,1.24,0,0,0,.15-1.14c.15,1-.43,1.25-1.25,1.19a4.47,4.47,0,0,0-4.43,2.26c-.32.52-.84,1.26-1.57.87-1-.51-2.28-.84-2.62-2-.25-.81.71-1.25,1.47-1.52,1.29-.51-.18-1,0-1.52a.25.25,0,0,1,.22-.21c-.13,0-.19,0-.2.19-.25.52.66,1.07-.07,1.56-1.22-.21-1.93-1.46-3.27-1.55-.55,0-.47-.75,0-1s1.06-.55.93-1.29c.06-.17.25-.2.34-.34a1.13,1.13,0,0,0-.39.42c-.16.55-.52.95-.91.32-.57-.95-1.51-2,0-3,.87-.6.71-1.36,0-2-.94-.79-.55-1.39.24-1.83,2-1.13,2.45-2.69,1.75-4.85-.26-.8.16-1.79-.21-2.7a.67.67,0,0,1,.57-.88c1.16-.16,1.2-.86,1.17-1.82a1.65,1.65,0,0,0-1.59-1.69c-3.06.3-2.19-2.41-3.06-3.76a2.44,2.44,0,0,1-.12-1,1.61,1.61,0,0,1,.31-1.06,73.69,73.69,0,0,0,2-8c.18-1.32-.79-1.85-2.06-2.13a24.91,24.91,0,0,0-7.16-.1.77.77,0,0,1-.59-.51,1.56,1.56,0,0,1,1.38-1.8c.67-.13.14-.66.45-.84,2.75-1.92,5.75-1.92,8.84-1.19.7.17,1.37.48,2.12-.11-.8-.76-1.62-.29-2.42-.18-.59.08-1.29.18-1.51-.54s.46-1,1-1.27a7.09,7.09,0,0,1,2.81-.87c1.38,0,2.77.13,3.1-1.78.07-.44.68-.59,1.13-.7a15,15,0,0,1,6.82-.43c1.17.26,2.48.54,2.88,2,.23.87,1,1,1.72,1a.8.8,0,0,1,.42.35,2.1,2.1,0,0,0,.48,1.5,4.18,4.18,0,0,1,1.58,4c.23.44.46.87.68,1.31.44.32.36.69.13,1.08q.78,2.58,1.58,5.15a3.65,3.65,0,0,1,1,3.62,48.73,48.73,0,0,0,1.31,7.08,1.68,1.68,0,0,1,.43,1.15c-.09.69-.51,1.37-.07,2.07a.6.6,0,0,0,0,.35,1.62,1.62,0,0,1,.43,1.28,11.16,11.16,0,0,0-.05,4.71v3.86a11.16,11.16,0,0,0,.05,4.71A1.58,1.58,0,0,1,193.44,159.38Z"/><path class="cls-5" d="M110.63,161c-2.44-1.15-5.06-.27-7.56-.66-.67,2.15-2.75,1.15-4.06,1.84-.88.46-1.62,1.26-2.75.61-.37-.21-.6.06-.7.42a.68.68,0,0,1-.92.52c-.84-.34,0-.69.06-1,.08-.77-.26-1-.92-.74a7,7,0,0,1-7.08-.72c-.86-.62-2.43-.08-2.9-1.95-1,2.14-2.45,1.19-3.64.69a4,4,0,0,0-3.87,0,1,1,0,0,1-1.61-.64c.6-.42,1.62.07,2-1a3.06,3.06,0,0,0-1.87,0c-.51.14-1.09.49-1.44-.06a1.41,1.41,0,0,1,.42-1.77c1.44-1.29.68-1.42-.67-1.61s-2.74-.86-4.17-.06c-.5.28-.58-.26-.79-.58a17.69,17.69,0,0,0-1.62-2.46c-.8-.87-1.57-1.27-2.68-.66-1.3.69-2.66-.24-4,0-.49.1-1.54-1.51-1.58-2.74,0-.91.35-2.18-1.37-1.15-.54.32-.87-.43-1.27-.72-.58-.43-.81-1.66-2-.78-.25.19-.71-.21-.61-.54s-.07-1.18.75-1.15c.3,0,.62.28.89-.31-1.67-1.23-3.29-2.58-5.47-3a1.48,1.48,0,0,0-.56,0c-.29,1.63-2.66,1.93-2.46,3.8.18,1.71-1.38,1.35-1.8,1.11-1.31-.73-1.82.11-2.35.89s-.87,1.26-2.12.79c-1.91-.72-3.14.76-2.52,2.74.43,1.38-.89,1.43-1.29,1.22a1.78,1.78,0,0,0-2.34.51c-.76.72-2.13-.16-2.83,1.11,2.45.32,4.7.46,6.63-1,.4.12.19.31.2.47.14,2.49.15,2.38-2.66,2.36-2.26,0-4.74-.3-6.16,2.2-.13.24-.4.49-.62.34-1.71-1.19-1.38.87-2.08,1.28a1.47,1.47,0,0,1-.41-1.39c.09-.65.52-1.19.6-1.84s.06-1.13-.71-1.08c-1.57.12-2.5-1.15-3.78-1.67v-1.53a1.28,1.28,0,0,0,.31-.24c1.16-1.77,2.34-2.92,4.92-2.39,1.18.24,2.58-.39,3.64.79a2.34,2.34,0,0,1,.37.76c-.39-1.78,1.75-1.95,2-3.31.28-.55.88-.75,1.29-1.13-.29-.73-.87-.57-1.36-.59-.75,0-1.33-.17-1.08-1.14.76-1.38,2.24-1.39,3.52-1.75-1.94.55-3.9-.45-5.85.06-.5.13-.95-.48-.87-1.09a1.15,1.15,0,0,1,1.28-1c1.76.1,3.53-.61,5.28.11a1.21,1.21,0,0,0,1.42-.17c-.81.19-1.42.16-1.61-.61a1.12,1.12,0,0,1,.86-1.36,5.33,5.33,0,0,0,2.68-1.72c-.84-.23-1.83.22-2.19-1s.62-1.3,1-1.91a2.92,2.92,0,0,1,2.36-1.58c.6,0,1.21-.08,1.81-.07,1.72-.44,3.29.93,5,.39a4.58,4.58,0,0,1,.53-.14c1.12-.08,2.23-.19,3.35-.25.76,0,1.56,0,1.82.86s-.71.79-1,1.22a1.91,1.91,0,0,0-.43.62c.64.1,1.32-.15,1.89.18.23.13-.08,0,.16.09,2.31.58,3.16,2,2.43,4.27a5.74,5.74,0,0,0,0,1.55c.14.47.46,1,1,.6,1.11-.88,2.52-.6,3.7-1.12.15-.1.31-.18.46-.27.7-.6,1.14-1.48,2-1.83.44-.17.92-.34,1.26.12a.75.75,0,0,1-.22,1.05c-.66.58-.47.79.24,1.18a9.67,9.67,0,0,1,2,1.93c.94,1,1.93.71,2.34-.58.16-.5.15-1,.27-1.55a1.74,1.74,0,0,1,1.36-1.52,24.35,24.35,0,0,1,7.07-.48,2.35,2.35,0,0,1,1.5.89,6,6,0,0,0,4.2,2.28c.93.07,1.86.66,1.64,1.83-.18.95.2,2.46-1.69,2.23.83.09,1.55-.35,2.33-.2,1.58.23,2.5,1.56,3.79,2.27a3.37,3.37,0,0,0,1.93.76c2.36.67,4.67,0,7-.18s4.89-.21,7.2,1.22c1.5.92,3.45,1,5.18,1.54,1.52.49,2.35,1.13,1.74,2.58a9.42,9.42,0,0,0-.38,6C111.5,159.87,111.73,160.79,110.63,161Z"/><path class="cls-6" d="M24.74,174c.36-.58.53-1.32,1.52-1.24.47,0,1-.43,1.47-.5,1-.15.17-1.84,1.14-1.54.78.25-.17,1.32.2,2,.08.15.26.25.39.37.81-1.14,2.48.14,3.32-1.26.65-1.09,1.62-.61,2.29.17s1,1.3,2.18.65c.83-.46,1.87.64,3,.57.66,0,1.48.38,2.36.19.57-.12,1.48-.07.86,1A.65.65,0,0,0,44,175.5c2.23.25,4.16,1.94,6.58,1.34a1.79,1.79,0,0,1,1.48.21c.48.53-.35.83-.54,1.27a15.44,15.44,0,0,0-1.34,3.25c-.17.93-.06,1.93.71,2.21s2,.41,2.34-1c.12-.48.52-1,1-.61,1.07.78,2.27,0,3.1.23,1.75.49,3.31-.66,5.08,0,1.26.49,0-1.05.7-1.54,1.37,3.51,4.43.29,6.43,1.62-.21,1.21-1.39,1.67-2,2.59,2.52.75,4.82,0,7.52-.26a14.37,14.37,0,0,0-3.49-2.12,3.44,3.44,0,0,1,3-.6c1.48.39,3,.81,4.5,0a.56.56,0,0,1,.83.27c.39,1.35.78.86,1.52.2s1.29.82,2.14.32c2-1.17,4-.29,6-.28a4.29,4.29,0,0,1,3,1.5c1.53,1.49,3.42,1.45,5.2,1.94.4.11,1.42-.05.92,1l-.21.14a13.86,13.86,0,0,1-2.48.36c-.56.08-.71.66-1.11.93a8.45,8.45,0,0,1-1,.48,4,4,0,0,1-1.31.39c-.64-.11-1.1.3-1.63.54-.9.41-3.39-.62-3.73-1.49s.9-.74,1-1.37a1,1,0,0,0-1.28-.07c-1.6,1.28-3.6,1.22-5.42,1.76-1,.3-.83,1.06-.17,1.4,1.45.74,1.52,1.82,1.1,3.14-.37,1.09-.77,2.15-2.23,2-1.58-1.18-3.82-1.66-4-4.28-.06-1-1-1.5-2.1-1.05-.83.33-1.54.81-2.55.33-.64-.3-1.25.32-1.62.88a4.36,4.36,0,0,1-2.81,1.92c-1.68.42-3.07,1.66-5,1.67-.56,0-1.89.32-.9,2,.5.83-.47,2.76-1.67,3.78a11.55,11.55,0,0,1-7.26-1.16,4.13,4.13,0,0,0-2.7-.27c-1,0-2.12.71-2.66-.76a3.68,3.68,0,0,1,.63-1.21c1.11-2.06,1.09-2.13-1-3-.37-.15-.79-.27-.81-.74a1.06,1.06,0,0,1,1-1.07,2.09,2.09,0,0,0,1.94-2.28,1.71,1.71,0,0,0-.31-1.28c-.88-1.2-.5-2.62.1-3.9.48-1,.7-2-.27-2.85-.54-.41-1.2-.14-1.79-.28-2.94.49-5-1.84-7.55-2.43a2.34,2.34,0,0,0-2.43-.17,3.3,3.3,0,0,1-2,.62c-1.33-.48-2.68.26-4.07-.14a11.13,11.13,0,0,1-3.23-1.31,2.29,2.29,0,0,1-.4-.36,2.86,2.86,0,0,0-1.32-1.23l-.13-1.19C24.91,175.2,24.26,174.85,24.74,174Z"/><path class="cls-7" d="M185.91,116.19c-1.21.09-2.43.34-2.39-1.62,0-.35-1-.89-1.62-1a14.35,14.35,0,0,0-8,.47c-1.14.35-.17,1.16.1,1.72-2.44.83-5.18.21-7.62,2.2,1.85.55,4.12-1.62,5.06,1.25a6.64,6.64,0,0,1-3.94-.07c-2.74-.91-5.49,0-8.1,1.06-1.84,0-2.72-.94-2.5-2.75.1-.75.64-1.5-.77-1.89-1.22-.33.35-1.22.1-1.6s-1.44-.27-1.59-1.2a.52.52,0,0,1,.31-.48c1.66-.66.69-1.41.13-2.08-2.3,1.18-4.2,3.07-6.84,3.59a1.41,1.41,0,0,1-.5-.26,7.32,7.32,0,0,0-3.6-3.88,3,3,0,0,1-1.37-4.2c.52-1.15,0-2.35.5-3.44.64-1.09,1.25-2.13.38-3.44-.46-.7,1-1.89-.55-2.47-1-.38-1.92.14-2.89,0A19.35,19.35,0,0,1,138,96c-.47-.11-1.12-.16-.83-1,3-2.26,6-2.69,9.25-.57a4,4,0,0,0,4.93,0,12.68,12.68,0,0,1,6.51-1.94c1.29.18,1.71,1.4,2.32,2.22.78,1.05.1,2.11-1.37,2.48-.91.23-.9,1-.79,1.56s.2,1.42.89,1.81c.09.06.24-.06.31-.17a.29.29,0,0,0,0-.36c-.26-.31-.67-.42-.93-.72s-.52-1,.13-1.07c1.6-.3,3.24-.76,4.82.14.3.17.73.56.6.67-1.65,1.38.76,2.38.3,3.56-.21.55-1.09.41-1.54,1a2.34,2.34,0,0,0,2.52.45,2.73,2.73,0,0,1,2.1,0c.72.35,1.61.59,1.67,1.5s-.71,1.29-1.5,1.58a21,21,0,0,0,4.18.15,2.11,2.11,0,0,0,2.22-1.85c.11-.62-.15-1.49.74-1.6s1.21.66,1.53,1.33a1.21,1.21,0,0,0,.31.49c.23,0,.36-.12.48-.28.5-.65.88-1.69,2-1s1.38,1.45.24,2.38c-.31.24-.1.61-.15.91-.25,1.33-2.05,2-2.81,1s-1.49-.75-2.16-.3a4.9,4.9,0,0,1-3.88.67c4,.73,8,1.08,11.78-1,.4.18.64.45.51.91l1.12,1.67C184.83,112.31,186.08,113.94,185.91,116.19Z"/><path class="cls-8" d="M140,231.1a5.94,5.94,0,0,1-1.32-1.15c-.85-1.37-1.75-2-3.33-1a1.2,1.2,0,0,1-1.74-.39c-.65-1.09.4-.87.86-1.2s-.22-2.34-1.29-2.82-2.4-.65-1.07-2.4c.49-.66-1.12-.68-1.44-1.48-.19-.45-1-.43-.49-1.39a1.26,1.26,0,0,0-1.24-1.86c-2.52.75-2.61-1.48-3.62-2.58.11-1,.42-1.95-.21-3-.87-1.46-.18-2.26,1.56-2.17.62,0,1.23.49,2,0-2.28-.12-4.52,0-5.66-2.36,0-1,.68-1.23,1.48-1,1.14.39,1.77.38,1.52-1.14a1.71,1.71,0,0,1,1.89-2c1.75,0,3.4-1.11,5.2-.36.3.12.6-.21.89-.37a4.12,4.12,0,0,1,2.09.71c1.16,2.44,3.71,2.42,5.77,3.25l.52.17c.83.39,1.83.14,2.62.69a2.11,2.11,0,0,1,.4.39c.26,1.48,1.75,1.38,2.64,2.05a1.59,1.59,0,0,1-.3,1.64,1.07,1.07,0,0,0,.07,1.43,1.46,1.46,0,0,0,1.61.43c.59-.2,1.13-.89,1.79-.39,1,.73,2.27,1.66,2.47,2.58.28,1.24.85,1.33,1.72,1.55.55.14,1.19.25,1.29,1-1.06,1.8-3.09.81-4.62,1.47.58.76,1.29.53,1.91.6s1.06.12,1.27.73a1.45,1.45,0,0,1-.52,1.58,3.15,3.15,0,0,1-1.89,1c-3.13.41-3.89,1.06-4.57,3.83l-5.15,2.8a1.42,1.42,0,0,1-1.6.72A2.58,2.58,0,0,0,140,231.1Z"/><path class="cls-9" d="M169.67,161.36c-.28.61-1.64,1.07-.69,1.8s2.19,2.34,3.4.08a3.79,3.79,0,0,1,4.44-1.93c.66.12.93,0,.91-.79a1,1,0,0,1,.92-1.08c.08.09.25.22.23.25a8.87,8.87,0,0,0-.82,3,3.85,3.85,0,0,0,3.32-1.53,2.25,2.25,0,0,1,2.32-.8,12.8,12.8,0,0,0,2.08-.16c1.08-.18,2.25-.56,1.34-2.32,3.49,2.12,4.19,2.17,5.65.48.11.52.21,1,.3,1.45.34.59,0,1.3.32,1.89a1.39,1.39,0,0,1-.33,1.22c-.77.93-.08,2.26-.87,3.18-.44.73-1.38.71-2,1.3.66-.26,1.29-.66,2-.12-.13.53-.27,1.06-.4,1.59a1.74,1.74,0,0,1-1.69.27,5.34,5.34,0,0,0-4.27.57.44.44,0,0,1,.25.05c.7.32,1.86.51,1.73,1.33s-1.32.95-2.15,1.09c-2.12.34-2.58,1-2,3.11.24.84.67,1.59-.73,1.9-.71.15-.13.77.09,1.09.51.72.92,1.42-.16,1.93-.88.41-1.79.56-2.45-.46-.32-.49-.47-1.08-.82-1.56-1.35.94-2.11.81-2.52-.43-.9-2.7-1.35-3-4.18-2.72-1.44-.2-2.84.38-4.31.09-2.81-.54-3.93-1.65-4.16-4.44,0-.2,0-.45-.11-.57-2.3-2.33-.16-4.4.38-6.54a7.67,7.67,0,0,0-.38-4.12c-.54-1.72-1.85-3.19-1.88-5.17,0-.44-.83-.63-.92-1.22.58-1.3.71-2.73,1.62-4a3.7,3.7,0,0,0-.12-3.19c-.85-1.54-.13-2.52.64-3.53s1.75-2.11-.06-3.15c-.22-.12-.47-.54-.35-.65,1.17-1.16.37-3.27,2-4.16.07,1.47,1.7,2.5.89,4.49,2-1.37,2.94.42,4.28.8a4.45,4.45,0,0,0,.1,2.79c0,.17-1,.57-1.56.49a.65.65,0,0,0-.76.34c.37.69,1.48,1.39.37,2.39a.56.56,0,0,0,.16.86c.88.47.12,1.11.21,1.44.69,2.71-2,2.71-3,4,2,1.5,2,1.78.15,3.44-.86.76.15,1.41.34,2.06s.47-.21.76-.15c.53,1.12.53,1.12-1.39,2.09A4.28,4.28,0,0,1,169.67,161.36Z"/><path class="cls-10" d="M38.91,178.79c2.74.67,5,2.8,7.93,2.77.23,0,0,1.08.65.24.17-.23.6-.23.93-.23a2.06,2.06,0,0,1,1,3c-.87,1.63-1.26,3-.16,4.76.79,1.24-.36,3-1.9,3.37-.43.11-.9.2-1.1.81.77.89,2.93-.46,2.87,1.44a3.27,3.27,0,0,1-1.88,3.25c-1.12.43-1.08-.47-1.24-1.11-.65-2.66-1.49-3.09-3.94-2a2.28,2.28,0,0,1-.51.21,3.79,3.79,0,0,0-4,2.87c-.25.72-.73.82-1.36.74h-.33A1.72,1.72,0,0,1,35,197.7c0-.32,0-.59-.39-.7a1.93,1.93,0,0,1-.81-1.25.59.59,0,0,0-.06-.32c-.64-.51-1.39-1-1.15-2a5.46,5.46,0,0,0-1.14-2c-.63-.5-1.15-1-.9-2-.62-1.19-.88-2.59-1.89-3.58a9.18,9.18,0,0,1-1.61-4c-.42-1.56-.84-3.13-1.25-4.7,1-.61.9.39,1.23.78a9,9,0,0,0,3.09,1.62,2.79,2.79,0,0,0,2.56-.1,1.92,1.92,0,0,1,1.88.06l2-.79A17,17,0,0,0,38.91,178.79Z"/><path class="cls-7" d="M70.57,229c1-1.67,2.74-2.68,4-1.81,1.9,1.32,4,1.43,6.11,1.74a19.93,19.93,0,0,1,5.61,1.66c1.37.64,2.83.13,4-.22,3.44-1,6.85-.55,10.29-.49a16,16,0,0,0,9.48-3.24c1-.7,2-1.36,3-2.17,1.72-1.46,3.32-1.44,3.67.39a4.27,4.27,0,0,0,3.22,3.72,1.7,1.7,0,0,1,.2,2.1c0,.05-.14.12-.13.14,1.17,2.12-.29,2.4-1.83,2.63a3.21,3.21,0,0,0-1.75.85c-.84.82-2.05,1.25-2.81.39s0-2,.58-2.85c.16-.28.57-.27.92-.57a1.66,1.66,0,0,0-1.87.75,4.91,4.91,0,0,1-1.66,1.67,1.43,1.43,0,0,0-.64,1.72c.2.76.87.63,1.45.72,1.53.23,3.15-.56,4.62.37a.39.39,0,0,1-.1.5l-1.53,0h-2l-10.71,0h-2.37l-1.55,0c-.75-.45-1.63,0-2.39-.33l-3.59-.44-.81.05a1.86,1.86,0,0,1-1.57-.39l-1.59-.42c-.77.43-1.37,0-2-.38l-1.2-.41c-.77.47-1.33-.15-2-.38a31.4,31.4,0,0,0-6.33-2,4.44,4.44,0,0,1-2-.81c-.15-.35-.47-.36-.78-.39a2.07,2.07,0,0,1-2-.88Z"/><path class="cls-11" d="M185.57,187.92l-2,4a1.84,1.84,0,0,1-.92,2l-.42.77a2,2,0,0,1-1.2,2,1.54,1.54,0,0,0-.3,0,1.78,1.78,0,0,1-1.84.23,1.13,1.13,0,0,1-.51-.73c-.08-2.66-.66-3.2-3.29-3.08a3.69,3.69,0,0,0-4.65-2.77,2.86,2.86,0,0,1-3.54-1.66,2,2,0,0,0-2-1.23,4.23,4.23,0,0,1-1.86-.49c-2-.85-3-2.23-2.79-4.45-.94-2.26-.95-2.29,1.2-2.66.88-.15,1.27-.4.58-1.22-.26-.31-.61-.72-.46-1,1-2.11.43-4.33.61-6.5a1.82,1.82,0,0,1,1.2-1.45c.92.23.75,1,.69,1.6-.32,2.83,1.31,4.95,2.85,6.92a3.67,3.67,0,0,0,3.69,1c1.12-.37,1.88-.63,2.79.26.38.37,1,.2,1.52.29,1.71.26,3.39.55,4.35,2.29a1.67,1.67,0,0,0,1.38.65c.53.06,1.17,0,1.49.44a4.24,4.24,0,0,0,4.55,1.73c.05,0,.08.19,0,.34s0,.48,0,.72C186.49,186.65,186.46,187.51,185.57,187.92Z"/><path class="cls-12" d="M158.18,92.83c-2.67.57-5.37,1-7.63,2.76a3.09,3.09,0,0,1-3.72-.27c-3-2.31-5.85-2.19-8.89-.34a3,3,0,0,1-.75.22c-.77,1.08-1.66,2-3.15,1.68-.33-.52.1-.84.34-1.21s.32-.63-.18-.94c-2.07-1.28-2-1.3-.17-2.53-.06-.37-.36-.3-.59-.33-.66-.06-1.22-.33-1.16-1.06s.77-1,1.46-1a3.86,3.86,0,0,1,1.16.23c.6.06,1.26.73,1.79.13s.73-.77,1.27-.29a1.45,1.45,0,0,1,.36,1.79,10.16,10.16,0,0,1-.95,1.29c1.27,0,1.57-.8,1.47-1.77-.07-.71-.29-1.42-.36-2.14,0-.48-.5-1.07.11-1.44s1,.13,1.48.3c.64.23,1,.81,1.71,1.16.47-.84.19-2.63,1.85-2,.91.33,1.68,1.15,2.9,1.68a2.16,2.16,0,0,0-2-1.81c-.51-.12-1.05-.12-1.56-.28s-1.28-.58-1.18-1.37.83-.72,1.42-.73a11,11,0,0,1,2.36.09,2.59,2.59,0,0,0,2.74-1.21c.78-1.5,1.89-1.58,3.26-1.53.65,0,1.31-.12,2-.11,2.71,1.47,5.71,2.22,8.56,3.31,1.19-.22,1.55.67,2,1.46a1.21,1.21,0,0,0,.82.72c1.41,0,1.8,1.11,2.35,2.07l1.63,1.92a1,1,0,0,1-.87.37A16.67,16.67,0,0,0,158.18,92.83Z"/><path class="cls-13" d="M158.18,92.83c2.57-2.7,5.85-1.94,9-1.84a17.31,17.31,0,0,1,1.74.24l.73.45c1.32.24,1.62,1.33,2,2.36a5.32,5.32,0,0,0,1.58,1.59,23.34,23.34,0,0,1,5.53,7.18,5.11,5.11,0,0,0,1.53,2.32,3.35,3.35,0,0,1,1.62,3.14c-1.49,1.19-3,2.12-5.1,1.82a33.3,33.3,0,0,0-5.64.12c-.33,0-.89.09-1,0-.26-.57-1.11-1.15-1.06-1.33.25-.85,1-.27,1.48-.21a3.6,3.6,0,0,0,3.1-.63c.69-.58,2.84-.82,2.72-.2-.4,2,.83.71,1.25.82a.79.79,0,0,0,.92-.58c.16-.64-.73-.45-.83-1,.14-.57.75-.39,1.1-.65s.74-.44.43-.9a2.59,2.59,0,0,0-1-.93c-.48-.21-.57.36-.81.65-.37.45-.12,1.52-1.12,1.34a1,1,0,0,1-.78-1.43c0-.07-.48-1.14-1-1-.91.27.07.87,0,1.18-.43,1.34-1.09,2.53-2.8,2.5s-3.58,0-5.94,0l1.12-.82c.63-.46,2-.6,1.51-1.61a2.18,2.18,0,0,0-2.78-.85,4.15,4.15,0,0,1-4.1-.72,3.71,3.71,0,0,1,2.79-1.55c-2.56-1.21-2.6-1.38-.83-3.19-1.66-1.35-3.44-.5-5.49-.38a11.75,11.75,0,0,1,1,.65c.39.33,1.45-.17,1.23.8-.17.75-1,1-1.69,1.23a1.25,1.25,0,0,1-.67-.21c.31-1.38-.53-2.68-.29-4,.08-.45.71-1,1.21-.73s1,1,1,0c0-.4.7-1.69-.66-1.84C158.11,94.5,159.35,92.94,158.18,92.83Z"/><path class="cls-14" d="M153.42,82.11c-1.08,0-2.13.63-3.24.18-.35-.14-.76-.05-.85.26-.86,3.25-3.5,2.4-5.71,2.5-.54,0-1.41-.49-1.44.32s1,1.2,1.64,1c1.38-.46,2,.63,2.94,1.12s.43,1.07.14,1.49-1,.71-1.38-.09-1.89-.37-2.22-1.63c-.06-.22-1.07.6-.86,1.25s.09.78-.52,1.06-.67,0-.91-.45c-.47-.86-1.57-.74-2.32-1.53.35,2.22,1.06,4.16.13,6.23l-2.54-.92c1-.12,1.41-1,1.8-1.68a.94.94,0,0,0-.44-1.2c-.94-.4-.35.56-.45.62a2.46,2.46,0,0,1-2.39-.2,4,4,0,0,0-2-.84c-.49-.07-1.16,0-1.32-.62s.42-1,.93-1.39c-.59.13-.8.68-1.22,1-.64.45-1.27.83-1.88,0a1.34,1.34,0,0,1,.15-2c.79-.61,1.42-1.35,2.15-2,.39-.36.83-1,1.42-.11.25.36.73.22,1.05-.06a.7.7,0,0,0,.16-.74c-.21-.57-.68-.17-1-.2-1.66-.09-3.47-.57-4.39,1.52a.79.79,0,0,1-.48.28c-.68-1.54-2.31-.86-3.35-1.48a1.28,1.28,0,0,1-.41-1.44,1.37,1.37,0,0,1,1.32-1c1,.1,1.41-.46,1.81-1.22.59-1.11,1.24-2.19,1.77-3.33a1.62,1.62,0,0,1,1.89-1.06c2-.14,4-.11,5.69-1.39,1.07-.7,1.57-1.92,2.48-2.76a1.43,1.43,0,0,1,1.56.52l.8.39a1.15,1.15,0,0,1,1.42.75c.34,2.64-2,3.54-3.14,5a8.68,8.68,0,0,1,7.45,1.16,3.46,3.46,0,0,0,3.71.58,2.43,2.43,0,0,1,2.26.36c.54.3,1.44.43,1.3,1.23S153.84,81.62,153.42,82.11Z"/><path class="cls-15" d="M40.1,132c-1.56.11-1.76,1.93-3.05,2.42-.62.24.11.62.1.95,0,.48.2.52.6.4.58-.17,1.39-.66,1.62.23s-.53,1.18-1.24,1.53a8,8,0,0,1-1.92.82c-.5.1-1,.5-.59,1.15s.61,0,.91-.26a.56.56,0,0,1,.86.12c.09.16,0,.49-.16.71a1.2,1.2,0,0,1-1.53.57c-1.76-.54-3.55-.07-5.31-.23-.51,0-.92,0-1.18.44a.55.55,0,0,0,.13.71c.39.38.75.18,1.22.06,2-.48,4,.62,6.09,0-1.24,1.37-3.25,1-4.47,2.27a.7.7,0,0,1-.76.17c-1.44-1-2.38-1-3,.08-2,.68-4,1.73-6.27.9a14,14,0,0,0-.32-1.54,1.59,1.59,0,0,1,.44-1.19.3.3,0,0,0,0-.3c.37-.65,0-1.41.3-2.06.15-1.33.29-2.66.43-4-.46-.77-.06-1.37.38-2,.4-1.59.81-3.17,1.21-4.76-.47-.78-.07-1.38.4-2,.67-1.86,1.38-3.72,2-5.6a3.23,3.23,0,0,1,.82-1.48c2-.79,2.95-.31,3.56,1.63a6.44,6.44,0,0,1,.05,4.88c-.57,1.23,0,2.6-.38,3.89-.24.81.5.62.88.59a6.84,6.84,0,0,1,2.74-.08C36.44,131.7,38.41,131.07,40.1,132Z"/><path class="cls-16" d="M70.61,73.93c.78-.48,1.78-.56,2.43-1.3a16,16,0,0,1,6-2.34c.57.19,1-.28,1.48-.35.64.25,1.29-.29,1.93,0,2.08.9,3.8.18,5.37-1.19a2.45,2.45,0,0,1,.74-.45,2.48,2.48,0,0,1,2.7.75c.69.85,1.31,1.83,2.67,1.46a1,1,0,0,1,.52,0,2.13,2.13,0,0,1,1.35,1.09c.33.78.65.81,1.36.38a.94.94,0,0,1,1.44.57c.13,1.57,1.27,1.35,2.24,1.52.72.13,1.66-.17,1.94.9a1.37,1.37,0,0,1-1.13.8,13.78,13.78,0,0,0-1.75,0c.27.12.75-.13,1.15.14a1.66,1.66,0,0,1,.64.88c.26.72-.37,1.54.27,2.2.18.17.38.32.57.47.41.31.89.53,1.13,1a1.14,1.14,0,0,1,0,.52.71.71,0,0,1-.38.4.66.66,0,0,1-.66-.1c.14.21.47.2.54.48-.32.84-1.09.67-1.63.53-1.3-.34-1.68.36-1.9,1.39a1.26,1.26,0,0,1-.65.53c-2.47.48-4.93.07-7.38-.11-.36-1.12.83-2.09,0-3.44-.59-1-.94-1.43-2.12-1.4s-2.78-.21-3.4-1.55a3.65,3.65,0,0,1,.62-4,6.84,6.84,0,0,1-2.59.2,1.23,1.23,0,0,0-1.5.91c-.36.92-.73,1.89-2,1.84,0,0,.15.08.21.16.43.57.17,1-.31,1.32-1.26.21-1.85-1.47-3.17-1.13-.28-.25-.52-.67-1-.52-1.94.64-3.47-.88-5.29-1C70.24,75.53,69.75,74.82,70.61,73.93Z"/><path class="cls-17" d="M36.12,103.9c.56-.91,1.13-1.82,1.7-2.73a4.84,4.84,0,0,1,2-2.76l.69-.82c.07-.41.39-.58.73-.71a4.45,4.45,0,0,1,4-1.28c.25.05,0,.13.18,0,2-1.77,4.28-.08,6.39-.41a3.28,3.28,0,0,0,3-.44c2.65-1.37,5.84-.22,6.29,2.25-.44.71-1.08.61-1.69.43,2.4,1.06,2.62,1.79,1,3.47,0,1.4-.56,2.41-2.08,2.63a3.79,3.79,0,0,1-1.61.46c-1.53.1-2.44-.21-2.38-2.15.07-2.37-1.34-3.54-4.28-4.17-.26-.08-.13.37-.12.11,0,0,.07-.06.19,0,2.51.76,3,1.89,1.95,4.16,2.41.79,2.82,1.48,1.64,2.78-3-.13-5.63.9-8.36,1.93-2.45.93-5.15,1.68-7.09-1.16C37.79,104.64,36.31,105.19,36.12,103.9Z"/><path class="cls-18" d="M34.55,131.64c-.89-.64-1.77.07-2.66.05-1.39,0-1.18-.26-1.21-1.44a18.72,18.72,0,0,1,1-6.28c-1.54-.61-.62-2.18-1.22-3.17-.7-1.16-1.79-.32-2.66-.6,0-.28.05-.56.08-.83.92-1.61,2.36-2,4.13-1.93,3.2.15,6.36-.49,9.54-.73.81.7,2.42,1.12,2.13,2.27s-1.94.66-2.91.69c-1.18,0-2,.94-2.87.92,1.17-.67,2.78-.41,4.23-.93.65-.23,1.17.17,1.66.42a8.33,8.33,0,0,0,4.74.83c1.19-.12,2.5-.41,3.6.46a1.87,1.87,0,0,0,2,1.46,1.53,1.53,0,0,1,1.4.53c-.16,1.06-1.06.77-1.67.83-1.19.13-1.09.69-.65,1.47a1.28,1.28,0,0,1-.37.4c-1.76.75-2,.62-3.07-1.69-.89-1.92-1.58-2-3.07-.31.59,0,1.24-.07,1.4.66a1.17,1.17,0,0,1-.84,1.41c-2.42.56-3.71,2.2-4.74,4.31-.53,1.07-2,.58-2.65-.92a4.47,4.47,0,0,0-2.74-2.81c-.86-.33-1.16-.23-1.51.48-.46.94-.88,1.92-2.1,2.25,1.15,0,2.47-.18,2.61,1.36C36.3,132,35,131.1,34.55,131.64Z"/><path class="cls-19" d="M36.12,103.9a6.36,6.36,0,0,1,3.71,2.38c1.11,1.39,2.83.3,4.27.27a5.2,5.2,0,0,0,2.2-.8A13.3,13.3,0,0,1,54,104.32c.26.21.7,0,.89.41.13.58-.61,1-.32,1.6s.78,1.08.12,1.57-1-.13-1.29-.52c-.82-1-1.63.66-2.55,0-.16-.1-.83,1-.38,1.79a1.44,1.44,0,0,1,.2.48c-.07,1.08.68.19,1,.38.74.41,1.71,0,2.47.51.82,1.18-.29,1.23-.9,1.58a9.31,9.31,0,0,1-2.68.53c-1.33-.08-2.39,0-2.92,1.55-.29.84-1.24,1-2.09,1.26-2,.53-4,.12-6,.24a7.27,7.27,0,0,1-1.86-.34,1,1,0,0,1-.58-1.68c-.39,1.45-1.45,1.62-2.9,1.18a4.52,4.52,0,0,0-2.69.12c-.37.12-1.16.67-1.32-.37.31-1.6,1.49-2.84,1.93-4.39a9.8,9.8,0,0,1,2.78-4.74Z"/><path class="cls-20" d="M49.61,198.61a5.33,5.33,0,0,1,4,.8c1.87,1,4.16.86,6.31.78a.38.38,0,0,1,0,.49c-.17.12-.38.08-.55.13s.09.08.14.13c.91.86,1.34,1.79-.18,2.35-1.35.5-.64,1.65-1,2.45-2.26.62-1.28,3-2.35,4.3-.07.08,0,.26,0,.38a28.45,28.45,0,0,1-5.12,5.22c-.63.46-.92,0-1.19-.45a79.8,79.8,0,0,0-6.31-6.3.34.34,0,0,1-.15-.43A4.68,4.68,0,0,0,44.39,206a23.74,23.74,0,0,0,1.31-3,2.06,2.06,0,0,1,.21-.48,3.15,3.15,0,0,1,.38-.35c.47-.29.52-.86.82-1.27C47.94,200.13,48.83,199.42,49.61,198.61Z"/><path class="cls-21" d="M186.71,185.14a4.64,4.64,0,0,1-4.4-1,34.76,34.76,0,0,0-5.87-3.66c-.51-.23-1.2.11-1.62-.48a2.18,2.18,0,0,1-.76-1.13c-.25-1.42-.14-3-1.64-3.86a1,1,0,0,1,.09-.16c.07-.09.19-.09.33,0,2.6-1,4.25-.07,4.62,2.68a1.3,1.3,0,0,0,.79,1c.49.22.57-.37.79-.66l.73-.9s.12,0,.37,0c-.29,1,.31,1.75.68,2.57.55,1.21,1.6.5,2.16.19.83-.46-.23-.72-.36-1.1-.21-.64-1.19-1-.75-1.84s1.2,0,1.76-.21c-.25-1-.91-1.81-.72-3,.29-1.71,1.08-2.22,2.74-1.9.57.11,1.24-.35,2.07-.61-1.12-.56-2.06-1-3-1.54,3.87-1.15,3.87-1.15,7.09-.69,0,.38,0,.76,0,1.14a6.53,6.53,0,0,1-1.42,5.19c-.13.67-.61,1.26-.44,2a4.25,4.25,0,0,1-1.54,4A18.49,18.49,0,0,1,186.71,185.14Z"/><path class="cls-22" d="M165.32,215.27a2.38,2.38,0,0,0-1.22,1.12c-.47.76-.73,1.79-2,1.66l0-.16c-1-.63-1.73-1.79-3.23-1.31a.93.93,0,0,1-1.19-1c.09-1.79-.93-1.47-2-1.16-1.33.13-2.42-.31-2.73-1.66-.13-.61-.45-.44-.74-.56a1.63,1.63,0,0,1-1.11-1.48c0-.77.5-1.1,1.14-1.42,1-.49.85-1.79,1.55-2.56.15-.15-.37-.45-.65-.61-.57-.33-1.35-.59-1.06-1.41s1.06-.63,1.71-.64a5.18,5.18,0,0,1,.78.09c1.48.17,2.81-.6,4.26-.68a3.52,3.52,0,0,1,2.11.17c1.6.92,3.65,1.92,4.23,3.38.9,2.3,2.77,2.79,4.44,3.82-.68.77-1.35,1.54-2,2.32C167.11,214.15,166.72,215.29,165.32,215.27Z"/><path class="cls-23" d="M101.52,77a.81.81,0,0,1-.4-.79c-.25-.46.18-.57.4-.79l1.18-.4c.13-.74.91-.36,1.25-.72-.79-.53-.31-1.81-1.63-2.2-1.8-.54-1.77-.93-.57-2.83-1.15,0-2.33.34-3.29-.54a14.5,14.5,0,0,1,1.4,1.43,1.55,1.55,0,0,1,.22,1.84c-.4.6-1,.21-1.42,0a5.18,5.18,0,0,0-1.75-.1c-.65,0-1.3-.36-.85-1.12s-.32-1-.6-1.38-.82-.3-1.24-.15c-.06,0,.4.31.34.66a.91.91,0,0,1-.57.73c-1.33.56-1.85-.79-2.78-1.18a3.3,3.3,0,0,0-2.77-.8c-.16.08-.35.12-.41-.08-.12-.36.13-.52.4-.65l.42-.41a1.75,1.75,0,0,1,2-.32L94,66.64c.59-.43,1.47.16,2-.56a1.61,1.61,0,0,1,.88-.23,5.07,5.07,0,0,0,1.77.22c3.08-.3,6.18-.17,9.27-.19.94,0,1.9.23,1.71,1.36s.32,1.29,1,1.54c1.11.38,1.34,1.61,2.05,2.21,1.23,1.05.18,1.74.07,2.58a6.94,6.94,0,0,0,0,.79c-.42.77-1.71.57-1.85,1.65a1,1,0,0,1-.35.32c.45,1.47-.2,2.9-1,2.47-1.08-.63-2.12.21-3-.44a2,2,0,0,1-.72-1.1c-.22-.78-.7.13-1-.15.25.28.54.53.5,1-.05,1,.35,2.09-.79,2.74a1.05,1.05,0,0,1-1.08.11v-.39c-.13-.66-.81-.5-1.19-.79-.13-.14-.27-.27-.4-.4C101.35,78.62,102.36,77.64,101.52,77Z"/><path class="cls-24" d="M54.42,83.72l3.21-2c2.06-.86,4.17-.15,6.25-.18.62,0,1.06.48,1.58.76s1.05.45.91,1.11-.75.63-1.43.68c1.5,1.55,3.29,2.64,4.59,4.24A19.65,19.65,0,0,0,70,92a.75.75,0,0,1-.55,1.06c-.22.07-.46-.14-.65.08a1.62,1.62,0,0,1,.38.09c.18,0,.34.51.57,0a2,2,0,0,0,.3-1.48c-.13-.51.24-.67.71-.59a2.45,2.45,0,0,1,.51.26c.93.62.61,1.48.46,2.32a11.34,11.34,0,0,1-2.9,4.14c-1.52.79-2.47,2.55-4.41,2.64-.43-.26-.3-.62-.2-1s.21-.5.29-.75c.07-.44,0-1.11.41-1.23,2-.54.6-1.82.61-2.73s-.68-.21-1-.3c-1-.25-2.47.36-2.64-1.43a1,1,0,0,1,.93-.22c.84.29.94,0,.81-.79s1-1,1.3-2.12c-2.26,1.54-4.29-.27-6.39.43a2,2,0,0,1-2.14-1.12c-.81-1.68-2.31-1.54-3.67-1.79-.66-.13-1.37,0-1.37-1a.79.79,0,0,1,.3-.45l.77-.76C52.77,84.42,53.65,84.14,54.42,83.72Z"/><path class="cls-25" d="M69.42,88.45A39.11,39.11,0,0,1,64.1,84c.68-.5,1.47.08,2-.65-1.57-1.66-3.84-1-5.7-1.63-.62-.22-1.76.86-2.75.06,1.12-1.47,2.92-2,4.29-3.13.76-1.37,2.19-1.69,3.48-2.25a2.5,2.5,0,0,1,1.93.83c.29.42.76.83.48,1.42s-.9.36-1.42.3c.78.45,1.29.49,1.9-.41.89-1.33,1.17-1.1,2.32.08s2.1,2.63,3.77,3.2c.82.29.82.75.25,1.31-.91.4-1.41,1.35-2.4,1.69a1.34,1.34,0,0,0-.72,1.32c0,.57-.37,1.37.1,1.66s.82-.18.55-.76c-.11-.23-.37-.38-.47-.63a.9.9,0,0,1,.46-1.17c.71-.43,1.72-.33,2,.21.71,1.43,2,2.6,2,4.35,0,.18-.19.33-.34.47-1.64.34-3.1,1.3-4.81,1.4C70.18,90.72,70.58,89.2,69.42,88.45Z"/><path class="cls-26" d="M112.61,74.58c-1-1-.72-1.82.49-2.46-.39-.62-2,0-1.31-1.71.37-1-1.5-1.14-2.34-1.58-.54-.29-1-.25-.58-.92,1.09-1.63-.11-1.61-1.16-1.63-3,0-6,0-9-.06-.07-.17,0-.27.16-.32l.72-.05a1.68,1.68,0,0,1,1.41-.39,86,86,0,0,0,13.81,0,1.72,1.72,0,0,1,1.42.42l.69,0c.65.38,1.42-.06,2.07.33.54.09,1,.54,1.6.39.69-.45,1.35-.6,1.93.18l.44.19a3.58,3.58,0,0,1,3.57.42c.13.27.08.59-.2.62-1.88.22-3.23,1.56-4.86,2.29a1.8,1.8,0,0,1-.5.08c-.26,0-.6,0-.36.42.84,1.8.84,1.8-1.9,2a2.41,2.41,0,0,1-.89-.37c-1.53-1-1.56-.12-1.35,1.07a2.53,2.53,0,0,1,.09.55c-.08,1.42-1.18,1.47-2.2,1.62a2,2,0,0,1-.54-.11C113.3,75.37,112.78,75.18,112.61,74.58Z"/><path class="cls-27" d="M51.58,86.45c.07.4.18.85.72.63,1.65-.68,2.74.87,4.18,1,.26,0-.32.72.45,1.21,1.11.69,2.15.42,3.2.45a3.1,3.1,0,0,1,2,.4c1.22.86,1.75-.68,2.86-1.13-.27.91,1.24,1.9-.68,2.51-.93.29,0,1.22.08,1.87-.9.48-1.65-.41-2.49-.22-.94,1.17-2.17.89-3.39.68a5,5,0,0,0-3.73,1.3c-.77,1.24-1.81.59-2.78.39-1.27-.53-2.89.35-4-1.07-.35-.46-1-.73-.82-1.43s.64-.94,1.25-1.11a22.27,22.27,0,0,1,5-1.19,4,4,0,0,0-5-.24c-.31.19-.8.18-.78-.46l2-2.37C50.13,87,50.62,86.37,51.58,86.45Z"/><path class="cls-28" d="M153.42,82.11c.25-.51.84-.27,1.34-.63-1.47-.66-2.59-1.79-4.4-.5-.54.38-2.32-.39-3.13-1.09-2.06-1.78-4.33-1.58-6.68-1.2-.63.1-1.22.44-2,0,2.17-1.3,4.08-2.73,4.6-5.31a.47.47,0,0,1,.76.1l4.38,2.25a1.74,1.74,0,0,1,1.95.94l.76.42a2.34,2.34,0,0,1,2,1.16c.36.63,1,.8,1.6,1.16A2.71,2.71,0,0,1,157,81l1.59,1.19c.64-.1.93.32,1.18.8l2.38,2a.21.21,0,0,1,.13.21c0,.09-.05.13-.08.13-2.67-.6-5.36-1.13-7.7-2.68A7.68,7.68,0,0,0,153.42,82.11Z"/><path class="cls-29" d="M74.57,82.9c0-.12.08-.25.11-.37-1.82.07-2.08-2-3.5-2.54-.57-.22-1.32-.38-1.09-1.34a.61.61,0,0,0-.53-.72c-.39-.09-.58.27-.77.51-1.33,1.66-1.67,1.68-3.57,0,.78-.48,1.45.05,2.15.24.16-1.47-1-1.7-1.91-2.07a.83.83,0,0,1,.82-.83l4.33-1.9c-.07.48-.35,1.27.42,1.2,1.82-.18,3.29,1.86,5.21.77.23.51,2-.57,1.13,1.07,1,.58,2.06,1.15,1.46,2.64a2.45,2.45,0,0,1-.62,1.52C76.86,82.49,76.86,82.49,74.57,82.9Z"/><path class="cls-30" d="M118.56,72.6c.72.13,1.31-1.18,2.08,0,.34-1-.66-1.29-.51-2,0-.73.34-.65.8-.4h0c1.84,1,2.86-.88,4.31-1.26.38-.1.88-.79,1.15-.38,1.22,1.94,2.44.27,3.66.12a4.16,4.16,0,0,1,2.39.69c.44.82-.12,1.17-.72,1.14-1.79-.09-2.81,1.06-3.91,2.15a1.92,1.92,0,0,1-1.47.45c-3.07-.59-5.26,1-7.42,2.8-.45.38-1,.48-1.52.86.81.22,1.14.68.79,1.48a3.15,3.15,0,0,1-3.71,1.5,6.83,6.83,0,0,0-1.46-.51c-1.1-.46-1.14-.77-.4-2-.94-.11-.2,1.49-1.29,1.29-.73-.65-.57-1.56-.7-2.38a2.93,2.93,0,0,1,3.17-.79h0a1.84,1.84,0,0,0,2.29.07,1,1,0,0,0,.08-1.65h0C116.44,72.54,116.77,72.37,118.56,72.6Z"/><path class="cls-31" d="M40.91,205.67l-1.14-1.15a4.48,4.48,0,0,1-2-2.71c0-1.6-.53-3.25.87-4.69A5.69,5.69,0,0,1,41.69,195h0c2.11-.65,3.55.14,3.93,2.16.52,2.83.53,2.85-2,4.24a1.87,1.87,0,0,0-1.22,2C42.1,204.31,42.23,205.48,40.91,205.67Z"/><path class="cls-32" d="M117,236.67c-1.69,0-3.38,0-5.06,0-.58,0-1.58.36-1.6-.58s-.57-2.25.77-2.75a2.87,2.87,0,0,0,1.71-1.68c.53-1.13,1.62-1.19,3.66-.39a3.46,3.46,0,0,0-2.74,3.4c2.45.36,3.85-2.9,6.17-1.84.76-.85-1.55-1.42.2-2.08-.08,1.4,1.85.79,2,2-.18.74-.43,1.42.73,1.67.71.16,1,.78.46,1.49-.14.13-.27.27-.4.4l-4,.46A2.76,2.76,0,0,1,117,236.67Z"/><path class="cls-33" d="M169.68,210.89c-1.66.4-2.66-1.39-4.25-1.27a.36.36,0,0,1-.31-.56c1.18-1.78-.53-2-1.41-2.73-.1-.08-.27-.1-.34-.19-2.17-2.82-4.87-2.47-7.71-1.33a.81.81,0,0,1-1-.26.63.63,0,0,0-.51-.2c-1.68.08-2.67-.52-2.34-2.4a3.51,3.51,0,0,1,4.3,0c.23.14.28.7.7.43,1.76-1.14,3.26,0,4.82.53a2.4,2.4,0,0,1,.46.21c.37.26.58.78,1.15.74a2.94,2.94,0,0,1,.51,0c1.72.44,3.21,1.85,5.2,1.13a.73.73,0,0,1,.89.59.88.88,0,0,1-.68,1,9.68,9.68,0,0,1-1.94.51c.36.41,1.06.59.9,1.16s-.81,1,.33.52a3.64,3.64,0,0,1,3.22-.05c.19,1.25-.6,1.72-1.59,2Z"/><path class="cls-34" d="M171.54,208.9c-1,.11-2.08-.24-3,.5-.72.56-1.13-.3-1.64-.63l1-.48c-.2-.84-1.43-.38-1.6-1.39.86-.2,1.74-.45,2.64-.6.38-.06.69-.15.67-.52a.52.52,0,0,0-.76-.4c-2.15,1-3.64-.74-5.42-1.23a2.92,2.92,0,0,0,1.37-2.84,1,1,0,0,1,.25-.73c.43-.48,5,0,5.25.61a1,1,0,0,1-.49,1.34c-.58.42-1.39.43-2.09,1.12a3,3,0,0,0,2.66-.12,1.84,1.84,0,0,1,1.86.07c.46.25.9.54.68,1.16-.3.86.22,1.28.82,1.68.18.45,0,.69-.43.83l-.79.8C172.17,208.39,172.11,208.92,171.54,208.9Z"/><path class="cls-35" d="M30.21,114.62c1.4.22,2.73-.74,4.17-.22,1.19.44,2.26.49,2.5-1.18,0,0,.88-.08,1,.13.38.45,0,.5-.45.61-.7.17-.1.62,0,.89s.33.54.76.33.5-.21.72.25a.22.22,0,0,0,.17.07c.06,0,.11-.07.16-.1,1.26-.18,1.89.6,2.38,1.58a23.53,23.53,0,0,1-6.91.87c-1.48-.08-2.9.53-4.38.07-1.29-.4-1.23,1.68-2.48,1.45l.42-1.14a2.07,2.07,0,0,1,.71-2C29.44,115.68,29.82,115.15,30.21,114.62Z"/><path class="cls-36" d="M47.66,90.08c1.15.68,1.49-.82,2.51-.92,1.58-.16,2.65,1,4.07,1.07.24,0,.36.37.25.65s-.22.6-.67.55a7.82,7.82,0,0,0-4.5.88c-.62.32-2-.13-1.69,1a2.58,2.58,0,0,0,2.12,1.83c.75.12,1.59-.29,2.24.4-1.3-.16-2.76.7-3.88-.64a.75.75,0,0,0-.7.1c-1.07,1.34-2.39,1.12-3.83.82-1-.21-1.1,1.59-2.29,1.32-.23-.29-.24-.55.11-.76l1.1-1.17c.43-.78.66-1.72,1.69-2Z"/><path class="cls-37" d="M33.37,146.7c.71,1.12-.28,1.27-.92,1.65-1,.58-1.4,1.21.24,2l-2.47.71c.49-1,.34-1.57-.46-2.08s-1.25-.86-1.79.23c-.19.39-.76,0-1.07-.11-1.91-.9-3.08-.06-3.78,1.65-.32.8-.69.58-1.18.34l0-4.29a.92.92,0,0,1,.39-.39,34.88,34.88,0,0,1,7.53-.65A5.68,5.68,0,0,1,33.37,146.7Z"/><path class="cls-38" d="M173.62,206.53c-1.31.29-1.48-.47-1.5-1.52,0-.26,1.14-.72-.08-.86a1.28,1.28,0,0,1,.06-1.62c1.54-2.3,3.84-3.84,5.74-5.78a1.08,1.08,0,0,1,.94-.13h2l-.43,1.11a3.57,3.57,0,0,1-1.59,2.38c-.64.35-.85,1-1.18,1.6s-.25,1-.8,1.17a8.62,8.62,0,0,0-2,2.41C174.43,205.73,174.71,206.78,173.62,206.53Z"/><path class="cls-18" d="M26.23,157c0,.53,0,1.06,0,1.59a5.77,5.77,0,0,0,.22,2.77,1.87,1.87,0,0,1-1.74,2.78c-.47,0-1.09.14-1,.64.09.87.74.29,1.18.29,1.87,0,2.58,1.05,1.51,2.55-.76,1.08-.57,2.9-2.38,3.19l-.19.08a5.23,5.23,0,0,1-.77-4c.27-1-.67-1.8-.36-2.78A1.35,1.35,0,0,1,22.3,163a4,4,0,0,0,.19-1.45c.49-1.43,2.42-1.59,2.8-3.13a5.57,5.57,0,0,1,.26-1.07C25.71,157.09,25.89,156.89,26.23,157Z"/><path class="cls-39" d="M155.8,214.06a3,3,0,0,1,1.7-.4c.72,0,1.16.1.69,1s.12,1.73,1.11,1.44c1.73-.49,2.29.55,2.86,1.75l-.83.87a11,11,0,0,1-5.61,4c-.48-.78.44-1.73-.5-2.59-.46-.42.39-1.21.95-1.65.23-.13.6-.43.53-.49C155.43,216.92,156.25,215.34,155.8,214.06Z"/><path class="cls-40" d="M156.59,218.81c-.55.6-2.11.9-.45,2.1.58.42-.4,1.12-.35,1.75a3.64,3.64,0,0,1-2.81,2,5.51,5.51,0,0,0-2,1.18,2.36,2.36,0,0,1-2,1.17l-.73.11c.18-.79-.47-1.32-.69-2,.51-.34,1.19-.13,1.61-.85a2.48,2.48,0,0,1,3.15-1.4,1.78,1.78,0,0,0,2-.77c.27-.42.8-.65.57-1.24s-.76-.26-1.2-.27c-1.06,0-2.18,0-2.47-1.43,1.66-1,3.72,0,5.35-1.11A.55.55,0,0,1,156.59,218.81Z"/><path class="cls-41" d="M123.31,235.84c0-.65-.1-1.13-.91-1.21a2.41,2.41,0,0,1-1.8-1c.37-.66,1.4,0,1.52-.92,1.57.33,3,.87,4.7-.07,1.28-.73,2.83.54,4.32.09a3.94,3.94,0,0,1,3.29.39c-1.2.86-2.75.79-4,1.48a3.82,3.82,0,0,1-3.54.88Z"/><path class="cls-42" d="M26.23,157l-.44.46c-2.35,1.18-3.43.61-3.89-2.07,0-.93,0-1.85,0-2.78.88.09,1.87-.18,2.41.89a.8.8,0,0,0,.62.4c.67-.05,1.44-1,1.92.21A2.7,2.7,0,0,1,26.23,157Z"/><path class="cls-43" d="M127.67,72.6c.72-1.45,1.56-2.75,3.5-2.44.65.1,1.18.06,1.26-.76a.73.73,0,0,0,.39,0c.68-.45,1.17-.18,1.58.4l.8.44c.9.65.27,1.08-.25,1.46-1.16.86-1.34,1.13-1.3,2.2a1.78,1.78,0,0,1-1.32.09c-.89.07-1.76-.7-2.67,0a.73.73,0,0,1-.92-.23C128.55,73.17,128,73,127.67,72.6Z"/><path class="cls-44" d="M133.61,73.79a1.41,1.41,0,0,0-.48-1c-.75-.69-.54-1,.43-1s1.83-.21,1.64-1.51l1.12.14c.47-.07,1-.23,1.2.41a2.49,2.49,0,0,0,1.65.61c.35-.07.48.08.39.42-.43,1.25-.83,2.51-2.38,2.79s-1.24-1.09-1.93-1.69c-.42.41,0,1.44-1,1.51C133.89,74.44,133.49,74.37,133.61,73.79Z"/><path class="cls-45" d="M130.05,68.71c-2.35,2-2.69,2.05-4-.06-.44,1.77-2.3,1.32-3.28,2.4-.72.79-1.37-.13-1.8-.82,1.69-1.17,3.23-2.7,5.56-2.39.11-.18.23-.2.38-.06Z"/><path class="cls-46" d="M41.69,195c-1.85.71-2.64,2.42-3.67,3.9-.19.28-.39.79-.17.88,1.34.55.22,1.34.25,2-.42.12-.62-.08-.69-.47L36.16,199c.27-.47,1.7-.37.7-1.46a7.25,7.25,0,0,1,1.87-1.94c.71-.07.71-.07.37-1.23C40,194.64,40.76,195.27,41.69,195Z"/><path class="cls-47" d="M40.91,205.67l1.17-1.92c.05-.13.14-.16.27-.1.21-.16.19.16.1-.08,0,0-.2-.08-.17-.25-.06-1.91,1.59-2.49,2.78-2.76,1.71-.4.91,1.18,1,2V203c-1.18.76-1.79,2.1-3,2.85-.1.14-.2.28-.31.41a3,3,0,0,1-.65.8.29.29,0,0,1-.41-.16C41.44,206.47,41.18,206.07,40.91,205.67Z"/><path class="cls-48" d="M21.9,155.39c.39,2.39,2.08,2.35,3.89,2.07l0,1.1c-1,.84-1.84,2.14-3.47,1.25l-.12,0c-.49-.73-.91-1.48-.35-2.37C21.89,156.73,21.89,156.06,21.9,155.39Z"/><path class="cls-49" d="M82.5,70.23c-.66-.09-1.37.22-2-.29a5.08,5.08,0,0,0,2-.84,1.73,1.73,0,0,1,1.6-.4l1.17,0c0,.1.08.21.11.31C84.9,70.63,84.41,70.85,82.5,70.23Z"/><path class="cls-50" d="M22.35,159.81c1.35.12,2.35-.74,3.47-1.25-.48,1.58-2,2-3.16,2.8-.23-.07-.26-.29-.37-.44Z"/><path class="cls-21" d="M192.19,167.3c-1,0-1.86.89-3.12.13,1.2-.38,2-1.2,3.12-1.31Z"/><path class="cls-49" d="M88.43,67.91c-.05.25-.43.49,0,.73l-.39.4c-.94.07-1.93.54-2.75-.34l0,0a1.15,1.15,0,0,0,0-.26c.4-.66,1-.57,1.6-.41Z"/><path class="cls-2" d="M27,178c-.42-.25-.6-.88-1.23-.78l-.29-.41C26.36,176.76,27.16,176.8,27,178Z"/><path class="cls-51" d="M110.63,161c.72-1,.27-2,0-2.92a4.33,4.33,0,0,1,.28-3.83,3,3,0,0,0,.48-2.05c0-.42-.38-1-.56-.92-1.93,1.21-2.93-1.82-4.78-1a1.36,1.36,0,0,1-1.28-.23c-1-1.28-2.36-1-3.61-1.44-2.14-.69-4.21-.1-6,.31s-3.15-.33-4.71-.19c-1.68-1-3-2.49-4.63-3.55-.78-.5-.79-1.46-1.19-2.18-.14-.33-.3-.65-.46-1a34.42,34.42,0,0,1-2.06-4.5,1.44,1.44,0,0,1-.2-.48c-.15-.89,1.25-1.18.83-2.18-.09-.14-.16-.29-.24-.44a8.18,8.18,0,0,1-.64-1.69,2,2,0,0,1,0-.81,9,9,0,0,1,.46-1.93c.63-1.11,1.81-1.09,2.84-1.4q.28-.09.57-.15A2.78,2.78,0,0,0,88,126.82a1.19,1.19,0,0,1,.46-.62,4.75,4.75,0,0,0,3-4c.16-1.11,1.41-1.41,2.45-1.67,1.26,0,2.33-.93,3.63-.75l2-2.65c0-1.46.92-1.46,1.84-1.1a3.41,3.41,0,0,0,3.84-.64,2.34,2.34,0,0,1,1.27-.51,2.92,2.92,0,0,0,2.55-2.61c.6-2.61.94-2.7,3-1a5.82,5.82,0,0,0,1.48,1,17.47,17.47,0,0,0,1.89.49,3.41,3.41,0,0,1,1.35,1.12c1.3,1.53,3.06,1.64,4.88,1.58,1.51.36,3.1,0,4.6.43,1.14,1.51,1.06,1.74-1.18,2.76,1.85.91,2.54,3.26,4.9,3.32.3,0,.72.56.6.68-1.2,1.25.45,3.14-1.28,4.39a3.52,3.52,0,0,1,2.9,1.71,2.75,2.75,0,0,0,2.21,1.13c1.08.15,1.84.59,1.1,1.83-.46.78-.18,1.2.53,1.57,1.34.69.9,1.55.13,2.37-.4.43-1,.68-1.25,1.24-.79,1.81-1.92,3-4.25,2.13.14,1.85,1.32,3.63-.81,4.79,1.07.63,2,.14,3,.12.61,0,1.26.06,1.51.7s-.44,1-.89,1.31a1.44,1.44,0,0,1-.52.27c-1.66.51-3.35,1-4,2.63,2.11-.17,4.45-.54,6.67.67.9.49,1.4,1.07.53,2s-.27,2.58-1.74,3.37c1.75-.18,2.49.63,2.55,2.15,0,1.11,1.51,1.37,1.48,2.45,0,1.23.38,2.36-.18,3.75a4.21,4.21,0,0,0,1.06,4.06c.42.4.8,1.08.4,1.36-1.5,1.08-2,3.61-4.58,3.16a2.32,2.32,0,0,0-1.48.28,38.08,38.08,0,0,0,4.12.37c.94.13,1.93.37,1.41,1.75-2.93,1.69-8.06.85-10-1.67a1.39,1.39,0,0,0-1.14-.66c-3.57.14-7.06-.82-10.61-.85a17.81,17.81,0,0,0,4.24.56,9.74,9.74,0,0,1,4,1c.54.24,1.14.57.95,1.31s-.89.94-1.58.8c-1.82-.37-3.67-.46-5.49-.73a7.56,7.56,0,0,0-2.37-.11,2.94,2.94,0,0,1-3.64-1.88c-.72-1.6-2-1.59-3.43-.22.59.65,1.22.09,1.82.05,1.43-.08,2,.64,1.4,1.92a2.17,2.17,0,0,0-.31,2c.5,1.14-.22,1.33-1.16,1.42-3.28.3-4.35,1.46-4.37,4.82,0,1.35,0,2.63-1.15,3.61-.49.42-.4,1.08-.49,1.66-.17,1.16,0,2.39-.68,3.45-1,.1-1.12-.7-1.25-1.34a13.8,13.8,0,0,1-.39-2.63c-1.22-2.81-.54-5.86-1-8.76a3,3,0,0,1,.8-2c2.25-3.15,4.6-6.24,6.57-9.56,1.58-2.65,1.37-2.78-1.33-4.07C108.86,161.35,110.39,162.09,110.63,161Z"/><path class="cls-52" d="M103.51,186.72c.83.37.8,1.11.78,1.84a2.45,2.45,0,0,0,.79,2.12,1.18,1.18,0,0,1,.42,1.24c-.38,1.48-.28,2.53,1.4,3.29,1.18.54,2.1,1.41,3.58,1a2.77,2.77,0,0,1,3.14,1.05c.68.94,1.67.91,2.64,1a8.61,8.61,0,0,0,3.78,0,1.79,1.79,0,0,1,1.14.11c.33.23.29.55.2.87-.15.59-.46,1.2.66.77.47-.17.88.23,1,.71a1.23,1.23,0,0,1-.57,1.36c-.84.59-1.28,1.13-.66,2.24.36.66,0,1.4-1,1.57-1.62-1.89-3.53-1.76-5.84-1.44-1.35.19-3.18.89-4.58-.39-.1-.09-.27-.18-.36-.13-2.38,1.25-4.6-.6-7-.44a7.3,7.3,0,0,1-5.34-1.76,7.12,7.12,0,0,0-2.64-2.24c-.69-.39-1.3-.88-1.22-1.62.24-2.13-1.22-2.37-2.71-2.65a4.71,4.71,0,0,1-1.56-1.17c0-.26-.26.3-.07.12s.13-.06.16.11c.14,1-.07,1.94-1.09,2.21a2.9,2.9,0,0,1-3.2-1c-1-1.52-1.58-1.52-2.8-.24s-3,1-4.61,1c-.57,0-.54-.61-.17-1a2.16,2.16,0,0,1,2.29-.17c1.43.11,1.76-.88,2-2,3.1-.29,5.26-3.19,8.55-3.05.74,0,1.35-.78,2.15-.91l1.19-.4c.4.14.52-.28.79-.4.23-.56.09-1.49,1.19-1.19.92.69,1.85.1,2.77,0s1.8.53,2.61-.45C102,185.93,102.78,186.69,103.51,186.72Z"/><path class="cls-5" d="M87.17,166.41c-.82-.32-.51-1.29-.79-1.91-.17-.37.57-1.16,1.3-1.1,1.15.09.5.84.29,1.25C87.68,165.21,88.42,166.19,87.17,166.41Z"/><path class="cls-53" d="M91.21,195c2-.24,2.79.31,3,2.45.15,1.76,2,1.69,2.84,2.82.2.29.41.91.92,1.07,0,1,0,2,1.39,2.39,1,.27.61,2,1.78,2.36-.05.65-1.37,1.12-.27,1.94a3.1,3.1,0,0,1-.7.66c-.4.19-1.16-.14-1,.77.13.69.52,1.06,1.25.9.4-.08.86-.24.82.39,0,.37-.43.4-.79.35-1.4-.18-2.8-.28-4.19-.52a2.08,2.08,0,0,0-1.84.63c2.1-.88,1.1,2.8,3.44,1.28-.9.94-1.66,1.51-2.44.43-.3-.41-.45-.45-.6,0a1.33,1.33,0,0,1-1.67,1c-.9-.26-.94-1.37-.82-1.95.47-2.41-1.68-1.43-2.13-1.34-1.6.3-3.11,1.11-4.28-.78-.22-.35-.51-.4-.68.09a.77.77,0,0,1-1.14.43c-.58-.25-.29-.89-.24-1.24.19-1.3-.16-1.72-1.45-1.21-1,.39-2.27-.14-3.11.88a1.76,1.76,0,0,0-2.09-.69c.88.44,0,3,2.19,1.27a.61.61,0,0,1,.87.18c.09.15,0,.49-.17.69-.64,1.06-3,1.15-3.26,0-.43-1.76-1.49-1.15-3.14-1.22,2.85,1.51.29,2.18.19,3.2,0,.23-.44.16-.68,0a17,17,0,0,0-8.07-2.05c.8-.65,1.41-1.15,2.37-.72.37.16.82.63,1.17,0a1.36,1.36,0,0,0,.23-.91c-.34-.79-.94-.17-1.35-.08-1,.21-2.12-.7-2.89.51-.59-.73-1.67-.38-2.26-1-.29-.29-.14-1.2.28-1.15,1.82.24,3.38-.88,5.08-.85,1.23,0,2.09,1.42,3.44,1.44-.15,1-1.3.7-1.57,1.42,2,.66,3.5.23,4-1.41.25-.86.87-.71,1.31-.87.66-.25,1.45-.19,1.8-1.17a26.76,26.76,0,0,1-10.4-1.71c.28-1.08.28-1.08,2.7-2,1.33-1.6,3.18-1.44,4.89-1.21a17.87,17.87,0,0,0,8.94-.7,25,25,0,0,0,6.63-4.05A2.58,2.58,0,0,1,91.21,195Z"/><path class="cls-54" d="M101.12,206.13c-.63-.23-2.29.72-1.4-1.29.18-.4-.46-.86-1-1-1.71-.38-1.68-1.29-.74-2.47.87.32,1.58,2.22,2.73.21.18-.31.72.34.84.8.24.9.87,1,1.68.9,1.63-.16,3.37-.9,4.7.77,1.48-.92,3,.23,4.2.08,2.16-.29,4.36-.15,6.52-.55.89-.16,1.75,1.17,2.31,2.15.33.19.64.38.35.83a1.65,1.65,0,0,0-.55,1,3.25,3.25,0,0,1,.72-1.19c1-.46,1.43.25,1.86.94,1.32,1.38,2.76,2.37,4.82,1.65a.86.86,0,0,1,1.15.48c.12.26.16.51-.14.67s-.66.79-1.18.42a4.06,4.06,0,0,0-1.45-.51,1.06,1.06,0,0,0-1.35.45c-.36.52,0,.85.32,1.18a2,2,0,0,1-.19,3.19c-1.3-.12-1.4-1.15-1.3-2,.18-1.42-.88-1.4-1.41-1-1.14.82-2.6.35-3.67,1.22a1.34,1.34,0,0,1-1.8-.24c-.71-1.29-1.93-.85-2.85-.9s-2.29.14-2.32-.29c-.08-1.15-.92-1.93-1-2.92a2.51,2.51,0,0,0-2.84-2.43c-1.51.15-3-.54-4.53.1a.52.52,0,0,1-.79-.31C102.08,204.06,101.65,205.9,101.12,206.13Z"/><path class="cls-55" d="M91.21,195a28.1,28.1,0,0,1-5.9,4.37A15,15,0,0,1,75,201.25a10.57,10.57,0,0,0-5.93.52A7.94,7.94,0,0,0,64.26,203c-.45.24-1,.12-.9-.17.65-1.71-.92-1.05-1.46-1.46a.33.33,0,0,1-.49,0c0-2,2-2,3-2.84a4.47,4.47,0,0,1,3.58-.79c1.69.31,2.53-.52,3.38-1.73,1.18-1.69,4.92-2,6.39-.59,1.3.8,4,.18,5.05-1.05.21-.24.34-1.42,1-.57s2.31-.5,2,.53c-.5,1.86.94,1.34,1.57,1.68.46.25,1.32.72,1.55-.3.09-.38,1.45-1.48-.42-1.36a.66.66,0,0,1-.16-.47.49.49,0,0,1,.64-.31C89.78,194,90.74,194.13,91.21,195Z"/><path class="cls-56" d="M61.5,201.37h.4c0,1.47-1.95,2.26-1.46,4a1.52,1.52,0,0,1-2.11.34c-1-1.44-.93-2.5,1-2.93.22-.05.77-.1.56-.58a2.64,2.64,0,0,0-.77-1c-.27-.18-1,.91-1-.24,0-.53.75-.3,1.18-.35a3.9,3.9,0,0,1,.59,0C60.87,200,61.09,200.87,61.5,201.37Z"/><path class="cls-54" d="M115.07,213.27l2,1C116,215.33,116,215.32,115.07,213.27Z"/><path class="cls-57" d="M165.31,134.42a6,6,0,0,0-.81,3,.67.67,0,0,1-.18.69c-.74.66-.76.82-.14,1.06,1.86.7,1.36,1.72.49,2.82-.25.31-.73.55-.78.87-.11.85-1.78,1.49-.21,2.63.83.6-.75,1.74.06,2.71s-.2,1.61-.78,2.25c-.21.23-.8.49-.6.66,1.5,1.24-.59,1.28-.62,2-1.23,1.15-4.39,1.51-5.72.65a1.25,1.25,0,0,1-.67-1.14c0-.51.49-.56.88-.58,1-.06,2-.81,3.06,0-.61-.72-1.32-.37-2-.33-1.13.05-2.48.39-2.89-1.27-.05-.21,0-.36-.29-.07-1,.88-1.79.44-2.33-.65a2.71,2.71,0,0,0-1.16-1c-2.13-1.3-2.16-1.81-.08-3.75-1.47-.48-2.22-1.32-1.41-2.85.08-.15.28-.34-.13-.57-1.53-.88-1.51-.92-.8-2.4-1-.24-2.09.21-3.13,0s-1.7-.61-.67-1.67c.28-.28.71-.67.2-.94-2.1-1.12-1.73-3.38-2.51-5.11-.74-1.51-1.05-3,.38-4.3a1.44,1.44,0,0,0,.34-.7l2.28-4.39c-1.68.7-3.16.07-3.43-1.26-.23-1.17,1.59-.67,2.65-1.37-1.19-.16-2.27-.29-2.21-1.63,0-1.14,1.05-.86,1.75-1.14-.77-.39-2.25.16-2.16-.88.13-1.39,1.75-1.25,3.33-1.77-2.7-.32-3.5-1.67-3-3.83,2.08-.75,3.26.15,2.93,2.23,0,.09-.16.15-.12.24a.5.5,0,0,1,.37-.11,5.26,5.26,0,0,1,2.72,1h.39c1.29.35,2.61.6,3.39,2,.28.49,1,.6,1.59.64s1.37.46,1.2,1c-.41,1.34.58,1.72,1.19,2.5.75.95,1.1,2.21,2.14,3l.39.4c.09.7.06,1.45,1,1.68a2.62,2.62,0,0,1,1.62,1.33,1.23,1.23,0,0,0,.53.57c.95.4,2.08.07,3,.83s-.33,1.91.73,2.81c.89.76.19,2.34.69,3.47A.82.82,0,0,0,165.31,134.42Z"/><path class="cls-58" d="M157.78,122.53c-1.72.31-2.23-1.49-2.36-2.19-.29-1.55-1.07-1-1.88-1a6.29,6.29,0,0,1-1.15-.3c1.13-.41,1.81-.81,1.78-1.74,0-.52-.15-.93-.78-.86-1.56.2-2.37-.66-3.06-1.93-.38-.7-1.74,0-2.06-1.09,2.27-1.18,4.78-2,6.57-4.36.63.28,1.2,1.33,1.65,2.06,1,1.67-1,.89-1.62,1.53.71.86,1.84.62,2.74.93-.21,1-1.6.54-1.6,1.55.61.58,1-.19,1.58-.28-.54,4-.35,4.55,1.78,5.3.39.77.39.76-.23.94A1.79,1.79,0,0,0,157.78,122.53Z"/><path class="cls-58" d="M165.7,133.62c-.51-.67-1.58-1.12-.75-2.28.39-.55-.11-.93-.5-1.31s-1.67-.68-.32-1.82c.58-.5-1-1.17-1.49-1a1.79,1.79,0,0,1-2.49-1.39c-.18-.52-.73-.7-1.29-.78-1.6-.22-1.4-1.07-.69-2.07,1.39-.46,3-1,4.24-.62,1.69.53,3.79-.35,5.11,1.5.38.53.72,1,.45,1.59-.48,1-.2,2.82-.46,3.06C165.94,129.94,166.88,132.15,165.7,133.62Z"/><path class="cls-9" d="M169.67,161.36c.14-.53-.72-1.06,0-1.59.24.61,1.43.21,1.28,1.09C170.85,161.48,170.16,161.33,169.67,161.36Z"/><path class="cls-9" d="M169.94,158.61c.27,0,.6,0,.6.32a.75.75,0,0,1-.68.81c-.41.07-.33-.33-.4-.51C169.29,158.79,169.62,158.67,169.94,158.61Z"/><path class="cls-7" d="M161,121.38c.57-.65,1.07-.36,1.71-.39C162.18,121.58,161.75,121.93,161,121.38Z"/><path class="cls-9" d="M168.67,157.33c-.57.48-1,0-1.38.07.06-.17.11-.47.2-.48A1.15,1.15,0,0,1,168.67,157.33Z"/><path class="cls-59" d="M82.1,132v.79c0,.65,0,1.3.79,1.59h0c.32.55.36,1.1-.26,1.44a1.28,1.28,0,0,0-.76,1.19c-.94.64-1.61,0-2.12-.61s0-1.2.5-1.65c.77-.67,0-.8-.38-1.09a2.85,2.85,0,0,0-3.12-.88,2.19,2.19,0,0,1-2.21-.4c0-.85-1-.64-1.25-1.27,0-.35.34-.53.43-.87-1.24-.36-2.25.37-3.39.62.44.9,1.32,1.22,2,1.77a.89.89,0,0,1,.29,1,1.48,1.48,0,0,1-1.64,0c-1.31-.6-2.08-.1-2.46,1.2-1,1.39-2.12,2.38-4,2.16a2.79,2.79,0,0,0-3,1.77,9.19,9.19,0,0,1-.8,1.56h-.4c-1.1.12-2.58,1.07-2.48-1.39-1,.59-1.85,1.83-2.67.2-.94-1,.58-2.09.1-2.89s-2.12-.12-2.48-1.47a1.8,1.8,0,0,1,1.84-.33,2.19,2.19,0,0,0,2.15-.6,3.25,3.25,0,0,0,1.15-1.71,1.5,1.5,0,0,1,1.84-1.07,20.56,20.56,0,0,0,3.14,0c.67,0,1.48.1,1.79-.95-.93-.42-1.77.39-2.64.16-.54-.15-1-.35-1.08-1s.49-.67.91-.82c1.27-.44,2.64-2.1,2.41-3-.34-1.38-1.53-1.44-2.66-1.52a1.24,1.24,0,0,1-.55-.21c.57-1.81,1.9-2.49,3.86-2.38s4-.27,5.93-.2a14.52,14.52,0,0,0,6.72-1.47c1.09-.48,2.28.66,3.47.93.59.12.22.87,0,1.36-.5,1.23-1.69,1.72-2.61,2.51a7.18,7.18,0,0,0,1.79-1.14c1.17-.92,1.85-.51,2.5.62s0,1.82-1,2.28a6.57,6.57,0,0,1-2.11.44,2.22,2.22,0,0,0-1.84.78c1.43.69,2.8.25,4.12.35,1.07.49,2.36.24,3.34,1-.81.66-2.06.28-2.77,1.19C81.94,130.63,82.49,131.43,82.1,132Z"/><path class="cls-60" d="M61.1,123.72c1.82-.39,3.5.26,3.84,1.45s-.92,1.83-1,3c0,1.43-2,.13-2.78,1.12.61,1,1.53.73,2.25.3a1.34,1.34,0,0,1,1.77,0c.25.21.56.48.32.83A2,2,0,0,1,64,131.61a34.89,34.89,0,0,1-4.34,0c-.82-.08-1.3-.07-1.34.85-1.07.94-2.45-.06-3.61.62.85.27,1.88,0,2.42,1a1.79,1.79,0,0,1-2.43,1,8.1,8.1,0,0,0-1.93-.21h-.39c-.69,0-1.71.79-1.94-.28a1.52,1.52,0,0,1,1.92-1.69c-1.77-1.15-3.49-.13-5.14-.42.4-2.12-1.27-.2-1.54-.69.3.16,1,0,1.15.7-.27.4-.91.79-1.1.61-1.19-1.11-2.77-.45-4.05-1,.37-.66,1.14-.88,1.57-1.47.18-.25.57-.31.56-.73-.06-1.39.18-1.69,1.5-1.3,1,.3,1.81-.12,2.71-.18.43,0,.8-.25.74-.74-.25-2,1.17-1.48,2-1.23a10.44,10.44,0,0,0,4.84.21c.49-.28,1.42-.06,1.26-1.1a1.07,1.07,0,0,1,.24-.46C58.4,124.39,59.52,123.36,61.1,123.72Z"/><path class="cls-61" d="M60.71,140.36c.93-3.48.94-3.36,4.76-3.72a4.62,4.62,0,0,0,2.76-1.83c2.48,1.58,4.84-.07,7.19-.43a16.17,16.17,0,0,0,4.7-1.15c.76.53,1.75.71.37,2-1.75,1.6.81,1.29,1.22,2q.2-.28.39,0h0c.16.11.43.24.42.39-.09,1.79.92,3.08,2,4.36.13.27.26.53.4.79.19.93.59,1.85,0,2.78a8.12,8.12,0,0,0-2.55.22c-.39.14-.59-.2-.59-.57s0-.64.53-.3,1.44.44,1.27-.37,1.36-2.37-.45-2.56c-2.5-.27-4-1.81-5.84-3.19-.9-.68-2.71-.21-4.11-.21-.51,0-1,.21-1.54.24-1.7.09-3,.39-2.79,2.66.06.64-.16,2-1.2,1.93-.59-.06-1.65.4-2.24-1-.3-.69-1.22-2.91-3.26-1.67-.07-1.37,1.26-1.56,1.69-2.49C62,138,61.76,139.76,60.71,140.36Z"/><path class="cls-62" d="M56,126.89c-2.29,1.12-4.51-.19-7-.2,1.19,1.82.38,1.94-1.33,2.33-1.45.34-2.73-.37-4.08,0,1.21,1.07.5,2.18-1.86,3-.53,0-1.06.38-1.59,0l-5.55-.4c.1-.72,1.57.09,1.22-1s-1.17-.86-1.88-.45-1,.16-1.23-.43c-.14-.39,0-1,.41-.94,1.87.37,1.72-1.32,2.35-2.19s.68-1.26,2-.44c1.6,1,2.83,1.84,3.09,3.79.08.56,1.18,0,1.25.8.55-.12.52-.65.76-1,1-1.49,1.34-3.76,3.92-3.55.32,0,.67-.37,1-.59s.67-.54.41-1-.67-.29-.9.1-.48.35-.76.07-.15-.47,0-.81c.47-1.26,1.88-1.23,2.62-2.08.16-.19.6.08.58.32-.08,1,1,1.43,1.12,2.43.16,1.31,1,1.81,2.31,1C53.72,126.41,55.29,125.43,56,126.89Z"/><path class="cls-63" d="M22.22,146.68l.09-1.58,6.3-1.18a2.25,2.25,0,0,1,2.77,0h.8c.06.41.12.73.7.64.79-.13,1.8-.45,2.08.67s-1.11.91-1.59,1.47C29.65,145.69,25.94,146.38,22.22,146.68Z"/><path class="cls-61" d="M55.16,139.17c.58,0,1.34,1.12,1.7-.36.15-.63.91-.54,1.35-.33.91.44.4,1.14,0,1.88h2.14c-1.23.82-3,.27-4.06,1.7-.5.65-.63-.48-.92-.78A1.62,1.62,0,0,1,55.16,139.17Z"/><path class="cls-64" d="M93.76,152a13.58,13.58,0,0,1,2.28-.95,2.06,2.06,0,0,1,2.46,1.46c.23.54.29,1-.3,1.34a2,2,0,0,1-2.63-.58A3.16,3.16,0,0,0,93.76,152Z"/><path class="cls-65" d="M84.88,145.51v-2.78c.91,2.86,4.11,3.57,5.54,6-1.55,0-2.47-1.27-3.62-2C86.18,146.26,85.54,145.87,84.88,145.51Z"/><path class="cls-62" d="M46.84,132.44c-.74-.54-1.64-.29-3.07-.68,1.7-.58,3-1.46,4.12-.78,1.5.9-.56.88-.66,1.45Z"/><path class="cls-2" d="M59.6,147.9c0-.49.16-.74.52-.74A.87.87,0,0,1,61,148a.51.51,0,0,1-.54.63A.85.85,0,0,1,59.6,147.9Z"/><path class="cls-2" d="M38.68,146.62a1.64,1.64,0,0,1,2.06-1.05c.53.11.3.84.18.75C40.11,145.78,39.58,146.71,38.68,146.62Z"/><path class="cls-2" d="M69.22,152.69c.29,0,.5.17.45.48a.42.42,0,0,1-.53.39.62.62,0,0,1-.36-.4C68.72,152.86,68.94,152.72,69.22,152.69Z"/><path class="cls-66" d="M61.5,201.37c-.55-.22-.9-.84-1.59-.79v-.39c.59-1-.11-2.57,1.47-3.09-.36-.7-1.93-.51-1.33-1.38a3.75,3.75,0,0,1,2.72-1.65,4.29,4.29,0,0,0,2.83-.76c.71-.38,1.4-1.21,2.49-.8.61.23.79-.52,1.1-.92.9-1.13,1.56-2.93,3.5-1.36.57-.83,1.48-.72,2.31-.81s2.27,1.28,2,2.2c-.19.53-.11,1.19.2,1.16,1.74-.15,1.72,1.88,3,2.26l-2.38.39c-1.81-1.48-3.57.27-5.37.1-.58-.06-.45.69-.66,1.06-1,1.74-2.61,1.93-4.46,1.77A3.34,3.34,0,0,0,63.63,200C63.2,200.78,61.46,199.74,61.5,201.37Z"/><path class="cls-2" d="M92.8,189.1a2.47,2.47,0,0,1-2.34,1.18,4.89,4.89,0,0,0-3.27,1.2,6.42,6.42,0,0,1-5.09,1.58c-.07-.69,1-1.7-.22-2-2.61-.71-1.21-2.06-.75-3.4.56.15,1,1.73,1.58.13.14-.36.75-.33,1.08-.14,1,.52,1.61,0,2.23-.64.22-.23.51-.53.79-.55.86-.06,2.08-.61,2.43.52.44,1.44-1.21.6-1.71,1.19.38.77,1.38.61,1.87,1.27a1,1,0,0,0,1.69,0A1.15,1.15,0,0,1,92.8,189.1Z"/><path class="cls-46" d="M42.5,203.76h-.42c-.82-1.39.11-2.1,1.1-2.74s2.62-.4,2.36-2c-.55-3.44-1.13-3.92-3.85-4a2.42,2.42,0,0,1,2.88-1,2.71,2.71,0,0,1,1.88,2.88c-.06.59-.05,1.21.78,1.3.6,1.32,1.56.45,2.38.4A3.18,3.18,0,0,1,47.24,201c-.37.47-.06,1.29-.8,1.57h-.39c-.44-.1-1.6.2-.46-.79.3-.26.38-.5.14-.81a.51.51,0,0,0-.69-.13c-1.17.7-2.7,1.08-2.55,2.93Z"/><path class="cls-2" d="M34.56,179.58a3.62,3.62,0,0,0-2.53.66c-.93.74-3.69-.59-5-2.24C29.33,179.51,32,179.08,34.56,179.58Z"/><path class="cls-2" d="M43.18,178.35c.92-.2,1.59-1.63,2.75-.64.26.22.41.51.12.84C45.07,179.69,44.17,178.56,43.18,178.35Z"/><path class="cls-2" d="M38.49,175.51a3.75,3.75,0,0,1-3.45.2C36.24,174.35,37.22,175,38.49,175.51Z"/><path class="cls-2" d="M87.85,183.44c.37.26,1.23-.15,1.17.66-.06.62-.73.64-1.26.62s-.83-.08-.82-.6S87.25,183.29,87.85,183.44Z"/><path class="cls-2" d="M98.74,187.11c-1.58,1-2.11,1-2.77,0C96.89,187.31,97.82,186.73,98.74,187.11Z"/><path class="cls-2" d="M86.64,184.64c-1.09,1.05-1.68,1.47-2.31.34C84.92,184.51,85.54,184.86,86.64,184.64Z"/><path class="cls-2" d="M48.42,181.57,46.31,183c.26-.67.4-1,.53-1.4C47.37,181.71,47.9,180.85,48.42,181.57Z"/><path class="cls-2" d="M38.91,178.79a2.06,2.06,0,0,1-2.37,0C37.33,178.49,38.12,178.17,38.91,178.79Z"/><path class="cls-2" d="M92.56,187.38c.51-.38.86-.76,1.16-.41s-.15.47-.43.51A2.85,2.85,0,0,1,92.56,187.38Z"/><path class="cls-2" d="M94.78,188.3c-.31.28,0,.89-.51,1,0,0-.19-.4-.28-.61A.81.81,0,0,1,94.78,188.3Z"/><path class="cls-67" d="M147.88,113.41c-1.18.25-2.08-.62-3.16-.79-.16,0-.45.1-.3-.38.48-1.53-.57-2.34-2.49-2-1.24.79-1.91-.32-2.77-.83a3.73,3.73,0,0,1-.36-.43,6.29,6.29,0,0,1-2.18-3c-.45-1.49-2.36-2.33-2.79-4.07,0-.15-.34-.15-.54-.15a3.38,3.38,0,0,0-.78,0,2.44,2.44,0,0,1-2.93-1.38c-.38-1.15,1.15-1.35,1.81-2,.77-.44,1-1.7,2.27-1.37.67.85,1.32,1.09,2.29.26a2.7,2.7,0,0,1,3.84.73c.15.24.27.44.56.48,1.05.12,2,.28,1.67,1.77-.08.39.61.36.95.51.51.22,1,.44.55,1.14-.19,1.28.19,2.54-.49,3.9a2.66,2.66,0,0,0,1.63,3.54A4.72,4.72,0,0,1,147.88,113.41Z"/><path class="cls-68" d="M143.52,101.93c-.12-1-.91-.74-1.53-.81s-1.09-.12-1.07-.85c0-.46,1.29-.22.63-1-.41-.5-1-.07-1.5-.13-1.14-.13-1.08-.82-.48-1.79-.8.06-1.35,1.35-2.06,0-.56-1.09-1,.22-1.37.55-1.5,1.26-1.85,1.18-2.53-.67a.47.47,0,0,1,.4-.39c1.27-.11,2-1.22,3.18-1.58a6.19,6.19,0,0,0,4.75.18c1.66-.58,1.78,1.32,2.92,1.23C143.18,98.07,146,100.68,143.52,101.93Z"/><path class="cls-62" d="M142.33,206.93h-.4c-.82-.54.8-1.06.06-1.49-1.54-.89-2.62-3-4.91-2a.92.92,0,0,1-1.09-.07c-.83.16-1.36-.44-2-.79-.29.16-.48,0-.67-.2a3.28,3.28,0,0,1-.2-.31c-.19-.25,0-1.11-.77-.46a1.93,1.93,0,0,1-.78-.21l-.52-.23c-1-.31-1.66-.79-1.16-2a14.77,14.77,0,0,1,3-2.58,3.76,3.76,0,0,1,3.73-.68c2.45,1,5.07,1.29,7.61,1.87a6.82,6.82,0,0,1,3.4,1.43,2.8,2.8,0,0,1,.41,1.29c.25,1.7,0,2-1.77,1.63-1.12-.23-2.17-.42-3,.16,1.76-.12,3.72.15,5.67,0,.77,1.84.56,2.24-1.17,2.23-1,0-2,.35-3.1.38.21.89.89.68,1.29.93a1.54,1.54,0,0,1,.9.78c-.11,1.15-.71,1.48-1.76,1.06C144.44,206.54,143.16,207.51,142.33,206.93Z"/><path class="cls-69" d="M130,199.4c-.3,1.36,1.13,1,1.54,1.64-.75.76-1.83.08-2.7.48.87-.42,2,.57,2.7-.48a3.69,3.69,0,0,1,.84.34c.41.24.79.53,1.19.79l.4.4c.15,1.1-.54,1-1.2.78-1.15-.32-2.28-.7-3.23.46-.25.3-.54.1-.86,0-1.75-.49-2.48.21-2,1.94.12.48.23.9-.19,1.25a1.28,1.28,0,0,1-1.63.05c-.6-.37-1.25-1-1.56.27-.62-.36-1.15-1-2-.79-.13-.27-.27-.53-.4-.79.42-.48,1.12-1,.32-1.6-1.24-1-.57-1.45.4-1.95a4.46,4.46,0,0,0,.91-.71.6.6,0,0,0,.07-.88.51.51,0,0,0-.84-.06,1.58,1.58,0,0,1-1.33.6,4.62,4.62,0,0,1,.87-2.54c.57-1.53,1.93-1.42,3.06-1.16A26.64,26.64,0,0,1,130,199.4Z"/><path class="cls-70" d="M156.59,218.81V218a4.35,4.35,0,0,0-2.75-.82c-.77,0-1.41-.29-.6-1.17.49-.54.29-.74-.32-.87s-1-.74-1.28-1.35-.78-1.25-1.6-.26-1.89.26-2.6-.27a1.39,1.39,0,0,1,0-2.35,1.42,1.42,0,0,0,.44-1.23.64.64,0,0,1,.07-1c1.4-.59,1.42-1.87,1.67-3.06a2.08,2.08,0,0,1,.19-.49,1.63,1.63,0,0,0,.4-1.41c-.39-1.28.31-1.58,1.38-1.58l.26,0c1.28,1.72,1.38,1.8,2.77,2.38a6.94,6.94,0,0,0-.79,0c-.48.06-1.23-.26-1.38.37-.2.8.72.47,1.09.75.8.61,2.38,1.05.26,2.13-1.19.61.12,1.23.33,1.93-.88.19-1.91-.45-2.51.53-.28.47,0,.84.25,1.25.58.89,1.25.1,1.9.05-.6,1.82-.16,2.33,2,2.5a2,2,0,0,0,.34.47c.35.28,1.15-.09,1.12.74s-.9.48-1.28.82C156.51,217,157.59,217.65,156.59,218.81Z"/><path class="cls-71" d="M136,203.36c2.21-1.32,4-.73,5.48,1.23a2.3,2.3,0,0,0,1.94.68c0,1-1.8.41-1.48,1.65a28.73,28.73,0,0,0-3.36-.94C137.11,205.8,136.41,204.67,136,203.36Z"/><path class="cls-71" d="M149.86,205.73c1,2.14-1.37,2.62-2,4a2.16,2.16,0,0,1-2.77-2c.72-.14,1.47-.25,1.59-1.19C147.49,205.24,148.75,205.79,149.86,205.73Z"/><path class="cls-71" d="M142.33,206.93c.92.25,2.18-.66,2.77.79C144.3,207,143.1,207.71,142.33,206.93Z"/><path class="cls-72" d="M142.33,131.25a18.72,18.72,0,0,1,1.1,2.88c.2.9.2,1.69,1.42,1.69.54,0,.75.57.78,1,.08,1-1.29.49-1.52,1.43,1.51,1.11,3.7-.74,5.21,1.08-1.85-.11-1,1.09-1.24,1.89.75.1,1-1.16,1.75-.45s-.16,1-.34,1.47c-.35.88-1,1.75.75,1.86.47,0,.9.59,1.32.88-.35.8-1.37-.05-1.51.68s-1.84,1.87.44,2.38c.5.11,1.57.38,1.73,1.36.08.51.08,1.11.89,1,.63-.09,1.13-.27.95-1.31.54,2.46,2.18,2.47,3.81,2.09,1.07-.25,1.7.38,2.84.78-1.8.88-3.59-.4-5.21.88,2.1,1,4.1,1.41,6.24.21.35.81,2.67.55,1.21,2.48-.3.39,1.33,1.67,1.21,2.92,1.93-.15.62,1.37.81,2s0,1.6.6,2.33-.3.72-.53,1.09c-.67,1.09.08,2.85-1.62,3.54a.71.71,0,0,0,.06.54c1.44,1.21,1.45,2.73,1.39,4.48-.05,1.31,4.14,2.76,6.16,2.32.64-.14,1.25-.53,1.81.13,2.29,1.09,1.09,3.52,2,5.15-.07,0-.15,0-.2,0-1.4,1-2.11-1.4-2.86-.85-1.16.85-1.95,1.18-3,.12a.35.35,0,0,0-.15-.12c-3.55-1.38-5.26-4.33-4.9-8.42a1,1,0,0,0-.36-1c-.87.13-1-.45-1.08-1.1.21-2-1.08-3.46-1.92-5a9,9,0,0,0-3.2-3.37c-1.75-1.07-2.79-3-3.85-4.66a9.62,9.62,0,0,0-6.85-4.55c-1.36-.26-3,.24-4-1.25a3.24,3.24,0,0,1-.16-.53c0-1.29-.84-2.16-1.47-3.13a2.62,2.62,0,0,1-.44-1,1.3,1.3,0,0,1,.21-1.13c1.1-1.13,1.18-2-.33-2.9-.93-.58-.29-1.51.27-2a3.53,3.53,0,0,0,1.12-4.23,5.48,5.48,0,0,1,.32-3.09A1,1,0,0,1,142.33,131.25Z"/><path class="cls-73" d="M130,199.4c-1.66.34-3-.57-4.47-1.12a4.15,4.15,0,0,0-4.24.32h-1.19a8.55,8.55,0,0,1-4,0,2.49,2.49,0,0,1-3.13-1.25c-.67-1.16-2-.79-3.06-.59s-4.95-1.54-5.25-2.53c-.37-1.19.72-2.32.34-3.56-.26-1.5.53-3,.14-4.47a.83.83,0,0,1,.33-.7c1.42-.81,1.31-2,1.37-3.49.21-4.46,1.08-5.15,6.13-5.53-1.28-1-1.5-2-.14-3a.69.69,0,0,0,.23-1,.92.92,0,0,0-1.24-.25c-.84.43-1.67.91-2.55.12a.73.73,0,0,1-.06-1.06,3.34,3.34,0,0,1,2.81-1.18,2.06,2.06,0,0,1,2.06,1.8c.32,1.43,1.09,1.6,2.45,1.44,2.76-.33,5.47.4,8.2.74.56.07,1.27.55,1.46-.31.15-.64-.63-.71-1.09-.91-2.54-1.11-5.3-.72-7.94-1.21-.48-.09-1.25.2-1.31-.51-.08-1,.8-.63,1.32-.67a20.85,20.85,0,0,1,6.1.61c1.45.31,2.9,0,4.33.2.91.11,1.85-.1,2.17,1.51.27,1.41,2.37,1.49,3.52,1.47,1.91,0,3.9.57,5.79-.23a2.56,2.56,0,0,0,.11.24c0,.74-.52,1.28-.64,2,.52.44,1.19.23,1.78.36.9-.08,1.79.09,2.69,0a5.32,5.32,0,0,1,.56-.06c2.42-.39,2.73-.18,2.77,1.79.12.79.55.1.82.16a6.71,6.71,0,0,0,5,.88,1.15,1.15,0,0,1,1.56.8,1.45,1.45,0,0,1-1.16,1.61,9.79,9.79,0,0,0-2.42.79c.3,0,.52-.22.79-.22a39.09,39.09,0,0,0,8-.45,2.16,2.16,0,0,1,1.49.37c.23.22.68.52.64.66-.34,1.1-1.16,2.25.88,2.58,1.07.17,1.48,1.81,3.07,1.26a1.7,1.7,0,0,1,2.19,1.49c.24,1.16,1.33,2,3.07,1.44,2.64-.88,5.08.94,4.81,3.26a6.32,6.32,0,0,1-.6.92,15.32,15.32,0,0,1-5.6,3.93,31.45,31.45,0,0,1-4.27,1.54,28.46,28.46,0,0,1-6.12-.12,7.11,7.11,0,0,0-3.91.3c-1.77.78-3.64.48-5.44.76a1.67,1.67,0,0,1-1.79-1,39.87,39.87,0,0,0-8.13-2c-.25-.05-.6.07-.77-.06-3.13-2.38-5.45-.56-7.74,1.46A7.69,7.69,0,0,1,130,199.4Z"/><path class="cls-74" d="M145.89,178.79c.41-2.07.15-2.25-2.37-1.58a1.13,1.13,0,0,1,.12-1.06c-.43.42-.36.78-.52,1.06-.92.08-1.85-.35-2.77,0-.52-1.27-.09-2,1.23-2.28a1,1,0,0,0,1-1.2c-.06-.66-.26-1-1-.55s-1.38,1.28-2.44.86c-.09-1.08-.83-1.2-1.69-1.2-1.25,0-2.49,0-3.73-.05-.46,0-1-.2-1.07-.7s.57-.66,1-.75a6.93,6.93,0,0,1,1.58-.07c1.15,0,2.32.12,2.42-1.55,0-.25.35-.55.61-.71.44-.27,1.38,0,1.17-.94s-1.15-.66-2-.9c1.29-.81.91-1.71.37-2.66s-1-1.63.28-2.3c.54-.28.73-.79,0-1.2-.49-.29-.27-.75-.36-1.16-.35-1.56-1.47-2.81-1.94-4.37-.12-.42-.9-.13-1.36.22a.64.64,0,0,1-.87-.24c-.24-.35,0-.64.28-.83.9-.65,1.68-1.33,1.11-2.61a.41.41,0,0,1,0-.19c.08-.73,2-.78,1-1.57s-2.37-1.6-3.81-1.1c-.91.31-1.68-.16-2.52-.08s-1.55.76-2.59,0c1.25-.46,2.46-.81,2.53-2.35,0-.35.6-.47,1-.44,1.43.1,2.46-.78,4-1.47-2.08-1.1-4.12.68-5.75-.83-.22-1.25,2.42-.39,1.78-2.11-.34-.91.35-2.26-1.33-2.6a2.41,2.41,0,0,1,2.29-.73c1.93.87,2.15-.76,2.78-1.72.27-.42.38-.89.87-1.23.94-.64,2.69-1.38,0-2.14-.92-.26-1-1.13-.25-1.87.27-.26.73-.47.45-.94a.88.88,0,0,0-1-.36,2.07,2.07,0,0,1-2.25-.89c-.81-1.05-1.46-2.17-3.08-1.8a.8.8,0,0,1-.6-.42c-.16-.46.24-.79.57-.9,1.43-.49,1.26-1,.18-1.78-.72-.52-.52-1,.32-1.19.36-.08.9,0,.79-.6a.78.78,0,0,0-.92-.58c-2.63.39-2.8-2.87-5-3.33-.48-.1-.26-1.08.67-1,1.36.18,1.84-.36,1.45-1.68,1.22-.62,1.87-.49,1.69,1.12a3.46,3.46,0,0,0,2.09,3.78c1.91,1.07,2.92,3.41,5.24,4.09.38.11.22.84.29,1.29.3,1.83.09,3.72,2.64,4.53,1.9.62,2.65,3.82,1.94,6.26a16.9,16.9,0,0,1-.58,2.08c-.32.72-.33,1.3.66,1.69s1.22,1.35.36,2.19a1.23,1.23,0,0,0-.07,1.89c.13.27.27.53.4.8.21,1.21.27,2.5,1.58,3.17v.39c-.23.69,0,1.45-.26,2.13-.63,1.61-.3,2.67,1.57,3,1.31.25.87,1.4,1,2.52,1.12-1.26,2.09-1.73,2.71.23.23.72,1,.58,1.56.41a2.76,2.76,0,0,1,3.36,1.39c.41.68.89,1.11,1.77.86,1.26-.37,2.29.45,3.42.75.64.17.59.76.66,1.29.2,1.54.58,2.86,2.39,3.44a2.65,2.65,0,0,1,1.64,3,1.21,1.21,0,0,0,.8,1.19c-.45,1.35-1.81,2.62-.21,4.14.5.47,0,1.11-.37,1.59-.8,1.12-1.6,2.21.14,3.23a.72.72,0,0,1,.36.85,1,1,0,0,1-1.26.68c-2-.23-2.29.59-1.44,2.19a65.28,65.28,0,0,1-9.89.62,2.54,2.54,0,0,1-1.95-.91c1.51.31,2.51-.62,3.77-.57a1,1,0,0,0,1-1.21c-.1-.48-.86-.62-1.34-.42-2,.85-3.57.11-5.08-1.08A.83.83,0,0,1,145.89,178.79Z"/><path class="cls-75" d="M164.91,199c2.83-1.24,5.83-2.11,8.26-4.21.49-.42.77-1,1.26-1.34,2.35-.87,3.41.65,4.35,2.38v.79a67.41,67.41,0,0,0-6.41,6.24,1.85,1.85,0,0,0-.33,1.29c-1.15-1.05-2.12.41-3.22.24-.57-.09-1.5.76-1.56-.51,0-.51-.5-2,1.17-1.26.28.12.8-.34,1.22-.53a.52.52,0,0,0,.32-.63.39.39,0,0,0-.6-.29c-.68.35-1.28-.17-1.89-.13-.79.06-1.89-.82-2.16-.21-.39.86-.89,2.1.22,2.94-.7.92-1.59-.41-2.21.38h-.4c-.46-.07-.53-.52-.79-.79h-.4c-.09-.19-.1-.5,0-.52,1.93-.3,2.23-1.82,2.57-3.34C164.39,199.27,164.72,199.17,164.91,199Z"/><path class="cls-38" d="M178.78,195.83c-1.43-.83-2.19-2.88-4.35-2.38a.82.82,0,0,1,.78-.4c.66-.27,1.17-1.21,2-.48S179.44,194.2,178.78,195.83Z"/><path class="cls-76" d="M134,96.78l-.4.39c-1,.08-1.08,1.36-2,1.59-2.19,1.14-4.46.44-6.46-.26-2.89-1-5.62-2.54-6.73-5.78a1.48,1.48,0,0,1,.14-1.13,10.72,10.72,0,0,0,.48-1.27.78.78,0,0,1,.37-.37c.24,0,.58.36.62.17.36-1.67,2-2.19,2.92-3.34.35-1.15.85-2.26,1.1-3.44.09-.42.18-.92.82-.85.14.82.33,1.79,1.43,1.16,1.71-1,1.59.49,2.11,1.54.55-3,2.57-2.44,4.48-2.09.75.14,1.15-.37,1.91-.89-.27,1.22.58,2.32-.62,3.16-.19-1-2,.76-1.67-1-1.21.4-1.18,2.2-2.74,2.4-.46.06-.59.94-.17,1.54.52.75.88.15,1.28-.11.88-.56,1.46-2,3-1.07-.58.83-1.88.59-2.17,1.82a3.25,3.25,0,0,1,3.06,1.44,4.68,4.68,0,0,1-.76-.18,1.14,1.14,0,0,0-1.39.43.57.57,0,0,0,.06.53c.36.49.8.21,1.24.1a4.33,4.33,0,0,1,1,0c-.12,1.5-.9,2.11-2.29,2,.14.78.74.89,1.2,1s1.25-.52,1.52.34-.35,1.18-.92,1.57A2.7,2.7,0,0,0,134,96.78Z"/><path class="cls-7" d="M163.92,93.68c-.58.8-1.2.29-1.74.38s-1.25.71-1.73-.14c-.2-.35.16-.67.42-.77.67-.25,1.3-1,2.11-.27C163.26,93.14,163.57,93.38,163.92,93.68Z"/><path class="cls-77" d="M124.89,82.49q-.8,2.39-1.58,4.77c-.74-1.19-.55-3-2.41-3.47-.49-.12-.75-1-.57-1.57.45-1.33-.27-2.42-.53-3.6-.26.66.35,1.08.48,1.64s.19,1.06-.42,1.11c-3,.22-2.6,2.69-3,4.58-.07.31,0,.65-.14,1-1.88.31-2.74-.44-2.47-2.2.05-.32.31-.76,0-.93-1.65-1,.25-2.6-.57-3.8-.16-.24.3-.84.92-.63.77.4,3.25-.6,3.41-1.41.2-1-.83-.68-1.24-1,3.17-2.69,6.4-5.15,10.91-4.31,1.41,0,1.41,0,1.19.8-.67.09-.89.44-.63,1.07a.81.81,0,0,1-.4.33c-.55.31-1,.8-1.73.76s-1.06.13-.88,1-1,1-1.53,1.45c1,.26,2.43-.39,2.93,1.15-.47.78-.28,1.7-.54,2.52A1.22,1.22,0,0,0,124.89,82.49Z"/><path class="cls-78" d="M127.67,74.59h.39c.29-.74,1.16-.32,1.59-.78.12-.32-.23-1.17.54-.77a5.33,5.33,0,0,0,2.23.38c0,1-.82,1.75-.79,2.76a1.4,1.4,0,0,0-1.72,1.08,21.14,21.14,0,0,1-2,3.89c-.38.64-.89,1.42-1.81.57-.57-.91-1-1.79.39-2.38,1.3-1.18.6-2.83,1-4.22A1,1,0,0,1,127.67,74.59Z"/><path class="cls-79" d="M131.63,76.17c-1.33-1.38.37-1.89.79-2.76l1.19.38c.9.21,1,.21,1.06-.79,0-.53.09-.91.61-1,1-.18.12.68.49.91.65.4.37,1.59,1.41,1.68-.12.29-.2.81-.35.83C135.1,75.68,133.44,76.47,131.63,76.17Z"/><path class="cls-76" d="M135.81,86.82c-.33.51-.67.85-1.17.61a.54.54,0,0,1-.15-.51C134.86,86.14,135.38,87,135.81,86.82Z"/><path class="cls-5" d="M31.38,143.92H28.61c-.05-.3-.68-.41-.41-.7C28.86,142.51,30.9,143,31.38,143.92Z"/><path class="cls-80" d="M99.14,84.1l.39-.4c.63.63,1.59.73,2.18,1.41-.31,1.61-1.9,2.24-2.95,2.66a9,9,0,0,1-4.68,1,1.88,1.88,0,0,1-1-.58c.3-1.11-.11-1.5-1.25-1.33-.72.11-1.37-.2-2.19-1.26.34,2.26-1.11,3-1.89,4.14-.61-.36-.61-1-.66-1.57.54-2.31-.78-3.93-2.07-5.57-.37-.47-.81-.3-1.23-.35-.73-.09-1.45-.13-1.81-.92.29-1.24,1.38-1.75,2.3-2.34.55-.35-.07-.43,0-.63.08-.64.06-1.34,1-1.45.92,1.37,1.91,2.62,3.73,2.86A1.14,1.14,0,0,1,90,81c0,.8-.19,1.62-1.24.77-.38-.32-.93-.1-1.17-.41.88.48,2.5.64,1.58,2.38.79-1.14,1.49-.61,2.16.24a1.54,1.54,0,0,0,2.13,1C95.3,84.51,97.29,84.75,99.14,84.1Z"/><path class="cls-81" d="M91.22,84.1c-1-.82-1.82-.49-2.73.63.92-1.71.9-2.7-1.06-3-.68-.1-.72-.82-.13-1.74-.06,1.84,1.72.74,2.09,2.35.36-1.48.31-2-.9-2.29-1.62-.35-3-1.16-3.22-3.09a.64.64,0,0,1-.24-.51c0-.51.23-1.09-.68-1.06s-.86.39-.74,1c.24,1.15-.46,1.69-1.37,2.1-.66.29-1.31.52-1.72-.36.46-.58-.86-1.76.88-2.07.82-.15.94-1.64,1.3-2.56.16-.42.48-.24.81-.11a3.23,3.23,0,0,0,2.44.07,1,1,0,0,1,1.56.59c.39,1.21-.77.19-.85.47a6.06,6.06,0,0,0-.24,2.84c.25,1.38,1.91,1.52,2.36,1.42,2.5-.54,2.89.86,3.8,2.72s-1.14,1.59-1,2.57A.23.23,0,0,1,91.22,84.1Z"/><path class="cls-82" d="M94,70.62c.73-1.05-.21-1.12-.89-1.44,1,0,1.51-.66,2.17-1.31.49.94.53,2.27,2.46,1.37l-1.6,2c1.14.93,2.64-.63,3.63,1.25.38-2.4-1.14-2.88-2.47-3.86,2-.28,3.72.68,5.42-.12.13.71-.34.7-.54.91-1.28,1.36-1.21,1.71.47,2.4a3.67,3.67,0,0,1,1.87,3.77c-.71.16-.88-1.59-1.81-.57l-4.89-1c-.33-.63,1.28-.72.43-1.5a1,1,0,0,0-.89-.27c-.93.14-.26,1-.65,1.49C95.54,72.9,95.55,71,94,70.62Z"/><path class="cls-83" d="M101.52,84.89c-1.13.38-1.78,0-2-1.19-.38-1.28,0-1.74,1.42-1.81.69,0,1.54.73,2.15-.17a6.45,6.45,0,0,1,1.25-.65,4.36,4.36,0,0,1,1.44.1,5.18,5.18,0,0,1,2.59.58c.33.57,2.12.8.44,1.85-1.48-.38-3-.76-4.3.39a4.55,4.55,0,0,1-2.21,1.21A1.05,1.05,0,0,1,101.52,84.89Z"/><path class="cls-81" d="M80.52,78.15a1.29,1.29,0,0,0,1.58,0c.8.1,1.68-.32,2.38.39l.47.24c-1,.63-1.52,2-2.86,2.15a.81.81,0,0,1-.77-.09c-1-.34-2.13-.5-2.79-1.5C79.24,78,77.32,78,77.37,77,78.75,76.47,79.53,77.59,80.52,78.15Z"/><path class="cls-84" d="M91.22,84.1h.39c1.12-.8,2.25-.1,3.38,0,1.38.08,2.77-.36,4.15,0-1.37,1.55-3.29,1-5,1.25a2.07,2.07,0,0,0-.78.15C91.92,86.23,91.14,85.8,91.22,84.1Z"/><path class="cls-23" d="M85.3,68.7c.89.3,1.91-.39,2.75.34-1.58,1.84-4.38,2.44-5.55,1.19C83.76,70.33,85,70.35,85.3,68.7Z"/><path class="cls-82" d="M91.21,69.44c.46-.17.93-.61,1.22.24s.91.85,1.56.94C92.89,71.36,92,71,91.21,69.44Z"/><path class="cls-82" d="M101.52,77c1.75.53.31,1.58.39,2.38C99.94,78.85,101.86,77.72,101.52,77Z"/><path class="cls-82" d="M104.29,81.32c-.28.47-.75.38-1.19.4-.21-.09,0-.45.4-.8l.79-.39A.52.52,0,0,1,104.29,81.32Z"/><path class="cls-82" d="M101.52,75.38c-.14.26-.27.53-.4.79-.43-.06-.91.15-1.3-.24C100.18,75.12,100.92,75.47,101.52,75.38Z"/><path class="cls-82" d="M102.31,79.74c.19.57,2-1.29,1.19.79Z"/><path class="cls-85" d="M53.18,111.83c.11-.5,1.38-.23.79-1.19A4.86,4.86,0,0,1,58.54,107a16.54,16.54,0,0,0-2.22.14,4.12,4.12,0,0,1-2.35-.84c-.79-1,1-.88.79-1.62,0-1.54,1.43-.58,2-1.13l1.58-.45c1.36,0,2.38-1,3.64-1.21a11,11,0,0,0,3.86-1.42,1.28,1.28,0,0,1,2.09.53,6,6,0,0,0,.66,1c.94,1,.67,1.66-.49,2.27A2.67,2.67,0,0,0,66.87,108c.56,1,.11,1.44-.62,1.59-1.72.35-2,1.49-1.81,2.92-.39.67-1.27,1-1.25,1.94-.09.75-.16,1.52-1,1.84a2.57,2.57,0,0,1-2.71,0c-1.19-.67-2.68,0-4-.34-2.11-.45-2.17-.54-1-2.36C55.16,112.31,53.54,112.45,53.18,111.83Z"/><path class="cls-86" d="M56.75,103.53c-.52.63-1.66.16-2,1.13a.8.8,0,0,1-.8-.34c.54-1.27-.38-1.58-1.26-1.7-.49-.07-1,.2-1.54-.2-.09-1.06,2.15-1.39.86-3A3.11,3.11,0,0,0,49,98.12a3.68,3.68,0,0,1,5.6,1.65c.26.65.69,1.48.5,2C54.35,103.78,55.65,103.5,56.75,103.53Z"/><path class="cls-87" d="M54.77,95.19c.77-1.4,2.28-1.47,3.56-2a1.28,1.28,0,0,0,1.48.69c.78-.17,1.37-.14,1.73.76.44,1.11,1.52.33,2.26.64s1.93-.28,1.87,1.11-1.18,1.19-2.06,1.25a4.16,4.16,0,0,1-2.31-.28l-.2-.21C60.09,94.86,57.5,94.05,54.77,95.19Z"/><path class="cls-88" d="M62.28,102.31c-1.32.25-2.53,1-4,.77.43-.61,2.79-.07,1.14-2-.3-.35.54-.23.84-.35a4.07,4.07,0,0,0,1.24-.94c.93-1.41,2-1.18,3.12-.25l-.4.8C64.32,101.72,62.91,101.63,62.28,102.31Z"/><path class="cls-87" d="M64.67,99.55c-1.26-.28-2.52-.64-3.27,1-.1.21-.72.16-1.09.24,1-1.37,1-1.37-1.5-3.57H61.1a5.11,5.11,0,0,0,2.34.74c.72.16,1.45.35,1.62,1.24Z"/><path class="cls-89" d="M53.18,111.83c.83.09,1.89-.37,2.06,1.11.08.74.31,1.3-.75,1.28-.31,0-.71,0-.72.46a.6.6,0,0,0,.62.63c1.33-.27,2.62,1,4,.09a.85.85,0,0,1,1.08.17,2.68,2.68,0,0,0,2.48.62.93.93,0,0,1,.19,1.08,1,1,0,0,1-.41.39,27.13,27.13,0,0,1-5.24.66,1.89,1.89,0,0,0-2.16,1.32c-.34,1.08-1.61,1-2.29,1.7a35.19,35.19,0,0,0-4.92.17,6.48,6.48,0,0,1-2.44-.49c-.8-.17-1.65-2.09-2.58-.17-1.63-1.56-3.56.91-5.33-.29,2.1-.85,4-1.85,6.28-1.27a.59.59,0,0,0,.46-.24c0-.23-.12-.59-.27-.65a2.16,2.16,0,0,1-1.5-1.42c-1-.24-1.5-1.18-2.38-1.58.15-.3.38-.71.69-.56,1.73.85,3.44.42,5.2.14,1.22-.19,2.23-.45,2.41-1.85.09-.71.52-1.22,1.13-1C50.28,112.55,51.7,111.79,53.18,111.83Z"/><path class="cls-90" d="M52,121.34c0-.53,0-1.14.73-1.16s1.2-.25,1.16-1.28,1.24-1.07,1.82-1c2.11.18,4.11-.69,6.19-.5.54.92-.25,1.26-.75,1.71-1.15,1-2.65,1.68-3,3.51-.12.76-1.26.8-1.86,1.29a.77.77,0,0,1-.77-.17,1.6,1.6,0,0,0-1.65-.38C52.29,123.57,51.77,122.83,52,121.34Z"/><path class="cls-62" d="M55.56,123.72h.79a1.19,1.19,0,0,1,.79,1.58,3.36,3.36,0,0,1-4,.4c-.15-.74-.93-.53-1.42-.79C52.78,123.41,54.22,123.75,55.56,123.72Z"/><path class="cls-91" d="M53.18,125.7a14.65,14.65,0,0,0,4-.4c.17.47.33.94.51,1.42-.56.33-1.18-.29-1.7.17-.84-1-2.57.44-3.17-1.19Z"/><path class="cls-89" d="M54,106.28c1.69.6,3.56.15,5.3.84-2.88-.41-3.63,2.24-5.3,3.52h-4l.48-1.19a1.52,1.52,0,0,0,.31-.48c-.12.15-.19.33-.31.48-2-.65-.37-1.7-.12-2.36.53-1.33,1.21.16,1.95,0,.29-.32-.55-.92.27-1.37l1.89,2.07C54.9,107,54,106.77,54,106.28Z"/><path class="cls-92" d="M42.49,205.72c1.28-.79,1.72-2.68,3.56-2.76-.54,1.06.11,2.7-1.59,3.17a1.09,1.09,0,0,1-.48.29A1.6,1.6,0,0,1,42.49,205.72Z"/><path class="cls-93" d="M44.07,206.13h.39c.69,1.29-.22,1.83-1.11,2.37L42.07,207a.91.91,0,0,1,.41-.84C43,206,43.54,206.61,44.07,206.13Z"/><path class="cls-47" d="M46.44,202.56l.8-1.57C47.16,201.61,47.5,202.44,46.44,202.56Z"/><path class="cls-70" d="M161.06,214.31c.14-.12.35-.42.49-.39a1.15,1.15,0,0,1,.76.46c.13.26-.19.43-.46.44S161.19,214.84,161.06,214.31Z"/><path class="cls-82" d="M108.25,82.11a5.15,5.15,0,0,0-2.77-.39c0-1.31-.78-2.9,1.19-3.57.43-.08.81.35,1.31,0s-.32-1.28.61-1.11c.77.14.24,1.05.72,1.65.14-.72,2.74-.66.36-2-.24-.13-.55-.53-.27-.81s.82.1,1.23.21c.27.79.53,1.59.8,2.38l-.16.2c-.57.52-.11.7.29.94a2.07,2.07,0,0,1,1.08,2.52,1,1,0,0,1-.79.15,2,2,0,0,1-.84-.42c-.59-.54-1.1-1.14-1.57.16C109.3,82.49,108.66,82.39,108.25,82.11Z"/><path class="cls-16" d="M106.67,78.15c-1.52.82-.27,2.55-1.19,3.57l-1.19-.4v-.79c1.4-.41.14-1.72.79-2.38.38-.41.17-1.42,1.19-1.18Z"/><path class="cls-82" d="M113.8,75.38l-3.17.79c-.1-1.47.64-1.9,2-1.59Z"/><path class="cls-82" d="M106.27,77l-1.19,1.18c0-1-1.22-.84-1.39-1.79C104.26,78.29,105.83,74.33,106.27,77Z"/><path class="cls-82" d="M106.21,74.2c-.22.14-.35.29-.49.31s-.52-.1-.43-.42c0-.11.29-.22.44-.21S106,74.05,106.21,74.2Z"/><path class="cls-94" d="M62.28,102.31l2-2c1.74-.49,2.78-2,4.36-2.79.67.34.53.81.21,1.29s-.62.9,0,1.36a1.44,1.44,0,0,0,1.8.22A18.81,18.81,0,0,1,73.81,99c1.16-.48,2-.32,2.57.85.86,1.29,2.29.74,3.44,1.08a2.9,2.9,0,0,0,1.16.95.39.39,0,0,1-.08.46,1.65,1.65,0,0,1-.54.51c.4-.06.45-.58.84-.62.63.19,1.11.57.92,1.26a1.3,1.3,0,0,1-1.59.85c-2.28-.49-3.86.65-5.37,2.07-.79.35-1.43.67-2.22-.29a1.55,1.55,0,0,0-2.41.19c-.7,1.16-1.94,1.78-2.56,3A17.71,17.71,0,0,1,66.1,112c-.44.64-1,1-1.83.58-.68-.92-.17-1.77.14-2.65.44-1.23,2,0,2.47-1.31-2.5-.35-.44-2-.74-3.11-.49-1.82,2-1.26,2.65-2.42a1.11,1.11,0,0,0-.06-.27c-1.11-2.56-2.77-2.38-4.76-1A5.36,5.36,0,0,1,62.28,102.31Z"/><path class="cls-85" d="M76.16,99.94c-1.91-1.69-3.54,0-4.94.74a2.25,2.25,0,0,1-2.63,0c-1-.56-1.52-1.16-.19-1.95.49-.29.49-.73.23-1.2a16.35,16.35,0,0,0,2.79-3.94c.71-1.2,1.7-.77,2.28-.09,1.62,1.91,3.67,1.73,5.77,1.53a1.84,1.84,0,0,1,1.32.26c.24.21.21.54.82.55,1.51,0,2,1.19,1.31,2.7a3.24,3.24,0,0,1-3.2.22c-1.46-.81-2.49-.21-3.33,1Z"/><path class="cls-95" d="M80.91,95.57c-1-.52-1.84.41-2.81.21-1.66-.35-3.61.18-4.7-1.81a1.21,1.21,0,0,0-2-.35c-.07-.68.38-1.46-.41-2A7.75,7.75,0,0,1,75.76,90c.64.32,1.26.63,2,.15a1.07,1.07,0,0,1,1.41.09c.9,1,1.36,2.46,3.16,2.27.42,0,1,.55,1,1.1,0,.91-1,.64-1.45,1.08C81.51,95,81.3,95.38,80.91,95.57Z"/><path class="cls-88" d="M65.06,99.15a2.16,2.16,0,0,0-1.91-.78,2,2,0,0,1-2-1.2c1,0,2,0,3,0,.59,0,1.22.13,1.23-.79,0-1.13-.73-.28-1.08-.39-.91-.29-1.87-.8-2.87.56-.14-1.67-.35-2.92-2.2-2.4-.36.11-.8-.39-.81-.94,1.19.73,2.37.31,3.56,0,1,1.19,2.25,1,3.53.61.31-.1.63-.29.92,0s0,.57-.11.85-.37.79-.27.87c1.56,1.38,1.11,2-.75,2.28C64.35,97.93,66,98.76,65.06,99.15Z"/><path class="cls-95" d="M69.42,88.45c2.31.17,1,2.17,1.59,3.17-1.22.26-.7,1.33-.74,2s-.42.8-.48.65c-.34-.9-1.81-.49-1.79-1.47,0-.8.52-.23.93-.12,1,.28,1-.42.66-1A3.46,3.46,0,0,1,69.42,88.45Z"/><path class="cls-96" d="M78.93,90.43c-.59-.42-.86.23-1.29.37-.82.25-1.65.47-1.88-.76.36-.78-.3-1.29-.49-1.92-.24-.78-1.8-1-1-2.19a14.05,14.05,0,0,0-1.39-.58.73.73,0,0,0-.84.39c-.38.74.42.62.69.9s.53.69.08,1.17-1,.94-1.68.66c-.38-.15-.45-.66-.32-1.2.66-2.73,1.82-4.13,3.75-4.37,1.69.23,2.2-1.65,3.58-2,1.1-.88,2.36-.25,3.55-.37l.39.38c.23.23.51.69.67.65,2.36-.64,3.06,1.56,4.35,2.61s.29,2.57.53,3.87c-.91.56-1.29.19-1.44-.76a2.51,2.51,0,0,0-1.74-2.12c-.07-.06,0,.46.05.21,0-.08.08-.06.19,0a5.14,5.14,0,0,1,.54,3.92c-.53,1.34-1.73,1.13-2.68,1s-2.5.6-3-1.13C79.16,89.47,80.06,90.54,78.93,90.43Z"/><path class="cls-82" d="M116.17,73.8c1.57.63.71,1.73.16,2.24-.94.87-1.84.18-2.53-.66C114.78,75.13,116.17,75.5,116.17,73.8Z"/><path class="cls-82" d="M118.56,72.6a3.5,3.5,0,0,0-2.39,1.19c-.88-.7.07-1.6-.32-2.43C117.07,71.2,117.79,72,118.56,72.6Z"/><path class="cls-45" d="M120.93,70.23a.84.84,0,0,0-.8.4c-.23,0-.65-.07-.46-.38C120,69.7,120.5,69.7,120.93,70.23Z"/><path class="cls-97" d="M52.88,92.9c-.79.16-1.2,1.2-2.37,1C51.21,93.05,51.58,92.06,52.88,92.9Z"/><path class="cls-80" d="M81.7,80.55c-1.13.62-2.36.3-3.55.37.13-.52.25-1,.38-1.58Z"/><path class="cls-16" d="M71.6,76.47a1.28,1.28,0,0,1,1.58-.07C72.65,77.1,72.19,77,71.6,76.47Z"/><path class="cls-83" d="M111.82,82.11h.79a1.54,1.54,0,0,0-.54-2.15c-.5-.39-.92-.71-.64-1.41h0c-.05-1.24,1-1.57,1.84-2.33.11.56.36,1.07.21,1.27-.89,1.19-.92,1.16.65,1.51.17,0,.31.22.46.34-.44.29-1.07.61-.37,1.15,1.45,1.13.19,1.39-.58,1.85.5.88,2.44,1.16.87,2.9-.49.54.86,1.65,2.06,1.63.8.66,1.63,1.31,1.51,2.52a5.85,5.85,0,0,1-4.75-1.09,14.83,14.83,0,0,0-2.5-1.58,2.14,2.14,0,0,1-1.37-2.36C110.12,83.48,111.31,83.15,111.82,82.11Z"/><path class="cls-34" d="M164.91,199a6.2,6.2,0,0,0-.56,1.67c-.08,1.39.29,3.09-2.13,2.12-.07,0-.31.37-.48.57a2.46,2.46,0,0,1-1.47-.44,2.69,2.69,0,0,0-3.45,0c-.54.45-.67.36-.89-.5-.11-.41-.35-.6-.66-.58-1.14.08-2.36-.44-3.43.35a2.82,2.82,0,0,1-2.08.06c-.56-.19,0,.34-.27.39a.31.31,0,0,1-.43-.05,12.72,12.72,0,0,1-6.31-.17c1.36-2.25,3.21-.45,4.89-.52,0-.83-.11-1.65-.16-2.47,2,1,4.1.36,6,0a16.92,16.92,0,0,1,5.71-.53A51.71,51.71,0,0,0,164.91,199Z"/><path class="cls-34" d="M162.14,203.36a1.34,1.34,0,0,1,.79.79C161.86,204.69,162.26,203.76,162.14,203.36Z"/><path class="cls-30" d="M129.65,73.8c-.23.88-1.11.41-1.59.78-.12-.65-.34-1.37.8-1.18A.81.81,0,0,0,129.65,73.8Z"/><path class="cls-98" d="M42.49,203.77c.43-.19.87-.4,1.07.25a.47.47,0,0,1-.24.41c-.47.06-.64-.32-.82-.67Z"/><path class="cls-20" d="M44.07,206.13a1,1,0,0,1-1.59,0c0-.13,0-.27,0-.41Z"/><path class="cls-99" d="M140.74,145.11c-1-.59-1.63-1.29-.32-2.17,1-.65.57-1.21,0-1.68-.45-.33-1.42-.28-1.39-.89a14,14,0,0,1,.77-3.06,2.08,2.08,0,0,1,.43-.57c-1.24-1,.7-2,.16-2.77-.67-1-1.51-1.89-2.26-2.84-.36-.47-.38.66-1.09.73-.51-1.22-1.49-2.51-1.5-3.81a3.57,3.57,0,0,0-2.54-3.79c-.89-.33-2-.48-1.6-2,.12-.45-.6-.63-1-.8-2.37-1-2.93-2-2.54-4.57.19-1.17-.82-.59-1.32-.75-1.72-.16-3.49.38-5.15-.4-.35-.37-.15-.73,0-1.07.46-.77.07-1.09-.66-1.18-1.52-.18-3-1.07-4.6-.36a.72.72,0,0,1-.74-.16c-.66-.1-1.42.26-2-.4.38-1,1.24-1,2.09-1.17,1.48-.24,3-.44,4-1.79.72-1,2.13-.38,3.17-1.2-1.63-1.12-3.15-1.88-5-1a1.6,1.6,0,0,1-.37.12c-.78.15-1.58.39-2.22-.29a1.12,1.12,0,0,1-.15-1.45c.49-.84,1.3-.64,2.15-.42-.31-.81-.78-.78-1.33-.68-3.4.61-4.09-.17-3.24-3.62.2-.36.66-.28,1-.57a1.38,1.38,0,0,1-1.34-.17,3.27,3.27,0,0,1-.6-1.62,1.28,1.28,0,0,1,.21-.83c.1-.09.24-.23.33-.19,1.42.59,2.84,1.16,4.32,1.61.6.18.48.87.16,1.36a2.33,2.33,0,0,1-1.72,1.16c1.51.12,2.89,1,4.43.45.36-.13.61,0,.78.39,1.27,2.45,3.68,1.39,5.6,1.73.61.11,1.41-.78,1.94.07s-.35,1.39-.83,2c-.17.19-.4.34-.38.67.25.45.66.28,1,.21.54-.1,1.08-.2,1.41.36s-.17.94-.51,1.33c-.59.67-.56,1.18.42,1.38.26,0,.69.15.66.33-.28,1.51,1.46,2.2,1.55,3,.2,1.94,1.53,1.51,2.46,1.68,2,.36,2,.26,1.41,2.06,0,.13-.19.18-.15.18.19,0,.38-.17.56-.13,1.15.26,2.24.66,2.16,2.1-.06,1.1.92,1,1.43,1.33,1.86,1.11,1.92,1.51.06,2.8.64.67,2,.66,2,1.82a3.89,3.89,0,0,1-.76,2.61c-.58.73,0,1.05.51,1.34a2.78,2.78,0,0,1,1.77,2.07,10.2,10.2,0,0,0,.18,4.62c.37,1-.41,2.06-1.4,2.79-.83.62-1.4,1.32.1,2.07,1.09.55,1.5,1.55.2,2.45A1.59,1.59,0,0,0,140.74,145.11Z"/><path class="cls-100" d="M112.61,101.13a6.79,6.79,0,0,1,.08,1.34c-.07.54-.77,1.13,0,1.56s1.66,1,2.38.48c1.79-1.39,2.19,0,2.88,1.16-.6.33-1.07.52-1.63,0-.33-.3-.75-.09-1,.23a.85.85,0,0,0-.07,1.09.78.78,0,0,0,1,.29c.36-.12.83,0,1.11-.21,2.1-1.41,3.8.14,5.62.72.28.09.62.44.47.76s-.59.82-.78.77c-2.32-.59-3.32,1.75-5.16,2.29-1.35.41-2.93-.08-4.08,1-1.51,0-1.86-1.82-3.43-2-.16.68-.34,1.47-.53,2.25a4.38,4.38,0,0,1-.37,1.09c-.84,1.45-6,3.24-7.56,2.62-.55-.21-1.15-.65-1.61,0s.34.7.6,1,.12.87-.06.81c-1.7-.6-1.77.43-1.79,1.64,0,.15-.45.47-.59.42-1.46-.52-2.67.78-4.07.52a1,1,0,0,1,0-.76A27.78,27.78,0,0,1,97.86,114c-.74-.88-2.33.07-2.81-1.28.61-1.56,1.49-2.8,3.37-2.86,1.46,0,1.75.36,1.26,2,1.22-.27,2.29.59,3.55.25-.61-.79-2.27-.66-2-1.83s1.73-.39,2.76-.84a2.7,2.7,0,0,0-2-.15c-.86.11-1.71,0-1.86-1-.19-1.15.79-1.18,1.58-1.25s1.85,0,2.62-.64c-.41-.19-.92-.05-1.28-.39s-.58-.88.13-1.21a6.33,6.33,0,0,1,1.72-.4,3.63,3.63,0,0,0,3.1-2C109,100.54,110.91,101,112.61,101.13Z"/><path class="cls-101" d="M95.18,112.62c1.1.86,2.74,0,3.8,1.21-2.69,1.64-3.22,4.8-5,7.11-1.63.42-2.71,1.25-2.4,3.16,0,.17,0,.5-.12.54-2.25,1-3,4-5.8,4.23-.18-1,1-.9,1.28-1.72a4,4,0,0,1-3.12-.81c-.69-1.58-2.22-3-1.17-5,.21-.4-.12-.88-.64-1.07-1.3-.48-.93-1.49-.57-2.3.46-1,1.08-2,2.49-1.81,1.75.28,3.46.63,5.2-.32a3,3,0,0,1,2.69-.15,2.83,2.83,0,0,0,2.8-.31c.63-.43,1.13-.82,0-1.23-.91-.32-1.21-.9-.52-1.73A.94.94,0,0,1,95.18,112.62Z"/><path class="cls-100" d="M115.38,113c2.13-1.49,4.22.08,6.32.11.73,0,1,.76.52,1.48-.28.4-.92.54-.89,1.18C118.59,116.49,116.87,115,115.38,113Z"/><path class="cls-102" d="M84.08,126.1a3.52,3.52,0,0,0,2.39.62c.41-.1,1.13-.49,1.31.32.11.5-.45.73-.82,1l-1.29.85h-.4c-1.25,0-2.54.21-3.56-.8C81.31,126,82.87,126.24,84.08,126.1Z"/><path class="cls-91" d="M84.48,141.94c-2.37-.79-2-2.95-2.38-4.75.13,0,.33,0,.36.09C83.15,138.83,83.81,140.39,84.48,141.94Z"/><path class="cls-91" d="M82.1,137.19h-.39c-.63-1.36,1.5-1.55,1.18-2.77C84.62,135.91,82,136.15,82.1,137.19Z"/><path class="cls-91" d="M82.89,134.42c-.81-.26-2.17-.24-.79-1.59C82.37,133.36,82.63,133.89,82.89,134.42Z"/><path class="cls-73" d="M109.3,174.56c-.08.27-.25.47-.54.4a.43.43,0,0,1-.34-.58.61.61,0,0,1,.43-.28A.4.4,0,0,1,109.3,174.56Z"/><path class="cls-91" d="M82.1,132c-.11-.71-.43-1.46.4-2C82.4,130.72,82.76,131.48,82.1,132Z"/><path class="cls-54" d="M117.29,202.56c-1-.68-2.75.23-4.36-.33-.54-.18-1.25-.45-1.68-.25-.77.37-1.57.53-1.85-.21-.33-.89.83-1.09,1.34-1.36,1.43-.74,2.94-1.37,4.55-.19a2.54,2.54,0,0,0,2.57.53c.49-.2.9.12,1.27.35s.9.46.7,1-.62.42-1,.43Z"/><path class="cls-54" d="M116.18,198.61h4A4.51,4.51,0,0,1,116.18,198.61Z"/><path class="cls-103" d="M89.45,201.34c-.43.68-.78,1.24-1.47,1.36a.86.86,0,0,1-1-.79,1,1,0,0,1,1-1.17C88.49,200.73,89,201.11,89.45,201.34Z"/><path class="cls-8" d="M121.49,207.84c.13.58-.19.65-.52.6s-.75-.33-.7-.76.3-1.19.86-1.07S120.64,207.68,121.49,207.84Z"/><path class="cls-104" d="M142.33,131.64c-.75-.74-1.3-1.67-2.55-1.83a1,1,0,0,1-.75-1.52c1.9-3.28,1.93-3.26-1.31-4.27.18-.66.75-.62,1.26-.75a1.08,1.08,0,0,0,.84-1.18c-.08-.85-.61-.31-1-.21-.14-1.18-3-.27-1.92-2.6.19-.41-1-1.58-2.19-1.18-.41.14-.72.58-1.23.31,0-.15-.11-.34-.08-.37.67-.48,1.84-.87,1.62-1.72s-1.35,0-2-.26-1.5-.49-2.24-.75a.71.71,0,0,1-.57-.7c0-1.24,0-1.27-1.05-1.31-.39,0-.83.18-1-.34s.31-.64.66-.82a.76.76,0,0,0,.33-1c-.1-.32-.37-.31-.63-.14-1.19.8-.84-.59-1.17-.91-.57-.54-.19-1.07.44-1.37.38-.19,1.08-.22.69-.86s-.78-.12-1.16.13c-.65.43-1,0-1.45-.45-.62-.75.1-1,.46-1.31a7.4,7.4,0,0,0,.56-.56c.24-.28.74-.52.45-1s-.74-.1-1.17.06c-2,.77-3.89-.1-5.79-.48a1.23,1.23,0,0,1-.74-1.67c-2.21,1.34-4-.65-6-.7a1.79,1.79,0,0,1,.68-.33c1,0,2.1-.71,2-1.51S115,99,114,99.42c-.6.26-.77,0-.87-.62s-.68-.9-1.34-.84c-.92.94-1.62.94-1.44-.55.09-.74-.53-1-.59-1.5,1.21-1,2.3-2.3,3.95-.49.63.69,1.84.48,2.71,1.07.7.48.92-.41,1.17-.92.5-1,.16-2.25.94-3.16,1.34,1.45,2.07,3.28,4.07,4.36a17,17,0,0,0,9,2c-.2.16-.4.33-.61.48-.44.34-1.18.36-1.21,1.14.93-.17,1,1.34,2,1.06a12.33,12.33,0,0,1,1.92-.27c.47,0,1.21.07,1,.59-.5,1.07.44,1.31.8,1.87.76,1.19,2.32,1.87,2,3.77-.11.65,2,.18,1.67,1.66,1,.28,1.61,1.34,2.77,1.19.2.41.58.82.58,1.23,0,1.19.4,1.69,1.67,1.62.59,0,1.51.3,1.48,1s-.94.45-1.47.48a4.76,4.76,0,0,0-2.36.93c.49.85,1.18.26,1.76.27s1.28.22,1.24.93-.65.69-1.21.5-.92-.44-1.16.19a1.4,1.4,0,0,0,.18.91c.28.63.6.43,1.05.1.65-.48.91,0,1.07.59.25.95-.55,1.17-1.09,1.27s-1.27-.38-1.83.28c0,.69,1.14.08,1.13,1,0,.51.59.66,1,.08s.69-.75,1.31-.42.38.62.26,1c-.17.55-.25,1.43-.92,1.32-2.18-.38-1.43,1.14-1.28,2s.16,1.29-.42,1.75a2.14,2.14,0,0,0-.39,3.4c.07.09-.11.36-.17.55Z"/><path class="cls-9" d="M164,140.25c.21,1.87-.6,2-1.88,1.78C162.76,141.43,163.27,140.94,164,140.25Z"/><path class="cls-91" d="M84.08,126.1c-.81.63-2.32.42-2.37,2-1.14.67-2.39.27-3.58.3a1,1,0,0,1-1.1-.92c0-.63.52-.77,1-1,1.11-.44,2.32-.07,3.44-.54.53-.23,1.14-.56,1.11-.93a2.84,2.84,0,0,0-.85-1.67c-.52-.53-.89.26-1.33.45-1,.45-1.64,2.23-3.42,1,1.41-1,2.94-1.62,3.73-3.1.19-.36.24-1,.08-.9-1.37,1-2-.91-3.06-.73a5.2,5.2,0,0,0-2.84,1.57c-1,1-1.72-.12-2.57-.13s-1.53-.34-2.1.48c-.19.29-.64.63-.77.46-1.39-1.83-3.15.43-4.83-.54-1.28-.74-2.63.62-3.56,1.79l-4,1.58c-.26-.53-.53-1.06-.79-1.58.06-.56.16-1,.92-1s1.08-.35.44-1c-.08-.09-.17-.17-.26-.26a7.22,7.22,0,0,0,.65-.42c1.19-1,2.39-1.94,3.56-3,.16-.14.16-.48.23-.72h0c2.57-.34,5.18-.36,7.74-.87.26-.05.71,0,.74-.16.35-2.33,4-2.12,3.76-5-.06-.72,1-.86,2-1-1.41-1.29-2.58-2.43-1.18-4.11,1.28-2,3-3,5.45-2.39.49.12,1.21.13,1.38-.44s-.43-.87-.89-1.13v-.39a1.06,1.06,0,0,1,1.43-.67c1.77.66,3.47.15,5.2-.13.47-.21,1.54.54,1.3-.85,0-.23.42-.44.71-.57a1.38,1.38,0,0,1,1.16.06c.49,1-.33,1.84-.32,2.8,0,.53-.73.33-1.17.35-2.28.06-2.53.39-2.46,2.7,0,1.36.92,3.1-1.42,3.71,1.58,0,2.63.43,2.29,2.27-.14.71.65,1.29.53,2.05-.82,1.22-2.23.8-3.36,1.23,2.37-.36,4.71,0,7,0a3.58,3.58,0,0,1,2.93.88c-1,.65-2,1.16-3.21.27-.62-.46-1.59-.07-2,.2a6.21,6.21,0,0,1-6,.22c-.73-.32-2.4,2.41-2,3.17.08.13.34.28.45.24,2-.67.55,1.45,1.37,1.72-1.4,1.43-.62,2.52.52,3.6C84.11,125.41,83.73,125.85,84.08,126.1Z"/><path class="cls-105" d="M80.12,133.23c-1.65,1.6-3.91,1.35-5.9,1.87-.56.15-1.35,0-1.79.43-1.78,1.76-2.9.11-4.2-.72.38-2.06,1.11-2.5,2.89-1.61a2.9,2.9,0,0,0,1.47.42c.7-.48.53-2,2-1.58a2,2,0,0,0,2,.35C78,132.1,79.26,131.59,80.12,133.23Z"/><path class="cls-91" d="M74.12,128.63c2.42.62,5,.86,7.35,2.76-1.86.37-3.46-1.1-4.75.39-.37-.36-1.07-.75-1-1.08C75.8,129.45,74.86,129.24,74.12,128.63Z"/><path class="cls-106" d="M72.2,132.83a2.92,2.92,0,0,1-2.51-2.22,29.53,29.53,0,0,1,3.16-.91c.59-.12,1.51-.32,1.77.39.34.95-1,.53-1.24,1.16C73.79,132.37,73.53,133,72.2,132.83Z"/><path class="cls-5" d="M57.14,134c-1.18-.55-2.52-.24-3.89-.6,1.56-1.77,3.41-.87,5.08-1A1.86,1.86,0,0,1,57.14,134Z"/><path class="cls-91" d="M72.2,132.83a1.54,1.54,0,0,0,1.18-1.58c.51.1,1.33-.28,1.19.79-1.07,0-.73,1.79-2,1.58Z"/><path class="cls-91" d="M74.28,127.44c-.27-1.43.71-1.38,1.38-1.59a.54.54,0,0,1,.7.49c.06.55-.45.47-.79.57S74.77,127.23,74.28,127.44Z"/><path class="cls-71" d="M149.06,202.57h.4a2.42,2.42,0,0,1,.66,1.83c-.47,1.15-1.31,1.84-2.52,1.38-.77-.28-1.09.56-1.71.35-.46,0-.92,0-1.37,0s-.6-.47-.59-.88-.12-.76.37-.75c1.17,0,2.53-.8,3.3-.52C149.55,204.66,148.89,203.32,149.06,202.57Z"/><path class="cls-34" d="M145.89,206.13c.46-.4.65-1.2,1.64-.64s1.7-.24,2.32-.94a.55.55,0,0,1,0,.79v.39c-.92.8-2.2.2-3.17.8A.83.83,0,0,1,145.89,206.13Z"/><path class="cls-8" d="M133.61,202.17a1.2,1.2,0,0,1-1.19-.79C133.31,200.9,133.32,201.74,133.61,202.17Z"/><path class="cls-8" d="M131.73,201c-.4.86-.44,1.93-1.61.95a.92.92,0,0,0-1.25.21c-.47.46-.88.27-1.06-.25-.25-.75.28-.9.87-.91C129.66,201,130.64,201,131.73,201Z"/><path class="cls-33" d="M149.86,205.34c0-.26,0-.53,0-.79l-.39-2c-.07-.51-1.1-.2-.82-.81s.76-.19,1.12.09c.64.49,1.38.26,2.08.32-.49.47-1.93.34-1,1.75A1.12,1.12,0,0,1,149.86,205.34Z"/><path class="cls-99" d="M162.53,168.49c-.63-1.4-1.07-2.75-3.12-3-.95-.09-1.12-1.9-1.54-3-.16-.39.69-1.19,0-1.28-1.16-.14-2.14-1.43-3.31-.73s-1.66.16-2.1-.79c-.68-1.48-1.69-2.1-3.32-1.4-1,.43-1.86.35-2-1-.18-1.6-.68-1.17-1.28-.23a1.6,1.6,0,0,1-1.25.79,1,1,0,0,1-.21-1.15c.53-1.25.22-1.7-1.19-1.85a1.64,1.64,0,0,1-1.41-2.59c.48-.93-.14-2.18,1-2.86.93,1.5,2.59.88,3.79,1a8,8,0,0,1,2.78.84c3.2,1.37,4.67,4.28,6.52,6.86a5.44,5.44,0,0,0,1.89,1.95c3.13,1.48,3.59,4.81,5.18,7.35A.81.81,0,0,1,162.53,168.49Z"/><path class="cls-99" d="M142.72,149.08c-2.05-.44-2.22-.78-1.58-3.17C141.86,146.87,143,147.62,142.72,149.08Z"/><path class="cls-51" d="M139.16,174a7.84,7.84,0,0,0,1.85-1c.4-.39,1-1,1.67-.49a2.15,2.15,0,0,1,.41,2c-.1.82-.51,1-1.36.83-1.49-.28-.9,1.23-1.38,1.83a4.61,4.61,0,0,0-2.88.08C138.16,176,138.66,175,139.16,174Z"/><path class="cls-51" d="M138.59,178.1c.93.88,1.78,1.32,2.82.36.09-.09.55.06.66.22s0,.5-.16.67c-.74.93-1.79.72-2.72.54S138.77,178.79,138.59,178.1Z"/><path class="cls-51" d="M134,180.52c-.88.18-.59-.76-1.16-.76-.36,0-.85,1.07-1.08-.06-.08-.41.3-.73.7-.83.56-.14,1.05-.07,1.21.62C133.7,179.79,133.81,180.09,134,180.52Z"/><path class="cls-51" d="M128,176.63c0,.32-.23.49-.52.39a1.11,1.11,0,0,1-.7-1.08c0-.08.28-.27.41-.25A.88.88,0,0,1,128,176.63Z"/><path class="cls-51" d="M128.29,172.09c.34,0,.71.18.7.54s-.42.61-.85.56-.65-.22-.6-.61S128,172.13,128.29,172.09Z"/><path class="cls-51" d="M143.12,177.21c-.65-1.09,0-1.48,1.19-1.83-.32.73-.56,1.28-.79,1.83Z"/><path class="cls-51" d="M125.21,176.84c-.12.32-.29.63-.67.59s-.43-.43-.32-.74.34-.6.72-.49S125.28,176.56,125.21,176.84Z"/><path class="cls-51" d="M131.34,179.35c-1.07.65-1.46.13-2.26-.1C130.08,178.73,130.46,179.29,131.34,179.35Z"/><path class="cls-51" d="M145.89,178.79h1.19c-.07.77-.57.91-1.18.69C145.48,179.33,145.63,179,145.89,178.79Z"/><path class="cls-51" d="M124.86,182.14c-.26.18-.43.4-.64.44s-.44-.23-.3-.47a1.07,1.07,0,0,1,.57-.38C124.54,181.71,124.69,182,124.86,182.14Z"/><path class="cls-51" d="M122.59,176c.21.11.46.15.5.27.11.29-.11.46-.38.45a.52.52,0,0,1-.38-.29C122.3,176.36,122.48,176.19,122.59,176Z"/><path class="cls-51" d="M145.09,168.91c-.35,1.22.7.64,1.17.76s.89.08.91.55c0,.63-.55.61-1,.64a5.61,5.61,0,0,0-2.64.47c-1.06.6-1.06-.8-1-1.07a3.11,3.11,0,0,1,2.25-2.43C145.62,167.56,145.33,168.36,145.09,168.91Z"/><path class="cls-51" d="M146.14,165.07c-.59.86-1.07,1.54-2,1.5-.37,0-.29-.54-.19-.83C144.36,164.73,145.16,164.88,146.14,165.07Z"/><path class="cls-51" d="M147.55,173.59c-1,1.46-1.75-.07-2.55.39C145.75,172.24,146.66,173.85,147.55,173.59Z"/><path class="cls-51" d="M138.52,142.58a.86.86,0,0,1-.94.53c-.35,0-.71-.12-.62-.53a.76.76,0,0,1,.89-.58A.67.67,0,0,1,138.52,142.58Z"/><path class="cls-51" d="M147.51,173.58c.5-.57.91-1.16,1.65-.72a.73.73,0,0,1,.21.67C148.81,174.42,148.1,173.29,147.51,173.58Z"/><path class="cls-51" d="M132.54,125.05c.27.09.48.28.42.55-.09.44-.25.91-.86.8-.32-.05-.41-.29-.3-.57S132,125.07,132.54,125.05Z"/><path class="cls-99" d="M143,157.83c.37.07.7.21.66.6s-.39.49-.73.53-.34-.34-.41-.53C142.33,158,142.65,157.87,143,157.83Z"/><path class="cls-51" d="M142.83,159.24c.11.46-.15.55-.39.63-.45.15-.58-.19-.63-.5s.28-.35.52-.38S142.88,158.93,142.83,159.24Z"/><path class="cls-51" d="M137.82,136.43c.35.06.61.17.63.47,0,.07-.27.23-.41.23a.5.5,0,0,1-.55-.44C137.48,136.6,137.73,136.49,137.82,136.43Z"/><path class="cls-51" d="M133.31,142.77c.05.28-.14.33-.34.34s-.56.07-.63-.24c0-.11.19-.34.34-.39A.5.5,0,0,1,133.31,142.77Z"/><path class="cls-107" d="M101.52,84.89l.79,0c.39.24.92.2,1.18.65a2.46,2.46,0,0,0,3.34,1.53,4.68,4.68,0,0,1,3.09.19c.87.34,1,.8.18,1.37-.33.23-1,.17-.75.88a1.22,1.22,0,0,0,1.16.62c2.56.06,5.1.59,7.66.14a1.57,1.57,0,0,1,1.14.18c0,.44.09.9-.36,1.2-3.12,2.43-6.55,2.33-10.11,1.21-.79-1.8-2.35-2.61-4.6-2.41-1.22.12-2.48.62-3.63-.26-1-.65-1.44.72-2.28.63a16,16,0,0,1-3.73-.21,3.56,3.56,0,0,1-1.32-.36c-.58-.34-1.24-.81-1-1.53s1.06-.49,1.68-.25c1.65.07,3.05-1.2,4.75-.84C98.74,85.76,101.31,86.53,101.52,84.89Z"/><path class="cls-108" d="M119.31,90.43a12.81,12.81,0,0,1-5.11.27,5.57,5.57,0,0,0-3.3-.18,1.13,1.13,0,0,1-1.29-.11c-.41-.45-1.31-.45-1.23-1.36.12-1.34,1.43-.42,2.12-1.15a5.67,5.67,0,0,0-4-.26c-1.59.56-2.78-.43-3.41-2a7.64,7.64,0,0,0,1.18-2c1.34-1.47,2.83-1.3,4.38-.39.36.31,1,.17,1.18.79-.12,1.22.53,1.8,1.55,2.4,2.14,1.25,4.14,2.74,6.77,2.77a1.05,1.05,0,0,1,1.18.81A2.19,2.19,0,0,1,119.31,90.43Z"/><path class="cls-109" d="M119.34,90.07l-1.18-.81a4.06,4.06,0,0,1-1.59-2.39c-.33-2.15-.21-4.1,1.62-5.72.73-.65,1.2,0,1.79-.13.4-.88-.49-1-.84-1.52s0-1,.12-1.5c0-.29.41-.24.67-.19.62.11.64.62.59,1.07-.14,1.17.78,2.23.25,3.52-.16.39,0,1.87,1.44,1.47.74-.2.86.19.85.87a19.55,19.55,0,0,0,.25,2.52c-1.29,1-2.82,1.86-3.18,3.78Z"/><path class="cls-110" d="M109,92.81c2.65-.12,5.35.86,7.95-.51.38-.2,1,.4.86-.74-.09-.67.7.06,1.1.07l-.39.78a7.43,7.43,0,0,1-.84,4.17c-.23.38-.54,1.27-1.11.73-.9-.87-2.63-.72-2.92-1.19-1.39-2.23-2.59-.36-3.85-.14l-.22.15c-1.22-.5-.76-2-1.59-2.72a2.44,2.44,0,0,0,0-.27.84.84,0,0,1,.27-.46A.62.62,0,0,1,109,92.81Z"/><path class="cls-30" d="M127.67,74.59c.69,1.7,0,3.36-.29,5-.18.89-.55-.29-.91-.24-1-1.5-2.45-.56-3.71-.52-.18-.59,0-1.1.43-1.19,1-.21,1.78-.38,1.31-1.79-.23-.66.62-1.06,1.19-.8C126.55,75.42,127,74.76,127.67,74.59Z"/><path class="cls-111" d="M78.93,90.43c.43-.71-.27-2.11,1.3-2.1-.09,1.31,1,1.91,3.13,1.63a1.58,1.58,0,0,0,1.25-2.63c-.09-.16-.34-.37-.31-.43.18-.32,1.36,0,.57-.9-.27-.28-.85-.28-1.28-.42-.18-.06-.34-.17-.65-.31,2.78-1,3.14,0,3.64,2.23.17.7.65.49,1.06.56.07.53-.19,1.16.41,1.56,1-.36,1.9-1.21,3-.26.17,2.69-.81,4.12-3.31,4.77a2.06,2.06,0,0,0-1.08.44c-1.86,2-3.6,1.17-5.34-.17.4-.61,1.1-.28,2.1-.65C81.45,92.89,79.33,92.67,78.93,90.43Z"/><path class="cls-112" d="M94,88.45c-.45.13-1.27-.27-1.28.41A1.34,1.34,0,0,0,94,90c1.57.15,3.15.28,4.72.42.27.91,0,1.71-.92,1.79-1.39.12-2.62.92-4,.81a20.74,20.74,0,0,1-2.68-3.83.89.89,0,0,1,0-.56,1.35,1.35,0,0,1,1.62-.9,1.52,1.52,0,0,1,.48.31A.83.83,0,0,1,94,88.45Z"/><path class="cls-113" d="M93.2,88.06h-.4c-1.15-1-1.37-.11-1.6.77l0,.07c-.15.11-.2.36-.45.33-1-.24-1.73,1-2.75.39.23-.77-.66-2.16,1.14-2.09.32,0,.43-.27.39-.57-.08-.53-.79.11-.87-.48l1.86-1.38c.69,2.63,2.61.75,3.91,1.14C94.48,87.15,93.14,87.12,93.2,88.06Z"/><path class="cls-16" d="M84.48,78.54c-.8-.12-1.68.33-2.38-.39.4-.5,1.45-.49,1.14-1.55-.15-.53-.71-1.29-.13-1.6a5.24,5.24,0,0,1,2.26-.18c.44,0,.53.3.41.67s-.34,1-.51,1.47S84.74,78,84.48,78.54Z"/><path class="cls-81" d="M82.39,77.24c-.1-.08-.29-.15-.36-.29s.08-.34.26-.32a.63.63,0,0,1,.43.25C82.82,77.08,82.66,77.2,82.39,77.24Z"/><path class="cls-30" d="M109.84,84.09l-1.18-.79c1.21-.86-.61-.68-.41-1.19.6,0,1.27,0,1.09-.91-.06-.35-.41-.78.18-1a.76.76,0,0,1,1,.48c.27.66.93.9,1.34,1.4C111.74,83.86,111.74,83.86,109.84,84.09Z"/><path class="cls-114" d="M104.28,83.69c-.12.82.47,2.07-1.18,2l-.79-.8C103,84.48,103.63,84.09,104.28,83.69Z"/><path class="cls-80" d="M82.29,80.3c-.15-.54.12-1.08.45-1,.64.08.28.51,0,.77A1.78,1.78,0,0,1,82.29,80.3Z"/><path class="cls-115" d="M75,106.28c0,1.28-.74,2.78,1.4,3.24.81.18-.26.77-.13,1.26.19.75-.23.57-.62.31a.74.74,0,0,0-1.23.61c.85,2.19-1.12,2.31-2.15,3.06-.52.38-1.52.27-.79,1.42.37.56-.31.71-.77.79-2.46.42-5,.21-7.41,1.06-.6.21-.88-.5-1.37-.65v-1.19c.91-.4.79-1.22.79-2a6.87,6.87,0,0,1,4.11-1.58c1.23,0,2.15-.84,3.22-1.29a1.24,1.24,0,0,0,.58-1.68c-.24-.7-.83-.44-1.33-.32a1.75,1.75,0,0,1-1.83-.28c.65-1.37,2.39-1.77,2.83-3.43.2-.77,2.55-.26,3.26.59C73.92,106.68,74.49,106.12,75,106.28Z"/><path class="cls-116" d="M67.44,109.06c.65,0,1.38.2,1.91-.24.86-.7,1.65-.45,1.83.42s.49,2-.61,2.55c-2.46,1.31-5.3,1.45-7.88,2.42a1.65,1.65,0,0,1,1.58-1.59C66.08,112.11,66.68,110.51,67.44,109.06Z"/><path class="cls-89" d="M59.75,111.64a1.63,1.63,0,0,0-1.62.44c-.34.31-.9.73-1.4.23-.66-.66,0-1.37.14-2a.9.9,0,0,1,1.39-.58,4,4,0,0,0,2.63.51c.43,0,1.15-.57,1.11.4a1,1,0,0,1-1.13,1.07Z"/><path class="cls-19" d="M50.79,108a.62.62,0,0,1,.66.57c0,.45-.28.66-.67.81s-.52-.23-.54-.49A.83.83,0,0,1,50.79,108Z"/><path class="cls-30" d="M111.43,78.55a3.84,3.84,0,0,0,1.07,1.28c.7.58,1.4,1.47.11,2.28-.42-.91-.55-2-1.89-2.22a.88.88,0,0,1-.55-1.11C110.39,78.35,111,78.6,111.43,78.55Z"/><path class="cls-117" d="M90.8,89.23l.45-.33c.72,1.34,2.27,2.18,2.34,3.91a3.75,3.75,0,0,1,.06,1.11c-.34,1.55-.38,3.14-.67,4.7-.38.67-1.11.93-1.66,1.41a.46.46,0,0,1-.5-.09H89.63c-1,0-1.24,1.16-2,1.58-1.74.39-3.46,1.26-5.26.16-.53-.32-1,0-1.48.24-.5,0-1.23.17-.79-.8l.12-.25c1.43-.26,1.71-1.74,2.65-2.52,0-2-.43-2.37-2-1.63-.29.14-.47.2-.62-.07-.34-.63.5-.67.59-1.09l.4-1.17c2,.67,4,1.41,5.8-.69.44-.5,2.62-.22,2.6-.76C89.66,91.5,91.18,90.65,90.8,89.23Z"/><path class="cls-118" d="M80.12,101.13c-1.48.15-3.14.87-4-1.19a3,3,0,0,1,1.28-1.17c.81-.4,1.54-.75,2.36-.07A1.63,1.63,0,0,1,80.12,101.13Z"/><path class="cls-91" d="M80.88,102.34c-.32,1.48-1,.73-1.72.65C79.55,101.86,80.51,103,80.88,102.34Z"/><path class="cls-94" d="M80.12,101.13c-.05-2.73-.48-3-2.91-1.71l-1,.52c.36-1.62,1.65-2.62,2.89-1.94a5,5,0,0,0,3.84.36C82.46,99.77,82.22,101.38,80.12,101.13Z"/><path class="cls-119" d="M90.82,99.94h.39a1.94,1.94,0,0,1,2-.41c2.87,1.22,6,.72,8.93,1.17a2.55,2.55,0,0,0,2.41-.94c.94-1,1.9-2.19,3.52-2.31.87-.06.91-1.26,1.74-1.47h0c.15.61,3,0,.76,1.74-.31.24,0,.48,1.22.24v.8c-.23.61.24,1,.39,1.58l2.11-.34c-.24,1-.94,1.14-1.71,1.13a3.63,3.63,0,0,1-2.1.4c-1.3,0-2.3.3-2.38,1.89,0,.82-.75,1-1.41,1.09-1.26.23-2.5.48-3.81.74.59,1,1.57.35,2.19.78-.5,1.41-1.62,1.51-2.87,1.47-.6,0-1.36-.33-1.78.42a.6.6,0,0,0,.11.54,1.28,1.28,0,0,0,1.77.2.68.68,0,0,1,.37-.14,3.46,3.46,0,0,1,2,.49.54.54,0,0,1,.14.71c-.49.92-1.33.17-2,.4-.47.18-1-.51-1.53.17a6.9,6.9,0,0,0,3.44,1.44c-1.25.82-2.09,1.65-3.37.74a1.89,1.89,0,0,0-.93-.23c-.67-.08-1.59.59-1.94-.31-.28-.71,1.1-.57,1.13-1.51-1.43-.23-2.77-.44-3.55,1.28-.17.38-.65.62-1,.92H94c-1.81,1.52-3.87,1.15-5.93.79-.54-.81-1.66-1.36-.81-2.71.24-.38-.71-1.09-1.24-.87-.79.32-.87-.26-1.33-.71,2.62-.12,1.71-2,1.68-3.27-.1-3.31.52-3.94,3.9-3.27C89.33,101.41,90.39,100.76,90.82,99.94Z"/><path class="cls-100" d="M124.36,110.7a1.41,1.41,0,0,1-1.08,1,.86.86,0,0,1-1.09-.83c-.06-.59.44-.84.88-.83S124.14,110.08,124.36,110.7Z"/><path class="cls-100" d="M125,113.56c-.08.41-.31.58-.57.51a.94.94,0,0,1-.57-.44.31.31,0,0,1,.35-.47A3.09,3.09,0,0,1,125,113.56Z"/><path class="cls-104" d="M131.51,118c.45-.26.86-.28,1.17.15a.61.61,0,0,1,0,.49A.86.86,0,0,1,131.51,118Z"/><path class="cls-104" d="M112.21,100.34c-.39-.46-1.06-.86-.39-1.58A2.58,2.58,0,0,1,112.21,100.34Z"/><path class="cls-120" d="M88.05,113.42c1.91-.74,4,0,5.93-.79,0,.52,0,1,.73,1.17.56.11,1.49-.34,1.55.66s-.91,1-1.48,1.33a31.45,31.45,0,0,0-10.47-.12c-.31.06-.7.19-.81-.24a.87.87,0,0,1,.27-.67,1.71,1.71,0,0,1,1.73-.66A3,3,0,0,0,88.05,113.42Z"/><path class="cls-99" d="M141,119.91c-.67.3-1.18.39-1.7-.17C139.85,119.22,140.32,119.26,141,119.91Z"/><path class="cls-67" d="M139.14,109.18c-.07.32-.17.56-.47.59s-.58,0-.48-.37c.05-.15.37-.25.59-.31C138.85,109.07,139.18,108.86,139.14,109.18Z"/><path class="cls-119" d="M87.65,101.53c.36-.9.63-1.92,2-1.58C88.87,100.34,89.13,102,87.65,101.53Z"/><path class="cls-121" d="M109,92.81a5.7,5.7,0,0,1-.81,0c-1.11-1.85-2.47-.54-3.7-.49,1.25.15,2.6-.45,3.7.49a3.55,3.55,0,0,1,0,.44c-.8.88-2,.79-3,1.09-.81.19-1.62.47-2.29-.37-.54-.68-1.2.06-1.8-.06a.72.72,0,0,1-.58-.5c0-1-.66-1.85-.48-2.86a.85.85,0,0,1,.57-.84,2.3,2.3,0,0,0,2.16.44c1.72-.59,3.39,0,5.07.52C109.15,91.05,108.93,92,109,92.81Z"/><path class="cls-122" d="M100.72,93.21l.4.4c1.9,1,2,1.45.33,2.48-.7.18-1.41.33-2-.35-.09-2.1-.09-2-2.24-1.82-1.34.12-2.82,1.19-4-.31a.82.82,0,0,1,.39-.8c1.47-.15,2.71-1.21,4.32-1,.62.08.45-1,.84-1.39.47-.69.83-1.69,2-.78-.13.26-.25.52-.37.77A4.25,4.25,0,0,0,100.72,93.21Z"/><path class="cls-123" d="M99.53,95.59a1.32,1.32,0,0,0,1.59,0c1.91.93,3.07,0,4-1.59a9.18,9.18,0,0,1,3.17-.79c.94.69.92,1.93,1.59,2.77-.32,2.42-3.08,1.84-4.15,3.42-1.78,2.61-4.39,1.33-6.81,1.52-2.73.22-5-1.37-7.67-1,.12-.94.87-1,1.59-1.19C94.35,96.23,96.81,95.64,99.53,95.59Z"/><path class="cls-80" d="M91.2,88.83c0-.62-.78-1.43.28-1.83.91-.35,1,.56,1.32,1.06C92.06,87.88,91.66,88.43,91.2,88.83Z"/><path class="cls-124" d="M99.53,95.59c-2.37.79-4.84,1.36-6.73,3.16-.47-1.76.24-3.43.4-5.14,1.62.81,3.22,0,4.69-.34a1.72,1.72,0,0,1,2,.46C100.71,94.56,99.74,95,99.53,95.59Z"/><path class="cls-112" d="M92.28,92.42c-.19-.13-.43-.19-.46-.31-.08-.32.17-.44.43-.41a.52.52,0,0,1,.34.32C92.6,92.13,92.41,92.26,92.28,92.42Z"/><path class="cls-125" d="M105.08,94a1.87,1.87,0,0,1-.26.53c-.46.51.4,1.68-.32,1.61-1.11-.11-2.53,1.09-3.38-.55,2.94-.66-.23-1.32,0-2,.89-.33,1.86-1.57,2.52.36C103.79,94.43,104.58,93.85,105.08,94Z"/><path class="cls-107" d="M103.52,91.89c1.47.23,2.32-.87,3.56-.69.72.1,1.36.23,1.33,1.06,0,1-.9.57-1.32.47C106,92.48,104.73,93.35,103.52,91.89Z"/><path class="cls-125" d="M100.72,93.21c-1.24-.77-.83-1.77-.39-2.78.65.68,0,1.89,1,2.43Z"/><path class="cls-126" d="M164.74,156.53a5,5,0,0,1-4.93,5l-30.64.22h0a5,5,0,0,1-3.64-8.35,25.45,25.45,0,0,0-18.61-42.8h-.18a25.46,25.46,0,0,0-19.08,42.11,5,5,0,0,1-3.7,8.22l-29.62.21h0a5,5,0,0,1,0-9.92l20.6-.15a35.4,35.4,0,0,1,31.78-50.41h.27a35.42,35.42,0,0,1,31.71,51.1l21.14-.15h0A5,5,0,0,1,164.74,156.53Z"/><path class="cls-126" d="M164.86,173.64a4.91,4.91,0,0,1-1.43,3.52,4.84,4.84,0,0,1-3.49,1.48l-105.5.75h0a5,5,0,0,1-3.54-8.46,5,5,0,0,1,3.49-1.48l105.5-.73h0A5,5,0,0,1,164.86,173.64Z"/></g></svg>