<svg xmlns="http://www.w3.org/2000/svg" viewBox="0 0 211.38 272.57"><defs><style>.cls-1{fill:#f7ebf2;}.cls-2{fill:#a173a8;}.cls-3{fill:#c27aab;}.cls-4{fill:#da99be;}.cls-5{fill:#a377ab;}.cls-6{fill:#9f70a6;}.cls-7{fill:#db9ec1;}.cls-8{fill:#bb7cad;}.cls-9{fill:#d691b9;}.cls-10{fill:#a67aad;}.cls-11{fill:#cb7dad;}.cls-12{fill:#b276aa;}.cls-13{fill:#dda2c4;}.cls-14{fill:#ae77ab;}.cls-15{fill:#a67bad;}.cls-16{fill:#887bb0;}.cls-17{fill:#6e65a3;}.cls-18{fill:#af88b5;}.cls-19{fill:#ba99c0;}.cls-20{fill:#a97faf;}.cls-21{fill:#d58db7;}.cls-22{fill:#c1a4c6;}.cls-23{fill:#8e85b6;}.cls-24{fill:#8d6ea7;}.cls-25{fill:#9b76ab;}.cls-26{fill:#9491bd;}.cls-27{fill:#956fa7;}.cls-28{fill:#af7cae;}.cls-29{fill:#a678ab;}.cls-30{fill:#7f79ae;}.cls-31{fill:#8266a2;}.cls-32{fill:#d696bd;}.cls-33{fill:#b490ba;}.cls-34{fill:#ae86b4;}.cls-35{fill:#b28db9;}.cls-36{fill:#776ca6;}.cls-37{fill:#a87eaf;}.cls-38{fill:#b181b0;}.cls-39{fill:#c59bc1;}.cls-40{fill:#c48cb7;}.cls-41{fill:#d090b9;}.cls-42{fill:#c0a2c5;}.cls-43{fill:#8c72a9;}.cls-44{fill:#987aae;}.cls-45{fill:#8b87b7;}.cls-46{fill:#916fa7;}.cls-47{fill:#9e82b2;}.cls-48{fill:#ede5ee;}.cls-49{fill:#958ab8;}.cls-50{fill:#bd9dc2;}.cls-51{fill:#c679aa;}.cls-52{fill:#b575a8;}.cls-53{fill:#c17eae;}.cls-54{fill:#bd78aa;}.cls-55{fill:#ba76a9;}.cls-56{fill:#b47eaf;}.cls-57{fill:#cf8ab5;}.cls-58{fill:#d594bb;}.cls-59{fill:#b179ac;}.cls-60{fill:#a67aac;}.cls-61{fill:#ad78ab;}.cls-62{fill:#a97fb0;}.cls-63{fill:#b089b6;}.cls-64{fill:#b077aa;}.cls-65{fill:#b578aa;}.cls-66{fill:#ac73a7;}.cls-67{fill:#d08eb7;}.cls-68{fill:#d494bb;}.cls-69{fill:#b475a9;}.cls-70{fill:#be94bd;}.cls-71{fill:#b380b0;}.cls-72{fill:#cc84b1;}.cls-73{fill:#ca7aaa;}.cls-74{fill:#c87bac;}.cls-75{fill:#aa81b1;}.cls-76{fill:#ac73a8;}.cls-77{fill:#716ba7;}.cls-78{fill:#9678ad;}.cls-79{fill:#a57eb0;}.cls-80{fill:#8474ab;}.cls-81{fill:#7a70a9;}.cls-82{fill:#8a80b3;}.cls-83{fill:#7b72aa;}.cls-84{fill:#9977ac;}.cls-85{fill:#bd8ab6;}.cls-86{fill:#8f6da6;}.cls-87{fill:#7967a4;}.cls-88{fill:#856aa5;}.cls-89{fill:#b793bc;}.cls-90{fill:#bf87b4;}.cls-91{fill:#b67aac;}.cls-92{fill:#9675aa;}.cls-93{fill:#9676ab;}.cls-94{fill:#b883b2;}.cls-95{fill:#9870a7;}.cls-96{fill:#ad76aa;}.cls-97{fill:#7968a4;}.cls-98{fill:#cfc4db;}.cls-99{fill:#c77eae;}.cls-100{fill:#c27cac;}.cls-101{fill:#be79ab;}.cls-102{fill:#a877aa;}.cls-103{fill:#c98eb8;}.cls-104{fill:#c883b1;}.cls-105{fill:#a477ab;}.cls-106{fill:#a578ab;}.cls-107{fill:#c6a3c6;}.cls-108{fill:#d0b8d3;}.cls-109{fill:#6c65a3;}.cls-110{fill:#c58fb9;}.cls-111{fill:#a672a8;}.cls-112{fill:#bc96be;}.cls-113{fill:#796ca7;}.cls-114{fill:#a694be;}.cls-115{fill:#af7cad;}.cls-116{fill:#b97cad;}.cls-117{fill:#c587b4;}.cls-118{fill:#a77aad;}.cls-119{fill:#bf7eae;}.cls-120{fill:#a87bad;}.cls-121{fill:#c094bc;}.cls-122{fill:#a883b2;}.cls-123{fill:#b983b2;}.cls-124{fill:#bc95bd;}.cls-125{fill:#b78cb7;}.cls-126{fill:#fff;}</style></defs><title>2413150</title><g id="OBJECTS"><path class="cls-1" d="M114.17,237.2h-10.7a.44.44,0,0,1,.19-.63,30.56,30.56,0,0,1,10.32,0A.47.47,0,0,1,114.17,237.2Z"/><path class="cls-2" d="M25.37,173.41a9.13,9.13,0,0,1-.61-2.84,19.7,19.7,0,0,0,1.82-3.23c.66-1.26.32-1.86-1.09-1.92-.57,0-1.31.09-1.4-.74s.52-1,1.12-1.18a1.76,1.76,0,0,0,1.36-2.69,3.42,3.42,0,0,1,.11-2.5c.38-1.09.8-2.14,2.26-2.06a.9.9,0,0,0,.68-.38c1.58-1.75,3.68-1.87,5.83-1.84a7.45,7.45,0,0,0,2.16-.1c.49-.13.54-.5.46-.94-.15-.76-.6-.31-.84-.16-1.47.9-3.06.56-4.63.51-.47,0-1,0-1.07-.61s.21-1,.7-1c1.62,0,2.74-1.62,4.46-1.24.78.17.73-.39.76-1,.11-2.26,1-3,3.26-2.8.38,0,.89.36,1.13,0,1-1.43,2.15-2.23,3.95-1.77.18,0,.44-.19.41-.36-.23-1.86,1.82-2.27,2.35-3.69.35-.94,3-.87,4.31.07.8.57,1.48,1.3,2.32,1.83a1,1,0,0,1,.48,1,2.19,2.19,0,0,0,2.17,2.47c.85.08,1.42.29,1.59,1.14.73,3.53,1.51,3.36,4.78,3a3.79,3.79,0,0,1,4.34,2.07c.61,1.06,1.2,1.75,2.62,1.32,1.1-.33,2.2.29,3.29.52s1.48,1,.77,2.06a2.07,2.07,0,0,0-.52,1c.47.51,1,.16,1.51.18s1.2-.05,1.42.47c.32.76-.45.95-1.28,1.51a4.78,4.78,0,0,1,3.77-.6c1.36.39,2.56,1,4.15.25,1-.43,2.2.88,3.24,1.44a8.45,8.45,0,0,0,6.65.78c.76-.22,1.46-.29,1.68.75,0,.11-.33.43.28.37a14.26,14.26,0,0,0,6.06-1.71c2.83-1.81,5.51-.93,8.29-.87a1,1,0,0,1,1.12.89c-.38.75-1.29,1.44.17,2.15.59.29.51,1.19.24,1.82a11.15,11.15,0,0,1-1.76,3.28c-2.09,2.29-3.35,5.16-5.37,7.5a5,5,0,0,0-1,3.49c0,2.49.46,4.93.5,7.41-1.61,0-3,1.72-4.77.63a2.32,2.32,0,0,0-1.18-.7,15.52,15.52,0,0,1-6.58-2.77,8.55,8.55,0,0,0-6.3-.85,13.23,13.23,0,0,1-5.61.13,48.52,48.52,0,0,0-6.14-.59c-.16.26-.09.31,0,.42.66.56,2,.65,1.8,1.78s-1.45.55-2.21.83a8.63,8.63,0,0,1-4.1.23c-.45-.05-1,.08-1.22-.44s.18-1,.54-1.37a2.87,2.87,0,0,0,.87-1.18c-1.25-.25-2.4.21-3.54.25-.81,0-1.29-1.51-2.42-.27-.53.59-2-.2-3,.12s-2.08-.1-3.14.12c-1.4.28-2.78,0-4.17,1s-2.92-.27-2.75-2.19a6.48,6.48,0,0,1,.64-2.27A16.62,16.62,0,0,0,52,177.4a3.21,3.21,0,0,0-2.36-.31c-2,.13-3.43-1.26-5.24-1.56a.21.21,0,0,1-.15-.11c-1.47-2.8-4.38-1.52-6.57-2.3-.27-.09-.78.25-.94,0-1.88-2.52-3.84-.22-5.71,0-1.31.13-1.68-.22-1.69-1.42-.92,1.37-2.66,1.33-3.91,2.19a.3.3,0,0,1-.17-.29C25.31,173.47,25.34,173.41,25.37,173.41Z"/><path class="cls-3" d="M59.9,222.49a1.15,1.15,0,0,0-1.16-.76,8.5,8.5,0,0,1-3.59-2.79h0c-.76-.42-1.62-.72-2-1.61l-.37-.37c-.6-.42-1.57-.57-1.22-1.68a3.56,3.56,0,0,0,1.78-2.23,1.22,1.22,0,0,1,.66-.93c2.12-1,2.59-3,3-4.95A2.17,2.17,0,0,1,59,205.27c.9,0,1.53-.14,1.83-1.23A6.83,6.83,0,0,1,62.65,201c.25-.09.6-.21.75-.05,1.45,1.42,2.93.83,4.49.23a2,2,0,0,1,1.88.29c.13,1.5-1.81.57-1.91,1.72,2.63,1.31,5.58,1.49,8.53,1.66.47,0,1.21-.18,1.3.54s-.5,1.09-1.08,1.25a3.06,3.06,0,0,0-2.19,1.77c-.39.81-2.93,1.39-3.77,1-1.38-.64-.16-1.22.06-1.79-2.24-2.16-4.52-.61-6.8-.11,1.48.77,3,.14,4.53.22.51,0,1.11-.25,1.44.33a1.44,1.44,0,0,1-.16,1.5c-.46.68-1,.31-1.58.1a1.08,1.08,0,0,0-.77-.05c2.06.47,4.21.61,6.16,1.5,1.22.56,1.42-.37,1.48-1s-.62-1.3.39-1.6a2.06,2.06,0,0,1,2.3.73c1,1.14,1,1.12,1.82,1-1.18.56-1.34-.76-1.61-1.82-.16-.63.3-1.21.86-.91,1.42.76,2.69,0,4-.17s2.48-.37,2.36,1.54c0,.2.08.54.2.5,1.91-.58,3.29,2,5.48.71,1.5-.84,2.46,0,2.77,1.78.2,1.08.55,1.78,1.59.7s1.43.44,2.24.36c-.85-.05-.74-1-1.3-1.31-.36-.21-1.08-.18-.9-.81s.85-.79,1.47-.79a21.9,21.9,0,0,1,4.06.61c-1.17-.59-1.74-1.29-.56-2.42.69-.67.64-1.8,1.39-2.45.59-.77,1.18-1.55,2.19-.51.55.56,1.19.26,1.84.23a11.28,11.28,0,0,1,5.53.78,2,2,0,0,1,1.29,2c.14,2.57.66,3,3.17,3a3,3,0,0,1,2.37.71,1.6,1.6,0,0,0,1.84.24c1-.4,2.16-.51,3.22-.9s2.13-.22,2.22,1.3a2.45,2.45,0,0,0,1,1.86c1.2,1.08,2,2.64,4,2.61a1.33,1.33,0,0,1,1.18,1.57,2,2,0,0,0,1.06,2.14c.65.43,1.11.89.69,1.77s.38,1.08.91,1.44c1.75,1.2,2.07,2.47.95,4.19,1.23.53,2.5-1,3.55,0a7.08,7.08,0,0,1,2.15,2.75c-.15.35-.51.34-.81.44a1.66,1.66,0,0,1-2,.78l-2.74.77c-2.21-.17-4.41.21-6.65,0-1.47-.15-3,1-4.58.37a4.69,4.69,0,0,1-1.1-.41c-.68-.91-2.37-.89-2.31-2.49,0-1.09-.33-1.94-1.57-2.17s-1.56-1-1.73-2.08c-.35-2.18-1.45-2.57-3.29-1.24-2.67,1.93-5.32,3.86-8.59,4.76a10.88,10.88,0,0,1-4.28.56,36.38,36.38,0,0,0-11.77.77,5.11,5.11,0,0,1-3.08-.36,20.62,20.62,0,0,0-5.93-1.51,10.42,10.42,0,0,1-4.68-1.36c-1.69-1.05-3,.31-4.3,1.09l0,.11a3.51,3.51,0,0,1-3.18-1.55l-7.11-4.05C60.53,223.27,60.22,222.87,59.9,222.49Z"/><path class="cls-4" d="M194.21,159.14a.6.6,0,0,0,0,.35.37.37,0,0,1-.47.12,1.84,1.84,0,0,1-.39-.44c-1.39,1.22-2.71.49-4-.14-.33-.15-.57-.53-.83.16A2.32,2.32,0,0,1,186,160.5c-1.92-.13-3.39.78-4.92,1.65a7.92,7.92,0,0,1-1.22.65,1.14,1.14,0,0,1-1.29-.16c-.43-.43-.24-.83.09-1.21a1.23,1.23,0,0,0,.14-1.15c.16,1-.43,1.26-1.24,1.2a4.46,4.46,0,0,0-4.44,2.26c-.32.52-.84,1.26-1.57.87-1-.52-2.28-.84-2.62-2-.25-.81.71-1.25,1.47-1.51,1.29-.51-.18-1,0-1.53a.25.25,0,0,1,.22-.2c-.12,0-.19,0-.2.18-.25.52.66,1.07-.06,1.56-1.23-.21-1.94-1.46-3.28-1.55-.55,0-.47-.74,0-1s1.06-.54.93-1.29c.06-.16.26-.2.34-.34a1.21,1.21,0,0,0-.39.42c-.16.55-.52,1-.9.32-.58-.95-1.52-2,0-3,.87-.59.71-1.36,0-2-.93-.78-.54-1.38.25-1.83,2-1.13,2.44-2.69,1.74-4.85-.26-.8.17-1.79-.21-2.69a.67.67,0,0,1,.58-.88c1.15-.16,1.19-.86,1.16-1.82a1.64,1.64,0,0,0-1.59-1.7c-3.06.31-2.19-2.41-3.06-3.76a2.63,2.63,0,0,1-.12-1,1.57,1.57,0,0,1,.31-1,72.56,72.56,0,0,0,2-8c.19-1.32-.79-1.86-2.05-2.14a25.34,25.34,0,0,0-7.17-.1.75.75,0,0,1-.59-.5,1.58,1.58,0,0,1,1.38-1.81c.68-.12.14-.66.46-.83,2.74-1.93,5.74-1.93,8.84-1.19.69.16,1.37.48,2.11-.11-.8-.77-1.62-.3-2.41-.19-.59.09-1.3.18-1.51-.54s.45-1,1-1.26a6.83,6.83,0,0,1,2.81-.87c1.38,0,2.78.13,3.1-1.79.07-.43.68-.59,1.13-.7a15,15,0,0,1,6.82-.43c1.18.26,2.48.55,2.88,2,.24.87,1,1,1.72,1a.8.8,0,0,1,.42.35,2.14,2.14,0,0,0,.48,1.51,4.17,4.17,0,0,1,1.59,4l.68,1.3c.43.32.35.69.12,1.09q.79,2.57,1.58,5.15a3.63,3.63,0,0,1,1,3.61,48.84,48.84,0,0,0,1.3,7.09,1.65,1.65,0,0,1,.43,1.14c-.09.69-.51,1.37-.07,2.08a.66.66,0,0,0,0,.34,1.6,1.6,0,0,1,.43,1.28,11.16,11.16,0,0,0,0,4.71v3.87a11.12,11.12,0,0,0,0,4.7A1.6,1.6,0,0,1,194.21,159.14Z"/><path class="cls-5" d="M111.39,160.73c-2.44-1.16-5-.28-7.56-.67-.67,2.15-2.74,1.16-4.06,1.85-.88.46-1.62,1.25-2.75.61-.37-.22-.59.06-.7.42a.68.68,0,0,1-.92.51c-.84-.33,0-.69.06-1,.08-.76-.25-1-.92-.74a7,7,0,0,1-7.07-.72c-.86-.62-2.44-.08-2.91-1.95-1,2.15-2.45,1.19-3.64.7a4,4,0,0,0-3.87,0,1,1,0,0,1-1.61-.64c.6-.41,1.63.07,2-1a3,3,0,0,0-1.87,0c-.5.15-1.09.49-1.43-.06a1.41,1.41,0,0,1,.41-1.77c1.45-1.28.69-1.41-.67-1.61s-2.74-.85-4.17-.06c-.49.28-.57-.25-.79-.58a18.46,18.46,0,0,0-1.61-2.45c-.8-.88-1.57-1.27-2.69-.67-1.3.7-2.65-.24-4,0-.48.11-1.54-1.51-1.58-2.74,0-.9.35-2.17-1.37-1.15-.54.33-.87-.42-1.27-.72-.57-.43-.81-1.66-2-.78-.25.19-.7-.21-.61-.54s-.07-1.17.75-1.15c.3,0,.62.28.9-.3-1.67-1.24-3.3-2.58-5.48-3a1.41,1.41,0,0,0-.56,0c-.28,1.62-2.65,1.92-2.46,3.79.18,1.71-1.37,1.35-1.8,1.11-1.31-.73-1.82.12-2.35.9s-.87,1.26-2.12.78c-1.9-.72-3.13.77-2.52,2.75.44,1.38-.88,1.43-1.29,1.22a1.78,1.78,0,0,0-2.34.5c-.76.73-2.13-.15-2.82,1.11,2.44.32,4.7.47,6.62-1,.41.12.19.31.2.48.15,2.48.15,2.38-2.65,2.35-2.27,0-4.74-.29-6.16,2.2-.14.25-.4.5-.63.34-1.71-1.18-1.38.87-2.07,1.28a1.47,1.47,0,0,1-.42-1.39c.09-.64.52-1.18.6-1.83s.06-1.14-.7-1.08c-1.58.11-2.51-1.16-3.79-1.67v-1.54a1,1,0,0,0,.32-.24c1.16-1.77,2.34-2.92,4.91-2.39,1.19.24,2.58-.39,3.65.8a2.76,2.76,0,0,1,.37.75c-.4-1.78,1.75-1.95,2-3.31.28-.54.88-.75,1.29-1.12-.29-.74-.87-.58-1.36-.59-.75,0-1.33-.18-1.08-1.14.76-1.39,2.25-1.39,3.53-1.75-1.95.55-3.91-.45-5.86.05-.49.13-.95-.48-.86-1.09a1.14,1.14,0,0,1,1.28-1c1.75.1,3.53-.61,5.27.12a1.24,1.24,0,0,0,1.43-.18c-.81.2-1.43.16-1.62-.6a1.13,1.13,0,0,1,.86-1.37,5.27,5.27,0,0,0,2.68-1.72c-.84-.23-1.83.23-2.19-1s.63-1.31,1-1.91a2.9,2.9,0,0,1,2.36-1.58c.61,0,1.21-.09,1.82-.08,1.71-.44,3.28.93,5,.4a2.44,2.44,0,0,1,.53-.14c1.12-.08,2.24-.19,3.36-.26.75,0,1.55,0,1.81.86s-.71.8-1,1.23a2.14,2.14,0,0,0-.43.61c.65.11,1.32-.14,1.89.18.23.13-.08,0,.17.09,2.3.58,3.15,2,2.43,4.27a5.82,5.82,0,0,0,0,1.56c.14.46.46,1,1,.6,1.11-.89,2.51-.6,3.69-1.13l.46-.27c.7-.6,1.14-1.48,2-1.83.44-.17.93-.33,1.27.12a.75.75,0,0,1-.23,1.05c-.66.58-.47.8.24,1.19a9.18,9.18,0,0,1,2,1.92c.93,1,1.92.71,2.33-.57.16-.51.15-1,.27-1.56a1.73,1.73,0,0,1,1.36-1.51,24.35,24.35,0,0,1,7.07-.49,2.34,2.34,0,0,1,1.5.9,6,6,0,0,0,4.2,2.27c.93.07,1.86.67,1.64,1.83-.17,1,.21,2.46-1.69,2.23.83.1,1.55-.35,2.33-.19,1.58.22,2.5,1.55,3.79,2.26a3.36,3.36,0,0,0,1.94.76c2.36.67,4.66.05,7-.18s4.89-.2,7.21,1.22c1.5.92,3.45,1,5.18,1.55,1.51.48,2.34,1.13,1.74,2.57a9.39,9.39,0,0,0-.38,6C112.27,159.63,112.5,160.55,111.39,160.73Z"/><path class="cls-6" d="M25.5,173.8c.37-.58.53-1.32,1.53-1.24.47,0,.95-.42,1.46-.5,1-.15.17-1.84,1.15-1.53.78.24-.17,1.31.19,2a1.78,1.78,0,0,0,.4.37c.81-1.14,2.47.15,3.31-1.26.66-1.09,1.62-.6,2.3.17s1,1.31,2.17.65c.83-.45,1.87.65,3.05.57.66,0,1.49.39,2.36.2.57-.13,1.48-.08.86,1a.65.65,0,0,0,.48,1.05c2.24.24,4.16,1.94,6.58,1.33a1.78,1.78,0,0,1,1.48.21c.49.54-.35.84-.54,1.28A15,15,0,0,0,51,181.33c-.18.93-.07,1.94.71,2.21s2,.41,2.34-1c.11-.48.51-1,1-.61,1.07.79,2.26,0,3.09.23,1.75.5,3.32-.66,5.08,0,1.26.49,0-1,.7-1.54,1.37,3.52,4.44.3,6.43,1.63-.2,1.21-1.39,1.66-2,2.58,2.52.76,4.82,0,7.52-.26a13.84,13.84,0,0,0-3.49-2.11,3.41,3.41,0,0,1,3-.61c1.48.39,3,.82,4.5,0a.57.57,0,0,1,.84.27c.38,1.35.78.87,1.51.2s1.29.83,2.14.32c2-1.17,4-.28,6-.28a4.28,4.28,0,0,1,3,1.51c1.53,1.49,3.42,1.44,5.21,1.94.39.1,1.41,0,.92,1l-.22.13a14.69,14.69,0,0,1-2.48.37c-.56.07-.71.65-1.11.93a7,7,0,0,1-1,.47,3.76,3.76,0,0,1-1.3.39c-.65-.11-1.1.31-1.64.55-.9.41-3.39-.63-3.73-1.5s.9-.74,1-1.37a1,1,0,0,0-1.27-.06c-1.61,1.27-3.61,1.21-5.43,1.75-1,.3-.82,1.07-.17,1.4,1.46.75,1.52,1.82,1.1,3.14-.36,1.1-.76,2.15-2.23,2-1.57-1.18-3.82-1.65-4-4.28-.06-1-1-1.5-2.1-1.05-.82.34-1.54.81-2.55.33-.64-.3-1.25.32-1.62.88A4.36,4.36,0,0,1,68,192.92c-1.67.43-3.06,1.67-5,1.67-.56,0-1.88.32-.9,2,.5.84-.47,2.77-1.67,3.78a11.49,11.49,0,0,1-7.26-1.16,4.17,4.17,0,0,0-2.69-.27c-1,0-2.13.72-2.66-.76a3.76,3.76,0,0,1,.62-1.21c1.11-2.05,1.1-2.12-1-2.95-.37-.14-.79-.27-.81-.73a1.06,1.06,0,0,1,1-1.07,2.09,2.09,0,0,0,1.93-2.28,1.72,1.72,0,0,0-.31-1.29c-.88-1.2-.5-2.61.1-3.89.48-1,.7-2-.26-2.86-.55-.41-1.21-.14-1.8-.28-2.94.5-5-1.83-7.55-2.43a2.32,2.32,0,0,0-2.43-.16,3.44,3.44,0,0,1-2,.62c-1.33-.49-2.67.25-4.07-.15A11.25,11.25,0,0,1,28,178.16a2.25,2.25,0,0,1-.4-.36,2.92,2.92,0,0,0-1.32-1.23l-.13-1.18C25.67,175,25,174.61,25.5,173.8Z"/><path class="cls-7" d="M186.68,116c-1.22.1-2.44.34-2.39-1.62,0-.34-1-.89-1.62-1a14.48,14.48,0,0,0-8,.47c-1.14.35-.16,1.16.11,1.72-2.45.83-5.19.21-7.63,2.2,1.85.56,4.12-1.61,5.06,1.26a6.72,6.72,0,0,1-3.94-.07c-2.74-.92-5.49,0-8.1,1-1.84,0-2.72-.93-2.49-2.75.09-.74.64-1.5-.77-1.89-1.23-.33.34-1.22.1-1.6s-1.45-.26-1.59-1.2a.51.51,0,0,1,.3-.48c1.66-.66.69-1.4.13-2.07-2.3,1.18-4.2,3.06-6.83,3.59a1.56,1.56,0,0,1-.51-.27,7.32,7.32,0,0,0-3.6-3.88,3,3,0,0,1-1.37-4.2c.52-1.15,0-2.35.5-3.44.64-1.08,1.25-2.12.39-3.43-.47-.71,1-1.9-.56-2.48-1-.38-1.92.15-2.89,0a19,19,0,0,1-2.14-.1c-.48-.11-1.13-.17-.84-1,3-2.27,6-2.69,9.26-.58a4,4,0,0,0,4.92,0,12.68,12.68,0,0,1,6.51-1.94c1.29.18,1.71,1.4,2.33,2.22.78,1,.09,2.12-1.38,2.48-.91.23-.9,1-.79,1.56s.2,1.42.89,1.82c.1,0,.24-.06.32-.18a.29.29,0,0,0,0-.36c-.26-.3-.67-.41-.93-.72s-.52-.95.14-1.07c1.6-.3,3.23-.76,4.81.14.3.17.73.57.6.67-1.65,1.39.76,2.38.3,3.56-.21.55-1.09.41-1.54,1a2.34,2.34,0,0,0,2.53.45,2.78,2.78,0,0,1,2.1,0c.71.35,1.6.59,1.66,1.5s-.71,1.29-1.49,1.59a21.65,21.65,0,0,0,4.17.15,2.12,2.12,0,0,0,2.22-1.85c.11-.63-.15-1.5.75-1.6s1.2.66,1.53,1.32a1,1,0,0,0,.3.49c.23,0,.36-.12.48-.28.51-.65.88-1.69,2-1,.95.64,1.38,1.46.24,2.38-.3.25-.09.62-.15.92-.25,1.32-2,2-2.8,1s-1.5-.74-2.17-.29a4.87,4.87,0,0,1-3.87.66c4,.73,8,1.08,11.78-1a.73.73,0,0,1,.5.92c.38.55.75,1.11,1.12,1.67C185.59,112.08,186.84,113.7,186.68,116Z"/><path class="cls-8" d="M140.73,230.87a6.17,6.17,0,0,1-1.32-1.16c-.85-1.36-1.75-2-3.33-1a1.19,1.19,0,0,1-1.74-.38c-.65-1.09.41-.88.86-1.2.61-.43-.22-2.35-1.28-2.83s-2.41-.64-1.08-2.4c.5-.66-1.12-.68-1.44-1.47-.18-.45-1.05-.43-.49-1.39a1.26,1.26,0,0,0-1.24-1.87c-2.52.76-2.61-1.48-3.62-2.58.12-1,.43-2-.2-3-.87-1.46-.18-2.26,1.56-2.16.61,0,1.22.48,2,0-2.28-.12-4.53,0-5.66-2.36,0-1,.67-1.23,1.48-.95,1.14.38,1.76.38,1.51-1.15a1.71,1.71,0,0,1,1.89-2c1.75,0,3.41-1.1,5.2-.36.3.12.6-.21.89-.36a4.09,4.09,0,0,1,2.1.71c1.15,2.44,3.7,2.41,5.76,3.24a4.56,4.56,0,0,1,.52.18c.84.38,1.84.13,2.63.69a1.76,1.76,0,0,1,.39.38c.26,1.48,1.75,1.39,2.64,2.06.32.62,0,1.12-.3,1.63a1.07,1.07,0,0,0,.08,1.44,1.47,1.47,0,0,0,1.6.43c.59-.2,1.13-.9,1.79-.4,1,.74,2.27,1.66,2.48,2.58.27,1.24.84,1.34,1.72,1.56.54.13,1.18.25,1.28,1-1,1.8-3.09.81-4.62,1.48.58.75,1.29.52,1.91.6s1.07.11,1.27.72a1.45,1.45,0,0,1-.52,1.58,3.15,3.15,0,0,1-1.88.95c-3.14.42-3.89,1.06-4.58,3.84l-5.15,2.79a1.42,1.42,0,0,1-1.6.72A2.61,2.61,0,0,0,140.73,230.87Z"/><path class="cls-9" d="M170.43,161.12c-.28.61-1.64,1.07-.69,1.8s2.19,2.34,3.4.08a3.81,3.81,0,0,1,4.44-1.93c.67.13.93,0,.91-.79a1,1,0,0,1,.92-1.08c.09.09.25.22.23.25a9.16,9.16,0,0,0-.82,3,3.83,3.83,0,0,0,3.32-1.54c.77-1,1.63-.8,2.32-.8a13,13,0,0,0,2.09-.16c1.08-.18,2.24-.55,1.34-2.32,3.48,2.12,4.19,2.17,5.64.48l.31,1.46c.34.59,0,1.29.31,1.89a1.39,1.39,0,0,1-.32,1.22c-.78.92-.09,2.25-.88,3.17-.44.74-1.38.71-1.95,1.3.65-.26,1.28-.65,1.95-.12-.13.53-.26,1.06-.4,1.59a1.7,1.7,0,0,1-1.68.27,5.41,5.41,0,0,0-4.28.58s.1,0,.26,0c.69.32,1.85.52,1.72,1.33s-1.31.95-2.14,1.09c-2.12.35-2.58,1-2,3.12.24.83.67,1.58-.73,1.89-.7.16-.13.77.1,1.09.5.72.91,1.43-.17,1.93-.88.41-1.78.56-2.45-.45-.32-.5-.46-1.09-.82-1.56-1.35.93-2.11.8-2.52-.44-.89-2.7-1.34-3-4.17-2.72-1.44-.2-2.85.38-4.32.09-2.8-.54-3.92-1.65-4.16-4.44,0-.19,0-.44-.11-.57-2.3-2.32-.16-4.39.38-6.54a7.68,7.68,0,0,0-.38-4.12c-.54-1.72-1.85-3.18-1.88-5.17,0-.44-.83-.63-.92-1.22.58-1.3.72-2.73,1.62-4a3.71,3.71,0,0,0-.11-3.18c-.85-1.54-.14-2.53.63-3.53s1.75-2.12-.06-3.15c-.22-.13-.46-.54-.35-.66,1.18-1.15.37-3.27,2-4.16.07,1.47,1.71,2.5.89,4.49,2-1.36,2.94.43,4.28.81a4.56,4.56,0,0,0,.1,2.78c0,.18-.94.57-1.55.49a.66.66,0,0,0-.77.35c.37.68,1.49,1.38.38,2.39a.55.55,0,0,0,.16.86c.87.46.11,1.11.2,1.43.7,2.71-2,2.72-3,4,2,1.49,2,1.77.15,3.44-.85.76.15,1.41.34,2.05s.47-.21.76-.15c.53,1.12.53,1.12-1.39,2.09A4.29,4.29,0,0,1,170.43,161.12Z"/><path class="cls-10" d="M39.68,178.56c2.73.67,5,2.79,7.93,2.77.22,0,0,1.08.65.24.16-.23.59-.24.93-.24a2.06,2.06,0,0,1,1,3c-.87,1.63-1.26,3-.15,4.76.78,1.25-.36,3-1.91,3.37-.42.11-.9.21-1.1.81.77.89,2.93-.46,2.87,1.45A3.26,3.26,0,0,1,48,198c-1.13.43-1.09-.48-1.25-1.11-.65-2.67-1.49-3.09-3.94-2a3.11,3.11,0,0,1-.5.21,3.79,3.79,0,0,0-4,2.87c-.25.71-.72.82-1.36.73h-.33a1.69,1.69,0,0,1-.82-1.26c0-.32,0-.6-.4-.71a1.87,1.87,0,0,1-.8-1.25.67.67,0,0,0-.07-.31c-.64-.52-1.39-1-1.14-2a5.56,5.56,0,0,0-1.15-2c-.63-.5-1.15-1.05-.9-2-.62-1.2-.87-2.59-1.89-3.58a9.23,9.23,0,0,1-1.61-4c-.42-1.57-.83-3.14-1.25-4.7,1-.62.9.39,1.23.77a8.71,8.71,0,0,0,3.09,1.62,2.78,2.78,0,0,0,2.57-.1,1.9,1.9,0,0,1,1.87.07l2-.8A17.18,17.18,0,0,0,39.68,178.56Z"/><path class="cls-7" d="M71.34,228.78c1-1.66,2.73-2.67,4-1.81,1.91,1.32,4,1.43,6.11,1.74A20.28,20.28,0,0,1,87,230.38c1.38.63,2.84.12,4-.23,3.44-1,6.85-.55,10.29-.49a15.87,15.87,0,0,0,9.48-3.24,36.28,36.28,0,0,0,3-2.17c1.71-1.45,3.31-1.44,3.66.4a4.27,4.27,0,0,0,3.22,3.71,1.71,1.71,0,0,1,.2,2.1s-.13.13-.12.15c1.17,2.12-.29,2.39-1.83,2.63a3.08,3.08,0,0,0-1.75.85c-.85.82-2,1.25-2.82.38s.05-2,.58-2.85c.16-.27.58-.27.92-.56a1.65,1.65,0,0,0-1.87.75,4.85,4.85,0,0,1-1.65,1.66,1.45,1.45,0,0,0-.65,1.72c.2.76.87.64,1.45.73,1.54.22,3.15-.57,4.62.37a.38.38,0,0,1-.09.49l-1.54.05h-2l-10.7,0-2.38,0-1.54,0c-.76-.45-1.64.05-2.4-.33L93.56,236l-.8.05a1.82,1.82,0,0,1-1.57-.39l-1.6-.42c-.76.44-1.37.06-2-.37l-1.2-.41c-.77.46-1.32-.16-2-.39A32.4,32.4,0,0,0,78.14,232a4.25,4.25,0,0,1-2-.81c-.16-.35-.48-.36-.79-.39A2,2,0,0,1,73.4,230Z"/><path class="cls-11" d="M186.33,187.68c-.65,1.32-1.31,2.64-2,3.95a1.83,1.83,0,0,1-.92,2l-.42.77a2,2,0,0,1-1.19,2l-.3,0a1.8,1.8,0,0,1-1.85.23,1.14,1.14,0,0,1-.51-.73c-.08-2.65-.66-3.2-3.29-3.08a3.69,3.69,0,0,0-4.65-2.77,2.84,2.84,0,0,1-3.53-1.66,2,2,0,0,0-2-1.23,4.26,4.26,0,0,1-1.86-.49c-2-.84-3-2.23-2.78-4.45-1-2.26-1-2.29,1.2-2.66.87-.15,1.26-.4.57-1.22-.26-.31-.6-.71-.46-1,1-2.11.43-4.33.61-6.49a1.84,1.84,0,0,1,1.2-1.46c.92.23.76,1,.69,1.6-.31,2.84,1.31,4.95,2.85,6.93a3.72,3.72,0,0,0,3.69,1c1.12-.38,1.88-.63,2.79.25.39.38,1,.21,1.52.3,1.72.25,3.4.55,4.36,2.28a1.65,1.65,0,0,0,1.38.66c.52.06,1.16,0,1.48.43a4.24,4.24,0,0,0,4.56,1.74s.07.19,0,.33,0,.48,0,.72C187.26,186.41,187.22,187.27,186.33,187.68Z"/><path class="cls-12" d="M159,92.59c-2.67.57-5.38,1-7.64,2.77a3.09,3.09,0,0,1-3.71-.28c-3-2.31-5.86-2.19-8.9-.33A3,3,0,0,1,138,95c-.77,1.07-1.65,1.94-3.14,1.68-.34-.53.09-.85.33-1.22s.33-.62-.17-.93c-2.08-1.28-2.06-1.31-.18-2.54-.06-.36-.35-.3-.59-.32-.66-.07-1.22-.34-1.15-1.07s.76-1,1.45-1a3.57,3.57,0,0,1,1.16.23c.61,0,1.26.72,1.8.12s.73-.77,1.26-.29a1.44,1.44,0,0,1,.36,1.79,9.27,9.27,0,0,1-1,1.29c1.27,0,1.57-.8,1.47-1.77-.07-.71-.29-1.42-.36-2.14,0-.48-.5-1.07.12-1.44s1,.13,1.48.31,1,.8,1.7,1.15c.48-.83.19-2.63,1.85-2,.92.34,1.69,1.15,2.91,1.68a2.17,2.17,0,0,0-2-1.81c-.51-.12-1.05-.12-1.55-.28-.66-.21-1.29-.58-1.19-1.36s.83-.72,1.42-.74a11.76,11.76,0,0,1,2.37.09,2.57,2.57,0,0,0,2.74-1.21c.77-1.5,1.88-1.58,3.25-1.53.65,0,1.31-.11,2-.1C157,83,160,83.73,162.89,84.83c1.18-.23,1.54.66,2,1.45a1.23,1.23,0,0,0,.81.73c1.41,0,1.81,1.1,2.35,2.06L169.66,91a1,1,0,0,1-.86.37A16.66,16.66,0,0,0,159,92.59Z"/><path class="cls-13" d="M159,92.59c2.56-2.7,5.84-1.93,9-1.83a17.27,17.27,0,0,1,1.74.23l.74.45c1.31.24,1.62,1.33,2,2.36A5.18,5.18,0,0,0,174,95.39a23.38,23.38,0,0,1,5.53,7.19A5.19,5.19,0,0,0,181,104.9a3.31,3.31,0,0,1,1.62,3.13c-1.49,1.19-3,2.12-5.1,1.82a34.38,34.38,0,0,0-5.64.12c-.33,0-.88.1-.94,0-.27-.57-1.12-1.14-1.06-1.33.25-.84.94-.27,1.48-.21a3.58,3.58,0,0,0,3.09-.63c.7-.58,2.84-.82,2.72-.2-.4,2,.83.72,1.25.82a.76.76,0,0,0,.92-.58c.16-.63-.73-.44-.83-1,.14-.56.75-.39,1.1-.65s.75-.44.44-.9a2.56,2.56,0,0,0-1-.92c-.49-.22-.58.35-.81.64-.38.46-.13,1.53-1.13,1.34a1,1,0,0,1-.77-1.43c0-.07-.49-1.13-1-1-.91.27.07.87,0,1.18-.42,1.34-1.09,2.53-2.8,2.5s-3.58,0-5.93,0l1.12-.81c.62-.47,2-.61,1.5-1.61a2.17,2.17,0,0,0-2.78-.85,4.16,4.16,0,0,1-4.1-.73,3.73,3.73,0,0,1,2.79-1.55c-2.56-1.2-2.59-1.38-.83-3.18-1.66-1.35-3.44-.51-5.49-.38a8,8,0,0,1,1,.65c.39.32,1.45-.18,1.23.8-.17.74-1,1-1.69,1.22a1.12,1.12,0,0,1-.67-.21c.32-1.38-.52-2.67-.29-4,.09-.46.71-1,1.22-.73s1,1,1,0c0-.4.71-1.69-.66-1.84C158.88,94.26,160.12,92.71,159,92.59Z"/><path class="cls-14" d="M154.18,81.88c-1.08,0-2.12.63-3.23.18-.36-.15-.77-.06-.85.26-.87,3.24-3.5,2.4-5.72,2.49-.53,0-1.4-.49-1.44.32s1,1.21,1.64,1c1.39-.46,2,.62,2.95,1.11s.43,1.07.13,1.49-1,.71-1.37-.08-1.9-.38-2.23-1.64c-.06-.21-1.06.6-.86,1.26s.1.78-.52,1.06-.67,0-.91-.45c-.47-.87-1.57-.74-2.32-1.54.35,2.23,1.06,4.17.14,6.24L137,92.65c1.05-.12,1.41-.94,1.8-1.68a.92.92,0,0,0-.43-1.19c-.95-.41-.36.56-.46.61a2.47,2.47,0,0,1-2.39-.19,3.94,3.94,0,0,0-2-.85c-.5-.07-1.17.05-1.33-.61s.43-1,.93-1.4c-.58.14-.8.68-1.22,1-.64.44-1.27.82-1.88,0a1.32,1.32,0,0,1,.15-2c.79-.61,1.42-1.36,2.15-2,.4-.36.83-1,1.42-.11.25.36.74.22,1.05-.06a.68.68,0,0,0,.16-.73c-.21-.57-.68-.18-1-.2-1.66-.1-3.47-.58-4.39,1.52a.74.74,0,0,1-.48.27c-.68-1.54-2.31-.86-3.35-1.47a1.32,1.32,0,0,1-.41-1.45,1.37,1.37,0,0,1,1.32-1c1,.11,1.42-.46,1.82-1.22.58-1.11,1.23-2.19,1.76-3.32a1.61,1.61,0,0,1,1.89-1.06c2-.15,4-.11,5.7-1.4,1.07-.7,1.56-1.91,2.47-2.75a1.4,1.4,0,0,1,1.56.51l.8.4a1.15,1.15,0,0,1,1.43.74c.33,2.65-2,3.54-3.15,5a8.71,8.71,0,0,1,7.45,1.17,3.46,3.46,0,0,0,3.71.58,2.37,2.37,0,0,1,2.26.36c.54.3,1.44.42,1.3,1.22S154.6,81.38,154.18,81.88Z"/><path class="cls-15" d="M40.87,131.8c-1.57.11-1.77,1.93-3.06,2.43-.61.23.12.61.1,1s.2.51.61.39c.57-.16,1.38-.66,1.62.24s-.54,1.17-1.24,1.52a7.77,7.77,0,0,1-1.92.82c-.5.1-1,.5-.6,1.15s.62,0,.91-.26a.57.57,0,0,1,.86.12c.09.17,0,.5-.16.71a1.18,1.18,0,0,1-1.52.58c-1.76-.55-3.55-.08-5.32-.24-.51-.05-.91,0-1.18.45a.54.54,0,0,0,.13.7c.4.39.75.18,1.23.07,2-.49,4,.61,6.09,0-1.24,1.37-3.26,1-4.48,2.28a.7.7,0,0,1-.76.16c-1.43-1-2.38-1-3,.09-2,.67-4,1.72-6.28.89a14,14,0,0,0-.32-1.54A1.64,1.64,0,0,1,23,142.1a.32.32,0,0,0,0-.3c.38-.64,0-1.41.31-2.06l.42-4c-.45-.77-.06-1.38.38-2,.41-1.58.81-3.17,1.22-4.76-.48-.78-.07-1.38.39-2,.67-1.87,1.39-3.72,2-5.61a3.21,3.21,0,0,1,.83-1.47c2-.79,2.94-.32,3.55,1.63a6.42,6.42,0,0,1,.06,4.87c-.58,1.24,0,2.61-.38,3.9-.25.81.49.61.88.59a6.61,6.61,0,0,1,2.73-.09C37.21,131.47,39.17,130.84,40.87,131.8Z"/><path class="cls-16" d="M71.37,73.69c.79-.47,1.78-.56,2.43-1.3a16.18,16.18,0,0,1,6-2.33c.57.19,1-.28,1.48-.36.64.26,1.3-.28,1.93,0,2.08.9,3.8.19,5.37-1.19a2.72,2.72,0,0,1,.75-.45,2.49,2.49,0,0,1,2.69.76c.69.84,1.31,1.82,2.68,1.45a.89.89,0,0,1,.51,0,2.13,2.13,0,0,1,1.36,1.08c.32.78.65.81,1.35.38a1,1,0,0,1,1.45.58c.13,1.57,1.26,1.35,2.23,1.52.72.12,1.66-.18,1.95.9a1.44,1.44,0,0,1-1.13.8,14,14,0,0,0-1.76,0c.27.12.75-.13,1.15.14a1.8,1.8,0,0,1,.65.89c.26.71-.38,1.53.26,2.2l.58.46a3.25,3.25,0,0,1,1.12,1,1.14,1.14,0,0,1,0,.52.67.67,0,0,1-.37.4.65.65,0,0,1-.67-.1c.14.21.47.2.54.48-.32.84-1.08.68-1.63.53-1.29-.34-1.68.37-1.9,1.39a1.22,1.22,0,0,1-.65.53c-2.47.48-4.92.07-7.38-.1-.36-1.12.83-2.1,0-3.44-.6-1-1-1.44-2.12-1.4s-2.78-.21-3.4-1.56a3.62,3.62,0,0,1,.61-4,6.61,6.61,0,0,1-2.58.2,1.22,1.22,0,0,0-1.5.91c-.36.93-.73,1.9-2,1.84,0,0,.15.08.21.16.43.57.17,1-.31,1.33-1.27.2-1.86-1.48-3.17-1.14-.29-.25-.53-.67-1-.52-2,.64-3.48-.88-5.3-1C71,75.3,70.51,74.58,71.37,73.69Z"/><path class="cls-17" d="M36.88,103.66c.57-.91,1.13-1.82,1.7-2.72a4.86,4.86,0,0,1,2-2.76l.7-.83c.07-.41.38-.57.72-.71a4.45,4.45,0,0,1,4-1.28c.25.06,0,.14.18,0,2-1.77,4.28-.07,6.39-.4a3.3,3.3,0,0,0,3-.44c2.65-1.38,5.85-.23,6.29,2.25-.44.7-1.08.6-1.68.43,2.39,1,2.61,1.79,1,3.47,0,1.39-.56,2.41-2.09,2.63a3.74,3.74,0,0,1-1.6.46c-1.54.1-2.45-.21-2.39-2.16.07-2.36-1.34-3.54-4.28-4.16-.25-.08-.13.37-.12.1,0,0,.07,0,.2,0,2.5.76,3,1.89,2,4.17,2.41.79,2.81,1.47,1.63,2.77-3-.13-5.63.9-8.35,1.93-2.46.94-5.15,1.68-7.09-1.16C38.55,104.4,37.08,105,36.88,103.66Z"/><path class="cls-18" d="M35.32,131.4c-.9-.64-1.77.08-2.66.06-1.39,0-1.19-.27-1.22-1.45a18.67,18.67,0,0,1,1-6.27c-1.54-.62-.62-2.19-1.22-3.18-.7-1.16-1.79-.32-2.65-.59,0-.28.05-.56.07-.84.93-1.61,2.36-2,4.13-1.93,3.2.16,6.36-.49,9.55-.73.8.71,2.41,1.12,2.12,2.28s-1.94.65-2.9.69c-1.19,0-2,.94-2.87.91,1.16-.67,2.77-.4,4.23-.93.65-.23,1.17.17,1.65.42a8.26,8.26,0,0,0,4.75.83c1.19-.11,2.49-.4,3.6.46a1.87,1.87,0,0,0,2,1.47,1.5,1.5,0,0,1,1.4.53c-.16,1.05-1.06.76-1.67.83-1.19.12-1.08.69-.65,1.46a1.29,1.29,0,0,1-.36.41c-1.76.75-2,.61-3.08-1.7-.89-1.92-1.57-2-3.06-.3.58,0,1.23-.07,1.4.66a1.17,1.17,0,0,1-.85,1.4c-2.41.56-3.7,2.21-4.74,4.31-.53,1.07-2,.59-2.65-.92A4.48,4.48,0,0,0,38,126.47c-.87-.33-1.17-.23-1.52.48-.46.94-.88,1.93-2.09,2.26,1.14,0,2.46-.19,2.6,1.35C37.06,131.79,35.74,130.86,35.32,131.4Z"/><path class="cls-19" d="M36.88,103.66A6.38,6.38,0,0,1,40.59,106c1.11,1.39,2.83.3,4.27.28a5.49,5.49,0,0,0,2.2-.8,13.25,13.25,0,0,1,7.66-1.44c.27.22.71,0,.9.42.12.58-.62,1-.32,1.6s.78,1.07.11,1.56-1-.13-1.29-.52c-.82-1-1.62.66-2.55,0-.15-.11-.83,1-.38,1.78a1.33,1.33,0,0,1,.2.48c-.07,1.09.69.19,1,.38.73.41,1.7,0,2.46.52.83,1.17-.29,1.22-.9,1.57a8.92,8.92,0,0,1-2.68.53c-1.33-.08-2.39,0-2.92,1.56-.29.83-1.24,1-2.09,1.26-2,.53-4,.11-6,.24a7,7,0,0,1-1.86-.35,1,1,0,0,1-.58-1.68c-.38,1.45-1.45,1.62-2.89,1.18a4.55,4.55,0,0,0-2.7.13c-.37.12-1.15.66-1.32-.37.32-1.61,1.49-2.84,1.94-4.39a9.85,9.85,0,0,1,2.77-4.75Z"/><path class="cls-20" d="M50.38,198.37a5.38,5.38,0,0,1,4,.8c1.86,1,4.15.86,6.31.78a.41.41,0,0,1,0,.5c-.17.11-.38.07-.55.12s.1.08.15.13c.91.87,1.34,1.79-.19,2.36-1.35.5-.64,1.64-1,2.44-2.26.62-1.28,3-2.35,4.3-.07.08,0,.26,0,.38a28.83,28.83,0,0,1-5.13,5.22c-.63.47-.92,0-1.18-.45a81.54,81.54,0,0,0-6.31-6.3.34.34,0,0,1-.16-.43,4.73,4.73,0,0,0,1.23-2.45,25.26,25.26,0,0,0,1.31-3,1.33,1.33,0,0,1,.21-.47,2.51,2.51,0,0,1,.37-.36c.47-.29.53-.86.82-1.26C48.71,199.9,49.59,199.19,50.38,198.37Z"/><path class="cls-21" d="M187.47,184.9a4.64,4.64,0,0,1-4.4-1,34.67,34.67,0,0,0-5.86-3.66c-.52-.23-1.21.11-1.63-.47a2.24,2.24,0,0,1-.76-1.14c-.25-1.41-.14-3-1.64-3.86a1,1,0,0,1,.09-.16q.12-.14.33,0c2.6-1,4.25-.06,4.63,2.68a1.27,1.27,0,0,0,.78,1c.49.22.57-.37.79-.66s.48-.6.73-.89c0,0,.12,0,.37,0-.29,1,.31,1.75.69,2.57.54,1.22,1.59.5,2.16.19.83-.46-.24-.72-.37-1.1-.21-.64-1.19-1-.74-1.83s1.19,0,1.76-.22c-.26-1-.92-1.81-.73-3,.29-1.71,1.09-2.21,2.74-1.9.57.11,1.24-.34,2.07-.6l-3-1.54c3.87-1.15,3.87-1.15,7.09-.7,0,.38,0,.76,0,1.14a6.56,6.56,0,0,1-1.42,5.2c-.12.67-.61,1.25-.44,2a4.27,4.27,0,0,1-1.54,4A18.2,18.2,0,0,1,187.47,184.9Z"/><path class="cls-22" d="M166.08,215a2.36,2.36,0,0,0-1.21,1.12c-.48.77-.74,1.79-2,1.66l0-.16c-1-.63-1.72-1.79-3.23-1.3a.94.94,0,0,1-1.19-1c.09-1.78-.92-1.46-2-1.16-1.33.13-2.43-.3-2.73-1.66-.14-.6-.46-.44-.74-.56a1.62,1.62,0,0,1-1.12-1.48c0-.77.5-1.1,1.15-1.41,1-.5.84-1.8,1.54-2.56.15-.16-.37-.46-.65-.62-.56-.32-1.35-.59-1.06-1.41s1.06-.63,1.71-.64a5.18,5.18,0,0,1,.78.09c1.49.17,2.82-.59,4.26-.68a3.56,3.56,0,0,1,2.12.18c1.6.91,3.64,1.92,4.22,3.37.91,2.3,2.77,2.8,4.44,3.82l-2,2.32C167.87,213.92,167.48,215.05,166.08,215Z"/><path class="cls-23" d="M102.28,76.73a.83.83,0,0,1-.4-.8c-.25-.45.19-.56.4-.79l1.19-.39c.12-.75.9-.36,1.24-.73-.79-.53-.31-1.81-1.63-2.2-1.8-.53-1.77-.93-.57-2.83-1.15,0-2.33.34-3.28-.53a15.5,15.5,0,0,1,1.39,1.42,1.53,1.53,0,0,1,.22,1.84c-.4.61-1,.21-1.42,0a4.92,4.92,0,0,0-1.75-.1c-.65,0-1.29-.37-.85-1.13s-.32-1-.59-1.38S95.4,68.84,95,69c-.06,0,.4.31.35.66a.91.91,0,0,1-.58.73c-1.33.55-1.85-.8-2.77-1.19a3.31,3.31,0,0,0-2.78-.79c-.16.08-.35.11-.41-.09s.14-.51.41-.65l.42-.41a1.73,1.73,0,0,1,2-.32l3.13-.53c.58-.44,1.46.16,2-.57a1.71,1.71,0,0,1,.89-.23,5.26,5.26,0,0,0,1.76.23c3.09-.31,6.18-.18,9.27-.2.94,0,1.9.23,1.71,1.37s.33,1.28,1.05,1.53c1.11.38,1.33,1.62,2,2.22,1.23,1,.18,1.73.07,2.58,0,.26,0,.52,0,.79-.43.76-1.71.56-1.86,1.64a1,1,0,0,1-.35.32c.46,1.48-.2,2.91-1,2.47-1.07-.62-2.11.21-3-.44a2,2,0,0,1-.72-1.1c-.21-.78-.7.13-1-.15.24.28.54.54.49,1,0,1,.36,2.08-.79,2.74-.35.16-.69.34-1.08.11v-.4c-.13-.66-.81-.5-1.19-.79l-.4-.4C102.12,78.38,103.13,77.4,102.28,76.73Z"/><path class="cls-24" d="M55.18,83.48l3.21-2c2.07-.85,4.17-.14,6.26-.18.61,0,1.06.49,1.57.76s1,.46.91,1.12-.74.62-1.42.68c1.5,1.54,3.28,2.63,4.59,4.23a19.53,19.53,0,0,0,.49,3.65.77.77,0,0,1-.56,1.07c-.21.07-.45-.14-.64.07A2.22,2.22,0,0,1,70,93c.18,0,.34.51.57,0a2,2,0,0,0,.31-1.47c-.14-.51.23-.68.71-.59a2.13,2.13,0,0,1,.5.25c.94.62.62,1.49.46,2.32a11.38,11.38,0,0,1-2.9,4.15c-1.52.79-2.47,2.54-4.41,2.63-.42-.25-.3-.62-.2-1s.21-.49.29-.75c.07-.44,0-1.11.41-1.23,2-.54.6-1.81.62-2.73s-.68-.21-1-.3c-1-.24-2.48.36-2.64-1.43a1,1,0,0,1,.92-.22c.85.29,1,0,.81-.78s1-1,1.3-2.13c-2.25,1.54-4.29-.27-6.38.43a2,2,0,0,1-2.15-1.11c-.81-1.69-2.31-1.55-3.67-1.8-.66-.12-1.37,0-1.37-1a.79.79,0,0,1,.31-.45l.76-.76C53.53,84.18,54.41,83.9,55.18,83.48Z"/><path class="cls-25" d="M70.19,88.22a39.31,39.31,0,0,1-5.33-4.5c.69-.51,1.48.07,2-.65-1.57-1.67-3.84-1-5.69-1.64-.63-.22-1.77.86-2.76.06,1.12-1.47,2.92-2,4.29-3.12.76-1.37,2.2-1.69,3.48-2.25a2.45,2.45,0,0,1,1.93.83c.3.41.76.82.48,1.41s-.89.36-1.41.3c.77.46,1.29.49,1.89-.4.89-1.33,1.18-1.11,2.32.08s2.1,2.62,3.77,3.2c.83.28.82.75.25,1.31-.91.39-1.41,1.35-2.4,1.68a1.34,1.34,0,0,0-.71,1.33c0,.57-.38,1.36.1,1.66s.81-.18.54-.76c-.11-.24-.36-.39-.46-.63A.88.88,0,0,1,72.91,85c.71-.43,1.73-.34,2,.2.71,1.43,2,2.6,2,4.35,0,.18-.19.34-.34.47-1.64.35-3.1,1.31-4.81,1.41C70.94,90.48,71.34,89,70.19,88.22Z"/><path class="cls-26" d="M113.38,74.35c-1-1-.73-1.83.48-2.46-.39-.62-2,0-1.31-1.72.37-1-1.49-1.13-2.34-1.58-.53-.28-1-.24-.58-.92,1.09-1.63-.11-1.61-1.16-1.63-3,0-6,0-9-.06a.22.22,0,0,1,.16-.32l.72,0a1.65,1.65,0,0,1,1.41-.38,86,86,0,0,0,13.81,0,1.71,1.71,0,0,1,1.42.42l.69,0c.65.38,1.43,0,2.07.33.54.1,1,.55,1.6.39.69-.45,1.35-.59,1.93.19l.45.19a3.59,3.59,0,0,1,3.56.41c.13.28.09.59-.2.63-1.88.21-3.23,1.55-4.86,2.28a1.69,1.69,0,0,1-.5.08c-.26,0-.6,0-.36.42.84,1.8.84,1.8-1.9,2a2.65,2.65,0,0,1-.88-.37c-1.54-1-1.57-.13-1.36,1.07a3.22,3.22,0,0,1,.1.54c-.09,1.43-1.19,1.47-2.21,1.62a1.93,1.93,0,0,1-.53-.11C114.06,75.14,113.54,74.94,113.38,74.35Z"/><path class="cls-27" d="M52.34,86.21c.07.41.18.85.73.63,1.64-.67,2.73.88,4.18,1,.25,0-.32.73.44,1.21,1.11.7,2.15.42,3.21.46a3,3,0,0,1,2,.39c1.22.87,1.75-.68,2.86-1.12-.27.91,1.25,1.89-.68,2.5-.92.3,0,1.23.08,1.88-.9.47-1.64-.42-2.48-.23-.95,1.17-2.18.9-3.4.68A5,5,0,0,0,55.53,95c-.77,1.25-1.8.59-2.78.4-1.26-.53-2.89.35-4-1.07-.35-.46-1-.73-.82-1.44s.65-.93,1.25-1.11a22.53,22.53,0,0,1,5-1.19,4,4,0,0,0-5-.24c-.31.19-.8.18-.78-.45l2-2.38C50.89,86.76,51.38,86.13,52.34,86.21Z"/><path class="cls-28" d="M154.18,81.88c.25-.51.84-.27,1.34-.64-1.46-.65-2.58-1.79-4.4-.5-.54.38-2.32-.39-3.13-1.09-2.06-1.78-4.33-1.57-6.68-1.2-.62.1-1.21.44-2,0,2.16-1.3,4.07-2.73,4.59-5.31a.48.48,0,0,1,.76.1L149,75.49a1.73,1.73,0,0,1,1.94.93l.76.43a2.31,2.31,0,0,1,2,1.16c.36.62,1.06.79,1.61,1.15a2.7,2.7,0,0,1,2.37,1.58l1.59,1.19c.65-.11.94.31,1.18.8l2.38,2c.1.06.15.13.13.21s0,.13-.07.13c-2.67-.6-5.37-1.13-7.71-2.68A5.88,5.88,0,0,0,154.18,81.88Z"/><path class="cls-29" d="M75.34,82.67c0-.13.07-.25.11-.38-1.83.07-2.09-2-3.51-2.54-.57-.21-1.32-.38-1.09-1.34a.61.61,0,0,0-.52-.72c-.4-.09-.59.27-.78.51-1.32,1.67-1.67,1.68-3.57,0,.78-.47,1.45,0,2.15.25.16-1.47-.94-1.71-1.91-2.07a.84.84,0,0,1,.82-.84l4.33-1.9c-.06.49-.35,1.27.42,1.2,1.83-.17,3.29,1.86,5.22.77.22.51,2-.56,1.12,1.07,1,.59,2.06,1.16,1.46,2.64A2.42,2.42,0,0,1,79,80.89C77.62,82.26,77.62,82.26,75.34,82.67Z"/><path class="cls-30" d="M119.32,72.36c.73.14,1.31-1.18,2.08,0,.34-1-.66-1.29-.5-2,0-.73.34-.65.79-.4h0c1.84,1,2.86-.88,4.31-1.27.39-.1.89-.79,1.15-.37,1.22,1.93,2.45.26,3.66.11a4.06,4.06,0,0,1,2.39.7c.44.81-.12,1.17-.72,1.14-1.78-.1-2.81,1-3.9,2.14a2,2,0,0,1-1.48.45c-3.06-.59-5.26,1-7.41,2.81-.46.37-1.06.47-1.53.85.82.22,1.14.69.79,1.48a3.12,3.12,0,0,1-3.7,1.5,7.52,7.52,0,0,0-1.47-.51c-1.1-.46-1.14-.77-.39-2-1-.11-.21,1.49-1.3,1.29-.72-.65-.56-1.55-.7-2.37a3,3,0,0,1,3.17-.8h0a1.84,1.84,0,0,0,2.3.07,1,1,0,0,0,.08-1.65h0C117.2,72.3,117.53,72.14,119.32,72.36Z"/><path class="cls-31" d="M41.68,205.44c-.38-.39-.76-.77-1.15-1.15a4.54,4.54,0,0,1-2-2.72c0-1.6-.53-3.24.87-4.68a5.69,5.69,0,0,1,3.08-2.09h0c2.11-.66,3.56.13,3.93,2.15.53,2.83.54,2.85-2,4.24a1.87,1.87,0,0,0-1.21,2C42.86,204.07,43,205.24,41.68,205.44Z"/><path class="cls-32" d="M117.79,236.43c-1.69,0-3.37,0-5.06,0-.58,0-1.58.36-1.6-.58s-.57-2.25.78-2.76a2.85,2.85,0,0,0,1.7-1.68c.53-1.12,1.63-1.19,3.66-.38a3.42,3.42,0,0,0-2.73,3.39c2.44.36,3.84-2.9,6.16-1.84.77-.85-1.55-1.42.2-2.08-.08,1.4,1.85.79,2,2-.19.74-.44,1.42.73,1.68.7.15,1,.77.45,1.48l-.39.4-4,.46A2.7,2.7,0,0,1,117.79,236.43Z"/><path class="cls-33" d="M170.44,210.65c-1.66.4-2.66-1.39-4.25-1.26a.37.37,0,0,1-.31-.57c1.18-1.77-.53-2-1.41-2.73-.1-.08-.27-.09-.34-.19-2.16-2.82-4.87-2.47-7.71-1.33a.8.8,0,0,1-1-.26.63.63,0,0,0-.51-.2c-1.68.08-2.66-.51-2.34-2.39a3.51,3.51,0,0,1,4.3,0c.24.14.28.7.7.43,1.77-1.14,3.26,0,4.82.53a2.43,2.43,0,0,1,.46.22c.37.26.58.77,1.15.73a2.94,2.94,0,0,1,.51.05c1.72.45,3.21,1.85,5.21,1.13a.74.74,0,0,1,.89.6c.11.55-.24.86-.69,1a10.29,10.29,0,0,1-1.93.5c.36.41,1.06.59.89,1.16s-.81.95.33.53a3.63,3.63,0,0,1,3.23-.06c.19,1.25-.61,1.72-1.6,2Z"/><path class="cls-34" d="M172.3,208.66c-1,.12-2.08-.23-3,.51-.73.55-1.14-.31-1.65-.64l1-.48c-.21-.83-1.44-.37-1.61-1.39.86-.2,1.74-.45,2.64-.59.38-.06.69-.16.67-.53a.52.52,0,0,0-.75-.4c-2.15,1-3.64-.73-5.43-1.23a2.89,2.89,0,0,0,1.37-2.84,1,1,0,0,1,.25-.73c.44-.47,5,0,5.26.61a1,1,0,0,1-.5,1.35c-.58.42-1.38.42-2.09,1.11a3,3,0,0,0,2.66-.12,1.84,1.84,0,0,1,1.86.08c.47.24.91.53.68,1.15-.3.86.22,1.28.82,1.69.18.44,0,.69-.43.83l-.78.79C172.93,208.15,172.87,208.68,172.3,208.66Z"/><path class="cls-35" d="M31,114.39c1.4.21,2.74-.75,4.17-.23,1.19.44,2.26.49,2.5-1.18,0,0,.88-.08,1,.13.39.46,0,.51-.44.62-.7.16-.1.62,0,.89s.34.54.77.32.5-.21.71.25a.18.18,0,0,0,.17.07c.06,0,.11-.06.16-.1,1.26-.18,1.89.6,2.38,1.59a24.18,24.18,0,0,1-6.91.87c-1.47-.09-2.9.53-4.38.07-1.29-.41-1.23,1.68-2.48,1.44L29.1,118a2.06,2.06,0,0,1,.71-2C30.2,115.44,30.58,114.91,31,114.39Z"/><path class="cls-36" d="M48.42,89.85c1.16.68,1.5-.83,2.51-.93,1.58-.16,2.66,1,4.07,1.07.24,0,.36.37.25.66s-.22.59-.67.55a7.85,7.85,0,0,0-4.5.87c-.62.32-2-.13-1.69,1A2.61,2.61,0,0,0,50.51,95c.75.12,1.6-.3,2.24.4-1.29-.16-2.76.69-3.88-.65-.08-.1-.58,0-.7.11-1.06,1.33-2.38,1.12-3.82.82-1-.22-1.1,1.59-2.29,1.31-.24-.29-.25-.55.1-.76L43.27,95c.42-.78.65-1.73,1.68-2Z"/><path class="cls-37" d="M34.13,146.46c.71,1.12-.28,1.27-.92,1.66-1,.58-1.39,1.2.24,2l-2.46.72c.48-1,.33-1.57-.46-2.09s-1.25-.85-1.8.24c-.19.39-.76,0-1.07-.12-1.91-.9-3.08-.06-3.77,1.65-.32.8-.69.59-1.19.34l0-4.29a1,1,0,0,1,.39-.39,36.25,36.25,0,0,1,7.53-.65C31.93,145.61,33.08,145.61,34.13,146.46Z"/><path class="cls-38" d="M174.39,206.29c-1.31.29-1.48-.47-1.51-1.51,0-.27,1.14-.73-.07-.87a1.27,1.27,0,0,1,.05-1.62c1.54-2.29,3.84-3.84,5.75-5.77a1,1,0,0,1,.94-.14h2c-.15.37-.29.75-.44,1.12a3.56,3.56,0,0,1-1.59,2.38c-.64.34-.85,1-1.17,1.59s-.25,1-.81,1.17a8.94,8.94,0,0,0-2,2.41C175.2,205.49,175.47,206.54,174.39,206.29Z"/><path class="cls-18" d="M27,156.76c0,.53,0,1.06,0,1.59a5.69,5.69,0,0,0,.21,2.78,1.86,1.86,0,0,1-1.73,2.77c-.48,0-1.1.14-1,.64.09.87.74.3,1.19.29,1.87,0,2.57,1,1.5,2.56-.76,1.07-.57,2.9-2.37,3.19l-.2.07a5.26,5.26,0,0,1-.77-4c.27-1-.66-1.8-.35-2.78a1.35,1.35,0,0,1-.38-1.14,3.74,3.74,0,0,0,.19-1.45c.5-1.43,2.42-1.58,2.8-3.12a5,5,0,0,1,.27-1.08C26.47,156.85,26.65,156.65,27,156.76Z"/><path class="cls-39" d="M156.56,213.82a3.14,3.14,0,0,1,1.7-.4c.72,0,1.16.1.69,1s.12,1.73,1.12,1.45c1.73-.49,2.28.55,2.85,1.74l-.83.87a11,11,0,0,1-5.61,4c-.48-.77.45-1.73-.49-2.59-.47-.42.39-1.2.95-1.64.22-.14.59-.44.52-.5C156.2,216.68,157,215.11,156.56,213.82Z"/><path class="cls-40" d="M157.35,218.57c-.54.61-2.11.9-.45,2.1.59.43-.39,1.12-.35,1.76a3.63,3.63,0,0,1-2.8,2,5.68,5.68,0,0,0-2,1.17,2.37,2.37,0,0,1-2,1.18l-.74.11c.19-.8-.47-1.33-.69-2.05.51-.34,1.19-.13,1.61-.85a2.47,2.47,0,0,1,3.15-1.39,1.79,1.79,0,0,0,2-.78c.28-.41.8-.65.57-1.24s-.76-.25-1.19-.26c-1.07,0-2.19,0-2.47-1.44,1.65-1,3.71,0,5.34-1.11A.54.54,0,0,1,157.35,218.57Z"/><path class="cls-41" d="M124.07,235.6c0-.65-.1-1.12-.91-1.2a2.43,2.43,0,0,1-1.8-1c.37-.66,1.41,0,1.53-.92,1.56.34,3,.88,4.69-.07,1.28-.72,2.83.55,4.32.09a4,4,0,0,1,3.3.4c-1.21.85-2.76.78-4,1.47a3.8,3.8,0,0,1-3.53.89Z"/><path class="cls-42" d="M27,156.76c-.14.16-.29.31-.44.46-2.35,1.19-3.43.61-3.89-2.07,0-.93,0-1.85,0-2.77.88.08,1.87-.19,2.41.88a.8.8,0,0,0,.63.4c.66,0,1.43-1,1.91.22A2.68,2.68,0,0,1,27,156.76Z"/><path class="cls-43" d="M128.43,72.36c.73-1.45,1.56-2.75,3.51-2.44.64.1,1.17.06,1.26-.75a.81.81,0,0,0,.38,0c.68-.45,1.17-.18,1.59.4L136,70c.9.65.27,1.07-.25,1.46-1.16.85-1.34,1.12-1.3,2.19a1.73,1.73,0,0,1-1.32.09c-.89.08-1.76-.7-2.66,0a.75.75,0,0,1-.93-.24C129.31,72.93,128.74,72.77,128.43,72.36Z"/><path class="cls-44" d="M134.37,73.55a1.35,1.35,0,0,0-.48-1c-.75-.7-.54-1,.43-1.05s1.83-.2,1.64-1.5l1.12.14c.48-.08,1-.24,1.21.41a2.46,2.46,0,0,0,1.64.6c.35-.06.48.08.4.43-.43,1.24-.83,2.51-2.39,2.78-1.5.42-1.24-1.09-1.93-1.68-.42.4,0,1.44-1,1.5C134.66,74.2,134.26,74.14,134.37,73.55Z"/><path class="cls-45" d="M130.81,68.47c-2.35,2-2.69,2-4-.06-.43,1.77-2.29,1.32-3.27,2.4-.73.8-1.37-.12-1.81-.81,1.7-1.17,3.24-2.71,5.57-2.39.1-.18.23-.2.38-.06Z"/><path class="cls-46" d="M42.45,194.8c-1.85.71-2.64,2.41-3.66,3.89-.2.29-.4.79-.18.88,1.34.55.23,1.34.25,2-.42.12-.62-.09-.69-.48l-1.25-2.38c.27-.46,1.7-.36.7-1.45a7.45,7.45,0,0,1,1.87-2c.71-.06.71-.06.37-1.22C40.77,194.4,41.52,195,42.45,194.8Z"/><path class="cls-47" d="M41.68,205.44l1.16-1.93a.18.18,0,0,1,.27-.1c.21-.15.2.16.1-.08,0,0-.2-.08-.17-.25-.06-1.91,1.59-2.48,2.78-2.76,1.71-.39.92,1.18,1,2v.4c-1.18.75-1.79,2.1-3,2.84l-.3.42a3.35,3.35,0,0,1-.66.8.31.31,0,0,1-.41-.16Z"/><path class="cls-48" d="M22.66,155.15c.39,2.39,2.08,2.35,3.89,2.07l0,1.1c-1,.84-1.84,2.14-3.47,1.25l-.11,0c-.5-.74-.91-1.49-.36-2.38C22.65,156.49,22.66,155.82,22.66,155.15Z"/><path class="cls-49" d="M83.26,70c-.65-.08-1.37.22-2-.29a5.1,5.1,0,0,0,2-.83,1.72,1.72,0,0,1,1.59-.41l1.18,0c0,.11.07.21.11.32C85.66,70.4,85.17,70.61,83.26,70Z"/><path class="cls-50" d="M23.11,159.57c1.35.13,2.35-.73,3.47-1.25-.48,1.58-2,2-3.16,2.8-.22-.06-.26-.28-.37-.44Z"/><path class="cls-21" d="M193,167.06c-1,0-1.85.89-3.11.14,1.2-.39,2-1.21,3.11-1.32Z"/><path class="cls-49" d="M89.2,67.67c-.06.25-.43.5,0,.74l-.39.39c-.94.08-1.92.54-2.75-.33v0a2.11,2.11,0,0,0,0-.26c.4-.65,1-.57,1.61-.41Z"/><path class="cls-2" d="M27.79,177.76c-.41-.25-.59-.87-1.23-.77l-.29-.42C27.13,176.53,27.92,176.56,27.79,177.76Z"/><path class="cls-51" d="M111.39,160.73c.73-1,.28-2,0-2.92a4.32,4.32,0,0,1,.27-3.84,3,3,0,0,0,.49-2c0-.42-.39-1-.56-.93-1.94,1.21-2.94-1.81-4.79-1a1.39,1.39,0,0,1-1.28-.23c-.94-1.29-2.35-1-3.6-1.45-2.15-.68-4.22-.1-6,.32s-3.15-.33-4.7-.2c-1.69-1-3-2.49-4.63-3.54-.78-.51-.79-1.46-1.2-2.19-.14-.33-.3-.65-.46-1a35.15,35.15,0,0,1-2.06-4.5,1.36,1.36,0,0,1-.2-.48c-.15-.89,1.25-1.18.83-2.17l-.23-.44a8.08,8.08,0,0,1-.65-1.69,2.5,2.5,0,0,1,0-.82,9.86,9.86,0,0,1,.46-1.93c.63-1.11,1.82-1.09,2.85-1.39a3.58,3.58,0,0,1,.56-.16,2.78,2.78,0,0,0,2.31-1.58,1.19,1.19,0,0,1,.46-.62,4.76,4.76,0,0,0,3-4c.16-1.1,1.41-1.41,2.44-1.67,1.26,0,2.34-.93,3.64-.74l2-2.65c0-1.46.93-1.46,1.84-1.11a3.41,3.41,0,0,0,3.84-.64,2.42,2.42,0,0,1,1.27-.51,2.92,2.92,0,0,0,2.56-2.6c.59-2.62.93-2.7,3-1a5.57,5.57,0,0,0,1.48,1,17.65,17.65,0,0,0,1.9.49,3.46,3.46,0,0,1,1.34,1.12c1.3,1.53,3.06,1.64,4.88,1.58,1.52.36,3.1,0,4.6.43,1.15,1.51,1.06,1.74-1.18,2.76,1.85.91,2.54,3.26,4.91,3.32.29,0,.71.56.59.69-1.19,1.24.46,3.14-1.28,4.39a3.5,3.5,0,0,1,2.9,1.71,2.78,2.78,0,0,0,2.21,1.13c1.08.14,1.85.59,1.11,1.83-.47.77-.19,1.19.52,1.56,1.35.7.9,1.55.13,2.37-.4.43-1,.69-1.25,1.25-.79,1.8-1.92,3-4.25,2.12.14,1.85,1.32,3.63-.8,4.8,1.06.62,2,.14,3,.12.61,0,1.26,0,1.52.7s-.45,1-.89,1.3a1.8,1.8,0,0,1-.53.28c-1.66.5-3.35.95-4,2.62,2.12-.17,4.45-.53,6.67.67.9.49,1.4,1.07.53,2s-.27,2.58-1.74,3.37c1.75-.18,2.49.62,2.55,2.14,0,1.11,1.51,1.37,1.49,2.45,0,1.23.38,2.36-.19,3.76a4.2,4.2,0,0,0,1.06,4c.42.41.8,1.08.4,1.36-1.5,1.09-2,3.61-4.58,3.17a2.27,2.27,0,0,0-1.47.27,38,38,0,0,0,4.12.38c.94.13,1.92.36,1.4,1.74-2.93,1.69-8.06.85-10-1.67a1.42,1.42,0,0,0-1.15-.66c-3.57.15-7-.82-10.61-.85a17.39,17.39,0,0,0,4.25.56,9.59,9.59,0,0,1,4,1c.55.24,1.15.56,1,1.3s-.9.94-1.59.8c-1.82-.37-3.66-.46-5.49-.73a7.51,7.51,0,0,0-2.36-.1,3,3,0,0,1-3.64-1.89c-.73-1.6-2-1.59-3.44-.22.6.65,1.22.09,1.83.06,1.43-.09,2,.64,1.39,1.92a2.19,2.19,0,0,0-.31,2c.5,1.13-.22,1.32-1.15,1.41-3.29.3-4.35,1.46-4.37,4.82,0,1.35,0,2.63-1.16,3.61-.48.42-.39,1.08-.48,1.67-.18,1.16,0,2.39-.69,3.45-1,.09-1.12-.71-1.25-1.35a13.69,13.69,0,0,1-.39-2.63c-1.22-2.81-.54-5.85-1-8.76a3,3,0,0,1,.8-2c2.25-3.14,4.6-6.24,6.57-9.56,1.58-2.65,1.37-2.78-1.32-4.07C109.63,161.11,111.15,161.85,111.39,160.73Z"/><path class="cls-52" d="M104.27,186.48c.83.37.81,1.11.78,1.84a2.45,2.45,0,0,0,.8,2.12,1.2,1.2,0,0,1,.42,1.24c-.39,1.48-.28,2.53,1.39,3.29,1.18.54,2.11,1.41,3.58,1a2.77,2.77,0,0,1,3.15,1.05c.67.94,1.66.9,2.63,1a8.76,8.76,0,0,0,3.78,0,1.78,1.78,0,0,1,1.14.11.72.72,0,0,1,.21.88c-.16.58-.47,1.19.66.77.46-.18.87.23,1,.71a1.23,1.23,0,0,1-.57,1.36c-.84.59-1.28,1.12-.66,2.23.36.66,0,1.4-1,1.57-1.62-1.89-3.54-1.76-5.85-1.44-1.35.2-3.17.89-4.58-.39-.09-.08-.27-.17-.36-.13-2.38,1.25-4.59-.59-7-.44a7.3,7.3,0,0,1-5.34-1.76,7.22,7.22,0,0,0-2.64-2.24c-.69-.38-1.3-.88-1.21-1.62.23-2.13-1.22-2.37-2.72-2.65a4.68,4.68,0,0,1-1.56-1.16c0-.26-.26.3-.07.11s.14-.06.16.11c.14,1-.07,1.94-1.09,2.21a2.89,2.89,0,0,1-3.2-1c-1-1.52-1.58-1.51-2.79-.24s-3,1-4.62,1c-.57,0-.54-.62-.16-1.05a2.16,2.16,0,0,1,2.28-.17c1.44.11,1.76-.88,2-2,3.11-.29,5.27-3.19,8.56-3,.73,0,1.35-.78,2.14-.91l1.19-.4c.4.15.52-.27.79-.39.23-.57.09-1.5,1.19-1.19.93.68,1.85.09,2.78,0s1.8.53,2.61-.46C102.72,185.69,103.54,186.45,104.27,186.48Z"/><path class="cls-5" d="M87.94,166.17c-.83-.32-.51-1.29-.8-1.91-.17-.37.58-1.16,1.31-1.1,1.14.1.49.84.28,1.25C88.45,165,89.18,166,87.94,166.17Z"/><path class="cls-53" d="M92,194.8c2-.24,2.79.32,3,2.45.16,1.76,2,1.7,2.84,2.83.2.29.41.9.92,1.06.05,1,0,2,1.4,2.39,1,.27.6,2,1.77,2.37,0,.65-1.37,1.12-.27,1.93a2.9,2.9,0,0,1-.7.66c-.4.19-1.16-.14-1,.77.14.69.53,1.06,1.26.91.39-.09.86-.24.81.38,0,.37-.42.4-.79.36-1.39-.18-2.8-.29-4.19-.53a2.08,2.08,0,0,0-1.84.63c2.11-.87,1.1,2.8,3.44,1.28-.89.94-1.66,1.51-2.44.44-.3-.42-.44-.45-.59,0a1.34,1.34,0,0,1-1.67,1c-.9-.27-.94-1.37-.83-2,.47-2.41-1.68-1.42-2.12-1.34-1.6.3-3.12,1.11-4.29-.78-.21-.35-.51-.39-.68.09a.76.76,0,0,1-1.13.43c-.59-.25-.3-.88-.25-1.23.19-1.31-.15-1.73-1.44-1.22-1,.39-2.28-.13-3.11.89A1.74,1.74,0,0,0,78,207.9c.87.43,0,3,2.19,1.26a.62.62,0,0,1,.87.18c.08.16-.05.5-.18.7-.64,1.05-3,1.15-3.25,0-.44-1.76-1.5-1.14-3.15-1.22,2.85,1.51.29,2.18.19,3.2,0,.24-.44.16-.68,0A17,17,0,0,0,65.9,210c.8-.65,1.41-1.15,2.37-.72.37.17.83.64,1.18,0,.14-.27.32-.67.22-.91-.34-.79-.93-.16-1.35-.07-.95.21-2.11-.7-2.88.5-.6-.73-1.67-.37-2.26-1-.29-.3-.15-1.21.27-1.15,1.82.23,3.39-.89,5.08-.85,1.23,0,2.09,1.41,3.45,1.44-.16,1-1.31.7-1.58,1.42,2,.66,3.51.23,4-1.41.25-.87.87-.72,1.31-.88.67-.25,1.45-.18,1.8-1.17a26.58,26.58,0,0,1-10.4-1.71c.29-1.07.29-1.07,2.7-2,1.33-1.61,3.18-1.45,4.9-1.21a17.84,17.84,0,0,0,8.93-.7,24.84,24.84,0,0,0,6.63-4A2.55,2.55,0,0,1,92,194.8Z"/><path class="cls-54" d="M101.88,205.9c-.63-.24-2.29.72-1.4-1.29.18-.4-.46-.87-1-1-1.7-.38-1.68-1.29-.74-2.47.87.32,1.58,2.22,2.73.21.18-.31.72.34.84.8.25.9.87,1,1.69.91,1.62-.16,3.36-.91,4.69.76,1.48-.91,3,.24,4.2.08,2.16-.29,4.36-.15,6.52-.55.89-.16,1.76,1.17,2.31,2.15.33.19.64.39.35.83a1.7,1.7,0,0,0-.54,1,3,3,0,0,1,.71-1.18c1-.46,1.43.24,1.86.93,1.32,1.38,2.76,2.38,4.82,1.65a.86.86,0,0,1,1.15.48c.12.26.16.51-.14.67s-.66.79-1.17.42a4.39,4.39,0,0,0-1.46-.51,1.08,1.08,0,0,0-1.35.45c-.36.52,0,.85.32,1.19,1.07,1.13.93,2.18-.19,3.18-1.3-.11-1.4-1.15-1.29-2,.17-1.43-.89-1.41-1.42-1-1.13.82-2.6.34-3.67,1.21a1.34,1.34,0,0,1-1.8-.24c-.71-1.28-1.93-.85-2.85-.89s-2.29.13-2.32-.3c-.08-1.14-.92-1.92-1-2.92a2.5,2.5,0,0,0-2.84-2.42c-1.5.14-3-.55-4.53.1a.53.53,0,0,1-.79-.32C102.84,203.82,102.41,205.67,101.88,205.9Z"/><path class="cls-55" d="M92,194.8a28.77,28.77,0,0,1-5.9,4.38A15,15,0,0,1,75.72,201a10.66,10.66,0,0,0-5.93.53A7.82,7.82,0,0,0,65,202.78c-.46.23-1,.12-.91-.17.65-1.71-.92-1.06-1.46-1.47a.34.34,0,0,1-.49,0c0-2,2-2,3-2.84a4.43,4.43,0,0,1,3.58-.79c1.69.3,2.54-.53,3.39-1.74,1.18-1.69,4.92-2,6.39-.58,1.29.79,4,.17,5-1.06.2-.24.33-1.42,1-.57s2.31-.49,2,.53c-.5,1.87.93,1.34,1.56,1.68.46.25,1.32.72,1.56-.29.08-.38,1.44-1.49-.43-1.37a.62.62,0,0,1-.15-.47.47.47,0,0,1,.63-.31C90.54,193.73,91.51,193.89,92,194.8Z"/><path class="cls-56" d="M62.26,201.14h.4c0,1.47-1.95,2.27-1.46,4a1.52,1.52,0,0,1-2.11.34c-1-1.43-.93-2.49,1-2.93.22,0,.77-.1.56-.58a2.51,2.51,0,0,0-.77-1c-.26-.19-1,.91-1-.24,0-.54.76-.31,1.19-.36a5.8,5.8,0,0,1,.59,0C61.63,199.75,61.85,200.64,62.26,201.14Z"/><path class="cls-54" d="M115.83,213l2,1C116.74,215.1,116.71,215.09,115.83,213Z"/><path class="cls-57" d="M166.07,134.18a6.1,6.1,0,0,0-.8,2.95c0,.22.09.45-.19.69-.74.66-.76.83-.13,1.06,1.85.7,1.35,1.72.48,2.82-.24.31-.73.56-.77.88-.12.84-1.79,1.48-.22,2.62.83.61-.75,1.74.07,2.71s-.21,1.61-.79,2.25c-.21.23-.8.5-.6.66,1.5,1.25-.58,1.28-.62,2-1.23,1.16-4.39,1.51-5.72.65a1.23,1.23,0,0,1-.66-1.13c0-.52.48-.57.88-.59,1,0,2-.81,3.05,0-.6-.72-1.32-.36-2-.33-1.13,0-2.48.39-2.89-1.27-.05-.2,0-.36-.29-.06-1,.88-1.78.43-2.33-.66a2.72,2.72,0,0,0-1.16-1c-2.13-1.29-2.16-1.81-.08-3.75-1.46-.48-2.22-1.32-1.4-2.85.08-.15.27-.34-.14-.57-1.53-.88-1.5-.92-.79-2.4-1.05-.24-2.1.21-3.13,0s-1.7-.61-.68-1.66c.28-.29.71-.67.2-.95-2.1-1.11-1.72-3.38-2.51-5.1-.74-1.51-1-3,.39-4.31a1.31,1.31,0,0,0,.33-.7l2.28-4.38c-1.68.69-3.16.07-3.42-1.27-.24-1.16,1.58-.66,2.65-1.36-1.2-.17-2.27-.3-2.22-1.64,0-1.13,1.05-.85,1.75-1.13-.77-.4-2.25.15-2.16-.88.13-1.39,1.76-1.26,3.33-1.78-2.7-.31-3.49-1.66-3-3.83,2.07-.75,3.25.15,2.93,2.24,0,.08-.16.14-.13.23a.51.51,0,0,1,.37-.11,5.18,5.18,0,0,1,2.72,1H149c1.3.36,2.62.6,3.39,1.95.28.49,1,.6,1.6.65s1.37.46,1.19,1c-.41,1.34.59,1.71,1.2,2.49.74,1,1.1,2.22,2.13,3l.4.4c.08.7.05,1.45,1,1.69a2.57,2.57,0,0,1,1.63,1.33,1.23,1.23,0,0,0,.52.56c1,.4,2.09.07,3,.83s-.33,1.91.74,2.81c.88.76.19,2.35.69,3.48A.81.81,0,0,0,166.07,134.18Z"/><path class="cls-58" d="M158.54,122.29c-1.72.31-2.23-1.48-2.36-2.19-.29-1.54-1.06-1-1.88-1a5.51,5.51,0,0,1-1.15-.3c1.14-.41,1.81-.81,1.78-1.74,0-.51-.15-.93-.78-.85-1.56.19-2.37-.67-3.06-1.94-.38-.69-1.74,0-2.06-1.09,2.27-1.17,4.79-2,6.57-4.36.63.29,1.2,1.34,1.65,2.07,1,1.67-1,.89-1.61,1.52.71.86,1.83.62,2.73.94-.21,1-1.6.53-1.6,1.54.61.58,1-.19,1.58-.27-.54,4-.34,4.55,1.78,5.29.39.78.39.76-.23.94A1.81,1.81,0,0,0,158.54,122.29Z"/><path class="cls-58" d="M166.47,133.39c-.52-.67-1.58-1.13-.76-2.29.39-.55-.11-.93-.5-1.31s-1.67-.68-.32-1.82c.58-.49-1-1.17-1.49-1-1.41.37-2.06-.13-2.49-1.39a1.41,1.41,0,0,0-1.28-.77c-1.61-.22-1.4-1.07-.69-2.08,1.38-.46,2.95-1,4.23-.61,1.69.52,3.8-.36,5.12,1.49.38.54.71,1,.45,1.59-.49,1-.21,2.83-.46,3.06C166.71,129.71,167.64,131.91,166.47,133.39Z"/><path class="cls-9" d="M170.43,161.12c.14-.53-.71-1.05,0-1.58.24.6,1.44.2,1.29,1.09C171.61,161.24,170.92,161.09,170.43,161.12Z"/><path class="cls-9" d="M170.7,158.37c.27,0,.6,0,.61.32a.77.77,0,0,1-.69.82c-.41.06-.33-.33-.4-.52C170.05,158.56,170.38,158.44,170.7,158.37Z"/><path class="cls-7" d="M161.79,121.14c.56-.65,1.07-.36,1.7-.38C162.94,121.34,162.51,121.69,161.79,121.14Z"/><path class="cls-9" d="M169.44,157.09c-.57.48-1,0-1.39.07.07-.17.11-.46.2-.48A1.17,1.17,0,0,1,169.44,157.09Z"/><path class="cls-59" d="M82.86,131.8v.79c0,.65,0,1.31.8,1.59h0c.31.56.35,1.1-.27,1.45a1.25,1.25,0,0,0-.75,1.19c-1,.63-1.62,0-2.13-.62s0-1.2.5-1.64c.77-.68-.05-.81-.37-1.1a2.84,2.84,0,0,0-3.13-.87,2.2,2.2,0,0,1-2.2-.41c0-.85-1-.63-1.26-1.27,0-.34.34-.53.44-.87-1.24-.36-2.26.37-3.4.63.44.89,1.32,1.21,2,1.76a.9.9,0,0,1,.29,1,1.5,1.5,0,0,1-1.64,0c-1.32-.6-2.08-.11-2.46,1.2-1,1.38-2.12,2.37-4,2.16a2.78,2.78,0,0,0-3,1.76,8.51,8.51,0,0,1-.8,1.56h-.4c-1.1.12-2.57,1.07-2.48-1.39-1,.6-1.85,1.83-2.67.2-.94-1,.58-2.08.1-2.89s-2.11-.12-2.47-1.46a1.8,1.8,0,0,1,1.83-.34,2.15,2.15,0,0,0,2.15-.6,3.16,3.16,0,0,0,1.15-1.71,1.51,1.51,0,0,1,1.84-1.07,21.92,21.92,0,0,0,3.14,0c.68,0,1.48.09,1.79-1-.93-.42-1.76.39-2.64.16-.54-.15-1-.34-1.07-1s.48-.67.91-.82c1.26-.44,2.63-2.09,2.4-3-.34-1.38-1.53-1.43-2.66-1.52a1,1,0,0,1-.54-.21c.56-1.8,1.89-2.49,3.85-2.38s4-.27,5.94-.2a14.48,14.48,0,0,0,6.71-1.47c1.1-.48,2.28.66,3.48.93.58.13.21.87,0,1.37-.5,1.22-1.69,1.72-2.61,2.5A7.18,7.18,0,0,0,81,123.16c1.17-.92,1.86-.51,2.5.62s0,1.83-1,2.28a6.31,6.31,0,0,1-2.11.44,2.25,2.25,0,0,0-1.84.78c1.43.69,2.8.25,4.13.36,1.06.48,2.35.24,3.33,1-.81.66-2.06.29-2.77,1.19C82.7,130.39,83.25,131.19,82.86,131.8Z"/><path class="cls-60" d="M61.86,123.48c1.83-.38,3.51.27,3.85,1.45s-.93,1.83-1,3.06c0,1.42-2,.13-2.78,1.12.61,1,1.54.73,2.25.29a1.35,1.35,0,0,1,1.77,0c.25.2.56.47.32.82a2,2,0,0,1-1.53,1.13,34.89,34.89,0,0,1-4.34,0c-.81-.08-1.29-.06-1.34.86-1.07.93-2.45-.07-3.61.61.85.27,1.88.05,2.42,1a1.78,1.78,0,0,1-2.42,1,8.78,8.78,0,0,0-1.93-.2h-.39c-.7,0-1.72.79-1.94-.27a1.51,1.51,0,0,1,1.91-1.7c-1.76-1.14-3.49-.13-5.13-.41.39-2.12-1.28-.2-1.55-.69.31.16,1,0,1.15.69-.27.4-.9.79-1.09.62-1.2-1.12-2.78-.45-4.06-1,.37-.65,1.15-.88,1.57-1.47.18-.25.58-.31.56-.73-.06-1.39.18-1.69,1.51-1.29,1,.29,1.81-.13,2.7-.18.43,0,.81-.25.74-.74-.24-2,1.17-1.49,2-1.24a10.31,10.31,0,0,0,4.84.21c.49-.28,1.42,0,1.26-1.09a1.07,1.07,0,0,1,.24-.46C59.16,124.15,60.28,123.12,61.86,123.48Z"/><path class="cls-61" d="M61.47,140.12c.93-3.47,1-3.36,4.76-3.72A4.7,4.7,0,0,0,69,134.58c2.48,1.57,4.83-.08,7.19-.44A15.87,15.87,0,0,0,80.88,133c.76.53,1.76.71.37,2-1.75,1.6.81,1.29,1.22,2q.19-.28.39,0h0c.16.12.43.24.42.39-.09,1.8.92,3.09,2,4.37.13.26.27.52.4.79.2.92.59,1.85,0,2.77a8.14,8.14,0,0,0-2.55.22c-.39.14-.59-.19-.59-.57s0-.64.53-.29,1.45.43,1.28-.38,1.36-2.36-.46-2.56c-2.49-.27-4-1.8-5.83-3.18-.91-.69-2.72-.22-4.11-.22-.52,0-1,.21-1.55.24-1.69.09-3,.39-2.79,2.66.07.65-.15,2.05-1.19,1.94-.6-.07-1.66.4-2.25-1-.3-.7-1.22-2.91-3.26-1.68-.06-1.36,1.26-1.56,1.69-2.48C62.75,137.74,62.53,139.52,61.47,140.12Z"/><path class="cls-62" d="M56.72,126.65c-2.3,1.12-4.52-.19-7-.19,1.2,1.81.38,1.94-1.33,2.33-1.45.33-2.73-.37-4.08,0,1.21,1.06.5,2.17-1.86,3-.53,0-1.06.38-1.58,0l-5.55-.4c.09-.71,1.57.09,1.21-1.05s-1.17-.85-1.88-.45-1,.17-1.22-.42c-.14-.4,0-1,.41-.94,1.86.36,1.72-1.33,2.35-2.2s.68-1.26,2-.44c1.59,1,2.82,1.85,3.09,3.8.07.55,1.17,0,1.24.79.56-.11.53-.65.77-1,1-1.48,1.33-3.75,3.92-3.54.31,0,.67-.38,1-.6s.67-.53.41-1-.66-.28-.9.1-.48.35-.76.08-.15-.47,0-.82c.47-1.25,1.88-1.22,2.62-2.08.16-.19.6.08.59.32-.09,1,1,1.44,1.12,2.43.15,1.32,1,1.81,2.3,1C54.49,126.17,56.05,125.2,56.72,126.65Z"/><path class="cls-63" d="M23,146.44l.09-1.58,6.29-1.18a2.27,2.27,0,0,1,2.78,0h.79c.06.4.13.72.7.63.79-.12,1.8-.45,2.08.67s-1.11.92-1.59,1.47C30.42,145.45,26.7,146.14,23,146.44Z"/><path class="cls-61" d="M55.92,138.93c.59,0,1.35,1.12,1.7-.35.16-.64.92-.55,1.35-.34.92.44.41,1.15,0,1.88h2.14c-1.23.82-3,.27-4.06,1.7-.5.65-.62-.48-.92-.78A1.65,1.65,0,0,1,55.92,138.93Z"/><path class="cls-64" d="M94.53,151.8a14.42,14.42,0,0,1,2.28-.94,2,2,0,0,1,2.45,1.45c.23.54.29,1-.29,1.34a2,2,0,0,1-2.64-.58A3.18,3.18,0,0,0,94.53,151.8Z"/><path class="cls-65" d="M85.64,145.27V142.5c.92,2.85,4.12,3.57,5.55,5.94-1.56,0-2.48-1.27-3.62-2C86.94,146,86.3,145.63,85.64,145.27Z"/><path class="cls-62" d="M47.6,132.2c-.73-.54-1.64-.29-3.06-.67,1.69-.59,3-1.47,4.11-.79,1.5.91-.55.88-.65,1.46Z"/><path class="cls-2" d="M60.36,147.66c0-.49.17-.73.53-.73a.85.85,0,0,1,.9.81.51.51,0,0,1-.53.63A.85.85,0,0,1,60.36,147.66Z"/><path class="cls-2" d="M39.45,146.38a1.63,1.63,0,0,1,2-1c.53.11.3.84.18.76C40.87,145.54,40.34,146.47,39.45,146.38Z"/><path class="cls-2" d="M70,152.45c.28,0,.49.18.44.48a.41.41,0,0,1-.53.39.59.59,0,0,1-.35-.39C69.49,152.62,69.7,152.48,70,152.45Z"/><path class="cls-66" d="M62.26,201.14c-.55-.22-.9-.85-1.58-.79V200c.58-1-.12-2.57,1.46-3.09-.36-.7-1.93-.5-1.33-1.38a3.72,3.72,0,0,1,2.72-1.64,4.38,4.38,0,0,0,2.84-.77c.71-.37,1.39-1.2,2.49-.8.61.23.78-.52,1.1-.92.89-1.13,1.55-2.92,3.5-1.35.57-.84,1.47-.73,2.31-.82s2.26,1.28,1.94,2.2c-.18.53-.1,1.19.2,1.16,1.74-.15,1.72,1.88,3,2.26l-2.37.4c-1.81-1.49-3.58.26-5.38.09-.57,0-.44.7-.66,1.06-1,1.74-2.61,1.93-4.45,1.77a3.35,3.35,0,0,0-3.63,1.63C64,200.55,62.23,199.51,62.26,201.14Z"/><path class="cls-2" d="M93.56,188.86A2.46,2.46,0,0,1,91.22,190a4.92,4.92,0,0,0-3.26,1.2,6.41,6.41,0,0,1-5.1,1.58c-.07-.69,1-1.69-.22-2-2.61-.72-1.21-2.07-.75-3.41.57.15,1,1.74,1.59.14.14-.37.74-.33,1.08-.15,1,.53,1.6,0,2.22-.64a1.51,1.51,0,0,1,.79-.54c.86-.07,2.08-.62,2.43.51.44,1.45-1.21.61-1.71,1.2.38.76,1.39.61,1.88,1.27a1,1,0,0,0,1.68,0A1.16,1.16,0,0,1,93.56,188.86Z"/><path class="cls-46" d="M43.26,203.53l-.42,0c-.82-1.39.11-2.1,1.1-2.74s2.62-.4,2.37-2c-.55-3.44-1.13-3.91-3.86-4a2.41,2.41,0,0,1,2.88-1,2.71,2.71,0,0,1,1.88,2.88c-.06.59,0,1.21.79,1.31.59,1.31,1.55.45,2.38.39A3.18,3.18,0,0,1,48,200.75c-.37.47,0,1.29-.8,1.58h-.39c-.44-.1-1.6.2-.45-.79.3-.26.38-.49.13-.8a.51.51,0,0,0-.69-.14c-1.16.7-2.69,1.09-2.55,2.93Z"/><path class="cls-2" d="M35.32,179.35a3.63,3.63,0,0,0-2.53.66c-.93.74-3.68-.6-5-2.25C30.09,179.27,32.8,178.85,35.32,179.35Z"/><path class="cls-2" d="M44,178.11c.92-.19,1.59-1.63,2.74-.64.26.23.42.51.13.85C45.83,179.45,44.93,178.32,44,178.11Z"/><path class="cls-2" d="M39.25,175.27a3.73,3.73,0,0,1-3.44.2C37,174.11,38,174.76,39.25,175.27Z"/><path class="cls-2" d="M88.62,183.21c.36.25,1.23-.15,1.16.65,0,.62-.72.64-1.26.63s-.83-.08-.82-.61S88,183.05,88.62,183.21Z"/><path class="cls-2" d="M99.51,186.88c-1.59,1-2.12,1-2.78,0C97.66,187.07,98.58,186.49,99.51,186.88Z"/><path class="cls-2" d="M87.4,184.41c-1.09,1.05-1.68,1.47-2.31.34C85.68,184.27,86.31,184.62,87.4,184.41Z"/><path class="cls-2" d="M49.19,181.33l-2.11,1.4c.25-.68.39-1,.53-1.4C48.13,181.47,48.66,180.61,49.19,181.33Z"/><path class="cls-2" d="M39.68,178.56a2.09,2.09,0,0,1-2.38,0C38.09,178.26,38.89,177.94,39.68,178.56Z"/><path class="cls-2" d="M93.32,187.14c.51-.38.87-.76,1.16-.41s-.14.48-.43.52A3.62,3.62,0,0,1,93.32,187.14Z"/><path class="cls-2" d="M95.54,188.07c-.3.27,0,.88-.51,1a3.39,3.39,0,0,1-.28-.61A.8.8,0,0,1,95.54,188.07Z"/><path class="cls-67" d="M148.64,113.18c-1.18.24-2.08-.63-3.15-.8-.17,0-.46.1-.31-.38.48-1.53-.57-2.34-2.49-2-1.24.79-1.91-.32-2.76-.83a2.93,2.93,0,0,1-.37-.42,6.46,6.46,0,0,1-2.18-3c-.45-1.49-2.36-2.33-2.79-4.08,0-.15-.34-.14-.54-.15a3.4,3.4,0,0,0-.78,0,2.44,2.44,0,0,1-2.93-1.39c-.38-1.15,1.15-1.35,1.81-2,.77-.43,1-1.69,2.27-1.36.68.84,1.32,1.09,2.29.26a2.68,2.68,0,0,1,3.84.73c.15.23.27.44.56.47,1.06.12,2,.28,1.67,1.78-.08.39.61.35,1,.5s1,.45.54,1.14c-.18,1.29.19,2.55-.48,3.91a2.63,2.63,0,0,0,1.63,3.53A4.73,4.73,0,0,1,148.64,113.18Z"/><path class="cls-68" d="M144.28,101.69c-.12-1-.91-.74-1.52-.8s-1.1-.13-1.08-.86c0-.45,1.3-.21.63-1-.41-.5-1-.07-1.49-.13-1.15-.13-1.09-.81-.49-1.79-.8.06-1.35,1.36-2.06,0-.56-1.08-1,.22-1.37.55-1.5,1.26-1.84,1.18-2.53-.67a.47.47,0,0,1,.4-.39c1.27-.1,2-1.22,3.18-1.57a6.19,6.19,0,0,0,4.75.17c1.66-.58,1.78,1.32,2.93,1.23C143.94,97.83,146.81,100.44,144.28,101.69Z"/><path class="cls-62" d="M143.09,206.69h-.4c-.82-.54.8-1.07.06-1.5-1.54-.89-2.61-3-4.91-2a.94.94,0,0,1-1.09-.08c-.83.17-1.36-.43-2-.79-.29.16-.48,0-.67-.19l-.2-.31c-.19-.26,0-1.11-.77-.46a2.1,2.1,0,0,1-.78-.21,4.9,4.9,0,0,1-.52-.24c-1-.31-1.66-.79-1.15-2a14.5,14.5,0,0,1,2.95-2.58,3.74,3.74,0,0,1,3.72-.68c2.45,1.06,5.07,1.3,7.62,1.88a6.75,6.75,0,0,1,3.4,1.42,3,3,0,0,1,.41,1.29c.24,1.7,0,2-1.78,1.64-1.11-.24-2.17-.43-3,.16,1.76-.12,3.72.14,5.67,0,.77,1.85.56,2.25-1.17,2.23-1,0-2,.35-3.09.39.2.88.88.67,1.29.92a1.55,1.55,0,0,1,.89.78c-.11,1.15-.71,1.48-1.76,1.06C145.2,206.31,143.92,207.28,143.09,206.69Z"/><path class="cls-69" d="M130.81,199.16c-.31,1.36,1.13,1,1.53,1.64-.75.76-1.82.08-2.7.48.87-.41,2,.57,2.7-.48a4,4,0,0,1,.84.34c.42.24.79.53,1.19.79l.4.4c.15,1.11-.54,1-1.2.78-1.15-.32-2.28-.7-3.22.46-.25.31-.55.1-.87,0-1.74-.49-2.47.21-2,1.94.13.48.23.9-.19,1.25a1.28,1.28,0,0,1-1.62,0c-.61-.37-1.26-1-1.57.27-.62-.35-1.15-1-2-.79-.13-.26-.26-.53-.4-.79.42-.47,1.12-1,.32-1.59-1.23-1-.57-1.46.4-2a3.91,3.91,0,0,0,.92-.71.6.6,0,0,0,.06-.87.51.51,0,0,0-.83-.07,1.58,1.58,0,0,1-1.33.6,4.61,4.61,0,0,1,.86-2.54c.58-1.53,1.93-1.41,3.06-1.16A26.92,26.92,0,0,1,130.81,199.16Z"/><path class="cls-70" d="M157.35,218.57v-.79a4.41,4.41,0,0,0-2.75-.81c-.77,0-1.41-.29-.6-1.18.49-.54.29-.73-.32-.87s-1-.74-1.28-1.35-.78-1.24-1.6-.26-1.88.26-2.59-.27a1.38,1.38,0,0,1,0-2.34,1.47,1.47,0,0,0,.43-1.24.64.64,0,0,1,.07-1c1.4-.6,1.42-1.88,1.68-3.06a1.52,1.52,0,0,1,.19-.5,1.66,1.66,0,0,0,.4-1.41c-.4-1.28.3-1.58,1.37-1.58l.26,0c1.29,1.72,1.38,1.8,2.77,2.38a5.06,5.06,0,0,0-.78,0c-.49.06-1.24-.26-1.39.36-.2.8.73.48,1.09.75.8.62,2.38,1,.26,2.14-1.18.6.12,1.22.33,1.93-.88.18-1.91-.46-2.5.53-.29.47,0,.83.25,1.24.57.89,1.24.11,1.89,0-.59,1.83-.15,2.33,2,2.5a2,2,0,0,0,.34.47c.35.28,1.15-.08,1.12.75s-.9.48-1.28.82C157.27,216.72,158.35,217.42,157.35,218.57Z"/><path class="cls-71" d="M136.75,203.12c2.22-1.31,4-.73,5.48,1.23a2.27,2.27,0,0,0,1.94.68c0,1-1.79.41-1.48,1.66a30.86,30.86,0,0,0-3.36-.95C137.87,205.56,137.18,204.43,136.75,203.12Z"/><path class="cls-71" d="M150.62,205.49c1,2.15-1.37,2.63-2,4a2.15,2.15,0,0,1-2.77-2c.73-.14,1.47-.25,1.59-1.19C148.25,205,149.51,205.55,150.62,205.49Z"/><path class="cls-71" d="M143.09,206.69c.93.26,2.19-.66,2.77.79C145.07,206.78,143.87,207.47,143.09,206.69Z"/><path class="cls-72" d="M143.09,131a18.49,18.49,0,0,1,1.11,2.89c.19.89.19,1.68,1.42,1.69.53,0,.74.57.77,1,.09,1-1.29.49-1.51,1.42,1.5,1.11,3.69-.73,5.2,1.08-1.85-.11-1,1.09-1.23,1.9.74.09,1-1.17,1.74-.45s-.15,1-.34,1.47c-.35.88-1,1.74.75,1.85.47,0,.91.59,1.33.88-.36.8-1.38,0-1.52.68s-1.83,1.87.44,2.38c.5.11,1.57.38,1.73,1.36.09.51.09,1.11.9,1,.62-.1,1.13-.27.94-1.32.54,2.46,2.19,2.48,3.82,2.09,1.06-.25,1.69.38,2.83.78-1.79.88-3.58-.39-5.21.88,2.1,1,4.11,1.41,6.24.21.35.81,2.67.56,1.21,2.49-.3.38,1.33,1.67,1.21,2.92,1.93-.16.63,1.36.81,1.95s0,1.6.6,2.33-.3.73-.52,1.09c-.68,1.09.08,2.86-1.62,3.55a.65.65,0,0,0,.06.53c1.43,1.22,1.44,2.73,1.38,4.49,0,1.3,4.14,2.76,6.16,2.31.64-.14,1.25-.53,1.81.13,2.29,1.1,1.09,3.53,2,5.16-.07,0-.15,0-.19,0-1.41,1-2.12-1.41-2.87-.86-1.16.85-2,1.18-3,.12a.45.45,0,0,0-.16-.12c-3.54-1.38-5.26-4.32-4.89-8.42a1,1,0,0,0-.37-1.05c-.87.14-1-.45-1.08-1.09.21-2-1.07-3.47-1.92-5a8.86,8.86,0,0,0-3.2-3.36c-1.74-1.07-2.79-3-3.85-4.67a9.65,9.65,0,0,0-6.85-4.55c-1.35-.26-3,.24-4-1.24a2.43,2.43,0,0,1-.17-.54c0-1.28-.83-2.15-1.47-3.13a2.77,2.77,0,0,1-.44-1,1.33,1.33,0,0,1,.21-1.13c1.1-1.12,1.18-2-.32-2.9-.94-.58-.3-1.51.26-2a3.55,3.55,0,0,0,1.13-4.23,5.49,5.49,0,0,1,.31-3.09A1.16,1.16,0,0,1,143.09,131Z"/><path class="cls-73" d="M130.81,199.16c-1.67.35-3.06-.57-4.47-1.12a4.22,4.22,0,0,0-4.25.32H120.9a8.55,8.55,0,0,1-4,0,2.48,2.48,0,0,1-3.13-1.25c-.67-1.15-2-.79-3-.59s-5-1.53-5.26-2.52c-.37-1.2.73-2.32.35-3.57-.27-1.49.52-3,.14-4.47a.79.79,0,0,1,.32-.69c1.43-.81,1.31-2.06,1.38-3.5.2-4.45,1.07-5.14,6.13-5.53-1.28-1-1.51-2-.14-3a.68.68,0,0,0,.22-1,.91.91,0,0,0-1.24-.24c-.83.42-1.66.9-2.54.11a.72.72,0,0,1-.07-1.06,3.37,3.37,0,0,1,2.81-1.18,2.08,2.08,0,0,1,2.06,1.8c.32,1.43,1.1,1.6,2.45,1.44,2.76-.33,5.47.4,8.2.74.56.07,1.27.55,1.47-.31.14-.63-.64-.7-1.1-.91-2.53-1.11-5.3-.72-7.93-1.2-.49-.09-1.26.2-1.32-.51-.07-.95.81-.64,1.32-.68a21.2,21.2,0,0,1,6.1.61c1.45.31,2.9,0,4.33.2.92.12,1.85-.1,2.17,1.51.28,1.42,2.37,1.5,3.53,1.48,1.91,0,3.9.57,5.78-.24l.11.24c.05.74-.52,1.28-.64,2,.53.43,1.19.22,1.78.36.9-.09,1.8.08,2.69,0a5.54,5.54,0,0,1,.56,0c2.43-.39,2.74-.19,2.77,1.79.12.78.55.09.82.16a6.81,6.81,0,0,0,5,.88,1.14,1.14,0,0,1,1.56.79,1.45,1.45,0,0,1-1.15,1.62,9.83,9.83,0,0,0-2.43.78c.3,0,.53-.22.79-.21a38.33,38.33,0,0,0,8-.46,2.24,2.24,0,0,1,1.5.37c.22.23.68.53.63.67-.34,1.1-1.15,2.24.89,2.57,1.07.17,1.47,1.81,3.06,1.26a1.7,1.7,0,0,1,2.19,1.49c.24,1.17,1.33,2,3.08,1.44,2.63-.87,5.07.95,4.81,3.27a6.88,6.88,0,0,1-.61.91,15.38,15.38,0,0,1-5.6,3.94,34.4,34.4,0,0,1-4.27,1.54,28.48,28.48,0,0,1-6.12-.13,7.07,7.07,0,0,0-3.9.3c-1.77.78-3.64.48-5.45.76a1.66,1.66,0,0,1-1.79-1,41.31,41.31,0,0,0-8.12-2c-.26-.05-.6.07-.78-.06-3.13-2.38-5.44-.55-7.73,1.47C131.36,198.81,131.08,199,130.81,199.16Z"/><path class="cls-74" d="M146.66,178.56c.41-2.08.14-2.26-2.38-1.59a1.13,1.13,0,0,1,.12-1.06c-.42.42-.35.79-.52,1.06-.92.09-1.85-.34-2.77,0-.52-1.26-.09-2,1.23-2.27.7-.13,1-.49,1-1.21s-.26-1-1-.54-1.38,1.28-2.44.85c-.08-1.08-.83-1.2-1.69-1.19-1.24,0-2.49,0-3.73-.06-.46,0-1-.2-1.07-.69s.58-.67,1-.76A7.45,7.45,0,0,1,136,171c1.16,0,2.32.13,2.43-1.54,0-.26.34-.56.6-.72.44-.26,1.38,0,1.17-.94s-1.15-.66-2-.9c1.28-.8.9-1.71.36-2.65s-1-1.64.28-2.3c.54-.28.73-.79,0-1.21-.49-.29-.27-.74-.36-1.15-.35-1.56-1.47-2.82-1.93-4.38-.13-.41-.9-.12-1.36.22a.63.63,0,0,1-.87-.24c-.25-.35,0-.63.27-.82.9-.66,1.69-1.34,1.11-2.61a.46.46,0,0,1,0-.2c.08-.72,2-.77,1-1.57s-2.37-1.6-3.81-1.1c-.91.32-1.68-.16-2.52-.07s-1.55.76-2.59,0c1.25-.45,2.47-.81,2.53-2.35,0-.35.61-.47,1-.44,1.42.1,2.45-.77,4-1.47-2.08-1.09-4.12.69-5.75-.82-.21-1.25,2.42-.4,1.78-2.11-.34-.92.36-2.26-1.32-2.61a2.4,2.4,0,0,1,2.28-.73c1.94.88,2.15-.75,2.78-1.71.28-.43.38-.89.87-1.23.94-.64,2.69-1.39,0-2.15-.93-.26-1-1.12-.26-1.86.28-.27.73-.48.45-.95a.88.88,0,0,0-1-.36,2.05,2.05,0,0,1-2.25-.89c-.81-1.05-1.45-2.17-3.07-1.8a.66.66,0,0,1,0-1.32c1.44-.49,1.26-1,.19-1.78-.73-.51-.53-1,.31-1.18.36-.09.9,0,.8-.6a.8.8,0,0,0-.93-.59c-2.62.39-2.8-2.87-4.95-3.32-.47-.11-.26-1.09.67-1,1.36.18,1.84-.36,1.45-1.68,1.22-.62,1.87-.49,1.69,1.12a3.5,3.5,0,0,0,2.09,3.79c1.91,1.06,2.92,3.4,5.25,4.08.37.12.21.84.29,1.29.29,1.83.08,3.72,2.63,4.54,1.9.61,2.66,3.82,1.94,6.25a15.3,15.3,0,0,1-.58,2.08c-.31.73-.33,1.31.66,1.7s1.23,1.35.37,2.18a1.24,1.24,0,0,0-.07,1.9l.39.79c.21,1.21.27,2.51,1.59,3.17v.4c-.24.69,0,1.44-.26,2.12-.64,1.62-.31,2.68,1.56,3,1.32.25.87,1.4,1,2.52,1.13-1.26,2.1-1.73,2.72.24.22.71,1,.57,1.55.4a2.75,2.75,0,0,1,3.36,1.4c.42.67.89,1.11,1.77.85,1.26-.36,2.29.46,3.42.75.64.17.59.76.66,1.29.2,1.55.58,2.86,2.39,3.44a2.68,2.68,0,0,1,1.65,3,1.18,1.18,0,0,0,.79,1.19c-.45,1.36-1.81,2.62-.2,4.14.49.47,0,1.12-.38,1.6-.79,1.11-1.6,2.21.15,3.22a.73.73,0,0,1,.36.85,1.05,1.05,0,0,1-1.27.68c-1.95-.22-2.28.59-1.43,2.19a65.36,65.36,0,0,1-9.89.62,2.5,2.5,0,0,1-2-.9c1.51.3,2.5-.62,3.76-.58a1,1,0,0,0,1-1.21c-.1-.48-.86-.62-1.34-.41-2,.84-3.56.11-5.07-1.08A.84.84,0,0,1,146.66,178.56Z"/><path class="cls-75" d="M165.68,198.76c2.82-1.24,5.82-2.11,8.25-4.2.49-.43.77-1,1.26-1.34,2.36-.87,3.41.64,4.35,2.37,0,.27,0,.53,0,.79a68.76,68.76,0,0,0-6.42,6.24,1.87,1.87,0,0,0-.32,1.29c-1.15-1-2.12.41-3.23.24-.57-.09-1.5.77-1.55-.5,0-.51-.5-2,1.16-1.26.28.12.81-.34,1.22-.54a.5.5,0,0,0,.32-.63.39.39,0,0,0-.59-.29c-.68.36-1.29-.17-1.9-.13-.79.06-1.88-.81-2.16-.21-.39.87-.88,2.1.23,2.94-.71.93-1.59-.4-2.22.38h-.4c-.46-.07-.53-.53-.79-.8h-.39c-.1-.18-.1-.5,0-.52,1.93-.3,2.24-1.81,2.57-3.33C165.15,199,165.48,198.93,165.68,198.76Z"/><path class="cls-38" d="M179.54,195.59c-1.43-.83-2.19-2.88-4.35-2.37a.81.81,0,0,1,.79-.4c.65-.28,1.16-1.22,2.05-.49S180.21,194,179.54,195.59Z"/><path class="cls-76" d="M134.77,96.54l-.4.39c-1,.08-1.08,1.36-2,1.59-2.19,1.14-4.45.44-6.45-.25-2.89-1-5.63-2.55-6.74-5.79a1.55,1.55,0,0,1,.14-1.12,12.22,12.22,0,0,0,.48-1.27.9.9,0,0,1,.37-.38c.24,0,.58.37.62.18.36-1.68,2-2.19,2.92-3.35.36-1.15.85-2.25,1.1-3.44.09-.41.19-.91.82-.84.14.81.33,1.78,1.43,1.16,1.71-1,1.59.48,2.11,1.54.55-3,2.57-2.44,4.49-2.09.74.13,1.14-.38,1.91-.9-.28,1.22.58,2.33-.63,3.16-.19-.94-2,.77-1.67-1-1.21.41-1.17,2.2-2.73,2.4-.47.07-.6.94-.18,1.55s.88.14,1.29-.11c.88-.56,1.45-2,3-1.07-.58.83-1.87.58-2.17,1.81a3.23,3.23,0,0,1,3.06,1.45,5,5,0,0,1-.76-.19,1.15,1.15,0,0,0-1.39.43.57.57,0,0,0,.06.53c.36.49.8.22,1.24.1a5,5,0,0,1,1,0c-.12,1.5-.9,2.1-2.28,2,.14.79.73.89,1.2,1s1.25-.51,1.51.34-.35,1.18-.91,1.57A2.48,2.48,0,0,0,134.77,96.54Z"/><path class="cls-7" d="M164.68,93.44c-.58.8-1.2.29-1.74.38s-1.25.71-1.73-.13c-.2-.35.16-.67.42-.77.67-.26,1.31-1,2.11-.27C164,92.91,164.33,93.14,164.68,93.44Z"/><path class="cls-77" d="M125.65,82.26c-.53,1.58-1.05,3.17-1.58,4.76-.74-1.19-.54-3-2.41-3.46-.48-.13-.74-1-.57-1.58.45-1.33-.26-2.42-.53-3.6-.26.66.35,1.09.48,1.64s.19,1.06-.41,1.11c-3,.23-2.61,2.69-3,4.59-.07.3,0,.65-.15,1-1.88.31-2.74-.45-2.47-2.21,0-.32.31-.75,0-.92-1.65-1.05.24-2.6-.57-3.8-.17-.24.3-.84.91-.64.77.4,3.26-.6,3.41-1.4.2-1-.83-.69-1.24-1,3.18-2.69,6.4-5.16,10.91-4.32,1.41,0,1.41,0,1.19.8-.67.09-.89.44-.63,1.07a.76.76,0,0,1-.4.33c-.55.31-1,.81-1.73.76s-1,.13-.88,1-1,1-1.53,1.45c1,.25,2.43-.4,2.93,1.14-.47.78-.28,1.7-.54,2.52A1.21,1.21,0,0,0,125.65,82.26Z"/><path class="cls-78" d="M128.43,74.35h.39c.3-.74,1.16-.32,1.59-.78.13-.31-.23-1.17.55-.77a5.15,5.15,0,0,0,2.23.38c0,1-.83,1.76-.8,2.76A1.41,1.41,0,0,0,130.67,77a20.26,20.26,0,0,1-2,3.89c-.38.63-.89,1.41-1.81.56-.57-.91-1-1.79.39-2.38,1.3-1.17.6-2.83,1-4.22A1.11,1.11,0,0,1,128.43,74.35Z"/><path class="cls-79" d="M132.39,75.93c-1.32-1.38.37-1.89.8-2.76l1.18.38c.91.21,1,.22,1.06-.78,0-.54.09-.92.61-1,1-.18.13.68.49.91.65.4.37,1.59,1.41,1.68-.11.29-.19.81-.35.83C135.86,75.44,134.2,76.24,132.39,75.93Z"/><path class="cls-76" d="M136.57,86.59c-.32.5-.67.84-1.17.6a.53.53,0,0,1-.15-.5C135.62,85.9,136.14,86.79,136.57,86.59Z"/><path class="cls-5" d="M32.15,143.68H29.37c-.05-.29-.68-.41-.41-.7C29.62,142.27,31.66,142.76,32.15,143.68Z"/><path class="cls-80" d="M99.9,83.86l.4-.4c.62.63,1.59.73,2.18,1.41-.31,1.61-1.9,2.25-3,2.66a9,9,0,0,1-4.68,1,2,2,0,0,1-1-.58c.3-1.12-.11-1.51-1.25-1.33-.72.11-1.37-.2-2.18-1.27.33,2.27-1.12,3-1.9,4.15-.61-.36-.6-1-.66-1.58.54-2.31-.77-3.92-2.06-5.57-.38-.47-.82-.3-1.24-.35-.72-.08-1.45-.12-1.81-.91.29-1.25,1.38-1.76,2.31-2.35.54-.35-.08-.43,0-.63.08-.64.06-1.34,1-1.44C87,78,87.94,79.26,89.76,79.5a1.14,1.14,0,0,1,1,1.29c0,.79-.19,1.62-1.24.76-.38-.31-.92-.1-1.17-.41.89.49,2.51.64,1.58,2.38.79-1.14,1.49-.61,2.16.25a1.54,1.54,0,0,0,2.14,1C96.06,84.28,98.06,84.51,99.9,83.86Z"/><path class="cls-81" d="M92,83.86c-1-.81-1.82-.48-2.73.63.92-1.71.9-2.7-1-3-.69-.1-.73-.81-.13-1.74-.07,1.84,1.71.74,2.09,2.35.35-1.47.3-2-.91-2.29-1.62-.34-3-1.16-3.22-3.08a.66.66,0,0,1-.23-.52c0-.51.22-1.09-.68-1.06s-.87.4-.74,1c.23,1.15-.46,1.7-1.37,2.1-.66.3-1.31.52-1.73-.35.46-.59-.85-1.77.89-2.08.81-.14.93-1.63,1.29-2.56.16-.42.48-.24.82-.11a3.21,3.21,0,0,0,2.43.08,1,1,0,0,1,1.56.58c.39,1.21-.77.2-.84.47a6.07,6.07,0,0,0-.25,2.84c.26,1.38,1.92,1.52,2.36,1.43,2.5-.55,2.9.85,3.81,2.72s-1.15,1.58-1,2.56A.23.23,0,0,1,92,83.86Z"/><path class="cls-82" d="M94.75,70.39c.74-1.06-.21-1.13-.88-1.45,1,0,1.5-.66,2.16-1.31.5.94.53,2.28,2.46,1.38L96.89,71c1.15.93,2.65-.63,3.63,1.26.38-2.41-1.14-2.89-2.47-3.87,2-.28,3.72.68,5.42-.12.13.72-.34.7-.53.91-1.28,1.37-1.22,1.71.46,2.4a3.66,3.66,0,0,1,1.88,3.78c-.71.16-.89-1.6-1.81-.57l-4.89-1c-.34-.63,1.27-.71.43-1.5a1,1,0,0,0-.89-.26c-.93.13-.27,1-.66,1.48C96.3,72.66,96.31,70.81,94.75,70.39Z"/><path class="cls-83" d="M102.28,84.65c-1.13.38-1.78,0-2-1.19-.38-1.28,0-1.73,1.42-1.81.68,0,1.53.73,2.15-.17a5.67,5.67,0,0,1,1.25-.64,4.05,4.05,0,0,1,1.43.09,5.1,5.1,0,0,1,2.6.59c.32.57,2.11.8.43,1.84-1.47-.38-3-.76-4.29.39A4.54,4.54,0,0,1,103.07,85,1.05,1.05,0,0,1,102.28,84.65Z"/><path class="cls-81" d="M81.28,77.92a1.29,1.29,0,0,0,1.58,0c.8.1,1.68-.33,2.38.39l.48.23c-1,.64-1.53,1.95-2.87,2.16a.88.88,0,0,1-.77-.09c-1-.34-2.12-.51-2.79-1.5.71-1.33-1.21-1.37-1.16-2.38C79.51,76.24,80.29,77.36,81.28,77.92Z"/><path class="cls-84" d="M92,83.86h.39c1.12-.8,2.25-.09,3.38,0,1.38.09,2.77-.35,4.15,0-1.37,1.55-3.29,1-5,1.26a2,2,0,0,0-.77.14C92.68,86,91.9,85.56,92,83.86Z"/><path class="cls-23" d="M86.06,68.47c.9.29,1.91-.4,2.75.33-1.58,1.85-4.38,2.45-5.55,1.19C84.52,70.09,85.75,70.11,86.06,68.47Z"/><path class="cls-82" d="M92,69.2c.45-.17.92-.61,1.21.24s.91.85,1.56,1C93.65,71.12,92.74,70.73,92,69.2Z"/><path class="cls-82" d="M102.28,76.73c1.75.52.31,1.57.39,2.37C100.71,78.62,102.62,77.48,102.28,76.73Z"/><path class="cls-82" d="M105.05,81.09c-.28.46-.75.38-1.18.39-.21-.09,0-.44.39-.79l.79-.4A.53.53,0,0,1,105.05,81.09Z"/><path class="cls-82" d="M102.28,75.14c-.13.27-.27.53-.4.79-.43-.05-.91.15-1.3-.23C101,74.88,101.69,75.23,102.28,75.14Z"/><path class="cls-82" d="M103.07,79.5c.19.57,2-1.28,1.19.79Z"/><path class="cls-85" d="M53.94,111.59c.11-.49,1.38-.22.79-1.18a4.86,4.86,0,0,1,4.57-3.67,20.67,20.67,0,0,0-2.22.14,4.21,4.21,0,0,1-2.35-.83c-.79-1,1-.88.79-1.63,0-1.54,1.43-.58,2-1.13l1.58-.45c1.35,0,2.37-1,3.63-1.2a11.24,11.24,0,0,0,3.86-1.43,1.29,1.29,0,0,1,2.1.53,4.68,4.68,0,0,0,.66,1c.93,1,.67,1.67-.49,2.28a2.66,2.66,0,0,0-1.23,3.8c.57,1,.11,1.44-.62,1.59-1.72.36-2,1.49-1.81,2.93-.38.66-1.27,1-1.24,1.93-.1.75-.17,1.52-1,1.84a2.55,2.55,0,0,1-2.71,0c-1.19-.67-2.67-.05-4-.34-2.11-.45-2.17-.53-1-2.35C55.93,112.07,54.3,112.22,53.94,111.59Z"/><path class="cls-86" d="M57.52,103.29c-.52.64-1.67.16-2,1.13a.79.79,0,0,1-.8-.34c.54-1.27-.37-1.58-1.26-1.7-.49-.06-1,.21-1.53-.2-.09-1.05,2.15-1.38.85-3a3.09,3.09,0,0,0-3.06-1.34,3.67,3.67,0,0,1,5.59,1.64c.26.66.7,1.49.5,2C55.11,103.54,56.41,103.26,57.52,103.29Z"/><path class="cls-87" d="M55.53,95c.78-1.39,2.29-1.47,3.56-2a1.3,1.3,0,0,0,1.48.69c.79-.17,1.37-.14,1.73.76.44,1.1,1.52.32,2.26.63s1.93-.28,1.87,1.11-1.18,1.2-2.06,1.25a4.15,4.15,0,0,1-2.31-.27l-.2-.22C60.85,94.62,58.27,93.81,55.53,95Z"/><path class="cls-88" d="M63,102.08c-1.32.25-2.52,1-3.94.76.43-.61,2.78-.06,1.13-2-.3-.35.54-.24.84-.36a3.68,3.68,0,0,0,1.24-.94c.93-1.41,2-1.18,3.12-.25l-.39.8C65.08,101.49,63.67,101.39,63,102.08Z"/><path class="cls-87" d="M65.43,99.31c-1.26-.27-2.52-.64-3.27,1-.1.21-.71.17-1.09.24,1-1.37,1-1.37-1.5-3.57h2.3a5.32,5.32,0,0,0,2.33.74c.72.15,1.45.34,1.63,1.23Z"/><path class="cls-89" d="M53.94,111.59c.83.09,1.89-.37,2.06,1.12.08.73.31,1.29-.75,1.27-.3,0-.7,0-.72.46a.6.6,0,0,0,.62.63c1.33-.26,2.63,1,4,.09a.85.85,0,0,1,1.07.17,2.66,2.66,0,0,0,2.48.62,1,1,0,0,1,.2,1.09,1.18,1.18,0,0,1-.42.38,27,27,0,0,1-5.24.67,1.87,1.87,0,0,0-2.15,1.31c-.35,1.08-1.62,1-2.3,1.7a38.53,38.53,0,0,0-4.92.17,6.33,6.33,0,0,1-2.44-.49c-.79-.16-1.65-2.09-2.58-.17-1.63-1.56-3.56.92-5.32-.29,2.09-.85,4-1.85,6.27-1.27.13,0,.47-.17.46-.23,0-.23-.11-.6-.27-.65a2.18,2.18,0,0,1-1.5-1.42c-1-.25-1.5-1.19-2.38-1.59.15-.3.39-.71.7-.56,1.72.86,3.43.42,5.19.15,1.23-.2,2.23-.46,2.41-1.85.1-.72.52-1.23,1.13-1.05C51,112.31,52.46,111.55,53.94,111.59Z"/><path class="cls-90" d="M52.75,121.1c0-.53,0-1.14.73-1.15.89,0,1.2-.25,1.16-1.29s1.24-1.07,1.82-1c2.11.18,4.11-.69,6.2-.5.54.92-.25,1.26-.76,1.71-1.15,1-2.65,1.68-2.94,3.51-.13.76-1.26.81-1.86,1.29a.75.75,0,0,1-.78-.17c-.45-.56-1.09-.45-1.64-.38C53.05,123.33,52.53,122.59,52.75,121.1Z"/><path class="cls-62" d="M56.32,123.48h.79a1.2,1.2,0,0,1,.79,1.59,3.35,3.35,0,0,1-4,.39c-.14-.73-.92-.53-1.41-.78C53.55,123.17,55,123.51,56.32,123.48Z"/><path class="cls-91" d="M53.94,125.46a14.64,14.64,0,0,0,4-.39c.17.46.34.93.51,1.42-.56.33-1.18-.3-1.69.16-.85-1-2.58.44-3.18-1.18Z"/><path class="cls-89" d="M54.73,106.05c1.7.6,3.56.14,5.31.83-2.89-.41-3.64,2.25-5.31,3.53h-4c.2-.5.35-.85.49-1.19a1.93,1.93,0,0,0,.31-.49,5,5,0,0,0-.31.49c-2-.65-.38-1.71-.12-2.36.52-1.34,1.2.15,1.94,0,.3-.33-.54-.93.28-1.38l1.88,2.08C55.66,106.79,54.78,106.53,54.73,106.05Z"/><path class="cls-92" d="M43.25,205.49c1.29-.79,1.72-2.68,3.56-2.76-.54,1.05.11,2.69-1.59,3.17a1.07,1.07,0,0,1-.48.29A1.62,1.62,0,0,1,43.25,205.49Z"/><path class="cls-93" d="M44.83,205.9h.39c.69,1.28-.21,1.82-1.11,2.36l-1.28-1.53a.89.89,0,0,1,.41-.83C43.77,205.8,44.3,206.37,44.83,205.9Z"/><path class="cls-47" d="M47.2,202.33l.8-1.58C47.92,201.37,48.26,202.2,47.2,202.33Z"/><path class="cls-70" d="M161.82,214.07c.15-.12.35-.42.49-.39a1.16,1.16,0,0,1,.77.47c.12.25-.19.42-.46.43S162,214.61,161.82,214.07Z"/><path class="cls-82" d="M109,81.88a5.11,5.11,0,0,0-2.78-.4c0-1.31-.77-2.9,1.19-3.56.43-.09.81.34,1.31,0s-.31-1.29.61-1.12.24,1,.73,1.66c.13-.73,2.73-.66.36-2-.25-.13-.56-.53-.28-.81.43-.41.82.1,1.23.22l.8,2.37-.16.2c-.57.52-.11.7.29.94A2.08,2.08,0,0,1,113.4,82a1.07,1.07,0,0,1-.78.15,1.91,1.91,0,0,1-.85-.43c-.59-.54-1.09-1.14-1.57.16C110.06,82.26,109.43,82.15,109,81.88Z"/><path class="cls-16" d="M107.43,77.92c-1.52.81-.27,2.54-1.19,3.56l-1.19-.39v-.8c1.4-.41.14-1.71.8-2.37.38-.41.16-1.42,1.18-1.19C107.17,77.12,107.3,77.52,107.43,77.92Z"/><path class="cls-82" d="M114.56,75.14l-3.17.8c-.1-1.48.65-1.91,2-1.59Z"/><path class="cls-82" d="M107,76.73l-1.18,1.19c0-1-1.23-.85-1.4-1.79C105,78.05,106.59,74.09,107,76.73Z"/><path class="cls-82" d="M107,74c-.22.15-.35.3-.49.31s-.51-.1-.42-.41c0-.11.29-.22.44-.22S106.76,73.81,107,74Z"/><path class="cls-94" d="M63,102.08l2-2c1.73-.49,2.77-2,4.35-2.78.67.33.54.8.21,1.29s-.61.89,0,1.35a1.41,1.41,0,0,0,1.79.22,19.12,19.12,0,0,1,3.21-1.42c1.17-.49,2-.33,2.58.84.85,1.3,2.28.75,3.44,1.08a2.86,2.86,0,0,0,1.16,1,.4.4,0,0,1-.09.45,1.72,1.72,0,0,1-.53.51c.4-.06.44-.57.83-.62.63.19,1.11.58.92,1.26a1.31,1.31,0,0,1-1.59.86c-2.28-.49-3.86.65-5.36,2.07-.79.34-1.44.66-2.22-.29a1.54,1.54,0,0,0-2.41.18c-.71,1.17-1.94,1.79-2.57,3a17.25,17.25,0,0,1-1.87,2.77c-.44.64-1,1-1.83.58-.67-.92-.17-1.76.14-2.64.44-1.24,2,0,2.47-1.32-2.5-.35-.44-2-.73-3.11-.5-1.81,2-1.26,2.65-2.42a1.32,1.32,0,0,0-.07-.27c-1.11-2.55-2.77-2.38-4.76-1A5.94,5.94,0,0,1,63,102.08Z"/><path class="cls-85" d="M76.92,99.71c-1.91-1.7-3.54,0-4.94.74a2.23,2.23,0,0,1-2.63,0c-.94-.56-1.52-1.15-.18-2,.48-.29.48-.73.22-1.19a16.47,16.47,0,0,0,2.79-3.94c.71-1.21,1.71-.78,2.29-.09,1.61,1.9,3.66,1.73,5.76,1.52a1.84,1.84,0,0,1,1.32.26c.24.21.22.54.82.55,1.52,0,2,1.19,1.31,2.7a3.2,3.2,0,0,1-3.19.22c-1.47-.81-2.49-.21-3.34,1Z"/><path class="cls-95" d="M81.67,95.33c-1-.51-1.84.41-2.81.21-1.66-.35-3.61.18-4.7-1.81a1.21,1.21,0,0,0-2-.34c-.06-.68.39-1.47-.41-2a7.83,7.83,0,0,1,4.75-1.59c.64.32,1.26.64,2,.15A1.07,1.07,0,0,1,79.9,90c.91.95,1.36,2.46,3.16,2.27.43,0,1,.55,1,1.11,0,.91-1,.64-1.45,1.07C82.27,94.75,82.06,95.14,81.67,95.33Z"/><path class="cls-88" d="M65.83,98.91a2.19,2.19,0,0,0-1.92-.78,2,2,0,0,1-2-1.19h2.95c.59,0,1.22.12,1.23-.79,0-1.14-.72-.29-1.08-.4-.91-.29-1.87-.79-2.87.56-.13-1.67-.34-2.92-2.19-2.39-.37.1-.81-.39-.82-.94,1.19.72,2.38.3,3.57,0,1,1.2,2.24,1,3.52.62.32-.11.64-.29.92,0s0,.56-.1.85-.37.78-.28.86c1.57,1.39,1.11,1.95-.74,2.28C65.11,97.69,66.71,98.53,65.83,98.91Z"/><path class="cls-95" d="M70.19,88.22c2.31.16.94,2.17,1.58,3.17-1.22.26-.69,1.33-.73,2s-.43.79-.49.64c-.34-.9-1.81-.49-1.79-1.47,0-.8.52-.23.93-.11,1,.27,1-.43.67-1A3.44,3.44,0,0,1,70.19,88.22Z"/><path class="cls-96" d="M79.69,90.2c-.58-.43-.86.23-1.29.36-.82.25-1.65.48-1.88-.76.36-.77-.3-1.28-.49-1.92s-1.8-.95-1-2.18a12,12,0,0,0-1.39-.58.7.7,0,0,0-.83.38c-.39.74.42.62.68.9s.53.69.08,1.17-1,1-1.67.67c-.38-.16-.45-.66-.32-1.21.65-2.73,1.81-4.13,3.75-4.36,1.68.22,2.19-1.66,3.57-2,1.11-.89,2.37-.25,3.55-.37l.39.38c.23.22.52.68.67.64,2.36-.63,3.06,1.56,4.36,2.61s.28,2.58.53,3.87c-.92.56-1.3.19-1.45-.76A2.49,2.49,0,0,0,85.23,85c-.08-.07,0,.45,0,.2,0-.08.09-.06.19,0A5.07,5.07,0,0,1,86,89.11c-.52,1.34-1.73,1.14-2.68,1s-2.5.59-2.95-1.13C79.92,89.23,80.83,90.31,79.69,90.2Z"/><path class="cls-82" d="M116.94,73.56c1.56.63.7,1.73.15,2.24-.94.88-1.84.19-2.53-.66C115.54,74.89,116.93,75.27,116.94,73.56Z"/><path class="cls-82" d="M119.32,72.36a3.44,3.44,0,0,0-2.38,1.2c-.89-.7.07-1.61-.33-2.43C117.83,71,118.55,71.72,119.32,72.36Z"/><path class="cls-45" d="M121.69,70a.81.81,0,0,0-.79.4c-.24,0-.66-.07-.46-.38C120.77,69.46,121.26,69.46,121.69,70Z"/><path class="cls-97" d="M53.64,92.67c-.78.16-1.19,1.19-2.37,1C52,92.81,52.35,91.82,53.64,92.67Z"/><path class="cls-80" d="M82.46,80.32c-1.13.61-2.36.29-3.55.37.13-.53.26-1.06.38-1.58Z"/><path class="cls-16" d="M72.36,76.24A1.29,1.29,0,0,1,74,76.16C73.41,76.87,73,76.81,72.36,76.24Z"/><path class="cls-83" d="M112.58,81.88h.79a1.55,1.55,0,0,0-.54-2.16c-.5-.39-.92-.71-.64-1.4h0c0-1.24,1-1.57,1.85-2.33.1.56.35,1.07.2,1.28-.89,1.18-.92,1.15.65,1.5.17,0,.31.23.46.34-.43.29-1.07.61-.37,1.15,1.46,1.14.2,1.39-.58,1.86.5.87,2.45,1.15.87,2.89-.49.55.87,1.65,2.07,1.63.8.67,1.63,1.31,1.51,2.53a5.85,5.85,0,0,1-4.76-1.1,15.4,15.4,0,0,0-2.49-1.58,2.13,2.13,0,0,1-1.38-2.36C110.88,83.24,112.07,82.92,112.58,81.88Z"/><path class="cls-34" d="M165.68,198.76a6.48,6.48,0,0,0-.57,1.67c-.08,1.39.29,3.09-2.13,2.12-.07,0-.31.37-.47.57a2.41,2.41,0,0,1-1.48-.44,2.69,2.69,0,0,0-3.45,0c-.54.44-.67.36-.89-.51-.11-.41-.35-.59-.65-.57-1.15.07-2.37-.45-3.44.34a2.77,2.77,0,0,1-2.08.06c-.55-.19-.05.35-.27.39a.31.31,0,0,1-.43,0,12.84,12.84,0,0,1-6.31-.16c1.37-2.25,3.21-.45,4.89-.53-.05-.83-.1-1.65-.16-2.47,2,1,4.11.36,6,0a16.44,16.44,0,0,1,5.71-.53A54.4,54.4,0,0,0,165.68,198.76Z"/><path class="cls-34" d="M162.9,203.12a1.36,1.36,0,0,1,.79.8C162.63,204.46,163,203.53,162.9,203.12Z"/><path class="cls-30" d="M130.41,73.56c-.22.88-1.11.41-1.59.78-.11-.65-.34-1.37.8-1.18A.81.81,0,0,0,130.41,73.56Z"/><path class="cls-98" d="M43.25,203.53c.43-.18.88-.4,1.08.26a.48.48,0,0,1-.25.4c-.47.06-.64-.32-.82-.66Z"/><path class="cls-20" d="M44.83,205.9a1,1,0,0,1-1.59,0c0-.14,0-.28,0-.41Z"/><path class="cls-99" d="M141.51,144.88c-1-.59-1.63-1.3-.32-2.18,1-.65.57-1.21-.06-1.67-.45-.33-1.42-.29-1.38-.89a13.39,13.39,0,0,1,.76-3.07,2.24,2.24,0,0,1,.43-.56c-1.24-1,.7-2,.16-2.77-.67-1-1.51-1.9-2.25-2.85-.37-.47-.39.67-1.09.74-.52-1.22-1.49-2.51-1.51-3.81a3.58,3.58,0,0,0-2.54-3.8c-.89-.33-2-.48-1.59-2,.11-.45-.61-.63-1-.8-2.37-1-2.93-2-2.53-4.56.18-1.18-.83-.59-1.33-.76-1.71-.16-3.48.38-5.15-.39-.35-.38-.15-.73,0-1.07.46-.78.07-1.1-.65-1.18-1.53-.19-3-1.07-4.61-.37a.68.68,0,0,1-.73-.16c-.67-.09-1.43.27-2-.39.37-1,1.23-1,2.09-1.18,1.47-.24,2.95-.44,4-1.78.72-1,2.14-.39,3.17-1.2-1.63-1.13-3.15-1.88-5-1a1.15,1.15,0,0,1-.37.12c-.77.16-1.57.39-2.22-.28a1.14,1.14,0,0,1-.15-1.46c.5-.84,1.3-.64,2.15-.42-.3-.81-.78-.78-1.33-.68-3.39.61-4.09-.17-3.24-3.62.2-.35.67-.28,1-.56a1.37,1.37,0,0,1-1.33-.18,3.15,3.15,0,0,1-.61-1.61,1.46,1.46,0,0,1,.21-.84c.1-.09.24-.22.33-.19,1.42.59,2.84,1.16,4.32,1.61.61.19.49.87.16,1.36a2.31,2.31,0,0,1-1.71,1.16c1.5.12,2.89,1,4.42.46.36-.14.61.05.79.38,1.27,2.45,3.67,1.39,5.6,1.73.6.11,1.4-.77,1.94.07s-.36,1.39-.84,2c-.17.2-.4.35-.38.67.25.45.67.29,1,.22.54-.11,1.09-.2,1.42.35s-.18,1-.51,1.33c-.59.68-.57,1.18.41,1.38.27.06.69.15.66.33-.28,1.51,1.46,2.2,1.55,3,.2,1.94,1.53,1.52,2.46,1.68,2,.36,2,.26,1.41,2.06,0,.14-.19.19-.15.18.2,0,.38-.16.57-.12,1.14.25,2.23.66,2.15,2.09-.06,1.1.92,1,1.43,1.34,1.86,1.1,1.92,1.5.06,2.8.64.67,2,.66,2,1.82a4,4,0,0,1-.76,2.6c-.59.73,0,1,.51,1.35a2.73,2.73,0,0,1,1.76,2.07,10.07,10.07,0,0,0,.19,4.62c.36,1-.42,2.05-1.41,2.78-.83.62-1.4,1.33.11,2.08,1.09.54,1.49,1.54.19,2.44A1.59,1.59,0,0,0,141.51,144.88Z"/><path class="cls-100" d="M113.37,100.9a6,6,0,0,1,.09,1.34c-.08.53-.78,1.12,0,1.55s1.66,1,2.38.48c1.79-1.38,2.2,0,2.88,1.17-.59.32-1.07.52-1.63,0-.32-.31-.75-.1-1,.22a.85.85,0,0,0-.08,1.09.78.78,0,0,0,1,.29c.36-.12.83,0,1.12-.21,2.09-1.41,3.79.14,5.61.72.29.09.62.44.48.76s-.59.82-.79.77c-2.32-.59-3.32,1.75-5.16,2.3-1.35.4-2.92-.09-4.07,1-1.51,0-1.86-1.82-3.43-2-.17.69-.34,1.47-.54,2.25a4.6,4.6,0,0,1-.37,1.1c-.83,1.44-6,3.23-7.56,2.62-.55-.22-1.15-.66-1.6,0s.33.7.59,1,.13.88-.06.81c-1.7-.6-1.76.44-1.78,1.64,0,.15-.46.48-.6.43-1.46-.53-2.66.77-4.07.52a1,1,0,0,1,0-.76,27.84,27.84,0,0,1,3.89-6.23c-.74-.88-2.33.08-2.8-1.28.6-1.56,1.48-2.8,3.37-2.86,1.45,0,1.74.36,1.25,2,1.22-.26,2.29.6,3.56.25-.62-.78-2.28-.66-2-1.83s1.73-.38,2.76-.83a2.6,2.6,0,0,0-2-.15c-.86.11-1.71,0-1.86-1-.18-1.15.8-1.18,1.58-1.25s1.85,0,2.63-.64c-.42-.19-.93,0-1.29-.38s-.58-.89.13-1.21a6,6,0,0,1,1.73-.41,3.65,3.65,0,0,0,3.1-2C109.71,100.3,111.67,100.73,113.37,100.9Z"/><path class="cls-101" d="M95.94,112.39c1.1.86,2.74,0,3.81,1.2-2.7,1.64-3.23,4.81-5,7.12-1.63.42-2.71,1.25-2.39,3.15,0,.18,0,.5-.12.55-2.26,1-3,4-5.81,4.22-.17-1,1-.9,1.28-1.72a4,4,0,0,1-3.12-.81c-.69-1.58-2.22-2.95-1.16-5,.2-.39-.13-.87-.65-1.07-1.3-.48-.93-1.49-.56-2.3.45-1,1.07-2,2.48-1.81,1.76.28,3.46.64,5.2-.32a3.08,3.08,0,0,1,2.69-.15,2.83,2.83,0,0,0,2.8-.31c.63-.43,1.13-.81,0-1.22-.91-.32-1.2-.9-.52-1.74A.93.93,0,0,1,95.94,112.39Z"/><path class="cls-100" d="M116.15,112.78c2.12-1.49,4.21.09,6.32.12.73,0,1,.76.52,1.47-.29.4-.93.54-.9,1.19C119.35,116.25,117.64,114.76,116.15,112.78Z"/><path class="cls-102" d="M84.85,125.86a3.48,3.48,0,0,0,2.38.62c.41-.09,1.13-.48,1.31.32.11.51-.45.73-.82,1s-.86.57-1.29.85H86c-1.24,0-2.54.21-3.56-.79C82.08,125.75,83.63,126,84.85,125.86Z"/><path class="cls-91" d="M85.24,141.71c-2.37-.8-2-3-2.38-4.76.13,0,.34,0,.37.09C83.91,138.59,84.57,140.15,85.24,141.71Z"/><path class="cls-91" d="M82.86,137h-.39c-.63-1.36,1.5-1.54,1.19-2.77C85.38,135.67,82.72,135.91,82.86,137Z"/><path class="cls-91" d="M83.66,134.18c-.81-.26-2.18-.23-.8-1.59Z"/><path class="cls-73" d="M110.06,174.33c-.08.27-.25.46-.54.39a.41.41,0,0,1-.33-.57.59.59,0,0,1,.42-.29A.4.4,0,0,1,110.06,174.33Z"/><path class="cls-91" d="M82.86,131.8c-.11-.71-.43-1.46.4-2C83.16,130.49,83.53,131.25,82.86,131.8Z"/><path class="cls-54" d="M118.05,202.33c-1-.68-2.75.22-4.35-.33-.54-.19-1.26-.46-1.69-.25-.76.36-1.56.53-1.84-.22s.82-1.08,1.33-1.35c1.44-.75,2.94-1.38,4.56-.19a2.53,2.53,0,0,0,2.56.53c.5-.21.9.11,1.28.34s.89.46.69,1-.62.43-1,.43Z"/><path class="cls-54" d="M116.94,198.37h4A4.45,4.45,0,0,1,116.94,198.37Z"/><path class="cls-103" d="M90.21,201.1c-.42.69-.78,1.25-1.47,1.36a.85.85,0,0,1-1-.78,1,1,0,0,1,1-1.18C89.25,200.49,89.71,200.87,90.21,201.1Z"/><path class="cls-8" d="M122.25,207.6c.14.58-.18.65-.51.6s-.75-.32-.7-.76.3-1.18.85-1.07S121.4,207.44,122.25,207.6Z"/><path class="cls-104" d="M143.09,131.41c-.75-.75-1.3-1.68-2.55-1.84a1,1,0,0,1-.75-1.52c1.9-3.27,1.93-3.26-1.31-4.27.18-.66.76-.62,1.26-.74a1.07,1.07,0,0,0,.84-1.18c-.08-.86-.61-.31-1-.22-.14-1.18-3-.26-1.92-2.59.19-.42-1-1.59-2.19-1.19-.4.14-.72.58-1.22.32,0-.15-.12-.35-.08-.38.67-.48,1.84-.86,1.61-1.71s-1.35,0-2-.27-1.5-.48-2.24-.75a.71.71,0,0,1-.57-.7c0-1.24,0-1.27-1-1.3-.39,0-.82.18-1-.35s.31-.63.66-.81a.77.77,0,0,0,.33-1c-.09-.32-.37-.31-.62-.14-1.19.79-.85-.59-1.18-.92-.56-.54-.19-1.07.44-1.37.38-.19,1.08-.21.7-.86s-.78-.12-1.17.13c-.65.43-1,0-1.44-.45-.62-.75.09-.94.46-1.3.19-.19.39-.36.56-.56s.73-.53.44-1-.74-.1-1.17.07c-2,.76-3.88-.11-5.79-.49a1.21,1.21,0,0,1-.73-1.66c-2.21,1.34-4-.65-6-.71a2.36,2.36,0,0,1,.68-.33c1,0,2.11-.71,2-1.51s-1.31-1-2.27-.63c-.61.25-.78-.06-.87-.63s-.69-.9-1.35-.83c-.92.94-1.62.93-1.44-.56.09-.74-.53-1-.59-1.5,1.21-1,2.3-2.29,4-.48.63.69,1.84.48,2.71,1.07.69.47.92-.42,1.17-.92.49-1,.15-2.25.94-3.17,1.33,1.46,2.06,3.28,4.06,4.37a17.08,17.08,0,0,0,9,2l-.6.49c-.45.34-1.19.35-1.22,1.13.93-.17,1,1.34,2,1.06a11,11,0,0,1,1.91-.26c.48,0,1.21.07,1,.58-.5,1.07.45,1.31.8,1.87.76,1.19,2.32,1.87,2,3.77-.11.65,2,.19,1.67,1.66,1,.29,1.61,1.35,2.77,1.19.21.41.58.83.58,1.24,0,1.19.4,1.69,1.67,1.61.59,0,1.52.3,1.48,1s-.94.44-1.46.47a4.92,4.92,0,0,0-2.36.93c.48.86,1.17.27,1.75.27s1.28.22,1.24.93-.65.69-1.2.51-.93-.45-1.16.18a1.42,1.42,0,0,0,.17.92c.28.63.6.42,1.06.09.65-.48.9,0,1.06.59.25,1-.55,1.17-1.09,1.28s-1.27-.39-1.83.28c0,.68,1.14.07,1.14,1,0,.52.59.66,1,.08s.69-.74,1.31-.41.38.61.26,1c-.18.55-.26,1.43-.93,1.32-2.18-.38-1.43,1.15-1.27,2s.16,1.29-.43,1.76a2.13,2.13,0,0,0-.39,3.39c.07.09-.11.36-.17.55Z"/><path class="cls-9" d="M164.77,140c.21,1.87-.6,2-1.87,1.78Z"/><path class="cls-91" d="M84.85,125.86c-.81.64-2.33.43-2.38,2-1.14.67-2.38.26-3.57.3a1,1,0,0,1-1.11-.93c0-.63.52-.77,1-1,1.11-.44,2.31-.08,3.43-.55.53-.23,1.15-.56,1.12-.93a3,3,0,0,0-.85-1.67c-.53-.52-.9.26-1.33.45-1,.45-1.65,2.24-3.42,1,1.41-1,2.94-1.61,3.73-3.1.19-.36.23-1,.08-.9-1.37,1-2-.91-3.07-.73a5.25,5.25,0,0,0-2.84,1.58c-1,1-1.72-.12-2.57-.14s-1.53-.33-2.09.49c-.2.28-.65.62-.78.45-1.39-1.82-3.15.44-4.83-.54-1.27-.74-2.63.62-3.56,1.79l-4,1.59-.79-1.59c.06-.56.16-1,.93-1s1.08-.34.44-1l-.26-.25c.21-.14.44-.27.64-.43,1.2-1,2.4-1.94,3.56-2.94.17-.15.16-.48.24-.73h0c2.58-.33,5.19-.36,7.74-.86.26,0,.72,0,.74-.17.35-2.33,4-2.12,3.76-5-.06-.71,1-.86,2-1-1.4-1.28-2.57-2.43-1.18-4.1,1.29-2,3-3,5.46-2.4.48.12,1.2.13,1.38-.44s-.44-.86-.89-1.13v-.39a1.05,1.05,0,0,1,1.44-.66c1.76.66,3.47.14,5.19-.13.47-.22,1.54.54,1.3-.86,0-.23.42-.44.72-.57a1.4,1.4,0,0,1,1.15.06c.49,1-.33,1.84-.31,2.81,0,.52-.73.33-1.17.34-2.28.06-2.53.39-2.47,2.7,0,1.36.93,3.1-1.41,3.72,1.57,0,2.63.42,2.28,2.26-.14.71.65,1.29.53,2.06-.81,1.22-2.23.8-3.35,1.23,2.36-.37,4.7,0,7.05,0a3.53,3.53,0,0,1,2.92.89c-1,.65-2,1.16-3.21.26-.62-.45-1.58-.06-2,.2a6.17,6.17,0,0,1-6,.22c-.73-.32-2.41,2.41-2,3.17a.57.57,0,0,0,.44.25c2-.68.55,1.44,1.37,1.72-1.4,1.43-.61,2.52.53,3.59C84.87,125.17,84.49,125.62,84.85,125.86Z"/><path class="cls-105" d="M80.88,133c-1.64,1.6-3.9,1.36-5.89,1.87-.57.15-1.35,0-1.8.43-1.78,1.77-2.9.11-4.19-.71.38-2.07,1.1-2.51,2.88-1.62a2.91,2.91,0,0,0,1.48.42c.69-.48.53-2,2-1.58a1.92,1.92,0,0,0,2,.35C78.72,131.86,80,131.35,80.88,133Z"/><path class="cls-91" d="M74.89,128.39c2.42.62,5,.86,7.34,2.76-1.85.37-3.45-1.1-4.75.39-.36-.36-1.07-.75-1-1.07C76.57,129.21,75.62,129,74.89,128.39Z"/><path class="cls-106" d="M73,132.6a3,3,0,0,1-2.51-2.22,29.61,29.61,0,0,1,3.16-.92c.59-.11,1.51-.32,1.77.4.34.94-1,.53-1.23,1.15C74.55,132.13,74.29,132.77,73,132.6Z"/><path class="cls-5" d="M57.9,133.78c-1.18-.55-2.52-.24-3.89-.6,1.56-1.77,3.41-.86,5.08-1A1.86,1.86,0,0,1,57.9,133.78Z"/><path class="cls-91" d="M73,132.6A1.58,1.58,0,0,0,74.15,131c.5.1,1.33-.27,1.19.79-1.08,0-.73,1.8-2,1.58C73.22,133.12,73.09,132.86,73,132.6Z"/><path class="cls-91" d="M75.05,127.2c-.28-1.43.71-1.37,1.37-1.59a.56.56,0,0,1,.71.49c.06.56-.45.47-.8.58S75.54,127,75.05,127.2Z"/><path class="cls-71" d="M149.82,202.33h.4a2.4,2.4,0,0,1,.66,1.83c-.47,1.15-1.3,1.84-2.52,1.39-.76-.29-1.08.56-1.7.35-.46,0-.92,0-1.38-.06s-.6-.46-.59-.88-.12-.76.37-.74c1.17,0,2.54-.81,3.3-.52C150.32,204.43,149.65,203.09,149.82,202.33Z"/><path class="cls-34" d="M146.66,205.9c.46-.41.64-1.21,1.63-.65s1.7-.24,2.33-.94a.55.55,0,0,1,0,.79v.39c-.92.8-2.2.2-3.17.8A.83.83,0,0,1,146.66,205.9Z"/><path class="cls-8" d="M134.37,201.93a1.2,1.2,0,0,1-1.19-.79C134.08,200.66,134.08,201.51,134.37,201.93Z"/><path class="cls-8" d="M132.49,200.75c-.39.87-.43,1.93-1.61.95a.93.93,0,0,0-1.25.21c-.47.46-.88.27-1-.25-.26-.75.27-.9.86-.91Z"/><path class="cls-33" d="M150.62,205.1v-.79c-.13-.66-.27-1.32-.4-2-.07-.5-1.09-.19-.82-.8s.76-.2,1.13.08c.63.49,1.37.27,2.07.32-.49.48-1.92.34-1,1.75A1.11,1.11,0,0,1,150.62,205.1Z"/><path class="cls-99" d="M163.3,168.25c-.63-1.4-1.08-2.75-3.13-2.95-.95-.1-1.12-1.91-1.54-3-.15-.39.69-1.2,0-1.29-1.15-.14-2.14-1.43-3.3-.73s-1.67.17-2.1-.78c-.69-1.49-1.7-2.1-3.33-1.4-1,.42-1.86.35-2-1-.17-1.6-.68-1.17-1.27-.22a1.65,1.65,0,0,1-1.26.78,1,1,0,0,1-.21-1.15c.53-1.25.22-1.7-1.18-1.85a1.64,1.64,0,0,1-1.42-2.58c.48-.93-.13-2.19,1-2.86.92,1.49,2.59.88,3.78,1a8.25,8.25,0,0,1,2.78.83c3.2,1.37,4.67,4.28,6.52,6.86a5.53,5.53,0,0,0,1.89,2c3.14,1.49,3.59,4.81,5.18,7.36A.8.8,0,0,1,163.3,168.25Z"/><path class="cls-99" d="M143.49,148.84c-2.05-.43-2.22-.77-1.59-3.17C142.62,146.63,143.77,147.38,143.49,148.84Z"/><path class="cls-51" d="M139.92,173.8a8,8,0,0,0,1.85-1c.4-.4,1-1,1.67-.5a2.17,2.17,0,0,1,.41,2c-.1.82-.51,1-1.36.83-1.49-.29-.89,1.22-1.38,1.82a4.61,4.61,0,0,0-2.88.08Z"/><path class="cls-51" d="M139.36,177.86c.92.89,1.78,1.32,2.81.36.09-.08.56.06.66.22s0,.5-.16.68c-.74.92-1.79.71-2.72.54S139.53,178.55,139.36,177.86Z"/><path class="cls-51" d="M134.71,180.29c-.88.17-.58-.76-1.15-.76-.37,0-.85,1.06-1.08-.07-.09-.41.29-.73.69-.83.56-.13,1.05-.07,1.22.62C134.46,179.56,134.58,179.85,134.71,180.29Z"/><path class="cls-51" d="M128.77,176.39c0,.33-.24.49-.52.39a1.09,1.09,0,0,1-.71-1.07c0-.09.29-.28.41-.26A.9.9,0,0,1,128.77,176.39Z"/><path class="cls-51" d="M129.05,171.86c.34,0,.72.18.7.53s-.41.62-.85.56-.65-.21-.6-.6S128.71,171.89,129.05,171.86Z"/><path class="cls-51" d="M143.88,177c-.65-1.08,0-1.48,1.19-1.83-.32.73-.55,1.28-.79,1.83Z"/><path class="cls-51" d="M126,176.6c-.11.32-.29.63-.67.59s-.43-.43-.32-.73.34-.61.73-.5S126,176.32,126,176.6Z"/><path class="cls-51" d="M132.1,179.11c-1.06.65-1.45.13-2.26-.09C130.84,178.5,131.23,179.05,132.1,179.11Z"/><path class="cls-51" d="M146.66,178.56h1.19c-.08.76-.58.9-1.18.69C146.24,179.1,146.39,178.79,146.66,178.56Z"/><path class="cls-51" d="M125.62,181.9c-.25.18-.43.4-.64.44-.36.07-.44-.23-.3-.47a1.11,1.11,0,0,1,.57-.38S125.46,181.71,125.62,181.9Z"/><path class="cls-51" d="M123.35,175.79c.21.1.46.14.5.26.11.29-.1.47-.37.45a.55.55,0,0,1-.39-.28C123.06,176.12,123.24,176,123.35,175.79Z"/><path class="cls-51" d="M145.85,168.67c-.35,1.23.7.65,1.17.77s.89.07.92.54c0,.63-.55.61-1,.64a5.87,5.87,0,0,0-2.64.47c-1.05.6-1.06-.79-1-1.07a3.13,3.13,0,0,1,2.25-2.43C146.38,167.33,146.1,168.13,145.85,168.67Z"/><path class="cls-51" d="M146.9,164.83c-.59.86-1.07,1.55-2,1.5-.36,0-.29-.54-.19-.83C145.12,164.5,145.92,164.64,146.9,164.83Z"/><path class="cls-51" d="M148.31,173.35c-1,1.47-1.74-.06-2.55.4C146.51,172,147.43,173.62,148.31,173.35Z"/><path class="cls-51" d="M139.28,142.34a.85.85,0,0,1-.94.53c-.35,0-.7-.11-.61-.53a.77.77,0,0,1,.89-.58A.68.68,0,0,1,139.28,142.34Z"/><path class="cls-51" d="M148.28,173.35c.49-.57.9-1.17,1.64-.73a.74.74,0,0,1,.21.68C149.58,174.18,148.86,173.05,148.28,173.35Z"/><path class="cls-51" d="M133.3,124.81c.27.09.48.28.43.55-.1.44-.26.91-.87.81a.38.38,0,0,1-.29-.58C132.71,125.25,132.8,124.83,133.3,124.81Z"/><path class="cls-99" d="M143.75,157.6c.37.06.7.21.67.6s-.4.48-.74.52-.34-.33-.41-.52C143.1,157.75,143.41,157.64,143.75,157.6Z"/><path class="cls-51" d="M143.6,159c.11.46-.15.55-.39.63-.46.16-.59-.19-.64-.5s.28-.35.53-.38S143.65,158.7,143.6,159Z"/><path class="cls-51" d="M138.58,136.19c.36.07.61.17.64.47,0,.07-.27.23-.42.23a.5.5,0,0,1-.55-.44C138.24,136.36,138.5,136.26,138.58,136.19Z"/><path class="cls-51" d="M134.07,142.54c.05.27-.14.33-.34.33s-.56.07-.63-.24c0-.1.19-.33.34-.39A.5.5,0,0,1,134.07,142.54Z"/><path class="cls-107" d="M102.28,84.65h.8c.38.23.91.2,1.18.65a2.47,2.47,0,0,0,3.34,1.53,4.59,4.59,0,0,1,3.08.19c.87.33,1,.79.18,1.37-.32.22-1,.17-.74.87a1.19,1.19,0,0,0,1.16.62c2.55.07,5.09.59,7.65.14a1.65,1.65,0,0,1,1.15.18c0,.45.08.9-.36,1.21-3.13,2.43-6.56,2.33-10.11,1.21-.79-1.81-2.36-2.62-4.61-2.41-1.22.11-2.47.61-3.62-.26-1-.65-1.44.72-2.29.63a15.57,15.57,0,0,1-3.73-.22A3.54,3.54,0,0,1,94,90c-.57-.35-1.24-.82-1-1.53s1.06-.5,1.67-.25c1.65.07,3-1.2,4.75-.85C99.5,85.52,102.08,86.3,102.28,84.65Z"/><path class="cls-108" d="M120.08,90.19a12.83,12.83,0,0,1-5.11.27,5.61,5.61,0,0,0-3.31-.17,1.13,1.13,0,0,1-1.29-.12c-.41-.45-1.31-.45-1.22-1.36.12-1.33,1.43-.41,2.11-1.15a5.73,5.73,0,0,0-4-.26c-1.58.56-2.77-.43-3.41-2a7.58,7.58,0,0,0,1.18-2c1.34-1.48,2.83-1.31,4.38-.4.36.31,1,.17,1.18.8-.12,1.21.53,1.79,1.55,2.39,2.14,1.25,4.14,2.75,6.77,2.77a1.06,1.06,0,0,1,1.18.82C120.1,90,120.09,90.08,120.08,90.19Z"/><path class="cls-109" d="M120.1,89.84,118.92,89a4,4,0,0,1-1.58-2.39c-.33-2.15-.21-4.1,1.61-5.72.73-.65,1.2,0,1.79-.12.4-.89-.49-1.05-.84-1.53s0-1,.12-1.5c.06-.29.42-.23.67-.19.62.12.65.62.59,1.07-.14,1.18.78,2.24.25,3.53-.16.38,0,1.86,1.45,1.46.73-.2.85.2.84.88a21.55,21.55,0,0,0,.25,2.51c-1.28,1-2.81,1.86-3.18,3.79C120.55,90.39,120.33,90.11,120.1,89.84Z"/><path class="cls-110" d="M109.8,92.58c2.65-.13,5.35.86,8-.51.39-.21,1,.4.86-.75-.09-.66.7.06,1.11.08l-.39.77a7.47,7.47,0,0,1-.85,4.18c-.23.38-.54,1.27-1.11.72-.9-.87-2.63-.71-2.92-1.18-1.39-2.24-2.59-.37-3.85-.15l-.22.15c-1.22-.5-.76-2-1.58-2.71,0-.09,0-.18,0-.27a.86.86,0,0,1,.27-.47A.62.62,0,0,1,109.8,92.58Z"/><path class="cls-30" d="M128.43,74.35c.69,1.7,0,3.37-.29,5-.18.89-.54-.29-.91-.24-1-1.5-2.45-.56-3.7-.51-.18-.59,0-1.1.43-1.19,1.05-.21,1.78-.39,1.3-1.8-.22-.65.62-1.06,1.19-.8C127.31,75.19,127.78,74.52,128.43,74.35Z"/><path class="cls-111" d="M79.69,90.2c.43-.71-.26-2.12,1.31-2.11-.09,1.32,1,1.91,3.13,1.63a1.58,1.58,0,0,0,1.25-2.63c-.1-.15-.35-.36-.31-.43.17-.32,1.36,0,.56-.89-.27-.29-.84-.28-1.27-.43a5.71,5.71,0,0,1-.65-.31c2.77-1,3.13,0,3.64,2.23.16.71.64.49,1.06.56.07.54-.19,1.16.4,1.57,1-.36,1.9-1.21,3-.27.18,2.7-.81,4.13-3.31,4.78a2.08,2.08,0,0,0-1.08.43c-1.86,2-3.6,1.17-5.34-.17.4-.61,1.1-.28,2.1-.65C82.22,92.66,80.09,92.43,79.69,90.2Z"/><path class="cls-112" d="M94.75,88.22c-.45.12-1.26-.28-1.28.4a1.34,1.34,0,0,0,1.32,1.17l4.72.42c.28.9,0,1.71-.92,1.79-1.39.11-2.62.91-4,.8A20.41,20.41,0,0,1,91.88,89a.8.8,0,0,1,0-.55,1.34,1.34,0,0,1,1.61-.91,1.52,1.52,0,0,1,.48.31A.81.81,0,0,1,94.75,88.22Z"/><path class="cls-113" d="M94,87.82h-.4c-1.15-1-1.37-.11-1.59.78l0,.06c-.15.11-.19.36-.44.34-1-.25-1.73,1-2.76.39.24-.78-.66-2.16,1.15-2.1.31,0,.42-.27.38-.56-.08-.54-.78.1-.87-.49l1.86-1.38c.69,2.63,2.61.76,3.91,1.14C95.24,86.91,93.9,86.88,94,87.82Z"/><path class="cls-16" d="M85.24,78.31c-.79-.13-1.68.32-2.38-.39.4-.5,1.46-.5,1.15-1.55-.16-.54-.72-1.3-.14-1.6a5.27,5.27,0,0,1,2.27-.19c.43,0,.53.3.41.68L86,76.73Z"/><path class="cls-81" d="M83.15,77a1.07,1.07,0,0,1-.36-.29c-.14-.24.08-.34.26-.31a.57.57,0,0,1,.43.24C83.59,76.84,83.43,77,83.15,77Z"/><path class="cls-30" d="M110.6,83.86l-1.18-.8c1.21-.86-.6-.67-.4-1.18.6,0,1.26,0,1.09-.92-.07-.35-.42-.77.17-1a.78.78,0,0,1,1,.49c.26.66.93.89,1.33,1.4C112.5,83.62,112.5,83.62,110.6,83.86Z"/><path class="cls-114" d="M105,83.46c-.12.82.47,2.07-1.18,2l-.78-.79Z"/><path class="cls-80" d="M83.06,80.07c-.16-.54.11-1.09.45-1,.63.08.28.51,0,.78A2.24,2.24,0,0,1,83.06,80.07Z"/><path class="cls-115" d="M75.73,106.05c0,1.28-.74,2.77,1.41,3.23.8.18-.27.77-.14,1.27.19.74-.23.56-.62.3a.74.74,0,0,0-1.23.62c.85,2.19-1.12,2.3-2.15,3-.52.38-1.52.27-.78,1.42.36.57-.32.71-.77.79-2.46.42-5,.21-7.42,1.06-.59.21-.88-.5-1.37-.65V116c.92-.39.79-1.21.79-2a6.93,6.93,0,0,1,4.11-1.57c1.24,0,2.16-.85,3.23-1.29a1.27,1.27,0,0,0,.58-1.69c-.25-.69-.83-.43-1.33-.31a1.77,1.77,0,0,1-1.83-.29c.64-1.37,2.39-1.76,2.82-3.43.2-.77,2.55-.26,3.27.59C74.68,106.45,75.25,105.88,75.73,106.05Z"/><path class="cls-116" d="M68.21,108.82c.64,0,1.37.21,1.91-.24.86-.7,1.64-.45,1.82.42s.5,2-.6,2.55C68.87,112.86,66,113,63.45,114A1.65,1.65,0,0,1,65,112.38C66.85,111.87,67.45,110.27,68.21,108.82Z"/><path class="cls-89" d="M60.51,111.4a1.62,1.62,0,0,0-1.62.45c-.34.3-.9.72-1.39.22-.66-.66,0-1.37.13-2a.91.91,0,0,1,1.4-.59,3.92,3.92,0,0,0,2.62.51c.43,0,1.15-.57,1.12.4a1,1,0,0,1-1.13,1.08C61.38,111.44,61.13,111.44,60.51,111.4Z"/><path class="cls-19" d="M51.55,107.78a.63.63,0,0,1,.66.58c0,.44-.27.66-.66.8s-.53-.22-.55-.49A.84.84,0,0,1,51.55,107.78Z"/><path class="cls-30" d="M112.19,78.32a4,4,0,0,0,1.07,1.28c.7.58,1.4,1.46.11,2.28-.42-.92-.55-2-1.89-2.23a.86.86,0,0,1-.54-1.1C111.15,78.11,111.75,78.36,112.19,78.32Z"/><path class="cls-117" d="M91.57,89l.44-.34c.72,1.34,2.27,2.18,2.35,3.91a4.14,4.14,0,0,1,0,1.11c-.34,1.55-.38,3.14-.67,4.7-.38.67-1.1.94-1.66,1.41a.46.46,0,0,1-.5-.08H90.39c-1,.05-1.23,1.16-2,1.58-1.74.39-3.46,1.26-5.26.17-.53-.33-1,0-1.48.23-.5,0-1.23.17-.79-.79l.12-.25c1.44-.27,1.72-1.74,2.66-2.53,0-2-.44-2.37-2-1.63-.29.15-.47.2-.61-.06-.34-.63.49-.67.58-1.1s.27-.78.4-1.17c2,.67,4,1.42,5.81-.68.43-.5,2.61-.22,2.59-.77C90.42,91.26,91.94,90.41,91.57,89Z"/><path class="cls-118" d="M80.88,100.9c-1.48.15-3.14.86-4-1.19a3,3,0,0,1,1.29-1.17c.8-.41,1.53-.76,2.35-.08A1.64,1.64,0,0,1,80.88,100.9Z"/><path class="cls-91" d="M81.65,102.1c-.33,1.49-1.05.73-1.73.65C80.31,101.62,81.27,102.81,81.65,102.1Z"/><path class="cls-94" d="M80.88,100.9c0-2.74-.47-3-2.91-1.71l-1,.52c.36-1.63,1.66-2.63,2.89-1.94a5,5,0,0,0,3.85.35C83.22,99.53,83,101.15,80.88,100.9Z"/><path class="cls-119" d="M91.58,99.71H92a1.91,1.91,0,0,1,2-.42c2.88,1.22,6,.72,8.94,1.17a2.51,2.51,0,0,0,2.4-.94c.94-1,1.9-2.19,3.52-2.31.87-.06.91-1.26,1.74-1.46h0c.16.61,3,0,.76,1.75-.31.23,0,.47,1.22.24v.79c-.22.62.25,1.06.4,1.58l2.11-.34c-.25,1-1,1.14-1.72,1.14a3.76,3.76,0,0,1-2.09.4c-1.3,0-2.31.29-2.38,1.88,0,.82-.76,1-1.42,1.09-1.25.23-2.5.49-3.81.74.59,1,1.58.35,2.19.79-.49,1.41-1.62,1.5-2.87,1.46-.6,0-1.36-.33-1.77.43a.59.59,0,0,0,.11.53,1.27,1.27,0,0,0,1.77.2.72.72,0,0,1,.36-.13,3.42,3.42,0,0,1,2.05.49.53.53,0,0,1,.13.7c-.49.92-1.32.17-2,.41-.47.18-1-.51-1.53.17a7,7,0,0,0,3.45,1.43c-1.25.82-2.1,1.66-3.37.74a2.07,2.07,0,0,0-.94-.23c-.67-.08-1.59.59-1.94-.31-.28-.71,1.1-.57,1.13-1.5-1.43-.24-2.77-.45-3.55,1.28-.17.38-.65.61-1,.92H94.75c-1.82,1.53-3.88,1.15-5.94.79-.53-.81-1.66-1.36-.81-2.71.24-.38-.71-1.09-1.24-.87-.79.32-.86-.25-1.32-.7,2.61-.13,1.71-2,1.67-3.28-.1-3.31.53-3.94,3.9-3.27C90.1,101.17,91.15,100.53,91.58,99.71Z"/><path class="cls-100" d="M125.13,110.46a1.41,1.41,0,0,1-1.08,1.05.86.86,0,0,1-1.1-.83c-.06-.59.44-.84.89-.82S124.9,109.85,125.13,110.46Z"/><path class="cls-100" d="M125.81,113.32c-.08.41-.32.58-.58.52a1,1,0,0,1-.57-.45.31.31,0,0,1,.35-.47A3.33,3.33,0,0,1,125.81,113.32Z"/><path class="cls-104" d="M132.28,117.73c.45-.27.86-.29,1.16.15a.61.61,0,0,1,0,.49A.86.86,0,0,1,132.28,117.73Z"/><path class="cls-104" d="M113,100.1c-.4-.46-1.07-.85-.4-1.58A2.67,2.67,0,0,1,113,100.1Z"/><path class="cls-120" d="M88.81,113.18c1.91-.74,4,0,5.94-.79,0,.53,0,1,.72,1.18s1.49-.35,1.55.65-.9,1-1.48,1.34a31.19,31.19,0,0,0-10.47-.13c-.31.06-.7.2-.81-.24a.93.93,0,0,1,.27-.67,1.71,1.71,0,0,1,1.74-.65A3,3,0,0,0,88.81,113.18Z"/><path class="cls-99" d="M141.73,119.67c-.67.3-1.17.39-1.69-.16C140.61,119,141.08,119,141.73,119.67Z"/><path class="cls-67" d="M139.91,109c-.08.32-.18.56-.48.58s-.58,0-.48-.36c.05-.16.38-.26.59-.32S139.94,108.62,139.91,109Z"/><path class="cls-119" d="M88.41,101.29c.37-.9.64-1.91,2-1.58C89.63,100.11,89.9,101.8,88.41,101.29Z"/><path class="cls-121" d="M109.8,92.58a5.7,5.7,0,0,1-.81,0c-1.11-1.85-2.47-.54-3.69-.5,1.24.16,2.6-.45,3.69.5a2.27,2.27,0,0,1,0,.43c-.81.88-2,.8-3,1.1-.81.18-1.61.46-2.28-.37s-1.2,0-1.8-.06a.74.74,0,0,1-.58-.5c0-1-.67-1.85-.48-2.86a.84.84,0,0,1,.56-.85,2.31,2.31,0,0,0,2.16.44c1.72-.59,3.39-.05,5.07.53C109.91,90.81,109.69,91.72,109.8,92.58Z"/><path class="cls-122" d="M101.48,93c.13.14.27.27.4.4,1.91,1,2,1.45.33,2.49-.7.17-1.41.33-2-.36-.09-2.1-.08-2-2.24-1.82-1.34.12-2.81,1.19-4.05-.31a.84.84,0,0,1,.4-.8c1.47-.15,2.7-1.2,4.31-1,.62.08.45-1,.84-1.38.48-.7.83-1.7,1.95-.78l-.36.77A4.21,4.21,0,0,0,101.48,93Z"/><path class="cls-123" d="M100.29,95.35a1.31,1.31,0,0,0,1.59,0c1.91.93,3.07,0,4-1.59A9.47,9.47,0,0,1,109,93c.93.69.91,1.93,1.58,2.78-.32,2.41-3.08,1.83-4.15,3.41-1.77,2.62-4.39,1.33-6.81,1.52-2.73.22-5-1.36-7.66-1,.12-.94.86-1,1.58-1.2C95.11,96,97.58,95.4,100.29,95.35Z"/><path class="cls-80" d="M92,88.6c0-.63-.79-1.44.27-1.84s1,.56,1.32,1.06C92.82,87.65,92.43,88.19,92,88.6Z"/><path class="cls-124" d="M100.29,95.35c-2.36.8-4.84,1.36-6.73,3.16-.46-1.76.24-3.43.4-5.14,1.62.81,3.22,0,4.7-.34a1.71,1.71,0,0,1,2,.46C101.47,94.32,100.51,94.75,100.29,95.35Z"/><path class="cls-112" d="M93.05,92.18c-.2-.12-.44-.19-.47-.31-.08-.31.17-.44.43-.4a.48.48,0,0,1,.34.31C93.37,91.89,93.17,92,93.05,92.18Z"/><path class="cls-125" d="M105.84,93.76a2,2,0,0,1-.25.53c-.47.51.39,1.68-.33,1.61-1.11-.1-2.53,1.09-3.38-.55,2.94-.66-.23-1.32,0-2,.89-.33,1.86-1.57,2.52.36C104.56,94.19,105.35,93.61,105.84,93.76Z"/><path class="cls-107" d="M104.28,91.66c1.47.22,2.32-.87,3.56-.7.73.11,1.36.23,1.33,1.06,0,1-.89.57-1.32.48C106.76,92.24,105.5,93.11,104.28,91.66Z"/><path class="cls-125" d="M101.48,93c-1.24-.77-.83-1.77-.38-2.77.65.67,0,1.89,1,2.42Z"/><path class="cls-126" d="M158.53,156.38a4.77,4.77,0,0,1-1.4,6.61l-21,13.64a4.76,4.76,0,0,1-5.34-.1l-16.6-11.67L98.31,176.47a4.71,4.71,0,0,1-5.64,0L76.73,164.78l-18,11.83a4.8,4.8,0,0,1-2.62.77h0a4.76,4.76,0,0,1-2.62-8.74L74.24,155a4.79,4.79,0,0,1,5.45.14l15.8,11.58,15.82-11.58a4.78,4.78,0,0,1,5.56-.06l16.77,11.8L151.93,155a4.75,4.75,0,0,1,6.6,1.38Z"/><path class="cls-126" d="M159.57,128.24a4.6,4.6,0,0,1,.68,3.57,4.82,4.82,0,0,1-2.06,3l-21,13.63a4.71,4.71,0,0,1-5.34-.1L115.23,136.7,99.36,148.32a4.77,4.77,0,0,1-5.64,0l-16-11.69-18,11.82a4.78,4.78,0,0,1-7.3-4.95,4.79,4.79,0,0,1,2.05-3l20.73-13.64a4.79,4.79,0,0,1,5.45.14l15.8,11.58L112.36,127a4.74,4.74,0,0,1,5.56,0l16.78,11.78L153,126.84a4.79,4.79,0,0,1,3.59-.68A4.66,4.66,0,0,1,159.57,128.24Z"/></g></svg>