<svg xmlns="http://www.w3.org/2000/svg" viewBox="0 0 153.51 163.32"><defs><style>.cls-1{fill:#fff;}</style></defs><title>2413150</title><g id="OBJECTS"><path class="cls-1" d="M129.74,58.46a4.79,4.79,0,0,1-3.2,1.75h0A4.77,4.77,0,0,1,121.28,56c-.18-1.56-2-15.13-15-13.9C90.63,43.57,82,96.55,82,132.61v1.64a4.78,4.78,0,0,1-9.55,0c0-36.06-8.64-89-24.27-90.5-13-1.25-14.84,12.32-15,13.88a4.77,4.77,0,0,1-9.48-1c.9-8.47,7.37-24.07,25.4-22.34,13,1.22,22.4,17.32,28,47.86,5.56-31.62,15.08-48.27,28.31-49.51,18-1.69,24.5,13.88,25.39,22.35A4.74,4.74,0,0,1,129.74,58.46Z"/></g></svg>