<svg xmlns="http://www.w3.org/2000/svg" xmlns:xlink="http://www.w3.org/1999/xlink" viewBox="0 0 251.17 251.17"><defs><style>.cls-1{isolation:isolate;}.cls-2,.cls-3,.cls-4,.cls-5{mix-blend-mode:screen;}.cls-2{fill:url(#radial-gradient);}.cls-3{fill:url(#radial-gradient-2);}.cls-4{fill:url(#radial-gradient-3);}.cls-5{fill:url(#radial-gradient-4);}.cls-6{fill:#def9ff;}</style><radialGradient id="radial-gradient" cx="73.87" cy="59.46" r="7.03" gradientUnits="userSpaceOnUse"><stop offset="0" stop-color="#f1f2ce"/><stop offset="1"/></radialGradient><radialGradient id="radial-gradient-2" cx="110.74" cy="119.01" r="7.03" xlink:href="#radial-gradient"/><radialGradient id="radial-gradient-3" cx="195.43" cy="151.95" r="7.03" xlink:href="#radial-gradient"/><radialGradient id="radial-gradient-4" cx="110.74" cy="178.03" r="7.03" xlink:href="#radial-gradient"/></defs><title>2445646</title><g class="cls-1"><g id="OBJECTS"><circle class="cls-2" cx="73.87" cy="59.46" r="7.03"/><path class="cls-3" d="M117.77,119a7,7,0,1,1-7-7A7,7,0,0,1,117.77,119Z"/><path class="cls-4" d="M202.46,152a7,7,0,1,1-7-7A7,7,0,0,1,202.46,152Z"/><circle class="cls-5" cx="110.74" cy="178.03" r="7.03"/><path class="cls-6" d="M114.09,178a3.36,3.36,0,1,1-3.35-3.35A3.35,3.35,0,0,1,114.09,178Z"/><path class="cls-6" d="M114.09,118.73a3.36,3.36,0,1,1-3.35-3.35A3.35,3.35,0,0,1,114.09,118.73Z"/><path class="cls-6" d="M77.22,59.6a3.35,3.35,0,1,1-3.35-3.35A3.35,3.35,0,0,1,77.22,59.6Z"/><path class="cls-6" d="M198.78,152a3.35,3.35,0,1,1-3.35-3.36A3.35,3.35,0,0,1,198.78,152Z"/><rect class="cls-6" x="92.02" y="54.33" width="0.55" height="69.68" transform="translate(-33.2 62.34) rotate(-31.95)"/><rect class="cls-6" x="110.46" y="118.73" width="0.55" height="59.3"/><rect class="cls-6" x="152.8" y="89.85" width="0.55" height="90.97" transform="translate(-28.81 228.44) rotate(-68.59)"/></g></g></svg>