<svg xmlns="http://www.w3.org/2000/svg" viewBox="0 0 251.17 251.17"><defs><style>.cls-1{fill:#fefefe;}</style></defs><title>2445646</title><g id="OBJECTS"><path class="cls-1" d="M119.82,111.51a23.28,23.28,0,0,0-2,1.74c-.57.58-1.17,1.13-1.75,1.73s-1.2,1.22-1.81,1.82c-.29.3-.59.56-.89.84s-.59.55-.87.84l-.91.91c-.32.31-.61.65-.91,1-1.13,1.31-2.28,2.6-3.39,3.93s-2.21,2.59-3.35,3.83q-.42.47-.87.93c-.29.31-.59.6-.9.89l-.86.85c-.28.28-.58.56-.86.85s-.33.38-.49.57l-.14.08a1.92,1.92,0,0,0-.54.65c-.11.16-.2.32-.29.48a9.43,9.43,0,0,0-.57,1.39,4.22,4.22,0,0,0-.2,1,3.19,3.19,0,0,0,.2,1.14,4,4,0,0,0,.36.68,7,7,0,0,0,.68.91,9.48,9.48,0,0,0,1.05,1c.31.26.62.5.94.74.64.49,1.29.94,1.94,1.39s1.29.85,1.94,1.25,1.34.86,2,1.31c.35.23.7.43,1.06.62s.77.43,1.15.62a20.76,20.76,0,0,0,2.18.94c.79.3,1.61.59,2.41.85a20.76,20.76,0,0,0,2.68.61.46.46,0,0,0-.19,0q.78.12,1.56.27c.78.13,1.56.27,2.35.35a18.78,18.78,0,0,0,2.25,0l2.17,0c.76,0,1.52,0,2.28,0a9.78,9.78,0,0,0,1.32-.2l1.16-.25,2.19-.48,2.19-.46a18.19,18.19,0,0,0,2.17-.56l1.71-.6,1.75-.6c.56-.18,1.11-.35,1.65-.57.28-.1.55-.22.83-.33s.68-.31,1-.48a12,12,0,0,0,2-1.05c.58-.4,1.17-.8,1.73-1.27a21.42,21.42,0,0,0,1.83-1.74,7.36,7.36,0,0,0,1.46-2,12.23,12.23,0,0,0,.53-1.47A9.6,9.6,0,0,0,151,135a9,9,0,0,0,0-3,10.81,10.81,0,0,0-.85-2.69,10.38,10.38,0,0,0-.57-1.1c-.24-.41-.48-.81-.74-1.19-.4-.59-.81-1.17-1.2-1.77-.18-.29-.36-.6-.54-.91s-.5-.81-.76-1.22a13.44,13.44,0,0,0-1.42-2,13.17,13.17,0,0,0-1-1c-.29-.27-.58-.52-.87-.8s-.61-.53-.91-.81l-.86-.8a17,17,0,0,0-1.33-1.08c-.49-.34-1-.68-1.46-1s-.95-.62-1.44-.91a11.9,11.9,0,0,0-1.57-.85h0a14.86,14.86,0,0,1,1.6,1.27c.52.44,1,.9,1.51,1.36h0c.31.31.63.6,1,.9s.82.83,1.21,1.28.84,1,1.27,1.45.89.94,1.3,1.45a13.67,13.67,0,0,1,1.14,1.57c.36.6.69,1.21,1,1.83s.67,1.33,1,2l.53,1c.17.32.36.61.53.93s.34.62.48,1,.27.63.39.95.19.64.27,1a7.25,7.25,0,0,1,.16,1,8.24,8.24,0,0,1,0,1.49,13.66,13.66,0,0,1-.5,1.93,7.29,7.29,0,0,1-.42.78,12.26,12.26,0,0,1-2,2.05c-.65.54-1.32,1-2,1.5a7.81,7.81,0,0,1-1.21.71l-1.23.6-.43.2.14-.07c-.69.32-1.39.57-2.1.83s-1.45.54-2.16.83-1.44.56-2.17.81-1.44.39-2.16.58c-.94.25-1.87.48-2.81.71s-1.78.47-2.69.61c-.75.08-1.5.08-2.24.11s-1.45.09-2.17.13a14.21,14.21,0,0,1-2.26,0c-.76-.07-1.51-.19-2.26-.31l-2.18-.33a12.85,12.85,0,0,1-1.57-.39c-.52-.17-1-.37-1.55-.55-1-.39-2-.78-3-1.27a19.63,19.63,0,0,1-2-1.17c-.66-.45-1.31-.9-2-1.32a22.37,22.37,0,0,1-1.94-1.34c-.63-.49-1.26-1-1.88-1.51-.28-.24-.54-.49-.82-.74s-.33-.34-.49-.52a3.87,3.87,0,0,1-.36-.51,4.13,4.13,0,0,1-.22-.42s0,0,0-.06a6.73,6.73,0,0,1,.62-1.08,1.13,1.13,0,0,0,.12-.18,2.56,2.56,0,0,0,.2-.26,1.77,1.77,0,0,0,.34-.62c.15-.18.31-.36.47-.53l.89-.87c.59-.6,1.19-1.17,1.75-1.8l1.67-1.86c.55-.63,1.09-1.28,1.63-1.93s1.09-1.33,1.63-2,1.12-1.33,1.67-2,1.14-1.4,1.75-2.06l1.71-1.84c.24-.25.49-.5.73-.76s.55-.6.81-.91c.51-.59,1-1.16,1.57-1.74.25-.28.52-.54.78-.82l.76-.81c.51-.52,1-1,1.56-1.51a12.52,12.52,0,0,1,2.68-1.76c.32-.15.64-.29,1-.41a6.89,6.89,0,0,1,1.16-.32,4.37,4.37,0,0,1,1.14,0,10.27,10.27,0,0,1,1.21.32,10.5,10.5,0,0,1,1.31.52,12.86,12.86,0,0,1,1.1.71h0a10.43,10.43,0,0,0-1-.86,6.7,6.7,0,0,0-1.07-.61,7.26,7.26,0,0,0-2.12-.79,2.65,2.65,0,0,0-.5,0h0c-.21,0-.42,0-.63,0a7.65,7.65,0,0,0-1.16.22,11,11,0,0,0-1.08.32c-.34.14-.69.28-1,.43s-.73.35-1.09.55A8,8,0,0,0,119.82,111.51Z"/><path class="cls-1" d="M76.91,109c0,.24.07.47.1.7s.12.72.19,1.08.15.76.25,1.13.2.75.31,1.12c.24.8.5,1.6.8,2.37a12.78,12.78,0,0,0,1.11,2.22c.2.3.4.61.61.89s.23.28.35.41.27.29.41.43.57.54.86.8.53.39.8.58c.53.37,1.08.73,1.63,1.09s1.12.75,1.7,1.09c1.32.8,2.71,1.44,4.08,2.13l1.71.91c.59.33,1.18.68,1.78,1a15.55,15.55,0,0,0,1.86.86c.62.23,1.22.44,1.85.62s1.15.27,1.73.4h0c-.52-.22-1-.45-1.55-.69a4.22,4.22,0,0,0,.86-.17,2.89,2.89,0,0,0,.93-.56,7.78,7.78,0,0,0,1.28-1.4,17.08,17.08,0,0,0,1.12-1.73c.32-.57.63-1.17.94-1.76s.67-1.15,1-1.7h0a10.06,10.06,0,0,0-1.53,1.53c-.5.63-1,1.28-1.4,1.94s-.86,1.34-1.31,2a7.63,7.63,0,0,1-1.05,1.27,7.16,7.16,0,0,1-.9.57l-.16-.07a26.34,26.34,0,0,1-3.34-2c-.58-.41-1.16-.83-1.74-1.23s-1.13-.76-1.71-1.1c-1.16-.71-2.35-1.37-3.5-2.1-.58-.36-1.15-.75-1.72-1.13l-1.62-1.11-.75-.56c-.2-.15-.39-.33-.58-.5a8.57,8.57,0,0,1-.77-.82c-.16-.19-.3-.38-.45-.59s-.18-.27-.28-.42-.24-.41-.36-.63-.27-.58-.4-.87-.2-.51-.3-.75l-.33-.9c-.24-.75-.47-1.51-.65-2.29-.1-.4-.18-.81-.26-1.22s-.17-.87-.22-1.33c0-.29,0-.58,0-.88s0-.35,0-.53c0-.42,0-.86.08-1.28,0-.18.06-.38.09-.54a7.22,7.22,0,0,1,.23-.83,8.08,8.08,0,0,1,.7-1.3c.32-.46.67-.89,1-1.31.15-.17.3-.35.46-.51s.36-.4.55-.58l1.08-1.07,1-.9c.37-.3.76-.62,1.15-.92-.08.24-.16.48-.22.73s-.08.35-.11.53,0,.18,0,.28a1.87,1.87,0,0,0,0,.25.53.53,0,0,1,0,.13c0,.37-.06.75-.08,1.13a6,6,0,0,0,.35,2.35,5.25,5.25,0,0,0,.55,1,7.29,7.29,0,0,0,.65.87c.13.14.28.27.42.4a4.58,4.58,0,0,0,.42.35,3.52,3.52,0,0,0,1,.55,3.29,3.29,0,0,0,1.08.16,3.82,3.82,0,0,0,1.09-.21c.32-.11.63-.25.94-.38s.74-.34,1.1-.53.6-.36.89-.55.62-.41.92-.64c.64-.47,1.27-.94,1.89-1.45s1.25-1.07,1.85-1.65,1.07-1.08,1.61-1.62S100,98.57,100.55,98s1.07-1.11,1.6-1.67l1.5-1.61c.47-.52,1-1,1.42-1.58s1-1.2,1.5-1.85h0l-.19.17h0l-.23.2h0c-1,.81-2,1.59-2.93,2.37s-2,1.62-3,2.47l-1.21,1h0c-.36.31-.73.63-1.08,1s-.74.69-1.1,1c-.69.68-1.41,1.32-2.12,2-.37.3-.72.61-1.09.9s-.85.69-1.3,1-.88.6-1.34.87-.91.47-1.37.69l-.06,0-.45.18-.39.09a3.66,3.66,0,0,1-.81,0,3.81,3.81,0,0,1-.59-.21,6,6,0,0,1-1.07-.78A8.68,8.68,0,0,1,85.22,103c-.06-.11-.13-.24-.19-.37s-.1-.25-.15-.37-.12-.39-.17-.59-.07-.49-.1-.73-.06-.74-.06-1.12v-.1a.08.08,0,0,0,0-.07c0-.33,0-.65.08-1s.09-.58.15-.87l.38-.3c.56-.44,1.16-.84,1.75-1.23,1.15-.76,2.33-1.48,3.51-2.16.39-.23.78-.47,1.18-.69l1.33-.74c.45-.27.89-.54,1.35-.79l.7-.39c.22-.12.44-.22.66-.32s.54-.24.83-.35l1.1-.41c.64-.22,1.29-.42,1.93-.63s1.27-.43,1.89-.62,1.26-.37,1.88-.57c.47-.14.95-.25,1.41-.42h0l-.3.06h0l-.35.06s0,0,0,0l-1.11.17,1.42-.56c.67-.24,1.35-.44,2-.63,1.44-.39,2.89-.77,4.34-1.09q.89-.18,1.77-.33c.47,0,.94-.11,1.41-.14l.24,0-.9.57c-.62.36-1.25.73-1.85,1.14a15.3,15.3,0,0,0-1.83,1.53,13.07,13.07,0,0,0-2.42,3,1.86,1.86,0,0,0-.19.34,3.73,3.73,0,0,0-.16.35,2.41,2.41,0,0,0-.16.54.36.36,0,0,0,.24.39h0l-.09-.07-.06-.1,0-.1a.83.83,0,0,1,.06-.21v0a3.62,3.62,0,0,1,.24-.43l.35-.51a19.82,19.82,0,0,1,2.28-2.3,21.23,21.23,0,0,1,1.8-1.36c.64-.41,1.3-.76,2-1.1l1-.54a9.61,9.61,0,0,0,.87-.53,7.37,7.37,0,0,0,.65-.49,1,1,0,0,0,.29-.64.79.79,0,0,0-.48-.74,2.39,2.39,0,0,0-.75-.11h-.54a12.45,12.45,0,0,0-2.18.31c-.74.17-1.47.38-2.19.6s-1.32.43-2,.67-1.41.52-2.1.81-1.3.57-1.93.9-1,.57-1.5.88c-.81.13-1.62.27-2.43.45l-1.93.43c-.33.07-.66.16-1,.24s-.73.2-1.09.31a13.09,13.09,0,0,0-1.87.76c-.63.3-1.25.63-1.87,1s-1.22.66-1.82,1l-1.73,1q-.9.54-1.8,1.11c-.3.18-.59.37-.88.56s-.58.37-.86.57c-.55.4-1.09.8-1.63,1.22S82.51,98,82,98.52s-1.11,1-1.64,1.53c-.28.28-.55.57-.82.86s-.48.56-.72.84a7.88,7.88,0,0,0-1.7,3.59c-.08.46-.13.92-.18,1.39s0,.76,0,1.14A11.46,11.46,0,0,0,76.91,109Z"/><path class="cls-1" d="M114.36,91.28l-.73.32c-.22.1-.44.17-.66.26q-.7.26-1.41.45c-.53.15-1,.29-1.58.41s-1,.18-1.46.25-1,.11-1.49.14h0c.33,0,.65.07,1,.08h.87a10.59,10.59,0,0,0,1.69-.12c.62-.1,1.24-.2,1.86-.34.28,0,.56-.14.84-.21l.33-.1.47-.17c.26-.09.52-.18.77-.29s.6-.25.89-.4.57-.27.84-.43.53-.29.79-.45.52-.31.77-.5l.46-.34c.13-.09.25-.21.38-.31a8.68,8.68,0,0,0,.7-.65c.23-.2.43-.41.64-.63l.22-.23c-.13.23-.27.45-.41.67s-.48.6-.74.88-.57.57-.85.85-.67.63-1,.94l-.79.7-.12.1c-.17.16-.34.31-.52.45l-.44.35c-.12.1-.26.18-.39.27-.46.33-.92.66-1.4,1l-.79.51c-.26.15-.51.33-.78.48s-.56.32-.84.46l-.85.45-.74.37-1.28.56-1.36.53c-.41.15-.83.27-1.24.39a15.93,15.93,0,0,1-1.66.38,3.37,3.37,0,0,1-.84,0,2,2,0,0,1-.44-.13,5.91,5.91,0,0,1-1.15-.91h0a5.58,5.58,0,0,0,1.12,1.2,3.55,3.55,0,0,0,.5.21,2.34,2.34,0,0,0,.53.08,5.17,5.17,0,0,0,.88,0,15.73,15.73,0,0,0,1.81-.24c.3-.06.61-.11.92-.19s.62-.15.93-.24l.84-.25.37-.13.41-.14c.56-.22,1.13-.46,1.68-.71A14.24,14.24,0,0,0,113.7,96c.52-.29,1-.62,1.52-1l.7-.48.34-.25.46-.37a1.58,1.58,0,0,1,.15-.12l.17-.15h0l.19-.16.25-.21h0a.94.94,0,0,0,.1-.1l.49-.41c.47-.43.91-.87,1.36-1.31a13.49,13.49,0,0,0,1.2-1.3,8.09,8.09,0,0,0,1.1-1.82,3.58,3.58,0,0,0,.19-.66,1.27,1.27,0,0,0,0-.34,1.16,1.16,0,0,0-.08-.45l0-.09a.49.49,0,0,0-.18-.22.7.7,0,0,0-.26-.15l-.16,0a1,1,0,0,0-.49.16,2.64,2.64,0,0,0-.52.43l-.29.3-.66.68c-.22.22-.45.43-.69.65a2.76,2.76,0,0,1-.37.31c-.18.14-.36.29-.53.41-.37.24-.74.5-1.11.72s-.77.46-1.15.68S114.7,91.11,114.36,91.28Z"/><path class="cls-1" d="M88.29,108.38h0c-.32.26-.63.5-.94.77s-.84.69-1.28,1-.94.72-1.42,1.08-1,.75-1.46,1.12l-.65.48a2.14,2.14,0,0,1-.38.23l-.39.23a1.46,1.46,0,0,1-.19.07h0v0s0,0,0,0,0,0,0,0h0a1,1,0,0,0,.29,0,1.93,1.93,0,0,0,.52-.11c.12,0,.27-.08.4-.13l.53-.21c.33-.15.65-.32,1-.48a8.63,8.63,0,0,0,.82-.51,10.41,10.41,0,0,0,1.78-1.61,12.9,12.9,0,0,0,1.4-2Z"/><path class="cls-1" d="M87.79,111.89a20.39,20.39,0,0,1,3.46,1.16l2.16.86c.74.29,1.48.57,2.2.89s1.55.67,2.32,1,1.46.67,2.19,1,1.44.65,2.18.93l.4.21a1.11,1.11,0,0,0,.26.07l.21.06.91.25h0c-.22-.23-.45-.44-.68-.65l-.44-.36a1.6,1.6,0,0,0-.4-.23,39.72,39.72,0,0,0-4.21-2.83A25.74,25.74,0,0,0,96,113.13a17.86,17.86,0,0,0-2.21-.73c-.88-.24-1.76-.45-2.65-.63-.5-.09-1-.18-1.5-.25a7.43,7.43,0,0,0-1.15-.09h-.4a6.91,6.91,0,0,0-1.73.35h0A11.48,11.48,0,0,1,87.79,111.89Z"/><path class="cls-1" d="M135.34,91.38c0,.19.09.38.15.55l.24.76a13.64,13.64,0,0,0,.68,1.61,11.34,11.34,0,0,0,.81,1.4l.43.6a8.15,8.15,0,0,0,1.12,1.22,8,8,0,0,0,1,.82l.66.45a17.53,17.53,0,0,0,2.28,1.26c.37.18.75.31,1.13.47l1.16.4c.73.24,1.47.44,2.21.63l1.19.28c.41.09.84.15,1.26.21a3.42,3.42,0,0,0,.45,0c.21,0,.42,0,.62,0H152c1.08,0,2.16,0,3.25-.06h0c-1.07-.18-2.14-.38-3.2-.55l-1.19-.21h0l-.54-.13-.48-.11c-.34-.12-.68-.21-1-.34-.69-.27-1.38-.51-2.07-.79l-1.22-.49c-.38-.14-.75-.31-1.12-.47s-.67-.28-1-.43-.6-.29-.89-.44l-1.1-.56a.76.76,0,0,1,.18.09l-1-.58a10.6,10.6,0,0,1-1.77-1.3,13.24,13.24,0,0,1-1.91-2.41c-.22-.36-.43-.74-.62-1.12s-.23-.46-.33-.69-.2-.48-.3-.7-.17-.46-.26-.7c-.17-.55-.35-1.1-.53-1.66h0c.06.54.13,1.08.2,1.62S135.24,91,135.34,91.38Z"/><path class="cls-1" d="M136.79,92a5.89,5.89,0,0,0,1.73,1.39c.29.16.61.31.92.47l.59.28c1.05.42,2.11.8,3.18,1.16,2,.67,4,1.28,6,1.79a8.35,8.35,0,0,0,1.21.24q.67.06,1.35.06h0a12.66,12.66,0,0,1-1.61-.41c-.5-.18-1-.4-1.48-.61-1-.41-2-.8-3-1.18s-2-.69-3-1l-1.35-.42-1-.3-.56-.2-.72-.27c-.31-.12-.62-.25-.92-.4s-.41-.24-.61-.38a4.94,4.94,0,0,1-.62-.51,2.54,2.54,0,0,1-.4-.46,3.11,3.11,0,0,1-.2-.41,8.5,8.5,0,0,1-.15-.88h0a4.21,4.21,0,0,0,.09,1.12A2.69,2.69,0,0,0,136.79,92Z"/><path class="cls-1" d="M145.61,87.32c.29.34.59.69.89,1l1.71,1.82c.27.28.54.58.8.87a10.06,10.06,0,0,1,.76.94l.78,1.14c.22.33.43.67.65,1l.4.65c.48.8,1,1.61,1.47,2.38.31.47.63.95,1,1.38a12.72,12.72,0,0,0,1.08,1.12c.67.64,1.37,1.23,2.06,1.83l.93.8,1,.79.89.72c.34.26.66.51,1,.75l.38.26.66.39c.37.22.76.4,1.14.58a19.34,19.34,0,0,0,2,.81,5,5,0,0,0,1,.22,7.5,7.5,0,0,0,1.26.06h0c-.32-.07-.61-.15-.92-.25a6.65,6.65,0,0,1-.69-.28c-.39-.21-.76-.43-1.13-.67s-.75-.48-1.11-.74l-.72-.53c-.2-.13-.37-.3-.56-.45-.34-.29-.68-.59-1-.9L160,101.76c-.41-.42-.85-.81-1.26-1.22s-1-1-1.52-1.45L156,98l-.45-.44a7.59,7.59,0,0,1-.78-.92c-.26-.35-.52-.69-.78-1-.52-.72-1-1.46-1.55-2.17s-1-1.37-1.6-2a16.52,16.52,0,0,0-1.85-1.8c-.65-.54-1.32-1.06-2-1.57l-.35-.26c.64.19,1.29.39,1.93.63.38.13.75.33,1.13.5l1.11.51c.37.16.72.35,1.07.52l1.22.6,2.16,1c.73.36,1.46.73,2.2,1s1.6.65,2.4,1c1.49.56,3,1.07,4.48,1.62l1,.36c.29.11.56.24.84.37s.57.35.84.54a9.36,9.36,0,0,1,.79.62l.72.6c.26.21.52.4.79.58s.5.37.76.53.65.37,1,.54c.57.3,1.16.57,1.74.86.34.18.68.37,1,.58a1.4,1.4,0,0,0,.51.49,2.61,2.61,0,0,1,.27.22,1,1,0,0,1,.18.23,2.29,2.29,0,0,1,.14.27l0,.16s0,.09,0,.14l-.06.2a2.74,2.74,0,0,1-.19.34,9.84,9.84,0,0,1-.64.78c-.27.3-.57.58-.86.85s-.88.71-1.33,1a9.78,9.78,0,0,1-1.44.81c-.67.29-1.36.54-2.06.77-.37.11-.74.21-1.12.3l-1.12.22c-.33,0-.66.06-1,.07h0a9.09,9.09,0,0,0,1.28.27c.38,0,.77.09,1.16.12a11.7,11.7,0,0,0,2.36-.11,11.13,11.13,0,0,0,1.26-.23,7.34,7.34,0,0,0,1.1-.34,13.82,13.82,0,0,0,2.32-1.27c.18-.12.34-.26.51-.39a8.67,8.67,0,0,0,.72-.62c.16-.17.32-.34.47-.52a3.58,3.58,0,0,0,.85-1.72,4.69,4.69,0,0,0,.06-.54,3.29,3.29,0,0,0,0-.63,4.71,4.71,0,0,0-.22-.84,2.89,2.89,0,0,0-.22-.43,4.78,4.78,0,0,0-.45-.63,3.85,3.85,0,0,0-.75-.65,2.49,2.49,0,0,0-.52-.3,1.11,1.11,0,0,0-.36,0A15,15,0,0,0,173,98.1a20.48,20.48,0,0,1-1.95-.8,13.61,13.61,0,0,1-1.86-1.19A13.36,13.36,0,0,0,167,94.7a5.64,5.64,0,0,0-1.1-.48l-1.22-.39c-.79-.24-1.57-.51-2.36-.78-1.52-.51-3-1-4.54-1.67-.75-.31-1.49-.65-2.23-1s-1.46-.59-2.2-.89q-.85-.34-1.74-.66c-.58-.21-1.16-.41-1.76-.59-.29-.1-.59-.2-.89-.28s-.64-.15-1-.21c-.51-.08-1-.13-1.54-.18l-.6-.46c-.36-.29-.71-.62-1.06-1h0l.47.67C145.38,87,145.49,87.17,145.61,87.32Z"/><path class="cls-1" d="M174.78,108.43l-.22.11c-.49.21-1,.4-1.48.57-.25.08-.51.14-.76.21s-.56.16-.84.25a4.65,4.65,0,0,0-1.41.7,3.41,3.41,0,0,0-.58.56,2.87,2.87,0,0,0-.35.47l-.07.15c-.13.11-.25.22-.38.35a2.68,2.68,0,0,0-.56.68.62.62,0,0,0,0,.48,1.77,1.77,0,0,0,.16.22,3.49,3.49,0,0,0,.35.32,9,9,0,0,0,1.18.74l1.12.57a11.52,11.52,0,0,1,1.55,1c.49.38.95.8,1.41,1.22.28.28.55.57.82.87s.51.64.77,1a3.87,3.87,0,0,0,1.39,1.23,2.31,2.31,0,0,0,.69.16,2.4,2.4,0,0,0,.65,0,2.09,2.09,0,0,0,.61-.24,2.71,2.71,0,0,0,.66-.57,6.15,6.15,0,0,0,.53-.77,4.77,4.77,0,0,0,.29-.55c.21-.39.39-.81.57-1.22s.37-.9.52-1.37a12.66,12.66,0,0,0,.37-1.28c.12-.54.21-1.08.28-1.64s.09-.92.1-1.38a6.1,6.1,0,0,0-.15-1.48q-.12-.42-.27-.81a5.49,5.49,0,0,0-.31-.59,3.64,3.64,0,0,0-.46-.63,3.1,3.1,0,0,0-.56-.47,2.42,2.42,0,0,0-1.24-.37H179a4.4,4.4,0,0,0-1.33.33c-.78.3-1.54.65-2.31,1Zm-6.35,4.21ZM178.71,109a3.34,3.34,0,0,1,.45,0,2.5,2.5,0,0,1,.25.09,1,1,0,0,1,.21.15l.24.3c.07.12.12.23.18.34l.12.32a4.5,4.5,0,0,1,.15.73c0,.32,0,.65,0,1s0,.69-.09,1a11.06,11.06,0,0,1-.25,1.25,13,13,0,0,1-.43,1.38c-.14.37-.28.73-.43,1.08s-.4.79-.63,1.18a2.37,2.37,0,0,1-.29.34l-.19.13-.14,0h-.31l-.13,0a3.12,3.12,0,0,1-.37-.29c-.25-.27-.49-.57-.75-.85a10.87,10.87,0,0,0-.95-1,14.06,14.06,0,0,0-2-1.42,7.64,7.64,0,0,0-1.1-.57,10.41,10.41,0,0,0-1.11-.39,14.06,14.06,0,0,1-2.32-.78,3.17,3.17,0,0,1-.36-.23.46.46,0,0,0-.07-.07v0a.06.06,0,0,0,0,0,.94.94,0,0,1,0-.09,4.34,4.34,0,0,1,.41-.64l0,0,.12-.15a.86.86,0,0,0,0,.23h0c0-.06,0-.12.06-.19s0-.11.07-.17.21-.23.32-.34a3.71,3.71,0,0,1,.77-.49c.19-.08.39-.15.58-.21a4.48,4.48,0,0,1,.6-.11c.61-.07,1.22-.11,1.82-.16a10.34,10.34,0,0,0,1.9-.39l1.85-.53C177.52,109.24,178.11,109.07,178.71,109Z"/><path class="cls-1" d="M153.08,120.09a11,11,0,0,1,1.35-.74l.25-.11a5.46,5.46,0,0,1,.72-.21c.24-.06.5-.09.75-.14.78-.1,1.56-.16,2.33-.27a10.22,10.22,0,0,0,1.07-.23l1.33-.38c.75-.22,1.49-.48,2.24-.73s1.52-.49,2.28-.75l1.07-.35a0,0,0,0,0,0,0c-1.07.07-2.15.17-3.22.33s-2.2.32-3.3.48a12.05,12.05,0,0,1-1.89.16,7.56,7.56,0,0,1-1,0q-.51,0-1-.06a5.17,5.17,0,0,0-.88,0,5.4,5.4,0,0,0-1,.14,3.79,3.79,0,0,0-.5.18,9,9,0,0,0-1.71.89.35.35,0,0,0-.14,0,1.45,1.45,0,0,0-.71.57l-.22.33a.43.43,0,0,0,0,.07l-.17.45a3.42,3.42,0,0,0-.09.63s0,.1,0,.16a2.42,2.42,0,0,0,.06.47,3.63,3.63,0,0,0,.59,1.16c.11.17.23.32.34.46.46.59.95,1.14,1.4,1.73s.92,1.25,1.37,1.88.86,1.18,1.25,1.8a7.54,7.54,0,0,1,.69,1.36c.07.22.13.45.22.66a1.36,1.36,0,0,0,.24.35,1.42,1.42,0,0,0,.3.25,1.47,1.47,0,0,0,.84.19,6.08,6.08,0,0,0,1.31-.31c.77-.24,1.55-.44,2.33-.63s1.47-.34,2.2-.51,1.63-.4,2.43-.58l1.11-.24c.4-.1.79-.23,1.18-.35a19.41,19.41,0,0,0,2.34-1c.73-.37,1.45-.78,2.17-1.21a10,10,0,0,0,.94-.66,7.68,7.68,0,0,0,.59-.55,3.91,3.91,0,0,0,.53-.67,7,7,0,0,0,.75-1.4,2.47,2.47,0,0,0-.21-1.94,4.14,4.14,0,0,0-.46-.69,3.25,3.25,0,0,0-.35-.39,5.21,5.21,0,0,0-.8-.7,7,7,0,0,0-1.22-.61,22,22,0,0,0-2.23-.68c-.35-.11-.7-.21-1-.34s-.75-.26-1.12-.36a5.14,5.14,0,0,0-1.4-.19,5,5,0,0,0-1.45.37h0a11.89,11.89,0,0,1,1.19.08,4,4,0,0,1,.93.35c.47.26.91.57,1.36.87s.9.57,1.36.84a15.65,15.65,0,0,1,2.72,1.67,6.36,6.36,0,0,1,.65.79c0,.06.07.12.1.19-.12.22-.25.42-.38.62a4.6,4.6,0,0,1-.64.68,22.47,22.47,0,0,1-4.11,2.56c-.34.16-.69.3-1,.44s-.72.25-1.08.36c-.75.24-1.51.42-2.27.65l-2.25.64c-.76.21-1.53.42-2.28.66-.31.11-.61.22-.93.31a6.86,6.86,0,0,1-.77.24.76.76,0,0,0,0-.15,7.14,7.14,0,0,0-.06-.93,3.56,3.56,0,0,0-.15-.56,9,9,0,0,0-.33-.86,12.2,12.2,0,0,0-.79-1.35c-.2-.33-.43-.64-.65-1-.5-.68-1-1.37-1.54-2-.28-.34-.57-.68-.87-1s-.55-.59-.81-.9h0a1,1,0,0,0,.14-.2Zm20.82,1.75h0s0,0,0-.06A.13.13,0,0,0,173.9,121.84Zm0,.11s0,0,0,0,0,0,0,0Zm0-.13a.64.64,0,0,1,0,.07h0A.64.64,0,0,0,173.85,121.82ZM158,129.12Z"/><path class="cls-1" d="M128.81,116.07c-.32,0-.64-.1-1-.13-.48-.08-1-.15-1.43-.24l-.71-.13-1-.19c-.44-.08-.9-.2-1.34-.3-.59-.13-1.16-.26-1.75-.37h0c.77.43,1.54.85,2.33,1.21.4.18.8.34,1.21.49s.79.26,1.2.38a14.58,14.58,0,0,0,4.74.44,7.71,7.71,0,0,0,.84-.1,4.93,4.93,0,0,0,.8-.21,3.67,3.67,0,0,0,.65-.26c.2-.11.39-.25.59-.37s.57-.4.84-.61h0a17.51,17.51,0,0,1-1.74.54,8.84,8.84,0,0,1-2.12.06l-1.23-.11Z"/><path class="cls-1" d="M74.35,162c-.25.45-.5.89-.72,1.36h0l.32-.44.23-.31c.19-.24.38-.49.56-.74.36-.46.71-.92,1.06-1.39l1-1.3.56-.72.48-.59,1-1.33c.33-.46.66-.91,1-1.34A14.68,14.68,0,0,1,81,153.94c.4-.4.8-.8,1.17-1.23a7.41,7.41,0,0,0,.55-.68c.17-.24.33-.5.5-.76a9,9,0,0,1,.55-.82c.13-.17.25-.33.39-.49s.21-.23.33-.34l.39-.36.52-.4c.3-.22.61-.42.92-.63.65-.43,1.31-.84,2-1.21a2.31,2.31,0,0,1,.45-.21l.63-.22a9.93,9.93,0,0,1,1.17-.28l.76-.1.73-.1q.78-.11,1.56-.18c.5-.05,1-.05,1.49-.07s1.07-.07,1.61-.08c1,0,2.07-.09,3.11-.18.23,0,.47,0,.71,0l.81,0c.53,0,1.05,0,1.58,0,.72,0,1.44.09,2.16.17.43,0,.85.12,1.28.18.22,0,.44.05.66.07l.7,0h0l-.81-.12-.73-.13c-.48-.1-1-.21-1.46-.3-1-.17-2.08-.31-3.12-.38-.52-.05-1-.1-1.54-.1H98.49l-1.55,0c-.53,0-1.06,0-1.59-.05l-.77,0c-.76,0-1.53,0-2.29.07-.51,0-1,.11-1.52.15-.29,0-.58.09-.87.14a7.2,7.2,0,0,0-.78.16,7,7,0,0,0-.69.23c-.28.12-.57.27-.85.42a13.23,13.23,0,0,0-1.33.82,14.51,14.51,0,0,0-2.69,2.09,9.07,9.07,0,0,0-1,1.31,12.26,12.26,0,0,1-1,1.36c-.2.22-.4.45-.61.67s-.39.41-.58.6c-.38.41-.76.79-1.13,1.2A16.1,16.1,0,0,0,78,155.92l-.61.94c-.21.34-.43.66-.64,1h0c-.06.11-.13.22-.2.33l.06-.09q-.78,1.26-1.5,2.55C74.83,161.07,74.59,161.51,74.35,162Z"/><path class="cls-1" d="M94.38,150.18c.59-.06,1.18-.08,1.78-.11s1.17,0,1.76,0c1.15,0,2.3,0,3.45.08l3.48.2a15.28,15.28,0,0,0,1.66,0,6.82,6.82,0,0,0,.79-.07,3.84,3.84,0,0,0,.81-.2,2.52,2.52,0,0,0,.33-.15,1.07,1.07,0,0,0,.25-.16l.18-.18a1.21,1.21,0,0,0,.34-.58,2.13,2.13,0,0,0,.07-.44,2.53,2.53,0,0,0,0-.55c0-.08,0-.17-.06-.26a1.29,1.29,0,0,0-.22-.4,4.58,4.58,0,0,0-.74-.78c-.22-.2-.44-.38-.66-.55h0a10.8,10.8,0,0,1,1.17,1.34,2.37,2.37,0,0,1,.19.35,2.62,2.62,0,0,1,.09.38v.31a4,4,0,0,1-.08.48l-.07.16a1.75,1.75,0,0,1-.16.2,2.88,2.88,0,0,1-.27.22,2.78,2.78,0,0,1-.56.17,6.75,6.75,0,0,1-1.68,0c-.53-.07-1.07-.16-1.6-.25l-1.79-.29c-.62-.09-1.25-.17-1.88-.23s-1.14-.1-1.71-.13c-1.15,0-2.29-.06-3.44,0a30.73,30.73,0,0,0-3.58.33q-.91.14-1.83.3c-.55.09-1.11.19-1.66.32l-.9.24a8.26,8.26,0,0,0-.82.33,9.6,9.6,0,0,0-1.64,1q-.63.45-1.23.93c-.44.37-.87.75-1.28,1.13s-.68.65-1,1-.79.76-1.18,1.14-.66.69-1,1-.66.69-1,1l-.88.81c-.33.31-.66.66-1,1-.13.14-.25.3-.37.45a4.94,4.94,0,0,0-.27.42,2.31,2.31,0,0,0-.18.35c-.08.26-.16.53-.22.8s-.09.35-.14.52c-.14.38-.32.75-.49,1.1a9.67,9.67,0,0,0-.57,1.41c-.27.85-.48,1.73-.76,2.58-.41,1.24-.84,2.48-1.22,3.74.11-.87.24-1.72.35-2.58.14-1.05.23-2.1.32-3.16s.08-2.15.11-3.22h0c-.13.74-.23,1.5-.35,2.25s-.22,1.25-.34,1.87-.26,1.38-.42,2.06-.3,1.39-.46,2.08c-.21,1-.41,2-.6,3s-.39,1.8-.51,2.72a1,1,0,0,0-.14.52v.31a3.11,3.11,0,0,0,.06.44c0,.06.09.26.1.27a1,1,0,0,0,.13.2.88.88,0,0,0,.15.12.5.5,0,0,0,.59,0,.76.76,0,0,0,.28-.45,3.73,3.73,0,0,0,.09-.46h0a6.29,6.29,0,0,1,.17-.62c.11-.38.24-.77.36-1.15l1-3.06-.06.17c.39-1.17.79-2.34,1.22-3.49.11-.28.22-.55.32-.83s.23-.68.34-1l.48-1.53c.11-.32.23-.64.37-1s.32-.61.46-.94A7,7,0,0,0,77,162a4.1,4.1,0,0,0,.1-.48l.09-.36a1.46,1.46,0,0,1,.13-.25,7.64,7.64,0,0,1,.51-.62c.2-.2.38-.4.58-.59.4-.37.8-.72,1.2-1.1s.52-.5.77-.77.43-.46.64-.69.39-.43.59-.63l.64-.65c.43-.44.87-.87,1.31-1.3l.62-.62c.47-.43,1-.83,1.45-1.23l.78-.57a5,5,0,0,1,.79-.49,9.1,9.1,0,0,1,.85-.37c.33-.1.66-.18,1-.26.64-.16,1.3-.27,2-.38l-.16,0C92,150.45,93.2,150.29,94.38,150.18ZM84.23,153.9l0,0,.09-.08Z"/><path class="cls-1" d="M189,178c-.06-.37-.11-.74-.16-1.1-.1-.82-.2-1.64-.34-2.46s-.3-1.64-.5-2.44c-.05-.18-.08-.37-.14-.55s-.16-.48-.23-.72-.15-.47-.24-.7l-.27-.66c-.08-.19-.17-.38-.24-.58s-.16-.31-.23-.46c-.27-.54-.54-1.06-.83-1.58-.15-.26-.3-.5-.46-.74s-.06-.23-.1-.35c-.12-.4-.23-.81-.34-1.22s-.23-.81-.35-1.21-.22-.72-.35-1.08-.31-.87-.48-1.28a6.36,6.36,0,0,0-.28-.59l.05.08h0l.33.49h0c-.07-.2-.16-.39-.24-.58s-.16-.37-.25-.54c-.18-.34-.36-.68-.53-1-.39-.71-.8-1.41-1.25-2.08s-1-1.32-1.46-2-1-1.23-1.48-1.86-1-1.28-1.48-1.93l-.69-.95c-.21-.29-.44-.58-.66-.87-.49-.63-1-1.25-1.52-1.84a6.08,6.08,0,0,0-.91-.85,6.26,6.26,0,0,0-.91-.57l-.36-.18a.75.75,0,0,1-.18-.08h0a9,9,0,0,0-1.12-.45c-.33-.1-.67-.19-1-.26s-.71-.13-1.07-.18a21.31,21.31,0,0,0-2.26-.2l-2.06-.13-2.15-.13c-.76,0-1.5-.06-2.26-.09l-.84,0h-1.41c-.68,0-1.35,0-2,0-1.28,0-2.56,0-3.85,0h0l2.36.41c.77.13,1.55.22,2.33.3s1.36.11,2,.18,1.45.14,2.18.23l1.75.19,1.85.22c1.13.11,2.25.19,3.38.32.61.09,1.21.22,1.81.36a12.84,12.84,0,0,1,1.8.64l.12.05.09,0c.17.08.34.18.51.28a4.59,4.59,0,0,1,.76.51,14.1,14.1,0,0,1,1.48,1.6c.51.61,1,1.22,1.51,1.83s.95,1.17,1.44,1.73,1,1.16,1.57,1.71.79.81,1.19,1.21.74.78,1.11,1.19.64.77.95,1.17l-.28-.28c-.26-.28-.53-.54-.8-.81-.54-.53-1.06-1.08-1.6-1.61a15.91,15.91,0,0,0-1.71-1.48c-.61-.44-1.24-.85-1.84-1.29s-1.23-.91-1.86-1.33-1.22-.8-1.83-1.18-1.33-.79-2-1.14a9.85,9.85,0,0,0-1-.48c-.34-.15-.68-.28-1-.41a1.31,1.31,0,0,0-.38-.09,4.71,4.71,0,0,0-.52-.09,3.71,3.71,0,0,0-.67-.07h-.15l-.51,0h0a7.93,7.93,0,0,1,.84.07,5.74,5.74,0,0,1,1.08.29c-.65,0-1.29-.13-1.94-.19s-1.41-.11-2.12-.15c-1.42-.09-2.85-.16-4.27-.24-.73,0-1.46,0-2.2,0H155c-.72,0-1.45,0-2.16.06s-1.33,0-2,0-1.15-.07-1.72-.12a1.68,1.68,0,0,1-.32-.09l-.08,0a.21.21,0,0,0,0-.06s0,0,0,0,0,0,0,0v-.09a1.36,1.36,0,0,1,.06-.29l.09-.26a.92.92,0,0,0,.08-.27q.12-.22.24-.42a7.53,7.53,0,0,1,1-1.22c.7-.64,1.45-1.18,2.18-1.75h0c-.66.37-1.33.73-2,1.17a8.46,8.46,0,0,0-.83.65,7.08,7.08,0,0,0-.74.8l-.31.44-.09.1-.08.11c-.06.12-.12.24-.17.36a1.72,1.72,0,0,0-.15.67,1.2,1.2,0,0,0,.15.59,1.11,1.11,0,0,0,.47.44,2,2,0,0,0,.47.15l1,.23,1,.15c.74.11,1.47.19,2.22.23l2.25.1c.69,0,1.37,0,2.05,0s1.42,0,2.13,0,1.46-.07,2.19-.12,1.29-.11,1.93-.2,1.43-.18,2.14-.28,1.27-.18,1.89-.3l.11,0,1,.49.48.3.48.29c.64.41,1.27.86,1.9,1.32s1.19.91,1.77,1.38,1.16,1,1.74,1.45,1.33,1,2,1.58c.81.7,1.54,1.5,2.29,2.28.39.41.79.82,1.17,1.23a11.37,11.37,0,0,1,1,1.21,10.24,10.24,0,0,1,.94,1.8c.19.53.36,1.07.52,1.62L182,162c-.8-.89-1.61-1.78-2.45-2.63h0c.81,1.27,1.59,2.58,2.39,3.87.64,1,1.32,2.06,1.92,3.13.09.16.18.31.26.47.17.64.36,1.26.54,1.89s.47,1.56.7,2.33c.34,1.2.67,2.38.94,3.6.14.6.27,1.21.4,1.82,0,.19.07.38.11.58s0,.4.08.61,0,.36.06.52a2,2,0,0,0,0,.26h0c0,.08,0,.16,0,.24s.06.32.1.48a1.59,1.59,0,0,1,.07.2,1.46,1.46,0,0,0,.16.41h0a1,1,0,0,0,.37.42.84.84,0,0,0,1,0,1.22,1.22,0,0,0,.48-1,3.75,3.75,0,0,0-.11-.67C189,178.35,189,178.16,189,178Zm-40.27-30.41h0Zm0,0h0Zm0,0h0l0,.06Z"/><path class="cls-1" d="M210.53,123.52a.57.57,0,0,0-.37-.42.52.52,0,0,0-.18,0,1,1,0,0,0-.24.05l-.15,0-.34.09-.28.08a.81.81,0,0,0-.3.22l0,0c-.23.09-.46.16-.69.24l-.87.34c-.53.2-1.05.43-1.57.65s-1.07.51-1.59.76l-1.6.77-1.39.67-1.69.82c-1,.5-2.05,1-3.09,1.47l-1.78.78c-.47.2-.94.4-1.41.58s-1.09.41-1.64.6l-1.81.58c-1,.32-2.06.61-3.1.89-.59.17-1.19.33-1.79.48s-1,.23-1.56.35l-1.3.27c-1.1.17-2.21.34-3.31.49s-2.24.32-3.37.43-2.26.21-3.39.28-2.15.14-3.22.27l-1.84.21c-.59.07-1.18.17-1.75.28a17.51,17.51,0,0,0-3.19,1c-.24.1-.48.22-.72.34a5.57,5.57,0,0,0-.76.41,5.17,5.17,0,0,0-.71.52,3.3,3.3,0,0,0-.52.6,4.23,4.23,0,0,0-.5,1.05h-.28v0a.16.16,0,0,0,0-.07h0c-.06.07-.05,0-.06.11h0l.2,0,.24,0h0l.17,0h0a3.59,3.59,0,0,1,.72.17c.25.09.49.2.74.27a7.91,7.91,0,0,0,1.59.28,10.43,10.43,0,0,0,1.58,0c.53,0,1.06,0,1.59-.1s1-.09,1.56-.15l.71-.08.72-.1c.52-.06,1-.1,1.56-.11s1,0,1.56,0l1.56,0c.55,0,1.1-.06,1.65-.1s1.09-.11,1.64-.18l.85-.15c.29-.05.57-.1.85-.17,1.14-.27,2.27-.56,3.42-.8l1.52-.32c.53-.13,1.06-.23,1.59-.37l1.79-.49c.55-.15,1.1-.34,1.66-.52l1.46-.53c.55-.2,1.09-.41,1.64-.64,1.09-.45,2.18-.91,3.28-1.39l.75-.35.69-.32c.53-.29,1.09-.55,1.62-.84s1.12-.6,1.67-.91l1.59-.9c1-.58,2-1.16,2.92-1.76.55-.34,1.09-.7,1.63-1.05l1.36-.91c1-.71,2-1.42,3-2.15l.44-.33.15-.12a3.5,3.5,0,0,0,.3-.24,1.28,1.28,0,0,0,.28-.29.62.62,0,0,0,.13-.27A.65.65,0,0,0,210.53,123.52Zm-3.84,2c-.54.38-1.08.75-1.63,1.11s-1,.66-1.49,1l-.73.46-.6.37-1.58.92c-1,.59-2,1.16-3.06,1.71l-1.18.63c-.46.22-.91.47-1.37.68s-1.08.5-1.64.73c-1.08.46-2.16.92-3.24,1.34s-2.22.83-3.34,1.2c-.51.17-1,.33-1.54.47s-1,.3-1.57.43c-1.13.28-2.26.54-3.39.8-.55.13-1.1.28-1.65.42s-1,.3-1.57.42l-1.25.26a28.33,28.33,0,0,1-3.19.38l-1.55.09-1.57.12c-.41,0-.83.07-1.24.13l-1.22.23c-.37.06-.73.11-1.09.19h0c-.44.07-.88.15-1.32.2s-.94.12-1.41.17a10.92,10.92,0,0,1-2.74,0,4.28,4.28,0,0,1-.54-.12c-.21-.06-.42-.12-.63-.16a3.71,3.71,0,0,0-.88,0c.08-.16.17-.31.26-.46a4.48,4.48,0,0,1,.51-.64,4.53,4.53,0,0,1,.86-.59,16.45,16.45,0,0,1,3.71-1.05l.84-.12.31,0a5.67,5.67,0,0,1,.58-.05c.53-.05,1.08-.07,1.61-.09,1.16-.06,2.32-.14,3.47-.21s2.14-.14,3.2-.24l1.85-.19c.5-.05,1-.13,1.49-.21,1.18-.17,2.34-.35,3.52-.54.58-.1,1.17-.2,1.75-.32l1.68-.38c1.06-.24,2.1-.53,3.14-.84l1.75-.53,1.72-.55c1.07-.35,2.13-.77,3.18-1.22s2-.88,3.07-1.37c.6-.28,1.19-.57,1.77-.86l1.36-.68,3.35-1.64c.89-.44,1.77-.88,2.69-1.29l1.12-.48Z"/><path class="cls-1" d="M179.53,127c-.37.17-.73.35-1.1.51s-.76.35-1.15.51l-2.49,1-2.26.92-.74.28h0l0,0-.19.07-.4.15c-.16.07-.33.12-.49.2s0,.06,0,.05h0a2,2,0,0,0-.21.2,1.8,1.8,0,0,0-.18.2,2.25,2.25,0,0,0-.12.21.81.81,0,0,0-.12.29.43.43,0,0,0,0,.25.26.26,0,0,0,.12.2.36.36,0,0,0,.17.07l.17,0,.27,0,.5,0a3,3,0,0,0,.51,0,53.5,53.5,0,0,0,1.13-.24l.58-.15,1.08-.34.53-.17.56-.16c.36-.11.72-.19,1.08-.3s.75-.23,1.13-.33l1.11-.29c.38-.1.76-.18,1.14-.29s.74-.23,1.11-.36.76-.29,1.13-.45c.74-.31,1.48-.65,2.21-1l1.07-.49,1.12-.5c.73-.32,1.46-.64,2.18-1s1.64-.79,2.44-1.21c.15-.07.29-.15.43-.23l.66-.39.5-.33.42-.29q1.09-.78,2.19-1.59c1.36-1,2.7-2,4-3.06.67-.53,1.33-1.06,2-1.58s1.39-1,2.07-1.58c.31-.25.62-.49.92-.75s.63-.54.94-.81l.85-.79c.15-.15.3-.31.44-.47l.31-.33q.12-.13.24-.3a.64.64,0,0,0,.13-.42.41.41,0,0,0-.12-.31.32.32,0,0,0-.25-.12h0a.84.84,0,0,0-.43.14l-.32.16-.55.35c-.33.21-.67.42-1,.62l-2.28,1.29c-.68.39-1.37.76-2.05,1.12s-1.47.8-2.2,1.2-1.63.9-2.44,1.37-1.38.8-2.07,1.2-1.42.81-2.12,1.23l-2.16,1.28-2.14,1.25-1.39.82-1,.57c-1.07.59-2.15,1.15-3.24,1.7C181,126.33,180.25,126.7,179.53,127Zm5.13-1.65,1.09-.57c.15-.08.31-.15.46-.24l.49-.28,2.36-1.34c1.49-.86,3-1.73,4.45-2.58s2.84-1.65,4.27-2.44l2.23-1.25,1.05-.57,1.06-.59c.73-.41,1.47-.82,2.2-1.26l.53-.32s0,0,0,0c-.34.3-.68.58-1,.86l-1,.79-1,.75-1,.76c-.36.26-.69.53-1,.79q-1,.75-2,1.47c-.67.5-1.35,1-2,1.46l-2.06,1.43-.72.49a6.06,6.06,0,0,1-.53.35l-.54.34c-.23.12-.45.26-.68.39-.7.34-1.39.69-2.09,1s-1.52.67-2.28,1c-.38.17-.77.32-1.15.48l-1.08.46-1.1.47-1.12.47-1.1.44-1.16.41c-.35.13-.72.24-1.09.36l-1.09.41c-.36.13-.73.29-1.09.44s-.72.31-1.08.45c-.71.28-1.41.61-2.1.93-.38.18-.76.33-1.15.48a7.93,7.93,0,0,1-1.08.33l-.48,0a4.34,4.34,0,0,1-.51,0l-.18,0h0s0,0,0,0v0l0,0a.28.28,0,0,1,0-.09l.06-.24.14-.33a5.72,5.72,0,0,1,.37-.46l.48-.16.6-.18,1.27-.41,2.37-.78c.34-.1.67-.22,1-.33s.73-.24,1.09-.38l1.29-.47c.2-.08.39-.16.6-.23l.49-.2c.74-.3,1.48-.61,2.19-1S183.81,125.81,184.66,125.39Z"/><path class="cls-1" d="M57.44,106a.82.82,0,0,0,.25.27c.14.3.29.58.44.85s.41.66.62,1,.48.74.73,1.1c.09.15.19.29.28.43.44.7.89,1.38,1.34,2s.93,1.31,1.39,2c.26.38.52.75.79,1.12l1.37,2c.49.72,1,1.41,1.52,2.1a35.9,35.9,0,0,0,2.92,3.56l.83.87c.26.27.55.54.82.8s.27.26.41.39l.38.35.9.77c.66.54,1.33,1.06,2,1.56s1.26.86,1.89,1.28c1.23.8,2.46,1.57,3.71,2.32.63.39,1.29.76,1.93,1.13a16,16,0,0,0,2.08,1l1,.38.89.32c.69.25,1.37.5,2.06.73a13.26,13.26,0,0,0,2,.47c.33.06.66.12,1,.16a2,2,0,0,0,1.24-.1,1.28,1.28,0,0,0,.39-.38,1.46,1.46,0,0,0,.22-.56h0a2.24,2.24,0,0,1-.13.27c0,.07-.11.13-.17.2a1.16,1.16,0,0,1-.21.16l-.22.08a.81.81,0,0,1-.31,0,4.56,4.56,0,0,1-1.14-.36l-1.09-.44-.93-.43c-.29-.15-.58-.33-.86-.49-.62-.37-1.25-.73-1.88-1.07s-1.29-.64-1.92-1-1.2-.76-1.79-1.14c-1.27-.81-2.56-1.57-3.83-2.36-.63-.39-1.25-.8-1.87-1.19s-1.24-.83-1.84-1.27-1-.73-1.47-1.11-1-.85-1.48-1.3-1.1-1-1.63-1.62-1.1-1.14-1.61-1.77l-.79-1,.72.69c.55.53,1.11,1,1.68,1.54l.68.63,1,.82,1,.83.74.59c.58.46,1.16.93,1.76,1.37l2.09,1.54c.27.21.57.38.84.57l1.3.87c.59.39,1.21.75,1.82,1.1l.94.55c.23.14.48.25.72.37.48.25,1,.5,1.44.74l.67.34,2.15.94c.57.25,1.14.47,1.72.68.23.09.45.19.68.26.4.12.8.26,1.2.37l.73.2c.45.11.89.22,1.34.31h0c-.74-.34-1.48-.68-2.2-1.06-.32-.17-.65-.32-1-.5l-1.18-.66c-.65-.34-1.27-.71-1.91-1.07s-1.12-.61-1.67-.93-.94-.54-1.41-.8l-.75-.43c-.74-.43-1.49-.87-2.24-1.29s-1.21-.73-1.81-1.1c-.3-.2-.6-.38-.91-.57s-.52-.37-.78-.55l-1.57-1.08-.53-.4-1-.77c-.36-.27-.72-.54-1.07-.83l-1.48-1.2-1.86-1.65-.64-.6-1.1-1c-.55-.52-1.11-1.06-1.65-1.6-.23-.21-.45-.45-.68-.67s-.55-.54-.81-.82l-1.11-1.22,0,0-1-1.38c-.32-.44-.63-.88-.94-1.33L60.3,108c-.34-.53-.65-1.09-1-1.62-.2-.34-.39-.69-.57-1a2.35,2.35,0,0,0-.14-.37,2.24,2.24,0,0,0-.31-.52h0a.6.6,0,0,0-.45-.21h0a.55.55,0,0,0-.32.12.91.91,0,0,0-.3.51,1.37,1.37,0,0,0,.11.78A2,2,0,0,0,57.44,106Z"/><path class="cls-1" d="M74.55,137.33c.32.18.63.36,1,.53s.65.33,1,.48c.87.4,1.75.72,2.62,1.08l1.82.81c.39.18.78.33,1.17.48a7.87,7.87,0,0,0,1,.36,28.12,28.12,0,0,0,4.13.88l2,.24,1.12.12,1,.07.35,0-.15,0c.64.07,1.28.2,1.92.21a3.62,3.62,0,0,0,.87-.09c.28-.05.54-.15.82-.21l.7-.12a2.65,2.65,0,0,0,.85-.24.59.59,0,0,0,.27-.25.72.72,0,0,0,0-.5.75.75,0,0,0-.1-.2l.15,0h0L97,141l0-.05c-.09-.12-.19-.22-.28-.32a7.51,7.51,0,0,0-.83-.66h0c.19.22.39.43.56.65a.91.91,0,0,0,.13.19c-1.3-.44-2.62-.78-3.93-1.13-.64-.16-1.28-.34-1.92-.53s-1.56-.48-2.33-.72l-2-.65L84,137l-1-.35-1-.33c-.69-.26-1.38-.51-2.07-.79-1.21-.47-2.4-1-3.6-1.45l-1.07-.5-.84-.38-1.28-.66c-.34-.17-.66-.37-1-.54-.62-.34-1.23-.72-1.83-1.09l-2.2-1.34c-1.25-.77-2.5-1.56-3.75-2.34s-2.64-1.66-4-2.5c-1.52-1-3-2-4.48-3.1a1.17,1.17,0,0,0-.2-.34,1.84,1.84,0,0,0-.43-.3l-.31-.2a1.26,1.26,0,0,0-.56-.2h-.11a.65.65,0,0,0-.34.13.8.8,0,0,0-.25.32,1,1,0,0,0,.15,1l.1.11c.27.29.55.56.83.83s.56.55.85.81l1.67,1.61,1.76,1.7c.3.3.61.57.92.85s.59.52.88.78a39.7,39.7,0,0,0,3.63,2.78c.69.47,1.38.92,2.09,1.36s1.35.78,2,1.16,1.27.68,1.9,1,1.33.76,2,1.16S73.9,137,74.55,137.33ZM69.3,132.8c-.64-.34-1.28-.68-1.91-1.06s-1.32-.82-2-1.25-1.17-.79-1.73-1.21c-.28-.2-.56-.4-.82-.61s-.59-.48-.89-.72l-1-.82c-.3-.26-.58-.53-.86-.8l-.1-.08c.92.56,1.86,1.1,2.8,1.65,1.33.78,2.68,1.56,4,2.35s2.67,1.59,4,2.35c.65.36,1.3.72,1.94,1l1.3.64c.29.15.6.27.9.41s.73.34,1.11.49l1.17.47,2.2.88c.71.29,1.43.55,2.14.83l2.1.75c1.4.5,2.83.9,4.25,1.29.66.18,1.32.34,2,.5l1,.21c.4.08.79.16,1.19.22l2.23.3c.72.1,1.43.19,2.15.31a1.25,1.25,0,0,1,.15.28l0,.09s0,.08,0,.12a1,1,0,0,1-.18.07,4.47,4.47,0,0,1-.82,0h-.42c-.45,0-.89.1-1.34.07a4.46,4.46,0,0,1-.88-.19l-1-.3c-.35-.1-.69-.16-1-.23l-1-.22c-.66-.14-1.31-.27-2-.39s-1.34-.26-2-.4c-.84-.17-1.66-.34-2.48-.55a9,9,0,0,1-1.14-.38c-.43-.15-.85-.32-1.27-.49l.19.07c-.72-.3-1.44-.61-2.18-.87s-1.43-.51-2.13-.8c-.29-.12-.59-.25-.89-.4s-.64-.33-1-.51c-.66-.34-1.31-.67-2-1l-2-1.12C70.57,133.46,69.93,133.14,69.3,132.8Z"/><path class="cls-1" d="M120.68,156.11c.81,0,1.6.1,2.4.13s1.76.08,2.63.07l2.43,0c.82,0,1.64-.06,2.46-.11.42,0,.84-.07,1.26-.11l1.14-.11c.77-.1,1.54-.2,2.31-.35s1.58-.32,2.37-.53a18.82,18.82,0,0,0,2.37-.79c.81-.36,1.62-.75,2.4-1.16.42-.22.83-.45,1.24-.68s.89-.46,1.34-.68h0c-.46.12-.9.25-1.35.39l-1.2.42c-.72.22-1.45.43-2.19.6a19.72,19.72,0,0,1-2.3.39c-1.58.2-3.17.32-4.75.44l-2.76.22c-.88.07-1.77.08-2.65.09H128l-2.44,0c-.79,0-1.58-.08-2.36-.14s-1.61-.13-2.41-.21-1.7-.16-2.55-.28l-2.22-.31c-.83-.11-1.66-.22-2.49-.3a23.49,23.49,0,0,0-2.37-.11h-.52a.64.64,0,0,0-.24,0c-.64,0-1.27,0-1.9,0-.4,0-.79.06-1.19.11a7,7,0,0,0-1.17.25,8.87,8.87,0,0,0-1.26.42c-.38.15-.76.3-1.14.49s-.87.4-1.3.64a11.9,11.9,0,0,0-2.81,2.23,14.16,14.16,0,0,0-2.12,3c-.37.69-.68,1.4-1,2.13-.18.41-.33.83-.5,1.25-.06.17-.11.35-.16.52s-.18.52-.26.78-.16.56-.25.85c-.15.48-.29,1-.44,1.46-.2.7-.4,1.4-.61,2.11-.42,1.43-.82,2.88-1.23,4.31h0c.69-1.63,1.39-3.26,2.08-4.9.31-.76.63-1.51.93-2.26.16-.37.29-.75.45-1.1s.35-.76.52-1.13a28.61,28.61,0,0,1,3-4.87,11.67,11.67,0,0,1,2-1.82,8,8,0,0,1,1.41-.76l.85-.35c.47-.17.94-.35,1.42-.51l.45-.12c.19-.06.38-.09.58-.14a11.24,11.24,0,0,1,1.15-.13c.39,0,.79,0,1.18,0h2c.83,0,1.66,0,2.48.1s1.53.13,2.29.21l2.44.24C119.11,156,119.9,156.06,120.68,156.11Z"/><path class="cls-1" d="M160.2,168.68c-.06-.45-.16-.91-.25-1.35s-.25-1-.4-1.55-.24-.78-.36-1.16c-.22-.64-.44-1.27-.68-1.89s-.5-1.21-.79-1.79a13.22,13.22,0,0,0-1-1.66,12.5,12.5,0,0,0-2.54-2.73,13.87,13.87,0,0,0-1.75-1.1c-.18-.1-.38-.19-.56-.27l-.53-.24a7,7,0,0,0-.68-.24l-.53-.17c-.77-.22-1.54-.4-2.32-.56-.41-.08-.82-.12-1.22-.16a8.06,8.06,0,0,0-.85,0h-.47a9.88,9.88,0,0,0-1.08.11c-.37,0-.75.11-1.12.19-.79.17-1.57.42-2.35.66-.46.15-.92.33-1.39.51s-.91.34-1.37.5L137,156a11,11,0,0,1-1.14.24,18.35,18.35,0,0,1-2.23.27l-2.31.16c-.72,0-1.45.09-2.17.17s-1.58.17-2.36.26-1.51.19-2.26.24-1.55.09-2.32.11-1.47,0-2.21,0h-1.86c-.26,0-.52,0-.78,0s-.7.06-1.06.09h0c.42,0,.83,0,1.24.09s.74.09,1.1.14c.77.09,1.52.19,2.29.26a35.9,35.9,0,0,0,4.75.24c1.51-.05,3-.15,4.52-.19.79,0,1.58-.06,2.36-.07s1.46,0,2.2-.06a13.22,13.22,0,0,0,1.4-.12,9.44,9.44,0,0,0,1.37-.26c.48-.11,1-.23,1.44-.38l1.35-.44c.41-.13.83-.23,1.24-.35s.92-.24,1.38-.33,1-.16,1.44-.22a9.36,9.36,0,0,1,1.3-.07,15.57,15.57,0,0,1,2,.25c.69.15,1.36.33,2,.53l.57.2c.26.1.5.22.76.34a13.19,13.19,0,0,1,1.49.85,10.69,10.69,0,0,1,1.87,1.7,13.59,13.59,0,0,1,1.67,2.56c.43.91.79,1.87,1.14,2.84.2.56.4,1.12.58,1.68l.3.9c0,.1,0,.21.09.32s.11.4.17.6c.14.5.25,1,.38,1.5s.15.79.2,1.19.1,1.07.13,1.6.06,1,.07,1.53c0,.91,0,1.81.08,2.72,0,.69,0,1.38.06,2.07s.07,1.49.07,2.24h0c.16-.94.27-1.88.39-2.82s.23-1.89.34-2.83c.06-.55.11-1.12.17-1.68,0-.36.05-.7.08-1.06,0-.71.05-1.42,0-2.13A18.47,18.47,0,0,0,160.2,168.68Z"/></g></svg>