<svg xmlns="http://www.w3.org/2000/svg" viewBox="0 0 153.51 163.32"><defs><style>.cls-1{fill:#fff;}</style></defs><title>2413150</title><g id="OBJECTS"><path class="cls-1" d="M133.77,98.42c-6.91-10.84-21.41-10.47-31.42-4.57a31.47,31.47,0,0,0-4.45,3.22V60a15.65,15.65,0,0,0-4.63-11.15l-.08-.08c-.35-.34-.71-.68-1.07-1a13.48,13.48,0,0,0-1.25-.93l-.06-.05c-.4-.25-.79-.49-1.2-.71a12,12,0,0,0-1.45-.68l-.61-.25-.87-.28c-.47-.14-1-.27-1.46-.37-1-.18-11.62,0-12.65,0h0a10.12,10.12,0,0,0-1.1,0,12.94,12.94,0,0,0-1.41.15,15.74,15.74,0,0,0-6.94,3,15.78,15.78,0,0,0-28.33,9.56,4.67,4.67,0,0,0,1.4,3.37,4.75,4.75,0,0,0,8.13-3.37A6.27,6.27,0,0,1,50.52,51a6.27,6.27,0,0,1,6.25,6.25l0,44.08a4.65,4.65,0,0,0,1.4,3.37,4.75,4.75,0,0,0,3.31,1.39h.06a4.75,4.75,0,0,0,4.73-4.18l0-41.59A6.28,6.28,0,0,1,72.51,54a4.89,4.89,0,0,1,.66.05c1,.1,11.56.16,12.4.73a6.82,6.82,0,0,1,.94.78A6.27,6.27,0,0,1,88.36,60V107c-8.28,9.47-16.7,19.24-29.32,16.86-5.57-1.06-7.27,7.61-1.7,8.66,13.76,2.6,23.22-4.94,31.75-13.91.79,2,6.48,8.21,9.91,10.21C117.34,138.47,147.31,119.66,133.77,98.42ZM113.39,123a14.9,14.9,0,0,1-11.82-3.06,15.18,15.18,0,0,1-1.21-1.07,4.37,4.37,0,0,1-.61-.53,6.54,6.54,0,0,1-1.08-1.44l0,0v0a9.65,9.65,0,0,1-1-6h0a5.15,5.15,0,0,1,1.67-3.06c8-7.1,26.12-16.84,28.52-.18C129,115.56,120.45,121.91,113.39,123Z"/></g></svg>