<svg xmlns="http://www.w3.org/2000/svg" xmlns:xlink="http://www.w3.org/1999/xlink" viewBox="0 0 251.17 251.17"><defs><style>.cls-1{isolation:isolate;}.cls-10,.cls-2,.cls-3,.cls-4,.cls-5,.cls-6,.cls-7,.cls-8,.cls-9{mix-blend-mode:screen;}.cls-2{fill:url(#radial-gradient);}.cls-3{fill:url(#radial-gradient-2);}.cls-4{fill:url(#radial-gradient-3);}.cls-5{fill:url(#radial-gradient-4);}.cls-6{fill:url(#radial-gradient-5);}.cls-7{fill:url(#radial-gradient-6);}.cls-8{fill:url(#radial-gradient-7);}.cls-9{fill:url(#radial-gradient-8);}.cls-10{fill:url(#radial-gradient-9);}.cls-11{fill:#def9ff;}</style><radialGradient id="radial-gradient" cx="139.73" cy="34.64" r="5.44" gradientUnits="userSpaceOnUse"><stop offset="0" stop-color="#f1f2ce"/><stop offset="1"/></radialGradient><radialGradient id="radial-gradient-2" cx="121.42" cy="36.87" r="5.44" xlink:href="#radial-gradient"/><radialGradient id="radial-gradient-3" cx="118.83" cy="75.87" r="5.44" xlink:href="#radial-gradient"/><radialGradient id="radial-gradient-4" cx="134.05" cy="91.74" r="5.44" xlink:href="#radial-gradient"/><radialGradient id="radial-gradient-5" cx="158.13" cy="87" r="5.44" xlink:href="#radial-gradient"/><radialGradient id="radial-gradient-6" cx="180.01" cy="106.48" r="5.44" xlink:href="#radial-gradient"/><radialGradient id="radial-gradient-7" cx="82.8" cy="150.71" r="5.44" xlink:href="#radial-gradient"/><radialGradient id="radial-gradient-8" cx="104.46" cy="174.25" r="5.44" xlink:href="#radial-gradient"/><radialGradient id="radial-gradient-9" cx="77.62" cy="205.32" r="5.44" xlink:href="#radial-gradient"/></defs><title>2445646</title><g class="cls-1"><g id="OBJECTS"><path class="cls-2" d="M145.16,34.64a5.44,5.44,0,1,1-5.43-5.43A5.43,5.43,0,0,1,145.16,34.64Z"/><circle class="cls-3" cx="121.42" cy="36.87" r="5.44"/><path class="cls-4" d="M124.26,75.87a5.44,5.44,0,1,1-5.43-5.44A5.43,5.43,0,0,1,124.26,75.87Z"/><path class="cls-5" d="M139.48,91.74a5.44,5.44,0,1,1-5.43-5.43A5.43,5.43,0,0,1,139.48,91.74Z"/><path class="cls-6" d="M163.56,87a5.44,5.44,0,1,1-5.43-5.44A5.44,5.44,0,0,1,163.56,87Z"/><path class="cls-7" d="M185.44,106.48a5.44,5.44,0,1,1-5.43-5.43A5.43,5.43,0,0,1,185.44,106.48Z"/><path class="cls-8" d="M88.24,150.71a5.44,5.44,0,1,1-5.44-5.43A5.43,5.43,0,0,1,88.24,150.71Z"/><path class="cls-9" d="M109.9,174.25a5.44,5.44,0,1,1-5.44-5.44A5.43,5.43,0,0,1,109.9,174.25Z"/><path class="cls-10" d="M83.06,205.32a5.44,5.44,0,1,1-5.44-5.43A5.43,5.43,0,0,1,83.06,205.32Z"/><path class="cls-11" d="M80.21,205.32a2.59,2.59,0,1,1-2.59-2.59A2.59,2.59,0,0,1,80.21,205.32Z"/><path class="cls-11" d="M85.4,150.73a2.6,2.6,0,1,1-2.6-2.59A2.59,2.59,0,0,1,85.4,150.73Z"/><path class="cls-11" d="M106.89,174.09a2.59,2.59,0,1,1-2.59-2.59A2.59,2.59,0,0,1,106.89,174.09Z"/><path class="cls-11" d="M182.45,106.32a2.59,2.59,0,1,1-2.59-2.59A2.59,2.59,0,0,1,182.45,106.32Z"/><path class="cls-11" d="M160.68,87.16a2.59,2.59,0,1,1-2.59-2.59A2.59,2.59,0,0,1,160.68,87.16Z"/><path class="cls-11" d="M136.48,91.6A2.6,2.6,0,1,1,133.89,89,2.59,2.59,0,0,1,136.48,91.6Z"/><path class="cls-11" d="M121.42,75.87a2.59,2.59,0,1,1-2.59-2.6A2.59,2.59,0,0,1,121.42,75.87Z"/><path class="cls-11" d="M124,36.87a2.59,2.59,0,1,1-2.59-2.59A2.59,2.59,0,0,1,124,36.87Z"/><path class="cls-11" d="M142.29,34.86a2.59,2.59,0,1,1-2.59-2.59A2.59,2.59,0,0,1,142.29,34.86Z"/><rect class="cls-11" x="70.42" y="189.49" width="41.08" height="0.43" transform="translate(-112.4 135.8) rotate(-49.54)"/><polygon class="cls-11" points="77.84 205.34 77.41 205.3 82.59 150.71 83.02 150.75 77.84 205.34"/><rect class="cls-11" x="69.27" y="120.95" width="78.14" height="0.43" transform="translate(-54.17 123.97) rotate(-49.19)"/><rect class="cls-11" x="133.68" y="89.16" width="24.6" height="0.43" transform="translate(-13.7 27.72) rotate(-10.36)"/><rect class="cls-11" x="168.76" y="82.24" width="0.43" height="29.01" transform="translate(-15.28 159.68) rotate(-48.65)"/><rect class="cls-11" x="91.33" y="139.99" width="101.5" height="0.43" transform="translate(-57.3 130.68) rotate(-41.88)"/><rect class="cls-11" x="126.14" y="72.84" width="0.43" height="21.78" transform="translate(-22.82 110.62) rotate(-43.75)"/><rect class="cls-11" x="100.58" y="56.16" width="39.08" height="0.43" transform="matrix(0.07, -1, 1, 0.07, 56.01, 172.55)"/><rect class="cls-11" x="121.36" y="35.65" width="18.4" height="0.43" transform="translate(-3.14 14.5) rotate(-6.28)"/></g></g></svg>