<svg xmlns="http://www.w3.org/2000/svg" xmlns:xlink="http://www.w3.org/1999/xlink" viewBox="0 0 251.17 251.17"><defs><style>.cls-1{isolation:isolate;}.cls-2,.cls-3,.cls-4,.cls-5,.cls-6,.cls-7{mix-blend-mode:screen;}.cls-2{fill:url(#radial-gradient);}.cls-3{fill:url(#radial-gradient-2);}.cls-4{fill:url(#radial-gradient-3);}.cls-5{fill:url(#radial-gradient-4);}.cls-6{fill:url(#radial-gradient-5);}.cls-7{fill:url(#radial-gradient-6);}.cls-8{fill:#def9ff;}</style><radialGradient id="radial-gradient" cx="78.74" cy="122.11" r="7.03" gradientUnits="userSpaceOnUse"><stop offset="0" stop-color="#f1f2ce"/><stop offset="1"/></radialGradient><radialGradient id="radial-gradient-2" cx="110.39" cy="103.24" r="7.03" xlink:href="#radial-gradient"/><radialGradient id="radial-gradient-3" cx="125.52" cy="59.5" r="7.03" xlink:href="#radial-gradient"/><radialGradient id="radial-gradient-4" cx="174.91" cy="93.2" r="7.03" xlink:href="#radial-gradient"/><radialGradient id="radial-gradient-5" cx="164.58" cy="159.72" r="7.03" xlink:href="#radial-gradient"/><radialGradient id="radial-gradient-6" cx="128.81" cy="181.41" r="7.03" xlink:href="#radial-gradient"/></defs><title>2445646</title><g class="cls-1"><g id="OBJECTS"><path class="cls-2" d="M85.77,122.11a7,7,0,1,1-7-7A7,7,0,0,1,85.77,122.11Z"/><circle class="cls-3" cx="110.39" cy="103.24" r="7.03"/><path class="cls-4" d="M132.55,59.5a7,7,0,1,1-7-7A7,7,0,0,1,132.55,59.5Z"/><path class="cls-5" d="M181.94,93.2a7,7,0,1,1-7-7A7,7,0,0,1,181.94,93.2Z"/><path class="cls-6" d="M171.61,159.72a7,7,0,1,1-7-7A7,7,0,0,1,171.61,159.72Z"/><path class="cls-7" d="M135.84,181.41a7,7,0,1,1-7-7A7,7,0,0,1,135.84,181.41Z"/><path class="cls-8" d="M132.22,181.41a3.35,3.35,0,1,1-3.35-3.35A3.35,3.35,0,0,1,132.22,181.41Z"/><path class="cls-8" d="M168,159.67a3.35,3.35,0,1,1-3.35-3.35A3.35,3.35,0,0,1,168,159.67Z"/><path class="cls-8" d="M178.26,93.24a3.36,3.36,0,1,1-3.35-3.35A3.35,3.35,0,0,1,178.26,93.24Z"/><path class="cls-8" d="M128.87,59.5a3.35,3.35,0,1,1-3.35-3.35A3.36,3.36,0,0,1,128.87,59.5Z"/><path class="cls-8" d="M113.74,103.15a3.35,3.35,0,1,1-3.35-3.35A3.35,3.35,0,0,1,113.74,103.15Z"/><path class="cls-8" d="M82.09,122.11a3.35,3.35,0,1,1-3.35-3.35A3.35,3.35,0,0,1,82.09,122.11Z"/><rect class="cls-8" x="76.12" y="112.36" width="36.89" height="0.55" transform="translate(-44.46 64.67) rotate(-30.95)"/><rect class="cls-8" x="94.85" y="81.05" width="46.2" height="0.55" transform="translate(2.51 166.18) rotate(-70.9)"/><rect class="cls-8" x="149.93" y="46.47" width="0.55" height="59.81" transform="translate(2.42 157.33) rotate(-55.66)"/><rect class="cls-8" x="136.19" y="126.18" width="67.21" height="0.55" transform="translate(18.97 275.03) rotate(-81.24)"/><rect class="cls-8" x="125.83" y="170.27" width="41.9" height="0.55" transform="translate(-67.14 100.77) rotate(-31.22)"/></g></g></svg>