<svg xmlns="http://www.w3.org/2000/svg" viewBox="0 0 251.17 251.17"><defs><style>.cls-1{fill:#fefefe;}</style></defs><title>2445646</title><g id="OBJECTS"><path class="cls-1" d="M106.78,157.45l-.07,0h0Z"/><path class="cls-1" d="M185.78,133.88a1.76,1.76,0,0,1-.54.09c-2,.57-4.05,1.36-6.06,2-4.22,1.36-10.1,3.29-16,5.07,0-.22-.07-.45-.11-.68-.36-2.48-.55-5-.91-7.46s-.86-5-1.42-7.48c-.29-1.26-.61-2.5-.91-3.75s-.55-2.3-.84-3.46c-.62-2.52-1.32-5-2-7.49s-1.48-5-2.09-7.48c-.33-1.34-.67-2.68-1-4,1-.25,1.9-.53,2.83-.86,1.34-.47,2.66-1,4-1.48a29.88,29.88,0,0,0,3.12-1.51,16.39,16.39,0,0,0,1.8-1.18,8,8,0,0,0,2.52-3.45,12.88,12.88,0,0,0,.62-2.18,15.3,15.3,0,0,0,0-2l-.26-.11-.36.79a12.37,12.37,0,0,1-1.56,2.86,9.51,9.51,0,0,1-1.33,1.36,8.42,8.42,0,0,1-1.4.72,69.41,69.41,0,0,1-7.15,1.69c-2.39.51-4.78,1-7.18,1.51a36.88,36.88,0,0,1-4.45.74,14.1,14.1,0,0,1-1.72,0,14.66,14.66,0,0,1-1.75-.21,9.15,9.15,0,0,1-1.38-.41l-.48-.33a8.68,8.68,0,0,1-.85-1,10.09,10.09,0,0,1-.67-1.36c-.35-1.11-.57-2.24-.81-3.37-.12-.56-.22-1.12-.37-1.66-.08-.25-.15-.5-.23-.74a7.63,7.63,0,0,0-.56-1.56,2.8,2.8,0,0,0-1.7-1.41,5.71,5.71,0,0,0-1.22-.23,4,4,0,0,0-.78,0,10.72,10.72,0,0,0-1.44.34,31.39,31.39,0,0,1-3.58.81c-2.32.32-4.65.55-7,.83l-.66.08a18.67,18.67,0,0,0-.56-3.16c-.32-1.24-.69-2.45-1.11-3.66s-.88-2.51-1.42-3.72c-.43-.93-.87-1.83-1.34-2.73-.37-.7-.75-1.4-1.09-2.1-.23-.47-.46-.92-.7-1.39s-.41-.87-.62-1.3-.42-.94-.63-1.41c-.26-.87-.54-1.75-.87-2.6-.14-.39-.32-.77-.49-1.15l-.21-.61h1v.17c0-.52-1.5-.14-1.76-.65l-1,.88h0a9.07,9.07,0,0,1,.9,3c0,.75.34,1.06.39,1.8.08,1.29.31,2.36.43,3.66s.31,2.34.51,3.55.47,2.26.74,3.4,0,2.47.31,3.72c0,0-.59,0-.59.08a.22.22,0,0,0,0-.08c0,.16.65.32.67.47s.39.32.44.48c.09.31.34.61.43.93.2.62.53,1.23.79,1.84h0c.07-.64.16-1.28.24-1.91,0-.3.08-.6.12-.89a3.54,3.54,0,0,0,0-.65c0-.13,0-.25,0-.37a31.56,31.56,0,0,0,0-3.64q-.06-.94-.15-1.89c.14.33.27.66.4,1,.47,1.23,1,2.44,1.53,3.65s1.19,2.61,1.67,3.94c.17.5.33,1,.47,1.49-.48.08-1,.15-1.44.25-1.18.25-2.36.54-3.55.77s-2.31.39-3.46.59l-.51.11c.24-2.22.37-4.44.39-6.68,0-1.2,0-2.4,0-3.6s-.11-2.31-.16-3.46c-.11-1.93-.27-3.86-.45-5.78-.08-.88-.16-1.76-.23-2.64s-.07-2.13-.23-3.13l.15-.11h0a26.15,26.15,0,0,0-.6,3.94c-.12,1.18-.25,2.42-.28,3.61s-.11,2.38-.09,3.56.06,2.43.17,3.64c.17,1.88.39,3.76.63,5.64.21,1.67.42,3.35.58,5l-2.91.56c-1.19.24-2.39.46-3.59.66s-2.37.39-3.53.68c-.59.15-1.18.31-1.76.49l-.81.28-1,.36a5,5,0,0,0-1.18.68,6.12,6.12,0,0,0-1.88,2.93L92,95.91a14,14,0,0,1-1.39,2,15.73,15.73,0,0,1-2.37,1.93,8.08,8.08,0,0,1-.9.52l-.59.25a13.51,13.51,0,0,1-1.89.4c-.62.1-1.24.19-1.85.25-.86,0-1.73,0-2.59,0a18,18,0,0,1-2.54-.17c-.67-.16-1.32-.38-2-.57a15.79,15.79,0,0,1-2.22-.78,6.07,6.07,0,0,1-.93-.59l-1-.79a10,10,0,0,1-.92-.92c-.13-.14-.25-.29-.36-.43s-.35-.37-.51-.58c-.6-.79-1.25-1.55-1.92-2.27,0,0,0,0,0,0,.34.81.66,1.64,1,2.47a3.11,3.11,0,0,1,.21.78,2.47,2.47,0,0,0,.11.36c.06.17.12.35.19.52a10.45,10.45,0,0,0,.74,1.64,13,13,0,0,0,1,1.67,9.5,9.5,0,0,0,1.52,1.52c.22.18.44.37.67.54s.5.36.75.53c.49.34,1,.66,1.49,1a9.85,9.85,0,0,0,2,.87,21.53,21.53,0,0,0,2.22.5c.55.1,1.1.18,1.65.26l.7.09c-.07.57-.16,1.12-.23,1.69-.2,1.37-.48,2.73-.72,4.09l-.87,4.55c-.08.38-.15.75-.22,1.14,0-.09,0-.17,0-.25-.09.45-.17.89-.26,1.33s-.17.84-.25,1.25a2.16,2.16,0,0,1-.05.27c0-.07,0-.13,0-.19l-.45,2.3.06-.29c-.5,2.5-.89,5-1.34,7.53s-.91,5-1.29,7.46c-.2,1.35-.37,2.7-.54,4.07-.15,1.21-.28,2.41-.37,3.63-.17,2.54-.22,5.08-.2,7.62,0,.95,0,1.89,0,2.83,0,.23,0,.45,0,.68s-.06.44-.06.66a12.79,12.79,0,0,1,0,1.64s-.87,2.28-.88,2.28-.9,1.57-.92,1.56h0a12.67,12.67,0,0,1,.91-1.59c0,.06.51-1,.54-1A5.92,5.92,0,0,0,75.7,159c.06-.19.23-.66.28-.86a8.44,8.44,0,0,0,.28-1.23c.53-2.4.85-4.91,1.2-7.34.2-1.33.4-2.7.6-4s.4-2.42.6-3.63c.42-2.51.75-5,1.18-7.55s.81-5.07,1.18-7.61a146.25,146.25,0,0,0,1.63-15c.06-1.17.13-2.33.12-3.5,0-.42,0-.85,0-1.27l.56,0h.28c.07.43.13.85.19,1.27.1.64.2,1.26.29,1.9.2,1.24.41,2.48.6,3.73.11.69.24,1.38.33,2.07s.2,1.47.31,2.2c.17,1.22.36,2.43.56,3.64s.39,2.44.6,3.65c.45,2.63.93,5.25,1.41,7.87s1,5,1.64,7.5a77.82,77.82,0,0,0,2.42,7.49c.38,1,.77,2.09,1.15,3.13.22.63.44,1.26.67,1.88,0,.15.1.3.16.46l.3.88c.09.29.19.58.26.87-1.13.33-2.27.66-3.41,1-9,2.44-18.44,5.09-27.85,5.47a2.46,2.46,0,0,0-2.28,1.69.73.73,0,0,0-.47.7c-.12,6.11,5.91,11.2,10.5,14.29,6.14,4.13,13.51,5.33,20.75,4.33,13.26-1.83,25.62-15.5,24.26-29.17,1.16-1.66-.17-4.54-2.52-3.88-6.19,1.74-12.33,3.7-18.51,5.47,0-.25,0-.51,0-.76A15.14,15.14,0,0,0,95,153c0-1.33-.11-2.66-.24-4-.25-2.47-.71-4.91-1.15-7.34s-1-4.89-1.59-7.3c-.67-2.61-1.28-5.24-1.93-7.85-.61-2.46-1.11-4.94-1.69-7.39-.14-.58-.29-1.17-.44-1.75s-.32-1.31-.51-2c-.4-1.36-.82-2.71-1.25-4.06s-.94-2.94-1.42-4.4v0l1.1-.1a11.39,11.39,0,0,0,1.65-.29,15.27,15.27,0,0,0,2.33-.81,9.18,9.18,0,0,0,1.52-.87,16.53,16.53,0,0,0,3.27-2.55,20.8,20.8,0,0,0,1.58-1.91,12.7,12.7,0,0,0,1.14-2.12c.22-.53.42-1.07.61-1.61.1-.27.19-.55.28-.83,0-.1.05-.2.08-.29a8.09,8.09,0,0,1,.81-.33A53.61,53.61,0,0,1,106,93.71c1.25-.22,2.48-.49,3.72-.71l3.44-.55c1.21-.2,2.44-.4,3.65-.66,1-.22,2-.42,3.08-.55l.5-.07c1.14-.13,2.3-.22,3.44-.37s2.3-.27,3.45-.37a20.12,20.12,0,0,0,4-.73c.28-.09.57-.15.85-.23s.54-.16.81-.26c.15.62.26,1.25.37,1.88s.24,1.26.37,1.87a15.66,15.66,0,0,0,.68,2.21,7.49,7.49,0,0,0,.75,1.43,8.71,8.71,0,0,0,1.45,1.74A7,7,0,0,0,138,99.43a9,9,0,0,0,1.58.64,16.54,16.54,0,0,0,2.42.52,15.1,15.1,0,0,0,3.49.13,25.73,25.73,0,0,0,4.1-.55c1-.2,2.06-.43,3.09-.67-.07.4-.15.8-.2,1.2-.07.62-.13,1.23-.18,1.85-.08,1.06-.1,2.13-.13,3.2,0,1.23-.09,2.45-.14,3.68s0,2.18-.07,3.28-.08,2.41-.13,3.62c-.11,2.31-.25,4.63-.41,6.94s-.36,4.66-.52,7c-.09,1.18-.15,2.37-.2,3.56s0,2.19,0,3.29c0,1.83.05,3.67.07,5.5,0,.47,0,.93,0,1.4,0,.14-.27,1.09-.26,1.23-2.43.56-5,2.51-6.49,1.92h0c-4.49,1.12-8,.38-12.16.55-.08,0,0-.48-.09-.48s-.22-.2-.36-.17a2.38,2.38,0,0,0-1.72,1.54.68.68,0,0,0-.48.69c-.13,6.45,6.24,11.8,11.1,15.07,6.49,4.36,14.29,5.61,21.93,4.56,14-1.94,27.08-16.4,25.65-30.84C189,136.45,187.91,133.74,185.78,133.88ZM113.8,155a2,2,0,0,0,.41-.07c.67,11.92-9.8,23.21-21,25.89a27.82,27.82,0,0,1-19.4-2.63c-4.15-2.19-9.63-6.47-11.24-11.4a2,2,0,0,0,.43,0c9.52-.32,18.7-3,27.91-5.25C98.57,159.68,106.31,157.37,113.8,155Zm38.43-13.66c.11-1.17.19-2.33.25-3.5s.08-2.27.14-3.4.16-2.38.22-3.57.1-2.2.15-3.3c.11-2.37.2-4.74.3-7.11s.16-4.62.12-6.93c0-1.16-.06-2.32-.11-3.48s0-2.27-.09-3.4c-.07-1.63-.16-3.26-.15-4.89,0,.6.09,1.2.13,1.79.22,2.58.71,5.13,1.17,7.67.23,1.26.48,2.52.75,3.79s.58,2.48.87,3.74.52,2.33.77,3.5.56,2.49.81,3.75.52,2.51.82,3.77.59,2.44.88,3.66a70.13,70.13,0,0,0,2.07,7.41c.08.23.17.46.26.69-3.38,1-6.71,1.93-9.67,2.65C152,143.2,152.14,142.25,152.23,141.31Zm11.63,25.32a29.42,29.42,0,0,1-20.51-2.79c-4.38-2.3-10.17-6.83-11.87-12,.14,0,.28,0,.44,0,10.07-.35,19.78-3.2,29.5-5.56,8.08-2,16.26-4.4,24.18-6.94a2.14,2.14,0,0,0,.43-.07C186.73,151.86,175.67,163.8,163.86,166.63Z"/></g></svg>