<svg xmlns="http://www.w3.org/2000/svg" viewBox="0 0 153.51 163.32"><defs><style>.cls-1{fill:#fff;}</style></defs><title>2413150</title><g id="OBJECTS"><path class="cls-1" d="M101.86,77.81l11.72.16a4.72,4.72,0,0,1,3.35,1.44,4.76,4.76,0,0,1-.09,6.75,5.1,5.1,0,0,1-3.4,1.34l-11.58-.16c1.79,30,20.26,40.05,21,40.47a4.76,4.76,0,0,1,2,6.41,4.81,4.81,0,0,1-4.22,2.59h-.07a4.71,4.71,0,0,1-2.09-.52C116,135,94.11,122.47,92.3,87.2l-19.52-.29C70.78,125,45.71,135,44.64,135.39a5,5,0,0,1-1.75.31,4.75,4.75,0,0,1-4.41-3.1,4.81,4.81,0,0,1,2.77-6.13c.82-.31,20.18-8.32,22-39.7l-13.94-.19A4.67,4.67,0,0,1,46,85.13,4.74,4.74,0,0,1,46,78.39a4.84,4.84,0,0,1,3.39-1.34l13.78.21C61.42,47.09,43,37.18,42.17,36.77a4.77,4.77,0,0,1,4.38-8.48C49.05,29.62,71,42.11,72.78,77.38l19.53.29c2-38.21,27.07-48.08,28.14-48.48a4.77,4.77,0,0,1,3.37,8.92C123,38.42,103.65,46.27,101.86,77.81Z"/></g></svg>