<svg xmlns="http://www.w3.org/2000/svg" xmlns:xlink="http://www.w3.org/1999/xlink" viewBox="0 0 251.17 251.17"><defs><style>.cls-1{isolation:isolate;}.cls-10,.cls-11,.cls-12,.cls-13,.cls-14,.cls-15,.cls-16,.cls-2,.cls-3,.cls-4,.cls-5,.cls-6,.cls-7,.cls-8,.cls-9{mix-blend-mode:screen;}.cls-2{fill:url(#radial-gradient);}.cls-3{fill:url(#radial-gradient-2);}.cls-4{fill:url(#radial-gradient-3);}.cls-5{fill:url(#radial-gradient-4);}.cls-6{fill:url(#radial-gradient-5);}.cls-7{fill:url(#radial-gradient-6);}.cls-8{fill:url(#radial-gradient-7);}.cls-9{fill:url(#radial-gradient-8);}.cls-10{fill:url(#radial-gradient-9);}.cls-11{fill:url(#radial-gradient-10);}.cls-12{fill:url(#radial-gradient-11);}.cls-13{fill:url(#radial-gradient-12);}.cls-14{fill:url(#radial-gradient-13);}.cls-15{fill:url(#radial-gradient-14);}.cls-16{fill:url(#radial-gradient-15);}.cls-17{fill:#def9ff;}</style><radialGradient id="radial-gradient" cx="215.42" cy="101.78" r="5.51" gradientUnits="userSpaceOnUse"><stop offset="0" stop-color="#f1f2ce"/><stop offset="1"/></radialGradient><radialGradient id="radial-gradient-2" cx="102.85" cy="208.49" r="5.51" xlink:href="#radial-gradient"/><radialGradient id="radial-gradient-3" cx="97.7" cy="188.6" r="5.51" xlink:href="#radial-gradient"/><radialGradient id="radial-gradient-4" cx="73.08" cy="201.47" r="5.51" xlink:href="#radial-gradient"/><radialGradient id="radial-gradient-5" cx="32.85" cy="134.51" r="5.51" xlink:href="#radial-gradient"/><radialGradient id="radial-gradient-6" cx="60.95" cy="105.39" r="5.51" xlink:href="#radial-gradient"/><radialGradient id="radial-gradient-7" cx="108.6" cy="126.75" r="5.51" xlink:href="#radial-gradient"/><radialGradient id="radial-gradient-8" cx="115.62" cy="104.34" r="5.51" xlink:href="#radial-gradient"/><radialGradient id="radial-gradient-9" cx="97.6" cy="77.35" r="5.51" xlink:href="#radial-gradient"/><radialGradient id="radial-gradient-10" cx="63.49" cy="62.86" r="5.51" xlink:href="#radial-gradient"/><radialGradient id="radial-gradient-11" cx="151.93" cy="97.95" r="5.51" xlink:href="#radial-gradient"/><radialGradient id="radial-gradient-12" cx="165.28" cy="65.69" r="5.51" xlink:href="#radial-gradient"/><radialGradient id="radial-gradient-13" cx="185.89" cy="129.37" r="5.51" xlink:href="#radial-gradient"/><radialGradient id="radial-gradient-14" cx="162.85" cy="124.2" r="5.51" xlink:href="#radial-gradient"/><radialGradient id="radial-gradient-15" cx="167.9" cy="157.57" r="5.51" xlink:href="#radial-gradient"/></defs><title>2445646</title><g class="cls-1"><g id="OBJECTS"><path class="cls-2" d="M220.92,101.78a5.51,5.51,0,1,1-5.5-5.51A5.51,5.51,0,0,1,220.92,101.78Z"/><path class="cls-3" d="M108.36,208.49a5.51,5.51,0,1,1-5.51-5.51A5.51,5.51,0,0,1,108.36,208.49Z"/><path class="cls-4" d="M103.21,188.6a5.51,5.51,0,1,1-5.51-5.51A5.51,5.51,0,0,1,103.21,188.6Z"/><path class="cls-5" d="M78.59,201.47A5.51,5.51,0,1,1,73.08,196,5.51,5.51,0,0,1,78.59,201.47Z"/><path class="cls-6" d="M38.36,134.51A5.51,5.51,0,1,1,32.85,129,5.51,5.51,0,0,1,38.36,134.51Z"/><path class="cls-7" d="M66.46,105.39A5.51,5.51,0,1,1,61,99.88,5.51,5.51,0,0,1,66.46,105.39Z"/><circle class="cls-8" cx="108.6" cy="126.75" r="5.51"/><circle class="cls-9" cx="115.62" cy="104.34" r="5.51"/><path class="cls-10" d="M103.11,77.35a5.51,5.51,0,1,1-5.51-5.51A5.51,5.51,0,0,1,103.11,77.35Z"/><path class="cls-11" d="M69,62.86a5.51,5.51,0,1,1-5.51-5.51A5.51,5.51,0,0,1,69,62.86Z"/><path class="cls-12" d="M157.44,98a5.51,5.51,0,1,1-5.51-5.51A5.51,5.51,0,0,1,157.44,98Z"/><path class="cls-13" d="M170.79,65.69a5.51,5.51,0,1,1-5.51-5.51A5.51,5.51,0,0,1,170.79,65.69Z"/><circle class="cls-14" cx="185.89" cy="129.37" r="5.51"/><path class="cls-15" d="M168.36,124.2a5.51,5.51,0,1,1-5.51-5.51A5.5,5.5,0,0,1,168.36,124.2Z"/><path class="cls-16" d="M173.41,157.57a5.51,5.51,0,1,1-5.51-5.51A5.51,5.51,0,0,1,173.41,157.57Z"/><path class="cls-17" d="M66.2,63.06a2.63,2.63,0,1,1-2.62-2.62A2.62,2.62,0,0,1,66.2,63.06Z"/><path class="cls-17" d="M100.22,77.47a2.63,2.63,0,1,1-2.62-2.63A2.62,2.62,0,0,1,100.22,77.47Z"/><path class="cls-17" d="M118,104.4a2.63,2.63,0,1,1-2.63-2.62A2.63,2.63,0,0,1,118,104.4Z"/><path class="cls-17" d="M111.23,126.75a2.63,2.63,0,1,1-2.63-2.63A2.62,2.62,0,0,1,111.23,126.75Z"/><path class="cls-17" d="M167.9,65.69a2.63,2.63,0,1,1-2.62-2.63A2.62,2.62,0,0,1,167.9,65.69Z"/><path class="cls-17" d="M154.55,97.86a2.63,2.63,0,1,1-2.62-2.62A2.62,2.62,0,0,1,154.55,97.86Z"/><path class="cls-17" d="M165.28,124.12a2.63,2.63,0,1,1-2.63-2.62A2.63,2.63,0,0,1,165.28,124.12Z"/><path class="cls-17" d="M170.53,157.54a2.63,2.63,0,1,1-2.63-2.63A2.62,2.62,0,0,1,170.53,157.54Z"/><path class="cls-17" d="M188.51,129.37a2.63,2.63,0,1,1-2.62-2.62A2.62,2.62,0,0,1,188.51,129.37Z"/><path class="cls-17" d="M218,101.78a2.63,2.63,0,1,1-2.62-2.63A2.62,2.62,0,0,1,218,101.78Z"/><path class="cls-17" d="M63.58,105.39A2.63,2.63,0,1,1,61,102.77,2.63,2.63,0,0,1,63.58,105.39Z"/><path class="cls-17" d="M35.48,134.62A2.63,2.63,0,1,1,32.85,132,2.63,2.63,0,0,1,35.48,134.62Z"/><path class="cls-17" d="M75.81,201.68a2.63,2.63,0,1,1-2.63-2.63A2.62,2.62,0,0,1,75.81,201.68Z"/><circle class="cls-17" cx="97.6" cy="188.6" r="2.63"/><path class="cls-17" d="M105.47,208.49a2.63,2.63,0,1,1-2.62-2.63A2.62,2.62,0,0,1,105.47,208.49Z"/><rect class="cls-17" x="80.37" y="51.79" width="0.43" height="36.94" transform="translate(-15.54 117.08) rotate(-67.05)"/><rect class="cls-17" x="106.29" y="74.79" width="0.43" height="32.3" transform="translate(-32.49 73.85) rotate(-33.48)"/><rect class="cls-17" x="100.33" y="115.36" width="23.36" height="0.43" transform="translate(-31.24 188.95) rotate(-73.02)"/><rect class="cls-17" x="104.23" y="112.09" width="52.07" height="0.43" transform="translate(-40.43 91.24) rotate(-33.73)"/><rect class="cls-17" x="141.19" y="81.56" width="34.84" height="0.43" transform="translate(22.22 196.85) rotate(-67.43)"/><rect class="cls-17" x="157.07" y="96.81" width="0.43" height="28.36" transform="translate(-30.29 67.72) rotate(-22.22)"/><rect class="cls-17" x="165.06" y="123.92" width="0.43" height="33.83" transform="translate(-19.86 27.36) rotate(-8.93)"/><polygon class="cls-17" points="185.84 129.58 162.61 124.33 162.7 123.91 185.94 129.16 185.84 129.58"/><rect class="cls-17" x="180.44" y="115.36" width="40.41" height="0.43" transform="translate(-24.9 167.96) rotate(-43.02)"/><rect class="cls-17" x="84.15" y="90.33" width="0.43" height="51.47" transform="translate(-56.24 144.69) rotate(-65.49)"/><rect class="cls-17" x="26.63" y="119.79" width="40.54" height="0.43" transform="translate(-72.15 70.73) rotate(-46.17)"/><rect class="cls-17" x="52.8" y="129.03" width="0.43" height="78.25" transform="translate(-79.08 51.37) rotate(-31.02)"/><rect class="cls-17" x="71.54" y="194.92" width="27.7" height="0.43" transform="translate(-82.11 63.55) rotate(-28.21)"/><polygon class="cls-17" points="101.92 208.7 73.13 201.89 73.23 201.47 102.02 208.28 101.92 208.7"/></g></g></svg>