<svg xmlns="http://www.w3.org/2000/svg" viewBox="0 0 153.51 163.32"><defs><style>.cls-1{fill:#fff;}</style></defs><title>2413150</title><g id="OBJECTS"><path class="cls-1" d="M139.27,120.48a5.11,5.11,0,0,1-7.07,0L130.66,119a16.57,16.57,0,0,1-33.12-.63l0-56.49a6.56,6.56,0,1,0-13.12,0l0,46.24a5,5,0,0,1-10,0V61.84a6.52,6.52,0,0,0-1.94-4.63,6.44,6.44,0,0,0-4.62-1.93,6.57,6.57,0,0,0-6.57,6.58l0,43a5,5,0,0,1-8.53,3.54,4.9,4.9,0,0,1-1.47-3.54V58.62A6.56,6.56,0,0,0,40.07,54a6.48,6.48,0,0,0-1.92,4.63,5,5,0,0,1-8.53,3.53,4.92,4.92,0,0,1-1.47-3.53A16.56,16.56,0,0,1,44.71,42.06a16.65,16.65,0,0,1,7.38,1.73,16.46,16.46,0,0,1,5.8,4.81,16.57,16.57,0,0,1,16.19-2.1A16.8,16.8,0,0,1,79.41,50,16.47,16.47,0,0,1,91,45.28a16.64,16.64,0,0,1,6.35,1.25,16.05,16.05,0,0,1,5.35,3.59,16.4,16.4,0,0,1,4.86,11.7l0,56.51a6.56,6.56,0,0,0,6.56,6.55,6.58,6.58,0,0,0,6.24-4.52l-.3.33a5,5,0,0,1-7.06.4,4.93,4.93,0,0,1-1.67-3.45,4.87,4.87,0,0,1,1.27-3.62l9.33-10.45a2.88,2.88,0,0,1,.29-.3l.28-.24.45-.32a4.66,4.66,0,0,1,2.21-.79,3.7,3.7,0,0,1,.48,0,2.79,2.79,0,0,1,1,.09,1.43,1.43,0,0,1,.38.08,2.58,2.58,0,0,1,.53.16,6.42,6.42,0,0,1,.65.32,4.85,4.85,0,0,1,1,.81l10.05,10A5,5,0,0,1,139.27,120.48Z"/></g></svg>