<svg xmlns="http://www.w3.org/2000/svg" viewBox="0 0 251.17 251.17"><defs><style>.cls-1{fill:#fefefe;}</style></defs><title>2445646</title><g id="OBJECTS"><path class="cls-1" d="M147.29,54c-.88.08-1.79.16-2.67.33-1,.21-2.05.42-3.09.66a33.14,33.14,0,0,0-5.4,1.78c-1.78.74-3.57,1.51-5.28,2.43s-3.6,2-5.35,3.09-3.23,2.11-4.78,3.24-3,2.23-4.51,3.38-3.09,2.36-4.57,3.62c-.79.68-1.56,1.35-2.32,2s-1.45,1.38-2.16,2.09c-1.41,1.4-2.71,2.9-4,4.39-.28.33-.55.69-.83,1s-.52.63-.76.95c-.64.86-1.28,1.72-1.88,2.61-.43.64-.83,1.3-1.23,2a1,1,0,0,0-.13.22c-.08.12-.14.24-.21.35-.25.4-.46.82-.68,1.23s-.53.94-.76,1.43-.49,1-.73,1.54-.39,1-.58,1.48-.26.69-.38,1-.34.93-.47,1.41L94,98c-.15.55-.27,1.11-.39,1.66-.22,1-.43,2-.63,3q-.54,2.7-1,5.42c-.33,1.86-.62,3.72-.78,5.61s-.25,3.78-.27,5.69c0,1.52,0,3.07-.13,4.59-.07.81-.16,1.61-.25,2.42a18.6,18.6,0,0,1-.37,2,16.31,16.31,0,0,1-.69,2c-.12.26-.25.52-.38.78a20.83,20.83,0,0,1-2.21,2.93c-.58.69-1.19,1.38-1.8,2-1.23,1.36-2.48,2.71-3.63,4.14-.6.73-1.21,1.44-1.76,2.2s-1.18,1.65-1.75,2.49c-.27.39-.51.8-.76,1.21a18.81,18.81,0,0,0-1,1.69,26.5,26.5,0,0,0-1.15,2.55,58.23,58.23,0,0,0-2.8,11.87,51.49,51.49,0,0,0-.45,5.54c-.09,2-.11,4.08,0,6.12s.18,3.84.35,5.76.35,3.75.52,5.62q.52,5.93,1.1,11.83c.11,1.15.22,2.3.34,3.45h0q.48-6,.89-11.92c.13-2,.25-4,.39-5.94s.29-3.92.42-5.88c.09-1.39.16-2.78.29-4.16.14-1.55.26-3.09.41-4.62s.33-3.31.59-5c.22-1.43.54-2.85.85-4.26.18-.69.35-1.37.53-2,.23-.84.5-1.67.76-2.5s.57-1.57.87-2.34a16.22,16.22,0,0,1,.82-1.74c.44-.73.89-1.45,1.37-2.15s1.21-1.69,1.84-2.52,1.16-1.4,1.74-2.1,1.15-1.31,1.74-1.95c1.26-1.32,2.51-2.66,3.71-4,.64-.74,1.26-1.49,1.82-2.28a18,18,0,0,0,1.39-2.51,14.76,14.76,0,0,0,1.07-3.5,22.78,22.78,0,0,0,.42-2.73c.09-1,.12-2,.14-2.93,0-1.81-.08-3.63-.12-5.44s0-3.46.13-5.19.3-3.37.54-5,.5-3.52.79-5.27c.15-.93.32-1.85.49-2.77.13-.7.3-1.4.46-2.09s.34-1.27.55-1.89c.13-.38.26-.77.4-1.15s.17-.58.29-.86a42.19,42.19,0,0,1,1.77-3.87l0,.06c0-.08.09-.17.14-.26A7.58,7.58,0,0,0,102,89c.1-.17.18-.34.27-.5l-.05.08c.5-.8,1-1.61,1.52-2.38l.87-1.27c.31-.45.67-.87,1-1.3,1.1-1.46,2.32-2.82,3.52-4.19s2.39-2.47,3.68-3.61c.76-.68,1.52-1.36,2.31-2s1.58-1.3,2.38-2c1.42-1.16,2.85-2.32,4.31-3.43s3.21-2.4,4.86-3.54c1.32-.91,2.72-1.73,4.08-2.56.93-.53,1.84-1,2.79-1.53s1.78-.88,2.68-1.28c1.05-.47,2.11-.91,3.18-1.35.87-.35,1.79-.62,2.69-.91l.19,0,.29-.09.85-.24,1.55-.4c.51-.13,1-.22,1.54-.32a28.86,28.86,0,0,1,3-.4c1.28,0,2.57,0,3.85.06A13.8,13.8,0,0,1,155,56c.65.1,1.3.22,1.94.34.85.22,1.68.44,2.5.71a16.6,16.6,0,0,1,2.29,1c.32.18.64.36,1,.57a6.8,6.8,0,0,1,1,.81,9.25,9.25,0,0,1,1.12,1.44c.43.75.79,1.52,1.15,2.3h0a22.28,22.28,0,0,0-1-2.72,7.17,7.17,0,0,0-1.58-2.09,14.73,14.73,0,0,0-4.77-2.7,24.4,24.4,0,0,0-2.51-.8,22.53,22.53,0,0,0-2.81-.56c-1-.12-1.94-.24-2.91-.3-.49,0-1-.06-1.44,0s-1.07,0-1.61.06m2,1.78h0Zm-5.63,1-.11,0,.11,0m-1.66.48-.2,0,.2,0M96,117.51a1.34,1.34,0,0,1,0,.2,1.34,1.34,0,0,0,0-.2"/><path class="cls-1" d="M144.69,71.53a18.67,18.67,0,0,0-3.38.8,34.08,34.08,0,0,0-5.14,2.07,82.18,82.18,0,0,0-10.41,5.93c-.38.27-.79.52-1.16.81l-1.22,1c-.41.32-.79.69-1.18,1s-.68.65-1,1c-.71.7-1.39,1.42-2.06,2.15s-1.31,1.42-1.89,2.19a26.88,26.88,0,0,0-1.62,2.33c-.51.82-1,1.65-1.46,2.5l-.83,1.54c-.24.45-.43.92-.64,1.37a16.55,16.55,0,0,0-.9,2.62,20.32,20.32,0,0,0-.59,3.17,26.81,26.81,0,0,0-.1,3.23c0,.47,0,1,0,1.42s.08,1.1.13,1.65c.08,1,.24,1.93.39,2.88.59,3.78,1.48,7.51,2,11.3a21.47,21.47,0,0,1,.16,2.39c0,.71,0,1.41-.11,2.12a16.35,16.35,0,0,1-.28,1.86,13.27,13.27,0,0,1-.72,2,20,20,0,0,1-2.57,3.29c-1.3,1.29-2.6,2.56-4,3.76l-4.81,4.18c-.25.23-.53.44-.77.68l-1,1c-.89.88-1.8,1.75-2.66,2.67a51.48,51.48,0,0,0-9.3,13.54A30.4,30.4,0,0,0,85,169.36a38.55,38.55,0,0,0-.2,5,28.2,28.2,0,0,0,.7,5.1c.24,1.14.54,2.26.81,3.39L86.8,185c.28,1.14.6,2.29,1,3.41h0c-.2-1.25-.32-2.51-.44-3.77-.23-2.58-.54-5.16-.61-7.76A26.51,26.51,0,0,1,87,173c.19-1.42.45-2.83.77-4.23a37.58,37.58,0,0,1,3.39-8.47,52.08,52.08,0,0,1,3.65-5.83,57.65,57.65,0,0,1,4.65-5.59c.78-.8,1.6-1.57,2.41-2.35l1-.94c.25-.24.53-.45.8-.68,1.62-1.37,3.23-2.75,4.86-4.12,1.41-1.19,2.75-2.47,4.08-3.76a27.07,27.07,0,0,0,2.52-2.84,12.15,12.15,0,0,0,1.66-3,15.08,15.08,0,0,0,.82-3.17,25.91,25.91,0,0,0,.08-6c-.07-1-.23-1.9-.39-2.84l-.45-2.71c-.16-1-.33-2-.5-3s-.32-1.69-.44-2.54a52,52,0,0,1-.62-6c0-.1,0-.2,0-.31,0-.42,0-.86,0-1.28s.06-.94.09-1.41a17.31,17.31,0,0,1,.38-2.36c.15-.5.29-1,.46-1.49a16.82,16.82,0,0,1,.63-1.67c.47-1,1-2,1.47-2.92l.55-1c.22-.4.48-.78.72-1.16.44-.7.94-1.36,1.44-2,1-1.33,2.14-2.58,3.27-3.83.38-.39.75-.79,1.15-1.15s1-1,1.57-1.4c1.11-.91,2.25-1.77,3.39-2.62,2.22-1.65,4.55-3.13,6.88-4.62l2-1.19-.17.1c.85-.45,1.68-.91,2.56-1.31a24.88,24.88,0,0,1,3.23-1.27,7.71,7.71,0,0,1,1.34-.25c.77,0,1.53,0,2.31.1,0,0,0,0,0,0-.43-.11-.86-.23-1.29-.31l-.69-.13a4.55,4.55,0,0,0-.9-.07c-.3,0-.59,0-.9.06"/><path class="cls-1" d="M155.34,77.43c-1.12.33-2.21.73-3.3,1.14a32.48,32.48,0,0,0-5.31,2.81c-.84.52-1.66,1.07-2.48,1.61a30.06,30.06,0,0,0-5.28,4.6,29.44,29.44,0,0,0-4.72,6.87,26.16,26.16,0,0,0-2.35,7.64c-.21,1.27-.3,2.56-.42,3.85,0,.37,0,.74,0,1.11,0,.58,0,1.16-.05,1.74,0,.41,0,.83,0,1.24,0,.67,0,1.34,0,2,.06,1,.11,1.93.18,2.89a53.25,53.25,0,0,0,.68,5.48c.18,1.06.34,2.12.5,3.19.12.86.24,1.74.3,2.61.05.71.09,1.42.15,2.13s0,1.45,0,2.19c0,.56-.06,1.13-.09,1.69a22.21,22.21,0,0,1-.51,3.54,20.61,20.61,0,0,1-1.59,4.17,27.73,27.73,0,0,1-3.92,5.22c-1.45,1.49-3,2.86-4.56,4.25-1.27,1.14-2.59,2.23-3.9,3.34l-2.88,2.47c-.64.54-1.24,1.11-1.86,1.67s-1.45,1.26-2.12,1.92-1.59,1.61-2.38,2.42c-.63.65-1.26,1.29-1.87,2a58.39,58.39,0,0,0-4.23,5.19,43.72,43.72,0,0,0-4.67,8.91q-1,2.36-1.88,4.72c-.6,1.53-1.18,3.07-1.68,4.63,0,0,0,0,0,0l.33-.63h0c1.08-1.9,2.2-3.78,3.33-5.66q1.08-1.75,2.13-3.54c.34-.56.72-1.11,1.08-1.66.49-.74,1-1.46,1.51-2.17a40.29,40.29,0,0,1,3.35-3.92c2.21-2.3,4.63-4.38,7-6.56,1.41-1.31,2.89-2.55,4.35-3.81,1.3-1.13,2.68-2.19,4-3.29,1.7-1.41,3.39-2.82,5.06-4.26.73-.62,1.42-1.28,2.12-1.93a35,35,0,0,0,4.47-5,24.57,24.57,0,0,0,2.05-3.51,18.86,18.86,0,0,0,1.39-3.92,30.87,30.87,0,0,0,.69-4c.06-.56.07-1.14.1-1.72.06-.9,0-1.8,0-2.71,0-.67-.06-1.34-.1-2,0-.42,0-.83-.1-1.24-.11-1.07-.24-2.13-.4-3.2-.13-.88-.3-1.75-.45-2.63s-.29-1.78-.43-2.68-.21-1.78-.29-2.67c-.14-1.58-.2-3.16-.24-4.74,0-1,0-2.09.06-3.12l.15-2.16A22.34,22.34,0,0,1,139,94.65a36.87,36.87,0,0,1,5-7,51.33,51.33,0,0,1,4.89-4.3c.65-.54,1.31-1,2-1.54s1.23-.86,1.86-1.28a28.82,28.82,0,0,1,4.89-2.41,10.35,10.35,0,0,1,2.47-.34h-.06c.78,0,1.55.1,2.32.18h0c-.52-.19-1-.38-1.54-.54a8.87,8.87,0,0,0-1.76-.36,6.84,6.84,0,0,0-1,0,10.54,10.54,0,0,0-2.76.45M127,145.32l-.1.11.1-.11"/><path class="cls-1" d="M172.42,92.83a2,2,0,0,0-.69-.65l-.77-.47a13,13,0,0,1-1.59-1.64l-.55-.75-.21-.34a1.82,1.82,0,0,0-.37-.45c-.09-.16-.16-.31-.24-.47-.22-.52-.41-1-.58-1.57s-.3-1.22-.42-1.83a15.88,15.88,0,0,1-.11-3.71c.13-1.38.4-2.75.63-4.11h0a36.81,36.81,0,0,0-1.36,5.25,14.59,14.59,0,0,0,2,7.6A12,12,0,0,0,170,92.08a4.11,4.11,0,0,1,1.08,1.16c.35.82-1.18,2-1.66,2.48-1.32,1.29-3,3-3,5-.05,1.58,1.25,3.3-.53,4.46-2.36,1.54-5.85,2-8.26.47l.64.61a5.48,5.48,0,0,0,.7.55,3.82,3.82,0,0,0,1,.48,6.35,6.35,0,0,0,1.15.24,11,11,0,0,0,2,.18,5.27,5.27,0,0,0,2.36-.64c.44-.23.84-.5,1.29-.72a3.88,3.88,0,0,0,1.11-.73c.93-1,.41-2.28.16-3.42a5.54,5.54,0,0,1-.07-.57,4.34,4.34,0,0,1,0-.51,9.24,9.24,0,0,1,.33-1.28c.12-.35.23-.71.36-1.06a8.45,8.45,0,0,1,.64-1.32,5.57,5.57,0,0,1,.59-.6c.27-.2.55-.38.83-.56a15.56,15.56,0,0,0,1.38-1,2.44,2.44,0,0,0,.42-.55c.07-.17.14-.33.2-.51s0-.34,0-.51A1.89,1.89,0,0,0,172.42,92.83Z"/><path class="cls-1" d="M147.16,115.68c.15.81.33,1.55.53,2.25s.42,1.36.65,1.94a14.38,14.38,0,0,0,.89,1.8,7.82,7.82,0,0,0,.67.92c1.81.65,3.85-.11,5.58-.92,3.12-1.46,6.15-2.75,9.62-1.67,3.72,1.14,6.45,3.78,8.94,6.69l.36.1-.06,0a2.87,2.87,0,0,1,.71.29,1.3,1.3,0,0,0,.3.13.86.86,0,0,0,.43.09h0l-.1-.08a10.92,10.92,0,0,0-.68-.89,15.6,15.6,0,0,0-3.64-3.21,20.65,20.65,0,0,1-1.94-1.44c-.63-.53-1.25-1.07-1.88-1.51a8,8,0,0,0-2.32-1c-.66-.19-1.33-.32-2-.49a8.52,8.52,0,0,0-1.79-.27,12.28,12.28,0,0,0-3.65.63c-.52.13-1.05.22-1.57.34s-1.05.26-1.57.34a8.24,8.24,0,0,1-3.2-.15,5.14,5.14,0,0,1-2-1.3,7.9,7.9,0,0,1-1-1.54,20.17,20.17,0,0,1-.76-1.94c-.11-.42-.22-.85-.3-1.32q-.18-1.11-.27-2.31c0-.49-.06-1-.08-1.48v-1.35c0-1.1.1-2.16.18-3.23h0c-.13.89-.24,1.78-.32,2.7s-.11,1.7-.12,2.55,0,1.87.07,2.8A22.86,22.86,0,0,0,147.16,115.68Z"/><path class="cls-1" d="M162.49,87.3h0a14.36,14.36,0,0,0-2.43.34,9.31,9.31,0,0,0-2.72,1.24s0,0,0,0a8.49,8.49,0,0,0,3-.2,7.31,7.31,0,0,0,2.6-1.41,0,0,0,0,0,0,0l-.43,0m0,0h0"/></g></svg>