<svg xmlns="http://www.w3.org/2000/svg" viewBox="0 0 153.51 163.32"><defs><style>.cls-1{fill:#fff;}</style></defs><title>2413150</title><g id="OBJECTS"><path class="cls-1" d="M115.37,56.49C107.1,48.7,94.5,45.05,81.52,46.66l0-4.95a4.8,4.8,0,0,0-3.23-4.48A4.73,4.73,0,0,0,73,38.79L63,51.43V41.76a4.77,4.77,0,0,0-8.52-3L44.9,51V41.76a4.76,4.76,0,0,0-8.5-3L18.88,61a4.77,4.77,0,0,0,4.31,7.69,4.68,4.68,0,0,0,3.17-1.8l9-11.42V89.36a4.77,4.77,0,1,0,9.53,0v-23l8.56-10.87V89.36a4.77,4.77,0,1,0,9.54,0V66.84l9.06-11.5.55,52.16H51.41a4.77,4.77,0,0,0,0,9.54h21.3l.2,19.82a4.78,4.78,0,0,0,8.18,3.29,4.68,4.68,0,0,0,1.35-3.39L82.24,117h6.43c11.62,0,32.32-6.2,36.11-29.47C127.36,71.63,121.09,61.86,115.37,56.49Zm.44,24.08a35.06,35.06,0,0,1-.46,5.49c-3.62,22.32-26.79,21.48-27.83,21.44H82.15l-.52-51.22c10.47-1.54,20.84,1.17,27.2,7.15C113.45,67.77,115.81,73.63,115.81,80.57Z"/></g></svg>