<svg xmlns="http://www.w3.org/2000/svg" viewBox="0 0 153.51 163.32"><defs><style>.cls-1{fill:#fff;}</style></defs><title>2413150</title><g id="OBJECTS"><path class="cls-1" d="M130.53,91.66a4.79,4.79,0,0,1-1.4,6.6l-21,13.64a4.76,4.76,0,0,1-2.6.78,4.82,4.82,0,0,1-2.75-.87l-16.6-11.67L70.3,111.75a4.74,4.74,0,0,1-5.64,0L48.72,100.06l-18,11.83a4.89,4.89,0,0,1-2.62.77h0a4.74,4.74,0,0,1-4-2.14,4.8,4.8,0,0,1-.69-3.58,4.72,4.72,0,0,1,2.06-3L46.23,90.27a4.79,4.79,0,0,1,5.45.15L67.48,102,83.3,90.42a4.78,4.78,0,0,1,5.56-.07l16.78,11.8,18.29-11.88a4.77,4.77,0,0,1,6.6,1.39Z"/><path class="cls-1" d="M131.57,63.51a4.62,4.62,0,0,1,.67,3.58,4.72,4.72,0,0,1-2.06,3l-21,13.63a4.69,4.69,0,0,1-5.34-.09L87.22,72,71.36,83.6a4.77,4.77,0,0,1-5.64,0l-16-11.69-18,11.81a4.78,4.78,0,0,1-7.3-4.94,4.85,4.85,0,0,1,2.05-3L47.28,62.11a4.81,4.81,0,0,1,5.46.14l15.8,11.58L84.35,62.25a4.74,4.74,0,0,1,5.56,0L106.69,74,125,62.11a4.84,4.84,0,0,1,3.59-.68A4.71,4.71,0,0,1,131.57,63.51Z"/></g></svg>