<svg xmlns="http://www.w3.org/2000/svg" viewBox="0 0 251.17 251.17"><defs><style>.cls-1{fill:#fefefe;}</style></defs><title>2445646</title><g id="OBJECTS"><path class="cls-1" d="M193,129.79l.66-.88c.24-.3.49-.57.72-.88a9.22,9.22,0,0,0,.58-.9,10.83,10.83,0,0,0,.83-2.06c.11-.36.23-.72.34-1.07s.25-.69.39-1a15.42,15.42,0,0,0,.65-2.13,11.3,11.3,0,0,0,.3-1.74c.05-.5.07-1,.1-1.49s.09-1.21.12-1.81h0c-.08.57-.17,1.14-.26,1.71s-.17,1.3-.3,1.94a13.58,13.58,0,0,1-.55,1.78c-.17.46-.37.92-.58,1.36s-.44.9-.65,1.36-.39.87-.61,1.3c-.14.26-.28.51-.44.75a6.2,6.2,0,0,1-.54.7,15.07,15.07,0,0,1-1.24,1.15c-.44.38-.83.8-1.25,1.19a7.44,7.44,0,0,1-.68.58l-.73.55c-.43.35-.85.7-1.31,1-1.21.73-2.47,1.38-3.74,2-.68.34-1.41.63-2.12.9s-1.36.55-2.05.79c-.4.13-.82.23-1.23.32s-.89.14-1.34.18a26.37,26.37,0,0,1-2.67-.06l-1.39-.12c-.42-.05-.84-.1-1.26-.17-.67-.17-1.33-.34-2-.56a13.8,13.8,0,0,1-1.78-.72c-1.05-.55-2.07-1.16-3.07-1.81q.34-.13.69-.24h0l1.59-.48c.25-.08.51-.15.76-.24l.89-.31c.28-.1.54-.21.81-.32a6.65,6.65,0,0,0,.75-.39c.5-.28,1-.58,1.45-.89,1.23-.79,2.49-1.55,3.68-2.4.59-.41,1.16-.86,1.72-1.32A22.9,22.9,0,0,0,180,123.8c.51-.54,1-1.1,1.54-1.64s1.14-1.19,1.69-1.79,1-1.16,1.42-1.78c.21-.29.41-.59.61-.89s.42-.6.6-.91c.77-1.26,1.42-2.6,2.11-3.9a16.36,16.36,0,0,0,.95-2,16.68,16.68,0,0,0,.68-2,5.78,5.78,0,0,0,.19-.92c0-.31.09-.62.11-.93,0-.65,0-1.29,0-1.93l0-.93a1.62,1.62,0,0,1,.13.19,1.44,1.44,0,0,0,.24.63c.07.13.14.26.22.39s.26.44.4.66c.3.48.59,1,.87,1.45.57,1,1.11,1.93,1.63,2.9.41.77.81,1.53,1.23,2.3h0c-.26-1.55-.48-3.12-.83-4.66-.18-.83-.38-1.64-.62-2.45-.11-.33-.21-.67-.31-1-.07-.19-.12-.38-.18-.57s-.06-.16-.08-.24a1.09,1.09,0,0,0-.3-.48,18.48,18.48,0,0,0-.87-1.86l.11-.25c.49-1,1-2.06,1.44-3.11s.82-2.12,1.15-3.21a15.64,15.64,0,0,0,.35-1.68,8.82,8.82,0,0,0,.13-1.36,5.54,5.54,0,0,0-.15-1.41,4,4,0,0,0-.37-.9,3,3,0,0,0-.75-.92,3.25,3.25,0,0,0-.42-.31,5.38,5.38,0,0,0-.89-.47,4.92,4.92,0,0,0-1.36-.33,8.38,8.38,0,0,0-1.5,0,6.82,6.82,0,0,0-1.32.25,6.71,6.71,0,0,0-2.6,1.49,8.41,8.41,0,0,0-.94,1,5.33,5.33,0,0,0-.69,1.14,3.53,3.53,0,0,0-.4,1.62s0,.09,0,.14c-.4-.32-.82-.63-1.24-.93-1.81-1.28-3.77-2.32-5.68-3.45l-.3-.21c.24-.3.46-.6.7-.91a25.5,25.5,0,0,1,2-1.92c.64-.6,1.31-1.17,2-1.72.3-.2.61-.4.93-.57a10.28,10.28,0,0,1,1.46-.7c.37-.12.74-.21,1.1-.32s.86-.21,1.28-.28,1-.13,1.57-.17a12.22,12.22,0,0,1,2.41.13l1.6.25a26.2,26.2,0,0,1,2.58.63,17.5,17.5,0,0,1,2.18.84,11,11,0,0,1,1.41.81c.43.31.83.63,1.23,1s.88.78,1.27,1.2c.21.23.44.45.63.7s.36.45.53.68a15,15,0,0,1,1.23,2.3,6.48,6.48,0,0,1,.24.83,6,6,0,0,1,.16.91,9.6,9.6,0,0,1-.17,2c-.12.56-.24,1.13-.41,1.69s-.36,1.15-.55,1.72l-.62,1.73c-.23.56-.45,1.12-.7,1.68-.11.23-.21.46-.32.68l0-.07c-.22.47-.45.94-.66,1.42s-.41.89-.61,1.33c-.4.93-.84,1.86-1.25,2.79-.18.36-.34.73-.5,1.11h0l.37-.56.29-.46.61-1c.41-.64.8-1.28,1.17-1.94s.76-1.32,1.14-2c.2-.33.39-.65.56-1a11.7,11.7,0,0,0,.56-1.12c.32-.67.62-1.36.91-2,.14-.33.28-.66.4-1s.27-.71.38-1.07a21.12,21.12,0,0,0,.58-2.21,8.91,8.91,0,0,0,.15-1.63,6.72,6.72,0,0,0-.16-1.34,7,7,0,0,0-.38-1.2c-.15-.37-.33-.73-.51-1.08a9.38,9.38,0,0,0-.56-1,10.41,10.41,0,0,0-.72-1,14.48,14.48,0,0,0-1.6-1.63l-.55-.48a12.81,12.81,0,0,0-5.74-3c-.36-.11-.74-.18-1.12-.26l-1.15-.23c-.82-.16-1.65-.25-2.47-.33-.27,0-.54,0-.79,0a7.38,7.38,0,0,0-1.34.07c-.45.06-.87.11-1.3.2a15.78,15.78,0,0,0-1.93.55,9.78,9.78,0,0,0-1.31.54,6.55,6.55,0,0,0-.58.32c-.18.1-.33.23-.5.34s-.34.21-.49.33a6.73,6.73,0,0,0-.85.74c-.56.54-1.1,1.09-1.63,1.65a17.87,17.87,0,0,0-1.77,2.1c-.19.29-.38.58-.56.87-.84-.59-1.66-1.23-2.5-1.83a20.21,20.21,0,0,1-2.9-2.3,15.84,15.84,0,0,1-1.64-2.42c-.25-.44-.51-.89-.77-1.32s-.59-.87-.9-1.29c-.55-.71-1.11-1.42-1.68-2.12a10.29,10.29,0,0,0-.35-1.35,13.64,13.64,0,0,0-.6-1.54,7.22,7.22,0,0,0-1.71-2.34l-.16-.13a8.06,8.06,0,0,0-2.51-1.54,7.18,7.18,0,0,0-1.38-.36,9.86,9.86,0,0,0-1.34-.07,9.47,9.47,0,0,0-2.59.36,15.74,15.74,0,0,0-2.14.7,20.84,20.84,0,0,0-2.45,1.24,14.75,14.75,0,0,0-3.47,2.77c-.23.26-.47.51-.7.76s-.37.39-.53.59c-.4.48-.79,1-1.18,1.47a4.46,4.46,0,0,0-.35.5c-.23.32-.44.65-.67,1s-.47.74-.71,1.11-.47.77-.7,1.16a22.5,22.5,0,0,0-1.23,2.33c-.17.38-.33.76-.49,1.15l-1.14-.2-1.27-.2c-.38-.06-.76-.09-1.13-.13-.84-.09-1.68-.15-2.5-.22s-1.58-.07-2.38-.1-1.63,0-2.44,0-1.58.08-2.37.16-1.7.18-2.56.3L122,84.9c-.77.11-1.55.21-2.33.35a47.32,47.32,0,0,0-4.85,1.12A45,45,0,0,0,110,88c-.77.32-1.56.65-2.3,1s-1.5.78-2.24,1.17-1.46.76-2.17,1.17l-2.34,1.39c-.7.43-1.38.89-2.06,1.35s-1.37.93-2,1.42-1.37,1-2,1.55-1.27,1.13-1.9,1.71-1.18,1.18-1.75,1.8c-.27.29-.53.59-.8.89s-.63.71-.93,1.07c-1,1.3-2.08,2.61-3.07,3.95l-.29.43-.3.43c-.23.38-.47.75-.69,1.13s-.44.78-.64,1.18-.41.8-.61,1.22c-.37.75-.67,1.54-1,2.32l-.45,1.21a10.43,10.43,0,0,0-.38,1.2q-.33,1.06-.6,2.16c-.2.83-.41,1.65-.63,2.47s-.42,1.56-.59,2.35-.26,1.64-.4,2.46c0,.1,0,.2-.05.29l-.42,2.22c-.13.72-.24,1.45-.34,2.18-.21,1.34-.39,2.69-.62,4-.09.41-.18.81-.3,1.21s-.28.9-.43,1.35-.31,1-.49,1.45-.33.79-.49,1.18c-.32.68-.66,1.33-1,2a17,17,0,0,1-1.36,1.91c-.34.38-.68.76-1,1.12s-.84.85-1.27,1.26l-1.29,1.2a16.29,16.29,0,0,1-1.4,1.08c-.27.18-.54.36-.83.53s-.68.38-1,.56l-1,.51-1.18.57c-.73.35-1.51.66-2.25,1l-2.35,1c-.67.31-1.33.61-2,1-.15.09-.32.17-.49.26s-.4.26-.61.38c-.38.24-.76.52-1.13.77l-.5.37-.39.3c-.35.27-.69.55-1,.83s-.63.51-.93.78-.67.58-1,.88-.63.59-.93.9l-1,1.05c-.29.31-.57.64-.85,1s-.57.67-.85,1-.44.54-.65.83l-.87,1.18c-.27.36-.51.74-.76,1.11l-.26.39c-.11.15-.19.32-.29.49l-.72,1.24c-.21.36-.4.75-.59,1.12s-.32.59-.47.89c-.24.48-.47,1-.7,1.45-.16.31-.32.63-.45.94-.21.49-.41,1-.61,1.46-.13.32-.29.63-.41,1s-.32.94-.49,1.41c-.11.32-.22.64-.34,1s-.12.43-.18.63c-.13.46-.27.9-.4,1.35-.05.18-.11.37-.14.54-.18.76-.36,1.53-.49,2.3a23.38,23.38,0,0,0-.35,2.63,21.45,21.45,0,0,0,0,2.66c0,.8.12,1.59.22,2.38a25.92,25.92,0,0,0,.59,2.86c.18.74.4,1.47.59,2.2.35,1.26.7,2.51,1.08,3.76h0c-.19-1.2-.37-2.41-.54-3.61-.23-1.58-.5-3.17-.63-4.76-.07-1.09-.07-2.2-.05-3.29a23.68,23.68,0,0,1,.31-3.14q.18-1,.42-1.92c.13-.54.27-1.1.4-1.65.08-.32.2-.64.29-1,.15-.48.29-.95.44-1.42l.09-.26c.12-.3.22-.59.33-.88l.48-1.28c0-.12.09-.23.13-.33.14-.3.27-.6.39-.89s.33-.75.49-1.13c.38-.77.76-1.56,1.17-2.31.29-.53.57-1.06.87-1.59s.47-.81.71-1.22l.36-.6a3.6,3.6,0,0,1,.28-.4c.28-.4.54-.81.84-1.21s.63-.86,1-1.27l.92-1.12.85-.95c.28-.31.58-.6.88-.91.56-.57,1.15-1.13,1.75-1.66s1.33-1.14,2-1.69c.35-.29.72-.57,1.09-.85s.55-.41.83-.6.59-.38.89-.55.72-.4,1.08-.58c.69-.35,1.37-.68,2.08-1l2.41-1.09c.72-.31,1.44-.65,2.14-1,.38-.2.77-.39,1.16-.58l.4-.21a3.76,3.76,0,0,0,.56-.3c.21-.11.4-.23.59-.35s.32-.21.48-.32c.34-.24.71-.48,1-.74l.49-.4c.17-.14.31-.29.47-.43l.8-.76c.59-.57,1.16-1.14,1.71-1.75.27-.29.53-.59.8-.89s.46-.55.67-.84a21.38,21.38,0,0,0,1.23-1.91,27.93,27.93,0,0,0,1.84-4.06c.23-.66.45-1.33.66-2a14.08,14.08,0,0,0,.49-2.23c.25-1.45.48-2.9.74-4.35.14-.76.3-1.53.46-2.3s.35-1.75.5-2.62.44-1.87.71-2.79.57-2.11.84-3.16c.12-.46.26-.91.4-1.36s.33-1.08.53-1.61q.57-1.52,1.2-3c.12-.27.25-.55.39-.81l.68-1.27c.22-.38.44-.75.67-1.12s.44-.67.66-1,.43-.59.64-.89l.87-1.16c.49-.65,1-1.29,1.5-1.92.7-.82,1.39-1.62,2.11-2.42l.54-.56.45-.46,1.4-1.33a43.48,43.48,0,0,1,4.89-3.76c1-.61,1.92-1.23,2.9-1.82l1.69-1,1.41-.77c.56-.31,1.12-.62,1.69-.92s1.06-.53,1.59-.78c.31-.15.63-.27.94-.41l.73-.3,1.57-.6c1.19-.4,2.38-.78,3.59-1.11.64-.18,1.29-.34,2-.49s1.32-.28,2-.39c1.31-.22,2.62-.4,3.94-.58l2-.25c.59-.07,1.17-.12,1.77-.16,1-.07,2.05-.14,3.08-.15l1.52,0c.57,0,1.13.05,1.7.08,1.05.06,2.09.16,3.13.27l.71.1.85.13.47.08c-.4,1-.78,2-1.14,3h0c.53-.85,1.1-1.68,1.65-2.52.08-.12.16-.24.23-.36l.56.09-.16,0,.91.16c1.08.22,2.18.41,3.27.67s2.32.56,3.46.89l1.51.46c.55.16,1.11.29,1.67.43,1,.25,2,.48,3,.66h0l.81.15h0l1.11.19-.1.14a15.51,15.51,0,0,1-1.15,1.42c-.41.44-.83.85-1.26,1.26-.87.79-1.73,1.57-2.58,2.37-.49.44-1,.89-1.49,1.31s-1.28,1-1.92,1.51-1.17.9-1.79,1.3-1.26.79-1.92,1.15a15.53,15.53,0,0,1-1.76.8,19,19,0,0,1-2,.59c-.39.08-.78.14-1.18.2a9.1,9.1,0,0,1-1.17,0l-1,0h0a14,14,0,0,0,1.68.48,10,10,0,0,0,1.63.15,13.12,13.12,0,0,0,3.24-.34,22.75,22.75,0,0,0,3.39-1,29.24,29.24,0,0,0,3.18-1.56c.5-.28,1-.54,1.47-.85s1-.69,1.53-1c.89-.64,1.73-1.35,2.57-2.07a32.2,32.2,0,0,0,2.81-2.54,20.41,20.41,0,0,0,2-2.67,63.5,63.5,0,0,0,3.58-6.33c.12-.23.23-.46.35-.7a10.72,10.72,0,0,0,.7-2,8.38,8.38,0,0,0,.2-2.06c0-.15,0-.31,0-.46a2.12,2.12,0,0,1,.11.21c.24.44.47.89.69,1.34a15.8,15.8,0,0,1,.6,1.48,20.7,20.7,0,0,0,1.29,3.12,12,12,0,0,0,2.28,2.74c.79.74,1.61,1.45,2.44,2.16a13.66,13.66,0,0,0,1.12.89c.53.36,1.07.7,1.62,1,.76.48,1.54.94,2.31,1.42s1.64,1.12,2.42,1.73c-.08.38-.2.75-.32,1.13s-.26.85-.4,1.28-.32.94-.5,1.41-.37.86-.56,1.27-.29.53-.43.78-.38.55-.55.82c-.33.5-.69,1-1.06,1.48-.75,1-1.51,2.09-2.29,3.13l-.83,1.11c-.29.37-.58.73-.89,1.08s-.81.86-1.23,1.28-.9.9-1.36,1.35-1,1-1.41,1.48-.86,1-1.31,1.49l-.27.32c-.23.24-.45.48-.69.71a10.13,10.13,0,0,1-.78.69c-.31.25-.64.5-1,.74s-.55.39-.85.59-.48.3-.73.43-.59.31-.9.44-.64.28-1,.4-.6.23-.88.35c-1.21.45-2.38,1-3.59,1.33a.46.46,0,0,1-.14,0l-1.34.39-.87-1.18-1.14-1.54c-.32-.46-.64-.92-.94-1.38-.18-.28-.35-.55-.51-.83s-.4-.69-.59-1-.35-.65-.52-1-.37-.67-.55-1c-.37-.67-.75-1.33-1.14-2-.21-.36-.43-.72-.65-1.06s-.44-.58-.67-.85a6.48,6.48,0,0,0-.6-.68l-.73-.68a13.54,13.54,0,0,0-1.61-1.21c-.23-.16-.48-.33-.74-.48l-.83-.47c-.55-.31-1.11-.6-1.66-.88h0c-1.05-.54-2.08-1.1-3.12-1.67h0c.57.43,1.13.87,1.7,1.27s1,.69,1.5,1,1.07.73,1.6,1.11a19.17,19.17,0,0,1,1.48,1.22l.53.49c.21.21.4.42.61.64a12.38,12.38,0,0,1,1,1.3c.17.27.34.55.49.83s.31.64.47,1c.32.71.66,1.4,1,2.1s.61,1.34,1,2,.78,1.42,1.22,2.1.84,1.27,1.3,1.88.93,1.26,1.41,1.88c.93,1.23,1.84,2.47,2.78,3.69s1.85,2.38,2.88,3.48c.53.57,1.09,1.1,1.66,1.63s1.22,1,1.84,1.55,1.18.95,1.8,1.36,1.36.87,2.05,1.28,1.38.77,2.08,1.1a11.23,11.23,0,0,0,2,.75,19.5,19.5,0,0,0,2.35.55c.36,0,.72.07,1.08.1l1.12.08c.75,0,1.51.06,2.27,0a10.46,10.46,0,0,0,2.37-.29c.42-.11.85-.21,1.28-.35s.69-.24,1-.37l2.23-.85c.67-.27,1.31-.6,2-.91s1.31-.57,2-.9c.34-.17.68-.35,1-.54a10.49,10.49,0,0,0,1.1-.73c.28-.22.55-.45.82-.68s.56-.46.81-.71A7.61,7.61,0,0,0,193,129.79ZM155.19,89.48c-.67-.18-1.32-.36-2-.58s-1.52-.51-2.28-.78l-1.14-.42c-.35-.14-.72-.29-1.08-.42a41.23,41.23,0,0,0-4.85-1.51c-.89-.23-1.78-.44-2.68-.63l.46-.65c.12-.16.22-.33.34-.48.63-.77,1.27-1.54,2-2.26.35-.39.7-.78,1.07-1.16l1.21-1.22c.51-.47,1-1,1.56-1.4l1.06-.9a17.89,17.89,0,0,1,2.85-1.94c.54-.28,1.1-.53,1.66-.76a15.59,15.59,0,0,1,1.87-.59c.3-.07.61-.12.93-.17a9,9,0,0,1,1,0,6.57,6.57,0,0,1,1.18.16,7,7,0,0,1,.84.38,7.9,7.9,0,0,1,1.13,1,4.89,4.89,0,0,1,.59.84,12.59,12.59,0,0,1,.66,1.71c0,.22.08.44.13.66a9.43,9.43,0,0,1,.08,1.5,7.06,7.06,0,0,1-.19,1.37,13.15,13.15,0,0,1-.85,1.83c-.23.46-.48.92-.74,1.37-.57,1-1.18,2-1.78,3s-1.08,1.7-1.67,2.52Zm28.56,3a5.86,5.86,0,0,1,.53-.83,10.24,10.24,0,0,1,1.66-1.5,9.7,9.7,0,0,1,1.74-.86,6.94,6.94,0,0,1,1.27-.24,8.63,8.63,0,0,1,1.76,0,4.49,4.49,0,0,1,.59.19,4.61,4.61,0,0,1,.82.5,1.4,1.4,0,0,1,.28.32,3.4,3.4,0,0,1,.27.54,4.21,4.21,0,0,1,.11.6,8.23,8.23,0,0,1,0,.86c0,.32-.07.64-.09.95s-.12.8-.2,1.2c-.35,1.61-.78,3.2-1.19,4.8-.12.48-.24,1-.37,1.46a9.51,9.51,0,0,0-.71-1.16c-.27-.37-.55-.73-.86-1.08A12.94,12.94,0,0,0,188.05,97c-.37-.32-.75-.63-1.14-.94-.79-.61-1.6-1.21-2.38-1.84l-1-.82A5.3,5.3,0,0,1,183.75,92.51Zm-19.88,37.91c-.5-.41-1-.82-1.47-1.25s-1-.94-1.47-1.44-1-1.15-1.52-1.75c-1-1.2-1.91-2.43-2.83-3.67l-1.14-1.55.4-.06c.61-.12,1.21-.22,1.81-.38,1.27-.34,2.52-.73,3.78-1.1a14.26,14.26,0,0,0,1.83-.67c.32-.14.63-.29.94-.45s.55-.33.83-.5a19.28,19.28,0,0,0,1.68-1.16,12.26,12.26,0,0,0,1.35-1.25c.89-1,1.78-1.92,2.71-2.83s1.84-1.8,2.71-2.75a27.48,27.48,0,0,0,2.43-3.25c.71-1,1.4-2.11,2.09-3.18.34-.54.67-1.09,1-1.67a11,11,0,0,0,.71-1.74c.18-.6.31-1.2.45-1.8s.25-1.12.35-1.68c.07-.37.15-.74.21-1.11.4.32.81.62,1.21.95s.8.68,1.21,1c.79.64,1.61,1.23,2.4,1.85.4.31.8.62,1.18,1a12.62,12.62,0,0,1,.9.89,13.07,13.07,0,0,1,1.26,1.72c.23.36.47.71.71,1.07,0,.21,0,.41-.05.62-.1,1-.21,2.11-.41,3.15-.07.26-.13.52-.21.78a8,8,0,0,1-.27.78c-.19.46-.4.93-.63,1.38a16.63,16.63,0,0,1-1,1.78c-.41.62-.79,1.25-1.19,1.87s-.77,1.26-1.17,1.87c-.2.3-.42.6-.65.89l-.66.91a22.79,22.79,0,0,1-1.48,1.8c-.91,1-1.81,2-2.69,3-.51.54-1,1.06-1.54,1.57s-1.11,1-1.69,1.5-1.08.88-1.64,1.31l-1.72,1.32c-.35.28-.69.56-1.05.83l-1.06.76-1.21.63c-.36.18-.74.35-1.12.52l-1.22.55-1,.5-.33-.21C165,131.3,164.42,130.85,163.87,130.42Z"/><path class="cls-1" d="M46.48,196.26c0-.68,0-1.37,0-2s0-1.42.06-2.13c.12-1.46.22-2.93.44-4.38h0l.06-.35c.13-.69.26-1.38.43-2.06s.42-1.48.65-2.21a35,35,0,0,1,1.47-3.89,28.17,28.17,0,0,1,1.38-2.54,30,30,0,0,1,1.81-2.54c.58-.67,1.19-1.33,1.83-2a21.27,21.27,0,0,1,2.21-1.81c1.18-.77,2.36-1.52,3.59-2.2s2.59-1.4,3.92-2c2.61-1.19,5.27-2.25,7.88-3.43,1.34-.61,2.68-1.25,4-2,.65-.36,1.27-.73,1.89-1.14s1.4-1,2.06-1.51c1.21-.94,2.4-1.92,3.52-3,.56-.52,1.09-1,1.6-1.6s1.12-1.29,1.65-1.95.91-1.18,1.32-1.8c.21-.33.42-.68.62-1s.36-.7.53-1.05A27.5,27.5,0,0,0,91,143.08a23.05,23.05,0,0,0,.58-2.59c.12-.78.19-1.56.25-2.35s.1-1.54.16-2.31.18-1.48.29-2.23c.14-1,.28-2.1.36-3.16s.08-2.09.1-3.14a21.65,21.65,0,0,1,.26-3.12c.17-1.05.36-2.1.53-3.15s.36-2,.63-3a21.31,21.31,0,0,1,1.31-3.22c0,.12-.11.23-.16.36.38-.81.74-1.62,1.11-2.43a20.56,20.56,0,0,1,1.19-2.22c.49-.75,1-1.47,1.59-2.18.9-1,1.85-2,2.82-3l.87-.83c.28-.27.59-.52.89-.77.5-.42,1-.81,1.55-1.18.69-.45,1.4-.88,2.12-1.29s1.62-.81,2.44-1.18,1.61-.65,2.42-.94l2.34-.85c1-.33,2-.62,3-.93.51-.15,1-.31,1.51-.44s1.24-.3,1.87-.42a57.18,57.18,0,0,1,6.14-.75l2.12-.14,2.53-.2c.74-.07,1.48-.17,2.23-.23l1.18-.08,1.31-.07,1.36,0c.89,0,1.77-.06,2.65-.08l.71,0a1.82,1.82,0,0,1,.33,0c.11,0,.22,0,.32,0,.45,0,.91,0,1.36-.08.93-.08,1.83-.25,2.76-.37h0c-.71,0-1.42,0-2.13,0s-1.34-.09-2-.17c-.16,0-.32,0-.48,0s-.35,0-.52-.06l-1.13-.11c-.65-.06-1.32-.14-2-.22l-1-.11-1-.07-1.07-.06c-.35,0-.69,0-1,0h-4.4c-.76,0-1.52,0-2.27,0l-2.23.14c-.8.06-1.59.14-2.39.23s-1.52.22-2.28.36a38.25,38.25,0,0,0-4.48,1.16c-1.49.44-2.93,1-4.4,1.49-.72.25-1.43.51-2.14.79s-1.37.58-2,.9a25,25,0,0,0-4.1,2.46,32.16,32.16,0,0,0-3.36,2.91c-.59.56-1.17,1.13-1.73,1.72s-1.09,1.21-1.59,1.85A21.48,21.48,0,0,0,95,109.57c-.37.62-.74,1.25-1.07,1.9s-.67,1.36-1,2-.77,1.53-1.13,2.31a15,15,0,0,0-.79,2c-.21.68-.34,1.38-.51,2.07-.34,1.48-.68,3-1,4.48a18.44,18.44,0,0,0-.31,2.45c0,.81-.08,1.62-.14,2.43s-.12,1.47-.22,2.2-.21,1.33-.33,2-.21,1.16-.3,1.74-.13,1.16-.19,1.74c-.12,1.08-.18,2.17-.32,3.25a32.2,32.2,0,0,1-2,6.26c-.22.43-.44.86-.69,1.28s-.55.87-.84,1.3c-.58.83-1.19,1.63-1.82,2.42-.45.51-.91,1-1.38,1.49s-1.2,1.12-1.81,1.66a41.6,41.6,0,0,1-3.42,2.82A41.72,41.72,0,0,1,72,159.52c-1.25.61-2.52,1.17-3.78,1.74s-2.65,1.17-4,1.76-2.74,1.3-4.06,2-2.45,1.47-3.64,2.25c-.71.47-1.41.93-2.06,1.45a16.7,16.7,0,0,0-1.69,1.56c-.58.61-1.13,1.25-1.66,1.89s-1,1.24-1.4,1.9a31.38,31.38,0,0,0-2.26,4.25c-.14.31-.25.65-.37,1s-.28.76-.4,1.15c-.22.68-.43,1.36-.61,2.05s-.38,1.44-.54,2.17-.28,1.59-.36,2.4a33.93,33.93,0,0,0,0,4.51c0,.8.11,1.59.2,2.38s.17,1.49.27,2.22c.22,1.48.43,3,.66,4.42s.43,2.75.65,4.11c0,0,0,0,0,0,0-1.37-.11-2.74-.19-4.11S46.54,197.73,46.48,196.26Z"/><path class="cls-1" d="M103.54,162.69c.18-.23.34-.48.52-.73s.3-.43.44-.65.33-.49.48-.74.37-.64.56-.95.25-.52.38-.78.33-.68.48-1c.23-.51.42-1.06.6-1.59a33.15,33.15,0,0,0,1.06-3.52c.14-.58.27-1.16.39-1.75.07-.4.15-.79.21-1.19s.09-.64.14-1c.18-1.19.24-2.41.32-3.61s.22-2.55.3-3.83a26.76,26.76,0,0,0-.08-3.8c-.16-1.74-.48-3.46-.64-5.2-.07-1.1-.11-2.19-.13-3.29s0-2.39-.06-3.58-.07-2.43,0-3.64c0-.62,0-1.23.09-1.84s.11-1.24.19-1.86c0-.18,0-.36.08-.54a10.57,10.57,0,0,1,.4-1.54c.13-.36.26-.71.41-1.07.36-.73.74-1.46,1.17-2.15l.42-.67c.11-.18.25-.36.38-.54s.47-.6.71-.9a14.35,14.35,0,0,1,1.57-1.55c.32-.24.62-.49.95-.73s.56-.42.85-.61l1-.56c.34-.19.69-.38,1-.55.64-.35,1.31-.63,2-.93,1.33-.58,2.73-1,4.09-1.55l1.07-.37c.91-.3,1.81-.62,2.73-.88l.76-.21c.27-.08.54-.12.81-.19s.83-.16,1.26-.23c1-.14,2-.26,3-.35s1.94-.2,2.91-.28c.6,0,1.2-.07,1.8-.06l2.1.06h0c-.68-.12-1.34-.24-2-.33s-1.2-.12-1.79-.14c-1.2,0-2.41,0-3.61,0-.58,0-1.17,0-1.75,0-.33,0-.66,0-1,.06s-.64.05-1,.09l-1,.14c-.33,0-.65.13-1,.2-.51.1-1,.25-1.54.38a60.1,60.1,0,0,0-7.29,2.47,29.58,29.58,0,0,0-3.29,1.63,8.63,8.63,0,0,0-.75.48c-.31.2-.61.42-.92.64a13.77,13.77,0,0,0-1.34,1.05c-.21.21-.43.41-.63.63s-.46.51-.69.76a13.66,13.66,0,0,0-1.14,1.49,25.9,25.9,0,0,0-1.66,3l-.94,1-2.44,2.66c-.62.68-1.22,1.38-1.81,2.1q-.64.77-1.23,1.59c-.29.42-.58.84-.83,1.28s-.61,1-.91,1.56c-.09.16-.19.32-.27.48a4.09,4.09,0,0,0-.23.47c-.28.59-.56,1.19-.83,1.78-.06.12-.1.24-.15.37l-.39,1a20.91,20.91,0,0,0-.82,2.58c-.25,1-.45,1.9-.61,2.88-.08.48-.16,1-.23,1.44S96,136.5,96,137c-.11.9-.24,1.8-.34,2.7s-.21,1.91-.25,2.87-.09,1.93-.13,2.89c0,.52-.06,1-.08,1.56s-.08,1-.14,1.49a29.38,29.38,0,0,1-.91,3.43c-.2.61-.42,1.22-.66,1.81s-.45,1.08-.7,1.61-.63,1.26-1,1.88-.74,1.26-1.12,1.88-.75,1.18-1.15,1.77c-.22.32-.43.64-.66,1-.09.14-.18.28-.29.42l-.33.4a6.2,6.2,0,0,1-.42.46c-.24.25-.49.48-.75.72-.45.41-.93.81-1.4,1.21-.88.74-1.78,1.43-2.71,2.09l-1.06.71c-.39.27-.79.5-1.19.74-.8.49-1.61.95-2.42,1.41-.43.24-.88.45-1.32.66s-.77.36-1.16.53c-.93.41-1.87.78-2.82,1.15l-1,.36c-.66.22-1.32.44-2,.63s-1.41.43-2.12.6l-2.17.54c-.76.19-1.52.4-2.28.61h0c2-.16,3.94-.3,5.89-.61a40.65,40.65,0,0,0,5.36-1.18c.54-.16,1.06-.33,1.59-.51l1.44-.53a22.73,22.73,0,0,0,2.45-1.15,47,47,0,0,0,5-3.18c.77-.57,1.52-1.18,2.25-1.81a18.08,18.08,0,0,0,2-1.88,14.13,14.13,0,0,0,1-1.21l.79-1.16c.52-.78,1-1.58,1.55-2.37s1-1.63,1.42-2.47a26.31,26.31,0,0,0,1.23-2.76,25.28,25.28,0,0,0,.89-2.8c.13-.46.24-.92.34-1.38s.2-1,.27-1.44.1-.89.12-1.33,0-1.05.06-1.58c0-.92.06-1.83.1-2.75s.11-1.84.22-2.76.26-1.92.38-2.88c.08-.55.15-1.11.23-1.66s.16-1,.25-1.57.23-1.28.39-1.91c.1-.38.18-.77.3-1.15s.26-.85.4-1.28c.08-.26.18-.51.28-.77.16-.41.31-.83.47-1.25l.13-.28.32-.72c.15-.32.29-.63.43-1,.56-1.07,1.1-2.17,1.7-3.22a41.05,41.05,0,0,1,2.36-3.49c.26-.37.53-.73.8-1.1l1.24-1.68a7.91,7.91,0,0,0-.19.81,18.81,18.81,0,0,0-.31,2c-.15,1.21-.18,2.43-.22,3.64s0,2.43,0,3.64,0,2.34,0,3.51a36.51,36.51,0,0,0,.24,3.77c.08.6.18,1.19.26,1.78s.16,1.22.24,1.84c0,.37.08.73.11,1.1s0,.87,0,1.3,0,.86,0,1.29c-.06,1-.14,1.93-.22,2.9s-.17,2-.25,3-.2,1.82-.34,2.73a39,39,0,0,1-.95,4c-.21.69-.43,1.39-.69,2.07-.13.38-.27.74-.41,1.12s-.21.49-.33.74l-.42.83c-.14.25-.29.49-.44.74-.28.48-.59.94-.89,1.41s-.65.94-1,1.38-.64.8-1,1.2-.75.86-1.15,1.28-.9.94-1.37,1.41c-.86.87-1.75,1.7-2.66,2.52l-1.32,1.15-1,.82c-.16.14-.32.28-.49.41L90.68,172c-.5.39-1,.74-1.51,1.11l-.57.41-1.1.73c-.28.17-.55.35-.83.54l-.26.17-1.49.82c-.35.19-.71.41-1.07.58l-1.49.71-.9.42a3.54,3.54,0,0,1-.34.16l-2.83,1.14-2.85,1-4,1.19c-1.13.35-2.27.67-3.4,1-2.37.72-4.74,1.47-7.1,2.22l-.55.17h0c2.45-.39,4.9-.82,7.34-1.26,1.22-.23,2.45-.45,3.66-.7,1.47-.31,2.93-.63,4.39-1l.3-.08,1.19-.36,1.17-.37.68-.22,2.09-.79.76-.29.52-.23,2.17-1A3.59,3.59,0,0,0,85,178l1.11-.59c.48-.25,1-.49,1.41-.77l2-1.27c.53-.33,1-.72,1.55-1.09s.89-.63,1.32-1l1-.78.51-.39,1.64-1.37c1-.81,1.93-1.67,2.86-2.52s1.76-1.72,2.61-2.61c.38-.4.74-.84,1.1-1.26s.47-.53.7-.81S103.31,163,103.54,162.69Z"/><path class="cls-1" d="M121.67,150.12c.22-1.1.37-2.21.55-3.32,0-.34.13-.68.15-1,.07-.68.12-1.35.17-2,0-.37,0-.74,0-1.11,0-.7,0-1.39,0-2.09,0-.38,0-.76-.06-1.14,0-.62-.08-1.25-.12-1.86s-.13-1.1-.2-1.65-.11-.93-.2-1.39c-.18-1-.36-2-.57-2.94s-.48-2.16-.73-3.24c-.2-.9-.39-1.82-.56-2.73-.23-1.2-.45-2.4-.56-3.62a15.2,15.2,0,0,1,.12-3.37,11.56,11.56,0,0,1,.8-2.5,12.49,12.49,0,0,1,1.63-2.5,13,13,0,0,1,1.26-1.2l.7-.6c.24-.19.47-.4.72-.59l.72-.55a14.25,14.25,0,0,1,2-1.16c.7-.32,1.41-.57,2.14-.83.94-.28,1.89-.56,2.85-.76l1.65-.33c.48-.09,1-.13,1.44-.18a7.36,7.36,0,0,1,.81,0h.06a2.83,2.83,0,0,1-.36.16,3.25,3.25,0,0,0-.4.15h0l.56-.13.29-.1s0-.08.06-.1,0-.05,0-.07h0a2.63,2.63,0,0,0-.89-.13c-.23,0-.48,0-.71,0h-.75l-.9,0c-.52,0-1,.09-1.55.14s-1,.1-1.46.18-1.11.19-1.67.3-.89.2-1.33.31a10.35,10.35,0,0,0-1.57.53,11.9,11.9,0,0,0-1.29.64l-.7.41c-.26.15-.51.33-.76.5l-.71.5c-.37.26-.74.51-1.09.79a11.13,11.13,0,0,0-1.41,1.5,12.36,12.36,0,0,0-1.19,1.79,13,13,0,0,0-.9,2.06,12.76,12.76,0,0,0-.52,2.28,17.59,17.59,0,0,0-.1,2c0,.35,0,.7,0,1s0,.83.12,1.25.17,1.1.25,1.66c0,.2.08.4.11.6s.14.7.21,1c.1.52.22,1,.34,1.54.2.9.43,1.79.64,2.69.13.57.27,1.13.41,1.7s.24,1.14.35,1.71c.22,1.05.37,2.1.55,3.16.06.41.07.83.12,1.25s.1,1,.14,1.51,0,1,0,1.54.05,1,.06,1.45,0,1.26,0,1.89c0,.21,0,.42,0,.62s0,.26,0,.38c-.08,1.2-.15,2.39-.2,3.59,0,.41-.07.82-.1,1.23-.06.74-.11,1.49-.16,2.24-.16,2.16-.27,4.32-.45,6.48,0,0,0,0,0,0,.45-2,.87-3.94,1.28-5.93C121.18,152.6,121.43,151.37,121.67,150.12Z"/></g></svg>