<svg xmlns="http://www.w3.org/2000/svg" xmlns:xlink="http://www.w3.org/1999/xlink" viewBox="0 0 251.17 251.17"><defs><style>.cls-1{isolation:isolate;}.cls-10,.cls-11,.cls-2,.cls-3,.cls-4,.cls-5,.cls-6,.cls-7,.cls-8,.cls-9{mix-blend-mode:screen;}.cls-2{fill:url(#radial-gradient);}.cls-3{fill:url(#radial-gradient-2);}.cls-4{fill:url(#radial-gradient-3);}.cls-5{fill:url(#radial-gradient-4);}.cls-6{fill:url(#radial-gradient-5);}.cls-7{fill:url(#radial-gradient-6);}.cls-8{fill:url(#radial-gradient-7);}.cls-9{fill:url(#radial-gradient-8);}.cls-10{fill:url(#radial-gradient-9);}.cls-11{fill:url(#radial-gradient-10);}.cls-12{fill:#def9ff;}</style><radialGradient id="radial-gradient" cx="169.61" cy="208.06" r="5.34" gradientUnits="userSpaceOnUse"><stop offset="0" stop-color="#f1f2ce"/><stop offset="1"/></radialGradient><radialGradient id="radial-gradient-2" cx="143.98" cy="185.88" r="5.34" xlink:href="#radial-gradient"/><radialGradient id="radial-gradient-3" cx="106.71" cy="185.67" r="5.34" xlink:href="#radial-gradient"/><radialGradient id="radial-gradient-4" cx="98.69" cy="213.22" r="5.34" xlink:href="#radial-gradient"/><radialGradient id="radial-gradient-5" cx="56.83" cy="155.81" r="5.34" xlink:href="#radial-gradient"/><radialGradient id="radial-gradient-6" cx="74.47" cy="112.47" r="5.34" xlink:href="#radial-gradient"/><radialGradient id="radial-gradient-7" cx="116.59" cy="134.74" r="5.34" xlink:href="#radial-gradient"/><radialGradient id="radial-gradient-8" cx="156.13" cy="129.65" r="5.34" xlink:href="#radial-gradient"/><radialGradient id="radial-gradient-9" cx="123.36" cy="76.48" r="5.34" xlink:href="#radial-gradient"/><radialGradient id="radial-gradient-10" cx="179.2" cy="37.34" r="5.34" xlink:href="#radial-gradient"/></defs><title>2445646</title><g class="cls-1"><g id="OBJECTS"><path class="cls-2" d="M175,208.06a5.34,5.34,0,1,1-5.34-5.34A5.34,5.34,0,0,1,175,208.06Z"/><path class="cls-3" d="M149.32,185.88a5.35,5.35,0,1,1-5.34-5.34A5.35,5.35,0,0,1,149.32,185.88Z"/><path class="cls-4" d="M112.06,185.67a5.35,5.35,0,1,1-5.35-5.34A5.36,5.36,0,0,1,112.06,185.67Z"/><path class="cls-5" d="M104,213.22a5.35,5.35,0,1,1-5.35-5.35A5.35,5.35,0,0,1,104,213.22Z"/><path class="cls-6" d="M62.18,155.81a5.35,5.35,0,1,1-5.35-5.34A5.34,5.34,0,0,1,62.18,155.81Z"/><path class="cls-7" d="M79.82,112.47a5.35,5.35,0,1,1-5.35-5.34A5.35,5.35,0,0,1,79.82,112.47Z"/><path class="cls-8" d="M121.93,134.74a5.34,5.34,0,1,1-5.34-5.34A5.34,5.34,0,0,1,121.93,134.74Z"/><path class="cls-9" d="M161.48,129.65a5.35,5.35,0,1,1-5.35-5.35A5.35,5.35,0,0,1,161.48,129.65Z"/><circle class="cls-10" cx="123.36" cy="76.48" r="5.34"/><path class="cls-11" d="M184.54,37.34A5.35,5.35,0,1,1,179.2,32,5.35,5.35,0,0,1,184.54,37.34Z"/><circle class="cls-12" cx="179.2" cy="37.34" r="2.55"/><circle class="cls-12" cx="123.36" cy="76.65" r="2.55"/><path class="cls-12" d="M77,112.47a2.55,2.55,0,1,1-2.55-2.55A2.55,2.55,0,0,1,77,112.47Z"/><path class="cls-12" d="M59.58,155.81A2.55,2.55,0,1,1,57,153.26,2.55,2.55,0,0,1,59.58,155.81Z"/><circle class="cls-12" cx="98.52" cy="213.16" r="2.55"/><path class="cls-12" d="M109.26,185.67a2.55,2.55,0,1,1-2.55-2.54A2.55,2.55,0,0,1,109.26,185.67Z"/><path class="cls-12" d="M146.52,185.67a2.55,2.55,0,1,1-2.54-2.54A2.55,2.55,0,0,1,146.52,185.67Z"/><path class="cls-12" d="M172.16,208.06a2.55,2.55,0,1,1-2.55-2.54A2.55,2.55,0,0,1,172.16,208.06Z"/><path class="cls-12" d="M158.68,129.65a2.55,2.55,0,1,1-2.55-2.55A2.55,2.55,0,0,1,158.68,129.65Z"/><path class="cls-12" d="M119,134.74a2.55,2.55,0,1,1-2.55-2.55A2.55,2.55,0,0,1,119,134.74Z"/><rect class="cls-12" x="117.14" y="56.79" width="68.28" height="0.42" transform="translate(-5.21 97.53) rotate(-35.17)"/><rect class="cls-12" x="68.61" y="94.35" width="60.61" height="0.42" transform="translate(-36.77 76.78) rotate(-36.25)"/><rect class="cls-12" x="42.39" y="133.93" width="46.72" height="0.42" transform="translate(-83.24 145.07) rotate(-68.08)"/><rect class="cls-12" x="77.57" y="149.09" width="0.42" height="70.78" transform="translate(-93.38 80.61) rotate(-35.89)"/><rect class="cls-12" x="88.28" y="199.2" width="28.68" height="0.42" transform="translate(-117.79 240.83) rotate(-73.41)"/><rect class="cls-12" x="106.71" y="185.46" width="37.26" height="0.42"/><rect class="cls-12" x="156.58" y="179.85" width="0.42" height="34.04" transform="translate(-94.62 185.44) rotate(-48.86)"/><rect class="cls-12" x="95.27" y="99.83" width="0.42" height="47.56" transform="translate(-58.44 150.09) rotate(-62.08)"/><rect class="cls-12" x="116.33" y="131.98" width="39.97" height="0.42" transform="translate(-15.81 18.55) rotate(-7.36)"/></g></g></svg>