<svg xmlns="http://www.w3.org/2000/svg" viewBox="0 0 251.17 251.17"><defs><style>.cls-1{fill:#fefefe;}</style></defs><title>2445646</title><g id="OBJECTS"><path class="cls-1" d="M157.5,111.7h0a0,0,0,0,0,0,0A0,0,0,0,1,157.5,111.7Z"/><path class="cls-1" d="M192.76,79.14a1.14,1.14,0,0,0-.15-.16l-.16-.12c-.26-.19-.53-.38-.81-.55a10.12,10.12,0,0,0-.93-.47,15.84,15.84,0,0,0-1.64-.7h0c-.11-.07-.23-.13-.34-.21l0,0a2.94,2.94,0,0,0-.52-.3c-.24-.1-.51-.17-.75-.27a12.94,12.94,0,0,0-1.4-.51c-.47-.13-.93-.27-1.41-.37a14.14,14.14,0,0,1-1.43-.34,21.45,21.45,0,0,0-3.1-.71c-1-.14-2-.26-3-.38s-2.09-.26-3.14-.31c-.41,0-.83,0-1.24,0l-.85,0c-.55,0-1.08.09-1.63.14-1.17.1-2.35.15-3.52.23l-1.69.14c-.54.07-1.09.17-1.62.26-1.17.22-2.34.47-3.49.78-1,.28-2,.59-3,1a50.55,50.55,0,0,0-5.59,2.7c-.58.3-1.16.57-1.72.89l-.86.5-.18,0-1.16.17c-.75.12-1.49.27-2.22.43s-1.58.38-2.36.57l-2.45.67c-.73.19-1.47.4-2.21.62-.35.1-.7.22-1,.33l-1,.34c-.75.28-1.48.55-2.2.86s-1.44.64-2.15,1l-.33.17a18.26,18.26,0,0,0-2.14.9c-.56.28-1.1.57-1.65.87s-.89.53-1.32.8a13,13,0,0,0-2.56,2.07c-.65.69-1.2,1.43-1.77,2.16a21.94,21.94,0,0,0-1.57,2.19l-.08.14-.18.16a6.15,6.15,0,0,0-.53.49,7.08,7.08,0,0,0-.5.59,8,8,0,0,0-.84,1.32,9.34,9.34,0,0,0-.51,1.29,10.19,10.19,0,0,0-.36,1.42l-.15.65c-.06.23-.09.44-.14.67s-.11.44-.16.65-.09.41-.14.62-.09.42-.12.64l-.09.65a6.61,6.61,0,0,0,0,1.09c0,.17,0,.35,0,.52,0,0,0,0,0,0,0-.25,0-.51.08-.76v.41h0c.12-.49.22-1,.35-1.47a4.62,4.62,0,0,1,.23-.62c.08-.21.2-.39.3-.6l0-.08c0,.17-.06.33-.09.5s-.07.35-.09.51c0,.41,0,.82-.07,1.22h0c.14-.41.25-.85.4-1.26s.31-.8.48-1.2.31-.76.45-1.14c.07-.19.15-.37.22-.56a1,1,0,0,1,.08-.14.85.85,0,0,0,.06-.17l.09-.32a1.72,1.72,0,0,0,.07-.21c.15-.24.29-.48.45-.72a.71.71,0,0,0-.1.14l.31-.46a9.24,9.24,0,0,1,.73-.9l.79-.93c.5-.61,1-1.23,1.52-1.8.28-.29.59-.58.88-.86l.9-.88c.54-.52,1.08-1,1.65-1.56A18.64,18.64,0,0,1,128.79,90c.4-.24.79-.47,1.19-.68l1-.52c.88-.43,1.78-.83,2.68-1.22s2-.92,3-1.4c.47-.23,1-.46,1.43-.67l1.4-.6c1-.43,1.89-.91,2.88-1.3s1.79-.69,2.64-1.11c.49-.25,1-.49,1.48-.71,0,0,0,0,0,0l.32-.06c-.46.3-.91.61-1.34.94a28.82,28.82,0,0,0-2.73,2.27c-.38.36-.74.74-1.09,1.13a13.63,13.63,0,0,0-.9,1.14c-1.22,1.63-2.4,3.27-3.51,4.94-.57.86-1.13,1.71-1.65,2.58s-1.06,1.72-1.49,2.6-.8,1.72-1.16,2.6c-.19.44-.32.89-.48,1.34s-.29.88-.43,1.33c-.24.75-.47,1.51-.69,2.27l0,.06a19.13,19.13,0,0,0-.57,1.92,27.25,27.25,0,0,0-.58,3.8,28.59,28.59,0,0,0-.2,3.93c0,.69.07,1.38.12,2.07s.1,1.21.19,1.82a15.27,15.27,0,0,0,.38,1.88c.08.29.2.56.29.84s.27.7.4,1.06a22.21,22.21,0,0,0,1.68,3.34,13.17,13.17,0,0,0,1.21,1.54c.23.25.48.5.74.74l.35.31.13.11a1.55,1.55,0,0,0,.17.13l.28.14c.26.2.52.4.8.59a5.83,5.83,0,0,0,1.06.53c.66.27,1.35.51,2,.74.37.11.73.25,1.11.35a11.81,11.81,0,0,0,1.21.27,15.84,15.84,0,0,0,2.29.2,40.77,40.77,0,0,0,4.69,0l1.1-.07,1.17-.11c.78-.09,1.56-.19,2.33-.32,1.45-.25,2.9-.51,4.33-.85a19.45,19.45,0,0,0,4.25-1.49c.68-.34,1.33-.71,2-1.09s1.25-.75,1.85-1.16a35.21,35.21,0,0,0,3.54-2.71c.27-.24.53-.48.78-.73l.74-.79c.21-.24.42-.47.62-.72l.63-.84c.42-.57.78-1.16,1.17-1.75s.68-1.07,1-1.62.58-1.18.82-1.79.45-1.23.64-1.86c.08-.33.18-.66.25-1l.18-1c.1-.62.17-1.25.25-1.88.16-1.28.27-2.56.32-3.84,0-.66,0-1.31,0-2a18.86,18.86,0,0,0-.09-2c-.08-.62-.16-1.25-.28-1.87s-.27-1.29-.43-1.93c-.3-1.2-.63-2.39-1-3.57-.19-.62-.39-1.23-.58-1.85a15.5,15.5,0,0,0-.74-1.92,8.38,8.38,0,0,0-.94-1.64,6.68,6.68,0,0,0-.73-.88,8.88,8.88,0,0,0-.79-.71c-.69-.54-1.42-1.06-2.17-1.55-.51-.35-1-.7-1.5-1.07h0l.82-.44c.9-.45,1.79-.9,2.7-1.34l.74-.25c.63-.22,1.26-.45,1.88-.69.28-.11.55-.22.84-.32s.58-.19.87-.29l1-.19c.35-.07.72-.1,1.07-.15l2.15-.18,4.62-.39h0c-2.24,0-4.48-.05-6.71,0h-.46l.4-.13a19.43,19.43,0,0,1,2.13-.39c.76-.1,1.51-.16,2.26-.21l2,0q.58,0,1.17,0l1.13.08,2.11.14c.45,0,.9,0,1.35.07h.71a3.12,3.12,0,0,0,.61-.11c.15,0,.3,0,.46-.05a2.57,2.57,0,0,0,.46-.07l.21,0a.81.81,0,0,0,.41-.18.47.47,0,0,0,.1-.2A.41.41,0,0,0,192.76,79.14ZM126.47,91.6h0l-.16.13.43-.37Zm31.25,10.57a5.39,5.39,0,0,1,.58.32,4.27,4.27,0,0,1,.44.3,2.4,2.4,0,0,1,.45.45,6.49,6.49,0,0,1,.8,1.39,8.19,8.19,0,0,1,.33,1.2,7.29,7.29,0,0,0-.37-.74,7.85,7.85,0,0,0-1.17-1.56,8.12,8.12,0,0,0-.84-.69c-.28-.2-.56-.4-.85-.58a5.18,5.18,0,0,0-.57-.31,5.51,5.51,0,0,1,.71.08A2.75,2.75,0,0,1,157.72,102.17Zm33.71-23a.92.92,0,0,1-.24,0,13,13,0,0,0-1.39-.22l-1.41-.13-2.17-.19-1.11-.08c-.39,0-.79,0-1.18,0l-1,0c-.43,0-.85,0-1.27,0-.75,0-1.49.12-2.24.22l-1.12.19a7.17,7.17,0,0,0-1.2.27c-.73.23-1.44.49-2.15.77s-1.36.54-2,.83-1.33.61-2,.93L170,82a11.88,11.88,0,0,0-1.46.48,12.9,12.9,0,0,0-1.38.57c-.53.26-1,.54-1.55.82-.9.49-1.76,1-2.67,1.51s-1.81,1-2.69,1.51-1.65,1.09-2.44,1.68c-.4.31-.8.59-1.19.9s-.89.73-1.31,1.09a46.73,46.73,0,0,0-4,4c-.29.33-.55.68-.82,1a13,13,0,0,0-.85,1.29,17.68,17.68,0,0,0-1.11,2.22,16.77,16.77,0,0,0-.85,2.72,20.36,20.36,0,0,0-.32,2.59,22.94,22.94,0,0,0-.07,2.49,9,9,0,0,0,.47,2.77,11.57,11.57,0,0,0,1,2.31,8.81,8.81,0,0,0,.85,1.18,4.05,4.05,0,0,0,1.21.94,6.3,6.3,0,0,0,1.56.63c.32.07.64.12,1,.16a7.58,7.58,0,0,0,.82,0,10.18,10.18,0,0,0,1.57-.12,7.42,7.42,0,0,0,1.5-.44,3.88,3.88,0,0,0,.58-.28c.25-.12.49-.26.72-.4a7,7,0,0,0,1.11-.81,8,8,0,0,0,.8-.85c.23-.29.43-.57.65-.86a6.22,6.22,0,0,0,.5-.76,2.35,2.35,0,0,0,.19-.39,2.47,2.47,0,0,0,.15-.46,4.28,4.28,0,0,0,.11-1.29,6.48,6.48,0,0,0-.06-.76c-.05-.26-.17-.5-.23-.76s-.09-.51-.14-.76a4.82,4.82,0,0,0-.2-.61,6.39,6.39,0,0,0-.35-.81c-.11-.2-.22-.4-.35-.59a5.63,5.63,0,0,0-.57-.72,3.54,3.54,0,0,0-.66-.62,3.63,3.63,0,0,0-.79-.46l-.42-.17a3.62,3.62,0,0,0-.61-.18,3.83,3.83,0,0,0-1.07,0l-.43,0h0a8.55,8.55,0,0,0-.93-.36c-.17-.06-.35-.09-.52-.14a3.27,3.27,0,0,0-.62-.14h0l.33.12h0a6.65,6.65,0,0,0,.61.27,3.65,3.65,0,0,1,.54.32h-.2l.26,0a.57.57,0,0,1,.13.08,7.65,7.65,0,0,1,.67.43,12.66,12.66,0,0,1,1.53,1.52,8,8,0,0,1,1,1.82,7.74,7.74,0,0,1,.28,1,7.63,7.63,0,0,1,.09,1,6.65,6.65,0,0,1-.17,1.6s0,0,0,0a5.85,5.85,0,0,1-.44,1c-.15.21-.31.41-.47.61a7.8,7.8,0,0,1-.7.71h0l.05,0a.12.12,0,0,0-.05,0h0a10.62,10.62,0,0,1-1.62,1.08,5.45,5.45,0,0,1-.87.35,1.91,1.91,0,0,1-.33.06l-.28,0a4.27,4.27,0,0,1-.54-.18,6,6,0,0,1-1.05-.69,6.93,6.93,0,0,1-.68-.64,4.08,4.08,0,0,1-.34-.57c-.12-.24-.21-.49-.31-.73a19.68,19.68,0,0,1-.67-2.32,16.65,16.65,0,0,1-.28-2.33,10.6,10.6,0,0,1,.09-1.59c0-.28.07-.55.13-.84s.13-.51.2-.76.12-.4.19-.6.17-.43.26-.63c.17-.41.36-.82.56-1.22s.43-.81.66-1.21.48-.8.74-1.18c.75-1.1,1.51-2.21,2.38-3.26.44-.53.89-1,1.38-1.54s1-1,1.48-1.47q1-1,2.07-2c.5-.43,1-.85,1.56-1.25s1.1-.78,1.67-1.17,1-.59,1.43-.89l.6-.41c.15-.08.3-.18.45-.27l.63.48c.77.58,1.57,1.12,2.34,1.69.33.26.66.52,1,.8a6.57,6.57,0,0,1,.86.89,7.81,7.81,0,0,1,.71,1.12c.23.45.44.88.62,1.33s.39,1.15.57,1.73.36,1.17.52,1.76.33,1.25.49,1.87.31,1.17.45,1.77.3,1.41.4,2.13.15,1.28.19,1.92,0,1.28,0,1.92,0,1.23,0,1.85c-.06,1.27-.17,2.54-.3,3.8-.07.61-.15,1.23-.25,1.84a13.79,13.79,0,0,1-.37,1.54c-.16.47-.31.94-.49,1.41a13.86,13.86,0,0,1-.6,1.37c-.23.44-.49.89-.75,1.32l-.83,1.36a18.24,18.24,0,0,1-1.31,1.76c-.25.3-.5.58-.76.86s-.59.59-.9.87c-.47.41-.94.83-1.44,1.21s-1.19.92-1.8,1.35-1.18.79-1.8,1.16-1.17.7-1.78,1a20.08,20.08,0,0,1-3.69,1.36c-.7.16-1.39.32-2.09.46-.37.07-.73.15-1.1.21l-1.15.2q-1.12.21-2.25.33l-1.17.11-1.17.09-.86,0c-1,0-2,0-3-.05-.49,0-1,0-1.46-.09a14.54,14.54,0,0,1-1.48-.15c-.34-.07-.67-.15-1-.24s-.77-.24-1.14-.37c-.72-.25-1.43-.5-2.12-.79a6,6,0,0,1-.61-.34c-.21-.13-.4-.28-.59-.42l.12.08-.25-.19s0,0,0,0a.87.87,0,0,0-.17-.21l-.29-.26c-.21-.18-.41-.37-.61-.57s-.64-.7-.93-1.06a17.54,17.54,0,0,1-1.29-2.2c-.38-.76-.71-1.55-1-2.33-.12-.34-.23-.68-.34-1V118.3c0-.94.07-1.88.08-2.81,0-.47,0-.94,0-1.41a10.45,10.45,0,0,1,.14-1.36c.13-1,.31-1.91.47-2.87.07-.44.15-.87.25-1.3s.22-.87.34-1.31l0-.11c.59-1.84,1.29-3.65,2.06-5.44.19-.45.39-.89.61-1.33s.44-.86.67-1.29.42-.79.64-1.18.51-.84.78-1.26.57-.88.86-1.31c.09-.14.19-.28.28-.43.52-.77,1-1.54,1.6-2.29l1.69-2.24c.57-.75,1.13-1.52,1.73-2.25a18.54,18.54,0,0,1,1.95-2A28.44,28.44,0,0,1,149.07,84c1.06-.7,2.14-1.37,3.27-2,.88-.44,1.76-.89,2.62-1.35l1.59-.77c.52-.25,1.06-.48,1.62-.7a32.37,32.37,0,0,1,3.25-1c.92-.23,1.85-.42,2.79-.58.51-.1,1-.18,1.51-.26s1-.11,1.52-.16c1-.12,2.09-.21,3.14-.32.53,0,1.07-.13,1.61-.18s1-.06,1.44-.08c2-.06,4,0,5.94.06.5,0,1,0,1.5.05s.95.07,1.43.13a14,14,0,0,0,1.45.13c.51,0,1,0,1.52.08l.67.08c.55.14,1.1.29,1.64.45.39.12.76.24,1.14.38a12,12,0,0,1,1.12.46c.4.17.79.34,1.16.53l.44.25Z"/><path class="cls-1" d="M116.74,104.93h0Z"/><path class="cls-1" d="M94.55,128.71h0Z"/><polygon class="cls-1" points="113.59 118.63 113.61 118.62 113.6 118.63 113.59 118.63"/><path class="cls-1" d="M122.78,111.12l-.27,0c-.22,0-.45.07-.68.11a14.15,14.15,0,0,0-1.44.3,13.23,13.23,0,0,0-1.33.48l-.58.28c-.23.1-.45.22-.68.34s-.75.41-1.12.63l-1.16.74-.59.39c-.1.06-.2.14-.3.21a1.68,1.68,0,0,0-.24.19l-.1.14-.49.43c-.16.16-.31.33-.46.5-.28.33-.54.68-.79,1-.13.18-.24.36-.38.53l-.37.53c-.23.34-.44.7-.66,1l-.47.79c-.15.24-.31.49-.44.74-.32.56-.59,1.12-.89,1.67h0c.3-.44.58-.9.87-1.34h0a.43.43,0,0,0,0-.07h0l.07-.09h0s0,0,0,0h0c.23-.33.48-.65.72-1s.51-.7.78-1.05l.4-.49c.13-.15.28-.31.41-.47.3-.33.57-.67.88-1s.55-.57.85-.84.36-.29.54-.43l.1,0a2.39,2.39,0,0,0,.22-.12l.28-.19.57-.34,1.17-.73,1.1-.66.59-.34c.18-.1.36-.21.54-.3a8.89,8.89,0,0,1,1.71-.7l.77-.18c.11,0,.22,0,.33-.06a2.83,2.83,0,0,0-.24.25l-.27.29-.3.35c-.16.21-.32.42-.5.63a6.5,6.5,0,0,1-.52.54c-.31.25-.66.47-1,.7l-1.08.8c-.18.12-.35.26-.54.38l-.59.36-1.13.67-.59.35-.57.32c-.39.23-.8.44-1.19.66l-.59.36-.56.36a7.93,7.93,0,0,0-1.06.83c-.33.28-.63.57-.94.86a.28.28,0,0,1-.1.09h0c.25-.17.48-.35.72-.52s.45-.35.69-.51.47-.32.73-.48.5-.28.76-.41h0l.15-.08h0l0,0h0l.76-.37.8-.37.78-.38.77-.41.53-.27-.07,0,.67-.36c.19-.11.37-.2.54-.31.39-.24.75-.5,1.12-.76l.54-.38.53-.37a5.17,5.17,0,0,0,1-.88c.27-.31.49-.65.76-1,.12-.15.24-.3.38-.45l.43-.48c.13-.17.29-.37.16-.56A.59.59,0,0,0,122.78,111.12Z"/><path class="cls-1" d="M79.83,97.33a0,0,0,0,1,0,0h0A0,0,0,0,0,79.83,97.33Z"/><path class="cls-1" d="M142,159.22c-.77.4-1.58.7-2.38,1.05s-1.77.81-2.61,1.27l-1.21.66-1.23.67c-.86.47-1.74.9-2.58,1.4s-1.6,1-2.37,1.49-1.51,1.06-2.26,1.58c-.37.26-.72.56-1.08.84s-.82.72-1.21,1.08l-.93.89c-.31.28-.61.57-.89.85l-.93.9c-.31.31-.6.62-.9.93s-.63.64-1,1-.62.63-.91.94c-.62.65-1.23,1.29-1.83,1.94s-1.15,1.3-1.7,2-1.06,1.34-1.59,2-1,1.29-1.49,1.95-1.08,1.48-1.57,2.24-.89,1.42-1.28,2.15-.58,1.19-.89,1.78-.58,1.11-.89,1.67-.62,1.12-.94,1.68-.57,1-.89,1.54-.86,1.24-1.26,1.88-.75,1.23-1.14,1.83l-.1.15,0,0c-.14.21-.28.41-.43.61a3.51,3.51,0,0,1-.37.4l0,0-.34,0-.15-.09-.06,0a3.06,3.06,0,0,1-.35-.37c-.21-.3-.4-.61-.58-.91s-.42-.67-.62-1-.42-.77-.63-1.16a4.59,4.59,0,0,1-.24-.5c0-.09-.08-.17-.12-.27a.88.88,0,0,0-.3-.34.35.35,0,0,0-.06-.14.75.75,0,0,1,.06.13c-.07-.19-.14-.37-.22-.55-.23-.64-.43-1.27-.63-1.91s-.41-1.43-.56-2.15a21.19,21.19,0,0,1-.38-2.23c-.08-.71-.13-1.41-.15-2.12a15.5,15.5,0,0,1,0-2.36c.1-.84.26-1.67.42-2.51s.26-1.69.39-2.54.31-1.6.46-2.4c.09-.55.18-1.09.29-1.64s.24-1.1.37-1.64.24-1.08.39-1.62.27-1,.42-1.54c.08-.29.17-.57.25-.85.24-.78.53-1.56.81-2.33s.65-1.61,1-2.42.64-1.56,1-2.34.64-1.59.94-2.39.57-1.48.87-2.22a23.36,23.36,0,0,0,.86-2.38c.24-.8.45-1.61.66-2.41a14.76,14.76,0,0,0,.44-2.46,23.33,23.33,0,0,0,.13-2.36c0-.46,0-.9,0-1.35a7.67,7.67,0,0,0-.15-.81l.6-.26,2.13-.9c.73-.3,1.44-.64,2.13-1a26.94,26.94,0,0,0,2.71-1.62l1.3-.9c.45-.31.89-.62,1.36-.89h0a13.15,13.15,0,0,0-1.25.43l-1.1.44c-.77.33-1.55.63-2.33.93-1.5.57-3,1-4.58,1.46-.5.14-1,.31-1.49.5,0,0,0-.08,0-.13l-.39.15-.06,0s0,.08,0,.12l-.38.14c-.79.3-1.56.62-2.33.94s-1.5.61-2.25.91-1.5.59-2.26.86c-1,.36-2,.73-2.94,1.11s-1.9.71-2.89,1a.38.38,0,0,1-.1,0l.46-.29.55-.37c-.24.09-.48.17-.74.24s-.82.24-1.23.34a8.75,8.75,0,0,1-1.31.28l-.54.06-1.39.15h-.17a6.7,6.7,0,0,1-.9.11h-.41a5,5,0,0,1-.56-.06,4,4,0,0,1-.72-.21,6.39,6.39,0,0,1-1.06-.68,7.15,7.15,0,0,1-1-1,1.37,1.37,0,0,0-.25-.29.67.67,0,0,0-.06-.12c0-.14-.06-.28-.08-.43s-.07-.48-.09-.72a8.15,8.15,0,0,1,.14-1.48c.09-.53.18-1.07.31-1.6a4.6,4.6,0,0,1,.25-.61c.1-.18.21-.37.33-.55A21.25,21.25,0,0,1,86,138.6c.25-.27.5-.56.74-.84l.71-.71c.51-.48,1-1,1.46-1.51l.76-.8c.25-.28.48-.57.72-.85l1.17-1.31c.36-.41.71-.82,1.06-1.24.7-.86,1.34-1.73,1.94-2.62.25-.38.48-.75.7-1.15s.29-.59.42-.89c.27-.61.53-1.22.83-1.82.17-.32.34-.66.5-1s.26-.59.38-.89.21-.57.31-.86.26-.77.37-1.16c.38-1.19.85-2.36,1.18-3.57l.3-1,0,.1c.22-.68.46-1.34.72-2s.49-1.34.74-2a28.87,28.87,0,0,1,1.78-3.94c.32-.56.68-1.09,1-1.64l1-1.56a19.27,19.27,0,0,1,1.67-2.06c.58-.62,1.15-1.23,1.8-1.8a12.5,12.5,0,0,1,1.29-1,16.45,16.45,0,0,1,1.58-.94l0,0c.89-.45,1.78-.9,2.61-1.43a15.12,15.12,0,0,0,2-1.59c.26-.21.52-.44.8-.64a9.55,9.55,0,0,1,.9-.62,5.81,5.81,0,0,1,.77-.27,4,4,0,0,0,.68-.27h0l.08,0h0l-.28.1h0c-.33.08-.69.12-1,.17a4.05,4.05,0,0,0-1.23.41c-.71.3-1.37.69-2,1l-.53.28a17.21,17.21,0,0,1-2,.77c-.78.28-1.57.53-2.32.84a12.83,12.83,0,0,0-2.31,1.26,13.73,13.73,0,0,0-2,1.78c-.51.54-1,1.08-1.46,1.65a17.78,17.78,0,0,0-1.4,2.06l-.57,1c-.19.34-.39.66-.58,1a17.5,17.5,0,0,0-1,1.93c-.52,1.23-1,2.47-1.37,3.72-.2.62-.43,1.23-.65,1.85-.11.31-.22.6-.31.9s-.22.71-.32,1.06-.22.8-.33,1.19-.17.49-.26.74l-.27.86c-.19.54-.35,1.09-.51,1.64-.08.28-.18.57-.27.85a0,0,0,0,0,0,0,6.52,6.52,0,0,1-.25.7c-.11.24-.19.49-.32.74s-.26.48-.38.73l-.38.8c-.22.49-.44,1-.67,1.49-.12.26-.24.52-.38.79h0l-1.33,0c-.44,0-.88,0-1.32,0l-1.34-.13q-.63-.06-1.26-.15l-.3-.06a5.55,5.55,0,0,1-.93-.27,4.38,4.38,0,0,1-.54-.23,5,5,0,0,1-.52-.26l-.61-.34c-.2-.11-.4-.25-.6-.37l-.51-.35-.51-.42-.61-.55c-.38-.36-.76-.72-1.12-1.08s-.71-.71-1-1.08c-.11-.13-.21-.27-.33-.4l-.19-.23-.5-.64c-.21-.3-.44-.6-.64-.9l-.42-.69c-.1-.15-.18-.32-.27-.47s-.17-.31-.26-.46-.23-.46-.34-.7-.32-.67-.47-1-.32-.86-.47-1.29-.3-.9-.43-1.35c-.06-.24-.13-.47-.18-.71s-.12-.49-.17-.74l-.12-.74c0-.23,0-.46-.07-.69l0-.33c0-.23,0-.47,0-.7s0-.46,0-.7c0-.44,0-.88.07-1.32s.08-1,.13-1.48c0-.25,0-.51.09-.77,0-.1,0-.2,0-.31s0-.26.06-.38.12-.53.19-.8.11-.36.18-.54.17-.48.26-.7l.64-1.53c.4-.9.87-1.77,1.35-2.65.22-.39.45-.76.67-1.14h0l.48-.72h0q.24-.35.48-.66l.45-.61.46-.63.47-.61L83.07,93,84,91.82c.22-.26.42-.51.64-.75s.45-.51.69-.76l.36-.36c.13-.14.27-.27.41-.4l.64-.58c.38-.32.77-.64,1.18-.93s.82-.59,1.24-.87.94-.6,1.42-.88.89-.52,1.34-.77a21.27,21.27,0,0,1,1.94-.88c.36-.13.72-.27,1.09-.39s.76-.23,1.14-.34l.72-.17c.29-.07.57-.11.86-.16.57-.09,1.15-.16,1.73-.21s1.16-.11,1.74-.15l1.71-.1c.72-.05,1.44-.08,2.15-.11l1.39,0,.69,0c.21,0,.43,0,.64.06l.21.07.16,0,.15,0,.35.12a3.87,3.87,0,0,1,.34.21,8,8,0,0,1,.7.73l.35.33a3.15,3.15,0,0,0,.61.46l.47.23c.15.09.3.16.46.24a8,8,0,0,1,.84.54c.25.2.52.39.79.57l.79.59c.15.12.3.24.46.35s.29.26.45.38l.47.32.5.36a3.42,3.42,0,0,1,.62.7v0c.11.15.22.3.31.45s.22.3.32.46.2.33.29.5l.2.47.18.49a3,3,0,0,1,.18.77h0a2.65,2.65,0,0,0-.11-.79c0-.13-.07-.26-.1-.39a2.23,2.23,0,0,0-.13-.39c0-.14-.1-.28-.16-.42a3.48,3.48,0,0,0-.22-.43c-.08-.14-.17-.27-.24-.4s-.17-.28-.26-.41a1.7,1.7,0,0,0-.26-.38,2.6,2.6,0,0,0-.3-.36,8.08,8.08,0,0,0-.79-.63c-.36-.28-.68-.59-1-.9l-.26-.2-.31-.25-.59-.47a9.3,9.3,0,0,0-1.16-.88c-.23-.14-.46-.26-.7-.39l-.3-.18a3,3,0,0,1-.35-.23,4.39,4.39,0,0,1-.57-.57,6.17,6.17,0,0,0-.48-.54,2.62,2.62,0,0,0-.85-.56l-.46-.16a2.08,2.08,0,0,0-.36,0c-.13,0-.25,0-.38,0l-.46,0c-.56,0-1.13,0-1.69,0h-.19c-.53,0-1.07,0-1.6.06-1.14.05-2.3.1-3.44.18l-1.85.16c-.56.07-1.11.15-1.65.25s-1.16.28-1.72.44-1,.34-1.57.52-1,.43-1.55.67-1,.52-1.51.79a32.69,32.69,0,0,0-2.82,1.78l-.71.52c-.22.16-.43.34-.65.52s-.44.38-.67.58-.38.37-.57.55-.39.39-.57.58-.36.39-.54.58c-.34.37-.64.75-1,1.12l-1,1.18-.52.65c-.16.19-.32.38-.46.58L80,95.36l-.52.72-.43.63-.39.61c-.12.21-.26.42-.38.64s-.3.53-.44.8-.22.41-.33.62-.2.37-.29.56-.24.48-.35.72l-.63,1.46c-.18.44-.35.89-.49,1.35-.08.25-.15.49-.21.74l-.09.41c0,.12,0,.24,0,.36-.07.45-.11.91-.15,1.37s-.08.94-.11,1.42c0,.28,0,.57,0,.85s0,.51,0,.76,0,.44,0,.67,0,.48,0,.72,0,.47.07.7.07.49.12.74c.09.48.21,1,.34,1.45.27.94.61,1.87,1,2.8.1.27.22.52.34.78s.18.39.28.58.21.42.32.62.28.5.41.75l.16.26.3.47c.12.19.26.38.39.56s.3.41.46.61.3.42.47.62l.56.64.23.25.34.36c.17.18.37.37.56.55s.38.35.57.53.4.34.59.52.38.31.58.46.26.19.39.28a3.21,3.21,0,0,0,.3.21l.33.21c.14.07.27.16.42.23.49.27,1,.51,1.57.74a3.59,3.59,0,0,0,.35.12,6.23,6.23,0,0,0,.77.22c.19,0,.4.08.59.11l.39,0q.85.06,1.71.06c.61,0,1.23,0,1.85,0s1.16-.11,1.73-.17c-.14.24-.28.48-.44.72L93,128c-.2.29-.41.57-.6.85s-.46.61-.68.91c-.43.55-.84,1.1-1.29,1.64s-1,1.16-1.52,1.74c-.24.29-.47.58-.72.86s-.49.52-.72.78c-.46.52-.92,1-1.42,1.55s-1,1-1.42,1.56c-.24.28-.44.58-.65.88a8.38,8.38,0,0,0-.65,1.06,5.08,5.08,0,0,0-.45,1.15,6.13,6.13,0,0,0-.11,1.05,15.61,15.61,0,0,0,0,1.81,3.1,3.1,0,0,0,0,1,5.32,5.32,0,0,0,.44,1.25,1.87,1.87,0,0,0,.07.22l.14.24c.07.13.16.25.24.38a8.43,8.43,0,0,0,.54,1c.15.21.26.44.39.66s.33.52.51.78h0a15.91,15.91,0,0,1-.71-1.58v0s0,0,0,0l0,0a6,6,0,0,0,.84.73,4.23,4.23,0,0,0,1.3.62,5.35,5.35,0,0,0,1.33.2,7.18,7.18,0,0,0,.8,0l.56-.11.55-.1.33-.1-.07.06.47-.07,0-.09a0,0,0,0,0,0,0l.74,0,1.14-.07c.4,0,.82-.06,1.21-.11a22.1,22.1,0,0,0,2.42-.5c.87-.23,1.77-.46,2.63-.72s1.59-.5,2.37-.77,1.56-.56,2.33-.86,1.47-.58,2.2-.88l1-.41c0,.11,0,.21,0,.32a30.08,30.08,0,0,1-.4,4.12,20.36,20.36,0,0,1-.43,2l-.54,2c-.24.76-.49,1.53-.8,2.29s-.63,1.49-.93,2.24-.63,1.59-1,2.37-.67,1.51-1,2.28c-.49,1.19-1,2.36-1.47,3.55-.23.59-.47,1.17-.66,1.76s-.4,1.22-.58,1.83c-.46,1.58-.91,3.18-1.23,4.79-.16.81-.37,1.61-.54,2.43s-.31,1.66-.45,2.5c-.07.4-.18.81-.27,1.22s-.18.89-.26,1.34a11.77,11.77,0,0,0-.18,1.19,9.63,9.63,0,0,0-.05,1.2c0,.9,0,1.8.06,2.7s.16,1.61.28,2.42c.07.48.14,1,.24,1.44s.21.89.32,1.33c.21.84.42,1.68.71,2.51a.19.19,0,0,0,0,.08,1.3,1.3,0,0,0,.17.72l.21.46c.15.36.35.69.53,1a11.83,11.83,0,0,0,1.2,1.84h0a8,8,0,0,0,.51.64,5.49,5.49,0,0,0,.43.4,3.65,3.65,0,0,0,.62.45,2.13,2.13,0,0,0,.74.23h.32a4.06,4.06,0,0,0,1.84-.15,2.44,2.44,0,0,0,.55-.35c.12-.11.24-.21.34-.32a5.07,5.07,0,0,0,.36-.45c.26-.38.51-.77.74-1.16.41-.69.78-1.4,1.19-2.1s.91-1.4,1.3-2.11.66-1.21,1-1.81.68-1.19,1-1.79c.71-1.3,1.34-2.61,2.15-3.85.21-.32.42-.63.64-.94s.5-.66.76-1l.76-1,.8-1c.54-.66,1.08-1.3,1.63-2l.85-.95c.3-.32.6-.66.9-1,1.23-1.28,2.56-2.48,3.84-3.73l1-.93c.31-.29.61-.6.94-.9l.93-.87c.29-.28.59-.54.88-.81l1.23-1.13,1-.75c.35-.27.73-.51,1.08-.77.75-.54,1.53-1.06,2.29-1.58l2.26-1.57,1.25-.86c.37-.27.72-.56,1.07-.85,1-.77,1.88-1.57,2.88-2.32l1.51-1.15a7.91,7.91,0,0,0,.63-.52c.24-.21.46-.42.68-.64h0A4.25,4.25,0,0,1,142,159.22Zm-38.8,39.32h0l0,0Z"/><path class="cls-1" d="M154.6,133.06a7.12,7.12,0,0,0-.36-.86c-.08-.18-.17-.34-.24-.52h0l.09.52a4.26,4.26,0,0,1,.1.49,8.68,8.68,0,0,1,.1,1c0,.29,0,.57,0,.86s0,.59-.09.89c-.08.62-.18,1.24-.28,1.87s-.2,1.22-.32,1.83-.26,1.14-.39,1.72c-.07.29-.16.59-.24.88s-.19.66-.3,1a1,1,0,0,0,.06-.16c-.37,1.18-.83,2.33-1.31,3.48s-.93,2.31-1.47,3.45c-.27.58-.56,1.14-.87,1.72-.16.28-.3.57-.46.86s-.35.65-.54,1c0,0,0,0,0,0,.45-.56.88-1.12,1.3-1.7.19-.25.39-.5.58-.76s.36-.51.53-.77c.36-.54.72-1.09,1-1.65s.62-1.13.94-1.69.61-1.13.89-1.69a14.66,14.66,0,0,0,.72-1.7,15.46,15.46,0,0,0,.52-1.85c.13-.6.21-1.21.29-1.82a15.74,15.74,0,0,0,.12-1.82q0-.93,0-1.86a11,11,0,0,0-.2-1.81C154.76,133.63,154.68,133.34,154.6,133.06Z"/><path class="cls-1" d="M112.21,142.06l-.08,0-.09,0Z"/><path class="cls-1" d="M137.11,92.25l.1-.14a2.14,2.14,0,0,1,.13-.19Z"/><path class="cls-1" d="M161.42,105.26a.22.22,0,0,1,0,.1s0,0,0,0A.61.61,0,0,1,161.42,105.26Z"/><path class="cls-1" d="M138.69,146.49c.24-.56.42-1.15.61-1.74.1-.3.2-.6.28-.92s.2-.62.26-.94h0c-.19.36-.42.72-.62,1.08s-.44.74-.66,1.11-.42.73-.64,1.08-.44.69-.67,1c-.08.12-.15.24-.23.35a9.7,9.7,0,0,1-.64.83c-.24.3-.5.59-.76.88-.54.6-1.1,1.18-1.68,1.75s-1.15,1.11-1.76,1.64-1.11,1-1.66,1.51l-1.17.95c-.41.34-.85.66-1.25,1l-1.45,1.3c-.41.37-.8.75-1.21,1.11s-.68.57-1,.87-.6.56-.9.84c-.61.57-1.21,1.15-1.81,1.73s-1.29,1.2-1.92,1.81-1.17,1.2-1.72,1.82c-1.15,1.27-2.35,2.5-3.57,3.71-.32.32-.61.63-.92,1s-.62.62-.91.95c-.6.64-1.19,1.28-1.75,1.94s-1.1,1.29-1.6,2c-.25.34-.53.67-.79,1s-.49.69-.74,1a22.26,22.26,0,0,0-1.37,2.15l-.6,1.12c-.19.34-.35.69-.51,1s-.34.77-.49,1.16a8.74,8.74,0,0,0-.37,1.09,15.91,15.91,0,0,0-.38,2.83h0c.14-.75.29-1.5.5-2.22a10.77,10.77,0,0,1,.76-1.75c.3-.57.64-1.14,1-1.69l.41-.59c.24-.36.48-.7.73-1.05s.52-.69.79-1,.55-.65.83-1,.54-.62.82-.92l.9-1,.86-.93c.61-.64,1.24-1.27,1.85-1.92.28-.3.57-.59.86-.88l1-.93c.64-.61,1.32-1.2,2-1.81.3-.29.63-.59.92-.9l.94-.94c.59-.6,1.16-1.21,1.79-1.78l.87-.8c.11-.09.21-.19.33-.28l.81-.71.62-.53.35-.31c.68-.58,1.37-1.15,2-1.73l-.21.18q.56-.47,1.14-.9c.42-.32.82-.66,1.2-1l1.34-1.14.93-.78c.39-.32.76-.65,1.12-1l.89-.83c.29-.3.57-.62.85-.92a36.54,36.54,0,0,0,3.3-4.12l0,0,.37-.53a17.88,17.88,0,0,0,1-1.62C138.21,147.64,138.45,147.06,138.69,146.49Z"/><path class="cls-1" d="M137,149.71l-.06.1s0,0,0,0Z"/><path class="cls-1" d="M92.09,106.43c.08-.59.19-1.17.32-1.75.11-.42.2-.83.34-1.23s.36-1,.56-1.52a18,18,0,0,1,1.26-2.47c.49-.76,1-1.53,1.53-2.26a14.68,14.68,0,0,1,1-1.12l1.18-1.21h0l-1.52,1a15.09,15.09,0,0,0-1.27,1c-.39.32-.74.66-1.08,1s-.73.73-1.06,1.11a14.79,14.79,0,0,0-1.8,2.58c-.24.46-.47.93-.67,1.41a10.75,10.75,0,0,0-.44,1.32,10.51,10.51,0,0,0-.43,2.87c0,.93,0,1.86.1,2.77a11.32,11.32,0,0,0,.52,2.75q.21.62.48,1.23a9.21,9.21,0,0,0,.58,1.18,16.08,16.08,0,0,0,2.59,2.84h0c-.35-.51-.7-1-1-1.54-.16-.26-.33-.52-.47-.78a5.47,5.47,0,0,1-.33-.69,11.86,11.86,0,0,1-.4-1.41c-.06-.25-.09-.52-.14-.76s-.1-.54-.13-.81a21.84,21.84,0,0,1,.13-3.62C91.94,107.65,92,107,92.09,106.43Z"/></g></svg>