<svg xmlns="http://www.w3.org/2000/svg" xmlns:xlink="http://www.w3.org/1999/xlink" viewBox="0 0 251.17 251.17"><defs><style>.cls-1{isolation:isolate;}.cls-2,.cls-3,.cls-4,.cls-5{mix-blend-mode:screen;}.cls-2{fill:url(#radial-gradient);}.cls-3{fill:url(#radial-gradient-2);}.cls-4{fill:url(#radial-gradient-3);}.cls-5{fill:url(#radial-gradient-4);}.cls-6{fill:#def9ff;}</style><radialGradient id="radial-gradient" cx="54.56" cy="117.63" r="7.03" gradientUnits="userSpaceOnUse"><stop offset="0" stop-color="#f1f2ce"/><stop offset="1"/></radialGradient><radialGradient id="radial-gradient-2" cx="128.6" cy="135.72" r="7.03" xlink:href="#radial-gradient"/><radialGradient id="radial-gradient-3" cx="157.67" cy="150.47" r="7.03" xlink:href="#radial-gradient"/><radialGradient id="radial-gradient-4" cx="169.31" cy="176.15" r="7.03" xlink:href="#radial-gradient"/></defs><title>2445646</title><g class="cls-1"><g id="OBJECTS"><path class="cls-2" d="M61.59,117.63a7,7,0,1,1-7-7A7,7,0,0,1,61.59,117.63Z"/><path class="cls-3" d="M135.63,135.72a7,7,0,1,1-7-7A7,7,0,0,1,135.63,135.72Z"/><circle class="cls-4" cx="157.67" cy="150.47" r="7.03"/><path class="cls-5" d="M176.34,176.15a7,7,0,1,1-7-7A7,7,0,0,1,176.34,176.15Z"/><path class="cls-6" d="M58,117.54a3.35,3.35,0,1,1-3.35-3.35A3.35,3.35,0,0,1,58,117.54Z"/><path class="cls-6" d="M131.88,135.45a3.35,3.35,0,1,1-3.35-3.35A3.35,3.35,0,0,1,131.88,135.45Z"/><path class="cls-6" d="M161.27,150.58a3.35,3.35,0,1,1-3.35-3.35A3.35,3.35,0,0,1,161.27,150.58Z"/><path class="cls-6" d="M172.4,176.15a3.35,3.35,0,1,1-3.35-3.35A3.35,3.35,0,0,1,172.4,176.15Z"/><polygon class="cls-6" points="128.47 135.72 54.56 117.81 54.69 117.27 128.6 135.18 128.47 135.72"/><rect class="cls-6" x="142.95" y="126.49" width="0.55" height="33.06" transform="translate(-49.49 204.9) rotate(-62.76)"/><polygon class="cls-6" points="168.8 176.26 157.67 150.69 158.18 150.47 169.31 176.04 168.8 176.26"/></g></g></svg>