<svg xmlns="http://www.w3.org/2000/svg" viewBox="0 0 153.51 163.32"><defs><style>.cls-1{fill:#fff;}</style></defs><title>2413150</title><g id="OBJECTS"><path class="cls-1" d="M113.08,29.68a19,19,0,0,0-7.59-1,18.84,18.84,0,0,0,1.19,37.64c.51,0,1,0,1.52,0a19,19,0,0,0,14.68-8.91,54.45,54.45,0,0,1-.36,20.19c-4.67,19.63-23.32,38.1-45.37,44.9a4.78,4.78,0,0,0-3.17,6,4.8,4.8,0,0,0,2.33,2.82,4.88,4.88,0,0,0,2.24.55,4.67,4.67,0,0,0,1.38-.21c25.54-7.87,46.38-28.7,51.87-51.81a59.32,59.32,0,0,0,1.43-13C133.28,59.33,132,34.61,113.08,29.68Zm-6.22,8.49a9.3,9.3,0,0,1,7,15.38,9.29,9.29,0,0,1-16.31-5.42,6.11,6.11,0,0,1,0-.74,9.32,9.32,0,0,1,8.63-9.2C106.4,38.17,106.62,38.17,106.86,38.17Z"/><path class="cls-1" d="M47.8,91.28a18.87,18.87,0,0,0-15.38,7.8,54.52,54.52,0,0,1,1.42-18.21C40.17,57.85,62.57,42.77,82,38a4.77,4.77,0,1,0-2.27-9.26C57.61,34.17,32,51.6,24.64,78.33c-4.44,16.1-2.57,42.82,15.56,49.11l.16.06A18.86,18.86,0,0,0,47.53,129h.14a18.84,18.84,0,0,0,.13-37.68Zm-.13,28.14h-.08a9,9,0,0,1-3.61-.76,9.29,9.29,0,0,1,3.68-17.83h.07a9.3,9.3,0,0,1-.06,18.59Z"/></g></svg>