<svg xmlns="http://www.w3.org/2000/svg" viewBox="0 0 251.17 251.17"><defs><style>.cls-1{fill:#fefefe;}</style></defs><title>2445646</title><g id="OBJECTS"><path class="cls-1" d="M60.08,121.6c.62,1.16,1.3,2.3,2,3.41.35.55.73,1.08,1.13,1.59s.89,1.08,1.34,1.61.89,1,1.36,1.51,1,1,1.45,1.54c.13.14.25.28.37.43.38.47.75.95,1.12,1.43s.77,1.12,1.14,1.69a38.53,38.53,0,0,1,1.91,3.52c.31.64.63,1.27,1,1.9.14.27.28.55.44.82s.36.6.57.89a8.35,8.35,0,0,0,.69.88,5.56,5.56,0,0,0,.72.65,3.68,3.68,0,0,0,.91.55,1.72,1.72,0,0,0,.86.17,1.66,1.66,0,0,0,.78-.3,3.44,3.44,0,0,0,.41-.35,3.34,3.34,0,0,0,.32-.48c.21-.3.29-.83.56-1h0a1.32,1.32,0,0,0,.29-.19,1.15,1.15,0,0,0,.25-.37,2.72,2.72,0,0,0,.15-.43,8,8,0,0,0,.26-1.89,13.12,13.12,0,0,0-.11-1.87c0-.34-.09-.67-.12-1s-.06-.64-.1-1a10.74,10.74,0,0,1,0-1.5,16.65,16.65,0,0,1,.2-1.73c.1-.52.2-1,.31-1.56s.27-1.06.43-1.58.27-.95.41-1.43c.26-.76.54-1.51.77-2.28s.43-1.48.66-2.21c.13-.4.26-.79.37-1.2s.21-.87.32-1.31.19-.83.29-1.24c0-.16.07-.32.1-.48l.82.62q.39.33.75.69a9.78,9.78,0,0,1,.68.75c.16.22.31.44.45.67a6.44,6.44,0,0,1,.42.72c.14.24.25.49.37.74l.3.66a13.1,13.1,0,0,1,.58,1.7c.07.3.15.6.21.9s.13.64.19,1c.13.61.28,1.22.43,1.83s.24,1.18.36,1.77.21,1.26.28,1.89.15,1.4.23,2.1.19,1.31.29,2,.26,1.54.4,2.31.27,1.37.41,2.05.33,1.35.53,2,.42,1.34.66,2,.46,1.24.69,1.86c.51,1.36,1,2.72,1.61,4,.16.32.3.64.47,1l.51.9c.34.59.71,1.18,1.09,1.74.19.28.38.55.59.81s.45.59.69.88L99,157.89a19.16,19.16,0,0,0,1.43,1.42l.8.71c.24.21.5.41.76.62.55.46,1.1.92,1.68,1.35s1.11.79,1.69,1.15,1.22-.34,1.81-.06,1.33-3,2.1-.23h0s-.06,1.28,0,1.41c0,.61,0,1.72,0,2.32,0,.33,0,.9,0,1.22,0,.17,0,.47,0,.63s0,.36-.06.52c0,.33,0,.7-.07,1,0,.15-.05.31-.06.46s0,.36,0,.54-.11.61-.16.92-.07.66-.13,1c0,.1,0,.21,0,.31-.16.75-.35,1.5-.57,2.23-.12.35-.24.7-.38,1.05-.07.17-.13.35-.21.52s-.16.36-.25.54c-.21.42-.41.84-.65,1.24l-.49.84c-.12.2.5.32.38.51a6.81,6.81,0,0,0-1,2.66h0s-.49-.15-.35-.27c-.2.29-.77.62-1,.9-.37.55-.89,1.13-1.23,1.69s-.68,1-.95,1.51c-.15.29-.35.58-.49.88s-.31.59-.44.88c-.26.55-.51,1.12-.74,1.69s-.47,1.23-.66,1.86-.3,1.15-.42,1.73-.23,1.28-.34,1.92a.3.3,0,0,1-.06.11,1.1,1.1,0,0,0-.07.36c0,.17,0,.34-.05.51,0,.33,0,.65,0,1l0,.27a1.53,1.53,0,0,0,0,.3v0c0,.08-.68,0-.69.12s-.64,0-.64.07h0c0,.07.56.25.53.3s.21.19.17.25.06.15,0,.22,0,.19,0,.27a2.78,2.78,0,0,0,0,.58,6.51,6.51,0,0,0,.13,1.07c0,.3.11.6.15.89l.06.34c0,.1,0,.21.06.31l.2-.08a.82.82,0,0,0,.21-.11l-.18-.4s-.81-.11-.82-.1l.12-.05s.24.13.24,0,.13-.08.13-.21c0-.35.07-.6.09-.95l0,0a4.27,4.27,0,0,1,.14-.87,1.92,1.92,0,0,1,.18-.35l.12-.15s0,0,0,0l.11-.09.14-.18s0,0,0,0a.76.76,0,0,1,.08-.11l.09-.15,0-.11a.36.36,0,0,1,0-.09,1.48,1.48,0,0,0,.14-.25,2,2,0,0,0,.07-.26,2.64,2.64,0,0,0,.19-.56c0-.17.07-.34.11-.51s.08-.37.13-.56,0-.2.08-.3a.85.85,0,0,0,0-.32c.17-.64.33-1.28.49-1.92s.35-1.28.54-1.91.38-1.07.57-1.61.47-1.17.73-1.75.48-1.05.76-1.56.62-1.14.94-1.7.76-1.26,1.15-1.87l1-1.51c.34-.52.67-1,1-1.58.11-.33.21-.65.32-1,0,0,0,0,0-.06l.68-.85c.21-.29.41-.58.6-.88s.31-.55.46-.82a9.42,9.42,0,0,0,.54-1.16c.14-.38.28-.77.4-1.17a9.15,9.15,0,0,0,.29-1.09c.09-.45.15-.9.22-1.35,0-.09,1.43-.09,1.44-.17s1.5-.05,1.5-.12v0c0,.08-1.46.06-1.49.13,0-.23-.61-.51-.58-.74s-.32-.35-.31-.51.48-.28.5-.45c0-.33.54-.6.56-.93,0-.14,0-.28,0-.41s-.63-.44-.64-.63c0-.38-.38-.81-.43-1.19s-.25-.67-.31-1-.2-.64-.26-1-.21-.63-.3-.94a7.79,7.79,0,0,0-.31-.85,4.48,4.48,0,0,0-.37-.68l-.19-.33c-.34-.58-.62-1.21-1-1.78s-.56-1.06-.86-1.58c0-.06,0-.12-.07-.19-.25-.62-.49-1.25-.71-1.88l-.18-.52c-.06-.17-.1-.35-.15-.52-.1-.34-.19-.69-.28-1s-.14-.56-.2-.84-.11-.59-.17-.88-.08-.46-.11-.7-.08-.49-.11-.74-.08-.69-.11-1,0-.59-.06-.88,0-.52,0-.78c0-.49,0-1,0-1.48s.05-1,.1-1.51c0-.31,0-.61.08-.91l.12-1c0-.25.07-.5.11-.75s.08-.51.13-.77.09-.52.15-.78l.21-.85c.11-.38.22-.76.35-1.13s.18-.51.26-.76a10.8,10.8,0,0,1,.83-1.75,13.61,13.61,0,0,1,1.76-2.3c.44-.47.86-.95,1.32-1.39a11.78,11.78,0,0,1,1.23-1c.23-.16.48-.32.71-.49a6.25,6.25,0,0,1,.7-.43,22.62,22.62,0,0,1,2.28-.92c.32-.12.66-.34,1-.46.6-.23,1.83-.2,1.85-.72h0c0,.36-1.34.13-2,.19-.37,0-.75.12-1.12.16a14.34,14.34,0,0,0-2.76.54,2.54,2.54,0,0,0-.38.16l-.23.12-.59.28a12,12,0,0,0-1.29.75,10.66,10.66,0,0,0-1.53,1.32c-.27.28-.55.55-.81.85s-.59.7-.86,1.07-.59.89-.86,1.35a11.14,11.14,0,0,0-.91,2c-.1.31-.21.62-.3.94s-.13.44-.19.66-.1.35-.14.53-.09.38-.14.58-.08.29-.1.44c0,.33-.11.65-.16,1l-.15,1.1c0,.35-.06.71-.1,1.06s0,.68-.07,1a22.92,22.92,0,0,0,.11,4.14c0,.35.07.69.11,1s.09.69.15,1,.08.44.12.66,0,.27.07.41l.24,1.09c0,.21.1.42.16.62s.07.31.11.45c.1.32.18.64.29,1s.13.4.2.61.12.31.18.47.25.6.38.9c.26.62.55,1.24.85,1.84s.93,1.08,1.24,1.7.85.85,1.08,1.36l0-.11c0,.1-.23.36-.18.45a25,25,0,0,1-2.28-1.09c-.51-.33-1.1-.65-1.61-1s-1-.68-1.53-1.05-1-.75-1.42-1.14l-.74-.63c-.25-.22-.5-.45-.73-.68A33.17,33.17,0,0,1,98,154.93a23.94,23.94,0,0,1-1.45-2.16c-.23-.37-.44-.74-.65-1.12s-.42-.81-.62-1.23c-.26-.6-.5-1.2-.74-1.82s-.49-1.37-.74-2.06-.46-1.27-.67-1.91-.42-1.35-.61-2c-.11-.37-.21-.74-.29-1.11s-.2-.9-.29-1.35c-.15-.77-.29-1.55-.43-2.32s-.21-1.37-.31-2.06-.18-1.38-.27-2.08-.18-1.37-.29-2.06-.27-1.43-.42-2.15-.33-1.33-.51-2-.34-1.24-.55-1.84a16.06,16.06,0,0,0-.86-2c-.18-.32-.36-.63-.55-.93a8.18,8.18,0,0,0-.51-.79,12.61,12.61,0,0,0-.85-1.08,7.26,7.26,0,0,0-1-.89,11.68,11.68,0,0,0-1.86-1.18.06.06,0,0,0,0,0c0-.11.05-.22.07-.33a.72.72,0,0,0,0-.25.88.88,0,0,0,0-.17c0-.29.1-.57.15-.85s.12-.62.17-.93.08-.63.11-1,.06-.73.08-1.1c0-.66,0-1.33,0-2s0-1.32,0-2c0-.34,0-.67-.07-1s-.06-.64-.12-1a6.89,6.89,0,0,0-.29-1.19,6,6,0,0,0-.52-1.15,6.7,6.7,0,0,0-.56-.83c-.13-.16-.26-.33-.4-.48s-.27-.27-.41-.39-.52-.42-.78-.62-.63-.49-1-.71a9.77,9.77,0,0,0-1.31-.71l-.67-.29a3.33,3.33,0,0,1-.58-.33,3,3,0,0,1-.32-.3A2.5,2.5,0,0,1,77,101a6.38,6.38,0,0,1-.53-.82c-.08-.2-.16-.4-.23-.61a3.76,3.76,0,0,1-.17-.66A7.89,7.89,0,0,1,76,98c0-.22,0-.45,0-.67s.06-.63.11-1,.12-.64.19-1,.18-.59.26-.89.19-.65.28-1,.16-.63.22-1a5.75,5.75,0,0,0,.09-1,3.21,3.21,0,0,0-.07-.43,2.14,2.14,0,0,0-.16-.39,1.78,1.78,0,0,0-.23-.31,2.3,2.3,0,0,0-.34-.28A1.68,1.68,0,0,0,76,90a2,2,0,0,0-.35-.07A2.94,2.94,0,0,0,75,90c-.18,0-.44-.1-.61,0s-.25-.14-.32-.11l-.19.09c-.2.09-.29.38-.47.49a8.86,8.86,0,0,0-1.52,1.42,7,7,0,0,0-1.07,1.68,10.49,10.49,0,0,0-.72,1.84,14.4,14.4,0,0,0-.17,1.75,4,4,0,0,0,.1,1.08h0a5.23,5.23,0,0,1,.5-1.81c.14-.33.14-.54.3-.86s.23-.49.38-.76.39-.59.62-.89a5.55,5.55,0,0,1,.73-.8c.25-.2.49-.39.75-.57a6.63,6.63,0,0,1,.81-.48,6,6,0,0,1,1.17-.42h.16a.92.92,0,0,1,0,.16A7.21,7.21,0,0,1,75,94a12.94,12.94,0,0,0-.49,2,10,10,0,0,0-.17,2.12,7.6,7.6,0,0,0,.43,2.25,7.18,7.18,0,0,0,.56,1.15,6.35,6.35,0,0,0,.71.93,3.07,3.07,0,0,0,.49.46,3.72,3.72,0,0,0,.45.33l.28.17c.39.2.81.36,1.2.54a13.86,13.86,0,0,1,2.24,1.42c.18.14.35.29.52.44s.23.25.34.38a4.76,4.76,0,0,1,.83,1.55,6.29,6.29,0,0,1,.17.62c.09.54.16,1.07.22,1.62s.08,1.18.11,1.77,0,1.18,0,1.78,0,1,0,1.58-.07.89-.13,1.33l-.09.69-.09.59-.07.15a1.18,1.18,0,0,0-.09.38c0,.15,0,.3-.07.45l-.18.94c-.12.63-.23,1.26-.38,1.88s-.32,1.23-.49,1.84-.35,1.25-.52,1.87c0,.12-.07.23-.1.35-.21.62-.43,1.24-.62,1.87s-.33,1.2-.51,1.8-.31,1.19-.43,1.79a18.61,18.61,0,0,0-.32,2,10.9,10.9,0,0,0,0,2.06c0,.3.08.6.12.9s.11.65.16,1c.11.62.24,1.23.31,1.85,0,.31.06.61.08.91s0,.6,0,.9a4.46,4.46,0,0,1-.14.89,1.28,1.28,0,0,1-.11.24c-.18.23-1.57.27-1.76.49s-1.62.27-1.63.51h0s1.12.18,1.1.21-.71-.13-.73-.12l-.73-.15h0a8.63,8.63,0,0,0,1.39.19c0-.06.74,0,.8-.06s.49-.11.58-.2.37-.14.48-.22.25-.1.33-.16c-.24.27-.45.54-.71.8a4.74,4.74,0,0,1-.51.37,3,3,0,0,1-.5.17h-.24a1.14,1.14,0,0,1-.25-.06l-.3-.17a6.74,6.74,0,0,1-.75-.76,7,7,0,0,1-.72-1.21,10.14,10.14,0,0,1-.46-1.07c-.17-.43-.34-.87-.52-1.3s-.31-.81-.48-1.22-.4-.9-.61-1.34c-.3-.66-.61-1.31-1-1.94s-.7-1.19-1.07-1.77-.72-1-1.1-1.55a23.19,23.19,0,0,0-1.48-1.8c-.35-.38-.73-.74-1.09-1.11s-.71-.72-1-1.09c-.61-.67-1.22-1.34-1.81-2-.36-.46-.71-.93-1-1.42s-.73-1.09-1.07-1.65-.55-1.23-.86-1.83-.5-1.28-.78-1.91l-.06-.13c-.33-.73-.76-1.42-1.05-2.18a14.8,14.8,0,0,1-.68-2.11,17.46,17.46,0,0,1-.31-2c0-.37,0-.74-.05-1.1s0-.64,0-1c.05-.58.1-1.15.2-1.71a13.45,13.45,0,0,1,.37-1.55,5.9,5.9,0,0,1,.47-1.06,12.62,12.62,0,0,1,1.77-1.95c.1-.09.48-.31.48-.34h0c0,.62-1.29.7-1.81,1.08a5.64,5.64,0,0,0-1.42,1.38,7.18,7.18,0,0,0-.56,1c-.14-.15-.31-.28-.46-.42s-.36-.32-.54-.47a9.18,9.18,0,0,1-1.54-1.87c-.2-.34-.4-.7-.58-1.06-.07-.16-.15-.33-.21-.5s-.18-.44-.26-.66c-.17-.47-.33-.94-.49-1.42s-.26-.8-.38-1.21-.22-.84-.32-1.27-.13-.8-.18-1.2-.1-.82-.12-1.23a22.83,22.83,0,0,1,0-2.34c0-.84.12-1.68.22-2.51,0-.46.13-.92.22-1.37,0-.2.09-.4.14-.6s.09-.34.14-.5l.48-1.26.24-.58c.09-.22.2-.43.31-.64.19-.41.41-.8.62-1.2s.4-.7.61-1,.52-.78.8-1.17c.13-.18.28-.35.42-.52l.57-.66c.31-.36.64-.69,1-1s.39-.4.59-.59.26-.25.39-.37c.41-.35.81-.7,1.23-1A12.74,12.74,0,0,1,62.17,77c.47-.3,1.24,0,1.73-.22s1.21.1,1.7-.12l.45-.2c.22-.1.14-.83.36-.92.41-.17.68-.64,1.11-.79.83-.3,1.62-.67,2.48-.9,1.68-.44,3.34-.87,5.06-1.15,0,0,.08-.06.14-.07.84-.1,1.67-.2,2.51-.28l2.61-.26c.86-.09,1.72-.17,2.57-.23s1.74-.13,2.61-.14l1.29,0a9.86,9.86,0,0,0,1.43-.21c.88-.17,1.73-.42,2.58-.66s1.63-.49,2.44-.74l2.56-.81,2.49-.79,1.19-.38c.42-.14.85-.27,1.27-.43a12.33,12.33,0,0,0,1.29-.57l1.11-.59c.75-.41,1.5-.82,2.24-1.25a22.15,22.15,0,0,0,2.17-1.45c.71-.5,1.4-1,2.1-1.54s1.43-1,2.13-1.59,1.37-1.1,2-1.67c.47-.41.92-.83,1.35-1.27a16.32,16.32,0,0,0,1.32-1.43c.19-.23.38-.47.55-.72s.34-.56.5-.85c.26-.5.48-1,.71-1.54l.07-.07a.91.91,0,0,0,.13-.22c0-.09.08-.19.13-.28s.18-.36.28-.53a3.76,3.76,0,0,1,.25-.31l.17-.16c.15-.13.49.17.65,0s.54.19.72.11l.1,0c.11,0,0-.49.14-.51s0-.21,0-.21,0-.09,0-.08,0,0,.07,0h0l.16.18.13.2a3.16,3.16,0,0,1,.12.37,3.52,3.52,0,0,1,0,.56,6,6,0,0,1-.12.61,3.32,3.32,0,0,1-.25.54,12.6,12.6,0,0,1-1.21,1.5c-.23.26-.47.51-.7.76s-.5.5-.75.75l-1.43,1.48-.72.78c-.23.24-.47.47-.71.69a16.61,16.61,0,0,1-2,1.48l-1.09.67-1.12.64-2.23,1.27-1,.62-1.08.7-.81.58-.85.58c-.56.37-1.13.72-1.7,1.07s-1.19.71-1.79,1l-.86.5c-.29.16-.59.3-.89.45-.86.4-1.73.81-2.58,1.25s-1.68.89-2.53,1.31a24.29,24.29,0,0,1-2.33.89c-.88.29-1.77.57-2.66.83-1.66.51-3.27,1.17-5,1.61-.39.11-.78.19-1.17.29l-1.36.33c-.83.21-1.65.43-2.47.67l-1.31.37c-.41.12-.82.22-1.24.31l-1.21.26-1.22.22c-.2,0-.4.08-.6.13l-.63.2c-.4.14-.79.3-1.17.47a23.27,23.27,0,0,0-2.37,1.25,8.91,8.91,0,0,0-.94.71c-.36.31-.73.63-1.07,1s-.58.59-.85.91-.55.68-.82,1c-.53.71-1,1.42-1.54,2.16a26.87,26.87,0,0,0-1.47,2.42c-.07.13-.13.26-.2.4a5.11,5.11,0,0,0-.27.89c-.08.35-.13.71-.19,1.06s-.11.9-.15,1.36c0,.27,0,.55,0,.83a1.93,1.93,0,0,0,0,.24l0,.5q0,.34.09.69a7.73,7.73,0,0,0,.16.81A12.92,12.92,0,0,0,64.07,97c.3.7.8,1.85.82,1.84h0c.19-.08-.36-2-.58-3a11.66,11.66,0,0,1-.14-1.17c0-.28,0-.51,0-.79s0-.25,0-.4,0-.4,0-.61,0-.44,0-.65.06-.37.08-.56a3.85,3.85,0,0,1,.08-.47c0-.27.11-.53.16-.79.11-.44.2-.88.33-1.31a8.86,8.86,0,0,1,.71-1.45c.2-.35.42-.69.64-1,.57-.87,1.16-1.73,1.79-2.57l.51-.67c.18-.22.36-.42.54-.62a14.27,14.27,0,0,1,1.1-1.1c.22-.19.43-.39.67-.56a10.38,10.38,0,0,1,.88-.59c.59-.36,1.21-.67,1.83-1,.35-.16.7-.32,1.06-.45l.62-.2c.19-.06.4-.09.6-.14.43-.1.85-.19,1.26-.3l1.2-.34c.42-.11.83-.25,1.25-.39l1.25-.41c.82-.27,1.65-.53,2.48-.78s1.66-.46,2.48-.71c.4-.12.79-.27,1.18-.41l1.2-.46c.82-.31,1.64-.61,2.48-.89s1.69-.56,2.53-.86l1.43-.53c.48-.19.95-.41,1.41-.63.87-.43,2-.35,2.85-.77.38-.18,1,.17,1.38,0l.45-.2c.26-.12.28-.76.53-.89.76-.37,1.37-1.07,2.1-1.49s1.4-1,2.11-1.47,1.35-1,2-1.49c.35-.25.69-.51,1-.74s.69-.45,1-.65l2.2-1.27c.75-.43,1.5-.87,2.24-1.33a16.19,16.19,0,0,0,2-1.48,12,12,0,0,0,1-.92c.28-.29.54-.61.83-.9.59-.61,1.17-1.24,1.76-1.84.28-.28.53-.57.79-.86s.56-.65.82-1l.35-.49a6.26,6.26,0,0,0,.34-.55,3.81,3.81,0,0,0,.37-1.2,4.68,4.68,0,0,0,0-.75,2.73,2.73,0,0,0-.22-.79,3.91,3.91,0,0,0-.26-.44,1.75,1.75,0,0,0-.36-.36A1.2,1.2,0,0,0,121,50a2.35,2.35,0,0,0-.37,0,1.75,1.75,0,0,0-.4,0l-.3.09a3.54,3.54,0,0,0-.59.27,4.37,4.37,0,0,0-1.24.94,2.44,2.44,0,0,0-.23.33c-.09.12-.16.24-.24.37l-.18.3-.07.13a.51.51,0,0,0-.06.22c-.37.67-.71,1.35-1.1,2a16.07,16.07,0,0,1-2.52,2.81c-.27.24-.54.49-.82.72l-1.1.89c-.34.27-.68.54-1,.8l-1,.74-2.09,1.51c-.73.53-1.46,1.07-2.21,1.56-.34.22-.69.42-1,.62l-1.06.58c-.7.37-1.4.73-2.11,1.07-.38.16-.75.3-1.14.43s-.86.27-1.29.39l-2.46.74C94.67,68,93,68.5,91.28,69c-1.23.34-2.47.68-3.73.92l-.49.06c-.22,0-.43,0-.65,0H85.13c-.43,0-.86,0-1.28,0s-.87.07-1.3.12c-.86.07-1.7.18-2.56.26l-2.64.29c-.9.09-1.8.17-2.68.32s-1.7.29-2.54.47c-.45.09-.91.19-1.36.3l-1.24.32-1.39.38c-.42.11-.86.2-1.27.34a22.79,22.79,0,0,0-2.22.82l-.27.12c-.42.19-.8.47-1.21.69s-.8.47-1.2.71-.73.47-1.1.7-.72.53-1.07.8-.66.57-1,.86-.69.63-1,1-.62.63-.92,1-.61.68-.9,1a18.86,18.86,0,0,0-1.62,2.32,23.5,23.5,0,0,0-1.26,2.38c-.2.41-.35.85-.52,1.27s-.33.91-.47,1.37a6.21,6.21,0,0,0-.14.62c-.05.21-.1.42-.13.63q-.1.72-.18,1.44c-.1,1-.15,1.93-.16,2.9,0,.43,0,.86,0,1.29s.05.9.1,1.36.15,1,.26,1.52a9,9,0,0,0,.37,1.35,10.53,10.53,0,0,0,.41,1.06c.18.44.37.88.57,1.31a13.78,13.78,0,0,0,1.26,2.25,10.71,10.71,0,0,0,.79,1,5.14,5.14,0,0,0,.4.41c.16.16.33.3.49.45a8.23,8.23,0,0,0,.9.65c.31.19.62.4.93.61a11.3,11.3,0,0,0-.85,2.83,14.63,14.63,0,0,0-.17,2.1,9.84,9.84,0,0,0,.13,2,20.56,20.56,0,0,0,.49,2.2c.19.65.43,1.28.67,1.91a22.68,22.68,0,0,0,.9,2.09C59.46,120.36,59.76,121,60.08,121.6ZM121,50.82h0Zm0,0Zm-.17,0h0Zm0,0Z"/><path class="cls-1" d="M69.42,108.56c-.1,0-.12-.12-.21-.13l-.28,0h0c-.12,0-.28.18-.37.26a2,2,0,0,0-.28.3,2.2,2.2,0,0,0-.21.32,3.21,3.21,0,0,0-.3.8,7.09,7.09,0,0,0-.15.94c0,.38,0,.75,0,1.13a8.1,8.1,0,0,0,.11,1c.1.66-.14,1.31-.06,2,0,.3-.29.59-.28.89v.11s.33.06.32.09a5.15,5.15,0,0,0-.24,1.42,7.2,7.2,0,0,0,.39,1.67h0c.1,0,.1-.87.11-1.17a3.62,3.62,0,0,1,.13-.47,2.78,2.78,0,0,1,.24-.49c.27-.39.58-.79.86-1.18a7.36,7.36,0,0,0,.85-1.4,5.72,5.72,0,0,0,.14-1.67c0-.49-.22-1-.22-1.49h0c0-.22.39-.42.37-.66s.11-.3.09-.46a4.84,4.84,0,0,0-.09-.65,1.76,1.76,0,0,0-.38-.73,1.48,1.48,0,0,0-.3-.26C69.59,108.63,69.52,108.59,69.42,108.56ZM69,111.41c0,.49,0,1,0,1.45,0,.25,0,.51-.07.76s-.12.55-.19.82-.22.59-.33.87l0-.34c.07-.7.08-1.41.1-2.12a.62.62,0,0,1,0-.13,8.52,8.52,0,0,1,.27-1.59.36.36,0,0,1,0-.09A1,1,0,0,0,69,111.41Z"/><path class="cls-1" d="M185.49,137.61c-.2-.28-.4-.54-.62-.81s-.68-.79-1-1.19-.7-.85-1-1.28a15.68,15.68,0,0,0-1.08-1.22l-1.24-1.19c-.64-.63-1.27-1.27-1.94-1.88a14.84,14.84,0,0,0-2.46-1.88l-1.44-.85c-.5-.27-1-.51-1.51-.73s-1-.4-1.54-.58-.91-.33-1.36-.52l-1.37-.64c-.49-.23-1-.48-1.5-.67-.22-.09-.46-.17-.69-.25s-.49-.16-.74-.22a9,9,0,0,0-1.44-.22c-1-.07-2,0-3-.13l-1.31-.11-1.39-.11c-.83,0-1.67-.1-2.5-.12-.44,0-.87,0-1.31,0s-.86,0-1.29-.06l-1.22-.1-1.36-.14q-1.31-.15-2.61-.33l-1.52-.22-2.31-.33c-1.46-.22-2.93-.46-4.39-.76-.74-.15-1.48-.35-2.21-.55-.37-.1-.74-.22-1.11-.34s-.64-.24-.95-.37-.46-.21-.68-.33-.48-.25-.72-.39c-.54-.32-1.07-.66-1.59-1s-1-.67-1.54-1-.95-.7-1.42-1.06l-1.11-.89c-.82-.67-1.6-1.38-2.36-2.12s-1.52-1.51-2.26-2.29-1.58-1.61-2.38-2.4-1.52-1.49-2.29-2.22-1.57-1.43-2.36-2.15-1.58-1.43-2.38-2.14-1.69-1.48-2.56-2.18c-.42-.35-.85-.69-1.28-1s-.88-.66-1.33-1c-.9-.62-1.83-1.18-2.78-1.73s-1.89-1.08-2.85-1.58c-.47-.24-.94-.46-1.4-.7l-1.48-.74c-.5-.25-1-.47-1.54-.7s-1-.44-1.49-.62a28,28,0,0,0-3.07-1A25,25,0,0,0,92.1,90a10.8,10.8,0,0,0-3.11.09,14.92,14.92,0,0,0-2.87.73c-.41.15-.82.33-1.22.51-.58.26-1.15.54-1.72.84a10.83,10.83,0,0,0-1.22.72c-.41.27-.8.57-1.2.86s-.82.6-1.24.88l-1.28.86a9.18,9.18,0,0,0-1.15.93c-.34.34.48.72.23,1.14-.08.13.85.26.85.34h0c0-.15-.47-.61-.15-.91s.07-.42.4-.61.5-.36.88-.53c.76-.34,1.36-.69,2.09-1.1.36-.2.64-.4,1-.6s.67-.38,1-.55c.76-.37,1.53-.7,2.3-1a14.74,14.74,0,0,1,1.82-.68l1-.26c.33-.08.66-.13,1-.18a9.44,9.44,0,0,1,1.59-.1,17.19,17.19,0,0,1,1.76.17c.6.09,1.19.18,1.77.32s1.3.34,2,.54,1.22.41,1.82.65,1.13.47,1.69.72c1,.44,1.93.92,2.88,1.39s1.94,1,2.89,1.52,1.87,1.06,2.77,1.66c.46.31.9.62,1.35.94s.82.62,1.23.94l.28.23c.88.7,1.73,1.43,2.57,2.17s1.56,1.38,2.33,2.08,1.62,1.48,2.41,2.24,1.45,1.45,2.18,2.17c.33.33.66.65,1,1s.62.65.94,1c.62.64,1.23,1.29,1.86,1.93s1.19,1.19,1.81,1.76c.32.31.66.6,1,.9s.71.58,1.07.86c.84.68,1.68,1.35,2.57,2l1.48,1c.44.28.88.57,1.34.83l.65.35c.25.14.52.26.78.38.51.22,1,.41,1.54.58,1,.31,2,.54,3,.76.58.13,1.17.22,1.77.32s1.26.21,1.9.3c1.21.18,2.42.33,3.62.49,2.09.31,4.19.53,6.29.73.5,0,1,.1,1.52.13s1,0,1.51,0a24.6,24.6,0,0,1,3,.24c.82.11,1.64.2,2.47.25.47,0,.94,0,1.41,0s.85,0,1.28.09a6.38,6.38,0,0,1,1.05.24c.43.13.85.29,1.26.46.84.38,1.67.8,2.51,1.18s1.76.72,2.64,1.09,1.75.84,2.61,1.3c.44.24.88.48,1.3.75s.77.53,1.13.81c.55.46,1.07.94,1.58,1.44s1.28,1.25,1.89,1.9,1.15,1.39,1.72,2.1c.27.35.56.68.84,1l.73.9a9,9,0,0,1,.52.84q.24.44.45.9a18.43,18.43,0,0,1,1.13,3.61,8.06,8.06,0,0,1,.13,1.38c0,.58,0,1.15,0,1.72,0,1.1,0,2.2,0,3.3-.06.62-.16,1.23-.27,1.84a14.06,14.06,0,0,1-.47,1.72c-.19.6-.39,1.19-.57,1.8s-.36,1.27-.55,1.89c-.29.81-.6,1.6-1,2.38a18.62,18.62,0,0,1-1.26,2.38,9.07,9.07,0,0,1-.78,1,12,12,0,0,1-1,.93,14.78,14.78,0,0,1-1.3.94c-.28.18-.56.36-.85.52s-.53.28-.8.41l-.85.35c-.17.07-.35.12-.53.18s-.36.1-.53.15c-.7.18-1.41.3-2.12.41-.3,0-.61.07-.92.09l-1.22,0a13.4,13.4,0,0,1-2-.1c-.37-.06-.73-.12-1.09-.21s-.84-.22-1.27-.35c-.77-.25-1.53-.55-2.28-.86a21.8,21.8,0,0,1-2.27-1.13,22.52,22.52,0,0,1-2.26-1.54,9.58,9.58,0,0,1-.77-.66c-.32-.31-.64-.63-.94-.95-.59-.62-1.13-1.3-1.66-2a16.26,16.26,0,0,1-1-1.46c-.3-.52-.56-1.06-.81-1.6-.14-.34-.27-.69-.39-1s-.27-.86-.39-1.3c-.22-.76-.4-1.52-.55-2.29-.13-1.13-.18-2.25-.22-3.38,0-.56,0-1.11,0-1.67s0-1,0-1.49a7.09,7.09,0,0,1,.15-.94c0-.2.09-.39.14-.58s.15-.52.22-.77c.34-1,.71-1.89,1.13-2.8.22-.5.47-1,.73-1.45s.51-.86.79-1.28a8.84,8.84,0,0,1,1.23-1.43,9.93,9.93,0,0,1,1.93-1.1,23.1,23.1,0,0,1,2.29-.82,19.09,19.09,0,0,1,2.61-.63l.69-.05a5.1,5.1,0,0,1,.78,0l.61.11a7.06,7.06,0,0,1,.79.21,6.91,6.91,0,0,1,.77.25c.23.08.45.17.67.27a7.11,7.11,0,0,1,.95.49c.29.18.58.37.86.58a19.24,19.24,0,0,1,1.45,1.41c.45.48.87,1,1.28,1.52a13.46,13.46,0,0,1,.82,1.25c.26.46.5.93.73,1.42a12.67,12.67,0,0,1,.74,2.41c0,.33.09.66.11,1s0,.63,0,.95c0,.47-.1.95-.17,1.42,0,.25-.08.5-.13.75s-.13.48-.2.71a4.89,4.89,0,0,1-1.22,2.11.86.86,0,0,0-.36.23.86.86,0,0,1-.14.13l-.24.22a5.23,5.23,0,0,1-.71.44,4.56,4.56,0,0,1-.6.18h-.4a2.8,2.8,0,0,1-.31-.09,2.77,2.77,0,0,1-.37-.22,4,4,0,0,1-.45-.47l-.12-.18a3.14,3.14,0,0,1-.25-.44c-.25-.62-.59-1.48-.83-2.1s-.29-.82-.75-2h0a21.5,21.5,0,0,1,.35,2.47c0,.4.16.92.23,1.32.05.24.12.53.17.77a4.56,4.56,0,0,0,.34.82,3.39,3.39,0,0,0,.82,1.05,5,5,0,0,0,.47.33,3.9,3.9,0,0,0,.47.2,2.65,2.65,0,0,0,1,.12,4.06,4.06,0,0,0,1-.2,4.28,4.28,0,0,0,.91-.45,5,5,0,0,0,.52-.39l.19-.15a1.08,1.08,0,0,0,.19-.32,5.65,5.65,0,0,0,1.12-1.52,14.88,14.88,0,0,0,.59-1.62,10.9,10.9,0,0,0,.3-1.53,15.61,15.61,0,0,0,.14-1.69,10.47,10.47,0,0,0-.51-3.36,15.11,15.11,0,0,0-1.38-3.07,15.26,15.26,0,0,0-1.94-2.63c-.35-.38-.7-.77-1.06-1.12a10.72,10.72,0,0,0-1.29-1.15,8.13,8.13,0,0,0-1.41-.85,11.33,11.33,0,0,0-1.55-.61,11.92,11.92,0,0,0-1.43-.35c-.28,0-.55-.09-.83-.12s-.51,0-.77,0a8.1,8.1,0,0,0-1.48.19c-.51.11-1,.24-1.51.38-.93.28-1.85.61-2.75,1a12.89,12.89,0,0,0-1.4.68l-.62.38a5.88,5.88,0,0,0-1.21,1.07,11.6,11.6,0,0,0-1,1.33l-.42.65c-.14.22-.26.46-.39.69-.32.58-.59,1.17-.86,1.78s-.56,1.32-.79,2c-.1.27-.19.53-.27.8l-.24.91a9,9,0,0,0-.23,1.5c0,.28,0,.57,0,.86,0,.55,0,1.1,0,1.64s0,1.06,0,1.6.05,1.06.09,1.59a14.39,14.39,0,0,0,.24,1.73c.12.58.27,1.15.42,1.72s.27,1,.44,1.52.4,1.07.65,1.6.47,1,.74,1.42a12.23,12.23,0,0,0,.92,1.34c.35.47.72.92,1.09,1.37a18.43,18.43,0,0,0,2.28,2.31,23.79,23.79,0,0,0,2.74,2,22,22,0,0,0,3,1.48,21.25,21.25,0,0,0,2.95,1.07,15.66,15.66,0,0,0,6.35.28c.54-.09,1.08-.18,1.61-.29.26-.05.51-.12.76-.18s.47-.15.7-.22a6.5,6.5,0,0,0,.61-.25l.89-.4c.24-.11.48-.24.71-.37s.46-.28.69-.42a13.23,13.23,0,0,0,2.45-2,9.69,9.69,0,0,0,1-1.16,12.54,12.54,0,0,0,.83-1.42c.24-.47.46-.95.67-1.44s.42-.95.6-1.44.4-1.08.56-1.64.29-1,.45-1.56c.3-1,.63-2,.88-3,.06-.23.09-.46.13-.7s.1-.58.13-.87a14.37,14.37,0,0,0,.14-1.61c0-1.08,0-2.16,0-3.24,0-.53,0-1,0-1.57a10.66,10.66,0,0,0-.26-1.68,14,14,0,0,0-.41-1.54c-.16-.51-.34-1-.54-1.52a10.79,10.79,0,0,0-.72-1.54A6.65,6.65,0,0,0,185.49,137.61Z"/><path class="cls-1" d="M152.92,141.68v0l0-.06Z"/><path class="cls-1" d="M147,122.13h.16Z"/><path class="cls-1" d="M146.14,101.91l.32.55c.09.15.19.29.29.44.38.58.78,1.14,1.2,1.69l1.21,1.61c.41.56.83,1.13,1.25,1.68s.92,1.19,1.4,1.76.93,1.11,1.4,1.66,1,1.07,1.48,1.57,1,.94,1.49,1.4,1,.88,1.49,1.33l1.18,1.07c.39.37.78.74,1.18,1.1a6.44,6.44,0,0,0,.56.48c.2.16.4.32.61.47.39.28.79.54,1.18.83l.39.33c.11.11.21.23.32.35s.57.72.57.72l-1.11.48h0a7.72,7.72,0,0,1,1.64,2.67l.31-.13c-1.18-2.87-.58-2.34-.94-2.91a8.33,8.33,0,0,0-.67-1.21c-.23-.24-.53-.71-.77-.93-.5-.45-1-1-1.48-1.54-.22-.23-.44-.54-.64-.77s-.5-.59-.75-.86c-.47-.51-1-1-1.45-1.49s-1-1-1.48-1.44-1-1-1.49-1.47-1-1.09-1.45-1.64l-.78-.94-1.28-1.62c-.43-.56-.84-1.13-1.27-1.68s-.83-1.11-1.25-1.66-.74-1.15-1.13-1.73a16.24,16.24,0,0,1-1.16-2.23l-.16-.36a4.23,4.23,0,0,1-.24-.4c-.13-.32-.26-.64-.37-1-.18-.57-.32-1.14-.45-1.73s-.25-1.33-.34-2,.34-1.38.28-2.09c0-.3.48-.6.47-.9s0-.78,0-1.16-.53-1-.54-1.42h-.24s-.07.07,0,.11c0,.32,0,.64.09,1s0,.47.11.7a7.91,7.91,0,0,0,.19.81s0,0,0,0c.18.64.39,1.27.61,1.9s.49,1.23.77,1.83c.15.29.29.6.44.89s.38.69.58,1c.34.6.7,1.18,1.07,1.76s.72,1.08,1.08,1.62.72,1.12,1.09,1.68.68,1.06,1,1.6.67,1,1,1.54.86,1.09,1.31,1.62.94,1.06,1.44,1.56.93.91,1.42,1.33,1.11.91,1.68,1.35,1.07.82,1.61,1.22l1.55,1.15c1.11.82,2.25,1.67,3.37,2.46.14.1.36.37.43.34h0a7.25,7.25,0,0,0-1.59-1.53c-.46-.43-.93-.89-1.39-1.33-1-1-2.1-2-3.17-3-.58-.53-1.17-1.07-1.74-1.62s-1.09-1.08-1.62-1.64-.85-1-1.26-1.52c-.22-.27-.43-.55-.63-.83l-.56-.79c-.35-.51-.67-1-1-1.56s-.71-1.07-1.05-1.6-.71-1-1.08-1.57-.74-1-1.1-1.51-.71-1.06-1-1.6c-.18-.29-.36-.57-.53-.86l-.45-.8c-.22-.39-.44-.79-.63-1.2s-.44-1-.65-1.43l-.27-.67a6,6,0,0,1-.23-.59c-.08-.23-.15-.46-.22-.69l.79,1c.82,1,1.63,2.07,2.45,3.09l1.17,1.46c.39.5.78,1,1.19,1.47s.82,1,1.23,1.43.84,1,1.25,1.44c.82,1,1.64,1.91,2.47,2.85l1.17,1.32,1.14,1.28c.92,1,1.84,2,2.78,3l0,0c.4.44.68.61,1.08,1s.92,1.12,1.08,1h0a9,9,0,0,1-1-1.38c-.33-.48-.61-.83-1-1.3-.79-1-1.56-2-2.38-3.06l-1-1.26-1.17-1.38-2.45-2.84c-.82-.95-1.65-1.9-2.45-2.87l-1.21-1.44c-.39-.46-.77.87-1.17.42.22.18.44,2.31.67,2.31h0s.07-1.7.12-1.67c.24.18.49-.52.74-.34s.53,0,.8.15c1.1.82,2.21,1.39,3.31,2.22.41.31.84.48,1.27.76s.87.5,1.31.77.91.55,1.36.87.76.54,1.14.83.68.56,1,.86l.55.54c.16.15.3.32.45.48l1,1.07c.31.32.62.64.91,1a13.49,13.49,0,0,1,1.39,2.31c.14.29.27.58.39.89s.22.62.33.94.24.67.34,1,.21.66.29,1h0a.24.24,0,0,1,0,.08h0a8.55,8.55,0,0,0-.07-1c0-.34-.08-.67-.13-1s-.1-.62-.16-.92-.16-.7-.25-1-.19-.6-.3-.9-.24-.62-.37-.92-.31-.65-.49-1a9,9,0,0,0-.56-.81c-.44-.58-.9-1.15-1.36-1.71l-.66-.77c-.22-.23-.44-.45-.67-.66s-.49-.45-.75-.65-.61-.47-.92-.69c-.55-.41-1.1-.8-1.68-1.16l-1.66-1c-.56-.37-1.11-.76-1.65-1.16-1.07-.79-2.18-1.53-3.26-2.3l-1-.7-.05,0-.2-.15-.13-.09c-.45-.36-.89-.73-1.32-1.12s-.9-.84-1.34-1.27-.86-.86-1.26-1.31c-.23-.25-.46-.5-.68-.76s-.33-.39-.5-.59-.25-.33-.36-.51-.31-.48-.45-.74c0-.08,0-.17,0-.25l0-.5c0-.17,0-.35,0-.52,0-.32-.11-.72-.43-.88-.09,0,.11.57,0,.58s.19.65.15.67l-.06,0c-.07,0-.42-.58-.47-.52s-.27-.15-.31,0-.12,0-.13.07a3.07,3.07,0,0,0-.06.51,2.47,2.47,0,0,0,.08.6,3.66,3.66,0,0,0,.25.7c0,.63,0,1.24,0,1.87s0,1.39,0,2.08c0,.32,0,.64,0,1s0,.74.06,1.12c.05.7.12,1.4.21,2.09s.21,1.42.36,2.13c0,.17.07.34.11.51s.1.38.15.57c.09.36.2.7.31,1.05,0,.13.09.26.14.39s.12.31.19.46c.17.38.35.75.53,1.12S146,101.64,146.14,101.91ZM144.6,88.34l0,0a.11.11,0,0,1,0,.05s0,.09,0,.13l-.06,0Z"/><path class="cls-1" d="M191.24,84a2.48,2.48,0,0,0-.85.22l-.29.11-.12.07a.91.91,0,0,0-.23.21c-.5.23-.87.75-1.38,1-.34.17-.57.61-.92.77l-.66.3c-.65.29-1.42.3-2.07.62s-1.25.44-1.85.75c-1.11.56-2.26,1.06-3.34,1.68-.63.36-1.27.68-1.9,1s-1.07.65-1.58,1c-.27.18-.52.37-.78.57l-.76.64c-.51.46-1,1-1.46,1.43s-.91,1-1.34,1.44c-.1.11-.2.24-.29.36l-.27.33-.64.89c-.22.31-.42.63-.63.95s-.3.51-.43.77c-.33.64-.66,1.28-1,1.94a15.07,15.07,0,0,0-.69,1.92,15.24,15.24,0,0,0-.42,1.83c-.09.52-.18,1-.23,1.56s-.07,1.07-.09,1.59a10.43,10.43,0,0,0,.49,3.22h0c.13,0-.09-.84-.1-1.25s0-.82,0-1.22l0-.51c0-.19.06-.4.1-.59.07-.4.15-.8.22-1.2s.19-.72.29-1.07.21-.72.32-1.08.33-.87.5-1.3c.08-.19.17-.39.26-.58s.21-.47.34-.7c.25-.48.49-1,.74-1.43l.34-.62c.1-.2.23-.39.34-.57.28-.42.56-.84.87-1.24s.69-.88,1.07-1.3c.76-.84,1.57-1.63,2.38-2.42l.55-.48c.25-.19.49-.4.76-.58l.81-.56.9-.56c.3-.19.62-.36.93-.54l.85-.48c.51-.29,1-.57,1.55-.85,1.22-.63,2.44-1.26,3.67-1.86.87-.41,1.74-.79,2.62-1.16l.84-.37-.29.33c-.23.14-.46.26-.69.39l-.05,0c-1.56.91-3.12,1.85-4.66,2.82l-.94.6-.78.52-.35.23-1.26.91c-.31.23-.61.47-.91.71l-.58.45c-.14.11-.28.24-.41.36s-.48.43-.7.66c-.45.46-.86,1-1.27,1.46-.12.14-.23.31-.34.46s-.27.34-.39.52c-.28.4-.55.8-.84,1.2l-.23.37c-.17.26-.34.52-.49.77s-.15.24-.22.36l-.43.78c-.23.42-.44.85-.67,1.27l-.55,1.09c-.18.35-.35.7-.52,1.06l-.4.85-.16.36c-.34.83-.69,1.67-1,2.51l-.29.77-.2.57-.18.61c-.06.18-.12.37-.17.55-.12.44-.23.87-.33,1.31,0,.14-.06.27-.08.4a4.3,4.3,0,0,0-.08.88c0,.28.11.81,0,.86h0c.22-.1.09-.94.19-1.39a14.21,14.21,0,0,1,.48-1.48l.51-1.31c.15-.39.33-.77.5-1.15s.41-.85.61-1.28.39-.82.58-1.23l.56-1.12c.38-.76.76-1.52,1.16-2.28l.67-1.28c.1-.19.21-.37.31-.55s.17-.33.27-.49c.27-.41.53-.82.79-1.23l.31-.44.5-.71.75-1c.14-.18.29-.34.43-.51s.5-.59.77-.88.4-.39.61-.57l.47-.41c.19-.15.38-.29.57-.45s.61-.48.92-.7l1.26-.91.35-.24c.26-.17.52-.34.77-.52,1.35-.91,2.68-1.83,4-2.78.33-.23.64-.47,1-.7-.64.77-1.28,1.56-1.87,2.38a14.33,14.33,0,0,0-1.12,1.74l-.44.41-.46.48c-.61.67-1.21,1.36-1.76,2.09-.29.37-.57.75-.85,1.13s-.54.79-.82,1.18l-1.64,2.43c-.55.8-1.1,1.61-1.62,2.43-.28.43-.54.86-.8,1.3s-.52.9-.76,1.36c-.45.85-.91,1.7-1.34,2.56s-.77,1.65-1.09,2.5c-.17.47-.34.93-.5,1.4s-.29.92-.41,1.39l-.3,1.12c-.1.34-.21.67-.3,1a23.66,23.66,0,0,0-.41,2.38h0c.13-.5.26-1,.4-1.5.08-.25.15-.49.23-.73s.17-.44.26-.66c.35-.87.64-1.77,1-2.63.22-.52.45-1,.68-1.52s.47-1,.71-1.44c.14-.24.27-.49.4-.73s.31-.55.45-.83l.65-1.18.33-.59c.11-.21.23-.43.35-.63.49-.82,1-1.63,1.52-2.42s1.1-1.61,1.65-2.41l1.56-2.3c.55-.82,1.08-1.65,1.64-2.46l.31-.45c-.14.31-.29.6-.43.91-.27.6-.5,1.23-.73,1.85s-.46,1.37-.67,2.07-.32,1.24-.47,1.87c-.3,1.25-.68,2.48-1.05,3.7-.17.48-.34,1-.52,1.43s-.35,1-.56,1.46a12.69,12.69,0,0,1-.75,1.41c-.24.41-.48.82-.73,1.23l-1.09,1.58c-.35.51-.71,1-1.09,1.51s-.79,1-1.16,1.51l-1.17,1.6c-.39.55-.78,1.1-1.15,1.67l-.55.86a4.18,4.18,0,0,0-.44.93,11.49,11.49,0,0,0-.3,1.32,12.38,12.38,0,0,0-.17,1.61h0c0-.11.07-.22.1-.33a8.26,8.26,0,0,1,.34-.87,6.83,6.83,0,0,1,.44-.8l.27-.41,0,.09a7.17,7.17,0,0,1,1.19-1.27c.44-.41.89-.8,1.32-1.22l.66-.61c.23-.22.46-.45.68-.69.43-.46.85-.92,1.27-1.4a16,16,0,0,0,1.17-1.54c.36-.53.73-1.06,1.08-1.59.25-.37.49-.74.72-1.12s.3-.51.45-.77a12.91,12.91,0,0,0,.9-1.78c.25-.64.47-1.3.7-1.94s.47-1.44.68-2.17.38-1.35.56-2,.28-1.26.43-1.89c.19-.86.42-1.7.68-2.53.19-.56.38-1.14.6-1.69s.53-1.22.8-1.82.49-1.13.76-1.68c.1-.18.19-.36.28-.54s.16-.27.24-.4.26-.43.4-.64c.38-.55.77-1.1,1.18-1.63s.81-1,1.24-1.56.82-1,1.23-1.46.85-.94,1.23-1.46l.14-.18.14-.22a.87.87,0,0,0,.07-.45A.86.86,0,0,0,191.24,84Z"/><path class="cls-1" d="M171.61,118.67l0,0a.75.75,0,0,0,.07-.12Z"/><path class="cls-1" d="M88.54,189.46h0S88.54,189.46,88.54,189.46Z"/><polygon class="cls-1" points="88.63 189.43 88.63 189.43 88.63 189.44 88.63 189.43"/><path class="cls-1" d="M91,189.57l-.27-.28-.24-.21a1.31,1.31,0,0,0-.45-.24,1.76,1.76,0,0,0-.4-.06.83.83,0,0,0-.47.18c0-.36,0-.71,0-1.06a7.71,7.71,0,0,0-.12-1,10.7,10.7,0,0,0-.55-2c-.21-.63-.42-1.27-.66-1.89s-.52-1.29-.81-1.92-.6-1.3-.93-1.94-.67-1.2-1-1.79a19.88,19.88,0,0,0-2.66-3.39l-1.25-1.34c-.35-.37-.67-.77-1-1.17a1.2,1.2,0,0,0-.24-.41l-.18-.19c-.12-.13-.74,0-.85-.15s-.86-.29-1-.57l-.06-.14.53-.23c.46-.06,1.17-.19,1.64-.2a12.18,12.18,0,0,1,1.48,0c.49.07,1,.12,1.53.21s1.19.15,1.76.21c1,.11,2,.19,3,.3l1.93.25c.72.1,1.44.16,2.16.2.31,0,.63,0,.94,0s.7,0,1,0c.64,0,1.29,0,1.94-.08a34.26,34.26,0,0,0,4.15-.71l1.9-.42c.62-.13,1.09-.18,1.7-.32a12.61,12.61,0,0,1,2.17-.49h0c-1.33-.1-2.53-.29-3.87-.35a31.54,31.54,0,0,0-3.89.06c-1.31.09-2.57.17-3.88.22-.67,0-1.32,0-2,0s-1.28,0-1.92-.09-1.13-.11-1.7-.16l-1.83-.15-1.6-.1c-.54,0-1.07-.09-1.59-.15-.71-.09-1.41-.2-2.11-.23a10.51,10.51,0,0,0-1.86.12l-.63.1-.3.05a2.32,2.32,0,0,0-.37.13l-.24.12a1.18,1.18,0,0,0-.27.22.88.88,0,0,0-.18.25,1,1,0,0,0-.08.59,4.39,4.39,0,0,0,.15.6,6.59,6.59,0,0,0,.45,1,4.91,4.91,0,0,0,.66.91l.17.21a.73.73,0,0,0,.26.23l.06,0q.42.54.87,1c.32.38.68.74,1,1.1s.71.74,1.06,1.12.66.73,1,1.11.42.55.62.83.38.59.56.89l1,1.67c.37.58.71,1.18,1.06,1.77s.67,1.2,1,1.81.6,1.17.89,1.76a12.07,12.07,0,0,1,.47,1.12,8.12,8.12,0,0,1,.32,1.17c.07.36.12.71.18,1.07,0,0-.15-.24-.16-.23a3.58,3.58,0,0,1-.64.18h0s.1.27.09.28.1.12.12.11.19,0,.27-.06a3,3,0,0,1,.59-.15s.07,0,.1,0a1.42,1.42,0,0,1,.22.07,2.09,2.09,0,0,1,.28.17s-.2.19-.17.22a7.21,7.21,0,0,1,.62,1.58l.06.13c.13.28.51.43.59.72a7.36,7.36,0,0,1,.33.7,10.64,10.64,0,0,1,.24,1.09c0,.41.08.8.1,1.21s0,.75.06,1.13,0,.7,0,1.05l-.13.07a.94.94,0,0,0-.22.12,4.17,4.17,0,0,0-.4.3l-.82.67a10.59,10.59,0,0,1-1.71,1.1l-.2.08a1.78,1.78,0,0,0,.11-.65,1.22,1.22,0,0,0-.22-.62c0-.07-.11-.12-.16-.18a3.94,3.94,0,0,1-.14-.49,6.46,6.46,0,0,1-.11-.75l-.09-1c0-.36-.08-.72-.14-1.08l-.09-.52a.5.5,0,0,1,0-.12,1.15,1.15,0,0,0-.15-.44l-.06-.12c-.16-.64-.29-1.29-.47-1.93s-.39-1.3-.61-1.94-.47-1.28-.75-1.91-.62-1.35-.93-2-.57-1.16-.87-1.74-.69-1.25-1.07-1.86a40.91,40.91,0,0,0-2.4-3.41c-.22-.28-.44-.57-.66-.84l-.57-.75-.72-.9c-.23-.27-.46-.53-.7-.79-.95-1.07-1.86-2.18-2.78-3.27-.56-.66-1.12-1.32-1.68-2l-.47-.61a9.85,9.85,0,0,1-1.08-1.71,7.22,7.22,0,0,1-.5-1.44,4.31,4.31,0,0,1-.06-.8,2.32,2.32,0,0,1,.06-.38,1.47,1.47,0,0,1,.14-.28,2.93,2.93,0,0,1,.37-.42,8.75,8.75,0,0,1,1.52-1c.55-.29,1.09-.56,1.64-.83l.89-.4a5.82,5.82,0,0,1,.83-.29c.62-.19,1.25-.35,1.89-.5l3.72-.9c1.26-.31,2.53-.59,3.8-.85s2.55-.48,3.82-.75,2.51-.64,3.76-1l.87-.26c.32-.1.63-.21,1-.33.58-.22.92-.4,1.5-.61.22-.09.43-.21.43-.19h0c0-.13-1,.18-1.67.34s-1.1.26-1.72.38L90.3,158c-1.28.19-2.53.34-3.8.57s-2.54.49-3.81.78-2.52.6-3.78.91c-.64.16-1.28.31-1.92.48-.3.07-.65,0-.95.1a6.79,6.79,0,0,0-.92.16l-.38.17c-.48.22-.9.6-1.38.83-.28.14-.53.36-.81.52s-.55.33-.82.5a6.33,6.33,0,0,0-.8.59,3.14,3.14,0,0,0-.57.58,2.39,2.39,0,0,0-.44,1.39,5.55,5.55,0,0,0,.06.82,6.52,6.52,0,0,0,.4,1.37,9.89,9.89,0,0,0,1.39,2.4c.47.61,1,1.2,1.43,1.79s.87,1,1.29,1.52l1.39,1.67.66.78c.24.26.48.52.71.8l.35.42c.86,1.11,1.71,2.22,2.51,3.36a33.76,33.76,0,0,1,2.2,3.54c.21.4.4.81.6,1.22.27.59.55,1.18.81,1.77s.56,1.23.81,1.86.47,1.3.66,2,1.94,1.41,2.1,2.08c.07.32,1.77.74,1.77,1.05v0c0,.09-1.58.12-1.57.18s-.74.15-.72.24-.34.23-.32.35c.12.63,0,1.25.12,1.89a10.56,10.56,0,0,0,.13,1.13,3.93,3.93,0,0,0,.19.58c0,.06,0,.12.06.18s1,0,1.07,0,1-.07,1,0h0c0,.07-1.09.32-1.12.42s-.58.3-.62.42-.29.29-.29.42-.13.19-.13.27-.06.08-.06.12a1,1,0,0,0,.24.61,1,1,0,0,0,.55.29,2.11,2.11,0,0,0,.35,0,1.9,1.9,0,0,0,.53,0,3.74,3.74,0,0,0,.86-.27,10.13,10.13,0,0,0,1.69-1c.49-.34.94-.76,1.41-1.13.15-.12.3-.23.44-.36a1.24,1.24,0,0,0,.29-.54,3.15,3.15,0,0,0,.06-.61c0-.34,0-.68-.05-1,0-.64-.1-1.29-.17-1.93a10.56,10.56,0,0,0-.5-2.14,7.14,7.14,0,0,0-1-1.84A6.82,6.82,0,0,0,91,189.57Z"/><path class="cls-1" d="M88.56,189.46h0Z"/><path class="cls-1" d="M109.59,162.68v0a.05.05,0,0,1,0,.05A.16.16,0,0,0,109.59,162.68Z"/><path class="cls-1" d="M187.71,87.38h0Z"/><path class="cls-1" d="M187.64,87.43l0,0h0Z"/><path class="cls-1" d="M141.81,162.81l-.65,0c-.09,0-.18.56-.27.56-.4,0-.77.54-1.17.53h-.2l-1.46,0h.21c-.46,0-.93-.6-1.39-.62-.66,0-1.33-.38-2-.45s-1.29-.27-1.94-.36-1.32-.24-2-.27-1.48-.09-2.22-.06c-.33,0-.65,0-1,0s-.67.07-1,.12c-.66.1-1.32.24-2,.39s-1.18.33-1.77.51a7.13,7.13,0,0,0-.85.38l-.06,0s-.08,0-.11,0l.09-.21,2.09-3.76c.64-1.15,1.25-2.32,1.86-3.48.29-.54.58-1.08.86-1.62s.67-1.31,1-2c.12-.26.25-.53.35-.79l.47-1.2c.12-.33.22-.68.33-1s.18-.61.26-.92l.12-.47c.06-.22.11-.44.16-.67s.08-.55.11-.82.79-1.16.82-1.58c0-.71,1-1.94.75-2.54l0-.07-1.34.61c-.3.13-.3,1.17-.44,1.72s-.35,1.36-.56,2-.42,1.08-.65,1.6c-.12.29-.26.59-.39.88s-.25.54-.38.79-.36.69-.53,1.05l-.15.27c-.12.21-.25.43-.36.66l-.37.68c-.36.64-.71,1.3-1.06,1.95-.65,1.22-1.29,2.43-2,3.64s-1.25,2.25-1.87,3.38c-1,1.87-2.09,3.74-3.21,5.55-.72,1.11-1.45,2.21-2.12,3.35s-1.36,2.3-2,3.45-1.34,2.35-2,3.5l-1,1.72-.48.78c-.17.27-.33.56-.49.84-.63,1.15-1.27,2.3-1.87,3.46-.33.63-.66,1.27-1,1.89s-.65,1.15-1,1.73-.59,1.12-.85,1.7-.5,1.27-.72,1.92c-.11.31-.21.62-.29.94s-.19.62-.25.94a14.92,14.92,0,0,0-.25,2c0,.4,0,.81,0,1.22a2.21,2.21,0,0,0,0,.35.15.15,0,0,0,0,.07,2.53,2.53,0,0,0-.07.48,3.26,3.26,0,0,0,0,.54l.09.41a2.18,2.18,0,0,0,.27.58c.16.24.32.47.49.7s.32.46.47.7.29.46.44.68.37.5.56.74.4.49.62.73a3.57,3.57,0,0,0,.27.28c-.07,0,.17.75.1.78s-.11.92-.32,1l-.28.13c-.1,0-.53-.61-.63-.56s-.64-.11-.88,0c-.43.22-.93.29-1.35.54-.81.48-1.66.89-2.5,1.31a3.78,3.78,0,0,1-.46.1l-.23,0-.18-.05-.18-.11a3.24,3.24,0,0,1-.36-.38c-.17-.22,0-.61-.11-.87s.19-.46.12-.61l0,0c-.07-.14-.43-.15-.47-.31s-.22-.27-.24-.44a5.09,5.09,0,0,1-.1-.51c0-.18,0-.33,0-.51s0,.93.08.75.08.47.26.47h0c-.24,0-.3-.69-.43-.37s-.19,0-.24.3c0,.14,0,0,0,.11a1.71,1.71,0,0,0,0,.32,3.35,3.35,0,0,0,.13.69l0,.21a1.45,1.45,0,0,0,.09.22,4.39,4.39,0,0,0,.47.88,2.8,2.8,0,0,0,.39.46,1.47,1.47,0,0,0,.37.24,1.45,1.45,0,0,0,.5.11,2,2,0,0,0,.8-.17l.42-.18.87-.42c1-.55,2-1.1,3.07-1.63l1-.5a4.17,4.17,0,0,1,.77-.28.67.67,0,0,0,.58-.32A.56.56,0,0,0,108,203a.5.5,0,0,0,0-.21,1.43,1.43,0,0,0-.12-.21,5.25,5.25,0,0,0-.53-.62c-.17-.19-.35-.39-.53-.57l-.55-.59-.49-.57c-.16-.19-.31-.38-.47-.56l-.51-.51a6.88,6.88,0,0,1-.53-.55c-.1-.12.65-.22.58-.36s.59-.4.59-.62v-.05c0-.17-.82-.36-.82-.52,0-.54-.33-1.09-.25-1.61a12.2,12.2,0,0,1,.18-1.61c.1-.3.11-.6.23-.9s.2-.6.34-.9c.26-.57.5-1.15.8-1.7.65-1.18,1.37-2.32,2.06-3.48.34-.56.65-1.14,1-1.72s.63-1.15,1-1.72.67-1.14,1-1.71c.17-.27.32-.54.49-.81s.36-.54.52-.81l1.11-1.81c.33-.52.65-1,1-1.58s.71-1.21,1.07-1.82l1-1.66c.61-1,1.22-2,1.85-3l1.09-1.64c.41-.62.8-1.25,1.19-1.88s.66-1.13,1-1.71c.23-.39.45-.79.68-1.19a6.17,6.17,0,0,1,.86-.14l1.63-.08c.53,0,1.07-.05,1.61-.06.27,0,.54,0,.81,0l.9,0,.67,0c.63,0,1.25.06,1.88.14s1.34.18,2,.28,1.28.19,1.92.26l1.18.13c.35,0,.7,0,1,0s.67,0,1,0h1l1.22,0c.3,0,.59,0,.89-.08l.78-.09c.43-.08.87-.15,1.3-.24.66-.12,1.32-.26,2-.4,1.16-.26,2.32-.52,3.48-.81h0c-1.31,0-2.75,0-4.12,0Z"/><path class="cls-1" d="M134.57,158.9h0Z"/><path class="cls-1" d="M134.59,158.9h0Z"/><path class="cls-1" d="M149.2,158.32l-1.65,0-.85.05-.83.07-1.84.18-.94.07-.73.05-.79.07-1.09.08-.68,0-.59,0-.25,0c-.54,0-1.08-.78-1.63-.78s-1.1-.82-1.65-.82h0c-.36,0,.5.49.5.52h0l0,1.31-.09,1.49-1.6-.6h0c-.23,0,3.61-1,3.61-1v0a24.31,24.31,0,0,0-2.91-.31l-1.67.22-.5,0c.15.34,1.11.18,1.69.3s1.18.19,1.78.3c.3,0,.55.94.85,1s.52.93.81,1l.57.07c.09,0,.21-.84.3-.84.36,0,.75-.4,1.11-.39.57,0,1.14-.22,1.71-.23.29,0,.59-.15.89-.17s.48-.09.72-.12l.85-.12,1-.18c.58-.1,1.15-.23,1.72-.34s.92-.16,1.38-.23,1-.15,1.47-.21.84-.07,1.32-.11,1.32-.25,1.39-.11h0c-.12-.27-1.09-.13-1.68-.17S149.78,158.33,149.2,158.32Z"/></g></svg>