<svg xmlns="http://www.w3.org/2000/svg" xmlns:xlink="http://www.w3.org/1999/xlink" viewBox="0 0 251.17 251.17"><defs><style>.cls-1{isolation:isolate;}.cls-2,.cls-3,.cls-4,.cls-5,.cls-6,.cls-7{mix-blend-mode:screen;}.cls-2{fill:url(#radial-gradient);}.cls-3{fill:url(#radial-gradient-2);}.cls-4{fill:url(#radial-gradient-3);}.cls-5{fill:url(#radial-gradient-4);}.cls-6{fill:url(#radial-gradient-5);}.cls-7{fill:url(#radial-gradient-6);}.cls-8{fill:#def9ff;}</style><radialGradient id="radial-gradient" cx="54.99" cy="218.77" r="7.03" gradientUnits="userSpaceOnUse"><stop offset="0" stop-color="#f1f2ce"/><stop offset="1"/></radialGradient><radialGradient id="radial-gradient-2" cx="115.13" cy="200.65" r="7.03" xlink:href="#radial-gradient"/><radialGradient id="radial-gradient-3" cx="97.66" cy="150.98" r="7.03" xlink:href="#radial-gradient"/><radialGradient id="radial-gradient-4" cx="174.44" cy="167.93" r="7.03" xlink:href="#radial-gradient"/><radialGradient id="radial-gradient-5" cx="134.33" cy="49.5" r="7.03" xlink:href="#radial-gradient"/><radialGradient id="radial-gradient-6" cx="130.97" cy="29.31" r="7.03" xlink:href="#radial-gradient"/></defs><title>2445646</title><g class="cls-1"><g id="OBJECTS"><path class="cls-2" d="M62,218.77a7,7,0,1,1-7-7A7,7,0,0,1,62,218.77Z"/><path class="cls-3" d="M122.16,200.65a7,7,0,1,1-7-7A7,7,0,0,1,122.16,200.65Z"/><path class="cls-4" d="M104.69,151a7,7,0,1,1-7-7A7,7,0,0,1,104.69,151Z"/><path class="cls-5" d="M181.47,167.93a7,7,0,1,1-7-7A7,7,0,0,1,181.47,167.93Z"/><path class="cls-6" d="M141.36,49.5a7,7,0,1,1-7-7A7,7,0,0,1,141.36,49.5Z"/><circle class="cls-7" cx="130.97" cy="29.31" r="7.03"/><path class="cls-8" d="M134.05,29.31A3.35,3.35,0,1,1,130.7,26,3.35,3.35,0,0,1,134.05,29.31Z"/><path class="cls-8" d="M137.4,49.59a3.35,3.35,0,1,1-3.35-3.35A3.35,3.35,0,0,1,137.4,49.59Z"/><path class="cls-8" d="M177.53,167.84a3.35,3.35,0,1,1-3.35-3.35A3.35,3.35,0,0,1,177.53,167.84Z"/><path class="cls-8" d="M118.4,200.41a3.35,3.35,0,1,1-3.35-3.35A3.35,3.35,0,0,1,118.4,200.41Z"/><path class="cls-8" d="M58.58,218.62a3.35,3.35,0,1,1-3.35-3.35A3.35,3.35,0,0,1,58.58,218.62Z"/><path class="cls-8" d="M101,150.91a3.35,3.35,0,1,1-3.35-3.35A3.35,3.35,0,0,1,101,150.91Z"/><rect class="cls-8" x="132.1" y="29.18" width="0.55" height="20.55" transform="translate(-4.66 22.12) rotate(-9.39)"/><rect class="cls-8" x="153.84" y="46.28" width="0.55" height="124.88" transform="translate(-26.76 55.28) rotate(-18.74)"/><rect class="cls-8" x="110.86" y="183.85" width="67.5" height="0.55" transform="translate(-70.96 92.78) rotate(-28.89)"/><rect class="cls-8" x="53.87" y="209.24" width="62.53" height="0.55" transform="translate(-57.48 34) rotate(-16.98)"/><rect class="cls-8" x="36.49" y="184.49" width="79.91" height="0.55" transform="translate(-120.73 151.54) rotate(-57.96)"/><rect class="cls-8" x="51.18" y="89.84" width="126.01" height="0.55" transform="translate(-2.64 176.77) rotate(-74.85)"/></g></g></svg>