<svg xmlns="http://www.w3.org/2000/svg" xmlns:xlink="http://www.w3.org/1999/xlink" viewBox="0 0 468.16 483.38"><defs><style>.cls-1{opacity:0.33;fill:url(#GradientFill_1);}.cls-2,.cls-9{fill:#fff;}.cls-2{fill-rule:evenodd;}.cls-3{fill:url(#linear-gradient);}.cls-4{fill:url(#linear-gradient-2);}.cls-5{fill:url(#linear-gradient-3);}.cls-6{fill:url(#linear-gradient-4);}.cls-7{fill:url(#linear-gradient-5);}.cls-8{fill:url(#linear-gradient-6);}</style><linearGradient id="GradientFill_1" x1="242.28" y1="451.55" x2="219.86" y2="36.68" gradientUnits="userSpaceOnUse"><stop offset="0" stop-color="#000617"/><stop offset="0.69" stop-color="#122a4d"/><stop offset="1" stop-color="#000617"/></linearGradient><linearGradient id="linear-gradient" x1="205.05" y1="1120.57" x2="177.84" y2="1319.36" gradientTransform="matrix(0.99, -0.1, 0.04, 0.41, 0.11, -216.54)" gradientUnits="userSpaceOnUse"><stop offset="0" stop-color="azure"/><stop offset="0.09" stop-color="#ebffff"/><stop offset="0.19" stop-color="#defefd"/><stop offset="0.29" stop-color="#c8fcfb"/><stop offset="0.4" stop-color="#a8f9f8"/><stop offset="0.51" stop-color="#81f6f5"/><stop offset="0.56" stop-color="#6ef5f3"/><stop offset="0.73" stop-color="#70f5f4"/><stop offset="0.82" stop-color="#79f7f5"/><stop offset="0.9" stop-color="#87f9f8"/><stop offset="0.97" stop-color="#9afdfc"/><stop offset="1" stop-color="#a6ffff"/></linearGradient><linearGradient id="linear-gradient-2" x1="142.5" y1="1156.91" x2="201.89" y2="1305.37" gradientTransform="matrix(0.99, -0.1, 0.04, 0.41, 0.11, -216.54)" gradientUnits="userSpaceOnUse"><stop offset="0.41" stop-color="azure"/><stop offset="0.49" stop-color="#ddfefe"/><stop offset="0.72" stop-color="#b0fcfb"/><stop offset="0.9" stop-color="#94fbfa"/><stop offset="1" stop-color="#89faf9"/></linearGradient><linearGradient id="linear-gradient-3" x1="216.94" y1="1316.62" x2="216.94" y2="1130.56" gradientTransform="matrix(0.99, -0.1, 0.04, 0.41, 0.11, -216.54)" gradientUnits="userSpaceOnUse"><stop offset="0" stop-color="#6673b3"/><stop offset="0.16" stop-color="#699dc8"/><stop offset="0.33" stop-color="#6bc3db"/><stop offset="0.48" stop-color="#6ddfe8"/><stop offset="0.62" stop-color="#6eeff0"/><stop offset="0.72" stop-color="#6ef5f3"/></linearGradient><linearGradient id="linear-gradient-4" x1="181.5" y1="1390.9" x2="168.41" y2="1486.55" gradientTransform="matrix(0.99, 0.1, 0.04, -0.41, 0.11, 777)" xlink:href="#linear-gradient"/><linearGradient id="linear-gradient-5" x1="119.83" y1="1343.66" x2="175.36" y2="1482.49" gradientTransform="matrix(0.99, 0.1, 0.04, -0.41, 0.11, 777)" xlink:href="#linear-gradient-2"/><linearGradient id="linear-gradient-6" x1="207.14" y1="1487.35" x2="207.14" y2="1372.94" gradientTransform="matrix(0.99, 0.1, 0.04, -0.41, 0.11, 777)" xlink:href="#linear-gradient-3"/></defs><title>crystal-animation</title><g id="OBJECTS"><circle class="cls-1" cx="231.07" cy="244.11" r="207.73"/><path class="cls-2" d="M170.05,55.48a2.36,2.36,0,0,1-.08,2,2.86,2.86,0,0,1-1.67,1.25l-.51.17.75,2.23-1.81.61L164.46,55l2.32-.79a3.08,3.08,0,0,1,2.1-.09,2.09,2.09,0,0,1,1.17,1.37Zm-2.76,1.9.33-.11a.94.94,0,0,0,.57-.45.87.87,0,0,0,0-.71c-.16-.45-.48-.6-1-.43l-.46.16.52,1.54Zm5.38,2.31L170.4,53l1.82-.62,2.27,6.71-1.82.62Zm7.16-4.36a1.88,1.88,0,0,0-.67-1,3.21,3.21,0,0,0-1.46-.51,8.82,8.82,0,0,1-1.29-.25.48.48,0,0,1-.31-.31.38.38,0,0,1,.07-.35.91.91,0,0,1,.49-.28,4.27,4.27,0,0,1,1.77,0l.16-1.58a5.43,5.43,0,0,0-2.29.12,3.14,3.14,0,0,0-1.74,1.07,1.82,1.82,0,0,0-.26,1.66,2.24,2.24,0,0,0,.4.82,2,2,0,0,0,.68.52,5.14,5.14,0,0,0,1.17.3,10.08,10.08,0,0,1,1,.18,1.13,1.13,0,0,1,.31.14A.39.39,0,0,1,178,56a.42.42,0,0,1-.08.41,1.09,1.09,0,0,1-.56.32,4.44,4.44,0,0,1-1.09.14,5.45,5.45,0,0,1-1.21-.11l.46,1.64a3.89,3.89,0,0,0,1.06.06,6.24,6.24,0,0,0,1.16-.22,3.65,3.65,0,0,0,1.35-.68,2.21,2.21,0,0,0,.71-1,2.11,2.11,0,0,0,0-1.22Zm3.42-4.51a1.22,1.22,0,0,0-.91.78,2.76,2.76,0,0,0,0,1.6c.3,1.32,1,1.87,2,1.64a2.92,2.92,0,0,0,.86-.34,8.62,8.62,0,0,0,.79-.5l.37,1.58a4.92,4.92,0,0,1-1.87.83,3.18,3.18,0,0,1-2.6-.35,3.82,3.82,0,0,1-1.44-2.43,4.16,4.16,0,0,1,0-2,2.92,2.92,0,0,1,.87-1.51,3.62,3.62,0,0,1,1.68-.85,5,5,0,0,1,2.25,0l-.23,1.6a8.13,8.13,0,0,0-.84-.13,2.79,2.79,0,0,0-.85.07Zm8.57,3.79-.35-1.52-2.24.51-.3-1.3,2.07-.48-.35-1.5-2.07.48-.25-1.08,2.24-.52-.35-1.49-4.09.94,1.59,6.9,4.1-.94Zm5.38-3.2a2.07,2.07,0,0,1-.12,1.21,2.22,2.22,0,0,1-.81,1,3.6,3.6,0,0,1-1.4.54,6.17,6.17,0,0,1-1.19.11,4.59,4.59,0,0,1-1-.17l-.3-1.68a5.42,5.42,0,0,0,1.2.23,3.89,3.89,0,0,0,1.09,0,1,1,0,0,0,.59-.26.44.44,0,0,0,.13-.4.46.46,0,0,0-.12-.24,1,1,0,0,0-.3-.17,8.16,8.16,0,0,0-1-.29,4.46,4.46,0,0,1-1.13-.41,2.07,2.07,0,0,1-.63-.58,2.3,2.3,0,0,1-.32-.86,1.84,1.84,0,0,1,.43-1.63,3.13,3.13,0,0,1,1.83-.88,5.48,5.48,0,0,1,2.3.1l-.32,1.56a4.2,4.2,0,0,0-1.77-.15.87.87,0,0,0-.51.23.42.42,0,0,0-.11.35.52.52,0,0,0,.28.33,8.23,8.23,0,0,0,1.26.38,3.1,3.1,0,0,1,1.4.65A1.9,1.9,0,0,1,197.2,51.41Z"/><path class="cls-2" d="M274.88,55.25l0-1.37-2.24-.52L272,54.58l-2.05-.48,3.86-6.41,2.48.58.68,7.45-2-.47Zm-.07-3,0-1.2c0-.27,0-.61,0-1s0-.73,0-.91c-.07.16-.18.41-.35.76s-.52,1-1.06,2l1.47.33Zm5.3,1.55-.58,2.52-1.86-.43,1.59-6.9,2.26.52c1.88.43,2.66,1.33,2.35,2.68a2.11,2.11,0,0,1-1.6,1.59l1.31,3.47-2.11-.49-.88-2.85-.48-.11Zm.33-1.4.34.08c.66.15,1.05-.06,1.18-.64s-.15-.78-.79-.93l-.37-.08-.36,1.57Zm3.72,5.18,1.85.53L288,51.31l-1.85-.53-1.94,6.81Zm7.37,2.1-4-1.15,1.94-6.82,4.05,1.15-.42,1.48-2.21-.62-.3,1.06,2,.59-.42,1.47-2-.58-.37,1.29,2.21.63-.43,1.5Zm6.22-.06a1.9,1.9,0,0,0,0-1.24,3.19,3.19,0,0,0-.92-1.25,8,8,0,0,1-.91-.94.5.5,0,0,1-.09-.43.4.4,0,0,1,.27-.25.85.85,0,0,1,.55,0,4.15,4.15,0,0,1,1.48,1l1-1.21a5.59,5.59,0,0,0-2-1.2,3.14,3.14,0,0,0-2-.11,1.8,1.8,0,0,0-1.16,1.22,2.18,2.18,0,0,0-.14.91,2,2,0,0,0,.27.81,4.8,4.8,0,0,0,.79.91c.41.38.66.62.75.73a1.33,1.33,0,0,1,.17.29.42.42,0,0,1,0,.27.43.43,0,0,1-.31.29,1,1,0,0,1-.63-.06,4.08,4.08,0,0,1-1-.49,6.38,6.38,0,0,1-.94-.78l-.55,1.61a4.33,4.33,0,0,0,.84.65,5.42,5.42,0,0,0,1.09.48,3.48,3.48,0,0,0,1.49.2,2.16,2.16,0,0,0,1.17-.44A2.1,2.1,0,0,0,297.75,59.63Z"/><path class="cls-2" d="M358.18,97.2,356.73,96l3.62-4.17L359,90.65l1-1.19L364.12,93l-1,1.18L361.79,93l-3.61,4.17Zm4.83,4.19,1.58,1.37,2.89-6.91-1.93-1.67L359.15,98l1.59,1.38,1.14-.77,1.74,1.5-.61,1.24Zm1.33-2.68.53-1.08.46-.93.43-.8-.66.51-1.9,1.31,1.14,1Zm10,3.71-2.94,3.08a2.8,2.8,0,0,1-2.05,1,3.73,3.73,0,0,1-3.27-3.08,2.74,2.74,0,0,1,.91-2.08l3-3.12,1.39,1.32-2.87,3a1.73,1.73,0,0,0-.55,1,1,1,0,0,0,.37.82,1,1,0,0,0,.85.35,1.87,1.87,0,0,0,.95-.62l2.86-3,1.38,1.32Zm-.69,5.82.34.35-.83,2.87,1.5,1.57.81-3.62a2.07,2.07,0,0,0,2.2-.45q1.51-1.44-.48-3.53l-1.6-1.68-5.12,4.89,1.32,1.38,1.86-1.78Zm1-1,1.17-1.12.27.28c.45.47.5.88.15,1.21s-.88.37-1.34-.11l-.25-.26Zm9.73,6.14-3.22,2.79A2.89,2.89,0,0,1,379,117a3.75,3.75,0,0,1-3-3.39,2.8,2.8,0,0,1,1.1-2l3.26-2.82,1.26,1.45L378.52,113a1.72,1.72,0,0,0-.64.93,1,1,0,0,0,.28.85,1.05,1.05,0,0,0,.82.42,1.78,1.78,0,0,0,1-.52l3.14-2.72,1.25,1.45Zm.27,7.85a1.86,1.86,0,0,0,.67-1,3.33,3.33,0,0,0-.16-1.55,9.52,9.52,0,0,1-.32-1.27A.47.47,0,0,1,385,117a.38.38,0,0,1,.35-.08.86.86,0,0,1,.46.32,4.36,4.36,0,0,1,.78,1.59l1.49-.52a5.48,5.48,0,0,0-1.08-2,3.11,3.11,0,0,0-1.7-1.12,1.82,1.82,0,0,0-1.61.46,2.22,2.22,0,0,0-.58.72,1.9,1.9,0,0,0-.18.83,5.07,5.07,0,0,0,.22,1.19,9.63,9.63,0,0,1,.27,1,1,1,0,0,1,0,.34.44.44,0,0,1-.14.22.43.43,0,0,1-.42.1,1.05,1.05,0,0,1-.52-.37,4.13,4.13,0,0,1-.59-.93,5.77,5.77,0,0,1-.42-1.14L380,118.67a5,5,0,0,0,.4,1,5.69,5.69,0,0,0,.7,1,3.72,3.72,0,0,0,1.18.93,2.27,2.27,0,0,0,1.23.21A2.12,2.12,0,0,0,384.64,121.24Z"/><path class="cls-2" d="M418.23,176.94l1,2.89-3.62,1.22a8.25,8.25,0,0,1-1.28-2.45,3.3,3.3,0,0,1,.09-2.7,3.77,3.77,0,0,1,2.28-1.71,3.51,3.51,0,0,1,2.84.07,3.74,3.74,0,0,1,1.78,2.29,5.71,5.71,0,0,1,.28,1.23,5,5,0,0,1,0,1.08l-1.61-.09a3.89,3.89,0,0,0-.18-1.71,1.59,1.59,0,0,0-.93-1.05,2.29,2.29,0,0,0-1.62.06A2.39,2.39,0,0,0,416,177a1.46,1.46,0,0,0-.11,1.3,3.57,3.57,0,0,0,.33.71l1.05-.35-.4-1.2,1.4-.47Zm-1.14,9.57,1.48-.5-.74-2.17,1.27-.43.68,2,1.46-.49-.68-2,1.05-.36.73,2.17,1.46-.49-1.35-4-6.71,2.27,1.35,4Zm1.19,4.16,4.51-2.79v0c-.82.3-1.46.52-1.92.65l-3,.84-.46-1.63,6.81-1.93.7,2.45L420.51,191v0l5.24,0,.69,2.46-6.81,1.93-.48-1.69,3-.85.52-.14,1.41-.33v0h-5.29l-.5-1.75Zm1.72,6.27.44,1.87,6.9-1.59-.44-1.87-6.9,1.59Zm2.3,9.94-.57-2.45,4.28-3.64v0c-.75.23-1.33.4-1.73.49l-3.11.72-.38-1.65,6.9-1.6.56,2.44L424,204.77v0c.69-.21,1.24-.36,1.66-.46l3.13-.72.38,1.66-6.9,1.6Zm.18,1.52,7-1.24.33,1.89-7,1.24Z"/><path class="cls-2" d="M428.68,277.52a1.21,1.21,0,0,0-.36-1.14,2.68,2.68,0,0,0-1.46-.65q-2-.36-2.28,1.17a2.85,2.85,0,0,0,0,.92,8.15,8.15,0,0,0,.15.93l-1.59-.29a4.79,4.79,0,0,1,0-2,3.21,3.21,0,0,1,1.35-2.26,3.83,3.83,0,0,1,2.8-.36,4.19,4.19,0,0,1,1.83.74,3,3,0,0,1,1.05,1.4,3.67,3.67,0,0,1,.12,1.88,5,5,0,0,1-.88,2.07l-1.38-.84a5.41,5.41,0,0,0,.45-.72,2.58,2.58,0,0,0,.27-.81Zm-6.87,6.53-.37,2.06,7.42-1.06.45-2.51-6.6-3.52-.37,2.07,1.25.58-.41,2.27-1.37.11Zm3-.23.27-1.48c1,.48,1.74.8,2.1,1l.77.32c-.18,0-.48,0-.9,0l-1,.08-1.2.09Zm-5.17,9.58.57-2.45,5.44-1.4v0c-.78-.12-1.37-.22-1.77-.31l-3.11-.72.38-1.65,6.9,1.59-.56,2.44-5.38,1.4v0c.7.11,1.26.22,1.69.32l3.12.72-.39,1.66-6.9-1.59Zm4.09,6a1.21,1.21,0,0,0-.24-1.18,2.7,2.7,0,0,0-1.38-.79c-1.31-.37-2.11-.06-2.39.94a3.13,3.13,0,0,0-.13.91c0,.31,0,.62.06.94l-1.56-.44a5,5,0,0,1,.17-2,3.2,3.2,0,0,1,1.57-2.11,3.83,3.83,0,0,1,2.82-.09,4.25,4.25,0,0,1,1.75.93,2.86,2.86,0,0,1,.9,1.49,3.59,3.59,0,0,1-.06,1.89,5.08,5.08,0,0,1-1.08,2l-1.29-1a7.43,7.43,0,0,0,.51-.67,2.51,2.51,0,0,0,.35-.78Zm-7.6,5.62,1.48.5.73-2.17,1.27.43-.68,2,1.46.49.68-2,1.05.36-.73,2.17,1.45.49,1.35-4-6.71-2.27-1.35,4Zm1.44,3.82L415.1,308l.62-1.81,6.71,2.27-.75,2.2q-.92,2.73-2.9,2.06a2.08,2.08,0,0,1-1.42-1.75l-3.59,1,.7-2.06,2.92-.59.16-.46Zm1.36.46-.12.34c-.21.63,0,1,.52,1.23s.8-.08,1-.7l.12-.36Z"/><path class="cls-2" d="M375,375.25l5.13,4.89-1.32,1.38-4-3.82-1.88,2-1.12-1.07,3.2-3.36Zm-6.88,7.22,1.13,1.08,1.58-1.66,1,.92-1.47,1.54,1.12,1.06,1.46-1.54.8.77-1.58,1.66,1.12,1.06,2.9-3L371,379.43l-2.9,3Zm-3.29,7.95a3.76,3.76,0,0,1-1.24-2.57,3.34,3.34,0,0,1,1.21-2.44,3.38,3.38,0,0,1,2.5-1.09,4.59,4.59,0,0,1,3.74,3.92,4,4,0,0,1-3.71,3.55,3.82,3.82,0,0,1-2.5-1.37Zm3.53-3.36c1,1,1.08,1.83.38,2.5a1.21,1.21,0,0,1-1.11.36,3.65,3.65,0,0,1-2.16-2.25,1.23,1.23,0,0,1,.43-1.11C366.57,385.9,367.39,386.07,368.34,387.06Z"/><path class="cls-2" d="M293.86,435.58l-2,.68-.07-7.45,2.13-.72,4.46,6-2,.69-2.06-3.09a11.24,11.24,0,0,1-.85-1.48,7.89,7.89,0,0,1,.14.85q.07.51.09.81l.23,3.74Zm-5-5.82,1.94,6.81-1.85.53L287,430.29l1.85-.53Zm-4.46,3.95-.46.13-2.15-2.07-2.09.59,2.83,2.41a2.1,2.1,0,0,0-.64,2.16q.57,2,3.35,1.22l2.24-.63-1.94-6.82-1.84.53.7,2.48Zm.4,1.38.44,1.56-.37.1c-.63.18-1,0-1.14-.43s.08-.95.72-1.13l.35-.1Zm-7.57,2.06-3,.69-.86-3.73a8.7,8.7,0,0,1,2.57-1,3.34,3.34,0,0,1,2.68.36,3.8,3.8,0,0,1,1.48,2.44,3.56,3.56,0,0,1-.35,2.82,3.74,3.74,0,0,1-2.46,1.54,6.24,6.24,0,0,1-1.26.17,5.94,5.94,0,0,1-1.08-.08l.26-1.6a3.71,3.71,0,0,0,1.72,0,1.63,1.63,0,0,0,1.14-.82,2.95,2.95,0,0,0-.65-3,1.41,1.41,0,0,0-1.28-.24,3.88,3.88,0,0,0-.75.25l.25,1.08,1.24-.28.33,1.44ZM266,438.82a3.86,3.86,0,0,1,.38-2.83,4,4,0,0,1,5.05-.89,3.82,3.82,0,0,1,1.35,2.52,3.71,3.71,0,0,1-.4,2.81A3.29,3.29,0,0,1,270,441.8a3.35,3.35,0,0,1-2.69-.46,3.79,3.79,0,0,1-1.33-2.52Zm4.8-.85c-.25-1.35-.83-1.94-1.77-1.77a1.23,1.23,0,0,0-1,.68,3.61,3.61,0,0,0,.56,3.07,1.21,1.21,0,0,0,1.13.31C270.67,440.09,271,439.33,270.78,438Z"/><path class="cls-2" d="M193.72,433.15l-1.59,6.9-1.87-.43,1.25-5.39-2.66-.61.35-1.51,4.52,1Zm-5.63-1.3-1.59,6.91-1.87-.44,1.59-6.9,1.87.43Zm-5.31,6.09,1.94-6.82-2.65-.75a3.21,3.21,0,0,0-2.06,0,1.85,1.85,0,0,0-1.11,1.27,1.69,1.69,0,0,0,0,1.09,1.6,1.6,0,0,0,.76.82l0,0a1.4,1.4,0,0,0-.92.3,1.75,1.75,0,0,0-.57.9,1.44,1.44,0,0,0,.31,1.47,4.11,4.11,0,0,0,1.94,1l2.38.68Zm-1.1-3.14-.34,1.22-.52-.15c-.58-.16-.81-.43-.71-.82a.62.62,0,0,1,.36-.42,1.06,1.06,0,0,1,.66,0l.55.16Zm.39-1.35-.61-.17a1.1,1.1,0,0,1-.62-.37.64.64,0,0,1-.08-.59c.13-.48.49-.65,1.06-.48l.65.18-.4,1.43Zm-6.33-2.2.71-2.48,1.84.53-1.94,6.81-2.23-.63c-1.85-.53-2.59-1.46-2.21-2.81a2.1,2.1,0,0,1,1.68-1.5l-1.14-3.53,2.08.59.74,2.89.47.13Zm-.39,1.39-.35-.1c-.64-.18-1,0-1.21.58s.12.79.75,1l.37.1.44-1.55Zm-8.07-6.86-2-.67-.06,7.48,2.42.82,4.47-6-2-.67-.76,1.14-2.18-.73.09-1.37Zm-.21,3,1.42.48c-.63,1-1.05,1.61-1.25,1.93s-.34.58-.43.72c0-.18.06-.48.1-.9s.06-.76.07-1Z"/><path class="cls-2" d="M106.45,395a2.12,2.12,0,0,1,1-.71,2.2,2.2,0,0,1,1.25,0A3.58,3.58,0,0,1,110,395a5.87,5.87,0,0,1,.87.81,4.54,4.54,0,0,1,.57.89L110.4,398a6.16,6.16,0,0,0-.62-1.05,4.43,4.43,0,0,0-.76-.79,1,1,0,0,0-.58-.27.43.43,0,0,0-.39.18.37.37,0,0,0-.09.25,1.16,1.16,0,0,0,.06.33c0,.13.2.44.46.94a4.23,4.23,0,0,1,.44,1.12,1.87,1.87,0,0,1,0,.85,2.28,2.28,0,0,1-.43.81,1.83,1.83,0,0,1-1.5.77,3.18,3.18,0,0,1-1.88-.78,5.52,5.52,0,0,1-1.45-1.79l1.37-.8a4.34,4.34,0,0,0,1.07,1.42.88.88,0,0,0,.51.23.4.4,0,0,0,.33-.15.45.45,0,0,0,.06-.43,8,8,0,0,0-.55-1.19,3.2,3.2,0,0,1-.45-1.48,1.92,1.92,0,0,1,.46-1.16Zm-5.53-.26a3.07,3.07,0,0,1-.56-.65,7.55,7.55,0,0,1-.39-.75l-1.43.75a5,5,0,0,0,1.34,1.82,3.62,3.62,0,0,0,1.67.86,3,3,0,0,0,1.74-.19,4.37,4.37,0,0,0,1.58-1.19,3.8,3.8,0,0,0,1.11-2.59,3.17,3.17,0,0,0-1.24-2.32,5.09,5.09,0,0,0-1.78-1l-1.06,1.22c.31.1.6.22.88.34a3.29,3.29,0,0,1,.77.5c.79.68.73,1.54-.16,2.56a2.64,2.64,0,0,1-1.3.92,1.22,1.22,0,0,1-1.17-.27ZM95,386.51a3.78,3.78,0,0,1,2.51-1.36,4,4,0,0,1,3.7,3.54,4.56,4.56,0,0,1-3.74,3.92,4,4,0,0,1-3.72-3.53A3.82,3.82,0,0,1,95,386.51Zm3.52,3.36c-1,1-1.78,1.17-2.47.51a1.21,1.21,0,0,1-.42-1.1,2.7,2.7,0,0,1,.82-1.38,2.75,2.75,0,0,1,1.33-.88,1.23,1.23,0,0,1,1.12.38c.69.66.57,1.48-.38,2.47Zm-5.26-6.34-.34-.35.83-2.87-1.5-1.57-.81,3.63a2.09,2.09,0,0,0-2.2.44q-1.52,1.44.47,3.53L91.31,388l5.12-4.89-1.32-1.39-1.86,1.78Zm-1,1L91,385.64l-.26-.27c-.45-.48-.5-.88-.15-1.22s.87-.37,1.34.12l.24.26Zm-7.44-6.64a2.35,2.35,0,0,1,1.81-.76,2.87,2.87,0,0,1,1.84,1l.37.39,1.7-1.63,1.32,1.39-5.13,4.89L85,381.39a3,3,0,0,1-1-1.86,2.1,2.1,0,0,1,.75-1.64Zm2.89,1.7-.24-.25a1,1,0,0,0-.65-.33.89.89,0,0,0-.66.28c-.34.33-.33.68,0,1.07l.34.35,1.18-1.12Zm-.13-5.89-1.26-1.45-5.35,4.63,1.26,1.46,5.35-4.64Zm-9.28-5.3a3.78,3.78,0,0,1,2.63-1.11,3.31,3.31,0,0,1,2.38,1.33,3.35,3.35,0,0,1,1,2.54,3.83,3.83,0,0,1-1.48,2.45,3.79,3.79,0,0,1-2.62,1.11,3.41,3.41,0,0,1-2.39-1.34,3.35,3.35,0,0,1-1-2.54,3.81,3.81,0,0,1,1.48-2.44Zm3.19,3.69c-1.05.9-1.88,1-2.51.27a1.23,1.23,0,0,1-.32-1.14,2.72,2.72,0,0,1,1-1.29,2.83,2.83,0,0,1,1.4-.76,1.24,1.24,0,0,1,1.08.49C82.67,370.38,82.46,371.19,81.43,372.09Z"/><path class="cls-2" d="M51.05,320.12a2,2,0,0,1,1.2-.18,2.19,2.19,0,0,1,1.12.55,3.48,3.48,0,0,1,.87,1.23,6.17,6.17,0,0,1,.4,1.12,4.37,4.37,0,0,1,.09,1.05l-1.55.7a6.15,6.15,0,0,0-.07-1.21,4.19,4.19,0,0,0-.31-1.05,1,1,0,0,0-.39-.51.45.45,0,0,0-.42,0,.39.39,0,0,0-.2.18.86.86,0,0,0-.1.33,8.53,8.53,0,0,0,0,1,5.13,5.13,0,0,1-.13,1.2,1.84,1.84,0,0,1-.41.74,2.19,2.19,0,0,1-.76.53,1.81,1.81,0,0,1-1.68,0,3.09,3.09,0,0,1-1.3-1.56,5.38,5.38,0,0,1-.47-2.25l1.59-.07a4.28,4.28,0,0,0,.29,1.75.91.91,0,0,0,.35.44.42.42,0,0,0,.36,0,.47.47,0,0,0,.25-.36,7.66,7.66,0,0,0,.07-1.31,3.24,3.24,0,0,1,.28-1.52,1.9,1.9,0,0,1,.94-.81Zm0-6-1.11.81.85,2.14,1.36-.15.77,2-7.46.46L44.51,317l5.76-4.79.77,2Zm-2.42,1.76-1,.7c-.22.17-.5.37-.84.61a8.48,8.48,0,0,1-.75.51l.82-.14,2.29-.28-.55-1.4Zm-3.43-5.59,1.4-.47-.4-1.2,1.05-.35a3.9,3.9,0,0,1,.33.71,1.46,1.46,0,0,1-.11,1.3,2.42,2.42,0,0,1-1.3.88,2.37,2.37,0,0,1-1.63.06,1.59,1.59,0,0,1-.93-1.05,3.89,3.89,0,0,1-.18-1.71l-1.61-.09a5.67,5.67,0,0,0,0,1.08,6.42,6.42,0,0,0,.29,1.23A3.74,3.74,0,0,0,43.9,313a3.51,3.51,0,0,0,2.84.07A3.74,3.74,0,0,0,49,311.37a3.3,3.3,0,0,0,.09-2.7,8.43,8.43,0,0,0-1.28-2.46l-3.62,1.23,1,2.89Zm2.49-5.59L41,307l-.62-1.82,6.71-2.27.62,1.82Zm-1.94-6.29L40.44,300,40,298.3l-1.51.43,1.47,5.16,1.5-.42L41,301.8l5.31-1.51-.53-1.84Zm-1.65-5.82.52,1.84-5.3,1.5.47,1.67-1.51.43L36.8,292.9l1.51-.43.47,1.66,5.31-1.5Zm-1.43-6.23-1.22.64.52,2.24,1.38.05.47,2.05-7.45-.65-.57-2.49,6.4-3.88.47,2ZM40,287.78l-1.07.56-.92.47c-.38.2-.65.33-.81.4l.83,0q.59,0,2.31.06L40,287.78Zm-.88-5.59-.08-.48,2.27-1.93-.38-2.14-2.68,2.57a2.08,2.08,0,0,0-2.08-.84c-1.37.24-1.89,1.31-1.55,3.21l.41,2.28,7-1.24-.34-1.89-2.54.46Zm-1.41.25-1.59.28-.07-.37c-.12-.64.07-1,.55-1.1s.93.18,1,.84l.07.35ZM40.83,277l-7,1.24-.34-1.89,7-1.25.34,1.9Zm-8.38-8.49,4.23-.53a2.84,2.84,0,0,1,2.24.51,3.13,3.13,0,0,1,1,2.15,3.07,3.07,0,0,1-.46,2.3,2.75,2.75,0,0,1-2,1l-4.28.55L33,272.63l4.12-.53a1.71,1.71,0,0,0,1-.41,1,1,0,0,0,.23-.87,1,1,0,0,0-.44-.8,1.89,1.89,0,0,0-1.13-.12l-4.11.52-.24-1.9Zm4.24-6.81a2.12,2.12,0,0,1,1.2.25,2.27,2.27,0,0,1,.86.9,3.68,3.68,0,0,1,.4,1.45,6.58,6.58,0,0,1,0,1.19,5.53,5.53,0,0,1-.27,1l-1.71.13a5.87,5.87,0,0,0,.36-1.17,4.66,4.66,0,0,0,.07-1.09,1.1,1.1,0,0,0-.19-.61.45.45,0,0,0-.4-.17.4.4,0,0,0-.24.1.86.86,0,0,0-.2.27,8.41,8.41,0,0,0-.39,1,4.51,4.51,0,0,1-.53,1.08,2,2,0,0,1-.63.56,2.38,2.38,0,0,1-.9.24,1.81,1.81,0,0,1-1.57-.6,3.16,3.16,0,0,1-.7-1.91,5.56,5.56,0,0,1,.34-2.27l1.52.47a4.22,4.22,0,0,0-.33,1.74.85.85,0,0,0,.18.53.37.37,0,0,0,.33.15.46.46,0,0,0,.36-.25,7.59,7.59,0,0,0,.51-1.21,3.3,3.3,0,0,1,.78-1.33A2,2,0,0,1,36.69,261.71Z"/><path class="cls-2" d="M33.66,222.25a1.26,1.26,0,0,0,.42,1.13,2.72,2.72,0,0,0,1.49.57q2,.26,2.22-1.29a3.09,3.09,0,0,0,0-.91,7.57,7.57,0,0,0-.2-.92l1.61.2a4.89,4.89,0,0,1,.14,2,3.21,3.21,0,0,1-1.23,2.32,3.83,3.83,0,0,1-2.78.51,4.33,4.33,0,0,1-1.87-.65,3.12,3.12,0,0,1-1.12-1.35,3.58,3.58,0,0,1-.21-1.87,5,5,0,0,1,.77-2.11l1.42.77a6,6,0,0,0-.41.74,3,3,0,0,0-.23.82Zm6.53-6.86.27-2.08-7.35,1.43-.32,2.53,6.76,3.19.27-2.09-1.28-.52.29-2.28,1.36-.18Zm-3,.37-.19,1.5c-1.07-.43-1.78-.72-2.15-.85l-.78-.27.9-.09,1-.13,1.2-.16Zm-.41-9.1a2.42,2.42,0,0,1,1.68,1,2.8,2.8,0,0,1,.28,2.07l-.09.53,2.31.42-.33,1.88-7-1.25.44-2.41a3,3,0,0,1,.93-1.88,2.09,2.09,0,0,1,1.76-.37Zm.34,3.34.06-.34a1,1,0,0,0-.12-.72.86.86,0,0,0-.61-.37c-.47-.08-.75.14-.85.66l-.09.48,1.61.29ZM39.63,204l2.51.58-.43,1.86-6.9-1.59.52-2.27c.44-1.87,1.33-2.65,2.69-2.34a2.09,2.09,0,0,1,1.58,1.6l3.48-1.32-.49,2.12-2.85.88-.11.48Zm-1.4-.33.08-.35c.15-.65-.06-1-.64-1.18s-.78.16-.93.8l-.09.37,1.58.36Zm5-3.77-6.9-1.6.43-1.87,6.9,1.59-.43,1.88Zm-3.79-7.94a1.22,1.22,0,0,0,.25,1.17,2.63,2.63,0,0,0,1.38.79c1.31.38,2.1.06,2.39-.93a3.57,3.57,0,0,0,.12-.92,7.5,7.5,0,0,0-.06-.93l1.56.44a4.93,4.93,0,0,1-.17,2,3.19,3.19,0,0,1-1.57,2.12,3.89,3.89,0,0,1-2.82.08,4.2,4.2,0,0,1-1.74-.92,2.94,2.94,0,0,1-.91-1.5,3.56,3.56,0,0,1,.07-1.88,4.93,4.93,0,0,1,1.08-2l1.28,1a6.24,6.24,0,0,0-.51.67,2.77,2.77,0,0,0-.35.78Zm4.64-8.78a3.8,3.8,0,0,0-2.85.09,4,4,0,0,0-1.4,4.94,3.79,3.79,0,0,0,2.36,1.59,3.78,3.78,0,0,0,2.86-.11,4,4,0,0,0,1.4-4.93,3.76,3.76,0,0,0-2.37-1.58Zm-1.33,4.68c-1.33-.37-1.87-1-1.61-1.95a1.21,1.21,0,0,1,.78-.88,3.57,3.57,0,0,1,3,.85A1.24,1.24,0,0,1,45.1,187c-.26.92-1.05,1.19-2.36.81Zm3.45-7.52,2.44.82L48,182.93l-6.71-2.27.74-2.2c.62-1.83,1.59-2.51,2.91-2.07a2.09,2.09,0,0,1,1.42,1.75l3.59-1-.7,2.06-2.92.6-.16.46Zm-1.36-.46.11-.34c.22-.64,0-1.05-.51-1.24s-.8.08-1,.7l-.12.36,1.53.52Zm7.87-9.52-6.59-2.6-.63,1.59,3,1.18c.41.15.95.34,1.63.56v0l-5.53.59L43.64,174l6.59,2.59.62-1.57-3-1.17c-.39-.15-1-.35-1.71-.58l0,0,5.59-.57Z"/><path class="cls-2" d="M80.06,123.86l-1.26-.54-1.42,1.81.82,1.1-1.3,1.65-4.16-6.21,1.57-2,7,2.56-1.29,1.64Zm-2.74-1.2-1.1-.48c-.25-.1-.57-.24-1-.42s-.66-.3-.82-.38c.11.12.29.34.53.64s.72.91,1.41,1.82l.93-1.18Zm6-8.25a3.81,3.81,0,0,0-2.62-1.12,4,4,0,0,0-3.36,3.88,3.75,3.75,0,0,0,1.46,2.44,3.8,3.8,0,0,0,2.64,1.11,3.34,3.34,0,0,0,2.38-1.32h0l2,.09,1.56-1.8H84.77c.25-1.14-.24-2.23-1.45-3.28Zm-3.19,3.68c-1-.9-1.25-1.72-.63-2.44a1.22,1.22,0,0,1,1.08-.48,2.76,2.76,0,0,1,1.42.76,2.69,2.69,0,0,1,.94,1.28,1.25,1.25,0,0,1-.32,1.15q-.95,1.08-2.49-.27Zm5.65-11.65,3.09,3a2.88,2.88,0,0,1,1,2,3.17,3.17,0,0,1-1,2.17,3.05,3.05,0,0,1-2.07,1.1,2.78,2.78,0,0,1-2.08-.91l-3.12-3,1.33-1.39,3,2.87a1.73,1.73,0,0,0,1,.55,1,1,0,0,0,.82-.37,1,1,0,0,0,.34-.85,1.84,1.84,0,0,0-.61-1l-3-2.86,1.32-1.39Zm9.09.74,1.44-1.51-6.76-3.22-1.76,1.85,3.55,6.58,1.45-1.52-.71-1.18,1.58-1.66,1.21.66Zm-2.62-1.46-1-.58-.9-.5c-.37-.21-.63-.37-.78-.47.1.14.26.37.47.69s.62,1,1.23,2l1-1.09ZM96.54,102l1.78,1.86-1.38,1.32-4.89-5.12,1.68-1.61q2.08-2,3.53-.47a2.07,2.07,0,0,1,.45,2.2l3.62.81-1.57,1.5-2.87-.83-.35.34Zm-1-1,.26-.25c.48-.47.52-.91.11-1.34s-.74-.3-1.21.15l-.28.26L95.55,101Zm6.26-.4,1.45-1.26L98.62,94l-1.45,1.26,4.64,5.35ZM104.33,89l-1.45,1.26,2.72,3.13a1.78,1.78,0,0,1,.52,1,1,1,0,0,1-.42.82,1,1,0,0,1-.85.28,1.67,1.67,0,0,1-.92-.64l-2.73-3.14L99.75,93l2.82,3.26a2.8,2.8,0,0,0,2,1.1,3.76,3.76,0,0,0,3.38-3,2.86,2.86,0,0,0-.82-2.14L104.33,89Zm8.13-.09a2,2,0,0,1,.46,1.12,2.17,2.17,0,0,1-.26,1.22,3.73,3.73,0,0,1-1,1.14,5.7,5.7,0,0,1-1,.65,4.51,4.51,0,0,1-1,.35l-1.06-1.35a5.26,5.26,0,0,0,1.17-.35,4.48,4.48,0,0,0,.95-.55,1.07,1.07,0,0,0,.4-.5.45.45,0,0,0-.08-.42.37.37,0,0,0-.22-.15.9.9,0,0,0-.34,0c-.14,0-.48.09-1,.23a4.59,4.59,0,0,1-1.19.16,1.85,1.85,0,0,1-.82-.22,2.18,2.18,0,0,1-.7-.61,1.82,1.82,0,0,1-.38-1.64,3.19,3.19,0,0,1,1.2-1.64,5.49,5.49,0,0,1,2.08-1l.45,1.52a4.2,4.2,0,0,0-1.63.7.81.81,0,0,0-.34.44.38.38,0,0,0,.06.36.48.48,0,0,0,.4.16,7.32,7.32,0,0,0,1.29-.25,3.28,3.28,0,0,1,1.55-.09A1.88,1.88,0,0,1,112.46,88.94Z"/><path class="cls-2" d="M231.06,433.11A188.77,188.77,0,1,0,97.57,377.82a188.2,188.2,0,0,0,133.49,55.29ZM365.72,379A190.43,190.43,0,1,1,421.5,244.33,189.85,189.85,0,0,1,365.72,379Z"/><path class="cls-2" d="M230.4,38.45a.66.66,0,1,1,1.32,0v96.87a.66.66,0,0,1-1.32,0V38.45Zm0,314.89a.66.66,0,0,1,1.32,0v96.87a.66.66,0,0,1-1.32,0Z"/><path class="cls-2" d="M333.43,65.7a.66.66,0,1,1,1.14.66l-48.42,83.88a.68.68,0,0,1-.91.24.67.67,0,0,1-.24-.9L333.43,65.7ZM176,338.42a.67.67,0,0,1,.9-.24.66.66,0,0,1,.25.9L128.69,423a.66.66,0,0,1-1.14-.66Z"/><path class="cls-2" d="M409,140.82a.65.65,0,0,1,.9.24.67.67,0,0,1-.24.9l-83.88,48.43a.66.66,0,0,1-.66-1.15L409,140.82ZM136.31,298.27a.66.66,0,1,1,.66,1.14L53.09,347.84a.66.66,0,1,1-.66-1.14Z"/><path class="cls-2" d="M436.94,243.67a.66.66,0,0,1,0,1.32H340.07a.66.66,0,1,1,0-1.32Zm-314.89,0a.66.66,0,1,1,0,1.32H25.18a.66.66,0,1,1,0-1.32Z"/><path class="cls-2" d="M409.69,346.7a.66.66,0,1,1-.66,1.14l-83.88-48.43a.65.65,0,0,1-.24-.9.67.67,0,0,1,.9-.24l83.88,48.43ZM137,189.24a.67.67,0,0,1,.24.9.66.66,0,0,1-.9.25L52.43,142a.66.66,0,0,1-.24-.9.65.65,0,0,1,.9-.24Z"/><path class="cls-2" d="M334.57,422.3a.66.66,0,0,1-.24.9.67.67,0,0,1-.9-.24L285,339.08a.66.66,0,0,1,1.15-.66l48.42,83.88ZM177.12,149.58a.67.67,0,0,1-.24.9.68.68,0,0,1-.91-.24L127.55,66.36a.66.66,0,0,1,1.14-.66Z"/><path class="cls-2" d="M230.64,429a.49.49,0,0,0-.35.85.48.48,0,0,0,.34.14h1.42a.5.5,0,0,0,.37-.83.51.51,0,0,0-.37-.16h-1.41Zm-3,1a.48.48,0,0,0,.5-.5.49.49,0,0,0-.49-.49h-.18l-.8,0a.49.49,0,0,0-.46.27.5.5,0,0,0,.43.72l.81,0Zm-4-.11A.5.5,0,0,0,224,429a.43.43,0,0,0-.33-.15l-1-.05a.5.5,0,0,0-.43.79.52.52,0,0,0,.38.21l1,0Zm-4-.2a.5.5,0,1,0,.06-1l-.55,0-.43,0a.49.49,0,0,0-.41.82.51.51,0,0,0,.34.17l.44,0,.55,0Zm-4-.28a.5.5,0,0,0,.44-.79.46.46,0,0,0-.36-.2h-.12l-.86-.08a.5.5,0,0,0-.4.84.46.46,0,0,0,.31.15l.87.08Zm-4-.37a.5.5,0,0,0,.45-.79.55.55,0,0,0-.35-.2l-.85-.09h-.13a.51.51,0,0,0-.46.2.5.5,0,0,0,.35.79h.14l.85.09Zm-4-.45a.5.5,0,0,0,.49-.75.53.53,0,0,0-.36-.24l-.39,0-.59-.08a.51.51,0,0,0-.44.16.5.5,0,0,0,.31.82l.59.08.39.05Zm-3.94-.54a.5.5,0,0,0,.15-1l-1-.14a.5.5,0,0,0-.45.82.55.55,0,0,0,.3.16l1,.14Zm-3.93-.62a.5.5,0,0,0,.58-.46.52.52,0,0,0-.42-.52l-.58-.09-.39-.07a.48.48,0,0,0-.48.18.49.49,0,0,0,.3.79l.4.07.59.1Zm-3.92-.7a.5.5,0,0,0,.19-1h-.1l-.87-.18a.51.51,0,0,0-.47.16.5.5,0,0,0,.27.82l.88.17.1,0Zm-3.9-.79a.52.52,0,0,0,.46-.14.5.5,0,0,0-.25-.83l-.73-.16-.24,0a.51.51,0,0,0-.41.09.5.5,0,0,0,.19.88l.25.05.73.16Zm-3.89-.87a.52.52,0,0,0,.5-.16.5.5,0,0,0-.27-.81l-.21-.05-.75-.18a.5.5,0,0,0-.56.71.49.49,0,0,0,.33.25l.75.19.21,0Zm-3.86-1a.5.5,0,0,0,.54-.75.47.47,0,0,0-.29-.21l-.81-.21-.14,0a.5.5,0,0,0-.59.69.53.53,0,0,0,.33.27l.15,0,.81.21Zm-3.84-1a.5.5,0,0,0,.57-.72.46.46,0,0,0-.3-.23l-.29-.09-.66-.19a.49.49,0,0,0-.49.13.5.5,0,0,0,.21.83l.67.19.29.08Zm-3.82-1.12a.5.5,0,0,0,.6-.67A.46.46,0,0,0,177,421l-.85-.26-.09,0a.48.48,0,0,0-.51.13.49.49,0,0,0,.21.81l.1,0,.85.26Zm-3.79-1.21a.49.49,0,0,0,.63-.59.47.47,0,0,0-.32-.35l-.32-.1-.62-.21a.5.5,0,1,0-.32.94l.63.21.32.1Zm-3.77-1.29a.49.49,0,1,0,.33-.93l-.84-.3-.09,0a.5.5,0,1,0-.34.93l.09,0,.85.3Zm-3.74-1.36a.51.51,0,0,0,.49-.08.5.5,0,0,0-.14-.85l-.3-.12-.62-.23a.49.49,0,0,0-.64.64.48.48,0,0,0,.28.28l.63.24.3.12Zm-3.71-1.45a.51.51,0,0,0,.48-.06.5.5,0,0,0-.1-.86l-.81-.33-.11,0a.5.5,0,0,0-.64.67.51.51,0,0,0,.26.24l.11,0,.81.33ZM158,415.07a.5.5,0,0,0,.66-.63.53.53,0,0,0-.27-.28l-.27-.11-.64-.28a.49.49,0,0,0-.68.57.53.53,0,0,0,.28.34l.65.28.27.11Zm-3.65-1.61a.48.48,0,0,0,.49,0,.5.5,0,0,0-.07-.86l-.75-.34-.15-.07a.5.5,0,1,0-.42.9l.16.07.74.34Zm-3.6-1.68a.49.49,0,0,0,.68-.61.44.44,0,0,0-.25-.28l-.2-.1-.69-.34a.52.52,0,0,0-.56.09.5.5,0,0,0,.12.81l.7.33.2.1ZM147.2,410a.5.5,0,0,0,.72-.52.54.54,0,0,0-.27-.37l-.66-.33-.22-.12a.5.5,0,0,0-.71.59.48.48,0,0,0,.25.29l.23.12.66.34Zm-3.53-1.84a.47.47,0,0,0,.46,0,.5.5,0,0,0,0-.88l-.12-.06-.75-.4a.5.5,0,0,0-.72.56.53.53,0,0,0,.24.31l.76.41.12.06Zm-3.49-1.91a.5.5,0,0,0,.73-.53.48.48,0,0,0-.24-.34l-.56-.31-.3-.18a.5.5,0,0,0-.73.57.53.53,0,0,0,.23.3l.31.17.56.32Zm-3.45-2a.5.5,0,0,0,.51-.86l-.85-.5a.5.5,0,0,0-.75.47.47.47,0,0,0,.24.38l.85.51Zm-3.4-2.07a.49.49,0,0,0,.75-.47.53.53,0,0,0-.23-.37l-.44-.27-.4-.25a.5.5,0,0,0-.76.48.52.52,0,0,0,.23.36l.4.25.45.27ZM130,400.08a.5.5,0,0,0,.76-.52.49.49,0,0,0-.21-.31l-.83-.54a.5.5,0,0,0-.76.52.56.56,0,0,0,.21.31l.83.54Zm-3.31-2.2a.5.5,0,0,0,.78-.46.48.48,0,0,0-.22-.36l-.32-.22-.49-.34a.5.5,0,0,0-.57.81l.5.35.32.22Zm-3.26-2.28a.49.49,0,0,0,.76-.54.5.5,0,0,0-.18-.27l-.72-.51-.09-.06a.49.49,0,0,0-.51-.05.5.5,0,0,0-.07.85l.09.07.72.51Zm-3.22-2.35a.5.5,0,0,0,.6-.79l-.2-.15-.6-.45a.5.5,0,1,0-.59.8l.59.45.2.14ZM117,390.84a.5.5,0,1,0,.61-.78l-.57-.45-.21-.16a.49.49,0,0,0-.8.41.45.45,0,0,0,.18.36l.21.17.58.45Zm-3.12-2.48a.49.49,0,0,0,.81-.39.48.48,0,0,0-.18-.38l-.07-.06-.69-.57a.5.5,0,0,0-.82.4.53.53,0,0,0,.18.37l.7.57.07.06Zm-3.06-2.55a.48.48,0,0,0,.46.1.49.49,0,0,0,.19-.85l-.43-.37-.32-.27a.5.5,0,0,0-.82.46.58.58,0,0,0,.17.29l.32.27.43.37Zm-3-2.61a.5.5,0,1,0,.66-.74l-.74-.66a.53.53,0,0,0-.47-.11.5.5,0,0,0-.19.85l.74.66Zm-3-2.67a.5.5,0,0,0,.84-.34.51.51,0,0,0-.16-.39l-.3-.27-.43-.4a.46.46,0,0,0-.4-.13.49.49,0,0,0-.28.85l.43.4.3.28ZM102,377.79a.49.49,0,0,0,.84-.34.48.48,0,0,0-.15-.37l-.63-.61-.08-.08a.49.49,0,0,0-.84.34.51.51,0,0,0,.15.37l.08.08.63.61ZM99.16,375a.49.49,0,0,0,.85-.31.49.49,0,0,0-.14-.38l-.17-.17-.53-.54a.5.5,0,0,0-.71.69l.53.54.17.17Zm-2.77-2.86a.5.5,0,0,0,.86-.33.52.52,0,0,0-.14-.35l-.49-.51-.19-.21a.49.49,0,0,0-.85.28.47.47,0,0,0,.13.4l.19.21.49.51Zm-2.71-2.91a.5.5,0,0,0,.85-.21.49.49,0,0,0-.12-.46l0-.05-.61-.68a.49.49,0,0,0-.86.31.46.46,0,0,0,.12.35l.62.68.05.06Zm-2.65-3a.5.5,0,0,0,.87-.3.46.46,0,0,0-.12-.35l-.36-.42-.29-.33a.48.48,0,0,0-.49-.16.49.49,0,0,0-.26.8l.29.34.36.42Zm-2.58-3a.49.49,0,0,0,.76-.63l-.63-.77a.48.48,0,0,0-.64-.1.49.49,0,0,0-.13.73l.64.77Zm-2.52-3.09a.48.48,0,0,0,.5.18.49.49,0,0,0,.28-.79l-.24-.31-.38-.47a.49.49,0,0,0-.88.26.52.52,0,0,0,.1.36l.38.47.24.3ZM83.48,357a.5.5,0,0,0,.89-.24.52.52,0,0,0-.1-.36l-.53-.69-.07-.1a.48.48,0,0,0-.4-.2.5.5,0,0,0-.39.8l.07.1.53.69Zm-2.38-3.19a.5.5,0,0,0,.88-.16.48.48,0,0,0-.08-.42l-.14-.2-.44-.6a.5.5,0,0,0-.86.09.51.51,0,0,0,.05.49l.45.61.14.19Zm-2.32-3.24a.48.48,0,0,0,.44.22.5.5,0,0,0,.38-.78l-.42-.6L79,349.2a.49.49,0,0,0-.89.18.51.51,0,0,0,.07.38l.16.22.41.59Zm-2.24-3.28a.5.5,0,0,0,.88-.11.49.49,0,0,0-.06-.44l0-.08-.49-.75a.5.5,0,0,0-.9.15.47.47,0,0,0,.07.4l.49.75.06.08ZM74.36,344a.5.5,0,0,0,.84-.53l-.32-.49-.21-.34a.49.49,0,0,0-.89.1.48.48,0,0,0,0,.42l.22.35.31.49Zm-2.1-3.38a.5.5,0,0,0,.91-.14.53.53,0,0,0-.06-.37l-.51-.85a.5.5,0,0,0-.86.51l.52.85Zm-2-3.42a.49.49,0,0,0,.51.24.5.5,0,0,0,.35-.74l-.23-.4-.26-.45a.5.5,0,0,0-.9.06.54.54,0,0,0,0,.43l.27.45.23.41Zm-2-3.47a.5.5,0,0,0,.84.06.51.51,0,0,0,0-.53l-.48-.87a.51.51,0,0,0-.69-.2.5.5,0,0,0-.18.67l.47.87Zm-1.88-3.51a.5.5,0,0,0,.91-.05.47.47,0,0,0,0-.4l-.17-.33-.28-.55a.5.5,0,0,0-.62-.24.5.5,0,0,0-.27.69l.29.56.17.32Zm-1.8-3.54a.5.5,0,0,0,.89,0,.49.49,0,0,0,0-.44l-.39-.79,0-.1a.49.49,0,1,0-.89.43l0,.11.39.79ZM62.86,323a.5.5,0,1,0,.9-.42l-.12-.25-.3-.65a.51.51,0,0,0-.45-.29.5.5,0,0,0-.45.71l.3.65.12.25Zm-1.65-3.62a.5.5,0,0,0,.91,0,.51.51,0,0,0,0-.4l-.33-.75-.07-.16a.5.5,0,0,0-.89,0,.52.52,0,0,0,0,.44l.07.16.33.75Zm-1.57-3.66a.49.49,0,1,0,.91-.38l-.08-.21-.3-.7a.49.49,0,0,0-.91,0,.48.48,0,0,0,0,.37l.29.71.09.21Zm-1.5-3.69a.5.5,0,0,0,.63.29.5.5,0,0,0,.3-.65l-.28-.72-.08-.2a.5.5,0,0,0-.93.35l.08.21.28.72Zm-1.41-3.72a.5.5,0,1,0,.93-.34l-.07-.19-.27-.74a.43.43,0,0,0-.28-.29.5.5,0,0,0-.65.63l.27.75.07.18ZM55.4,304.6a.49.49,0,0,0,.4.33.5.5,0,0,0,.54-.65l-.25-.72-.07-.22a.5.5,0,0,0-.92,0,.52.52,0,0,0,0,.37l.07.22.25.72Zm-1.25-3.78a.47.47,0,0,0,.41.34.49.49,0,0,0,.53-.64l-.06-.19-.23-.75a.5.5,0,0,0-.9-.12.53.53,0,0,0,0,.41l.24.76.06.19ZM53,297a.49.49,0,1,0,1-.27l-.22-.76-.06-.19a.49.49,0,0,0-.92-.08.53.53,0,0,0,0,.35l.06.2L53,297Zm-1.09-3.82a.5.5,0,0,0,.44.36.49.49,0,0,0,.52-.62l-.06-.24-.2-.72a.48.48,0,0,0-.39-.36.5.5,0,0,0-.57.62l.2.72.06.24Zm-1-3.86a.49.49,0,0,0,.89.16.45.45,0,0,0,.07-.39l-.2-.84,0-.12a.5.5,0,0,0-.9-.17.51.51,0,0,0-.07.4l0,.13.21.83ZM50,285.46a.5.5,0,0,0,.87.21.54.54,0,0,0,.1-.43l-.08-.32-.14-.64a.47.47,0,0,0-.31-.36.49.49,0,0,0-.66.57l.14.64.08.33Zm-.84-3.89a.5.5,0,0,0,.86.24.52.52,0,0,0,.12-.43l-.2-1a.49.49,0,1,0-1,.18l.19,1Zm-.75-3.91a.5.5,0,1,0,1-.17l-.09-.47-.09-.51a.51.51,0,0,0-.37-.4.5.5,0,0,0-.6.57l.09.51.08.47Zm-.67-3.92a.49.49,0,0,0,.62.4.49.49,0,0,0,.36-.55l-.15-1a.5.5,0,1,0-1,.16l.15,1Zm-.58-3.94a.49.49,0,0,0,.86.26.46.46,0,0,0,.12-.39L48,269l0-.31a.49.49,0,1,0-1,.12l0,.33.09.66Zm-.5-3.95a.5.5,0,0,0,.87.27.51.51,0,0,0,.12-.38l0-.21-.08-.77a.51.51,0,0,0-.36-.43.5.5,0,0,0-.63.53l.09.79,0,.2Zm-.41-4a.5.5,0,0,0,.88.27.52.52,0,0,0,.11-.36l-.09-.92v-.06a.5.5,0,0,0-.85-.31.48.48,0,0,0-.14.39V261l.09.92Zm-.33-4a.5.5,0,0,0,.8.35.48.48,0,0,0,.19-.42l0-.5,0-.49a.5.5,0,0,0-.69-.43.52.52,0,0,0-.3.49l0,.5,0,.5Zm-.25-4a.5.5,0,0,0,.85.33.49.49,0,0,0,.14-.38v-.07l0-.91a.52.52,0,0,0-.39-.47.5.5,0,0,0-.61.51l0,.92V254Zm-.16-4a.5.5,0,0,0,.81.38.47.47,0,0,0,.18-.4l0-.86V249a.51.51,0,0,0-.29-.44.5.5,0,0,0-.71.46v.14l0,.85Zm-.08-4a.52.52,0,0,0,.31.45.5.5,0,0,0,.69-.46v-1a.49.49,0,0,0-.82-.37.48.48,0,0,0-.17.37v1Zm0-4a.5.5,0,0,0,.83.37.46.46,0,0,0,.16-.36v-.09l0-.9a.51.51,0,0,0-.51-.51.5.5,0,0,0-.48.49l0,.91V242Zm.09-4a.5.5,0,0,0,.85.37.48.48,0,0,0,.14-.34l0-.88v-.11a.5.5,0,0,0-.82-.39.47.47,0,0,0-.17.35v.11l0,.89Zm.18-4a.49.49,0,0,0,.75.45.5.5,0,0,0,.24-.39l0-.47,0-.52a.48.48,0,0,0-.24-.46.5.5,0,0,0-.75.4l0,.52,0,.47Zm.26-4a.49.49,0,0,0,.83.4.51.51,0,0,0,.15-.33l.08-1a.49.49,0,0,0-.79-.44.49.49,0,0,0-.2.36l-.07,1Zm.34-4a.5.5,0,0,0,.72.5.52.52,0,0,0,.27-.4l.07-.77,0-.21a.49.49,0,0,0-.78-.45.44.44,0,0,0-.2.34l0,.22-.08.77Zm.43-4a.47.47,0,0,0,.23.48.5.5,0,0,0,.75-.37l0-.32.08-.66a.49.49,0,1,0-1-.12l-.09.67,0,.32Zm.51-3.95a.49.49,0,0,0,.2.47.49.49,0,0,0,.78-.33l.14-1a.49.49,0,0,0-.2-.48.5.5,0,0,0-.78.33l-.14,1Zm.6-3.94a.5.5,0,0,0,.69.54.52.52,0,0,0,.29-.37l.08-.53.08-.45a.5.5,0,0,0-1-.17l-.08.45-.08.53Zm.68-3.92a.49.49,0,1,0,1,.18l.19-1a.5.5,0,0,0-.28-.54.49.49,0,0,0-.7.35l-.18,1Zm.76-3.91a.5.5,0,0,0,1,.21l.13-.67.07-.3a.5.5,0,0,0-.77-.51.5.5,0,0,0-.2.3l-.07.3-.14.67Zm.85-3.88a.52.52,0,0,0,.14.47.5.5,0,0,0,.83-.25l0-.17.18-.79a.48.48,0,0,0-.15-.49.5.5,0,0,0-.81.26l-.19.8,0,.17Zm.94-3.87a.49.49,0,0,0,1,.24l.19-.76,0-.2a.5.5,0,0,0-.75-.54.56.56,0,0,0-.21.29l0,.2-.19.77Zm1-3.85a.5.5,0,0,0,.66.6.49.49,0,0,0,.3-.34l.07-.24.2-.71a.5.5,0,0,0-.72-.57.51.51,0,0,0-.24.3l-.2.71-.07.25Zm1.1-3.83a.5.5,0,0,0,.72.58.48.48,0,0,0,.23-.29l.25-.81,0-.14a.5.5,0,0,0-.95-.29l0,.14-.25.81Zm1.19-3.8a.49.49,0,0,0,.94.31l.09-.28.22-.66a.5.5,0,0,0-1-.31l-.22.66-.08.28Zm1.26-3.77a.5.5,0,0,0,.66.62.53.53,0,0,0,.28-.29l.28-.82,0-.12a.47.47,0,0,0-.07-.46.49.49,0,0,0-.86.13l0,.12-.28.82ZM57,179.7a.49.49,0,0,0,.62.64.48.48,0,0,0,.3-.29l.11-.28.24-.65a.5.5,0,0,0-.67-.63.51.51,0,0,0-.26.28l-.24.66-.1.27ZM58.38,176a.5.5,0,0,0,.62.66.48.48,0,0,0,.3-.29l.31-.78.06-.13a.53.53,0,0,0-.06-.49.5.5,0,0,0-.86.11l-.06.14-.31.78Zm1.51-3.68a.5.5,0,0,0,.91.39l.1-.24.29-.67a.5.5,0,0,0-.65-.66.47.47,0,0,0-.26.26l-.29.68-.1.24Zm1.58-3.65a.5.5,0,0,0,.91.41l.32-.73.08-.18a.48.48,0,0,0,0-.49.5.5,0,0,0-.86.08l-.08.18-.33.73ZM63.13,165a.5.5,0,1,0,.9.43l.09-.18.34-.71a.5.5,0,0,0-.27-.68.49.49,0,0,0-.63.24l-.34.72-.09.18Zm1.75-3.58a.49.49,0,0,0,.43.72.5.5,0,0,0,.45-.27l.32-.65.13-.23a.5.5,0,0,0-.89-.46l-.12.25-.32.64Zm1.81-3.54a.5.5,0,0,0,.88.47l.05-.11.41-.77a.49.49,0,1,0-.87-.47l-.41.78-.06.1Zm1.9-3.5a.49.49,0,0,0,.55.72.47.47,0,0,0,.31-.24l.31-.54.17-.32a.49.49,0,0,0-.86-.49l-.18.32-.3.55Zm2-3.46a.5.5,0,0,0,.51.74.47.47,0,0,0,.35-.24l.5-.85a.51.51,0,0,0,0-.52.5.5,0,0,0-.85,0l-.51.86Zm2-3.42a.49.49,0,0,0,.5.75.46.46,0,0,0,.34-.23l.27-.43.25-.41a.49.49,0,0,0-.48-.75.45.45,0,0,0-.36.22l-.26.42-.26.43Zm2.11-3.37a.5.5,0,1,0,.83.54l.54-.83a.5.5,0,0,0-.51-.76.49.49,0,0,0-.32.22l-.54.83Zm2.19-3.33a.5.5,0,0,0,.31.77.49.49,0,0,0,.51-.21l.21-.31.34-.51a.49.49,0,0,0-.45-.77.51.51,0,0,0-.37.21l-.34.51-.21.31Zm2.25-3.28a.5.5,0,0,0,.46.79.5.5,0,0,0,.35-.21l.5-.7.07-.11a.5.5,0,0,0-.53-.77.52.52,0,0,0-.27.19l-.08.11-.5.7Zm2.33-3.22a.49.49,0,0,0,0,.51.51.51,0,0,0,.85.08l.13-.19.46-.61a.5.5,0,0,0-.8-.59l-.45.61-.14.19Zm2.39-3.18a.5.5,0,0,0,0,.53.49.49,0,0,0,.83.07l.43-.56.17-.22a.49.49,0,0,0-.35-.8.51.51,0,0,0-.43.19l-.17.22-.44.57ZM86.34,128a.5.5,0,0,0,.41.81.52.52,0,0,0,.36-.19l0-.06.57-.71a.5.5,0,0,0-.39-.81.52.52,0,0,0-.38.19l-.58.71,0,.06Zm2.52-3.08a.5.5,0,0,0,.44.82.53.53,0,0,0,.32-.17l.36-.43.28-.33a.47.47,0,0,0,.1-.45.49.49,0,0,0-.85-.2l-.29.34-.36.42Zm2.6-3a.5.5,0,0,0,.41.83.49.49,0,0,0,.33-.17l.66-.74a.5.5,0,0,0-.42-.83.53.53,0,0,0-.33.17l-.65.74Zm2.65-3a.5.5,0,0,0,.42.83.52.52,0,0,0,.32-.16l.26-.29.41-.43a.5.5,0,0,0-.34-.84.48.48,0,0,0-.39.16l-.41.44-.27.29Zm2.73-2.91a.5.5,0,1,0,.71.69l.6-.62.09-.09a.5.5,0,0,0-.35-.84.48.48,0,0,0-.37.15l-.08.09-.6.62Zm2.78-2.84a.49.49,0,0,0,.32.84.5.5,0,0,0,.38-.14l.16-.16.54-.54a.5.5,0,0,0-.31-.85.47.47,0,0,0-.39.15l-.54.54-.16.16Zm2.84-2.79a.49.49,0,0,0,.08.78.5.5,0,0,0,.6-.06l.51-.49.21-.2a.49.49,0,0,0-.34-.85.47.47,0,0,0-.34.13l-.22.2-.5.49Zm2.9-2.73a.49.49,0,0,0,.34.86.48.48,0,0,0,.33-.13l0,0,.69-.62a.5.5,0,0,0-.21-.85.51.51,0,0,0-.46.11l-.69.63,0,0Zm3-2.66a.5.5,0,0,0,.25.86.54.54,0,0,0,.41-.11l.4-.36.34-.3a.5.5,0,0,0-.29-.87.51.51,0,0,0-.36.12l-.34.3-.41.36Zm3-2.6a.49.49,0,1,0,.63.76l.76-.64a.49.49,0,0,0-.24-.87.5.5,0,0,0-.39.11l-.76.64Zm3.06-2.54a.5.5,0,0,0,.27.88.51.51,0,0,0,.36-.1l.29-.24.48-.39a.48.48,0,0,0,.17-.49.49.49,0,0,0-.79-.28l-.48.38-.3.24Zm3.13-2.47a.49.49,0,0,0,.17.87.5.5,0,0,0,.43-.08l.68-.52.1-.08a.5.5,0,0,0-.23-.89.46.46,0,0,0-.36.09l-.11.09-.68.52Zm3.17-2.4a.5.5,0,0,0,.21.89.51.51,0,0,0,.38-.09l.18-.14.62-.45a.5.5,0,0,0-.17-.88.49.49,0,0,0-.42.08l-.62.46-.18.13Zm3.22-2.34a.5.5,0,0,0,.22.9.51.51,0,0,0,.36-.08l.57-.41.23-.16a.5.5,0,1,0-.56-.82l-.24.17-.58.4Zm3.28-2.26a.49.49,0,1,0,.55.82l.07,0,.75-.51a.49.49,0,1,0-.55-.82l-.76.5-.06,0Zm3.32-2.19a.49.49,0,0,0-.23.45.49.49,0,0,0,.76.38l.48-.31.36-.22a.5.5,0,1,0-.53-.84l-.36.23-.48.31Zm3.37-2.13a.5.5,0,0,0,0,.85.47.47,0,0,0,.51,0l.85-.52a.5.5,0,0,0,.1-.77.52.52,0,0,0-.62-.08l-.84.52Zm3.41-2a.5.5,0,0,0,.06.89.49.49,0,0,0,.44,0l.38-.23.47-.27a.48.48,0,0,0,.24-.51.49.49,0,0,0-.73-.35l-.48.28-.38.22Zm3.45-2a.5.5,0,0,0,.1.91.55.55,0,0,0,.38,0l.87-.48a.5.5,0,0,0,.06-.84.53.53,0,0,0-.54,0l-.87.49Zm3.5-1.9a.49.49,0,0,0,.07.9.45.45,0,0,0,.39,0l.31-.16.57-.3a.49.49,0,0,0-.06-.9.51.51,0,0,0-.4,0l-.58.3-.3.17Zm3.54-1.83a.5.5,0,0,0,.44.89l.77-.39.11,0a.5.5,0,0,0,0-.9.54.54,0,0,0-.43,0l-.13.06-.76.39Zm3.57-1.75a.5.5,0,0,0,0,.9.51.51,0,0,0,.42,0l.23-.11.66-.32a.5.5,0,1,0-.42-.9l-.67.32-.23.11ZM155,74.93a.49.49,0,0,0-.14.8.47.47,0,0,0,.55.1l.72-.32.18-.08a.5.5,0,0,0,0-.91.53.53,0,0,0-.41,0l-.19.08-.72.33Zm3.65-1.6a.5.5,0,0,0,0,.92.48.48,0,0,0,.37,0l.18-.08.73-.31a.49.49,0,1,0-.38-.91l-.74.31-.18.07Zm3.68-1.51a.48.48,0,0,0-.31.46.49.49,0,0,0,.68.46l.69-.27.23-.09a.5.5,0,0,0-.36-.93l-.24.09-.69.28ZM166,70.38a.52.52,0,0,0-.32.42.5.5,0,0,0,.67.51l.16,0,.77-.29a.5.5,0,0,0-.34-.93l-.78.28-.16.06ZM169.75,69a.49.49,0,0,0-.33.41.5.5,0,0,0,.65.53l.69-.24.25-.09a.51.51,0,0,0,.33-.4.5.5,0,0,0-.65-.54l-.25.09-.69.24Zm3.77-1.27a.49.49,0,0,0-.2.82.49.49,0,0,0,.5.12l.16,0,.79-.25a.51.51,0,0,0,.34-.41.5.5,0,0,0-.64-.54l-.8.25-.15.06Zm3.8-1.2a.5.5,0,0,0-.1.92.55.55,0,0,0,.38,0l.72-.22.23-.07a.5.5,0,1,0-.28-1l-.23.07-.72.21Zm3.82-1.11a.5.5,0,0,0-.26.79.48.48,0,0,0,.52.17l.2,0,.76-.21a.5.5,0,0,0,.36-.43.5.5,0,0,0-.62-.53l-.76.21-.2,0Zm3.85-1a.49.49,0,1,0,.24,1l.79-.2.17,0a.5.5,0,0,0,.16-.89.52.52,0,0,0-.4-.08l-.18,0-.78.2Zm3.86-.94a.49.49,0,0,0-.19.87.49.49,0,0,0,.42.09l.27-.06.69-.16a.5.5,0,0,0,.35-.68.51.51,0,0,0-.57-.29l-.69.16-.28.07Zm3.89-.86a.49.49,0,0,0-.16.9.5.5,0,0,0,.36.07l.9-.19h.07a.5.5,0,0,0,.24-.86.52.52,0,0,0-.43-.12l-.08,0-.9.19Zm3.9-.78a.51.51,0,0,0-.39.38.5.5,0,0,0,.57.6l.41-.08.57-.1a.5.5,0,0,0-.18-1l-.57.1-.41.08Zm3.93-.69a.5.5,0,0,0-.25.87.52.52,0,0,0,.4.11l1-.16a.49.49,0,0,0,.24-.87.5.5,0,0,0-.39-.11l-1,.16Zm3.93-.61a.51.51,0,0,0-.4.32.49.49,0,0,0,.54.66l.59-.08.38-.05a.5.5,0,0,0,.27-.86.49.49,0,0,0-.4-.13l-.38.06-.6.08Zm3.94-.52a.5.5,0,0,0-.3.83.51.51,0,0,0,.42.16l.14,0,.84-.1a.5.5,0,0,0,.28-.87.55.55,0,0,0-.39-.12l-.85.1-.14,0Zm4-.44a.5.5,0,0,0-.3.85.51.51,0,0,0,.39.14l.85-.08.14,0a.5.5,0,0,0,.27-.88.51.51,0,0,0-.36-.1h-.14l-.85.08Zm4-.35a.5.5,0,0,0,.08,1l.41,0,.58,0a.49.49,0,0,0,.35-.8.47.47,0,0,0-.42-.2l-.58.05-.42,0Zm4-.27a.5.5,0,0,0-.33.85.49.49,0,0,0,.38.14l1-.05a.5.5,0,0,0,.32-.85.46.46,0,0,0-.37-.14l-1,0Zm4-.18a.48.48,0,0,0-.4.23.5.5,0,0,0,.43.76l.77,0h.22a.5.5,0,0,0,0-1h-.24l-.76,0Zm4-.1a.49.49,0,0,0-.44.28.49.49,0,0,0,.45.71h1a.5.5,0,1,0,0-1h-1Zm4,0a.5.5,0,1,0,0,1h1a.49.49,0,0,0,.37-.83.48.48,0,0,0-.36-.16Zm4,.07a.5.5,0,0,0-.39.82.51.51,0,0,0,.36.17l.79,0h.2a.5.5,0,0,0,.45-.74.48.48,0,0,0-.41-.25h-.2l-.8,0Zm4,.15a.5.5,0,0,0-.43.79.51.51,0,0,0,.38.2l.38,0,.61,0a.5.5,0,1,0,.05-1l-.61,0-.38,0Zm4,.23a.5.5,0,0,0-.39.84.46.46,0,0,0,.32.15l1,.08a.5.5,0,0,0,.4-.84.51.51,0,0,0-.33-.15l-1-.08Zm4,.32a.5.5,0,0,0-.09,1l.7.07.28,0a.5.5,0,0,0,.49-.72.49.49,0,0,0-.39-.27l-.29,0-.7-.07Zm4,.41a.51.51,0,0,0-.46.2.49.49,0,0,0,.34.78l.26,0L253,61a.5.5,0,0,0,.12-1l-.74-.08-.25,0Zm3.95.49a.46.46,0,0,0-.46.19.49.49,0,0,0,.32.79l1,.13a.49.49,0,0,0,.48-.2.5.5,0,0,0-.33-.78l-1-.13Zm3.94.57a.5.5,0,1,0-.16,1l.47.07.51.09a.5.5,0,0,0,.53-.7.49.49,0,0,0-.37-.28l-.51-.09-.47-.07Zm3.92.66a.5.5,0,0,0-.18,1l1,.17a.48.48,0,0,0,.53-.26.49.49,0,0,0-.35-.71l-1-.18Zm3.91.74a.5.5,0,0,0-.52.74.47.47,0,0,0,.32.23l.63.13.34.07a.49.49,0,0,0,.49-.17.5.5,0,0,0-.28-.8l-.35-.07-.63-.13Zm3.9.83a.5.5,0,0,0-.22,1l.12,0,.84.19a.49.49,0,1,0,.23-1l-.86-.2-.11,0Zm3.87.91a.48.48,0,0,0-.51.18.49.49,0,0,0,.27.78l.73.18.23.06a.5.5,0,0,0,.58-.68.51.51,0,0,0-.33-.28l-.24-.06-.73-.18Zm3.86,1a.5.5,0,0,0-.58.69.48.48,0,0,0,.32.27l.2,0,.75.21a.5.5,0,0,0,.6-.65.53.53,0,0,0-.33-.31l-.76-.2-.2-.06Zm3.83,1.08a.5.5,0,0,0-.59.69.48.48,0,0,0,.31.26l.77.23.18,0a.5.5,0,0,0,.58-.71.52.52,0,0,0-.29-.24l-.18-.05-.78-.23Zm3.81,1.16a.48.48,0,0,0-.51.13.49.49,0,0,0,.21.81l.24.08.7.23a.5.5,0,0,0,.61-.67.55.55,0,0,0-.3-.28l-.71-.22-.24-.08Zm3.78,1.24a.5.5,0,0,0-.52.13.49.49,0,0,0,.2.81l.78.27.15,0a.5.5,0,0,0,.63-.66.52.52,0,0,0-.3-.28l-.16,0-.78-.27Zm3.75,1.32a.5.5,0,1,0-.34.94l.25.08.68.26a.5.5,0,0,0,.64-.63.48.48,0,0,0-.29-.3l-.69-.26-.25-.09Zm3.73,1.41a.49.49,0,1,0-.36.92l.75.3.17.06a.5.5,0,0,0,.37-.92l-.17-.07-.76-.29Zm3.69,1.48a.5.5,0,0,0-.64.67.53.53,0,0,0,.26.25l.21.09.7.29a.5.5,0,0,0,.66-.64.53.53,0,0,0-.27-.28l-.7-.29-.22-.09Zm3.66,1.56a.5.5,0,0,0-.66.64.49.49,0,0,0,.26.27l.7.31.2.09a.48.48,0,0,0,.5,0,.49.49,0,0,0-.09-.85l-.2-.1-.71-.31Zm3.63,1.65a.5.5,0,0,0-.7.55.51.51,0,0,0,.28.34l.16.08.73.34a.5.5,0,0,0,.67-.65.47.47,0,0,0-.24-.24l-.74-.35-.16-.07ZM313,77.66a.49.49,0,0,0-.54.06.49.49,0,0,0,.1.82l.62.31.26.13a.49.49,0,0,0,.72-.43.47.47,0,0,0-.27-.45l-.26-.14-.63-.3Zm3.55,1.79a.49.49,0,0,0-.7.58.48.48,0,0,0,.24.3l.08,0,.8.42a.5.5,0,1,0,.46-.88l-.8-.42-.08,0ZM320,81.32a.5.5,0,0,0-.73.51.53.53,0,0,0,.25.36l.54.29.33.19a.5.5,0,0,0,.73-.56.57.57,0,0,0-.24-.31l-.35-.19-.53-.29Zm3.48,2a.5.5,0,0,0-.74.51.5.5,0,0,0,.24.35l.86.5a.5.5,0,0,0,.74-.51.52.52,0,0,0-.24-.35l-.86-.5Zm3.42,2a.49.49,0,0,0-.73.55.48.48,0,0,0,.22.3l.42.25.42.26a.5.5,0,0,0,.53-.84l-.44-.27-.42-.25Zm3.39,2.1a.46.46,0,0,0-.48,0,.49.49,0,0,0-.05.86l.83.53a.5.5,0,0,0,.76-.51.51.51,0,0,0-.22-.32l-.84-.53Zm3.34,2.16a.5.5,0,1,0-.55.83l.3.2.52.35a.5.5,0,1,0,.56-.82l-.53-.36-.3-.2Zm3.29,2.24a.5.5,0,0,0-.76.54.52.52,0,0,0,.19.27l.7.49.11.08a.5.5,0,0,0,.58-.81l-.12-.08-.7-.49Zm3.24,2.31a.49.49,0,0,0-.51,0,.5.5,0,0,0-.07.85l.18.13.62.45a.5.5,0,0,0,.51,0,.51.51,0,0,0,.08-.85l-.63-.45-.18-.13Zm3.2,2.37a.5.5,0,0,0-.8.43.52.52,0,0,0,.19.36l.56.43.23.17a.49.49,0,0,0,.53,0,.5.5,0,0,0,.08-.83l-.24-.18-.55-.43Zm3.14,2.45a.5.5,0,0,0-.81.41.52.52,0,0,0,.19.36l.05,0,.72.58a.5.5,0,0,0,.81-.42.48.48,0,0,0-.18-.35l-.73-.58-.05,0Zm3.09,2.51a.5.5,0,1,0-.64.76l.42.35.34.28a.5.5,0,0,0,.82-.43.54.54,0,0,0-.18-.33l-.34-.29-.42-.34Zm3,2.57a.52.52,0,0,0-.51-.09.5.5,0,0,0-.15.84l.75.65a.49.49,0,1,0,.65-.74l-.74-.66Zm3,2.64a.5.5,0,0,0-.83.4.54.54,0,0,0,.16.34l.29.25.45.41a.5.5,0,0,0,.83-.41.55.55,0,0,0-.16-.32l-.45-.41-.29-.26Zm2.93,2.7a.5.5,0,0,0-.69.72l.62.59.1.09a.49.49,0,0,0,.84-.35.48.48,0,0,0-.15-.36l-.1-.1-.62-.59Zm2.86,2.77a.5.5,0,0,0-.85.34.48.48,0,0,0,.15.36l.16.16.54.54a.5.5,0,0,0,.85-.32.49.49,0,0,0-.14-.38l-.56-.55-.15-.15Zm2.8,2.82a.5.5,0,0,0-.85.34.48.48,0,0,0,.14.35l.48.5.21.21a.49.49,0,0,0,.78-.08.5.5,0,0,0-.06-.6l-.21-.22-.49-.5Zm2.75,2.89a.5.5,0,0,0-.86.27.49.49,0,0,0,.13.4l.67.73a.5.5,0,0,0,.86-.35.44.44,0,0,0-.13-.32l-.67-.73Zm2.68,2.94a.5.5,0,0,0-.83.13.51.51,0,0,0,.09.53l.35.39.3.35a.5.5,0,1,0,.75-.66l-.31-.35-.35-.39Zm2.62,3a.49.49,0,0,0-.87.28.52.52,0,0,0,.11.36l.64.75a.5.5,0,0,0,.88-.28.48.48,0,0,0-.12-.36l-.64-.75Zm2.55,3a.49.49,0,0,0-.83.1.51.51,0,0,0,.06.53l.23.28.4.48a.5.5,0,0,0,.88-.26.52.52,0,0,0-.11-.36l-.4-.49-.23-.28Zm2.49,3.11a.49.49,0,0,0-.88.23.44.44,0,0,0,.1.37l.52.67.09.11a.49.49,0,0,0,.87-.17.48.48,0,0,0-.09-.43l-.09-.12-.52-.66Zm2.42,3.15a.5.5,0,0,0-.41-.19.49.49,0,0,0-.38.79l.12.17.47.62a.5.5,0,0,0,.89-.21.51.51,0,0,0-.09-.38l-.47-.63-.13-.17Zm2.36,3.21a.5.5,0,0,0-.88.14.47.47,0,0,0,.07.44l.4.57.17.24a.5.5,0,0,0,.9-.22.47.47,0,0,0-.09-.36l-.17-.24-.4-.57Zm2.28,3.26a.5.5,0,0,0-.9.19.49.49,0,0,0,.08.37l0,.06.52.76a.49.49,0,1,0,.82-.55l-.52-.77,0-.06Zm2.21,3.31a.49.49,0,0,0-.9.18.5.5,0,0,0,.07.36l.31.47.23.36a.49.49,0,0,0,.45.23.5.5,0,0,0,.39-.76l-.24-.37-.31-.47Zm2.15,3.36a.49.49,0,0,0-.91.17.48.48,0,0,0,.06.35l.52.84a.49.49,0,0,0,.91-.17.48.48,0,0,0-.06-.35l-.52-.84Zm2.06,3.4a.49.49,0,0,0-.77-.1.5.5,0,0,0-.08.6l.22.37.28.48a.5.5,0,0,0,.89-.06.49.49,0,0,0,0-.44L391,150l-.23-.37Zm2,3.44a.47.47,0,0,0-.47-.25.49.49,0,0,0-.39.73l.48.87a.5.5,0,0,0,.91-.1.46.46,0,0,0,0-.38l0-.06-.46-.81Zm1.92,3.48a.49.49,0,0,0-.87.47l.15.29.32.59a.49.49,0,0,0,.9-.07.47.47,0,0,0,0-.4l-.31-.59-.16-.29Zm1.85,3.53a.5.5,0,0,0-.87,0,.49.49,0,0,0,0,.47l.37.74.07.14a.5.5,0,0,0,.88,0,.49.49,0,0,0,0-.47l-.07-.14-.38-.75Zm1.77,3.57a.49.49,0,0,0-.9,0,.47.47,0,0,0,0,.4l.1.21.33.68a.5.5,0,0,0,.9,0,.48.48,0,0,0,0-.42l-.33-.68-.1-.21Zm1.7,3.6a.5.5,0,0,0-.91.41l.32.69.09.21a.5.5,0,1,0,.91-.4l-.1-.22-.31-.69Zm1.61,3.63a.5.5,0,0,0-.89,0,.52.52,0,0,0,0,.44l.07.15.32.76a.5.5,0,0,0,.92,0,.48.48,0,0,0,0-.37l-.32-.76-.07-.16Zm1.54,3.68a.5.5,0,1,0-.92.37l.27.66.1.26a.49.49,0,0,0,.91,0,.46.46,0,0,0,0-.38l-.1-.26-.27-.66Zm1.46,3.7a.53.53,0,0,0-.37-.31.49.49,0,0,0-.56.66l.05.13.3.8a.5.5,0,1,0,.93-.35l-.31-.81,0-.12ZM406,182a.49.49,0,1,0-.93.33l.23.65.1.28a.49.49,0,0,0,.41.33.49.49,0,0,0,.52-.65l-.09-.29L406,182Zm1.3,3.76a.5.5,0,0,0-.92-.06.53.53,0,0,0,0,.37l0,.12.27.82a.49.49,0,0,0,.82.2.49.49,0,0,0,.12-.5l-.27-.83,0-.12Zm1.21,3.79a.5.5,0,0,0-.93-.05.57.57,0,0,0,0,.34l.21.68.08.27a.5.5,0,0,0,.92.09.5.5,0,0,0,0-.38l-.08-.27-.21-.68Zm1.14,3.82a.5.5,0,0,0-.93-.08.53.53,0,0,0,0,.35l.05.15.22.8a.5.5,0,0,0,.78.26.5.5,0,0,0,.18-.52l-.23-.81,0-.15Zm1.05,3.84a.5.5,0,0,0-1,.25l.2.74.05.21a.5.5,0,0,0,.92.12.56.56,0,0,0,.05-.36l-.06-.22-.19-.74Zm1,3.86a.49.49,0,0,0-.89-.16.45.45,0,0,0-.07.39l.05.23.17.73a.5.5,0,0,0,1-.22l-.17-.74-.06-.23Zm.88,3.88a.5.5,0,0,0-1,.21l.19.85,0,.11a.5.5,0,0,0,.91.17.51.51,0,0,0,.06-.36l0-.13-.19-.85Zm.8,3.9a.49.49,0,1,0-1,.19l.07.35.11.62a.51.51,0,0,0,.38.39.5.5,0,0,0,.6-.57l-.12-.63-.07-.35Zm.72,3.92a.5.5,0,1,0-1,.16l.16,1a.5.5,0,0,0,.36.39.49.49,0,0,0,.62-.55l-.16-1Zm.63,3.93a.5.5,0,0,0-.75-.36.53.53,0,0,0-.24.5l.08.53.07.45a.52.52,0,0,0,.32.4.5.5,0,0,0,.66-.54l-.06-.45-.08-.53Zm.54,3.94a.49.49,0,1,0-1,.12v.07l.11.91a.5.5,0,0,0,.84.3.53.53,0,0,0,.15-.41l-.12-.93v-.06Zm.46,3.95a.5.5,0,0,0-.87-.27.47.47,0,0,0-.11.37l.08.78,0,.21a.5.5,0,0,0,1-.1l0-.21-.09-.78Zm.38,4a.5.5,0,0,0-1,.09l0,.33,0,.65a.54.54,0,0,0,.25.4.5.5,0,0,0,.74-.47l-.05-.66,0-.34Zm.29,4a.5.5,0,1,0-1,.05l.06,1a.5.5,0,0,0,1-.05l-.06-1Zm.21,4a.49.49,0,0,0-.86-.31.45.45,0,0,0-.13.35l0,.67v.32a.48.48,0,0,0,.23.4.5.5,0,0,0,.76-.44v-.32l0-.67Zm.12,4a.49.49,0,0,0-.28-.44.5.5,0,0,0-.71.46v1a.5.5,0,0,0,.28.44.5.5,0,0,0,.71-.46v-1Zm0,4A.49.49,0,0,0,416,244a.48.48,0,0,0-.31.45v1a.5.5,0,1,0,1,0v-1Zm0,4a.5.5,0,0,0-1,0l0,.7v.29a.5.5,0,0,0,.82.39.46.46,0,0,0,.17-.36v-.29l0-.7Zm-.13,4a.49.49,0,0,0-.82-.39.51.51,0,0,0-.17.35v.3l0,.69a.5.5,0,0,0,.79.43.52.52,0,0,0,.21-.38l0-.7v-.3Zm-.21,4a.5.5,0,0,0-1-.07l-.07,1a.5.5,0,1,0,1,.07l.07-1Zm-.3,4a.5.5,0,0,0-.84-.4.57.57,0,0,0-.15.31l-.05.63,0,.36a.49.49,0,1,0,1,.09l0-.36.05-.63Zm-.38,4a.5.5,0,0,0-.79-.45.5.5,0,0,0-.2.34v.18l-.09.81a.49.49,0,1,0,1,.11l.09-.81,0-.18Zm-.47,4a.46.46,0,0,0-.16-.44.5.5,0,0,0-.82.31l-.11.87,0,.1a.52.52,0,0,0,.19.47.5.5,0,0,0,.8-.33v-.1l.11-.88Zm-.54,3.94a.5.5,0,0,0-.83-.45.55.55,0,0,0-.16.3l-.06.4-.09.57a.5.5,0,0,0,.47.58.5.5,0,0,0,.51-.42l.09-.58.07-.4Zm-.64,3.93a.51.51,0,0,0-.18-.48.5.5,0,0,0-.8.3l-.17,1a.52.52,0,0,0,.18.48.5.5,0,0,0,.8-.3l.17-1Zm-.72,3.91a.49.49,0,0,0-.15-.46.49.49,0,0,0-.82.27l-.11.57-.08.4a.49.49,0,0,0,.74.52.48.48,0,0,0,.23-.32l.08-.41.11-.57Zm-.8,3.9a.5.5,0,0,0-.77-.51.45.45,0,0,0-.2.3l0,.07-.19.89a.49.49,0,1,0,1,.22l.2-.9,0-.07Zm-.89,3.88a.5.5,0,0,0-.71-.56.47.47,0,0,0-.25.33l-.17.67-.07.29a.5.5,0,0,0,1,.24l.07-.29.16-.68Zm-1,3.86a.5.5,0,0,0-.75-.54.51.51,0,0,0-.21.29l0,.16-.21.79a.49.49,0,0,0,.68.58.44.44,0,0,0,.27-.32l.22-.8,0-.16Zm-1.05,3.84a.5.5,0,0,0-1-.28l-.21.74-.06.21a.5.5,0,0,0,.69.59.51.51,0,0,0,.26-.3l.06-.22.22-.74Zm-1.14,3.81a.5.5,0,0,0-.95-.29l-.06.2-.23.74a.48.48,0,0,0,.13.51.49.49,0,0,0,.81-.21l.24-.74.06-.21Zm-1.22,3.79a.49.49,0,0,0-.94-.31l-.25.75-.07.18a.5.5,0,0,0,.94.33l.07-.19.25-.76Zm-1.3,3.76a.49.49,0,0,0-.68-.61.46.46,0,0,0-.25.28l-.08.21-.26.72a.5.5,0,0,0,.3.64.49.49,0,0,0,.63-.3l.27-.72.07-.22Zm-1.38,3.74a.5.5,0,0,0-.65-.64.48.48,0,0,0-.28.28l-.28.73-.07.19a.5.5,0,0,0,.64.65.48.48,0,0,0,.28-.28l.08-.2.28-.73Zm-1.46,3.7a.51.51,0,0,0-.06-.48.5.5,0,0,0-.86.1l-.08.19-.3.73a.5.5,0,0,0,.67.64.49.49,0,0,0,.25-.26l.3-.73.08-.19ZM401.54,318a.5.5,0,0,0-.57-.68.46.46,0,0,0-.34.28l-.3.68-.1.23a.5.5,0,0,0,.64.67.55.55,0,0,0,.27-.27l.1-.23.3-.68Zm-1.62,3.64a.5.5,0,0,0-.05-.49.5.5,0,0,0-.86.07l-.06.14-.35.76a.49.49,0,0,0,.56.69.49.49,0,0,0,.34-.27l.36-.77.06-.13Zm-1.7,3.6a.5.5,0,1,0-.89-.44l-.3.61-.14.28a.51.51,0,0,0,.06.53.5.5,0,0,0,.83-.09l.14-.28.3-.61Zm-1.78,3.56a.49.49,0,1,0-.88-.45l0,.06-.42.82a.49.49,0,0,0,.58.7.47.47,0,0,0,.3-.25l.42-.82,0-.06Zm-1.85,3.52a.49.49,0,0,0-.87-.47l-.28.51-.19.36a.49.49,0,0,0,.5.73.49.49,0,0,0,.37-.25l.2-.36.27-.52Zm-1.92,3.49a.5.5,0,0,0-.57-.73.48.48,0,0,0-.29.23l-.5.87a.5.5,0,0,0,.57.72.51.51,0,0,0,.29-.23l.5-.86Zm-2,3.44a.5.5,0,0,0-.48-.75.51.51,0,0,0-.38.24l-.24.4-.27.45a.49.49,0,0,0,.56.73.49.49,0,0,0,.29-.22l.27-.45.25-.4Zm-2.08,3.4a.5.5,0,0,0-.48-.76.49.49,0,0,0-.36.23l-.52.83a.49.49,0,0,0,0,.48.5.5,0,0,0,.87.06l.53-.84ZM386.44,346a.5.5,0,0,0-.52-.76.54.54,0,0,0-.31.21l-.18.29-.36.54a.5.5,0,0,0,0,.5.51.51,0,0,0,.86.05l.36-.54.18-.29Zm-2.21,3.3a.51.51,0,0,0,0-.52.49.49,0,0,0-.84,0l-.47.68-.09.13a.5.5,0,0,0,.54.77.54.54,0,0,0,.27-.2l.09-.13.48-.69Zm-2.29,3.26a.5.5,0,0,0-.54-.77.52.52,0,0,0-.27.19l-.12.17-.46.63a.49.49,0,0,0,0,.51.5.5,0,0,0,.85.08l.46-.64.12-.17Zm-2.36,3.21a.5.5,0,0,0-.79-.6l-.41.55-.19.24a.5.5,0,0,0,.43.8.49.49,0,0,0,.36-.2l.19-.24.41-.55Zm-2.42,3.15a.5.5,0,1,0-.78-.61l-.62.78a.5.5,0,0,0,.42.8.48.48,0,0,0,.36-.19l.62-.78Zm-2.5,3.11a.49.49,0,0,0-.39-.81.48.48,0,0,0-.37.17l-.34.42-.29.35a.49.49,0,0,0,.07.7.49.49,0,0,0,.69-.07l.3-.35.33-.41Zm-2.55,3.05a.5.5,0,0,0-.47-.81.45.45,0,0,0-.28.16l-.65.75a.49.49,0,0,0,.46.81.47.47,0,0,0,.29-.16l.65-.75Zm-2.63,3a.46.46,0,0,0,.11-.46.49.49,0,0,0-.84-.2l-.25.28-.42.45a.5.5,0,0,0,.74.67l.42-.46.24-.28ZM366.8,371a.5.5,0,0,0,.13-.41.5.5,0,0,0-.85-.27l-.58.62-.1.1a.53.53,0,0,0-.13.45.5.5,0,0,0,.85.24l.1-.11.58-.62Zm-2.75,2.88a.49.49,0,0,0-.34-.84.48.48,0,0,0-.37.15l-.14.14-.55.56a.5.5,0,0,0,.34.85.51.51,0,0,0,.37-.15l.55-.56.14-.15Zm-2.81,2.82a.49.49,0,0,0,0-.74.5.5,0,0,0-.66,0l-.48.48-.23.21a.5.5,0,0,0,.35.86.48.48,0,0,0,.34-.14l.23-.22.48-.48Zm-2.86,2.76a.49.49,0,0,0-.34-.85.48.48,0,0,0-.34.13l-.72.68a.49.49,0,1,0,.67.72l.73-.68Zm-2.93,2.7a.49.49,0,0,0-.31-.86.5.5,0,0,0-.35.12l-.38.35-.36.31a.5.5,0,0,0,.66.75l.36-.32.38-.35Zm-3,2.64a.52.52,0,0,0,.16-.5.49.49,0,0,0-.81-.25l-.75.64a.5.5,0,0,0,.64.76l.76-.65Zm-3,2.57a.5.5,0,1,0-.63-.77l-.27.23-.49.4a.5.5,0,0,0,.1.84.49.49,0,0,0,.52-.07l.5-.4.27-.23Zm-3.09,2.51a.5.5,0,0,0-.25-.89.46.46,0,0,0-.36.11l-.66.51-.12.1a.49.49,0,0,0,.24.88.46.46,0,0,0,.37-.1l.13-.1.65-.51Zm-3.14,2.44a.5.5,0,0,0-.6-.8l-.16.12-.63.48a.51.51,0,0,0-.2.41.5.5,0,0,0,.79.39l.64-.48.16-.12Zm-3.2,2.37a.5.5,0,0,0-.1-.86.49.49,0,0,0-.48.05l-.55.4-.25.18a.5.5,0,1,0,.57.81l.26-.18.55-.4Zm-3.25,2.3a.48.48,0,0,0,.22-.44.5.5,0,0,0-.78-.37l-.82.56a.49.49,0,0,0,.19.89.48.48,0,0,0,.37-.07l.82-.57Zm-3.29,2.23a.49.49,0,0,0-.15-.89.48.48,0,0,0-.4.07l-.45.29-.37.25a.49.49,0,0,0,.17.9.48.48,0,0,0,.37-.07l.38-.25.45-.3Zm-3.34,2.17a.5.5,0,0,0-.11-.89.48.48,0,0,0-.42.05l-.84.53a.5.5,0,0,0,.1.89.51.51,0,0,0,.42-.05l.85-.53Zm-3.39,2.09a.5.5,0,0,0-.15-.91.46.46,0,0,0-.36.06l-.36.21-.49.3a.49.49,0,0,0-.1.77.5.5,0,0,0,.6.08l.5-.3.36-.21Zm-3.43,2a.5.5,0,0,0-.07-.9.51.51,0,0,0-.42,0l-.8.46-.06,0a.52.52,0,0,0-.26.48.5.5,0,0,0,.74.39l.07,0,.8-.45Zm-3.48,1.94a.5.5,0,0,0,.06-.84.49.49,0,0,0-.53,0l-.27.14-.6.33a.49.49,0,1,0,.47.87l.61-.33.26-.14Zm-3.51,1.87a.5.5,0,1,0-.46-.89l-.72.38-.15.08a.49.49,0,1,0,.44.88l.16-.08.73-.37Zm-3.56,1.79a.5.5,0,0,0,0-.89.49.49,0,0,0-.44,0l-.19.09-.7.34a.5.5,0,0,0,0,.91.51.51,0,0,0,.4,0l.71-.34.18-.09Zm-3.59,1.71a.48.48,0,0,0,.29-.45.49.49,0,0,0-.7-.45l-.67.31-.23.11a.49.49,0,0,0,0,.91.46.46,0,0,0,.38,0l.23-.11.67-.31Zm-3.63,1.64a.5.5,0,0,0,0-.91.55.55,0,0,0-.4,0l-.13.06-.78.34a.5.5,0,0,0,.39.91l.78-.34.13-.06ZM301.87,416a.5.5,0,0,0,0-.92.48.48,0,0,0-.37,0l-.64.26-.28.12a.49.49,0,0,0-.31.43.5.5,0,0,0,.68.49l.29-.12.63-.26Zm-3.69,1.48a.5.5,0,0,0,.29-.63.51.51,0,0,0-.65-.3l-.1,0-.82.32a.5.5,0,1,0,.35.93l.83-.32.1,0Zm-3.73,1.4a.5.5,0,0,0,.13-.87.53.53,0,0,0-.47-.07l-.62.23-.31.11a.49.49,0,0,0-.28.68.5.5,0,0,0,.61.26l.32-.12.62-.22Zm-3.76,1.32a.51.51,0,0,0,.34-.4.49.49,0,0,0-.65-.54l-.09,0-.85.28a.5.5,0,0,0-.06.92.48.48,0,0,0,.37,0l.86-.28.08,0Zm-3.78,1.23a.49.49,0,0,0,.12-.89.48.48,0,0,0-.42-.05l-.63.2-.31.09a.5.5,0,0,0-.05.93.45.45,0,0,0,.34,0l.31-.09.64-.21Zm-3.81,1.16a.49.49,0,0,0,.35-.38.49.49,0,0,0-.63-.57l-.11,0-.84.24a.5.5,0,0,0-.07.93.53.53,0,0,0,.35,0l.84-.25.11,0Zm-3.83,1.07a.48.48,0,0,0,.36-.39.5.5,0,0,0-.62-.57l-.69.19-.26.06a.5.5,0,0,0-.16.89.48.48,0,0,0,.4.08l.27-.07.7-.19Zm-3.86,1a.49.49,0,0,0,.16-.89.45.45,0,0,0-.39-.07l-.19,0-.77.19a.5.5,0,0,0-.17.89.46.46,0,0,0,.39.07l.79-.18.18,0Zm-3.88.91a.5.5,0,1,0-.21-1l-.79.17-.17,0a.49.49,0,0,0-.21.87.48.48,0,0,0,.41.1l.18,0,.79-.17Zm-3.89.82a.49.49,0,0,0,.24-.85.46.46,0,0,0-.43-.12l-.3.05-.67.14a.48.48,0,0,0-.39.36.5.5,0,0,0,.58.61l.67-.13.3-.06Zm-3.91.74a.5.5,0,0,0,.4-.38.5.5,0,0,0-.57-.6l-1,.17a.5.5,0,1,0,.16,1l1-.17Zm-3.93.65a.5.5,0,1,0-.15-1l-.47.07-.5.08a.49.49,0,1,0,.14,1l.51-.08.47-.07Zm-3.94.57a.5.5,0,0,0,.32-.81.47.47,0,0,0-.44-.17l-1,.12a.5.5,0,0,0-.31.82.49.49,0,0,0,.44.17l1-.13Zm-4,.48a.49.49,0,1,0-.1-1l-.7.07-.29,0a.5.5,0,1,0,.1,1l.29,0,.7-.08Zm-4,.4a.5.5,0,0,0-.08-1l-.26,0-.73.06a.5.5,0,0,0-.31.85.52.52,0,0,0,.39.14l.74-.06.25,0Zm-4,.32a.5.5,0,1,0-.06-1l-1,.06a.5.5,0,0,0-.42.69.49.49,0,0,0,.48.31l1-.07Zm-4,.23a.5.5,0,0,0,0-1l-.59,0H239a.5.5,0,1,0,0,1h.41l.58,0Zm-4,.15a.5.5,0,0,0,.38-.81.51.51,0,0,0-.4-.19h-.18l-.81,0a.49.49,0,0,0-.44.28.5.5,0,0,0,.46.71l.81,0Z"/><path class="cls-2" d="M231.06,449.84A205.52,205.52,0,1,0,85.74,389.65a204.87,204.87,0,0,0,145.32,60.19Zm146.49-59a207.16,207.16,0,1,1,60.68-146.49A206.52,206.52,0,0,1,377.55,390.82Z"/><path class="cls-2" d="M231.06,352.51a108.16,108.16,0,1,0-76.5-31.68,107.89,107.89,0,0,0,76.5,31.68ZM308.73,322a109.85,109.85,0,1,1,32.17-77.67A109.54,109.54,0,0,1,308.73,322Z"/><path class="cls-2" d="M232.69,135.46l47.54,27.1h0l47.55,27.11a1,1,0,0,1,.5.86h0V299a1,1,0,0,1-.57.9l-47.48,27.07-.06,0L232.68,354a1,1,0,0,1-1,0l-47.54-27.11h0l-47.54-27.11a1,1,0,0,1-.51-.86h0V190.53a1,1,0,0,1,.57-.9l47.48-27.07.06,0,47.49-27.08a1,1,0,0,1,1,0Zm46.53,28.82-47-26.82-47,26.79-.05,0-47,26.82V298.38l47,26.82h0L232.18,352l47-26.79.06,0,47-26.82V191.1l-47-26.82Z"/><path class="cls-2" d="M206.8,181.71a1,1,0,0,1-1.38.36,1,1,0,0,1-.37-1.35l26.25-44.9a1,1,0,0,1,1.38-.37,1.15,1.15,0,0,1,.38.38l26.24,44.89a1,1,0,0,1-.37,1.35,1,1,0,0,1-1.38-.36L232.18,138.3,206.8,181.71Zm61.65,18.63a1,1,0,0,1,.37-1.36,1,1,0,0,1,1.38.37L291,234.93a1,1,0,0,1-.37,1.36,1,1,0,0,1-1.38-.37l-20.8-35.58Zm31.7,54.21a1,1,0,0,1,.37-1.35,1,1,0,0,1,1.37.36l26.25,44.9a1,1,0,0,1-.37,1.36,1,1,0,0,1-.5.13h-52.5a1,1,0,1,1,0-2h50.75l-25.37-43.41ZM253,298a1,1,0,1,1,0,2H211.37a1,1,0,1,1,0-2Zm-63.4,0a1,1,0,1,1,0,2h-52.5a1,1,0,0,1-1-1,1,1,0,0,1,.19-.58l26.2-44.82a1,1,0,0,1,1.37-.36,1,1,0,0,1,.38,1.35L138.83,298Zm-14.48-62a1,1,0,0,1-1.37.37,1,1,0,0,1-.38-1.36l20.81-35.58a1,1,0,0,1,1.37-.37,1,1,0,0,1,.37,1.36Z"/><path class="cls-2" d="M211.37,191.52a1,1,0,1,1,0-2H253a1,1,0,1,1,0,2Zm63.4,0a1,1,0,1,1,0-2h52.5a1,1,0,0,1,1,1,1,1,0,0,1-.14.5h0l-26.25,44.89a1,1,0,0,1-1.38.37,1,1,0,0,1-.36-1.36l25.37-43.41Zm14.48,62a1,1,0,0,1,1.38-.36,1,1,0,0,1,.37,1.36l-20.8,35.58a1,1,0,0,1-1.38.36,1,1,0,0,1-.37-1.36l20.8-35.58Zm-31.7,54.21a1,1,0,0,1,1.38-.36,1,1,0,0,1,.37,1.36l-26.25,44.9a1,1,0,0,1-1.78-.06l-26.22-44.84a1,1,0,0,1,.37-1.36,1,1,0,0,1,1.38.37l25.38,43.4,25.37-43.41ZM195.9,289.14a1,1,0,0,1-.36,1.36,1,1,0,0,1-1.38-.36l-20.81-35.58a1,1,0,0,1,.37-1.36,1,1,0,0,1,1.38.36l20.8,35.58Zm-31.69-54.21a1,1,0,0,1-.38,1.36,1,1,0,0,1-1.37-.37L136.21,191a1,1,0,0,1,.37-1.35,1,1,0,0,1,.5-.14h52.5a1,1,0,1,1,0,2H138.83Z"/><path class="cls-2" d="M263.87,200.29a10,10,0,0,0,7-2.86,9.66,9.66,0,0,0,0-13.8,10,10,0,0,0-14,0,9.66,9.66,0,0,0,0,13.8,9.94,9.94,0,0,0,7,2.86Zm8.42-1.45a12,12,0,0,1-16.83,0,11.64,11.64,0,0,1,0-16.62,12,12,0,0,1,16.83,0,11.64,11.64,0,0,1,0,16.62Z"/><path class="cls-2" d="M200.48,200.29a10,10,0,0,0,7-2.86,9.68,9.68,0,0,0,0-13.8,10,10,0,0,0-14,0,9.68,9.68,0,0,0,0,13.8,10,10,0,0,0,7,2.86Zm8.42-1.45a12,12,0,0,1-16.84,0,11.64,11.64,0,0,1,0-16.62,12,12,0,0,1,16.84,0,11.66,11.66,0,0,1,0,16.62Z"/><path class="cls-2" d="M263.87,308.71a9.94,9.94,0,0,0,7-2.85,9.66,9.66,0,0,0,0-13.8,10,10,0,0,0-14,0,9.66,9.66,0,0,0,0,13.8,9.93,9.93,0,0,0,7,2.85Zm8.42-1.44a12,12,0,0,1-16.83,0,11.65,11.65,0,0,1,0-16.63,12,12,0,0,1,16.83,0,11.65,11.65,0,0,1,0,16.63Z"/><path class="cls-2" d="M200.48,308.71a9.94,9.94,0,0,0,7-2.85,9.68,9.68,0,0,0,0-13.8,10,10,0,0,0-14,0,9.68,9.68,0,0,0,0,13.8,9.94,9.94,0,0,0,7,2.85Zm8.42-1.44a12,12,0,0,1-16.84,0,11.65,11.65,0,0,1,0-16.63,12,12,0,0,1,16.84,0,11.67,11.67,0,0,1,0,16.63Z"/><path class="cls-2" d="M295.57,254.5a9.9,9.9,0,0,0,7-2.86,9.68,9.68,0,0,0,0-13.8,10,10,0,0,0-14,0,9.68,9.68,0,0,0,0,13.8,9.9,9.9,0,0,0,7,2.86Zm8.42-1.44a12,12,0,0,1-16.84,0,11.67,11.67,0,0,1,0-16.63,12,12,0,0,1,16.84,0,11.65,11.65,0,0,1,0,16.63Z"/><path class="cls-2" d="M168.78,254.5a9.9,9.9,0,0,0,7-2.86,9.68,9.68,0,0,0,0-13.8,10,10,0,0,0-14,0,9.68,9.68,0,0,0,0,13.8,9.9,9.9,0,0,0,7,2.86Zm8.42-1.44a12,12,0,0,1-16.84,0,11.67,11.67,0,0,1,0-16.63,12,12,0,0,1,16.84,0,11.65,11.65,0,0,1,0,16.63Z"/><polygon class="cls-3" points="267.31 298.7 233.74 225.45 211.72 277.95 202.19 299.72 267.31 298.7"/><polygon class="cls-4" points="165.57 242.75 233.74 225.45 202.19 299.72 165.57 242.75"/><polygon class="cls-5" points="233.74 225.45 297.83 241.73 267.31 298.7 233.74 225.45"/><polygon class="cls-6" points="263.24 190.86 233.74 225.45 209.56 198.39 201.18 189.84 263.24 190.86"/><polygon class="cls-7" points="165.57 242.75 233.74 225.45 201.18 189.84 165.57 242.75"/><polygon class="cls-8" points="233.74 225.45 297.83 241.73 263.24 190.86 233.74 225.45"/><path class="cls-9" d="M361.68,352.29l-.31,0,.31,0h0a1.91,1.91,0,0,0-2.07-1.7,1.89,1.89,0,0,0-1.7,2.06s.23,2.8-1.13,4.26a3.19,3.19,0,0,1-2.58.93c-2.07,0-3.53-.67-4.22-1.86a4.29,4.29,0,0,1,.2-4.16,13.16,13.16,0,0,0,1.88-7.37A14.78,14.78,0,0,0,327,333.77a14.65,14.65,0,0,0-4.47,10.39,14.88,14.88,0,0,0,3.89,10.19,8,8,0,0,0,3.06,15.33h.11a8,8,0,0,0,2.83-15.47,11,11,0,0,1-6.11-10,11,11,0,1,1,22,.3,2.64,2.64,0,0,0,0,.29,9.74,9.74,0,0,1-1.43,5.2,8.1,8.1,0,0,0-.15,7.89c1.38,2.35,4,3.67,7.44,3.72a6.85,6.85,0,0,0,5.41-2.14C362,356.85,361.71,352.75,361.68,352.29Zm-32.12,13.6h-.05a4.25,4.25,0,0,1-3-1.27,4.21,4.21,0,0,1,3-7.15h.06a4.65,4.65,0,0,1,1.23.2l0,0,.25.09a4.21,4.21,0,0,1-1.58,8.11Z"/><path class="cls-9" d="M286.19,90.65a1.64,1.64,0,0,1-1.1.6h0a1.63,1.63,0,0,1-1.8-1.45c-.06-.54-.7-5.21-5.17-4.79-5.39.51-8.37,18.77-8.37,31.19v.57a1.65,1.65,0,0,1-3.29,0c0-12.43-3-30.68-8.36-31.19-4.47-.43-5.12,4.25-5.18,4.78a1.64,1.64,0,1,1-3.26-.35c.3-2.92,2.54-8.29,8.75-7.7,4.47.42,7.72,6,9.64,16.5,1.92-10.9,5.2-16.64,9.76-17.07,6.21-.58,8.44,4.79,8.75,7.71A1.62,1.62,0,0,1,286.19,90.65Z"/><path class="cls-9" d="M106.74,267a1.75,1.75,0,0,1,.31,1.76l-4.7,12.45a1.74,1.74,0,0,1-1.83,1.12,1.5,1.5,0,0,1-.43-.09,1.76,1.76,0,0,1-1-2.27l2.3-6.13L80.14,291.06l6.93,9a1.75,1.75,0,0,1-.33,2.46,1.68,1.68,0,0,1-1.07.37h-.2a1.7,1.7,0,0,1-1.2-.68l-6.86-9-8.1,6.6a1.76,1.76,0,1,1-2.22-2.74l8.18-6.66-6.55-8.55a1.77,1.77,0,0,1,.33-2.47,1.79,1.79,0,0,1,2.47.33L78,288.26l21-17.12-6.38,1.26A1.76,1.76,0,1,1,92,269l13.08-2.59A1.74,1.74,0,0,1,106.74,267Z"/><path class="cls-9" d="M354.84,122.54a1.63,1.63,0,0,0-1.27-.27,1.7,1.7,0,0,0-1.09.7s-4,5.38-16,5.38h-.64c-12.09-.2-15.33-5.56-15.46-5.78a1.7,1.7,0,0,0-3,1.56c.09.19,2.33,4.5,10.13,6.55a15.28,15.28,0,0,0-7.1,12.61,15.21,15.21,0,0,0,14.94,15.43h.25A15.18,15.18,0,0,0,344.17,131c7.82-1.7,10.78-5.62,11.1-6.08a1.7,1.7,0,0,0-.43-2.36Zm-19.41,32.79a11.8,11.8,0,0,1,.21-23.6h.18a11.8,11.8,0,0,1-.39,23.59Z"/><path class="cls-9" d="M287.75,376.89c-3.36-3.16-8.48-4.64-13.75-4l0-2a2,2,0,0,0-1.31-1.82,1.92,1.92,0,0,0-2.15.64l-4,5.13v-3.93a1.94,1.94,0,0,0-3.46-1.2l-3.89,4.94v-3.74a2,2,0,0,0-1.31-1.84,1.93,1.93,0,0,0-2.15.64l-7.12,9a2,2,0,0,0,.32,2.72,2,2,0,0,0,1.44.41,1.91,1.91,0,0,0,1.28-.73l3.67-4.64v13.75a1.94,1.94,0,1,0,3.87,0v-9.34l3.47-4.41v13.75a1.94,1.94,0,1,0,3.88,0V381.1l3.68-4.67.22,21.18h-8.61a1.94,1.94,0,0,0,0,3.88h8.65l.08,8.05a1.94,1.94,0,0,0,3.33,1.33,1.94,1.94,0,0,0,.55-1.37l-.09-8h2.61c4.73,0,13.14-2.52,14.67-12C292.62,383,290.07,379.08,287.75,376.89Zm.18,9.79a13.23,13.23,0,0,1-.19,2.22c-1.47,9.07-10.88,8.73-11.3,8.71h-2.19l-.21-20.8c4.26-.63,8.47.47,11.06,2.91A9.21,9.21,0,0,1,287.93,386.68Z"/><path class="cls-9" d="M109.16,207.48c-2.81-4.4-8.7-4.25-12.77-1.85a12,12,0,0,0-1.8,1.3V191.88a6.33,6.33,0,0,0-1.88-4.53l0,0a5.48,5.48,0,0,0-.44-.4l-.5-.38s0,0,0,0l-.48-.28a5.25,5.25,0,0,0-.59-.28l-.25-.1-.35-.12-.6-.14c-.41-.08-4.72,0-5.14,0h0l-.45,0a5.51,5.51,0,0,0-.57.06,6.5,6.5,0,0,0-2.82,1.2A6.37,6.37,0,0,0,78.19,185a6.41,6.41,0,0,0-7.39,1.21,6.34,6.34,0,0,0-1.87,4.53,1.95,1.95,0,0,0,1.94,1.94,1.94,1.94,0,0,0,1.93-1.94,2.54,2.54,0,0,1,2.54-2.54,2.55,2.55,0,0,1,2.54,2.54v17.91a1.93,1.93,0,0,0,1.91,1.93h0a1.93,1.93,0,0,0,1.37-.56,1.89,1.89,0,0,0,.55-1.13V192a2.53,2.53,0,0,1,2.54-2.54h.27a43.87,43.87,0,0,1,5,.3,3.79,3.79,0,0,1,.38.32,2.54,2.54,0,0,1,.75,1.8V211c-3.37,3.85-6.79,7.81-11.91,6.85-2.27-.43-3,3.09-.69,3.52,5.58,1.05,9.43-2,12.89-5.65a14.4,14.4,0,0,0,4,4.14C102.49,223.75,114.66,216.11,109.16,207.48Zm-8.28,10a6.05,6.05,0,0,1-4.8-1.25c-.17-.13-.33-.28-.49-.43a1.31,1.31,0,0,1-.25-.22,2.47,2.47,0,0,1-.44-.58s0,0,0,0h0a3.92,3.92,0,0,1-.4-2.45h0a2.17,2.17,0,0,1,.67-1.25c3.24-2.88,10.62-6.84,11.59-.07C107.21,214.45,103.75,217,100.88,217.45Z"/><path class="cls-9" d="M394.21,223.83c-.11-.19-2.86-4.53-11.7-6.32L382.16,196c8.31-2.07,11.28-6.11,11.4-6.28a1.62,1.62,0,0,0-.56-2.36,2,2,0,0,0-2.62.5s-2.65,3.5-10.37,5.12l-.28.05h-.08l0,0a42.64,42.64,0,0,1-7.61.73,38.28,38.28,0,0,1-8-.64c-7.25-1.41-9.45-4.65-9.47-4.68a2,2,0,0,0-2.56-.66,1.62,1.62,0,0,0-.75,2.31c.11.18,2.62,4.15,10.54,6.06l.36,22.09c-7.27,2.09-10,5.57-10.25,6a1.62,1.62,0,0,0,.55,2.35,2,2,0,0,0,1,.28,2,2,0,0,0,1.57-.75c.27-.33,2.79-3.27,9.44-4.9a39.49,39.49,0,0,1,8.93-1.05,42.91,42.91,0,0,1,5.7.28v0h.28l1.06.17.89.14c7.28,1.4,9.52,4.67,9.54,4.69a2,2,0,0,0,1.68.87,1.9,1.9,0,0,0,.88-.21A1.62,1.62,0,0,0,394.21,223.83ZM378.71,217c-1.48-.14-3-.21-4.64-.21h-.69a48.71,48.71,0,0,0-7.46.66l-.33-20.54a47.94,47.94,0,0,0,6.49.34,50.1,50.1,0,0,0,6.3-.47Z"/><path class="cls-9" d="M215.41,390.45a2,2,0,0,1-2,2l-12.44.08h0a2,2,0,0,1-1.48-3.39,10.34,10.34,0,0,0-7.56-17.38h-.08a10.34,10.34,0,0,0-7.74,17.1,2,2,0,0,1,.32,2.16,2,2,0,0,1-1.83,1.18l-12,.09h0a2,2,0,0,1,0-4l8.37-.06a14.38,14.38,0,0,1,12.91-20.48h.11a14.38,14.38,0,0,1,12.88,20.76l8.59-.06h0A2,2,0,0,1,215.41,390.45Z"/><path class="cls-9" d="M215.45,397.39a2,2,0,0,1-.57,1.44,2,2,0,0,1-1.42.6l-42.86.3h0a2,2,0,0,1-2-2,2,2,0,0,1,.58-1.43,2,2,0,0,1,1.42-.6l42.85-.3h0A2,2,0,0,1,215.45,397.39Z"/><path class="cls-9" d="M147.74,146a2,2,0,0,1-.57,2.68l-8.53,5.54a1.93,1.93,0,0,1-1.06.31,1.9,1.9,0,0,1-1.11-.35l-6.75-4.74-6.45,4.71a1.9,1.9,0,0,1-2.29,0l-6.48-4.74-7.29,4.8a1.94,1.94,0,0,1-1.06.32h0a1.93,1.93,0,0,1-1.62-.87,2,2,0,0,1-.28-1.46,1.94,1.94,0,0,1,.84-1.23l8.41-5.54a2,2,0,0,1,2.22.06l6.42,4.7,6.42-4.7a2,2,0,0,1,2.26,0l6.82,4.8,7.42-4.83a1.94,1.94,0,0,1,1.46-.27A2,2,0,0,1,147.74,146Z"/><path class="cls-9" d="M148.16,134.57a1.86,1.86,0,0,1,.27,1.45,2,2,0,0,1-.83,1.23l-8.53,5.54a2,2,0,0,1-1.06.32,1.89,1.89,0,0,1-1.11-.36L130.14,138l-6.44,4.72a1.94,1.94,0,0,1-2.29,0L114.93,138l-7.3,4.8a1.89,1.89,0,0,1-1.06.32,1.94,1.94,0,0,1-1.9-2.33,2,2,0,0,1,.83-1.23l8.42-5.54a2,2,0,0,1,2.22.06l6.41,4.7,6.43-4.7a1.94,1.94,0,0,1,2.26,0l6.81,4.79,7.43-4.83a1.94,1.94,0,0,1,2.68.57Z"/><path class="cls-9" d="M386.68,266a8.44,8.44,0,0,0-3.08-.37,7.92,7.92,0,0,0-5.24,2.37,6.46,6.46,0,0,0-1.85,5c.29,3.56,3.61,6.37,7.57,6.4l.62,0a7.92,7.92,0,0,0,5.23-2.37,7.67,7.67,0,0,0,.73-.89,17.92,17.92,0,0,1-.15,7.39c-1.89,7.18-9.47,13.94-18.43,16.43a1.87,1.87,0,0,0-1.14.85,1.57,1.57,0,0,0-.14,1.33,1.79,1.79,0,0,0,.94,1,2.24,2.24,0,0,0,1.48.13c10.37-2.88,18.84-10.51,21.06-19a19.55,19.55,0,0,0,.59-4.73C394.89,276.89,394.36,267.85,386.68,266Zm-2.53,3.11a4.11,4.11,0,0,1,1.27.19,4.06,4.06,0,0,1,1.2.63,3.23,3.23,0,0,1,1.29,2.34,3.13,3.13,0,0,1-.91,2.47,4,4,0,0,1-2.58,1.17,3.69,3.69,0,0,1-4-3.16,1.23,1.23,0,0,1,0-.27,3.24,3.24,0,0,1,.93-2.2,4,4,0,0,1,2.58-1.17Z"/><path class="cls-9" d="M360.16,288.59a7.93,7.93,0,0,0-6.24,2.85,18.19,18.19,0,0,1,.57-6.67c2.57-8.42,11.67-13.94,19.55-15.67a1.8,1.8,0,0,0,1.48-1.69,1.27,1.27,0,0,0,0-.43,2,2,0,0,0-2.35-1.27c-9,2-19.37,8.35-22.36,18.14-1.81,5.89-1.05,15.67,6.32,18l.06,0a8.39,8.39,0,0,0,2.91.54h.06c4.19,0,7.62-3.06,7.65-6.85a6.5,6.5,0,0,0-2.21-4.89A8,8,0,0,0,360.16,288.59Zm-.05,10.29h0a4.08,4.08,0,0,1-1.47-.27,3.42,3.42,0,0,1-2.28-3.15,3.24,3.24,0,0,1,1.13-2.4,4,4,0,0,1,2.64-1h0a3.42,3.42,0,1,1,0,6.8Z"/><path class="cls-9" d="M148.27,364.47a2,2,0,0,1-1.44.58,2,2,0,0,1-1.43-.58l-.63-.62a6.73,6.73,0,0,1-13.45-.25v-23a2.67,2.67,0,1,0-5.33,0l0,18.79a2,2,0,0,1-4.07,0V340.65a2.62,2.62,0,0,0-.79-1.88,2.59,2.59,0,0,0-1.88-.78,2.66,2.66,0,0,0-1.88.78,2.63,2.63,0,0,0-.78,1.89v17.47a2,2,0,0,1-2,2,2,2,0,0,1-2-2V339.34a2.67,2.67,0,0,0-4.55-1.88,2.62,2.62,0,0,0-.78,1.88,2,2,0,0,1-3.47,1.44,2,2,0,0,1-.6-1.44,6.72,6.72,0,0,1,12.08-4.07,6.72,6.72,0,0,1,8.74.57,6.75,6.75,0,0,1,4.7-1.92,6.82,6.82,0,0,1,2.58.51,6.54,6.54,0,0,1,2.17,1.46,6.64,6.64,0,0,1,2,4.75l0,23a2.66,2.66,0,0,0,2.66,2.66,2.69,2.69,0,0,0,1.58-.52,2.64,2.64,0,0,0,1-1.32l-.12.14a2,2,0,0,1-3.54-1.24,2,2,0,0,1,.52-1.47l3.78-4.25.12-.12.12-.1.18-.13a2,2,0,0,1,.9-.32h.19a1.09,1.09,0,0,1,.39,0l.16,0,.21.07a1.58,1.58,0,0,1,.26.13,1.65,1.65,0,0,1,.43.33l4.08,4.08A2,2,0,0,1,148.27,364.47Z"/><path class="cls-9" d="M199.3,100.86l4.31,0a1.79,1.79,0,0,1,1.24.54,1.74,1.74,0,0,1,.49,1.24,1.72,1.72,0,0,1-.53,1.24,1.87,1.87,0,0,1-1.25.49l-4.26-.06c.66,11,7.45,14.74,7.74,14.9a1.75,1.75,0,0,1,.87,1,1.71,1.71,0,0,1-.12,1.33,1.76,1.76,0,0,1-1.55.95h0a1.79,1.79,0,0,1-.77-.19c-.93-.49-9-5.09-9.66-18.07l-7.19-.1c-.73,14-10,17.69-10.35,17.84a1.85,1.85,0,0,1-.65.11A1.74,1.74,0,0,1,176,121a1.77,1.77,0,0,1,1-2.25c.3-.12,7.43-3.06,8.09-14.61l-5.13-.07a1.73,1.73,0,0,1-1.23-.54,1.69,1.69,0,0,1-.5-1.24,1.74,1.74,0,0,1,1.78-1.73l5.07.07c-.66-11.1-7.45-14.75-7.74-14.9a1.76,1.76,0,0,1,1.61-3.12c.92.49,9,5.09,9.65,18.07l7.19.1c.74-14.06,10-17.69,10.36-17.84a1.76,1.76,0,0,1,1.24,3.29C207.08,86.36,200,89.25,199.3,100.86Z"/></g></svg>