<svg id="OBJECTS" xmlns="http://www.w3.org/2000/svg" xmlns:xlink="http://www.w3.org/1999/xlink" viewBox="0 0 223.61 280.7"><defs><style>.cls-1{opacity:0.8;}.cls-2{fill:url(#linear-gradient);}.cls-3{fill:url(#linear-gradient-2);}.cls-4{fill:url(#linear-gradient-3);}.cls-5{fill:url(#linear-gradient-4);}.cls-6{fill:url(#linear-gradient-5);}.cls-7{fill:url(#linear-gradient-6);}.cls-8{fill:none;stroke:#fff;stroke-miterlimit:10;fill-rule:evenodd;}</style><linearGradient id="linear-gradient" x1="161.67" y1="528.05" x2="161.67" y2="257.79" gradientTransform="matrix(0.99, -0.1, 0.04, 0.41, -30.11, 33.09)" gradientUnits="userSpaceOnUse"><stop offset="0.38" stop-color="#1c365d"/><stop offset="0.49" stop-color="#214b6b"/><stop offset="0.7" stop-color="#2e818f"/><stop offset="1" stop-color="#42d4c7"/></linearGradient><linearGradient id="linear-gradient-2" x1="141.36" y1="272.4" x2="112.3" y2="526.01" gradientTransform="matrix(0.99, -0.1, 0.04, 0.41, -30.11, 33.09)" gradientUnits="userSpaceOnUse"><stop offset="0" stop-color="#6ef5f3"/><stop offset="0.17" stop-color="#47cbc3"/><stop offset="0.32" stop-color="#24a597"/><stop offset="0.36" stop-color="#319b9c"/><stop offset="0.45" stop-color="#488aa6"/><stop offset="0.55" stop-color="#597dad"/><stop offset="0.66" stop-color="#6375b2"/><stop offset="0.81" stop-color="#6673b3"/></linearGradient><linearGradient id="linear-gradient-3" x1="100.29" y1="525.09" x2="100.29" y2="228.01" gradientTransform="matrix(0.99, -0.1, 0.04, 0.41, -30.11, 33.09)" gradientUnits="userSpaceOnUse"><stop offset="0.2" stop-color="#1c365d"/><stop offset="0.29" stop-color="#284b6e"/><stop offset="0.47" stop-color="#46819a"/><stop offset="0.73" stop-color="#76d7df"/><stop offset="0.8" stop-color="#83eef2"/><stop offset="0.84" stop-color="#7fecef"/><stop offset="0.89" stop-color="#72e5e6"/><stop offset="0.93" stop-color="#5cdad6"/><stop offset="0.98" stop-color="#3ecbc1"/><stop offset="1" stop-color="#2dc2b5"/></linearGradient><linearGradient id="linear-gradient-4" x1="156.81" y1="113.86" x2="131.49" y2="298.83" gradientTransform="matrix(0.99, -0.1, 0.04, 0.41, -30.11, 33.09)" gradientUnits="userSpaceOnUse"><stop offset="0" stop-color="azure"/><stop offset="0.09" stop-color="#ebffff"/><stop offset="0.19" stop-color="#defefd"/><stop offset="0.29" stop-color="#c8fcfb"/><stop offset="0.4" stop-color="#a8f9f8"/><stop offset="0.51" stop-color="#81f6f5"/><stop offset="0.56" stop-color="#6ef5f3"/><stop offset="0.73" stop-color="#70f5f4"/><stop offset="0.82" stop-color="#79f7f5"/><stop offset="0.9" stop-color="#87f9f8"/><stop offset="0.97" stop-color="#9afdfc"/><stop offset="1" stop-color="#a6ffff"/></linearGradient><linearGradient id="linear-gradient-5" x1="102.92" y1="152.23" x2="159.16" y2="292.85" gradientTransform="matrix(0.99, -0.1, 0.04, 0.41, -30.11, 33.09)" gradientUnits="userSpaceOnUse"><stop offset="0.41" stop-color="azure"/><stop offset="0.49" stop-color="#ddfefe"/><stop offset="0.72" stop-color="#b0fcfb"/><stop offset="0.9" stop-color="#94fbfa"/><stop offset="1" stop-color="#89faf9"/></linearGradient><linearGradient id="linear-gradient-6" x1="167.36" y1="295.89" x2="167.36" y2="123.91" gradientTransform="matrix(0.99, -0.1, 0.04, 0.41, -30.11, 33.09)" gradientUnits="userSpaceOnUse"><stop offset="0" stop-color="#6673b3"/><stop offset="0.16" stop-color="#699dc8"/><stop offset="0.33" stop-color="#6bc3db"/><stop offset="0.48" stop-color="#6ddfe8"/><stop offset="0.62" stop-color="#6eeff0"/><stop offset="0.72" stop-color="#6ef5f3"/></linearGradient></defs><title>437</title><g class="cls-1"><polygon class="cls-2" points="153.73 211.35 170.17 118.37 142.06 128.16 125.03 234.68 153.73 211.35"/><polygon class="cls-3" points="142.06 128.16 101.25 131.78 100.06 236.09 125.03 234.68 142.06 128.16"/><polygon class="cls-4" points="101.25 131.78 91.59 116.41 59.58 117.74 77.84 220.54 100.06 236.09 101.25 131.78"/><polygon class="cls-5" points="141.88 137.08 118.94 68.51 91.59 116.41 96.67 138.11 141.88 137.08"/><polygon class="cls-6" points="59.58 117.74 118.94 68.51 96.67 138.11 59.58 117.74"/><polygon class="cls-7" points="118.94 68.51 170.17 118.37 141.88 137.08 118.94 68.51"/></g><polygon class="cls-8" points="124.44 30.71 60.94 95.13 51.43 119.94 60.94 231.69 99.82 252.09 126.7 248.73 157.39 222.8 179 115.08 124.44 30.71"/><polyline class="cls-8" points="99.34 155.61 144.7 153.21 126.7 248.73"/><polyline class="cls-8" points="99.34 155.61 124.44 30.71 51.43 119.94 99.34 155.61 99.82 252.09"/><polyline class="cls-8" points="124.44 30.71 144.7 153.21 179 115.08"/></svg>