<svg xmlns="http://www.w3.org/2000/svg" viewBox="0 0 153.51 163.32"><defs><style>.cls-1{fill:#fff;}</style></defs><title>2413150</title><g id="OBJECTS"><path class="cls-1" d="M130.54,84.23l-.76,0,.76-.07h0a4.7,4.7,0,0,0-5.08-4.2,4.62,4.62,0,0,0-3.15,1.68,4.75,4.75,0,0,0-1,3.41c0,.06.57,6.89-2.76,10.49-1.43,1.57-3.48,2.34-6.35,2.27-5.11-.07-8.71-1.64-10.41-4.56s-1.43-6.71.5-10.26c5.08-9.27,4.82-16.28,4.62-18.13A36.39,36.39,0,0,0,45.1,38.62a36.09,36.09,0,0,0-11,25.57,36.6,36.6,0,0,0,9.59,25.1A19.68,19.68,0,0,0,51.2,127h.28a19.68,19.68,0,0,0,7-38.08A27,27,0,0,1,51.6,45.29,27.06,27.06,0,0,1,97.54,65.05a5.9,5.9,0,0,0,0,.74c.06.56.4,5.62-3.5,12.78C90.59,85,90.43,92.43,93.71,98c3.38,5.78,9.89,9,18.3,9.16,5.5.08,10-1.69,13.33-5.27C131.28,95.46,130.63,85.35,130.54,84.23ZM51.48,117.71h-.14a10.41,10.41,0,0,1-7.29-3.14,10.24,10.24,0,0,1-2.93-7.37A10.37,10.37,0,0,1,51.48,97h.14a10.34,10.34,0,0,1,3,.49l.1,0c.2.06.41.14.6.21a10.37,10.37,0,0,1-3.88,20Z"/></g></svg>