<svg xmlns="http://www.w3.org/2000/svg" viewBox="0 0 251.17 251.17"><defs><style>.cls-1{fill:#fefefe;}</style></defs><title>2445646</title><g id="OBJECTS"><path class="cls-1" d="M171.4,131.78a.07.07,0,0,0,0-.05h0S171.41,131.77,171.4,131.78Z"/><path class="cls-1" d="M171.42,131.64a.19.19,0,0,1,0,.08h0A.22.22,0,0,0,171.42,131.64Z"/><path class="cls-1" d="M178,141.93a3.09,3.09,0,0,0-.34-.65c-.09-.18-.2-.35-.3-.53a5.84,5.84,0,0,0-.33-.53c-.12-.18-.26-.34-.39-.5s-.3-.34-.45-.51h0c-.15-.17-.3-.35-.44-.53s-.27-.37-.41-.56a12.26,12.26,0,0,1-.75-1.31l.06.11c-.3-.58-.62-1.15-.93-1.71s-.38-.91-.55-1.36a10.18,10.18,0,0,1-.41-1.37,5,5,0,0,1,0-.66c0-.21,0-.42.06-.64a16.6,16.6,0,0,1,.47-2q.15-.54.27-1.08c.08-.35.13-.72.21-1.07a7.67,7.67,0,0,0,.13-1.06,4,4,0,0,0,0-.49V125c0-.3,0-.6,0-.91a4.46,4.46,0,0,0-.07-.51,2.69,2.69,0,0,0-.17-.55c-.06-.16-.09-.32-.14-.48s-.12-.3-.17-.46-.1-.33-.16-.49l-.15-.44c-.11-.32-.23-.63-.36-.94s-.26-.68-.42-1-.19-.41-.3-.62-.19-.32-.29-.47a6,6,0,0,0-.63-.82,8.28,8.28,0,0,0-.95-.92,6.1,6.1,0,0,0-.83-.61l.17-.31a6.49,6.49,0,0,1,.59-.79l.32-.37c.29-.32.58-.63.86-1,.48-.55.94-1.11,1.41-1.67a19.15,19.15,0,0,0,1.24-1.61,12.35,12.35,0,0,0,1.06-2.08,15.23,15.23,0,0,0,.7-2,13.91,13.91,0,0,0,.39-4.43,8.51,8.51,0,0,0-.53-2.31,8.41,8.41,0,0,0-.63-1.23c-.19-.31-.42-.61-.64-.91s-.45-.6-.68-.89-.45-.53-.68-.78a7.68,7.68,0,0,0-.55-.59l-.51-.43a11.17,11.17,0,0,0-1-.71c-.41-.27-.84-.54-1.28-.77s-.72-.36-1.08-.53l-1-.51-1-.47a41.1,41.1,0,0,0-4.75-1.67c-.75-.22-1.51-.4-2.28-.55a25.66,25.66,0,0,0-2.62-.32,9.6,9.6,0,0,1-1.68-.33l-.32-.12c-.43-.15-.86-.31-1.3-.45l-1-.32a6.54,6.54,0,0,1-1.1-.52,4.74,4.74,0,0,1-.64-.53,3.75,3.75,0,0,1-.38-.51,5.94,5.94,0,0,1-.21-.72,20.7,20.7,0,0,0-.32-2.07,4.41,4.41,0,0,0-.49-1.14,5.22,5.22,0,0,0-.87-1.08,6,6,0,0,0-.88-.69c-.38-.26-.78-.51-1.19-.74a9,9,0,0,0-1-.48c-.46-.18-.92-.34-1.4-.49a14.46,14.46,0,0,0-2.47-.53c-.53-.06-1.07-.11-1.6-.15s-.86,0-1.28,0c-.82,0-1.65,0-2.47,0h-.1c-.43,0-.87,0-1.3.06s-.83.08-1.24.13c-.81.09-1.59.24-2.38.36a34.31,34.31,0,0,0-7-.87h-.85a14.75,14.75,0,0,0-2.21.18,20.29,20.29,0,0,0-2.92.67A16.8,16.8,0,0,0,114.82,80c-.92.51-1.81,1.06-2.68,1.64h0c1.68-.68,3.38-1.33,5.12-1.89a19.74,19.74,0,0,1,3.59-.57l.55,0c.51,0,1,0,1.51,0l1.29.06c1,.07,1.91.14,2.86.23s1.85.16,2.76.28,1.82.26,2.73.4l.38.06,1.28.23c.19,0,.36.11.55.14l.7.12c.43.06.87.1,1.3.15s1,.1,1.51.14h0c-.64-.22-1.26-.47-1.89-.71-.28-.11-.57-.21-.84-.33l-.36-.15h0l1.31.11,1.83.16,1.77.13a16.56,16.56,0,0,1,1.83.29c.56.13,1.1.29,1.64.47a7.71,7.71,0,0,1,1,.45,8.68,8.68,0,0,1,.84.48,8.34,8.34,0,0,1,1,.82,5.19,5.19,0,0,1,.42.62c.08.21.14.42.2.64.06.62,0,1.25.11,1.87a6,6,0,0,0,.13.74,3.19,3.19,0,0,0,.29.72,4.52,4.52,0,0,0,.83,1.07,3.82,3.82,0,0,0,.36.34,3.12,3.12,0,0,0,.47.34,5.35,5.35,0,0,0,.77.45,4.29,4.29,0,0,0,.59.24c.8.3,1.64.5,2.45.76q.48.18,1,.33a9.48,9.48,0,0,0,1.17.28l.48.06.87.08.9.07c.5.06,1,.15,1.51.24s1,.21,1.48.33,1,.28,1.52.44l1.46.46c.94.33,1.88.7,2.79,1.12l1.45.69a11.86,11.86,0,0,1,1.41.75c.36.25.7.5,1,.78a11.34,11.34,0,0,1,.94.89c.32.37.63.76.93,1.15a12.34,12.34,0,0,1,.89,1.29,7.56,7.56,0,0,1,.3.71,8.12,8.12,0,0,1,.22.81,12.13,12.13,0,0,1,.14,1.8,14,14,0,0,1-.11,1.7c-.17,1-.44,1.92-.69,2.89a17.05,17.05,0,0,1-.94,2.74l-.77,1.51c-.3.6-.61,1.2-.95,1.78a14.71,14.71,0,0,0-.93,1.64,4.67,4.67,0,0,0-.24.62h0c-.37-.24-.77-.46-1.15-.69a13.09,13.09,0,0,0-1.15-.71,5.76,5.76,0,0,0-.89-.37,4.88,4.88,0,0,0-.86-.19,7.26,7.26,0,0,0-.93-.06h-.13l-.75,0c-.51.05-1,.12-1.5.19l-.81.09-1.22.17-1.36.16c-.45.06-.89.15-1.33.25s-.84.19-1.25.32l-.65.2-.34.1a1,1,0,0,0-.39.19,26.2,26.2,0,0,1-2.78.53l-3.93.46h0c1.18.17,2.36.32,3.55.42.61.06,1.21.07,1.82.08a15.56,15.56,0,0,0,1.67-.08h0a1.25,1.25,0,0,0,.43,0c.21,0,.43,0,.64-.09s.54-.08.81-.13c.49-.06,1-.11,1.48-.15s1.11-.06,1.67-.09,1.14-.11,1.71-.15,1.21-.15,1.81-.23c.21,0,.42-.06.64-.07a4.81,4.81,0,0,1,.76,0,3.69,3.69,0,0,1,.45.11,8.6,8.6,0,0,1,1.38.72c.44.29.93.53,1.38.81s.65.48,1,.73a9.48,9.48,0,0,1,.85.82,8.66,8.66,0,0,1,.6.79c.21.31.39.63.58.94s.37.59.57.89.35.52.5.79l.27.51.12.27a3.09,3.09,0,0,0,.23.44,2.87,2.87,0,0,1,.17.57c.06.4.09.8.11,1.2a5.82,5.82,0,0,1,0,.72,4.6,4.6,0,0,1-.06.52l-.12.65c0,.2-.07.4-.12.6s-.09.45-.16.67-.13.43-.18.64c-.12.42-.26.83-.38,1.25a9.26,9.26,0,0,0-.27,1.27h0a4.73,4.73,0,0,0,0,.84,8.09,8.09,0,0,0,.14,1,8.33,8.33,0,0,0,.22.86c.07.28.14.55.23.81a15.27,15.27,0,0,0,.65,1.57c.1.23.21.45.31.68s.3.64.46,1l-.09-.19a8.05,8.05,0,0,0,1.58,2.23l.52.54c.36.43.7.88,1.09,1.29a.88.88,0,0,1,.12.17,4.39,4.39,0,0,1,.21.79,1.31,1.31,0,0,1,0,.27,2.68,2.68,0,0,1-.07.27c-.05.1-.1.2-.14.3s-.16.3-.23.46a3.76,3.76,0,0,1-.31.5l-.32.26-.29.17-.33.24a2,2,0,0,0-.32.22.66.66,0,0,1-.15.14,2.59,2.59,0,0,0-.31.19l-.17.08-.27.07a2.48,2.48,0,0,0-.27,0,1.23,1.23,0,0,0-.5.12,3.74,3.74,0,0,1-.48.12l-.32,0a1.09,1.09,0,0,0-.57.3,1.84,1.84,0,0,0-.52.48,3.37,3.37,0,0,0-.3.36,1.78,1.78,0,0,0-.19.36.7.7,0,0,1-.1.16s0,0,0,0h0a.66.66,0,0,0,.19-.22c.05-.08.11-.14.17-.22l.29-.28c.1-.08.2-.17.3-.24l.19-.13.21-.11.21-.12,0,0,.12-.05h.18a2.17,2.17,0,0,0,.36,0,1.59,1.59,0,0,0,.3-.06c.14,0,.29-.09.43-.11a4.07,4.07,0,0,0,.61-.05,1.33,1.33,0,0,0,.34-.1,4.9,4.9,0,0,0,.77-.43c.12-.08.25-.14.38-.22l.37-.19.34-.19a2,2,0,0,0,.28-.19,1.14,1.14,0,0,0,.15-.16l.32-.36c.09-.11.15-.24.23-.35l.25-.36a1.67,1.67,0,0,0,.16-.24c0-.1.09-.19.13-.29a2.15,2.15,0,0,0,.1-.68,4.07,4.07,0,0,0,0-.5A2.35,2.35,0,0,0,178,141.93Z"/><path class="cls-1" d="M124.91,88a4.78,4.78,0,0,1,.75-1.76c.13-.19.28-.38.43-.57a5.33,5.33,0,0,1,.59-.57,6.32,6.32,0,0,1,1-.52,2.62,2.62,0,0,1,.48-.13,12.72,12.72,0,0,1,1.85,0h0c-.45-.11-.9-.21-1.36-.28a3.07,3.07,0,0,0-.68,0h-.14a4,4,0,0,0-.9.2,5.36,5.36,0,0,0-.6.24,3.92,3.92,0,0,0-.86.54,5.51,5.51,0,0,0-.83.76c-.17.19-.32.38-.47.57a4.63,4.63,0,0,0-.48.79,12,12,0,0,0-.52,1.09,6.65,6.65,0,0,0-.34,1.13,4.5,4.5,0,0,0-.1,1.21,3.44,3.44,0,0,0,.27,1.19,5.08,5.08,0,0,0,.48.81,7.44,7.44,0,0,0,.59.67,5.18,5.18,0,0,0,.91.66,10.06,10.06,0,0,0,2.48,1,12.1,12.1,0,0,0,1.22.31c.41.09.84.14,1.27.2.91.11,1.84.16,2.76.2s1.69.06,2.53.06c.4,0,.8,0,1.2,0l1.29-.07c1.65-.12,3.31-.18,5-.22.84,0,1.69,0,2.53,0a22.32,22.32,0,0,1,2.31.11,21,21,0,0,1,3.44.58c.63.18,1.25.38,1.88.57l1.55.48a12.55,12.55,0,0,1,1.56.77,14.12,14.12,0,0,1,2,1.88l.25.27c.32.35.62.69.9,1.05a6.61,6.61,0,0,1,.63,1,11.45,11.45,0,0,1,.82,2.39,5.9,5.9,0,0,1,.06.59,4.5,4.5,0,0,1,0,.64,9.55,9.55,0,0,1-.48,1.66c-.11.31-.24.6-.35.9s-.22.6-.31.91a8.3,8.3,0,0,0-.29,1.84,2.44,2.44,0,0,0,.73,2.16h0a1.14,1.14,0,0,1-.15-.23,2.13,2.13,0,0,1-.15-.49,3.72,3.72,0,0,1,0-1,10.5,10.5,0,0,1,.65-2.11c.14-.29.28-.59.44-.87l.55-1a9.18,9.18,0,0,0,.5-1,4.78,4.78,0,0,0,.34-1,5.28,5.28,0,0,0,.12-1.19,9,9,0,0,0-.14-1.27,10.88,10.88,0,0,0-.26-1.13,5.53,5.53,0,0,0-.49-1.19,9.15,9.15,0,0,0-1.3-1.77,22.21,22.21,0,0,0-1.7-1.8,10.43,10.43,0,0,0-.88-.74,10.24,10.24,0,0,0-1.19-.73,9.61,9.61,0,0,0-1.08-.49l-1.38-.49-.26-.08c-.85-.31-1.69-.62-2.57-.85a17.38,17.38,0,0,0-2.29-.39c-.92-.11-1.84-.19-2.77-.22s-1.69,0-2.54,0c-1.67,0-3.33.06-5,.16-.82.05-1.63.13-2.45.14s-1.68,0-2.52,0c-1,0-2.08,0-3.12-.13a10,10,0,0,1-1.35-.21c-.49-.11-1-.24-1.45-.39-.22-.09-.43-.17-.64-.27s-.56-.28-.83-.43h0a5.47,5.47,0,0,1-.68-.58c-.14-.18-.28-.35-.4-.54a4.84,4.84,0,0,1-.2-.72,7,7,0,0,1,0-1.37C124.78,88.56,124.84,88.28,124.91,88Z"/><path class="cls-1" d="M136.55,120.59l.06.07.06.11a3.13,3.13,0,0,0,.53.67.75.75,0,0,0,.07.12,1.3,1.3,0,0,0,.43.33,1.1,1.1,0,0,0,.47.13.74.74,0,0,0,.48-.17.43.43,0,0,0,.13-.46,1.54,1.54,0,0,0-.44-.61,4.83,4.83,0,0,0-.4-.38,3.38,3.38,0,0,0-.91-.61l-.1,0c-.36-.52-.67-1.06-1-1.58h0c.05.32.1.63.17.94l-.15-.11h0l.18.22a5.86,5.86,0,0,0,.19.72s0,0,0,.07A.77.77,0,0,0,136.55,120.59Z"/><path class="cls-1" d="M86.22,137.12a8.84,8.84,0,0,0,1.24.37q.66.13,1.32.24a26,26,0,0,0,2.64.29,9.76,9.76,0,0,0,2.7-.1,7.33,7.33,0,0,0,1.33-.41,10.86,10.86,0,0,0,1.13-.57l1.06-.61,1-.58,1-.61a9.3,9.3,0,0,1,.9-.43h.07a1.93,1.93,0,0,0,.43-.08l.47-.16c.31-.09.63-.15,1-.21s.73-.08,1.09-.09.93,0,1.38,0a18.25,18.25,0,0,1,2.2.45c.81.2,1.6.44,2.4.65l1.2.3c.4.09.8.13,1.2.18a16.78,16.78,0,0,0,2.75.13,15.37,15.37,0,0,0,2.79-.39c.39-.1.77-.23,1.15-.36s.92-.33,1.37-.51a17.57,17.57,0,0,0,2-.91,14,14,0,0,0,2.1-1.46,15.93,15.93,0,0,0,1.56-1.51c.27-.3.54-.59.78-.91l.63-.85c.2-.27.41-.54.61-.82l.6-.81c.42-.58.89-1.13,1.29-1.71l.21-.32h0c-.45.4-.95.75-1.44,1.12s-.79.6-1.17.91l-1.24,1c-.39.32-.78.66-1.2,1l-.12.09c-.51.34-1,.68-1.55,1s-1.15.64-1.74.94-1.16.52-1.74.76l-1.52.6c-.43.16-.85.32-1.29.44a13.24,13.24,0,0,1-1.42.3c-.55.06-1.1.11-1.66.12s-1.23,0-1.84-.06c-.34-.05-.68-.09-1-.16l-1.22-.27c-.78-.19-1.56-.37-2.36-.53-.41-.08-.83-.16-1.25-.22a12,12,0,0,0-1.47-.1,13.63,13.63,0,0,0-2.63.25,10,10,0,0,0-1,.25c-.14,0-.28.1-.42.15a1.81,1.81,0,0,0-.59.29l-.09.08c-.24.1-.47.21-.7.33s-.45.25-.67.38l-1.27.79c-.47.29-.93.58-1.41.86l-.72.41a5,5,0,0,1-.63.28,4.68,4.68,0,0,1-.53.17l-.61.13a17,17,0,0,1-3.42-.07c-.63-.08-1.26-.17-1.88-.28-.32-.05-.63-.12-.94-.2s-.51-.16-.77-.24a13.53,13.53,0,0,1-2-1,5.84,5.84,0,0,1-1-.88l-.33-.35a8.32,8.32,0,0,1-.88-1.28c-.1-.25-.2-.48-.29-.72a5.26,5.26,0,0,1-.15-.53c0-.14.05-.28.08-.43a10,10,0,0,1,.41-1.28c.19-.46.39-.92.56-1.39a22.56,22.56,0,0,0,.72-2.77c.19-.81.4-1.61.64-2.41s.45-1.56.63-2.35a1.34,1.34,0,0,1,.06-.12c.08.15.17.3.26.44a7.24,7.24,0,0,0,.67.9,4.25,4.25,0,0,0,1.06.86,7.21,7.21,0,0,0,.94.41,10.42,10.42,0,0,0,1.37.44c.78.22,1.58.41,2.37.58.43.1.86.19,1.3.26l.6.08a9.8,9.8,0,0,0,1.43.08,8.12,8.12,0,0,0,2.69-.61c.38-.15.74-.31,1.11-.48.64-.3,1.26-.64,1.91-.93.48-.18,1-.34,1.49-.48a12.88,12.88,0,0,1,1.55-.31,13.55,13.55,0,0,1,1.43-.08c.44,0,.88,0,1.32.07a16.17,16.17,0,0,1,3.08.7c.34.13.69.26,1,.42s.71.37,1.05.57l.78.53c.39.25.76.51,1.16.74a9.08,9.08,0,0,0,2.41,1,14.16,14.16,0,0,0,2.69.36,9.77,9.77,0,0,0,1.21,0,9.42,9.42,0,0,0,1.49-.23,6.24,6.24,0,0,0,1.4-.54,6.61,6.61,0,0,0,1-.63,1.21,1.21,0,0,0,.42-.22l.26-.22c.17-.14.33-.28.48-.43.31-.29.58-.63.86-1s.51-.56.78-.83a12.5,12.5,0,0,1,1-.89l.52-.46.52-.43.42-.38.1-.09.09.12a4.71,4.71,0,0,0,2.13,1.53h0l-.22-.21a5.92,5.92,0,0,1-.68-1,5.4,5.4,0,0,1-.46-1.39,4.93,4.93,0,0,1-.05-1.15c.07-.38.17-.75.28-1.13.06-.19.15-.39.23-.58l.21-.51a8.17,8.17,0,0,1,.9-1.38,4.5,4.5,0,0,1,.7-.61,3.58,3.58,0,0,1,.48-.24,7.7,7.7,0,0,1,1.28-.3,16.11,16.11,0,0,1,2.69,0,7.86,7.86,0,0,1,1.17.25,10.19,10.19,0,0,1,1.54.8,6.71,6.71,0,0,1,1.07.9c.22.25.41.5.61.76s.47.6.71.89h0c-.3-.7-.55-1.41-.91-2.07a6.3,6.3,0,0,0-1.38-1.59,6.56,6.56,0,0,0-.94-.7,5.69,5.69,0,0,0-1.09-.5,6.78,6.78,0,0,0-1.29-.33,11.87,11.87,0,0,0-1.46-.17c-.24,0-.47,0-.71,0l-.49,0a6.51,6.51,0,0,0-1.39.23q-.4.14-.78.3a3.25,3.25,0,0,0-.69.44,5.58,5.58,0,0,0-.95.93,4.94,4.94,0,0,0-.6.91c-.12.21-.22.42-.32.64-.17-.18-.34-.37-.52-.53a5.67,5.67,0,0,0-.64-.45,4.39,4.39,0,0,0-.94-.41,2.62,2.62,0,0,0-.38-.09,1.78,1.78,0,0,0-.56-.06,2.25,2.25,0,0,1-.26,0l-.25,0h-.49a13.72,13.72,0,0,0-1.81.09l-.24,0a15.63,15.63,0,0,0-1.78.37c-.27.07-.53.16-.8.25l-1,.31c-.59.21-1.17.44-1.78.61a12.45,12.45,0,0,1-1.63.37,10.35,10.35,0,0,1-1.67,0,8.43,8.43,0,0,1-1-.2,2.11,2.11,0,0,1-.38-.17l-.39-.22-.47-.35a3.41,3.41,0,0,1-.39-.37,8.48,8.48,0,0,1-.63-.82c-.22-.31-.43-.63-.66-1a10.91,10.91,0,0,0-1.7-1.9c-.3-.25-.6-.5-.92-.73s-.43-.29-.65-.42a4.49,4.49,0,0,0-.54-.26,7.14,7.14,0,0,0-1.36-.42,8.13,8.13,0,0,0-1.48-.11,10.75,10.75,0,0,0-1.5.16c-.39.06-.78.15-1.16.23-.85.18-1.71.38-2.57.51a5.93,5.93,0,0,1-1,0,13,13,0,0,1-2.33-.48,6,6,0,0,1-1-.49l-.28-.18a6,6,0,0,1-1-.86,7,7,0,0,1-.86-1.19,2.81,2.81,0,0,1-.21-.68,1.85,1.85,0,0,0,0-.23c0-.3-.05-.62-.06-.93s0-.6,0-.89c0-.64.09-1.27.16-1.91,0-.35.11-.69.17-1s.16-.76.26-1.14a12.37,12.37,0,0,1,.81-2.09c.12-.25.25-.5.4-.75s.17-.25.27-.38.23-.36.36-.54.27-.39.42-.56l.06-.07.23-.25c.81-.75,1.69-1.43,2.53-2.16s1.64-1.52,2.48-2.27c.5-.44,1-.86,1.57-1.27-.07.11-.15.22-.21.33a8,8,0,0,0-.69,1.66q-.16.54-.3,1.08c0,.18-.07.35-.11.52a5.41,5.41,0,0,0-.12.66c0,.17,0,.33,0,.48v.61a6.48,6.48,0,0,0,.16,1.24,4.11,4.11,0,0,0,.38,1,8.9,8.9,0,0,0,.68,1.15,5.44,5.44,0,0,0,.91.95l.54.47a12.9,12.9,0,0,0,1.43,1,11.18,11.18,0,0,0,1.36.63c.46.18.92.34,1.39.5.76.28,1.53.54,2.27.84a9.55,9.55,0,0,0,4,.83c.41,0,.8,0,1.21,0a19.3,19.3,0,0,1,2.52-.09h.17c.54.07,1.07.16,1.6.28a14.66,14.66,0,0,1,1.51.45,11.36,11.36,0,0,1,1.3.52c.38.18.74.39,1.09.6a7.73,7.73,0,0,1,.88.7,4.73,4.73,0,0,1,.55.74c.19.33.36.67.54,1a7.2,7.2,0,0,0,.53.89,4.37,4.37,0,0,0,.47.49,3.08,3.08,0,0,0,.64.46,3.91,3.91,0,0,0,.9.35,5.3,5.3,0,0,0,.55.1l.54,0a5.14,5.14,0,0,0,.68,0,12.73,12.73,0,0,0,1.51-.2,19,19,0,0,0,2.41-.66c.95-.32,1.86-.7,2.78-1.08h0a1.4,1.4,0,0,0,.61-.14l.34-.15c.28-.09.56-.17.85-.24a7.6,7.6,0,0,1,.83-.16l.58,0a5,5,0,0,1,.55,0c.51.06,1,.13,1.52.22A14.26,14.26,0,0,1,142,107a10.26,10.26,0,0,1,1.89.9,6.59,6.59,0,0,1,.88.7c.73.84,1.28,1.79,2,2.62a6.23,6.23,0,0,0,1.44,1.15,2.72,2.72,0,0,0,2.25.52s0,0,0,0a1.79,1.79,0,0,1-.33,0l-.31-.07a2.35,2.35,0,0,1-.45-.22,5.12,5.12,0,0,1-.44-.34,4.93,4.93,0,0,1-.39-.4,6.17,6.17,0,0,1-.82-1.1l-.12-.23c-.32-.66-.61-1.33-1-2a6.58,6.58,0,0,0-.55-.86,4.8,4.8,0,0,0-.93-.87,10.55,10.55,0,0,0-4.62-1.9c-.45-.08-.9-.13-1.36-.19a7.67,7.67,0,0,0-1.59,0,13.32,13.32,0,0,0-1.68.24c-.26.07-.5.13-.74.21l-.4.15a1.23,1.23,0,0,0-.5.28l0,0c-.81.3-1.61.59-2.44.85-.48.16-1,.29-1.46.41s-.9.19-1.36.26l-.56,0c-.24,0-.48,0-.73,0A4.7,4.7,0,0,1,127,107l-.29-.14a3.68,3.68,0,0,1-.37-.32c-.43-.55-.73-1.18-1.11-1.77a6.8,6.8,0,0,0-.84-1,6.4,6.4,0,0,0-.95-.75,10.82,10.82,0,0,0-2.24-1.17,24.93,24.93,0,0,0-2.53-.83,14.72,14.72,0,0,0-1.74-.3,11.32,11.32,0,0,0-1.93,0c-.59,0-1.18.12-1.77.13a14.61,14.61,0,0,1-1.62,0,7.94,7.94,0,0,1-.95-.18l-.72-.22c-1-.38-2-.75-3-1.1-.49-.17-1-.35-1.45-.54a9.67,9.67,0,0,1-1.4-.71,10.49,10.49,0,0,1-1.67-1.35,6.37,6.37,0,0,1-.78-1.16l-.21-.48a3.32,3.32,0,0,1-.15-.54,7,7,0,0,1-.08-.8,6.59,6.59,0,0,1,0-.89,11.27,11.27,0,0,1,.24-1.29,12.7,12.7,0,0,1,.57-1.78,13.42,13.42,0,0,1,1.4-2.15c.3-.38.59-.76.9-1.14s.47-.58.71-.86l.6-.65c.2-.22.41-.41.61-.62l.56-.52a12.2,12.2,0,0,1,1.22-1,7,7,0,0,1,1.3-.7,4.25,4.25,0,0,1,.87-.21c.56-.07,1.12-.1,1.68-.14h0c-.51,0-1-.1-1.52-.13a2,2,0,0,0-.34,0,5.75,5.75,0,0,0-2.79.89l-.17.1a4.86,4.86,0,0,0-1.8.56,9.42,9.42,0,0,0-1.39,1.09c-.42.36-.85.71-1.29,1a14.08,14.08,0,0,1-1.45,1c-1,.57-2,1.09-3,1.68s-2,1.32-2.91,2-1.91,1.33-2.81,2a6.22,6.22,0,0,0-.6.54,9.5,9.5,0,0,0-.83.85,9.72,9.72,0,0,0-1,1.56,15.9,15.9,0,0,0-.9,2c-.29.72-.61,1.43-.92,2.15-.62,1.37-1.21,2.75-1.95,4.07-.22.38-.44.75-.69,1.12s-.61.85-.88,1.3a13,13,0,0,0-.87,1.59,8.91,8.91,0,0,0-.54,1.55,16,16,0,0,0-.44,3.29c0,1-.07,2.09-.05,3.14,0,.89.15,1.78.26,2.66,0,0,0,.07,0,.11,0,.36,0,.74,0,1.11,0,.22,0,.45,0,.68a3.35,3.35,0,0,0,0,.54c-.07.62-.15,1.24-.25,1.86s-.23,1.34-.32,2-.11,1.28-.17,1.93a19.24,19.24,0,0,1-.28,2l-.06.22a7.06,7.06,0,0,0-.4.65,3.92,3.92,0,0,0-.42,1.49,5.24,5.24,0,0,0,.24,2v.44h0c0-.09,0-.19,0-.28a6.49,6.49,0,0,0,1.09,2,6,6,0,0,0,.86,1c.22.19.47.37.72.55s.69.45,1,.66A9.27,9.27,0,0,0,86.22,137.12Zm58.55-28.51,0,0s0,0,0,0ZM106.34,83l.23-.14-.86.64-.17.13.11-.13A3.8,3.8,0,0,1,106.34,83ZM85.82,108.72a10.64,10.64,0,0,1,.51-1.08c.27-.42.54-.82.84-1.21s.65-.82,1-1.25c.47-.65.88-1.32,1.28-2,0,.25-.05.51-.06.76a6.43,6.43,0,0,0,0,1.16c0,.12,0,.24.05.35s0,.33.09.49a2.67,2.67,0,0,0,.14.36,7.41,7.41,0,0,0,.87,1.42,7.51,7.51,0,0,0,1.85,1.65,6.58,6.58,0,0,0,1.24.7,10,10,0,0,0,1.48.43c.44.09.88.17,1.32.23a6.85,6.85,0,0,0,1.43.06,8,8,0,0,0,1.3-.19c1.15-.21,2.28-.48,3.43-.66l.67,0h.57a7.48,7.48,0,0,1,.94.2l.33.14.5.27a9.53,9.53,0,0,1,1.49,1.27,13.78,13.78,0,0,1,1.3,1.83c.2.32.4.63.63.94a7.07,7.07,0,0,0,.94,1,8.06,8.06,0,0,0,1.12.79,6.22,6.22,0,0,0,1.27.54,7.23,7.23,0,0,0,1.23.24,9.12,9.12,0,0,0,1.48.07,9.53,9.53,0,0,0,2.19-.35,11.22,11.22,0,0,0,2-.75l1.73-.82c.26-.11.52-.24.78-.36l.7-.28a15.51,15.51,0,0,1,2.82-.7h.13l.25,0a2.26,2.26,0,0,0,.26,0,5.47,5.47,0,0,1,.57,0,3.87,3.87,0,0,1,.88.2,6.44,6.44,0,0,1,1,.5l.13.08-.06.13a7.42,7.42,0,0,0-.39,2.23,4.13,4.13,0,0,0,.79,2.36,3.14,3.14,0,0,1-.31.18c-.29.17-.6.32-.91.49l-.92.49c-.32.17-.65.33-1,.51s-.52.31-.77.47-.53.33-.79.51a6.94,6.94,0,0,1-.8.46,4.73,4.73,0,0,1-.45.23,2,2,0,0,0-.39.24l-.11.12a6.07,6.07,0,0,1-.69.31l-.63.19a3.69,3.69,0,0,1-.46.08,13.31,13.31,0,0,1-1.78.07c-.57,0-1.14-.06-1.7-.11l-.78-.11a8.56,8.56,0,0,1-.87-.23,6.68,6.68,0,0,1-.87-.37c-.35-.18-.69-.37-1-.56a18.25,18.25,0,0,0-2.07-1.16,15.67,15.67,0,0,0-5.08-1.26c-.44,0-.86,0-1.28,0s-.84,0-1.25.07a15.4,15.4,0,0,0-2.62.53A13.15,13.15,0,0,0,100,121l-.58.25-.5.26-1.16.59c-.35.17-.7.32-1.06.47a8.61,8.61,0,0,1-1.51.4,7.68,7.68,0,0,1-1.27,0l-.41,0c-.42-.06-.83-.13-1.25-.21L91,122.47c-.8-.18-1.58-.39-2.36-.62a7.67,7.67,0,0,1-1.34-.59,6.11,6.11,0,0,1-.67-.57c-.17-.19-.33-.38-.49-.59s-.31-.47-.45-.71a5.86,5.86,0,0,1-.35-.87,7.38,7.38,0,0,1-.19-.78s0,0,0-.07c0-.43,0-.86,0-1.29s0-.84,0-1.26c0-.91.06-1.81.12-2.71,0-.32,0-.65.07-1,0-.15.1-.3.16-.45h0c0,.08-.08.17-.13.25.06-.49.12-1,.22-1.47A9.76,9.76,0,0,1,85.82,108.72ZM81.7,129l-.15.59s0,0,0,0A4.3,4.3,0,0,1,81.7,129Z"/><path class="cls-1" d="M92.39,155c.42.09.83.15,1.25.2a12,12,0,0,0,1.47.13,10.38,10.38,0,0,0,1.25,0c.53-.05,1.06-.13,1.58-.23a20.85,20.85,0,0,0,2.34-.67,17.09,17.09,0,0,0,2.54-1c.38-.2.74-.4,1.1-.63s.78-.54,1.14-.82a9.84,9.84,0,0,0,1.3-1.28c.42-.49.83-1,1.25-1.47a2,2,0,0,1,.19-.22,1.06,1.06,0,0,0,.41-.24c.1-.09.19-.19.28-.28A5.62,5.62,0,0,1,109,148a8.44,8.44,0,0,1,.83-.47c.33-.16.66-.31,1-.45l1.47-.51c.59-.19,1.19-.34,1.78-.5l1.79-.47c.57-.16,1.14-.32,1.69-.53l.16-.07h0l.1,0,0,0-.15.06c.43-.17.85-.34,1.26-.54s.71-.38,1.06-.57a13.59,13.59,0,0,0,2.2-1.51,14.22,14.22,0,0,0,1.67-1.81c.47-.58.88-1.19,1.29-1.8.76-1.14,1.53-2.27,2.26-3.43.37-.58.75-1.15,1.13-1.72s.75-1.25,1.11-1.88h0L128,133.24c-.61.51-1.2,1-1.78,1.57l-1.61,1.58c-.54.53-1,1.09-1.53,1.64s-1.17,1.34-1.8,2c-.31.31-.64.62-1,.91s-.67.53-1,.78-.83.58-1.28.83a14.67,14.67,0,0,1-1.54.76c-.67.25-1.36.47-2.06.66s-1.6.43-2.39.67c-.39.11-.78.25-1.17.38s-.88.31-1.3.48a9.83,9.83,0,0,0-2.27,1.2c-.18.13-.35.27-.51.41a2.4,2.4,0,0,0-.39.39,1.19,1.19,0,0,0-.12.29c-.44.46-.85.94-1.28,1.4-.28.29-.55.58-.84.85a5.92,5.92,0,0,1-.82.66,12,12,0,0,1-1.14.7c-.43.22-.87.41-1.31.59-.68.25-1.36.46-2.06.65a20.48,20.48,0,0,1-2.06.47,11.16,11.16,0,0,1-1.42.07c-.5,0-1,0-1.53-.08a19.71,19.71,0,0,1-3.58-.79,11.92,11.92,0,0,1-1.92-.88,7.61,7.61,0,0,1-1-.87c-.15-.19-.29-.37-.42-.56s-.28-.41-.41-.62l-.16-.32c-.07-.17-.14-.34-.2-.51s-.13-.4-.19-.61-.18-.67-.25-1c0-.16-.05-.32-.07-.48s0-.47,0-.71c0-.39,0-.79,0-1.19h0c0-.11,0-.21,0-.32a6.63,6.63,0,0,1,.29-1c.15-.37.29-.75.44-1.12h0c-.24.36-.49.71-.73,1.08a4.49,4.49,0,0,0-.51,1,10.54,10.54,0,0,0-.49,2.28,6.49,6.49,0,0,0,0,1.08c0,.34,0,.67.09,1s.07.45.12.67.1.39.16.58a6.43,6.43,0,0,0,.44,1,5,5,0,0,0,.64,1c.16.2.32.39.5.58l.31.3a4.29,4.29,0,0,0,.69.49,8.93,8.93,0,0,0,1.09.61,12.25,12.25,0,0,0,1.42.55C90.82,154.57,91.59,154.79,92.39,155Z"/><path class="cls-1" d="M117.75,145h0l-.11,0Z"/><path class="cls-1" d="M134.19,135.58h0v0Z"/><path class="cls-1" d="M118.81,173.77a7.62,7.62,0,0,0,1.45-.89c.19-.14.36-.29.54-.44s.59-.52.87-.8a11,11,0,0,0,.8-.87,14.89,14.89,0,0,0,1.44-1.93c.49-.78.94-1.56,1.4-2.34.24-.41.48-.82.74-1.23a11.86,11.86,0,0,1,.74-1,8,8,0,0,1,.71-.72c.3-.26.62-.52.95-.76.65-.48,1.29-1,1.92-1.48s1.22-1,1.79-1.53,1.14-1.16,1.67-1.75,1-1.25,1.56-1.87c.28-.29.55-.58.82-.88h0c-.44.32-.9.62-1.33.95s-.76.61-1.13.93-.79.61-1.19.92-.79.59-1.2.88c-1.28.87-2.62,1.68-3.92,2.52-.39.25-.79.51-1.15.79a8.05,8.05,0,0,0-.89.86,11.74,11.74,0,0,0-1.42,2c-.27.45-.51.9-.76,1.36s-.54,1-.84,1.49a13.17,13.17,0,0,1-.87,1.37c-.34.47-.69.93-1.05,1.39a12.48,12.48,0,0,1-1.95,1.89c-.33.21-.67.4-1,.6l-.74.38-3.35-.62c-.57-.1-1.14-.22-1.71-.34a16.47,16.47,0,0,1-2.22-.59l-.17-.09a3.15,3.15,0,0,1-.35-.38c-.38-.52-.67-1.09-1-1.62a7.53,7.53,0,0,0-.76-.95,8.67,8.67,0,0,0-.72-.64c-.54-.43-1.14-.8-1.73-1.18-.26-.17-.53-.34-.81-.49a4.59,4.59,0,0,0-.49-.26,1.61,1.61,0,0,0-.54-.16h0a13.83,13.83,0,0,0-1.32-.5c-.51-.14-1-.27-1.54-.38s-1-.17-1.42-.23a9,9,0,0,1,1.14-1,3.56,3.56,0,0,1,.69-.38,8,8,0,0,1,1.29-.29c.25,0,.49-.06.75-.08s.51,0,.76,0c.8.1,1.59.26,2.39.38s1.82.19,2.73.26a13.47,13.47,0,0,0,2.46-.05,11.61,11.61,0,0,0,2.69-.57,10.92,10.92,0,0,0,1.4-.6,8.7,8.7,0,0,0,1.06-.63,15.3,15.3,0,0,0,2.08-1.66,18.1,18.1,0,0,0,1.73-1.89c.26-.31.5-.63.73-.95s.41-.62.61-.92a25,25,0,0,0,2.16-4.21c.55-1.38.94-2.79,1.54-4.15l.07-.17a5.36,5.36,0,0,1,.34-.62,7.14,7.14,0,0,1,.55-.77c.14-.16.29-.31.45-.46a5,5,0,0,1,.51-.4c.62-.4,1.27-.76,1.88-1.18s1.48-1,2.17-1.59a9,9,0,0,0,2.69-3.74,11,11,0,0,0,.45-2c.1-.66.23-1.33.31-2a5.59,5.59,0,0,0,.09-.7h0c-.24.47-.52.93-.79,1.38s-.51.89-.74,1.34-.49.89-.76,1.34a9.76,9.76,0,0,1-.89,1.17l-.17.21.15-.18a10.84,10.84,0,0,1-.82.84,8.77,8.77,0,0,1-.9.71c-.64.42-1.28.82-1.94,1.21s-1.43.75-2.11,1.18a8.8,8.8,0,0,0-1.14.87,12.83,12.83,0,0,0-.93,1,6.48,6.48,0,0,0-.61.93,13.14,13.14,0,0,0-.61,1.25c-.37.91-.68,1.83-1,2.75s-.62,1.67-1,2.49a27.85,27.85,0,0,1-1.36,2.52c-.25.4-.5.81-.79,1.19s-.59.77-.89,1.14a17.48,17.48,0,0,1-1.27,1.31c-.47.42-1,.82-1.48,1.2l-.87.51c-.25.14-.53.24-.8.36l-.65.21c-.26.08-.52.14-.78.21-.48.11-1,.19-1.47.26-.86.09-1.72.13-2.58.17s-1.62.06-2.43,0c-.43,0-.86,0-1.28,0a7.57,7.57,0,0,0-1.34.18,8.62,8.62,0,0,0-1.39.44,3.94,3.94,0,0,0-1.21.76,5.3,5.3,0,0,0-.54.63,5.64,5.64,0,0,0-.46.63L96.8,165c-.54-.1-1.08-.21-1.61-.35l-.31-.08h.33s0,0,0,0c-.78-.3-1.6-.5-2.38-.81a4.14,4.14,0,0,1-.69-.37,6,6,0,0,1-.5-.51,4.34,4.34,0,0,1-.38-.66l0-.06c-.16-.5-.3-1-.41-1.52l-.15-.75a4.06,4.06,0,0,0-.27-.81A11.69,11.69,0,0,0,89.3,157h0c0,.53.12,1.07.18,1.61v-.05l0,.32c0,.64-.06,1.3,0,2a4.31,4.31,0,0,0,.56,2.1,3.52,3.52,0,0,0,1.37,1.25,4,4,0,0,0,1.5.38l.62,0c.27.14.53.29.81.42s.84.35,1.26.49c.9.3,1.81.53,2.73.78.47.12.94.25,1.4.4s.82.29,1.22.45.69.32,1,.51a1.32,1.32,0,0,0,.35.31l.39.25.67.48c.42.32.85.63,1.29.94a8.73,8.73,0,0,1,1.24,1.19c.23.31.46.61.67.93a8,8,0,0,0,.86,1.08,4.77,4.77,0,0,0,.68.57,1.57,1.57,0,0,0,.32.15,2.7,2.7,0,0,0,.48.16,7.08,7.08,0,0,0,.92.16,10.55,10.55,0,0,0,1.38.1h.33a2.45,2.45,0,0,0,.35.29,3.94,3.94,0,0,0,1.47.58,7.24,7.24,0,0,0,1.68.05,8.65,8.65,0,0,0,1.76-.31A10.6,10.6,0,0,0,118.81,173.77Zm-4.4.55a5.52,5.52,0,0,1-1.22.05,5.34,5.34,0,0,1-.88-.2,4,4,0,0,1-.51-.23q1.14,0,2.28,0l2.32-.11-.05,0A8.38,8.38,0,0,1,114.41,174.32Z"/><path class="cls-1" d="M134,167.69a10,10,0,0,0-.57,1.25c-.13.37-.24.74-.34,1.12a19.81,19.81,0,0,0-.53,3.59c-.08,1.06-.15,2.13-.27,3.19a5.59,5.59,0,0,1-.38,1.37,3.88,3.88,0,0,1-.3.48c-.35.39-.73.76-1.1,1.14h0l1.27-.63a3.34,3.34,0,0,0,1.09-.91,4.08,4.08,0,0,0,.47-.7,18.64,18.64,0,0,0,.91-2.11c.49-1.38.84-2.79,1.2-4.2.15-.58.32-1.16.48-1.74a12.92,12.92,0,0,1,.62-1.74,8.79,8.79,0,0,1,.88-1.42c.14-.19.29-.36.45-.55s.44-.49.69-.72a9.41,9.41,0,0,1,.83-.68,8.34,8.34,0,0,1,1.57-.73c.52-.2,1-.4,1.58-.57h0c-.48,0-.94.07-1.41.12s-1.1.13-1.63.23c-.33.07-.63.18-.95.28s-.42.18-.63.27a11.66,11.66,0,0,0-1.14.66A7.7,7.7,0,0,0,134,167.69Z"/><path class="cls-1" d="M145.78,162.43c.33.17.66.34,1,.53s.62.39.94.57a8.32,8.32,0,0,0,1,.44l1.06.38c.37.13.73.28,1.09.43a19.1,19.1,0,0,0,2.25.74l.55.16c.19.06.38.09.57.13.34.07.67.11,1,.15s.88.12,1.32.21l.63.13a4.17,4.17,0,0,0,.7.08,5.6,5.6,0,0,0,1.42-.1,4.34,4.34,0,0,0,.72-.13,1.74,1.74,0,0,0,.38-.14.83.83,0,0,0,.28-.21h0s0,0,0,0l-.28.13L160,166a7.51,7.51,0,0,1-.82,0,7.12,7.12,0,0,1-.8,0,6.18,6.18,0,0,1-1.13-.26c-.41-.15-.83-.29-1.26-.41s-.88-.22-1.3-.35l-.37-.13-.73-.32c-.24-.09-.47-.2-.7-.3-.5-.22-1-.47-1.47-.72s-1-.48-1.48-.71a13.77,13.77,0,0,1-1.33-.67,20.24,20.24,0,0,0-1.76-1.13c-.63-.36-1.29-.67-1.9-1.05a7.92,7.92,0,0,1-.91-.71c-.32-.29-.61-.59-.92-.88s-.65-.59-1-.87-.53-.5-.78-.76-.65-.79-.94-1.2c-.14-.2-.27-.39-.39-.59s-.13-.21-.21-.32l0-.06a.86.86,0,0,0-.28-.26l-.13-.24c-.2-.42-.39-.85-.55-1.29a8.17,8.17,0,0,1-.38-1.43c-.1-.7-.13-1.4-.16-2.1l-.09-2.17a39.89,39.89,0,0,0-.42-4.37c-.11-.69-.2-1.38-.29-2.07s-.21-1.45-.34-2.17-.27-1.38-.42-2.07c-.06-.32-.15-.64-.22-1l-.24-1.24h0c0,.43,0,.86,0,1.29s0,.69,0,1c0,.74.08,1.49.12,2.23s.05,1.43,0,2.14,0,1.47,0,2.21c.06,1.48.06,3,.07,4.45,0,.71,0,1.42,0,2.14a12.23,12.23,0,0,0,.15,2.18,9.11,9.11,0,0,0,.45,1.78,12.58,12.58,0,0,0,.6,1.35,1.45,1.45,0,0,0,0,.3,2.73,2.73,0,0,0,.22.41l.28.47c.19.29.4.58.61.87a11.21,11.21,0,0,0,1.74,1.85c.3.24.6.49.88.75l.85.78a9,9,0,0,0,2.25,1.45Z"/><path class="cls-1" d="M156.08,131.2c.14.15.28.31.43.45l.42.39a1.51,1.51,0,0,1,.18.26,1.07,1.07,0,0,1,.07.19c0,.12.1.24.16.36s.16.33.25.5a.67.67,0,0,0,.11.14,2.49,2.49,0,0,0,.23.23,1.29,1.29,0,0,0,1.19.21,3.91,3.91,0,0,0,.63-.28c.23-.12.45-.27.68-.39a6.89,6.89,0,0,1,.82-.4l.35-.13a21.36,21.36,0,0,1,2.86-.84l1.54-.31c.55-.12,1.09-.29,1.62-.45h0c-.42,0-.86,0-1.29,0s-.84,0-1.25-.06a13.67,13.67,0,0,0-2.31.06,12.07,12.07,0,0,0-2.4.52,9.38,9.38,0,0,0-1,.44c-.13.06-.25.14-.38.21l-.13-.22a3.08,3.08,0,0,0-.25-.52,2.74,2.74,0,0,0-.64-.68c-.36-.28-.69-.57-1-.87a11.55,11.55,0,0,0-1.16-.9c-.22-.15-.44-.28-.67-.41l-.32-.16a1.61,1.61,0,0,0-.39-.12,10,10,0,0,0-1.21-.38l-1.41-.33-.72-.13a5.63,5.63,0,0,0-.58,0,4.38,4.38,0,0,0-.52,0c-.5.06-1,.18-1.46.28h0a13.83,13.83,0,0,1,1.82,0,6.29,6.29,0,0,1,1.06.25,18.41,18.41,0,0,1,2.54,1.07,1.62,1.62,0,0,0,.19.18l.27.19c.16.12.31.25.46.38a10.46,10.46,0,0,1,.89.87Z"/><path class="cls-1" d="M151.74,133.39a14.58,14.58,0,0,0-2.21-1.46h0a17.86,17.86,0,0,0,1.58,2,6.43,6.43,0,0,0,.81.75,8.61,8.61,0,0,0,1.08.69,1.62,1.62,0,0,0,.36.21l.52.19A3.59,3.59,0,0,0,155,136h0a3,3,0,0,1-.4-.21c-.44-.3-.82-.66-1.28-.95l.08,0C152.89,134.39,152.34,133.87,151.74,133.39Z"/><path class="cls-1" d="M147.84,147.72a7.66,7.66,0,0,0-.49.94,4,4,0,0,0-.3.86,3.07,3.07,0,0,0,0,.68,11.45,11.45,0,0,0,.13,1.3h0c0-.49,0-1,.11-1.46a3.25,3.25,0,0,1,.18-.68,5.47,5.47,0,0,1,.52-.86c.18-.25.35-.5.55-.74a7.11,7.11,0,0,1,1-.85,3.5,3.5,0,0,1,.54-.29,7.06,7.06,0,0,1,2.63-.31c.34,0,.67.08,1,.15a7.06,7.06,0,0,1,.93.25c.22.08.44.17.65.27a1.56,1.56,0,0,0,.52.38l.22.13c.31.22.6.45.89.69a11.22,11.22,0,0,0,1.13.77,9.45,9.45,0,0,0,1.08.59,6.64,6.64,0,0,0,1.3.44l.6.09c.29,0,.58.06.88.07a9,9,0,0,0,1.16,0,14.19,14.19,0,0,0,2.53-.4,14.6,14.6,0,0,0,2.69-.88h0a22.5,22.5,0,0,1-2.47.07c-.4,0-.8,0-1.2,0l-1.21-.07a13.25,13.25,0,0,1-2.6-.48,11.64,11.64,0,0,1-2.06-1.11c-.37-.25-.71-.52-1.08-.78a6.46,6.46,0,0,0-.71-.44,3,3,0,0,0-.36-.18,1.36,1.36,0,0,0-.52-.12,7.36,7.36,0,0,0-1-.32,13.3,13.3,0,0,0-1.43-.2l-.53,0h-.41a7,7,0,0,0-.92.11,8.33,8.33,0,0,0-1.22.29,4.09,4.09,0,0,0-1.19.57,3.94,3.94,0,0,0-.74.67A6.69,6.69,0,0,0,147.84,147.72Z"/><path class="cls-1" d="M161.84,158l1.33-.35,1.26-.32,1.25-.32h.09a6.86,6.86,0,0,0-.91-.12c-.31,0-.63-.06-1-.07-.62,0-1.24,0-1.86,0-.32,0-.65,0-1,0s-.6.06-.9.07a11.34,11.34,0,0,1-1.75-.07,5.09,5.09,0,0,1-.66-.12,3,3,0,0,1-.51-.25,1.64,1.64,0,0,1-.25-.19,1.34,1.34,0,0,1-.21-.2c-.27-.3-.52-.6-.79-.91s-.66-.68-1-1c-.18-.19-.36-.39-.53-.59s-.17-.19-.26-.29a1.29,1.29,0,0,0-.19-.21l-.16-.12c-.3-.37-.58-.74-.84-1.13a12.83,12.83,0,0,1-.73-1.23,15.1,15.1,0,0,1-.65-1.56c-.2-.59-.43-1.16-.68-1.73h0c.14.57.27,1.14.38,1.71s.2,1.06.36,1.57.35,1,.55,1.46a13.66,13.66,0,0,0,.69,1.38l.06.21a1.72,1.72,0,0,0,.18.32c.09.16.19.32.29.48a9.8,9.8,0,0,0,.62,1,20.7,20.7,0,0,0,1.34,1.78,3.68,3.68,0,0,0,.61.57,5.32,5.32,0,0,0,.61.35,3.38,3.38,0,0,0,.72.24,6.32,6.32,0,0,0,.76.11c.39,0,.77,0,1.15,0a9.56,9.56,0,0,0,1.31-.16C161,158.23,161.43,158.11,161.84,158Z"/><path class="cls-1" d="M174.55,143.57a9.25,9.25,0,0,1,1.09-.35h0l-.8,0h-.22c-.31,0-.61.08-.92.12a9.47,9.47,0,0,0-1.67.41,4,4,0,0,0-1.57.93,2.33,2.33,0,0,0-.61,1.09,3.47,3.47,0,0,0,.45,2.12h0c0-.44,0-.9,0-1.34a3.06,3.06,0,0,1,.17-.59,3.47,3.47,0,0,1,.37-.57,2.54,2.54,0,0,1,.43-.37,13.63,13.63,0,0,1,2.5-1.18h0a3.59,3.59,0,0,1,.35-.12Z"/><path class="cls-1" d="M162.34,164.81c.43-.43.83-.88,1.23-1.34,1.14-1.28,2.11-2.67,3.21-4a7.81,7.81,0,0,0,.53-.64l.1-.12h0a6.07,6.07,0,0,0-.9.5,12.09,12.09,0,0,0-1.77,1.31,11,11,0,0,0-1.5,1.56A19.22,19.22,0,0,0,161,166h0C161.46,165.64,161.92,165.24,162.34,164.81Z"/><path class="cls-1" d="M172.68,166c-.65.55-1.33,1.08-2,1.65l-.84.77c-.3.31-.58.63-.87,1-.54.6-1.08,1.2-1.59,1.82s-1.06,1.24-1.64,1.83a7.78,7.78,0,0,1-1.31,1,8.41,8.41,0,0,1-1.43.66,12.18,12.18,0,0,1-1.88.43c-.37,0-.74.07-1.11.13s-.7.1-1.06.13l-.93.11s0-.05,0-.07a3.15,3.15,0,0,0,0-.92,4,4,0,0,0-.18-.83,6.83,6.83,0,0,0-.43-.91,4.33,4.33,0,0,0-.53-.74,11.14,11.14,0,0,0-1.67-1.54h0c.24.46.5.92.75,1.38s.37.78.55,1.18.25.78.36,1.17a8.35,8.35,0,0,1,.2,1.2,1.15,1.15,0,0,0,0,.18l-.29,0a17.29,17.29,0,0,0-2.66.68l.34-.1c-.68.2-1.33.43-2,.67s-1.18.43-1.75.68-1.1.52-1.62.81-1.11.65-1.66,1a14.16,14.16,0,0,1-2.2,1.11c-.25,0-.49.1-.75.13a6.47,6.47,0,0,1-.88,0l-1-.11a10.1,10.1,0,0,1-1.36-.38c.06-.1.13-.19.18-.29a13.34,13.34,0,0,0,.71-1.54c.2-.52.37-1.05.55-1.58s.37-1,.58-1.54c0-.08.07-.15.1-.22a2,2,0,0,1,.1-.21c.14-.26.28-.52.44-.78s.35-.54.53-.8l.57-.84c.16-.22.33-.43.51-.65q.69-.75,1.41-1.5c.49-.52,1-1,1.45-1.57h0c-.37.23-.76.43-1.15.63s-.77.4-1.14.62-.69.42-1,.64a7.12,7.12,0,0,0-1,.76,12.36,12.36,0,0,0-1.68,1.88,6,6,0,0,0-1,2.19,13.18,13.18,0,0,0-.27,1.78c0,.59-.11,1.17-.18,1.75a8,8,0,0,1-.2,1.09,13.35,13.35,0,0,0-1.35-.45,9,9,0,0,0-1.94-.35c-.33,0-.65,0-1,0a6.11,6.11,0,0,0-.95.09,21.72,21.72,0,0,0-3.22.35A8.72,8.72,0,0,0,131,180l-.84.32-.44-.23-3-1.65c-.49-.27-1-.57-1.47-.86s-.88-.48-1.33-.71-1-.52-1.55-.75a17.82,17.82,0,0,0-2.51-.9,7.36,7.36,0,0,0-1.64-.21h-.1a12.78,12.78,0,0,0-1.53.16h0c.41,0,.83.08,1.24.14s.54.11.81.18.6.21.9.33c.8.36,1.54.81,2.29,1.22.47.25.91.54,1.37.8a31.15,31.15,0,0,0,2.86,1.52c1.07.47,2.15.9,3.26,1.28h0s0,0,0,0h0l.06,0c.49.17,1,.31,1.48.46l1.9.6h0c-.56-.32-1.12-.64-1.7-.95l-.73-.37.79-.19c.26-.07.53-.14.81-.19a8.47,8.47,0,0,1,.88-.12,22.81,22.81,0,0,1,2.86.07,4.68,4.68,0,0,0,.54.1l.61.07c.34.07.66.15,1,.24a5.71,5.71,0,0,1,.79.28c.46.21.89.45,1.33.68a16.39,16.39,0,0,0,1.51.76,10,10,0,0,0,1.44.43,7.37,7.37,0,0,0,1.69.2,8.05,8.05,0,0,0,1-.07,5.55,5.55,0,0,0,1-.26,8.17,8.17,0,0,0,1.31-.59c.51-.27,1-.56,1.5-.85l1.13-.71a12.6,12.6,0,0,1,1.82-.85c.69-.26,1.39-.48,2.1-.71a15.77,15.77,0,0,1,3-.65l1.12-.06,1.18-.1h-.2c.44,0,.87-.07,1.31-.13s.79-.08,1.18-.14a8.48,8.48,0,0,0,1.21-.28,12.15,12.15,0,0,0,1.4-.49,7.89,7.89,0,0,0,1.29-.75,6.61,6.61,0,0,0,1.06-.91,9.08,9.08,0,0,0,1.45-2c.23-.38.46-.76.65-1.14s.35-.66.53-1c.38-.71.74-1.42,1.13-2.12.28-.45.57-.9.87-1.34s.77-1.07,1.15-1.6c0,0,0,0,0,0Zm-6.88,7a0,0,0,0,1,0,0h0A0,0,0,0,0,165.8,173Z"/><path class="cls-1" d="M167.75,168.22h0c-.49-.39-.93-.83-1.42-1.22a16.78,16.78,0,0,0-1.63-1.12h0A11.06,11.06,0,0,0,167.75,168.22Z"/></g></svg>