<svg xmlns="http://www.w3.org/2000/svg" viewBox="0 0 153.51 163.32"><defs><style>.cls-1{fill:#fff;}</style></defs><title>2413150</title><g id="OBJECTS"><path class="cls-1" d="M137.59,87.88a5,5,0,0,1-4.94,5L102,93.09h0a5,5,0,0,1-3.64-8.35,25.45,25.45,0,0,0-18.61-42.8h-.18A25.47,25.47,0,0,0,60.48,84.06a5,5,0,0,1-3.71,8.21l-29.62.22h0a5,5,0,0,1,0-9.93l20.6-.14A35.39,35.39,0,0,1,79.47,32h.26a35.43,35.43,0,0,1,31.72,51.1L132.58,83h0A5,5,0,0,1,137.59,87.88Z"/><path class="cls-1" d="M137.7,105a5,5,0,0,1-4.92,5l-105.49.76h0a5,5,0,0,1-5-4.94,4.94,4.94,0,0,1,1.43-3.52,5,5,0,0,1,3.49-1.48l105.5-.74h.05A5,5,0,0,1,137.7,105Z"/></g></svg>