<svg xmlns="http://www.w3.org/2000/svg" xmlns:xlink="http://www.w3.org/1999/xlink" viewBox="0 0 251.17 251.17"><defs><style>.cls-1{isolation:isolate;}.cls-10,.cls-2,.cls-3,.cls-4,.cls-5,.cls-6,.cls-7,.cls-8,.cls-9{mix-blend-mode:screen;}.cls-2{fill:url(#radial-gradient);}.cls-3{fill:url(#radial-gradient-2);}.cls-4{fill:url(#radial-gradient-3);}.cls-5{fill:url(#radial-gradient-4);}.cls-6{fill:url(#radial-gradient-5);}.cls-7{fill:url(#radial-gradient-6);}.cls-8{fill:url(#radial-gradient-7);}.cls-9{fill:url(#radial-gradient-8);}.cls-10{fill:url(#radial-gradient-9);}.cls-11{fill:#def9ff;}</style><radialGradient id="radial-gradient" cx="61.06" cy="227.25" r="5.35" gradientUnits="userSpaceOnUse"><stop offset="0" stop-color="#f1f2ce"/><stop offset="1"/></radialGradient><radialGradient id="radial-gradient-2" cx="113.99" cy="227.46" r="5.35" xlink:href="#radial-gradient"/><radialGradient id="radial-gradient-3" cx="193.4" cy="231.65" r="5.35" xlink:href="#radial-gradient"/><radialGradient id="radial-gradient-4" cx="128.12" cy="154.28" r="5.35" xlink:href="#radial-gradient"/><radialGradient id="radial-gradient-5" cx="98.11" cy="70.7" r="5.35" xlink:href="#radial-gradient"/><radialGradient id="radial-gradient-6" cx="84.88" cy="54.54" r="5.35" xlink:href="#radial-gradient"/><radialGradient id="radial-gradient-7" cx="102.03" cy="29.72" r="5.35" xlink:href="#radial-gradient"/><radialGradient id="radial-gradient-8" cx="122.61" cy="35.5" r="5.35" xlink:href="#radial-gradient"/><radialGradient id="radial-gradient-9" cx="125.37" cy="69.17" r="5.35" xlink:href="#radial-gradient"/></defs><title>2445646</title><g class="cls-1"><g id="OBJECTS"><path class="cls-2" d="M66.41,227.25a5.36,5.36,0,1,1-5.35-5.35A5.35,5.35,0,0,1,66.41,227.25Z"/><path class="cls-3" d="M119.34,227.46a5.35,5.35,0,1,1-5.35-5.35A5.34,5.34,0,0,1,119.34,227.46Z"/><path class="cls-4" d="M198.75,231.65a5.35,5.35,0,1,1-5.35-5.36A5.35,5.35,0,0,1,198.75,231.65Z"/><path class="cls-5" d="M133.48,154.28a5.36,5.36,0,1,1-5.36-5.35A5.36,5.36,0,0,1,133.48,154.28Z"/><circle class="cls-6" cx="98.11" cy="70.7" r="5.35"/><path class="cls-7" d="M90.23,54.54a5.35,5.35,0,1,1-5.35-5.35A5.35,5.35,0,0,1,90.23,54.54Z"/><path class="cls-8" d="M107.38,29.72A5.35,5.35,0,1,1,102,24.37,5.35,5.35,0,0,1,107.38,29.72Z"/><circle class="cls-9" cx="122.61" cy="35.5" r="5.35"/><path class="cls-10" d="M130.73,69.17a5.36,5.36,0,1,1-5.36-5.35A5.36,5.36,0,0,1,130.73,69.17Z"/><path class="cls-11" d="M104.64,29.72a2.55,2.55,0,1,1-2.55-2.55A2.55,2.55,0,0,1,104.64,29.72Z"/><path class="cls-11" d="M125.37,35.84a2.55,2.55,0,1,1-2.55-2.55A2.55,2.55,0,0,1,125.37,35.84Z"/><path class="cls-11" d="M127.93,69.16a2.56,2.56,0,1,1-2.56-2.55A2.56,2.56,0,0,1,127.93,69.16Z"/><path class="cls-11" d="M100.67,70.57A2.55,2.55,0,1,1,98.12,68,2.55,2.55,0,0,1,100.67,70.57Z"/><path class="cls-11" d="M87.43,54.68a2.55,2.55,0,1,1-2.55-2.55A2.55,2.55,0,0,1,87.43,54.68Z"/><path class="cls-11" d="M130.48,154.21a2.56,2.56,0,1,1-2.55-2.55A2.55,2.55,0,0,1,130.48,154.21Z"/><path class="cls-11" d="M196,231.51A2.55,2.55,0,1,1,193.4,229,2.55,2.55,0,0,1,196,231.51Z"/><path class="cls-11" d="M116.55,227.46a2.55,2.55,0,1,1-2.55-2.55A2.55,2.55,0,0,1,116.55,227.46Z"/><path class="cls-11" d="M63.61,227.46a2.55,2.55,0,1,1-2.55-2.55A2.55,2.55,0,0,1,63.61,227.46Z"/><rect class="cls-11" x="78.33" y="41.99" width="30.31" height="0.42" transform="translate(5.67 95.21) rotate(-55.41)"/><rect class="cls-11" x="91.29" y="52.28" width="0.42" height="20.68" transform="translate(-18.89 73.06) rotate(-39.79)"/><polygon class="cls-11" points="98.13 70.78 98.11 70.36 125.36 68.95 125.39 69.37 98.13 70.78"/><polygon class="cls-11" points="122.77 36.04 102.03 29.93 102.15 29.52 122.88 35.63 122.77 36.04"/><rect class="cls-11" x="123.89" y="35.79" width="0.42" height="33.42" transform="translate(-3.64 9.62) rotate(-4.38)"/><rect class="cls-11" x="112.81" y="67.99" width="0.42" height="88.8" transform="translate(-31.17 44.46) rotate(-19.61)"/><rect class="cls-11" x="160.45" y="142.21" width="0.42" height="101.3" transform="translate(-86.59 149.54) rotate(-40.27)"/><rect class="cls-11" x="153.49" y="189.73" width="0.42" height="79.5" transform="translate(-83.32 371.29) rotate(-87.08)"/><rect class="cls-11" x="61.06" y="227.25" width="52.94" height="0.42"/></g></g></svg>