<svg xmlns="http://www.w3.org/2000/svg" viewBox="0 0 251.17 251.17"><defs><style>.cls-1{fill:#fefefe;}</style></defs><title>2445646</title><g id="OBJECTS"><path class="cls-1" d="M165.16,168.4s0,0,0,0h0Z"/><path class="cls-1" d="M131.57,168.39h0a.78.78,0,0,1-.05-.14l0-.06h-.08a.24.24,0,0,1,.08.09h0A.5.5,0,0,1,131.57,168.39Z"/><path class="cls-1" d="M118.25,174.9a3.09,3.09,0,0,1-.79.22,10.06,10.06,0,0,1-1.55.07c-.59,0-1.18,0-1.76-.1a26.2,26.2,0,0,1-3.62-.67l-1.15-.26c-.26-.06-.51-.14-.76-.21l-.81-.21-1-.32c-.3-.08-.58-.19-.88-.29l-.72-.27-1.37-.59c-.45-.2-.9-.41-1.34-.63s-.9-.45-1.33-.68l-.75-.41c-.2-.11-.39-.24-.58-.37l-.19-.15h0a7.44,7.44,0,0,0,1.4,1.22c.5.37,1,.72,1.53,1.06l.5.32q.51.31,1,.6c.28.14.55.3.83.42l.85.37.92.35,1,.34.29.08.67.19.66.17c.9.19,1.82.38,2.74.5a16.91,16.91,0,0,0,2.56.15c.42,0,.84,0,1.25-.08s.82-.09,1.23-.17a3.86,3.86,0,0,0,1.19-.43,3.69,3.69,0,0,0,.92-.84h0l-.38.3A2.65,2.65,0,0,1,118.25,174.9Z"/><path class="cls-1" d="M144.41,147.92h0Z"/><path class="cls-1" d="M115.86,110.1a1.09,1.09,0,0,0,.37.34,4,4,0,0,0,.59.29l.32.14a.63.63,0,0,0,.26.07h.16c.62.25,1.24.52,1.85.8.35.14.69.31,1,.47s.62.3.93.47l1.95,1.09,1,.52c.31.17.63.32.94.48l1,.5a.43.43,0,0,0,0,.16l-.09.46a3.58,3.58,0,0,1-.21.39,4,4,0,0,1-.48.52l-.29.2-.41.22a6.59,6.59,0,0,1-.86.27c-.32.08-.64.13-1,.2-.62.14-1.24.28-1.87.39-.35,0-.7.09-1,.11s-.76,0-1.13.07l-.32,0-.29,0a.89.89,0,0,0-.44.23.62.62,0,0,0-.2.34.69.69,0,0,0,.08.53.89.89,0,0,0,.39.38l.13.09.54.27.29.15a1,1,0,0,0,.41.09l1.88,1c.67.35,1.31.75,2,1.16s1.21.78,1.82,1.15,1.38.8,2.09,1.18,1.34.67,2,1,1.43.62,2.16.88,1.44.45,2.17.66l1.09.31c.35.09.7.19,1.05.26.86.17,1.72.33,2.59.43l.19.11,1.24.78,1,.62c.27.17.52.35.78.53l.75.55c.27.19.52.39.79.59s.5.4.74.6l.68.55c.5.42,1,.84,1.46,1.29a18.09,18.09,0,0,1,1.25,1.38c.34.41.67.84,1,1.27l.4.57-.33.4-.73.89a5.23,5.23,0,0,0-.61.87,4.35,4.35,0,0,0-.41,1c-.09.35-.16.71-.22,1.07s-.1.7-.13,1-.06.75-.07,1.13,0,.74,0,1.1a19.94,19.94,0,0,0,.43,2.77s0,0,0,0a.89.89,0,0,0,0,.46.59.59,0,0,1,0,.13h-.1l-2-.21c-.42,0-.84-.09-1.27-.12l-1-.07-.14,0s0,0,0-.07a8.07,8.07,0,0,1,0-1.63c0-.26.06-.51.11-.76s.06-.35.09-.52a7.3,7.3,0,0,1,.27-1c.19-.49.4-.95.62-1.42s.33-.63.5-.95.36-.59.54-.87a7.47,7.47,0,0,1,.51-.74,13.51,13.51,0,0,1,.89-1.11c.17-.19.35-.37.53-.55s.34-.3.51-.44a12.2,12.2,0,0,1,1.13-.74h0c-.38.13-.75.26-1.11.42a7,7,0,0,0-.93.52,10.76,10.76,0,0,0-.93.7,7.25,7.25,0,0,0-.76.7c-.27.28-.53.54-.77.84s-.3.35-.45.54-.21.29-.32.44l-.37.54a5.06,5.06,0,0,0-.26.44c-.11.18-.21.36-.31.55a8.44,8.44,0,0,0-.64,1.52,8,8,0,0,0-.22.94c-.05.22-.08.44-.11.66a4.46,4.46,0,0,0-.06.72,7.5,7.5,0,0,0,0,1.06,3.27,3.27,0,0,0,.14.77,1.86,1.86,0,0,0,.2.37,1.7,1.7,0,0,0,.22.24l.25.18a2.18,2.18,0,0,0,.71.22l.52,0,1.14.1,2.32.28.56.07a2.69,2.69,0,0,0,.85,0,1.26,1.26,0,0,0,.86-.61,2,2,0,0,0,0-1.31c0-.09,0-.19-.06-.29a.82.82,0,0,0-.18-.33c-.25-.86-.5-1.72-.67-2.6-.08-.64-.15-1.28-.17-1.93,0-.32,0-.64,0-1s0-.67,0-1a4.68,4.68,0,0,1,.09-.54c0-.15.08-.3.12-.45a11.5,11.5,0,0,1,.7-1.35c.19-.32.38-.64.56-1,.18.27.36.55.53.83.33.55.67,1.1,1,1.66s.52,1,.76,1.5c.33.77.59,1.56.84,2.35.13.43.25.85.35,1.29s.16.68.22,1,.12.88.16,1.33a8.7,8.7,0,0,1,0,1.25,29.24,29.24,0,0,1-.4,2.92c-.1.51-.23,1-.35,1.54s-.25.85-.41,1.28a11.26,11.26,0,0,1-.55,1.17q-.32.56-.66,1.08a17.3,17.3,0,0,1-1.53,1.78c-.31.33-.64.65-1,1s-.51.46-.78.68-.73.43-1.09.66c-.59.35-1.19.69-1.76,1.06l-1.27.57c-.44.19-.89.35-1.35.51-1,.35-2,.68-2.91,1.07s-1.69.66-2.54,1-1.76.63-2.65.89c-.5.13-1,.25-1.52.35a8.48,8.48,0,0,1-1.59.15h-.53a8.68,8.68,0,0,0,1.53.22,8.32,8.32,0,0,0,1.32,0c1-.08,1.93-.23,2.89-.39a26,26,0,0,0,2.91-.65c.47-.13.92-.28,1.38-.43s1-.31,1.47-.49a18.6,18.6,0,0,0,2.35-1.1c.4-.23.79-.47,1.18-.72s.69-.47,1-.73c.6-.45,1.19-.92,1.77-1.39l.73-.41.22-.13h0l.43-.27h0L150,159l.25-.24c.24-.24.46-.5.69-.75s.46-.6.68-.91a9.41,9.41,0,0,0,.56-.89,7.62,7.62,0,0,0,.46-.9,12.6,12.6,0,0,0,.74-2.14c.18-.7.34-1.41.47-2.12s.21-1.37.28-2.06c0-.4.08-.8.09-1.2a2.16,2.16,0,0,0,0-.44,4.89,4.89,0,0,0,0-.55,19.36,19.36,0,0,0-.38-2.28c-.17-.7-.37-1.39-.59-2.08-.11-.33-.22-.67-.35-1s-.31-.77-.5-1.15a33.64,33.64,0,0,0-2.06-3.59,25.42,25.42,0,0,0-2.74-3.48l-.22-.24-.23-.17-1.18-.92c-.4-.32-.8-.65-1.19-1l-.71-.68c-.52-.4-1.05-.79-1.6-1.16-.28-.18-.55-.38-.84-.55l-.53-.31,0,0c.25-.11.48-.23.72-.36h0c-.29.11-.58.22-.88.31l-.34-.19-.6-.32.44-.26.69-.41a4.63,4.63,0,0,0,1.05-1,10.83,10.83,0,0,0,1.08-1.53,6.51,6.51,0,0,0,.55-1.3,10.25,10.25,0,0,0,.4-1.54,12.28,12.28,0,0,0,.2-3.09,12.6,12.6,0,0,0-.35-2.2l-.18-.75c0-.12-.06-.24-.1-.36s-.13-.42-.2-.63-.1-.32-.16-.48c-.13-.31-.25-.62-.38-.94s-.23-.51-.34-.76c-.24-.51-.49-1-.76-1.5s-.52-1-.8-1.45-.6-1-.89-1.56h0c.12.38.23.76.37,1.13s.26.72.4,1.09c.25.71.5,1.43.74,2.15.12.34.23.69.34,1s.2.73.31,1.09c0,.12.06.26.09.39s.11.49.18.74a2.5,2.5,0,0,1,0,.29l.15.8c0,.1,0,.19.05.29.1.68.18,1.36.22,2a14.56,14.56,0,0,1,0,2.09,12.34,12.34,0,0,1-.56,2.83c-.13.32-.29.64-.44,1a8.86,8.86,0,0,1-.69,1.14,3.32,3.32,0,0,1-.32.42,4.74,4.74,0,0,1-.51.49l-.4.36-.35.31c-.34-.18-.68-.36-1-.53-.71-.34-1.44-.68-2.16-1-2.17-1-4.36-1.9-6.56-2.77h0c1.22.77,2.42,1.56,3.64,2.32s2.42,1.5,3.64,2.23l-1.44-.41c-.53-.16-1.06-.35-1.58-.54l-1.74-.64h0l-.44-.16-1-.43-1.1-.49c-.68-.31-1.35-.65-2-1s-1.3-.71-1.94-1.11-1.3-.83-2-1.25-1.35-.87-2-1.28l-1-.56-.79-.43h.24a15.81,15.81,0,0,0,1.93-.21l1-.14c.4-.06.8-.1,1.19-.17a5.49,5.49,0,0,0,1.23-.39,3.28,3.28,0,0,0,.45-.24,4.21,4.21,0,0,0,.62-.47,2.3,2.3,0,0,0,.3-.33c.11-.13.2-.27.29-.4a2.32,2.32,0,0,0,.22-.41,2.4,2.4,0,0,0,.21-.69c0-.18,0-.35,0-.53a3,3,0,0,0,0-.52,4.07,4.07,0,0,0-.29-1.19c-.1-.22-.2-.43-.32-.64a4.93,4.93,0,0,0-.65-.87,5.83,5.83,0,0,0-.88-.84,7.26,7.26,0,0,0-1.17-.75c-.37-.21-.75-.38-1.13-.57a10.29,10.29,0,0,0-1.29-.53h0l.62.41c.38.3.75.62,1.11.94a14.84,14.84,0,0,1,1.06,1,9.13,9.13,0,0,1,1,1.54,6.22,6.22,0,0,1,.32,1,4.71,4.71,0,0,1,0,.53c-.33-.23-.65-.45-1-.66l-1.78-1.2c-.6-.41-1.18-.84-1.8-1.23s-1.27-.78-1.93-1.13-1.17-.61-1.78-.9l-.13-.12a2,2,0,0,0-.37-.21c.53-.19,1.08-.35,1.62-.53l2.13-.71,2.06-.7.5-.17.54-.17.57-.15c.19,0,.4-.08.59-.12.6-.12,1.19-.21,1.79-.3l1.07-.15,1.13-.13,1.17-.09.51,0,.65,0,1.15-.07c.38,0,.75-.07,1.13-.11l1.51-.16,1.61.17.32,0c.24,0,.47,0,.7.09a8.6,8.6,0,0,1,.86.15l1.58.32c1.08.22,2.17.41,3.24.67.43.11.85.24,1.26.37s.85.25,1.28.36.86.21,1.28.33.81.21,1.2.34,1,.47,1.58.67h0l-.47-.09a20.14,20.14,0,0,0-2.45-.25c-.38,0-.76,0-1.15,0s-.81,0-1.21,0a4.73,4.73,0,0,0-.53,0c-.29-.18-.59-.35-.89-.51-.51-.27-1-.54-1.53-.79s-.87-.44-1.32-.62h0l.41.27h0l1.12.83.9.68c.28.21.55.43.83.66a6.59,6.59,0,0,1,.72.68c.21.26.39.55.58.83a9.67,9.67,0,0,1,.66,1.12c.12.29.23.58.34.87s.14.36.19.54.15.49.23.74c0,.07,0,.15.06.23l.12.5c.11.42.2.85.31,1.27.06.24.1.49.15.73s.15.69.22,1c.09.61.13,1.22.17,1.83a17.92,17.92,0,0,1,0,2.43c-.06.5-.12,1-.22,1.48a10,10,0,0,1-.43,1.54c-.17.47-.38.92-.58,1.38h0c.28-.36.57-.73.83-1.12a8.37,8.37,0,0,0,.77-1.45,11.68,11.68,0,0,0,.78-3,18.25,18.25,0,0,0,.11-2A11.34,11.34,0,0,0,149,117a22.55,22.55,0,0,0-.52-2.27c-.07-.21-.13-.43-.2-.64a5.27,5.27,0,0,0-.19-.51,5.65,5.65,0,0,0-.23-.57l-.3-.63a7.13,7.13,0,0,0-.59-1c-.22-.31-.48-.6-.73-.9a7.47,7.47,0,0,0-.73-.76l-.06-.05.1,0c.51.16,1,.29,1.53.41s1,.24,1.43.39L150,111c1.25.48,2.46,1,3.69,1.58l.83.35h.21l.17,0,.27.06a13.11,13.11,0,0,1,1.34.44,12.89,12.89,0,0,1,1.18.58,1.18,1.18,0,0,1,.19.11l.63.27.47.39a8,8,0,0,1,1,.72l.74.71.26.17c.28.2.54.41.8.63s.61.51.9.78.6.56.88.85l0,0-1.66-2h0c-.27-.32-.52-.64-.77-.95.1,0,.2.12.3.18a7.77,7.77,0,0,1,.82.7c.3.3.6.62.9.93.6.64,1.24,1.25,1.87,1.87.3.3.6.59.93.87s.64.54.94.83a25,25,0,0,1,1.89,2c.09.11.18.22.26.34s.26.38.39.57c.22.34.42.69.63,1,.37.63.72,1.28,1,2s.66,1.52,1,2.27.68,1.55,1,2.34c.15.42.3.84.41,1.27s.22.83.3,1.24c.15,1,.27,1.95.4,2.92s.31,2,.47,3,.33,2.16.48,3.24c.07.51.14,1,.2,1.55s.1,1,.12,1.46c0,.21,0,.43,0,.64a3.85,3.85,0,0,1,0,.48c0,.32,0,.63,0,.94-.1,1-.24,1.94-.42,2.91a22.88,22.88,0,0,1-.77,2.84c-.22.6-.46,1.19-.7,1.78s-.58,1.25-.89,1.86-.61,1.19-1,1.77-.71,1.11-1.08,1.65L170,162c-.25.34-.51.68-.79,1-.56.63-1.15,1.24-1.74,1.84s-1.2,1.2-1.83,1.77-1.21,1.05-1.83,1.56a42.77,42.77,0,0,1-3.69,2.58,33.63,33.63,0,0,1-4.14,2.12l-1.39.55c-.5.18-1,.38-1.49.55s-1,.34-1.47.5-1,.29-1.55.42c-1,.24-1.95.45-2.95.63l-1.48.25c-.51.07-1,.17-1.52.26l-1.78.29c-1,.12-2,.21-3,.32s-2,.17-3.07.3-1.89.25-2.82.46a17.07,17.07,0,0,0-2.71.86c-.46.19-.92.39-1.36.62a15.1,15.1,0,0,0-1.35.77,11.2,11.2,0,0,0-1.13.82,6.8,6.8,0,0,0-.59.5c-.19.2-.36.4-.54.6A20.16,20.16,0,0,0,123.9,184c-.25.39-.45.82-.67,1.22s-.46.82-.68,1.24c-.11.2-.2.41-.31.62a5.64,5.64,0,0,0-.31.81c-.07.18-.13.36-.2.55-.2.53-.4,1.06-.61,1.59s-.42,1.1-.66,1.63-.47,1.08-.75,1.61a13.56,13.56,0,0,1-1,1.59c-.26.34-.51.68-.76,1l-.62.94a14.24,14.24,0,0,1-2.1,2.29,7.09,7.09,0,0,1-1.28.81s0,0,0,0l-1.14.47c0-.18,0-.37,0-.56.38-.34.76-.69,1.13-1.05.2-.19.4-.38.59-.58s.39-.44.57-.67.28-.36.41-.54.46-.61.66-.93.5-.77.74-1.17l.2-.34.42-.74c.07-.12.15-.24.21-.36s.15-.32.23-.47l.38-.76c0-.11.11-.22.16-.34.19-.42.37-.84.55-1.27s.25-.6.37-.9l.39-1c.27-.75.54-1.49.79-2.25l.42-1.31c.12-.38.22-.77.33-1.15.2-.69.39-1.38.57-2.08,0-.18.09-.35.14-.54h0c.16-.18.32-.36.49-.53s.31-.34.47-.5.42-.37.63-.55.62-.47.94-.69.75-.51,1.14-.76h0l-.92.45-.38.2-.41.23a13.8,13.8,0,0,0-1.2.79c-.38.29-.74.62-1.1,1l-.54.5-.8.79s-.09.1-.14.15l-.4.45-.39.44-.13.14-.7.89-.22.29-.22.33c-.18.27-.37.54-.55.82l0,.07-.12.21c-.1.19-.21.38-.32.56s-.14.27-.22.4l-.09.2-.51,1c-.11.24-.21.47-.31.71l-.31.72c-.13.35-.27.71-.41,1.06s-.18.57-.26.85c-.17.53-.32,1.07-.47,1.6l-.34,1.27c0,.17-.09.34-.14.51l-.21.63a0,0,0,0,0,0,0s0,0,0,.06a.24.24,0,0,0,0,.08.08.08,0,0,1,0,0c-.16.45-.33.88-.51,1.32-.08.2-.16.4-.25.6a3.88,3.88,0,0,1-.22.46,2.18,2.18,0,0,1,0-.25v-.07l0-.08.23-.48h0c-.08.15-.16.3-.23.45l0,.07c0-.14,0-.29,0-.42s0-.38-.07-.56c-.06-.35-.11-.7-.16-1.05s-.09-.68-.12-1l-.09-1.06c0-.34,0-.68,0-1a19.3,19.3,0,0,1,.07-3,12.64,12.64,0,0,1,.5-2.37,22.31,22.31,0,0,1,.9-2.07c.18-.35.4-.68.6-1s.43-.65.64-1,.29-.4.45-.6.44-.57.68-.85.4-.48.6-.71.42-.49.64-.71l.92-.9c.22-.23.47-.43.71-.65l1.48-1.28.89-.72,1-.75c.3-.21.61-.4.91-.6.57-.37,1.14-.75,1.74-1.07l.68-.36.38-.21,1.18-.58,1.84-.89.68-.32h0l.19-.09h0c-.78.18-1.55.41-2.32.64l-1,.3c-.32.1-.66.19-1,.31l-1.31.47a3.68,3.68,0,0,0-.35.15l-.74.34c-.33.15-.64.32-1,.48l-.48.26c-.14.07-.28.16-.41.24-.32.19-.65.37-.94.58s-.74.52-1.09.81l-1,.8-.55.49c-.28.16-.56.32-.85.47h0l-.34.14a3.38,3.38,0,0,1-.84.24,9,9,0,0,1-2.14,0,10.21,10.21,0,0,1-1.65-.31c-.27-.07-.55-.13-.81-.22l-.88-.26-.78-.27-.63-.27-.64-.32-.49-.25c-.2-.1-.41-.2-.61-.32l-.65-.37a4.11,4.11,0,0,1-.39-.24,1.32,1.32,0,0,1-.2-.12c-.36-.21-.7-.46-1-.69-.92-.66-1.82-1.33-2.68-2.07s-1.82-1.57-2.67-2.41c-.34-.33-.65-.69-1-1s-.79-1-1.16-1.47l-.61-.81-.56-.78s0,0,0,0a.79.79,0,0,0-.1-.27l-.18-.23a1.77,1.77,0,0,0-.16-.22l.32,0c1.08.12,2.14.32,3.2.5l.2.11,1.43.68.75.34.92.4c.51.22,1,.42,1.55.63l.49.19,1.06.39.49.18,1.08.36.47.15,1,.3.47.13.15,0,.85.2,1,.22.12,0,.4.06,1.14.19.3.05.16,0,1.09.11.49.05.18,0,1.77.07h1.83l.57,0,.51,0,.17,0,.74-.07.33,0,.36-.05a10.38,10.38,0,0,0,1.54-.35c.24-.08.47-.18.71-.28s.49-.23.73-.36h0c-.23.11-.46.23-.69.33h0a6.56,6.56,0,0,1-1,.34,10.4,10.4,0,0,1-1.08.23l-.62.08-.52,0-.52.05H120l-1.06,0h-.55l-1,0-.43,0-1.62-.12-1.77-.23c-.17,0-.33-.06-.49-.09l-1.14-.21-.47-.09-1-.26-.75-.19-.21-.06-.5-.15-1-.29-.51-.17-1.06-.35-.47-.17-1.27-.46-.77-.3c-.23-.08-.47-.16-.69-.25l-1.54-.61-1.54-.64-.12,0,.68.11.78.13,1,.12c.3,0,.61.06.92.09.58.06,1.16.11,1.75.14s1.1.07,1.65.08l1.93.06,1.76,0,1.62,0H114c1.11,0,2.23,0,3.35.1l1,.06.82.06.83.08c1.2.15,2.4.28,3.6.41l1.71.15c.58.05,1.17.09,1.76.12l2.1.07c.43,0,.85,0,1.28,0h-.06l-.87-.17.43,0,1.12.1a9.08,9.08,0,0,0,1.17,0c.37,0,.75-.05,1.13-.1s.74-.08,1.1-.15,1-.25,1.43-.4l.62-.23.86-.31h0c-.52.08-1,.19-1.54.28s-1,.14-1.44.18-.91.05-1.37.07l-1.49,0h-.15c-.86,0-1.71,0-2.57,0-.48,0-1,0-1.45-.05l-.83-.25h0l-.14-.05h0l-.16,0h0l-.73-.19-.73-.09h0l.37.08-.33-.06c-1.13-.2-2.26-.41-3.39-.58l-1.08-.16-.88-.1c-.61-.06-1.22-.09-1.83-.11-2.38-.11-4.75-.07-7.13-.08h-1.54q-1,0-1.92,0l-1.83-.08-.73,0-.83-.06-1-.1-.86-.11-.8-.12-1.64-.28-1.82-.3-.82-.1a5,5,0,0,0-1.1,0,1.51,1.51,0,0,0-.59.15.86.86,0,0,0-.44.61.41.41,0,0,0,0,.22.73.73,0,0,0,.12.35,1.67,1.67,0,0,0,.18.28l.21.29.24.32a1.37,1.37,0,0,0,.16.18l.16.12c.67.88,1.34,1.77,2.06,2.61.37.44.76.86,1.17,1.27s.8.77,1.22,1.14.9.78,1.36,1.16.91.76,1.39,1.11l1.43,1c.51.35,1,.68,1.53,1l0,0a15.16,15.16,0,0,0,1.36.76l.81.39.51.22.33.15c.3.11.6.23.9.32s.62.18.93.27c.56.14,1.13.25,1.69.36.3.06.61.09.91.12a10.76,10.76,0,0,0,2.19,0,5,5,0,0,0,1-.24,5.75,5.75,0,0,0,1.43-.81,2,2,0,0,1-.21.2c-.23.21-.46.42-.69.65s-.54.51-.78.79c-.51.57-1,1.15-1.51,1.76-.25.33-.5.66-.74,1s-.48.69-.71,1.05a13.93,13.93,0,0,0-1.06,1.88,15.49,15.49,0,0,0-.87,2.26c-.08.33-.17.66-.23,1a11.07,11.07,0,0,0-.15,1.29,19,19,0,0,0,0,2.13c0,.36.08.72.14,1.09s.11.74.18,1.11.14.68.22,1,.18.66.27,1l.33,1c.11.35.18.71.26,1.07l.06.32a.06.06,0,0,1,0,0c.06.42.13.83.18,1.24s.06.53.1.8l-.32.13h0l.32-.09c0,.18,0,.35.07.52h0c0-.18,0-.36,0-.54l1.2-.34a6.25,6.25,0,0,0,1.28-.6,7.09,7.09,0,0,0,1.16-.88,11.76,11.76,0,0,0,1.1-1,12.07,12.07,0,0,0,.91-1.1c.32-.4.66-.78,1-1.19a11.2,11.2,0,0,0,1.56-2.52c.32-.67.59-1.37.86-2.07s.62-1.52.9-2.29a9.61,9.61,0,0,1,.5-1.14c.19-.36.41-.7.62-1s.42-.69.62-1,.42-.72.65-1.06.7-.9,1.08-1.33a11.15,11.15,0,0,1,1.31-1.35,14.76,14.76,0,0,1,3.06-1.83,20.65,20.65,0,0,1,2.28-.82,23.83,23.83,0,0,1,2.53-.59l1.35-.22,1.42-.19c.51-.06,1-.14,1.52-.21l1.52-.21c.51-.07,1-.14,1.53-.23l1.49-.29c.48-.09,1-.2,1.43-.28,1-.18,2-.36,3.06-.58s2-.44,2.95-.74,2-.67,2.94-1l1.48-.55c.49-.2,1-.43,1.46-.64,1-.45,1.92-.91,2.84-1.44a35,35,0,0,0,4.7-3.19l.1-.08c.81-.66,1.6-1.34,2.37-2.06.39-.36.77-.73,1.15-1.1s.74-.71,1.09-1.08a26.89,26.89,0,0,0,2-2.49c.32-.43.62-.88.91-1.33s.59-.91.86-1.37.5-.95.74-1.41.45-.92.65-1.4a27.17,27.17,0,0,0,1.1-3.06c.15-.5.29-1,.4-1.51s.21-1.13.3-1.7a16.42,16.42,0,0,0,.24-3.21c0-.45-.05-.9-.09-1.34.28.24.55.48.85.69l.14.09a4.09,4.09,0,0,0,.8.36,5.29,5.29,0,0,0,1.12.22,7.22,7.22,0,0,0,1.23,0h0a21.32,21.32,0,0,1-2.7-.78l-.2-.07-1.24-.58c-.05-.64-.12-1.27-.2-1.91-.13-1-.27-2-.42-3s-.36-2.15-.5-3.23-.25-2-.39-2.94a16.91,16.91,0,0,0-.35-1.72,12.92,12.92,0,0,0-.45-1.46c-.18-.48-.37-1-.56-1.44s-.28-.69-.44-1c.53.21,1.07.4,1.61.58a13,13,0,0,0,2.21.47,17.75,17.75,0,0,0,2.42.11,17.16,17.16,0,0,0,2.16-.18l1.12-.18.42-.09a3.5,3.5,0,0,0,1-.4h0l-.55,0a5.09,5.09,0,0,1-.55,0l-.43,0-.53-.05-.68-.08-2.06-.26c-.78-.1-1.56-.15-2.35-.19s-1.41-.05-2.11-.08-1.26,0-1.89,0c0,0,0,0,0,0-.21-.48-.41-.95-.61-1.43s-.45-1-.7-1.5-.49-.91-.74-1.35-.49-.87-.77-1.28l-.21-.3.06,0a5.13,5.13,0,0,0,1.29.52c.55.16,1.12.27,1.69.38l.5.07.63.08,1.18.1c.41,0,.83,0,1.25,0s.76,0,1.14,0a15.92,15.92,0,0,0,2.29-.28c.51-.09,1-.19,1.52-.33s1-.32,1.5-.5c1-.37,2.08-.79,3.09-1.23h0l-4.4.79c-.35,0-.69.1-1.05.13l-1.22.11c-.75.06-1.49.08-2.24.12s-1.42.07-2.14.08l-1.15,0c-.4,0-.8,0-1.2,0-.57,0-1.13,0-1.7-.08a5,5,0,0,1-1.2-.27l-.07,0c-.21-.26-.42-.51-.64-.76-.36-.4-.73-.81-1.12-1.2s-.74-.69-1.12-1l-.57-.52h0c.61.13,1.23.23,1.84.33s1.43.2,2.16.29l.93.09c.31,0,.62.07.93.09.67,0,1.34.07,2,.07h1.05l1.15-.09c.26,0,.53-.06.79-.1l.73-.11.3,0,1.1-.25a3.37,3.37,0,0,0,.34-.09l.63-.18c.28-.08.57-.18.84-.28l1-.35c.28-.11.55-.25.83-.38s.63-.31.93-.48h0c-.39.14-.78.27-1.18.37a11.19,11.19,0,0,1-1.14.29l-1.3.24-1.07.18-1.07.12c-.3,0-.61,0-.92.07s-.53,0-.8,0l-1.19,0h-.27l-.74,0-.77,0-1.28,0-.89,0-2.91-.14-1.51-.08-1.15-.07c-.7-.71-1.39-1.42-2.07-2.15-.15-.17-.31-.32-.46-.49.62.22,1.24.41,1.88.58a20.18,20.18,0,0,0,2.19.43,19.25,19.25,0,0,0,2,.19,4,4,0,0,0,.49,0,8.51,8.51,0,0,0,1,0h.11c.36,0,.72,0,1.08,0l.44,0,.84-.11c.43-.05.86-.13,1.29-.2.82-.13,1.63-.28,2.44-.45h0l-1.66,0,.55-.12,2-.38c1.31-.23,2.62-.46,3.91-.75.37-.08.75-.16,1.12-.26s.77-.21,1.16-.3l1.16-.34c.31-.09.62-.2.93-.26h.1l.07.11a5.32,5.32,0,0,1,.16.57c.05.23.11.47.16.7s.13.47.19.71.12.48.18.72c.22.9.43,1.81.59,2.73a10.38,10.38,0,0,1,.2,2.29,11.16,11.16,0,0,1-.35,1.72c-.19.62-.37,1.23-.58,1.84a14.16,14.16,0,0,0-.54,1.79c-.14.64-.21,1.28-.35,1.92s-.28,1.23-.39,1.85a8.83,8.83,0,0,0-.16,1,8.34,8.34,0,0,0,0,1,3.72,3.72,0,0,0,.08.57c0,.18.07.36.11.53.09.32.18.64.27.94s.22.63.33.94.23.65.34,1a4.68,4.68,0,0,1,.21.73c0,.13,0,.25,0,.37a2.86,2.86,0,0,1-.07.28,4.65,4.65,0,0,1-.34.62c-.37.48-.79.92-1.19,1.37A12.5,12.5,0,0,0,184.4,141a9.3,9.3,0,0,0-.88,1.72,5.76,5.76,0,0,0-.3,1,6.07,6.07,0,0,0-.07,1.13,10.73,10.73,0,0,0,.14,1.49c.08.54.15,1.07.18,1.62s.06,1.07.09,1.6,0,1.11,0,1.66a6.83,6.83,0,0,1-.11.79c-.08.32-.17.63-.27.94a5.64,5.64,0,0,1-.41.86l-.15.17-.15.09h-.1l-.08,0a4,4,0,0,1-.71-.38l-.31-.19-.18-.12c-.07,0-.15-.06-.21-.1a2,2,0,0,1-.31-.19l-.32-.2c-.23-.14-.46-.3-.69-.45-.91-.59-1.85-1.14-2.78-1.71h0l.82.66.81.62c.25.21.51.41.77.61l.8.66.33.26.2.16c.07.06.14.15.2.21l.2.17.19.15a4.59,4.59,0,0,0,.44.33,1.28,1.28,0,0,0,.21.14,2,2,0,0,0,.29.15,1.2,1.2,0,0,0,1.24-.25,3,3,0,0,0,.67-.94,7.73,7.73,0,0,0,.66-1.93,8.94,8.94,0,0,0,.12-1c0-.33,0-.65,0-1s0-.62,0-.94,0-.68-.05-1c0-.62-.13-1.24-.21-1.86a7.61,7.61,0,0,1-.07-1.58,4.59,4.59,0,0,1,.1-.51c0-.17.09-.34.14-.52a11.1,11.1,0,0,1,1-2c.35-.48.73-.93,1.12-1.37a9.81,9.81,0,0,0,1.27-1.6,3,3,0,0,0,.3-.73,1.88,1.88,0,0,0,.07-.58,2.54,2.54,0,0,0-.07-.61c-.07-.3-.17-.6-.27-.91l-.33-1c-.1-.31-.23-.62-.3-.94s-.19-.69-.26-1a6.55,6.55,0,0,1-.06-1.25,13.46,13.46,0,0,1,.32-1.68c.13-.63.28-1.27.39-1.9.06-.32.11-.65.17-1s.16-.64.25-1c.18-.59.4-1.16.59-1.75.1-.31.19-.62.28-.94a8.48,8.48,0,0,0,.24-.9,8.06,8.06,0,0,0,.18-1.9,17,17,0,0,0-.28-2c-.11-.63-.26-1.25-.42-1.87-.08-.3-.15-.59-.23-.88s-.19-.64-.28-1-.18-.6-.26-.9-.08-.29-.13-.44a3.55,3.55,0,0,0-.21-.54,1.66,1.66,0,0,0-.44-.58A1.27,1.27,0,0,0,187,112a2.25,2.25,0,0,0-.36-.06h-.35a6.65,6.65,0,0,0-1,.19l-1.95.47c-1.29.32-2.6.56-3.9.78-.67.12-1.34.21-2,.35l-1,.22c-.31.07-.62.14-.92.23-.82.24-1.63.52-2.43.79-.43.15-.86.28-1.3.4l-.31.09c-.38,0-.76,0-1.14-.06l-2.27-.08c-1.53-.06-3.06-.16-4.6-.24-.16-.16-.33-.31-.5-.46a5.68,5.68,0,0,0-.74-.55,6.46,6.46,0,0,0-.71-.44,27.38,27.38,0,0,0-2.82-1.4c-.66-.29-1.33-.53-2-.76l-.07,0c-.52-.4-1.06-.79-1.61-1.15s-1.07-.67-1.62-1-1-.55-1.58-.81l-1.75-.88-.83-.41c-.26-.12-.54-.23-.81-.34-.55-.23-1.12-.46-1.69-.66s-1.15-.35-1.74-.51l-1.07-.26h.1l-.39-.06-.41-.11c-1.18-.33-2.35-.69-3.53-1h0c.5.19,1,.38,1.48.58l.64.26c-.81-.12-1.63-.22-2.44-.32s-1.54-.11-2.3-.14-1.43,0-2.14,0l-2.24.11c-.75,0-1.51.05-2.26.13s-1.51.16-2.26.27-1.67.26-2.5.42l-1.16.26a7.49,7.49,0,0,0-1,.32l-1,.37-1.07.4c-.66.25-1.33.5-2,.74l-2.1.74c-.21.07-.42.16-.62.25a3.17,3.17,0,0,0-.42.19,1.34,1.34,0,0,0-.38.37A.83.83,0,0,0,115.86,110.1Zm-2.93,88.77c0-.22,0-.43,0-.65l.08-.1.12-.19c.08-.12.14-.26.22-.39l.2-.41c.14-.26.26-.53.39-.8l.15-.32c.05-.11.11-.23.16-.35s.22-.52.32-.79l.59-1.65c.12-.34.24-.67.37-1s.23-.61.34-.92c0-.07.05-.15.09-.23s.14-.3.2-.46.22-.51.34-.75l.49-1c.1-.21.21-.42.32-.63l.28-.57.14-.25c.17-.3.34-.59.5-.89l.21-.36.14-.21.6-.93c.19-.24.36-.49.54-.73s.17-.24.26-.35l.14-.19c.25-.3.5-.62.74-.92s.31-.37.47-.55l.5-.57c.07-.08.15-.16.22-.25-.24.66-.49,1.31-.73,2s-.51,1.35-.77,2-.56,1.42-.85,2.12c-.16.37-.3.75-.46,1.12s-.37.84-.55,1.26l-.43,1c-.13.3-.25.59-.39.88s-.41.88-.62,1.33l-.14.28c-.12.25-.25.49-.38.74l-.31.61-.6,1.07c-.12.22-.25.44-.39.65s-.21.35-.32.52-.26.41-.41.61c-.55.78-1.2,1.5-1.82,2.23C112.9,199.49,112.92,199.18,112.93,198.87Zm73.75-85.74Zm-43.76-7.66c.79.27,1.57.53,2.35.81.56.22,1.12.45,1.67.71s1.09.54,1.64.82,1.14.63,1.71,1,1,.58,1.52.88l.61.37-.36-.11-.57-.19a10.14,10.14,0,0,1-1.31-.59c-.44-.25-.88-.5-1.34-.71l-.35-.13-.35-.13-.77-.28c-.48-.16-1-.31-1.43-.49q-.37-.13-.75-.3l-.87-.32c-.52-.18-1.07-.3-1.6-.44s-1.07-.26-1.61-.37l-1.3-.31H140Z"/><path class="cls-1" d="M136.41,113.63c-.33,0-.64-.11-1-.18a9,9,0,0,1-1.13-.31,4,4,0,0,1-.65-.33,7.18,7.18,0,0,1-.94-.89,3.2,3.2,0,0,1-.34-.53l-.09-.27v-.07l0,0,.13-.08.1,0a4.28,4.28,0,0,1,.62,0,6.67,6.67,0,0,1,1.24.26,4.25,4.25,0,0,1,.6.31l.24.23a3.14,3.14,0,0,1,.24.39,1.34,1.34,0,0,1,.09.26.31.31,0,0,1,0,.1.19.19,0,0,0,0,.07.37.37,0,0,1-.05.11l-.06,0a.6.6,0,0,1-.13.09l-.22.06h-.19a2,2,0,0,1-.33-.09,6.77,6.77,0,0,1-.87-.5h0a2.74,2.74,0,0,0,1.29,1,1.12,1.12,0,0,0,.82-.14,1,1,0,0,0,.42-.89,2.5,2.5,0,0,0-.11-.53,2.27,2.27,0,0,0-.25-.55,2.23,2.23,0,0,0-.43-.49,3.63,3.63,0,0,0-.75-.5,6.15,6.15,0,0,0-1.11-.41,4.33,4.33,0,0,0-1.19-.17,1.84,1.84,0,0,0-.73.19,1.88,1.88,0,0,0-.58.46,1.57,1.57,0,0,0-.1,1.62,3.57,3.57,0,0,0,.91,1.2,4.49,4.49,0,0,0,.65.5l.18.12a3.55,3.55,0,0,0,.55.28,4.5,4.5,0,0,0,.74.21,6.48,6.48,0,0,0,.76.06,5.45,5.45,0,0,0,.7,0,5.16,5.16,0,0,0,.79-.06,6.17,6.17,0,0,0,1.47-.41l.34-.16h0l-.11,0h0A6.88,6.88,0,0,1,136.41,113.63Z"/><path class="cls-1" d="M179.6,139.27c-.45-.13-.91-.23-1.37-.35-.22,0-.45-.09-.67-.15l-1-.25h0c.28.16.57.31.86.45s.42.18.62.26a14.13,14.13,0,0,0,1.39.46,10.54,10.54,0,0,0,1.35.22,8.76,8.76,0,0,0,1.53.07h0a11.91,11.91,0,0,1-1.46-.34C180.45,139.51,180,139.4,179.6,139.27Z"/><path class="cls-1" d="M185.21,135.45c-.7-.12-1.4-.25-2.09-.4-.33-.07-.67-.19-1-.28l-1-.31-2-.58-1.07-.29-.63-.16c-.48-.14-1-.31-1.43-.5h0a8.66,8.66,0,0,0,1,.76h0c.22.14.45.25.68.37s.71.33,1.07.48a11.53,11.53,0,0,0,2.06.67c.32.07.66.14,1,.19l.63.08.48.05a16.72,16.72,0,0,0,2.24-.1S185.22,135.45,185.21,135.45Z"/><path class="cls-1" d="M162.49,153.47a1.4,1.4,0,0,0,.72.18l.64,0a1.5,1.5,0,0,0,.8-.24,4.43,4.43,0,0,0,.54-.43,4,4,0,0,0,.5-.51,6.61,6.61,0,0,0,.47-.58,3.08,3.08,0,0,0,.33-.59,5.16,5.16,0,0,0,.23-.66c0-.12.06-.24.08-.35a1.23,1.23,0,0,0,0-.38,11.58,11.58,0,0,0,.19-1.44,14.61,14.61,0,0,0,0-1.48,13.16,13.16,0,0,0-.24-1.55c-.09-.47-.18-.93-.28-1.39s-.22-1-.35-1.47-.27-1-.43-1.48-.3-.93-.47-1.4-.34-.9-.53-1.33-.39-.89-.63-1.32a13.51,13.51,0,0,0-.78-1.24,7.7,7.7,0,0,0-.9-1.08c-.37-.37-.78-.71-1.17-1.06h0l.72.77.17.18.36,1.08a11.51,11.51,0,0,1,.36,1.31,7.55,7.55,0,0,1,.06,1.26c0,.37,0,.73-.07,1.1q-.12,1-.27,2c-.08.64-.19,1.26-.28,1.9s-.17,1.31-.3,2-.27,1.31-.41,2c-.09.37-.17.75-.27,1.12s-.19.6-.3.89l-.21.45a.27.27,0,0,0-.08.07.75.75,0,0,0-.18.28c-.07.14-.14.28-.2.42s-.24.43-.38.63a1.75,1.75,0,0,1-.24.23l-.22.12a2.61,2.61,0,0,0-.27.19,1.37,1.37,0,0,0-.23.25.57.57,0,0,0-.12.23.88.88,0,0,0,0,.23.44.44,0,0,0,.18.24h0a1.15,1.15,0,0,0,.23.1,2.63,2.63,0,0,0,.61.12c.35,0,.7,0,1,0l.31,0h.26l.62.06c.66.09,1.31.2,2,.3h0c-.49-.19-1-.37-1.5-.52l-.7-.19c-.25-.05-.51-.07-.77-.1a3.43,3.43,0,0,0-.55-.06l-.54,0a.4.4,0,0,1-.15,0,1.61,1.61,0,0,0,.43-.17,2,2,0,0,0,.6-.49,7,7,0,0,0,.49-.62,3.28,3.28,0,0,0,.2-.31.76.76,0,0,0,.15-.28.5.5,0,0,0,0-.12,7.31,7.31,0,0,0,.78-1.79c.18-.64.33-1.29.46-1.95a30.87,30.87,0,0,0,.46-4.08c0-.62.08-1.25.1-1.88a14.43,14.43,0,0,0,0-1.86c0-.32-.06-.63-.12-.94a6.41,6.41,0,0,0-.16-.76c-.07-.22-.17-.44-.26-.65s-.3-.6-.45-.89-.2-.38-.31-.56a3.73,3.73,0,0,1,.26.3,9,9,0,0,1,.69,1c.22.39.42.8.62,1.2.08.19.16.38.23.58s.18.48.26.72c.17.51.32,1,.47,1.52.27.93.5,1.87.69,2.81.12.6.23,1.2.34,1.8s.21,1.12.3,1.68c0,.25.05.49.07.74s0,.48,0,.73a12.44,12.44,0,0,1-.07,1.37c0,.16,0,.32-.07.47s0,.08,0,.12a.43.43,0,0,0-.05.12c0,.1,0,.19,0,.28a5.23,5.23,0,0,1-.26,1,6.79,6.79,0,0,1-.74,1.17,4.36,4.36,0,0,1-.62.67,1.38,1.38,0,0,1-.24.14l-.21.07-.22,0-.49.1a1.89,1.89,0,0,1-.41,0l-.23-.07-.33-.13-.36-.1,0,0h0a0,0,0,0,1,0,0h0a0,0,0,0,1,0,0h0l0,0,.12.06h0l.24.1A3,3,0,0,1,162.49,153.47Z"/><path class="cls-1" d="M162.41,151.17h0l.17-.13a1.1,1.1,0,0,0,.21-.22c.06-.07.11-.16.16-.23s.17-.26.25-.39.28-.52.41-.79a13.78,13.78,0,0,0,.73-1.73,5.36,5.36,0,0,0,.21-.88c.06-.33.11-.66.14-1a6.91,6.91,0,0,0,0-.91c0-.33-.05-.65-.09-1a10.59,10.59,0,0,0-.36-1.45h0l0,.76c0,.22,0,.45,0,.67,0,.44-.05.87-.08,1.32,0,.2-.06.4-.1.6s-.1.48-.15.71-.08.43-.14.64-.11.47-.18.71c-.12.43-.28.84-.41,1.27s-.28.87-.44,1.3l-.08.2a2.42,2.42,0,0,1-.18.36l-.14.16Z"/><path class="cls-1" d="M160.05,132.81h0c0-.11,0-.22-.05-.33h0Z"/><path class="cls-1" d="M152,120.31c0,.16.05.32.07.47h0c0-.15-.07-.31-.1-.46Z"/><path class="cls-1" d="M169.8,154.78l-.22.13a0,0,0,0,1,0,0l.21-.15Z"/><path class="cls-1" d="M84.27,92.07l0,0h0A.1.1,0,0,1,84.27,92.07Z"/><path class="cls-1" d="M117.86,92.07h0a.78.78,0,0,0,0,.14.33.33,0,0,1,0,.06H118a.2.2,0,0,1-.09-.09h0Z"/><path class="cls-1" d="M131.18,85.57a3.75,3.75,0,0,1,.79-.23,10,10,0,0,1,1.55-.06c.59,0,1.18,0,1.76.09a30.08,30.08,0,0,1,3.63.67l1.14.27.76.2.81.22,1,.31c.3.09.58.2.88.3l.73.26,1.36.59,1.34.64,1.34.68.74.41c.2.11.4.24.59.37l.18.14h0a7.7,7.7,0,0,0-1.39-1.22c-.51-.36-1-.72-1.53-1.06l-.51-.32c-.34-.21-.68-.41-1-.59s-.54-.3-.82-.43-.56-.25-.85-.36-.61-.25-.92-.36l-1-.33c-.1,0-.2-.06-.3-.09l-.67-.19-.66-.17c-.91-.19-1.81-.38-2.74-.5a16.83,16.83,0,0,0-2.56-.14c-.42,0-.84,0-1.25.08s-.82.09-1.23.17a4.22,4.22,0,0,0-1.19.42,3.92,3.92,0,0,0-.93.84h0l.38-.3A3,3,0,0,1,131.18,85.57Z"/><path class="cls-1" d="M105,112.55H105l-.13,0Z"/><path class="cls-1" d="M133.57,150.36a1.17,1.17,0,0,0-.36-.34,5.48,5.48,0,0,0-.6-.29l-.31-.13a.72.72,0,0,0-.27-.07l-.15,0q-.93-.37-1.86-.78l-1-.49-.92-.46-2-1.09-1-.52c-.31-.17-.63-.33-1-.48l-1-.51a.75.75,0,0,1,0-.15,3.55,3.55,0,0,1,.09-.47,3.6,3.6,0,0,1,.2-.39,5.79,5.79,0,0,1,.48-.51l.3-.2.4-.22a6.59,6.59,0,0,1,.86-.27c.32-.08.64-.14,1-.21.62-.14,1.25-.27,1.87-.39.35,0,.7-.08,1-.1s.76,0,1.14-.08l.31,0,.29,0a.89.89,0,0,0,.44-.23.7.7,0,0,0,.2-.34.78.78,0,0,0,0-.22.75.75,0,0,0-.1-.32,1,1,0,0,0-.38-.38l-.14-.08-.54-.28-.29-.14a1,1,0,0,0-.4-.1c-.64-.31-1.26-.64-1.89-1s-1.31-.75-1.95-1.15-1.21-.79-1.82-1.16-1.39-.8-2.09-1.17-1.34-.68-2-1-1.43-.62-2.16-.88-1.44-.46-2.17-.67l-1.09-.3c-.34-.1-.7-.19-1-.26-.86-.17-1.72-.33-2.59-.43l-.19-.12c-.41-.26-.82-.52-1.24-.77l-1-.63c-.27-.17-.52-.35-.77-.53l-.76-.54-.78-.6c-.26-.19-.5-.4-.75-.59s-.46-.36-.68-.55c-.49-.43-1-.85-1.46-1.3a18,18,0,0,1-1.25-1.37c-.34-.42-.67-.84-1-1.28-.14-.18-.27-.38-.4-.57l.33-.4c.25-.29.5-.59.73-.88a7.28,7.28,0,0,0,.62-.87,4.2,4.2,0,0,0,.4-1,9.66,9.66,0,0,0,.22-1.07c.06-.34.1-.69.13-1s.06-.76.07-1.14a10.11,10.11,0,0,0,0-1.1,18.7,18.7,0,0,0-.41-2.77s0,0,0,0a1,1,0,0,0,0-.45s0-.09,0-.13H103l2,.22,1.27.12,1,.07.14,0a.14.14,0,0,1,0,.06,8.17,8.17,0,0,1,0,1.64c0,.25-.06.51-.11.76s0,.34-.08.51a7,7,0,0,1-.28,1c-.19.49-.41.95-.62,1.43-.14.32-.33.63-.5.94s-.36.59-.53.88l-.51.73a13.78,13.78,0,0,1-.9,1.12c-.17.18-.34.36-.53.54a4.43,4.43,0,0,1-.51.45,10.36,10.36,0,0,1-1.13.73h0a8.87,8.87,0,0,0,1.12-.42,6.4,6.4,0,0,0,.92-.52,9,9,0,0,0,.93-.69,8.63,8.63,0,0,0,.77-.71c.26-.27.52-.54.76-.83l.45-.54c.11-.14.21-.29.32-.45l.38-.53c.09-.14.17-.3.26-.45l.3-.54a9.65,9.65,0,0,0,.65-1.52c.1-.31.15-.63.22-1s.08-.44.11-.66,0-.48.06-.71a9.35,9.35,0,0,0,0-1.06,3,3,0,0,0-.14-.78,1.53,1.53,0,0,0-.21-.37,1.12,1.12,0,0,0-.21-.23l-.25-.18a2.2,2.2,0,0,0-.7-.22l-.53,0-1.14-.1-2.32-.28-.56-.07a2.16,2.16,0,0,0-.84,0,1.24,1.24,0,0,0-.86.6,1.93,1.93,0,0,0,0,1.32,1.4,1.4,0,0,0,.06.28,1,1,0,0,0,.18.33c.25.86.5,1.73.67,2.61a17.77,17.77,0,0,1,.17,1.92c0,.33,0,.64,0,1s0,.68-.05,1a5.07,5.07,0,0,1-.09.54,3.17,3.17,0,0,1-.12.44,9.58,9.58,0,0,1-.7,1.35c-.19.32-.38.65-.55,1q-.28-.42-.54-.84c-.34-.54-.67-1.1-1-1.65s-.52-1-.75-1.51a21.16,21.16,0,0,1-.84-2.35c-.13-.42-.26-.85-.36-1.28s-.15-.69-.22-1-.12-.89-.16-1.33a7.44,7.44,0,0,1,0-1.25,28.82,28.82,0,0,1,.39-2.92c.1-.52.23-1,.36-1.54a12,12,0,0,1,.4-1.29c.16-.39.35-.78.55-1.17s.43-.73.66-1.08a17.18,17.18,0,0,1,1.53-1.77c.32-.33.65-.65,1-1s.51-.47.78-.69l1.1-.65c.58-.35,1.18-.7,1.76-1.07l1.27-.56c.43-.19.89-.36,1.34-.51,1-.35,2-.68,2.91-1.07s1.69-.67,2.54-1,1.75-.62,2.65-.88c.51-.13,1-.26,1.52-.36a9.52,9.52,0,0,1,1.6-.15h.52a9.72,9.72,0,0,0-1.53-.22A9.51,9.51,0,0,0,117,94c-1,.08-1.94.22-2.9.38a29.28,29.28,0,0,0-2.92.65c-.45.13-.9.29-1.36.43s-1,.31-1.48.5A19.17,19.17,0,0,0,106,97.07c-.41.24-.8.47-1.19.72s-.69.48-1,.73c-.6.45-1.18.92-1.77,1.39l-.73.42-.22.12h0l-.43.27h0c-.38.23-.75.47-1.12.71l-.26.25c-.24.24-.46.49-.69.75s-.46.6-.68.9a10.4,10.4,0,0,0-.56.9c-.16.29-.33.59-.46.89a13.65,13.65,0,0,0-.74,2.15c-.18.7-.34,1.4-.46,2.11s-.21,1.38-.29,2.07c0,.4-.07.79-.1,1.19a3.39,3.39,0,0,0,0,.45,5.11,5.11,0,0,0,0,.55,19.71,19.71,0,0,0,.38,2.28c.17.7.38,1.38.59,2.07.11.34.22.68.35,1s.32.77.5,1.14a36.35,36.35,0,0,0,2.05,3.6,24.81,24.81,0,0,0,2.75,3.47,2.5,2.5,0,0,0,.22.24l.23.17,1.18.92c.4.32.8.65,1.19,1,.24.22.48.44.71.68.52.39,1.06.78,1.6,1.15.28.18.55.38.84.55l.53.32h0l-.72.36h0a7.22,7.22,0,0,1,.89-.31l.34.18.59.33-.44.25c-.23.14-.46.27-.69.42a5.09,5.09,0,0,0-1,1,10.74,10.74,0,0,0-1.08,1.52,7.8,7.8,0,0,0-.55,1.3,12,12,0,0,0-.4,1.54,12.87,12.87,0,0,0-.2,3.1,12.6,12.6,0,0,0,.35,2.2l.18.74c0,.12.06.24.1.36s.13.42.21.63a3.82,3.82,0,0,0,.15.48c.13.31.25.63.38.94s.23.51.35.77c.24.51.49,1,.75,1.5s.53,1,.81,1.45l.88,1.55h0c-.12-.38-.23-.76-.37-1.13l-.39-1.08c-.26-.72-.51-1.43-.75-2.15-.12-.35-.23-.69-.34-1s-.2-.73-.31-1.09l-.09-.38c-.06-.25-.11-.49-.18-.74a2.5,2.5,0,0,0,0-.29l-.15-.8a2.5,2.5,0,0,0,0-.29c-.1-.68-.18-1.37-.22-2.05a14.73,14.73,0,0,1,0-2.1,12.37,12.37,0,0,1,.56-2.82c.13-.33.29-.64.45-1a7.89,7.89,0,0,1,.68-1.15,4.23,4.23,0,0,1,.33-.41,4.62,4.62,0,0,1,.5-.49l.4-.36c.11-.11.24-.21.35-.31.35.18.69.36,1,.52.72.34,1.43.68,2.16,1,2.17,1,4.35,1.89,6.56,2.77h0l-3.65-2.32c-1.21-.75-2.42-1.49-3.64-2.22l1.44.4c.53.16,1.06.35,1.58.54l1.74.64h0l.44.17c.35.14.69.27,1,.42l1.1.5c.68.31,1.35.65,2,1s1.32.71,2,1.1,1.3.83,2,1.25,1.35.88,2,1.28c.34.2.68.38,1,.57l.79.42H129a18.07,18.07,0,0,0-1.93.21l-1,.15c-.4.06-.79.09-1.19.17a5.31,5.31,0,0,0-1.23.38c-.15.08-.3.15-.45.24a5.7,5.7,0,0,0-.62.48,3.26,3.26,0,0,0-.31.33c-.1.13-.19.26-.28.4a2.32,2.32,0,0,0-.22.41,2.75,2.75,0,0,0-.21.69c0,.17,0,.35,0,.52a3.2,3.2,0,0,0,0,.53,4.14,4.14,0,0,0,.29,1.19c.11.22.21.43.33.64a4.43,4.43,0,0,0,.64.87,6.3,6.3,0,0,0,.88.83,8.08,8.08,0,0,0,1.17.76c.37.2.75.38,1.13.56a10.35,10.35,0,0,0,1.29.54h0c-.22-.14-.42-.27-.63-.42-.38-.29-.75-.62-1.1-.94a14.75,14.75,0,0,1-1.06-1,9,9,0,0,1-1-1.54,6,6,0,0,1-.32-1c0-.18,0-.35,0-.52l1,.66c.6.39,1.19.79,1.78,1.2s1.19.84,1.8,1.23,1.28.77,1.93,1.13,1.18.61,1.77.89l.14.12a1.41,1.41,0,0,0,.38.21c-.54.2-1.09.36-1.63.54l-2.13.71-2.06.7-.5.17a5.52,5.52,0,0,1-.54.16l-.57.16c-.19.05-.4.08-.59.12-.59.12-1.19.2-1.79.3l-1.07.14c-.38,0-.76.1-1.13.13l-1.17.1c-.16,0-.34,0-.51,0l-.65,0-1.15.06-1.13.11-1.5.17-1.62-.17-.32,0-.7-.08-.86-.16-1.58-.33c-1.08-.22-2.17-.41-3.24-.67-.42-.1-.84-.23-1.26-.36s-.85-.26-1.27-.36L101.7,152a11.85,11.85,0,0,1-1.2-.35c-.53-.21-1-.46-1.57-.66l-.05,0,.47.09a17,17,0,0,0,2.44.25H103l1.22,0a4.53,4.53,0,0,0,.52,0c.29.18.59.35.89.51.51.27,1,.54,1.54.8s.86.43,1.31.61h0A4.21,4.21,0,0,1,108,153h0c-.38-.27-.76-.55-1.12-.84s-.6-.45-.9-.68-.56-.43-.83-.66a6.59,6.59,0,0,1-.73-.67c-.2-.27-.38-.55-.58-.84a9.6,9.6,0,0,1-.65-1.12c-.13-.29-.24-.58-.35-.87s-.13-.36-.19-.54-.15-.49-.23-.73c0-.08,0-.15,0-.23s-.08-.34-.13-.5c-.11-.43-.2-.85-.3-1.27-.06-.25-.11-.49-.16-.73s-.15-.69-.21-1c-.1-.6-.13-1.21-.17-1.82a15.15,15.15,0,0,1,0-2.43,12.42,12.42,0,0,1,.21-1.49,10.23,10.23,0,0,1,.43-1.53c.17-.47.38-.93.58-1.39h0c-.28.37-.57.74-.83,1.12a9.16,9.16,0,0,0-.77,1.45,12.21,12.21,0,0,0-.78,3,18.39,18.39,0,0,0-.11,2,11.27,11.27,0,0,0,.23,2.32,19.66,19.66,0,0,0,.53,2.27c.06.22.13.43.19.65a4.29,4.29,0,0,0,.19.5c.08.2.14.39.23.58l.3.62a6.64,6.64,0,0,0,.59,1,10.62,10.62,0,0,0,.73.9,7.62,7.62,0,0,0,.73.77l.06.05-.1,0q-.76-.24-1.53-.42c-.48-.11-1-.24-1.42-.39l-1.45-.5c-1.25-.48-2.46-1.06-3.69-1.59l-.83-.35h-.2l-.17,0-.28-.07A10.36,10.36,0,0,1,93,147c-.41-.18-.81-.36-1.19-.57l-.19-.11-.62-.28a5.84,5.84,0,0,1-.48-.39,7.13,7.13,0,0,1-1-.72c-.25-.23-.5-.46-.74-.7l-.26-.18c-.28-.19-.54-.4-.81-.62s-.6-.52-.89-.79-.59-.55-.88-.84l0,0c.57.68,1.12,1.36,1.67,2h0c.26.31.51.63.76.95l-.3-.18a6.84,6.84,0,0,1-.82-.71l-.9-.93c-.6-.64-1.24-1.25-1.86-1.86-.31-.3-.62-.6-.93-.88s-.65-.54-1-.83a25.08,25.08,0,0,1-1.88-2l-.26-.33-.39-.58c-.22-.34-.42-.69-.62-1-.37-.64-.73-1.29-1.05-1.95s-.66-1.53-1-2.28-.68-1.55-1-2.34c-.15-.41-.3-.84-.41-1.27s-.22-.82-.3-1.24c-.15-1-.27-2-.4-2.91s-.31-2-.47-3-.32-2.16-.48-3.23c-.07-.52-.14-1-.19-1.55s-.11-1-.13-1.46c0-.22,0-.43,0-.65a3.84,3.84,0,0,1,0-.48q0-.47,0-.93.15-1.47.42-2.91a24.93,24.93,0,0,1,.77-2.85c.22-.6.46-1.19.7-1.78s.58-1.25.88-1.85.63-1.2,1-1.78.7-1.11,1.07-1.64c.22-.3.43-.59.65-.87s.51-.68.8-1c.56-.62,1.14-1.24,1.73-1.83s1.2-1.21,1.84-1.77,1.2-1,1.82-1.56a42.77,42.77,0,0,1,3.69-2.58,33.69,33.69,0,0,1,4.14-2.13c.46-.18.92-.37,1.39-.54s1-.38,1.5-.56,1-.34,1.47-.49,1-.3,1.54-.43c1-.23,2-.45,2.95-.63.48-.09,1-.16,1.49-.24l1.51-.26,1.78-.29c1-.13,2-.22,3-.32s2.06-.18,3.08-.31a26.72,26.72,0,0,0,2.82-.46,17,17,0,0,0,2.7-.86c.47-.19.92-.39,1.37-.61s.91-.49,1.34-.77a11.32,11.32,0,0,0,1.14-.82,5.57,5.57,0,0,0,.58-.51,7.7,7.7,0,0,0,.54-.6,18.52,18.52,0,0,0,1.88-2.45c.25-.39.46-.81.68-1.22l.67-1.23c.11-.21.2-.42.31-.63a5.52,5.52,0,0,0,.31-.8c.07-.18.13-.37.2-.55.2-.53.4-1.06.61-1.59s.42-1.1.66-1.64.47-1.08.74-1.61a17.63,17.63,0,0,1,1-1.59l.75-1,.62-.93a14.37,14.37,0,0,1,2.11-2.3,7.55,7.55,0,0,1,1.27-.8h0l1.13-.48c0,.19,0,.37,0,.56l-1.13,1.05-.58.58c-.21.22-.39.45-.58.68a5.47,5.47,0,0,0-.41.54c-.22.3-.46.6-.66.92s-.5.78-.74,1.17l-.2.34-.42.74c-.07.12-.14.24-.2.37s-.16.31-.23.47l-.38.75c-.06.11-.11.23-.17.35-.18.42-.36.84-.55,1.26l-.36.91c-.14.33-.27.67-.4,1-.27.74-.55,1.49-.79,2.25-.14.43-.28.87-.41,1.3s-.23.77-.33,1.16c-.21.69-.4,1.38-.58,2.07,0,.18-.09.36-.14.54h0l-.49.54c-.15.17-.31.33-.47.5a7.84,7.84,0,0,1-.63.54c-.31.24-.61.48-.93.7s-.76.51-1.15.75h0c.31-.14.62-.29.92-.45l.38-.2.41-.22a12.43,12.43,0,0,0,1.2-.79c.38-.3.74-.63,1.1-.95.18-.17.37-.33.54-.51l.8-.78c.05,0,.09-.11.14-.15s.27-.3.4-.46.26-.28.39-.43a1,1,0,0,0,.13-.15c.24-.29.47-.59.7-.89a3,3,0,0,0,.22-.28,4,4,0,0,1,.22-.34l.55-.81a.2.2,0,0,0,0-.08l.12-.21.32-.56c.07-.13.14-.26.22-.39a1.86,1.86,0,0,1,.1-.2c.16-.35.33-.7.5-1s.21-.47.31-.7.22-.48.31-.72.28-.71.41-1.07.18-.56.27-.84c.16-.53.32-1.07.46-1.6s.23-.85.34-1.28c0-.16.09-.33.15-.5s.14-.42.2-.63v0a.17.17,0,0,0,0,0l0-.08s0,0,0,0c.16-.45.32-.89.5-1.33.08-.2.16-.4.25-.6a3.17,3.17,0,0,1,.23-.45,2.08,2.08,0,0,0,0,.25v.07l0,.08c-.07.16-.15.31-.23.47h0c.08-.14.16-.29.23-.44s0-.05,0-.07c0,.14,0,.28,0,.42s0,.37.06.56c.06.35.11.69.17,1s.08.69.11,1l.09,1.06c0,.34,0,.67,0,1a22.16,22.16,0,0,1-.07,3,14.69,14.69,0,0,1-.5,2.37,22.21,22.21,0,0,1-.91,2.06c-.18.35-.39.69-.6,1s-.42.65-.64,1-.29.41-.44.6-.45.58-.68.86l-.61.71c-.21.24-.42.48-.65.71l-.91.9c-.22.22-.47.43-.71.64-.49.44-1,.86-1.47,1.29l-.9.72-1,.75c-.3.21-.61.4-.91.6-.57.37-1.14.74-1.73,1.06l-.69.37-.38.2-1.19.58-1.83.9-.67.31h0l-.19.08h0c.78-.18,1.55-.41,2.32-.63.33-.1.66-.21,1-.3l1-.31,1.31-.48a2.07,2.07,0,0,0,.34-.15l.74-.34c.33-.14.65-.31,1-.48l.48-.25.42-.25a9,9,0,0,0,.93-.58c.37-.26.74-.52,1.09-.8s.66-.53,1-.81l.55-.49c.28-.16.56-.32.86-.46h0l.33-.15a4,4,0,0,1,.84-.23,8.52,8.52,0,0,1,2.14,0,11.41,11.41,0,0,1,1.65.3l.82.22.87.26.78.27.63.28.64.31.49.25.61.32.65.37.39.24.2.12c.36.22.7.46,1,.7.92.66,1.82,1.33,2.69,2.06s1.81,1.57,2.66,2.42c.34.33.65.69,1,1s.78,1,1.16,1.46l.6.82.57.77a.09.09,0,0,0,0,0,1.17,1.17,0,0,0,.1.26l.18.24a1.66,1.66,0,0,0,.16.21l-.32,0c-1.07-.11-2.14-.31-3.2-.5l-.2-.1c-.48-.24-1-.46-1.43-.68l-.75-.35-.92-.39c-.51-.22-1-.43-1.55-.63l-.49-.19-1.06-.4-.49-.17L142,91.09l-.47-.15-1-.3-.46-.13-.16,0-.86-.2L138,90l-.12,0-.4-.07-1.14-.18-.3,0-.16,0-1.09-.12-.48,0-.19,0-1.76-.08h-1.84l-.57,0-.5,0h-.17l-.74.08-.34,0-.36.05a10.38,10.38,0,0,0-1.54.35c-.24.08-.47.18-.71.28s-.49.24-.72.36h0l.69-.34h0a9.43,9.43,0,0,1,1-.35,10.58,10.58,0,0,1,1.09-.23l.61-.08.53,0,.51-.05h.17l1.07,0h.23l.31,0h1l.42,0,1.63.12,1.78.23.48.09,1.14.21.47.1,1,.26c.25.06.5.13.75.18l.21.07.5.15,1,.29.52.17,1.05.35.47.17c.42.15.84.31,1.27.45.26.11.52.2.78.3l.68.26c.51.2,1,.39,1.54.6l1.54.64.13,0-.69-.11c-.25,0-.51-.09-.77-.12l-.95-.13-.92-.09c-.58-.06-1.17-.1-1.75-.14l-1.66-.08-1.92,0-1.77,0-1.61,0-2,0c-1.12,0-2.23,0-3.34-.1l-1-.05-.82-.06-.82-.09c-1.2-.15-2.41-.28-3.61-.4l-1.7-.16c-.59,0-1.18-.09-1.76-.11s-1.4-.06-2.11-.07l-1.28,0h.06c.3,0,.59.1.88.17l-.44,0-1.11-.1a11.42,11.42,0,0,0-1.17,0c-.38,0-.76,0-1.14.09a10.41,10.41,0,0,0-1.1.16c-.48.11-1,.24-1.43.39l-.61.23c-.29.11-.58.22-.87.31v0l1.54-.29c.47-.08,1-.13,1.45-.18s.91-.05,1.36-.06l1.48,0h.16c.85,0,1.71,0,2.57,0,.48,0,1,0,1.45.06l.84.24h0l.15,0h0l.16,0h0l.73.2.73.09h0l-.37-.08.34.07c1.13.2,2.26.41,3.39.58l1.07.15c.29.05.59.07.88.1.61.07,1.23.09,1.84.12,2.37.1,4.74.07,7.12.08h1.54l1.93,0,1.83.08.73,0,.82.06,1,.09.86.11.8.13,1.64.27c.61.11,1.21.21,1.82.3.27,0,.54.08.82.11a5.07,5.07,0,0,0,1.1,0,1.53,1.53,0,0,0,.59-.16.83.83,0,0,0,.44-.6.41.41,0,0,0,0-.22.77.77,0,0,0-.12-.36,1.67,1.67,0,0,0-.18-.28l-.21-.28-.24-.32a.74.74,0,0,0-.16-.19l-.16-.11c-.67-.89-1.33-1.77-2.06-2.62-.37-.43-.76-.86-1.16-1.27s-.81-.77-1.23-1.14L148,87.36c-.46-.37-.91-.75-1.4-1.1s-.94-.71-1.43-1.05-1-.68-1.53-1l-.05,0a15.05,15.05,0,0,0-1.36-.75q-.41-.21-.81-.39l-.5-.22c-.12,0-.23-.11-.35-.15-.29-.11-.59-.23-.89-.33l-.93-.26c-.56-.15-1.12-.25-1.69-.36a7.09,7.09,0,0,0-.91-.12,11.06,11.06,0,0,0-1.15,0c-.35,0-.7,0-1,.08a4.45,4.45,0,0,0-1,.24,5.75,5.75,0,0,0-1.43.8,1.8,1.8,0,0,0,.2-.19c.25-.21.47-.43.7-.65s.54-.51.79-.79c.5-.58,1-1.15,1.5-1.76.26-.33.5-.66.74-1s.48-.7.71-1a13,13,0,0,0,1.06-1.89,14,14,0,0,0,.87-2.25c.09-.33.17-.66.23-1a10.9,10.9,0,0,0,.15-1.28,15.15,15.15,0,0,0,0-2.13c0-.37-.08-.73-.14-1.09s-.11-.75-.18-1.12-.14-.68-.22-1-.17-.67-.27-1l-.33-1a9.6,9.6,0,0,1-.25-1.06c0-.11,0-.22-.07-.33a.06.06,0,0,1,0,0l-.18-1.24c0-.26-.06-.53-.1-.8l.32-.12h0l-.32.09-.06-.51h0a0,0,0,0,0,0,0c0,.19,0,.37,0,.55l-1.19.34a6.22,6.22,0,0,0-1.28.6,7.63,7.63,0,0,0-1.16.87c-.38.33-.76.66-1.1,1s-.61.73-.91,1.1-.66.79-1,1.19a14.55,14.55,0,0,0-.92,1.3c-.24.4-.44.81-.64,1.22-.32.68-.59,1.38-.86,2.07s-.62,1.53-.9,2.3a8.77,8.77,0,0,1-.5,1.14c-.19.35-.41.69-.62,1s-.42.69-.62,1-.42.72-.65,1.07-.7.9-1.07,1.33A15.2,15.2,0,0,1,121.88,79a15.33,15.33,0,0,1-3.07,1.82,20,20,0,0,1-2.28.83,23.8,23.8,0,0,1-2.53.58l-1.35.22-1.42.2-1.52.2-1.51.22c-.52.07-1,.14-1.54.23s-1,.18-1.5.29l-1.41.28c-1,.17-2,.35-3.07.57s-2,.44-3,.75-2,.67-2.94,1l-1.48.55c-.5.19-1,.42-1.46.64-1,.44-1.92.91-2.84,1.43a36.38,36.38,0,0,0-4.7,3.2l-.1.08c-.81.66-1.6,1.34-2.36,2-.4.36-.78.73-1.15,1.1S80,96,79.6,96.36a26.76,26.76,0,0,0-2,2.48c-.32.43-.62.89-.91,1.34s-.59.9-.86,1.37-.49.94-.74,1.41-.45.92-.65,1.39a29.52,29.52,0,0,0-1.11,3.07c-.14.5-.28,1-.39,1.51s-.21,1.13-.3,1.69a16.52,16.52,0,0,0-.24,3.22c0,.45,0,.89.1,1.34a9.28,9.28,0,0,0-.86-.69.67.67,0,0,0-.14-.09,3.61,3.61,0,0,0-.8-.37,4.83,4.83,0,0,0-1.11-.21,6.42,6.42,0,0,0-1.24,0h0a21.28,21.28,0,0,1,2.7.77l.2.08,1.25.58c0,.63.11,1.27.19,1.9.13,1,.27,2,.43,3s.35,2.15.49,3.22.25,2,.39,3a16.91,16.91,0,0,0,.35,1.72,12.16,12.16,0,0,0,.45,1.45c.18.49.37,1,.56,1.45s.29.68.44,1c-.53-.21-1.07-.41-1.61-.58a12.78,12.78,0,0,0-2.21-.47,15.09,15.09,0,0,0-2.42-.11,19.64,19.64,0,0,0-2.16.17c-.37.05-.74.12-1.11.19-.15,0-.29.06-.43.09a3.5,3.5,0,0,0-1,.4h0l.55,0c.18,0,.36,0,.53,0l.45,0,.52.06.68.07c.69.1,1.38.18,2.07.26s1.56.16,2.34.2,1.41.05,2.12.08,1.25,0,1.88,0c0,0,0,0,0,0,.21.47.41.95.61,1.42s.45,1,.71,1.51.48.9.73,1.34.5.88.77,1.29l.21.29-.06,0a5.81,5.81,0,0,0-1.29-.52c-.55-.16-1.12-.26-1.69-.37l-.5-.07a6.17,6.17,0,0,0-.62-.08l-1.18-.1c-.42,0-.84,0-1.26,0s-.76,0-1.14,0a19.88,19.88,0,0,0-2.29.28c-.51.09-1,.19-1.52.33s-1,.32-1.51.5c-1,.37-2.07.79-3.08,1.24h0c1.46-.28,2.93-.53,4.4-.79l1-.14,1.23-.1c.74-.06,1.48-.09,2.22-.13s1.43-.07,2.15-.08l1.15,0,1.2,0c.57,0,1.13,0,1.69.09a5.64,5.64,0,0,1,1.22.26l.07,0q.3.39.63.75c.37.41.73.81,1.12,1.21s.74.69,1.12,1l.57.52h0c-.61-.14-1.23-.23-1.84-.33s-1.44-.2-2.16-.29l-.93-.1-.92-.08c-.68,0-1.35-.08-2-.07h-1l-1.15.08-.79.1-.73.12-.3.05-1.1.24-.34.1-.63.18q-.44.12-.84.27c-.34.11-.66.23-1,.36s-.55.24-.82.37-.63.32-.94.49h0c.38-.14.78-.27,1.17-.38s.76-.21,1.14-.29l1.3-.24c.36-.07.71-.12,1.07-.17l1.07-.13c.3,0,.61,0,.92-.06l.8-.05,1.19,0h1l.78,0,1.28,0c.3,0,.6,0,.89,0l2.92.14,1.5.07,1.15.08c.71.7,1.39,1.42,2.07,2.15l.46.48c-.62-.21-1.25-.41-1.87-.58a21.11,21.11,0,0,0-2.19-.42,20,20,0,0,0-2-.2l-.49,0a6.84,6.84,0,0,0-1,0h-.11L77,144l-.43.05-.85.11-1.29.2c-.81.14-1.63.29-2.44.45h0c.55,0,1.11,0,1.66.05l-.54.12c-.67.13-1.34.27-2,.39-1.31.22-2.62.45-3.91.74-.37.08-.75.16-1.12.26l-1.16.31c-.38.1-.77.21-1.15.33a8.3,8.3,0,0,1-.94.27h-.1l-.06-.12a4,4,0,0,1-.17-.56c0-.24-.11-.47-.16-.7s-.12-.48-.19-.71l-.18-.72c-.22-.91-.43-1.82-.59-2.74a9.76,9.76,0,0,1-.19-2.29,10,10,0,0,1,.34-1.71c.19-.62.37-1.24.59-1.85a13.65,13.65,0,0,0,.53-1.79c.14-.63.22-1.28.35-1.91s.28-1.23.4-1.85c.06-.35.12-.69.15-1a8.34,8.34,0,0,0,0-1,3.85,3.85,0,0,0-.08-.58c0-.17-.07-.35-.11-.53s-.17-.63-.27-.94-.22-.62-.33-.94-.23-.64-.34-1a5,5,0,0,1-.21-.73,1.54,1.54,0,0,1,0-.37.89.89,0,0,1,.07-.28,2.87,2.87,0,0,1,.34-.62A17.33,17.33,0,0,1,63.8,121,13.25,13.25,0,0,0,65,119.43a9.3,9.3,0,0,0,.88-1.72,5.76,5.76,0,0,0,.3-1,6.07,6.07,0,0,0,.07-1.13,9.39,9.39,0,0,0-.14-1.49q-.12-.81-.18-1.62c0-.54,0-1.08-.08-1.61a15.33,15.33,0,0,1,0-1.66,5.05,5.05,0,0,1,.11-.78,9.26,9.26,0,0,1,.26-.94,4.56,4.56,0,0,1,.42-.86,1.15,1.15,0,0,1,.14-.17l.16-.09h.1l.08,0a4.28,4.28,0,0,1,.7.38,3.28,3.28,0,0,1,.31.2l.19.11a1.86,1.86,0,0,0,.2.1l.32.19.31.2.69.46c.92.59,1.85,1.14,2.78,1.71h0l-.82-.66-.81-.62-.76-.61-.81-.66-.32-.26-.21-.16a2,2,0,0,1-.2-.21l-.2-.17-.18-.15-.44-.33-.22-.14-.28-.15a1.2,1.2,0,0,0-1.25.26,2.88,2.88,0,0,0-.67.94,7.66,7.66,0,0,0-.66,1.92,9.11,9.11,0,0,0-.11,1,7.94,7.94,0,0,0,0,1c0,.31,0,.63,0,.94s0,.68,0,1c0,.63.13,1.24.22,1.86a8.43,8.43,0,0,1,.06,1.59,4.54,4.54,0,0,1-.09.51c0,.17-.1.34-.16.5a10.29,10.29,0,0,1-1,2c-.34.47-.73.92-1.12,1.36a10.2,10.2,0,0,0-1.26,1.6,3.64,3.64,0,0,0-.31.73,2.3,2.3,0,0,0-.07.58,2.48,2.48,0,0,0,.07.61c.07.31.18.61.27.92s.23.64.34,1,.22.63.3.94.18.7.26,1a8.72,8.72,0,0,1,.06,1.25c-.07.57-.2,1.12-.32,1.68s-.29,1.26-.4,1.9c-.06.32-.11.64-.17,1s-.16.64-.25,1c-.17.6-.39,1.17-.59,1.75l-.28.94c-.09.3-.17.6-.23.9a7.69,7.69,0,0,0-.18,1.91,15,15,0,0,0,.27,2c.12.63.26,1.25.42,1.87l.23.89c.09.32.18.64.28,1l.27.89c0,.15.07.3.12.44a3.6,3.6,0,0,0,.22.54,1.38,1.38,0,0,0,.43.58,1.45,1.45,0,0,0,.35.18,1.42,1.42,0,0,0,.36.05h.35a5.4,5.4,0,0,0,1-.18l2-.47c1.29-.33,2.6-.56,3.91-.78.67-.12,1.34-.22,2-.36l1-.22c.3-.07.61-.13.91-.22.82-.24,1.63-.52,2.43-.8.44-.14.87-.28,1.3-.4L78,145l1.14.05,2.27.09c1.53,0,3.07.15,4.6.23l.5.47c.23.2.49.37.74.55s.46.3.71.44c.91.52,1.86,1,2.82,1.4.66.29,1.33.53,2,.76l.07.05c.52.4,1.06.79,1.61,1.15s1.07.67,1.62,1,1,.55,1.57.81l1.76.89.83.4c.27.13.54.23.81.35.56.23,1.12.45,1.69.65s1.15.36,1.74.51l1.07.27h-.09l.38.07.42.1c1.17.33,2.34.71,3.53,1h0l-1.48-.57c-.21-.1-.43-.18-.64-.26l2.45.31c.76.09,1.53.12,2.3.14s1.42,0,2.13,0l2.24-.11c.76,0,1.51-.05,2.26-.12s1.51-.17,2.26-.28,1.67-.26,2.49-.42c.39-.07.78-.16,1.17-.25a10,10,0,0,0,1.06-.33l1-.36,1.07-.4c.67-.26,1.34-.51,2-.74s1.41-.49,2.1-.75l.63-.24.4-.2a1.23,1.23,0,0,0,.39-.36A.87.87,0,0,0,133.57,150.36ZM136.5,61.6c0,.21,0,.43,0,.65l-.07.1-.13.18c-.08.13-.14.27-.22.41s-.13.26-.2.39l-.39.8-.15.33a3.68,3.68,0,0,0-.15.35c-.11.26-.24.52-.33.79-.2.54-.39,1.09-.59,1.65-.12.33-.24.67-.37,1s-.22.62-.34.92a1.57,1.57,0,0,1-.09.23c-.07.16-.14.31-.2.46s-.21.51-.34.76-.33.68-.49,1-.21.42-.32.63l-.29.56-.12.26c-.17.29-.35.59-.51.88l-.21.36a1.53,1.53,0,0,1-.14.21l-.6.94-.54.73-.25.35c0,.07-.1.12-.15.18-.24.31-.49.62-.74.92s-.32.38-.47.56l-.49.56-.23.25.73-2,.77-2c.28-.71.56-1.41.85-2.12.16-.37.3-.74.47-1.11l.54-1.26c.14-.34.29-.67.44-1s.25-.59.38-.87c.21-.45.41-.89.62-1.33a2.44,2.44,0,0,1,.14-.28l.38-.74c.1-.21.2-.41.31-.61q.31-.54.6-1.08c.12-.22.26-.43.39-.64s.21-.36.32-.53.26-.4.41-.6c.56-.79,1.2-1.5,1.83-2.23C136.53,61,136.51,61.28,136.5,61.6ZM62.75,147.33ZM106.51,155l-2.35-.81c-.56-.22-1.11-.45-1.66-.71l-1.65-.83c-.58-.29-1.14-.63-1.71-1l-1.52-.87-.61-.37.37.11.56.19a9.05,9.05,0,0,1,1.31.59c.44.24.88.49,1.34.7a2.67,2.67,0,0,0,.36.14l.34.13.77.27,1.44.49.74.3c.28.12.58.21.87.32.52.18,1.07.31,1.61.44s1.06.26,1.6.38l1.3.3h-.22Z"/><path class="cls-1" d="M113,146.84a7.89,7.89,0,0,1,1,.17c.38.09.76.19,1.13.31a3.36,3.36,0,0,1,.65.34,6.53,6.53,0,0,1,.94.88,3.67,3.67,0,0,1,.34.53,2.29,2.29,0,0,1,.09.28.13.13,0,0,0,0,.06l0,0a.57.57,0,0,1-.13.08l-.1,0a4.16,4.16,0,0,1-.61,0,9,9,0,0,1-1.25-.26,3.37,3.37,0,0,1-.59-.32,1.71,1.71,0,0,1-.25-.22,3.26,3.26,0,0,1-.24-.4l-.09-.26a.27.27,0,0,1,0-.09.24.24,0,0,1,0-.08.19.19,0,0,1,0-.1l0-.06.13-.08a.9.9,0,0,1,.22-.06h.19a2.07,2.07,0,0,1,.33.1,5,5,0,0,1,.87.5h0a2.83,2.83,0,0,0-1.29-1,1.17,1.17,0,0,0-.82.14,1,1,0,0,0-.42.89,2.47,2.47,0,0,0,.11.54,2.2,2.2,0,0,0,.25.54,2.58,2.58,0,0,0,.43.5,3.84,3.84,0,0,0,.76.5,5.5,5.5,0,0,0,1.09.4,4.52,4.52,0,0,0,1.2.17,1.68,1.68,0,0,0,.73-.19,1.88,1.88,0,0,0,.59-.46,1.59,1.59,0,0,0,.09-1.62,3.78,3.78,0,0,0-.91-1.2,6.57,6.57,0,0,0-.65-.5,1.08,1.08,0,0,0-.18-.11,2.77,2.77,0,0,0-.54-.28,3.35,3.35,0,0,0-.75-.21,6.34,6.34,0,0,0-.75-.07h-.71a5.74,5.74,0,0,0-2.26.48l-.33.15h0l.11,0h0A6.93,6.93,0,0,1,113,146.84Z"/><path class="cls-1" d="M69.83,121.19c.45.13.91.24,1.38.35l.66.16,1,.25h0l-.87-.45-.62-.26a11.26,11.26,0,0,0-1.39-.45,8.86,8.86,0,0,0-1.35-.23,7.84,7.84,0,0,0-1.53-.06h0a14.57,14.57,0,0,1,1.45.35C69,121,69.4,121.06,69.83,121.19Z"/><path class="cls-1" d="M64.22,125c.7.12,1.4.25,2.09.4.34.08.67.19,1,.29s.67.2,1,.3l2,.58,1.06.29L72,127c.48.14,1,.31,1.43.49h0a8.74,8.74,0,0,0-1-.77h0c-.22-.13-.45-.25-.68-.36s-.71-.34-1.07-.49a13.28,13.28,0,0,0-2.05-.67c-.33-.07-.66-.14-1-.18l-.63-.08a3.91,3.91,0,0,0-.48,0,18.56,18.56,0,0,0-2.24.09Z"/><path class="cls-1" d="M87,107a1.33,1.33,0,0,0-.73-.19l-.64,0a1.61,1.61,0,0,0-.8.23,4.43,4.43,0,0,0-.54.43c-.18.16-.34.34-.5.51s-.32.38-.47.58a4.36,4.36,0,0,0-.33.6,4.67,4.67,0,0,0-.23.66c0,.12-.06.23-.08.35a1.2,1.2,0,0,0,0,.38,8.6,8.6,0,0,0-.19,1.44,10.45,10.45,0,0,0,0,1.48,11.59,11.59,0,0,0,.23,1.55c.08.46.19.93.28,1.39s.22,1,.35,1.47.28,1,.43,1.48.3.93.47,1.39.34.9.54,1.34a12.08,12.08,0,0,0,.62,1.31,12.28,12.28,0,0,0,.78,1.24,9.3,9.3,0,0,0,.9,1.09c.37.37.78.71,1.17,1h0l-.73-.77-.15-.17c-.13-.36-.25-.72-.37-1.09a11.31,11.31,0,0,1-.35-1.3,7.73,7.73,0,0,1-.07-1.27c0-.36,0-.73.08-1.1.08-.65.17-1.3.25-2s.2-1.26.29-1.89.17-1.31.3-2,.27-1.31.42-2c.08-.38.16-.76.26-1.13a9.37,9.37,0,0,1,.31-.89,3.55,3.55,0,0,1,.21-.44l.07-.07a.88.88,0,0,0,.18-.29l.21-.41a5.07,5.07,0,0,1,.37-.64l.24-.22.22-.13a2.53,2.53,0,0,0,.27-.18,1.2,1.2,0,0,0,.24-.26.65.65,0,0,0,.11-.22.49.49,0,0,0,0-.24.46.46,0,0,0-.18-.23h0a.92.92,0,0,0-.23-.09,3.32,3.32,0,0,0-.61-.13c-.35,0-.7,0-1,0h-.57a6,6,0,0,1-.61-.06l-2-.29h0c.49.19,1,.36,1.51.52l.69.18a6.8,6.8,0,0,0,.77.11,5,5,0,0,0,.56.06l.54,0,.14,0a1.94,1.94,0,0,0-.42.17,2.23,2.23,0,0,0-.61.49,7.57,7.57,0,0,0-.49.63c-.07.1-.14.2-.2.3a.8.8,0,0,0-.15.29.52.52,0,0,0,0,.11,7.38,7.38,0,0,0-.78,1.8c-.18.64-.33,1.29-.46,1.94a29.28,29.28,0,0,0-.46,4.08q-.07.94-.09,1.89a16.5,16.5,0,0,0,0,1.86c0,.31.07.62.12.94a6.27,6.27,0,0,0,.17.75,3.67,3.67,0,0,0,.26.65c.13.31.29.61.44.9s.2.38.31.56l-.26-.3c-.24-.34-.48-.69-.69-1.06s-.42-.79-.61-1.19c-.08-.2-.17-.39-.24-.59s-.18-.47-.26-.71c-.16-.51-.32-1-.47-1.53-.27-.92-.49-1.86-.69-2.81-.12-.59-.22-1.19-.34-1.79s-.21-1.12-.3-1.69c0-.24,0-.48-.07-.73s0-.49,0-.73a12.45,12.45,0,0,1,.06-1.37c0-.16,0-.32.07-.48l0-.11a.84.84,0,0,0,0-.12c0-.1,0-.2,0-.29a4.52,4.52,0,0,1,.25-1,7.36,7.36,0,0,1,.74-1.16,5.58,5.58,0,0,1,.61-.67,1,1,0,0,1,.25-.14l.2-.07.22,0a4.42,4.42,0,0,1,.5-.1,2,2,0,0,1,.42,0,.81.81,0,0,1,.22.07c.11,0,.22.09.33.12s.24.07.36.11l0,0h0a0,0,0,0,0,0,0v0h0s0,0,0,0h0l0,0-.12,0h0l-.25-.11A1.69,1.69,0,0,1,87,107Z"/><path class="cls-1" d="M87,109.3h0l-.17.12a1.55,1.55,0,0,0-.21.23c-.06.07-.1.16-.16.23a4.11,4.11,0,0,0-.24.39,8.56,8.56,0,0,0-.42.79,13.65,13.65,0,0,0-.73,1.72,5.48,5.48,0,0,0-.21.89c-.06.32-.11.65-.14,1s0,.6,0,.91.05.65.1,1a9,9,0,0,0,.35,1.45h0c0-.25,0-.5,0-.75s0-.45,0-.67c0-.44,0-.88.08-1.32,0-.2.07-.4.1-.61s.1-.47.15-.71.09-.43.14-.64.12-.47.19-.71c.11-.42.27-.84.4-1.26s.28-.88.44-1.31c0-.06,0-.13.08-.2a2.31,2.31,0,0,1,.18-.35,1.83,1.83,0,0,0,.13-.16Z"/><path class="cls-1" d="M89.39,127.66h0c0,.11,0,.22.05.33h0C89.44,127.89,89.41,127.77,89.39,127.66Z"/><path class="cls-1" d="M97.41,140.15c0-.15,0-.31-.08-.47,0,0,0,0,0,0,0,.15.07.3.1.45Z"/><path class="cls-1" d="M79.64,105.68l.21-.12a0,0,0,0,0,0,0l-.21.14Z"/></g></svg>