<svg xmlns="http://www.w3.org/2000/svg" viewBox="0 0 153.51 163.32"><defs><style>.cls-1{fill:#fff;}</style></defs><title>2413150</title><g id="OBJECTS"><path class="cls-1" d="M123.9,39.54a4.35,4.35,0,0,1,.76,4.33L113.1,74.51a4.33,4.33,0,0,1-4.52,2.77,4.08,4.08,0,0,1-1.06-.23,4.35,4.35,0,0,1-2.54-5.6l5.67-15.07L58.42,98.88l17,22.26a4.34,4.34,0,0,1-.8,6.07,4.27,4.27,0,0,1-2.65.9,3.7,3.7,0,0,1-.47,0,4.31,4.31,0,0,1-3-1.67L51.69,104.36,31.74,120.59a4.23,4.23,0,0,1-3.19.93,4.41,4.41,0,0,1-2.9-1.56,4.35,4.35,0,0,1,.63-6.1l20.13-16.4-16.12-21a4.34,4.34,0,0,1,6.89-5.28L53.14,92,105,49.84l-15.69,3.1a4.33,4.33,0,1,1-1.7-8.49l32.18-6.36A4.28,4.28,0,0,1,123.9,39.54Z"/></g></svg>