<svg xmlns="http://www.w3.org/2000/svg" viewBox="0 0 251.17 251.17"><defs><style>.cls-1{fill:#fefefe;}</style></defs><title>2445646</title><g id="OBJECTS"><polygon class="cls-1" points="112.55 66.21 112.55 66.21 112.55 66.21 112.55 66.21"/><polygon class="cls-1" points="112.54 66.2 112.55 66.21 112.55 66.21 112.54 66.2"/><path class="cls-1" d="M95.36,155.39a1.71,1.71,0,0,0-.11-.14l0-.06Z"/><path class="cls-1" d="M131.61,124.14a0,0,0,0,1,0,0h0Z"/><path class="cls-1" d="M81.31,128.08h-.08Z"/><path class="cls-1" d="M66.32,123.93a1.07,1.07,0,0,0,.4.26l.13.06.27.09c.29.11.58.2.88.29l.5.15.27.07a1.06,1.06,0,0,0,.5,0l.88.27,1.06.3c.71.2,1.44.4,2.16.58.37.09.73.21,1.1.32l1.13.31c.76.21,1.53.38,2.29.59.57.15,1.13.31,1.7.45s1.12.27,1.69.37l.74.14.94.18,1.2.25h0c-.8-.42-1.62-.78-2.46-1.12s-1.55-.66-2.32-1-1.4-.65-2.12-1L75,124.67l-.16-.06c.54.11,1.09.2,1.63.26s1.17.09,1.76.12L78,125h-.06a2.92,2.92,0,0,0,.39.07l.38.06.8.13c.56.1,1.13.15,1.7.21s1.15.06,1.73.1l.84.06.37,0h.2a.55.55,0,0,0,.18,0l.2-.06,1.43,0,1,0c.92,0,1.83,0,2.74,0h.53v.25c0,.89.07,1.79.08,2.69s0,1.73,0,2.59v.4c0,.23,0,.46-.07.69-.13,1.62-.23,3.23-.25,4.86s-.06,3.22-.1,4.83c0,.53,0,1.05,0,1.57s.11,1.28.19,1.91l0-.18a11.89,11.89,0,0,0,.29,1.56,11.1,11.1,0,0,0,.57,1.55c0,.12.1.24.15.37a1.33,1.33,0,0,0,.43.53c.19.43.38.87.6,1.29.13.26.27.52.41.77s.29.56.45.83c.3.52.63,1,1,1.51s.76,1.09,1.16,1.62,1,1.3,1.48,1.94.94,1.15,1.4,1.74c.25.31.47.64.72.95l.78,1c.43.54.87,1.08,1.29,1.63s.87,1.2,1.28,1.82.87,1.35,1.28,2.05c.85,1.43,1.71,2.87,2.52,4.33a36.5,36.5,0,0,1,1.9,3.87c.37,1,.7,1.93,1,2.92a20.64,20.64,0,0,1,.63,3c.09.9.12,1.81.15,2.71,0,.49,0,1,0,1.47s0,.83-.09,1.25a9.74,9.74,0,0,1-.41,1.61,4.64,4.64,0,0,1-.49.83,17.77,17.77,0,0,1-1.46,1.42h0c.42-.18.84-.35,1.25-.55a3.86,3.86,0,0,0,.83-.49,3.28,3.28,0,0,0,.48-.43,7,7,0,0,0,1.3-2.26,12.43,12.43,0,0,0,.63-2.34c.15-.78.28-1.57.37-2.37.41-.37.82-.75,1.21-1.16.23-.23.46-.47.68-.72s.43-.52.63-.79c.4-.51.79-1,1.18-1.57s.75-1,1.11-1.51c.19-.26.39-.52.57-.79l.48-.8,1.13-1.74c.17-.29.36-.57.54-.84s.38-.54.58-.8.26-.4.39-.6.26-.39.38-.59c.25-.39.49-.8.76-1.19s.54-.79.82-1.18l.87-1.15c.37-.45.75-.9,1.12-1.36s.85-1,1.27-1.57l2.76-3.49c.83-1,1.69-2,2.58-3s1.8-2.06,2.69-3.1l2.7-3.17c.87-1,1.78-2,2.67-3.07s1.79-2,2.69-3l1.3-1.43,1.41-1.54c.9-1,1.81-2,2.72-2.95.45-.51.91-1,1.37-1.51l.7-.74c.23-.24.44-.49.67-.73.47-.49,1-1,1.43-1.46s1-1,1.41-1.5.88-1,1.31-1.5.85-1,1.26-1.52c.25-.3.49-.62.73-.93.5-.62,1-1.23,1.52-1.84l.74-.88.56-.66c.36.23.74.44,1.12.64l.91.45.46.21a1.72,1.72,0,0,0,.57.18h0a.05.05,0,0,1,0,0c-.24-.23-.45-.48-.67-.71s-.47-.47-.71-.69-.66-.58-1-.87c.1-.11.19-.23.28-.35.25-.32.47-.65.69-1s.43-.71.65-1.07l.22-.34h.33l.69.91h0c.26.33.52.66.81,1a8.53,8.53,0,0,0,.87.83,17.8,17.8,0,0,0,2.11,1.54,2.75,2.75,0,0,0,.76.43h0l0,0-.21-.34a1.42,1.42,0,0,0-.25-.34,13.1,13.1,0,0,0-1.14-1.44,10.66,10.66,0,0,0-1.43-1.26l-.32-.24.1.07a13.22,13.22,0,0,0-1.69-1.1l.54,0,1,0c.34,0,.67,0,1,0h.94q.47,0,.93-.06l1-.07,1.23-.1H169c.57,0,1.13-.09,1.7-.16a9.52,9.52,0,0,0,1.64,1.89,9,9,0,0,0,1.21.84c.41.26.82.5,1.24.73h0a10.72,10.72,0,0,0-1.87-2.16,11.3,11.3,0,0,0-1.18-.88c-.23-.16-.47-.31-.72-.46l1.2-.16c.49-.08,1-.15,1.46-.25.24,0,.48-.1.72-.16l.35-.1a3.6,3.6,0,0,1,.44-.12h0a2.11,2.11,0,0,0-.35,0h-.16l-.51,0c-.36,0-.71,0-1.06-.07s-.7,0-1.06-.06-.7,0-1.05,0h-2.19c-.38,0-.75,0-1.12,0l-.59,0c.29-.27.58-.54.86-.82a9,9,0,0,0,1.11-1.28,8.48,8.48,0,0,0,.79-1.41,4,4,0,0,1,.32-.69,1.44,1.44,0,0,0,.13-.31c.05-.14.09-.28.13-.42h0a2.43,2.43,0,0,0-.73.5,9.38,9.38,0,0,0-1.95,2,8.9,8.9,0,0,0-.66,1.26,4.31,4.31,0,0,0-.3,1.16l-.27,0-.34,0c-.3,0-.6,0-.9.06l-1.16.11-1.09.13c-.37,0-.73.1-1.09.15l-.45.06c-.62-.45-1.23-.9-1.83-1.37l-.47-.43c-.17-.15-.33-.32-.49-.48l-.11-.1c.23-.41.45-.83.65-1.25a1,1,0,0,0,.19-.23c0-.12.09-.23.13-.35l.24-.62a.77.77,0,0,1,.07-.16h0a5.44,5.44,0,0,0-.67.37l-.29.18a1.3,1.3,0,0,0-.3.32,9.24,9.24,0,0,0-.87.9l-1.61-1.61c-.63-.63-1.26-1.28-1.88-1.93s-1.17-1.24-1.76-1.86-1.13-1.23-1.68-1.86l-1.67-1.85c-.57-.64-1.17-1.26-1.77-1.87l-.83-.8-.87-.83-1.94-1.78-1-.92c-.32-.29-.63-.6-.94-.9-.57-.57-1.11-1.19-1.65-1.79l-1.77-2c-.53-.6-1.08-1.18-1.62-1.78s-1.15-1.34-1.72-2-1.06-1.3-1.58-2l-1.57-1.94c-.52-.64-1-1.29-1.52-1.93l-1.67-2.09c-.52-.66-1-1.32-1.56-2s-1-1.31-1.58-2c-.67-.83-1.38-1.62-2.06-2.44s-1.31-1.58-1.92-2.4c-.42-.57-.84-1.13-1.28-1.68s-.87-1.1-1.31-1.64-.83-1-1.26-1.48l-.72-.81c-.21-.24-.44-.48-.65-.71l-.08-.14a1.32,1.32,0,0,0-.18-.22l-.28-.34-.57-.67c-.2-.24-.41-.46-.6-.7l-.56-.69a12.51,12.51,0,0,0-1-1.2c-.33-.36-.72-.68-1-1h0a7.34,7.34,0,0,0,.51.73h0c.27.38.53.77.77,1.16l.34.61c.11.21.24.41.36.62.24.41.52.79.77,1.2l.39.6a3.28,3.28,0,0,0,.2.31,2,2,0,0,0,.27.31l.55.74,1.09,1.46c.43.59.86,1.19,1.3,1.77s1,1.33,1.49,2q1.48,2,3.11,3.92c.55.64,1.09,1.28,1.61,1.95s1,1.3,1.56,2c1,1.33,2.07,2.67,3.12,4,.49.63,1,1.27,1.46,1.89s1.13,1.41,1.69,2.13,1,1.31,1.55,2l.84,1c.27.34.55.66.84,1,.52.61,1.06,1.2,1.58,1.8s1.18,1.34,1.77,2,1.06,1.17,1.62,1.73,1.31,1.24,2,1.85,1.19,1.09,1.77,1.64,1.25,1.17,1.86,1.77c1.19,1.2,2.32,2.49,3.45,3.76.54.62,1.1,1.24,1.69,1.82s1.22,1.19,1.84,1.76c1.2,1.08,2.44,2.09,3.72,3.07a6.76,6.76,0,0,0-.46.72,14.06,14.06,0,0,0-.7,1.4c-.2.43-.42.85-.64,1.27l-.29,0-.19,0c-1,0-2,.07-3,.13-1.82.1-3.64.23-5.46.36-.76.06-1.52.12-2.29.16s-1.49.08-2.24.13l-2.28.14c-.82,0-1.63.08-2.45.15h.15c-.87.06-1.74.13-2.61.18l-2.8.21q-1.32.08-2.64.12c-.88,0-1.74.09-2.62.11-1.91.06-3.82.14-5.74.18s-3.58,0-5.36,0l-1.42,0-1.23,0-.9,0-1.64,0-2.71.06c-.92,0-1.85,0-2.78.06s-1.73,0-2.59,0-1.77,0-2.65.06l-2.69.07c-.85,0-1.7.08-2.55.1h-1l0-4.17c0-1.75,0-3.5,0-5.24,0-.55,0-1.1-.09-1.64s-.12-1.12-.19-1.68c0-.34-.07-.69-.1-1s0-.72,0-1.07c0-.74,0-1.48.07-2.21,0-1.4.11-2.81.3-4.2a8,8,0,0,1,.34-1.28c.16-.43.3-.86.46-1.27s.26-.51.41-.75.43-.78.66-1.16c.39-.65.84-1.27,1.27-1.89s1.06-1.41,1.58-2.12,1-1.37,1.5-2,1.06-1.46,1.56-2.2c.26-.38.51-.78.77-1.16s.47-.69.69-1c.46-.73.93-1.47,1.36-2.22s.88-1.46,1.34-2.17.9-1.43,1.33-2.15.92-1.44,1.33-2.19a20.94,20.94,0,0,0,1.3-2.7c.31-.8.54-1.63.81-2.45a21.18,21.18,0,0,0,.65-2.49,10.08,10.08,0,0,0,.2-1.75,10.51,10.51,0,0,0-.09-1.37,13.07,13.07,0,0,0-.53-2.76c-.27-.79-.57-1.58-.84-2.37a9.17,9.17,0,0,0-1.19-2.67,1,1,0,0,0-.92-.49,1.21,1.21,0,0,0-.86.75,4.54,4.54,0,0,0-.19.81c0,.27-.11.53-.16.8h0c.17-.38.35-.76.51-1.14a2.48,2.48,0,0,1,.18-.31,1.37,1.37,0,0,1,.17-.17l.19-.1.12,0h.08a.43.43,0,0,1,.09.1l0,.07a6,6,0,0,1,.26,1.19,5.91,5.91,0,0,1,0,.84c0,.29,0,.58,0,.88s0,.57,0,.85,0,.67,0,1a10.87,10.87,0,0,1-.07,1.71c-.08.66-.14,1.31-.23,2-.08.48-.21.94-.34,1.42s-.29,1-.46,1.51c-.31.93-.63,1.87-1,2.77-.35.73-.75,1.44-1.17,2.13-.22.36-.47.7-.71,1.06l-.7,1q-.7,1.07-1.47,2.1c-.51.68-1,1.39-1.45,2.1s-1,1.41-1.46,2.1c-.25.36-.52.71-.78,1.06s-.52.73-.79,1.1c-.53.72-1.06,1.45-1.61,2.16s-1,1.37-1.44,2.08-.78,1.14-1.13,1.74S92.3,94.4,92,95a12.64,12.64,0,0,0-.86,2.21c-.07.29-.17.58-.23.87s-.07.29-.1.43a5.4,5.4,0,0,0-.09.58c-.07.34-.12.68-.17,1s-.15.93-.19,1.4,0,.81,0,1.21c0,.86,0,1.73,0,2.59s0,1.61,0,2.42,0,1.67,0,2.5c0,.41,0,.82.08,1.22s.08.87.1,1.31c0,.87,0,1.74,0,2.61,0,1.72-.08,3.44-.12,5.16l-.06,2.65c0,.18,0,.35,0,.53l-1,0c-.87,0-1.75.12-2.61.21h-.09c-1.33,0-2.65,0-4-.12-.81,0-1.61-.13-2.42-.22a23.54,23.54,0,0,0-2.37-.14c-.79,0-1.59,0-2.38-.11l-1.77-.2c.79-.17,1.57-.4,2.35-.64l1.13-.35c.35-.11.71-.2,1.08-.29a37.88,37.88,0,0,0,3.72-1.13h0l-1.48.13q-1,.09-1.92.12l-1,0c-.37,0-.74.07-1.1.12-1.43.17-2.85.38-4.28.52-.39,0-.79,0-1.19.11s-.74.11-1.12.15-.76.07-1.14.12-.73.11-1.1.16a5.42,5.42,0,0,0-1.26.32s0,0-.06,0a.89.89,0,0,0-.3.28.79.79,0,0,0-.15.42A.84.84,0,0,0,66.32,123.93Zm94.14-1.29h0c-.34.42-.7.82-1.08,1.21l-.1-.09a11,11,0,0,0-3.33-1.71l.61-.08c.88-.13,1.75-.31,2.61-.51l.44-.11h.31a2.3,2.3,0,0,0,.26,0h.34l.91,0Zm-3.84-2a9.64,9.64,0,0,0,1-1.12q.28-.36.54-.75h0l.58.41a6,6,0,0,0,.54.33,10.56,10.56,0,0,0,1.06.54l1.06.47-.62.07-.5.07a1.9,1.9,0,0,0-.25,0,1.63,1.63,0,0,1-.3.07c-.72.08-1.44.23-2.16.34-.28,0-.57.08-.86.12s-.53.1-.81.13l-.3,0A6,6,0,0,0,156.62,120.63ZM95,125.52l2.54-.13,2.61-.11c1.79-.07,3.58-.11,5.37-.16s3.59-.16,5.39-.21,3.59,0,5.39-.1c.92,0,1.84,0,2.76-.06s1.85,0,2.77-.08,1.74-.09,2.61-.12l2.89-.13c.65,0,1.29-.08,1.94-.12s1.54-.09,2.31-.15l2.54-.22,1.08-.09h0c.87-.06,1.73-.13,2.6-.21l1.89-.13,2.09-.16c1.34-.09,2.69-.16,4-.26h0c3.29-.26,6.58-.56,9.85-1a23,23,0,0,0,2.61,2.32l.32.23-.07.08c-.24.22-.49.45-.72.68-1,.95-1.91,1.9-2.81,2.91-.44.5-.9,1-1.36,1.46l-1.35,1.41c-.44.47-.9.93-1.36,1.38s-1,.93-1.45,1.41-1,1-1.51,1.54-.91.94-1.37,1.41l-1.43,1.45c-.46.47-.9,1-1.35,1.44-.95,1-1.88,2-2.82,3s-1.84,2-2.74,3.06-1.78,2-2.66,3l-1.3,1.53c-.46.54-.91,1.08-1.37,1.61l-1.34,1.56c-.42.49-.85,1-1.28,1.47-.9,1-1.79,2-2.63,3.08-.69.87-1.37,1.75-2,2.63s-1.21,1.57-1.82,2.35c-.42.52-.85,1-1.25,1.56s-.86,1.11-1.26,1.69-.72,1-1,1.59c-.18.28-.34.56-.51.85l-.49.77c-.18.29-.37.57-.56.85s-.37.56-.55.85c-.35.57-.69,1.16-1,1.75-.15.28-.31.55-.45.83s-.29.55-.46.82c-.33.56-.68,1.11-1,1.66-.2.32-.4.63-.59.95s-.38.62-.58.93-.44.68-.67,1-.44.58-.67.87-.37.45-.56.67a14.88,14.88,0,0,0-.48-4.83,30.19,30.19,0,0,0-1.83-4.85c-.68-1.48-1.47-2.91-2.25-4.34s-1.56-2.92-2.43-4.32c-.66-1-1.38-2-2.12-3-.51-.7-1-1.39-1.56-2.08s-.81-1.12-1.24-1.67L99,154.13l-1.17-1.48c-.39-.49-.78-1-1.16-1.48s-.78-1.14-1.14-1.74c-.22-.36-.46-.71-.66-1.07l-.35-.65a1.35,1.35,0,0,0-.05-.29,3.11,3.11,0,0,0-.3-.67l-.3-.52c-.15-.29-.28-.58-.41-.88a11.42,11.42,0,0,1-.59-2.37c-.1-1-.12-2-.12-3,.21-1.5.39-3,.52-4.52.16-1.76.24-3.54.23-5.31,0-.89,0-1.78-.06-2.67,0-.44-.05-.88-.07-1.32a5.42,5.42,0,0,1,0-.57C93.91,125.56,94.47,125.55,95,125.52Z"/><path class="cls-1" d="M162.59,122.31s0,0,0,0h0Z"/><path class="cls-1" d="M162.53,122.25l0,0h0Z"/><path class="cls-1" d="M169.29,124.39l0,0,0,0Z"/><path class="cls-1" d="M170.43,124.44a13.13,13.13,0,0,0-1.1-1.14,11.39,11.39,0,0,0-1.23-1,9.57,9.57,0,0,0-1.48-.79h0c.4.53.82,1,1.26,1.54.2.22.4.44.62.65a6.33,6.33,0,0,0,.75.62c.33.25.66.48,1,.71a4.46,4.46,0,0,0,1.08.62h0c-.14-.21-.26-.43-.4-.64S170.6,124.64,170.43,124.44Z"/><path class="cls-1" d="M161.78,120a12.41,12.41,0,0,0,1.46-1.34,13.76,13.76,0,0,0,1.32-1.72l.17-.24a11.09,11.09,0,0,0,.65-1l0,0a4.56,4.56,0,0,0,.33-.56h0a7.81,7.81,0,0,0-1.27.77,6,6,0,0,0-1.2,1.11,8.53,8.53,0,0,0-1.44,2.91Z"/><path class="cls-1" d="M171.43,119.81a12.9,12.9,0,0,0,1.73-1.81,7.75,7.75,0,0,0,.74-1.12,11.17,11.17,0,0,1,.64-1.24h0a3.67,3.67,0,0,0-1.14.78,7.18,7.18,0,0,0-.89.94,6,6,0,0,0-1.09,2.45h0Z"/><path class="cls-1" d="M158.32,124.44l0,0-.08-.06Z"/></g></svg>