<svg xmlns="http://www.w3.org/2000/svg" viewBox="0 0 251.17 251.17"><defs><style>.cls-1{fill:#fefefe;}</style></defs><title>2445646</title><g id="OBJECTS"><path class="cls-1" d="M118.3,182.72c0-.26.07-.52.09-.79,0-.43.06-.87.07-1.31a9.22,9.22,0,0,0-.1-1.29,14.23,14.23,0,0,0-.27-1.45c-.09-.41-.21-.82-.33-1.22-.23-.84-.47-1.68-.71-2.52a20.38,20.38,0,0,0-.78-2.52c-.24-.57-.5-1.14-.75-1.71a21,21,0,0,1-.84-2.46c-.24-.87-.4-1.76-.58-2.64s-.36-1.69-.58-2.52c-.12-.45-.24-.9-.38-1.35s-.26-.8-.38-1.21c-.29-1-.58-2-.85-3h0c.08.73.16,1.46.23,2.19s.18,1.37.29,2.06c0,0,0-.06,0-.09.27,1.78.45,3.56.67,5.35.06.47.13.94.21,1.4a11.36,11.36,0,0,0,.31,1.28,10,10,0,0,0,.39,1.21c.16.43.35.85.52,1.27s.26.6.37.91.24.66.34,1c.19.64.38,1.29.58,1.93l.63,2a17.26,17.26,0,0,1,.48,1.88,9,9,0,0,1,.13,1.16,12.83,12.83,0,0,1,0,1.39c0,.25-.06.5-.1.74l-.12.69a5,5,0,0,1-.17.55,6.11,6.11,0,0,1-.38.77c-.16.27-.34.53-.52.8l-.1.12a2.39,2.39,0,0,1,0,.6,2,2,0,0,1,0,.35s0,0,0-.05c.14-.3.28-.61.44-.89a7.34,7.34,0,0,1,.51-.6,2.32,2.32,0,0,1,1.38-.63l.12-.36A7.87,7.87,0,0,0,118.3,182.72Z"/><polygon class="cls-1" points="137.49 126.31 137.49 126.31 137.49 126.31 137.49 126.31"/><path class="cls-1" d="M137.93,125.18l0,.08s0,0,0,0Z"/><path class="cls-1" d="M176.15,108l0,0h0Z"/><path class="cls-1" d="M185,97.67c.81-.39,1.62-.81,2.4-1.25.45-.25.88-.5,1.31-.76s.68-.42,1-.65l.63-.47A8.34,8.34,0,0,0,191,94c.33-.28.65-.58,1-.88L192,93c-.13.55-.24,1.1-.36,1.64-.15.75-.31,1.51-.51,2.25l-.07.25c-1,1.38-2,2.77-2.88,4.19l-1.29,1.93-.72,1.09c-.12.17-.22.34-.33.5l-.36.5-.62.75a6.92,6.92,0,0,1-.61.6c-.47.44-1,.84-1.47,1.24l.06,0a24.59,24.59,0,0,0-2,1.73h0c.8-.46,1.61-.91,2.42-1.36.38-.22.75-.43,1.11-.67s.74-.53,1.1-.81a3.59,3.59,0,0,0,.4-.38,6.26,6.26,0,0,0,.5-.53c.34-.42.65-.85,1-1.29s.45-.69.65-1,.49-.87.72-1.32c.85-1.61,1.58-3.3,2.28-5-.07.27-.15.55-.24.81s-.23.68-.35,1c-.33.8-.65,1.6-1.06,2.37h0a14.38,14.38,0,0,0,.9-1.16,11.94,11.94,0,0,0,.71-1c.25-.42.5-.84.73-1.27s.38-.75.54-1.15.37-.93.53-1.41.26-.89.38-1.34c.23-.85.47-1.69.72-2.54.05-.17.1-.34.16-.5a3.45,3.45,0,0,0,.16-.52.68.68,0,0,0-.19-.68,1,1,0,0,0-.16-.12.68.68,0,0,0-.54-.06.84.84,0,0,0-.35.21l-.22.24c-.08.08-.15.17-.22.25l-.14.16a.12.12,0,0,1,0,0,.92.92,0,0,0-.2.36.49.49,0,0,1,0,.11l-.63.7c-.25.27-.49.54-.75.8s-.59.59-.9.88-.56.49-.84.74l-1.57,1.18c-.53.4-1.09.77-1.63,1.14-1.15.8-2.31,1.58-3.39,2.46h0C183.24,98.52,184.1,98.1,185,97.67Z"/><path class="cls-1" d="M107.94,69c.18.44.39.86.61,1.28A4.05,4.05,0,0,0,109,71a4.31,4.31,0,0,0,.37.37,3.71,3.71,0,0,0,.55.43,5.69,5.69,0,0,0,.52.33h0a12.6,12.6,0,0,1-.91-.88l0,0-.18-.23a3.79,3.79,0,0,1-.35-.62,19.93,19.93,0,0,1-.69-2.15c-.17-.64-.29-1.29-.41-1.94-.06-.43-.12-.86-.16-1.3a11.68,11.68,0,0,1,0-1.87,8.35,8.35,0,0,1,.5-1.84c.25-.62.53-1.23.83-1.83.18-.33.35-.67.52-1s.39-.7.59-1,.56-.86.86-1.27A18.17,18.17,0,0,1,114.12,53a27.43,27.43,0,0,1,2.64-1.75l.84-.49c0,.06,0,.11-.07.17a14.87,14.87,0,0,0-.67,2c-.1.4-.17.79-.24,1.2-.05.24-.09.49-.13.74s-.07.58-.1.87,0,.42-.06.63,0,.5,0,.75,0,.48,0,.73,0,.38,0,.57c0,.36.08.72.14,1.07s.15.81.24,1.21.2.79.31,1.18h0c0-.66-.07-1.33-.07-2s.05-1.3.1-2c0-.33.09-.66.16-1s.16-.76.25-1.14c.25-1,.53-1.89.87-2.81a15.23,15.23,0,0,1,1.73-3.17,13.08,13.08,0,0,1,.89-1.08l.59-.36.7-.46a1.6,1.6,0,0,0,.29,0,1.26,1.26,0,0,0,.45-.26c.13-.11.28-.22.41-.34l.11-.12a2.24,2.24,0,0,0,.27-.34.75.75,0,0,0,.16-.35,1,1,0,0,0,0-.58,1.24,1.24,0,0,0-.29-.46.51.51,0,0,0-.19-.16,1,1,0,0,0-.52-.12,3.35,3.35,0,0,0-.44.07,2.66,2.66,0,0,0-.58.3l-.32.21a8.52,8.52,0,0,0-1.32,1.06,10.29,10.29,0,0,0-.84.91,2.9,2.9,0,0,0-.29.19c-.82.51-1.64,1-2.47,1.5l-1.34.83-.69.43a16.43,16.43,0,0,0-1.73,1.28,17.67,17.67,0,0,0-3,3.15,16.5,16.5,0,0,0-1.82,3,19.34,19.34,0,0,0-1.45,4,6.71,6.71,0,0,0-.09,1.9c0,.28.06.57.11.84s.1.51.14.77.11.46.17.69A20.05,20.05,0,0,0,107.94,69Z"/><path class="cls-1" d="M114.14,64.65c-.46.26-.9.58-1.34.86h0c.51-.18,1-.39,1.52-.55l1.48-.44c1-.27,2-.55,3-.9s2.12-.82,3.16-1.29,1.86-.9,2.78-1.38l1.27-.7c.39-.23.77-.49,1.14-.74s.64-.45,1-.69.9-.69,1.35-1a19.61,19.61,0,0,0,1.85-1.68c.41-.44.81-.89,1.19-1.36a1.46,1.46,0,0,0-.05.2c-.14.47-.31.93-.48,1.38-.26.61-.52,1.22-.82,1.8l-.53,1c-.18.34-.39.68-.58,1-.37.63-.77,1.25-1.16,1.86s-.73,1.08-1.11,1.61c-1.23,1.63-2.48,3.23-3.81,4.77-.66.78-1.37,1.54-2.09,2.27-.33.34-.66.68-1,1s-.7.62-1.07.91-.8.63-1.22.9a8.76,8.76,0,0,1-1.34.74l-.39.14-.29-.07c-.86-.2-1.73-.38-2.6-.5-.47-.07-1-.09-1.42-.12s-.88-.05-1.31,0a29,29,0,0,0-3,.19,0,0,0,0,1,0,0l-.12-.39a1.19,1.19,0,0,0-.17-.36l0,0a.23.23,0,0,0-.12,0c-.05,0-.07,0-.1.09a.19.19,0,0,0,0,.07,1.46,1.46,0,0,0,0,.2c0,.08,0,.16,0,.24,0,.32-.09.64-.14,1h0c.11-.41.2-.83.34-1.23h0a.08.08,0,0,0,0,0,1.62,1.62,0,0,1,0,.19c.12.78.12,1.56.19,2.34,0,.4.08.79.13,1.19s.14.77.22,1.15a3.13,3.13,0,0,0,.1.44c.06.2.11.41.18.61.11.35.23.7.37,1a18.5,18.5,0,0,0,1,2.08c.13.25.28.49.43.73s.33.52.51.76.36.46.56.68.2.21.3.31l.11.1c-.11.17-.23.36-.33.55a3.38,3.38,0,0,0-.2,1.94,11.7,11.7,0,0,0,.31,1.67c.13.5.26,1,.43,1.48s.4,1.11.64,1.65a25.55,25.55,0,0,0,1.5,2.71A29.29,29.29,0,0,0,116,97.54a26,26,0,0,0,2.17,2.52,11.46,11.46,0,0,0,2.41,2c.88.52,1.8,1,2.71,1.47l1.89,1h0l-2.79-2.33c-.47-.39-.94-.79-1.38-1.21-.22-.23-.44-.45-.65-.69s-.33-.38-.49-.57a44.92,44.92,0,0,1-2.78-4.29c-.81-1.45-1.61-2.92-2.3-4.44-.25-.63-.49-1.27-.7-1.92a14.52,14.52,0,0,1-.49-1.86,4.52,4.52,0,0,1-.06-.74v0c.07-.15.15-.29.22-.43l.29-.62.3-.65a2.74,2.74,0,0,0,.23-.53,2.09,2.09,0,0,0,0-.36c.33-.71.67-1.4,1-2.09s.78-1.44,1.15-2.17.79-1.52,1.2-2.26.79-1.49,1.18-2.24h.21l-.18,0a0,0,0,0,1,0,0h0c-.46-.14-.94-.28-1.41-.4a6.82,6.82,0,0,0,1.32-.44c.44-.2.88-.4,1.31-.63s.89-.51,1.32-.79.81-.6,1.2-.91a15.66,15.66,0,0,0,1.25-1c.39-.37.79-.73,1.16-1.12s.72-.77,1.07-1.15a35.45,35.45,0,0,0,3.94-5.27c.54-.89,1.06-1.81,1.55-2.73a27.82,27.82,0,0,0,1.33-2.82c.28-.7.55-1.4.77-2.14a13.88,13.88,0,0,0,.39-1.81,3.47,3.47,0,0,0,0-1,4.63,4.63,0,0,0-.07-.52,2.76,2.76,0,0,0-.08-.27.87.87,0,0,0-.22-.35.66.66,0,0,0-.24-.2,1,1,0,0,0-.8-.06,2.41,2.41,0,0,0-1,.84,3.11,3.11,0,0,1-.29.33,1.46,1.46,0,0,0-.33.56c-.43.48-.87.94-1.31,1.4a15.94,15.94,0,0,1-1.56,1.39c-.79.62-1.59,1.23-2.39,1.84s-1.65,1.14-2.5,1.67-1.91,1.2-2.88,1.78-1.82,1-2.75,1.55c-.36.19-.74.37-1.1.55l-1.48.73C115,64.19,114.56,64.42,114.14,64.65Zm3.29,12.65c-.59.76-1.13,1.55-1.69,2.33l.07-.09-1.39,1.89L113.29,83l-.13.09a1.12,1.12,0,0,0-.37.38c0,.07-.09.13-.13.19s-.26.39-.4.58-.23.35-.34.52a5.54,5.54,0,0,1-.3-.53c-.14-.27-.26-.54-.38-.82-.28-.68-.56-1.36-.83-2,0-.13-.1-.26-.14-.39s-.14-.36-.2-.54c-.12-.34-.25-.68-.36-1s-.24-.75-.37-1.13c0-.16-.09-.33-.14-.49s-.13-.44-.19-.66a2.88,2.88,0,0,1-.11-.42c-.05-.2-.09-.4-.15-.6s-.16-.71-.24-1.07-.11-.52-.18-.78l-.12-.46c1,.21,1.91.42,2.86.58s1.73.3,2.6.39a53,53,0,0,0,5.49.26C118.57,75.8,118,76.56,117.43,77.3Z"/><polygon class="cls-1" points="107.76 73.31 107.76 73.31 107.76 73.31 107.76 73.31"/><path class="cls-1" d="M165.91,133.06l-2.35-.16c-.79-.08-1.57-.17-2.35-.28a12.71,12.71,0,0,1-2.56-.74c-.94-.4-1.84-.89-2.74-1.37s-1.73-.92-2.62-1.35l-2.83-1.38c-.91-.46-1.8-1-2.67-1.49-1.33-.8-2.65-1.61-3.91-2.51-.69-.51-1.36-1-2-1.58-.33-.26-.65-.54-1-.79s-.86-.59-1.3-.87h0c.38.38.77.76,1.12,1.17s.66.79,1,1.17c.66.76,1.31,1.52,2,2.24s1.43,1.42,2.18,2.09,1.53,1.4,2.35,2a50.82,50.82,0,0,0,5.32,3.56c.9.52,1.81,1,2.73,1.52a18.14,18.14,0,0,0,3.16,1.23,13.57,13.57,0,0,0,2.91.38,11.28,11.28,0,0,0,1.3,0c1.08,0,2.16-.11,3.24-.22q3.28-.33,6.55-.82c1.86-.29,3.72-.59,5.57-.93h0c-2.31-.16-4.61-.36-6.92-.49Z"/><path class="cls-1" d="M96.89,124.83a15.63,15.63,0,0,0,2.85.71c1.05.17,2.11.22,3.16.29a13.5,13.5,0,0,0,3-.12,13.68,13.68,0,0,0,1.41-.32,12.51,12.51,0,0,1,1.49-.38h0l.25,0h0a11.12,11.12,0,0,0-1.61-.3c-.47-.06-.93-.13-1.39-.23a25.14,25.14,0,0,1-2.82-.8c-.92-.3-1.87-.55-2.82-.8s-1.91-.58-2.86-.89-1.62-.55-2.43-.82-1.55-.53-2.33-.82a22.33,22.33,0,0,1-4.3-2c-.49-.39-.95-.8-1.41-1.22h0a14.69,14.69,0,0,0,.76,1.41,8.09,8.09,0,0,0,1,1.2,21.25,21.25,0,0,0,2.29,2A22.3,22.3,0,0,0,96.89,124.83Z"/><path class="cls-1" d="M93.66,134.58a16.2,16.2,0,0,0,3.25.38,20.83,20.83,0,0,0,3.06-.12,21.82,21.82,0,0,0,3.21-.58l.67-.2a6.28,6.28,0,0,0,.85-.34s0,0,0,0h0c-.45,0-.91,0-1.36-.05l-1.1-.08c-1-.12-1.93-.21-2.89-.34l-3.18-.44c-2.07-.28-4.12-.65-6.16-1a23.36,23.36,0,0,0-2.33-.34c-.84-.07-1.7-.06-2.55-.06h0c.79.34,1.59.67,2.4,1,1,.42,2.07.88,3.11,1.28.47.19.93.36,1.41.51S93.12,134.45,93.66,134.58Z"/><path class="cls-1" d="M150.65,162.93c-.49-.22-1-.43-1.46-.67s-1-.51-1.5-.78c-.86-.48-1.73-1-2.56-1.5l-1.51-.94-.49-.34-1-.68-.45-.3c-.58-.44-1.17-.87-1.76-1.3-.72-.6-1.46-1.16-2.15-1.79l-1.27-1.14c-.49-.43-.95-.92-1.41-1.4s-.89-1-1.32-1.52c-.73-1-1.49-1.91-2.17-2.91-.4-.58-.79-1.15-1.18-1.74-.29-.44-.58-.87-.85-1.32s-.44-.86-.64-1.29h0l-.42-1,.38-.5c.52-.7,1-1.4,1.54-2.11l1.37-2,.48-.75c.19-.31.4-.62.57-.94.37-.67.75-1.33,1.1-2s.65-1.27.95-1.91.66-1.42,1-2.13.53-1.17.78-1.77.55-1.28.81-1.93a.17.17,0,0,0,0,.05.14.14,0,0,1,0-.06h0l.06-.16a.14.14,0,0,1,0,.06l.37-.94,0,.07,0-.08.41-1.11c.13-.36.24-.72.36-1.08.23-.73.44-1.47.64-2.21s.38-1.5.55-2.26c0-.11,0-.23.07-.35l.87-.17s0,0,0,0l-.79-.24c.08-.43.15-.85.22-1.28a7.43,7.43,0,0,1,1,.43c.34.19.66.41,1,.62s.74.46,1.12.67a11,11,0,0,0,1,.5l2.24,1a25.75,25.75,0,0,0,2.46.9,22.48,22.48,0,0,0,2.29.56c.77.16,1.57.31,2.36.4.44,0,.87.1,1.32.11s.79,0,1.2,0c.83,0,1.65,0,2.49-.06a18.3,18.3,0,0,0,2.44-.23c.41-.07.83-.15,1.24-.26l1.21-.33c.77-.21,1.55-.4,2.32-.59.41-.09.81-.2,1.21-.32s.81-.26,1.21-.41l1.66-.65c.54-.22,1.08-.44,1.61-.7A2.48,2.48,0,0,0,172,118l.34-.2.2-.13.34,0a4.42,4.42,0,0,0,1.57-.53,7.92,7.92,0,0,0,1.07-.84c.62-.53,1.21-1.1,1.84-1.62l1.84-1.45a2.36,2.36,0,0,0,.51-.3l.39-.34c.27-.23.54-.46.81-.71l.33-.31a1.1,1.1,0,0,0,.46-.82,1.16,1.16,0,0,0-.49-.8,3.07,3.07,0,0,0-.35-.24l-.07,0-.23-.1c-.35-.15-.71-.26-1.07-.39s-.63-.22-.95-.32c-.64-.21-1.27-.42-1.9-.66l.09,0-.26-.09-.27-.11h0s-.05,0-.08,0h0c-.39-.15-.78-.31-1.17-.5l-.27-.14q.2-.24.39-.51c.21.12.43.24.64.34h0c-.19-.16-.37-.31-.54-.48l.41-.57h0c-.16.17-.33.33-.5.49-.16-.16-.32-.32-.47-.5a9.73,9.73,0,0,1-.73-1.19,6.55,6.55,0,0,1-.41-1.37c-.06-.44-.08-.89-.1-1.34,0-.15,0-.3,0-.45a7.79,7.79,0,0,1,0-1.08c.1-.87.19-1.74.3-2.61s.31-1.88.49-2.82c.09-.44.18-.87.29-1.3s.26-.93.4-1.39c.05-.19.12-.38.18-.57s.14-.44.22-.65c.16-.46.33-.93.5-1.39,0-.07.05-.13.07-.2.23-.53.47-1,.72-1.57A14.18,14.18,0,0,1,178,85.87l.66-.81c.19-.23.4-.45.6-.67.46-.5.94-1,1.42-1.46.25-.25.52-.48.78-.72l.71-.65.77-.68c.2-.18.41-.34.62-.51l.09-.07c-.16.34-.3.68-.44,1a15.71,15.71,0,0,0-.77,2.7c-.19.94-.35,1.88-.5,2.84s-.26,1.79-.39,2.69-.26,1.79-.36,2.68A23.74,23.74,0,0,0,181,95c0,.75.07,1.5.11,2.26a.27.27,0,0,0-.14.14.36.36,0,0,0,.13.49h0c0,.49,0,1,0,1.46s0,1.06,0,1.58,0,1.08.08,1.61.13,1,.15,1.49h0a.22.22,0,0,0,0,.08h0a3.29,3.29,0,0,0,.06-.77c0-.25,0-.49,0-.74,0-.52.05-1,.1-1.56l.24-1.63c.08-.59.13-1.17.16-1.77s0-1.17.06-1.77.07-1.14.12-1.71c.1-.87.25-1.72.4-2.58s.31-1.78.45-2.68.26-1.84.4-2.75.28-1.9.5-2.83a15.82,15.82,0,0,1,.6-2c.15-.37.31-.75.49-1.11a10.08,10.08,0,0,1,.62-1c.11-.15.24-.3.36-.44l.09,0,.36-.25.32-.23a2.58,2.58,0,0,0,.41-.33.59.59,0,0,0-.59-1h0a2.13,2.13,0,0,0-.33.11c-.16.07-.31.13-.46.21l-.39.21a.76.76,0,0,0-.23.17l-.15.2c-.71.46-1.41.93-2.09,1.43s-1.52,1.19-2.24,1.82-1.41,1.22-2.05,1.89c-.34.35-.68.68-1,1l-.59.69-.37.48a14.69,14.69,0,0,0-1.43,2.16c-.23.47-.46.92-.67,1.39a23.78,23.78,0,0,0-1,2.69,19.05,19.05,0,0,0-.73,2.66c-.18,1-.32,2-.42,3-.08.81-.11,1.63-.14,2.45,0,.42,0,.85,0,1.28a12,12,0,0,0,.27,2,6.35,6.35,0,0,0,.4,1.35c.1.24.23.46.35.7a5.11,5.11,0,0,0,.71.9,4.83,4.83,0,0,0,.78.72l.27.18-.51.46h0a1.77,1.77,0,0,0-.67-.22h0l.11,0h0l.21.14.22.18a3.37,3.37,0,0,1-.36.3l-1.76,1.46c-1.19,1-2.34,2-3.54,3-.92.72-1.87,1.39-2.82,2.06-.45.32-.93.6-1.4.89s-1,.61-1.58.89-1.15.45-1.73.64a17,17,0,0,1-1.71.41,22,22,0,0,1-2.3.11c-.76,0-1.52,0-2.27-.07-1.13-.13-2.26-.28-3.38-.49-.62-.12-1.24-.23-1.85-.39a13.88,13.88,0,0,1-1.65-.55c-.71-.28-1.43-.57-2.12-.89s-1.38-.64-2.07-1-1.27-.66-1.89-1l-.94-.47c.07-.35.16-.7.25-1.06s.13-.56.22-.84.19-.56.29-.85c.23-.57.48-1.14.76-1.69s.66-1.18,1-1.75h0c-.25.31-.5.62-.74.94s-.43.61-.63.92a12.19,12.19,0,0,0-1,1.88,20.59,20.59,0,0,0-.78,2.16l-.65-.31h0l.6.46c0,.12-.07.25-.11.39l-.06,0c-.82-.64-1.62-1.31-2.42-2s-1.84-1.4-2.8-2.06-1.85-1.52-2.81-2.22h0a15.72,15.72,0,0,0,1.53,2.71A9.81,9.81,0,0,0,135.8,111a13.1,13.1,0,0,0,2.45,1.37,15.32,15.32,0,0,0,1.48.53l.22.07c-.08.33-.16.67-.23,1-.16.78-.31,1.56-.48,2.35l-.27,1.15-.13,0a24.1,24.1,0,0,1-2.35-1.13c-.86-.48-1.7-1-2.58-1.43-.27-.13-.52-.27-.78-.42l-.35-.19c-.47-.26-.94-.51-1.43-.75s-.78-.46-1.17-.68-1-.56-1.53-.81h0a14.11,14.11,0,0,0,1.89,2.81,11.83,11.83,0,0,0,2.67,2.16,12,12,0,0,0,3.06,1.2,8.08,8.08,0,0,0,1.62.21,6,6,0,0,0,.85,0l0,.08c-.2.74-.41,1.48-.64,2.23s-.43,1.46-.67,2.19-.4,1.18-.62,1.77c-.14.37-.29.73-.43,1.1s-.32.78-.49,1.17c-.29.7-.6,1.39-.9,2.08s-.59,1.26-.89,1.9c-.17.35-.32.71-.5,1.05l-.6,1.18c-.14.27-.26.53-.41.78a3.24,3.24,0,0,1-.17.32l-1.83-.28a15.84,15.84,0,0,1-3-.88l-.94-.37c-.75-.34-1.51-.66-2.25-1l-2.46-1.25c-.72-.37-1.46-.72-2.17-1.11l-1.22-.69a10.22,10.22,0,0,1-1-.7l-.92-.69s0,0,0,0c.3.41.61.83.93,1.23a12.05,12.05,0,0,0,1.13,1.13c.39.35.82.67,1.24,1s.8.59,1.21.86l1.48.94.52.29.2.11a6.36,6.36,0,0,0,.58.3c.53.23,1.05.45,1.6.64a7,7,0,0,0,.69.23l.93.25c.35.09.71.15,1.06.22l.7.1a9.3,9.3,0,0,0,1.29.07,14.73,14.73,0,0,0,1.48-.11l.69-.07-.47.85c-.16.28-.33.55-.5.83s-.33.56-.51.82q-1.37,2-2.77,3.93c-.15.19-.29.38-.43.58-.45.57-.9,1.15-1.36,1.7l-1.59,1.9-1.6,1.88-.64.71-.7.78-.91,1-.68.69c-.45.47-.91.94-1.37,1.4s-1.06,1.07-1.61,1.59-1.09,1-1.66,1.43h0a21.6,21.6,0,0,0,2.07-1.35c.59-.45,1.16-.94,1.73-1.42,1.14-1,2.28-2,3.35-3,.61-.6,1.22-1.2,1.81-1.81s1.09-1.17,1.64-1.76l1.46-1.63c.27-.31.52-.65.78-1l.15-.18c.05.51.12,1,.2,1.54a13.06,13.06,0,0,0,.79,2.51c.41,1,.86,2,1.37,3a26.91,26.91,0,0,0,2.16,3.61,19.3,19.3,0,0,0,2.12,2.47c.43.43.85.84,1.29,1.25a6,6,0,0,0,.47.38l1,.74c.22.17.44.36.67.51l.55.35,1.48.94c.17.11.35.19.52.28l1.06.57c.37.2.75.38,1.14.56s1,.46,1.46.65l1.89.74c.47.18,1,.32,1.43.47a22.64,22.64,0,0,0,2.52.63q1.45.28,2.91.6h0C152.53,163.77,151.59,163.34,150.65,162.93ZM173,109.29l1.31-1.51.2-.24a6.23,6.23,0,0,0,.8.64c.47.32,1,.62,1.47.9s1,.5,1.47.72,1,.47,1.56.67a3,3,0,0,1,.51.25,3.92,3.92,0,0,1-.32.25l-.74.57-.4.31a1.12,1.12,0,0,0-.21.17c-.06.09-.13.17-.2.26-.74.57-1.51,1.1-2.23,1.7-.37.3-.72.64-1.08,1s-.67.6-1,.89a5,5,0,0,1-.62.4,10.14,10.14,0,0,1-1.64.43,9.23,9.23,0,0,1-2,.13,4.12,4.12,0,0,1-.91-.2l-.37-.19a5.21,5.21,0,0,1-.71-.7,2.55,2.55,0,0,1-.24-.39l0-.1a1.77,1.77,0,0,1,0-.23,1,1,0,0,1,0-.18l1-.88A49.93,49.93,0,0,0,173,109.29Zm-32.28,3.81.47.06h0l-.44-.26s0-.06,0-.08a2.93,2.93,0,0,1,.05-.29c.13.1.26.21.4.3.77.59,1.52,1.19,2.3,1.76s1.61,1.14,2.46,1.64a20,20,0,0,0,2.67,1.41,20.75,20.75,0,0,0,2.88.87,22.74,22.74,0,0,0,2.72.47c.54.06,1.08.1,1.63.12s1,0,1.53,0,1,0,1.46-.06a12.06,12.06,0,0,0,1.67-.26,14.55,14.55,0,0,0,3-1,17.18,17.18,0,0,0,2.64-1.7c.42-.3.83-.63,1.23-1a.11.11,0,0,0,0,0,1.28,1.28,0,0,0,.13.67,3.57,3.57,0,0,0,.63,1,3.12,3.12,0,0,0,1.45.83,5.08,5.08,0,0,0,1.4.18h.26c-.69.23-1.38.42-2.07.62s-1.57.44-2.36.6l-2.43.44-1.19.24-1.2.27-.64.13-.86.11-.93.06c-.65,0-1.3,0-2,0h-1.94a15.22,15.22,0,0,1-1.79-.08q-1.14-.12-2.28-.3c-.8-.13-1.6-.26-2.39-.44-1.58-.36-3.14-.86-4.69-1.35-.32-.1-.64-.2-1-.32s-.63-.26-.94-.41l-1-.47a5.9,5.9,0,0,0-1-.37l-.38-.09h0c.08-.57.15-1.13.22-1.7S140.63,113.64,140.71,113.1Z"/><path class="cls-1" d="M158.28,156c-.46-.24-.92-.46-1.37-.71l-.94-.54-.2-.1-.38-.22c-.86-.54-1.74-1.06-2.59-1.63-1.74-1.16-3.49-2.3-5.19-3.53a36.37,36.37,0,0,1-3.24-2.84c-.54-.53-1.09-1-1.61-1.59s-1.11-1.13-1.64-1.73c-.24-.27-.51-.53-.74-.82l-.67-.84-.9-1.16,0,0c-.33-.47-.69-.93-1-1.42l-1.08-1.69c-.15-.24-.31-.46-.45-.71l-.55-1c-.36-.61-.7-1.23-1.06-1.85h0c.09.64.19,1.28.29,1.92,0,.26.1.52.16.77s.07.44.13.65c.14.51.26,1,.43,1.51s.31,1,.51,1.45a27.36,27.36,0,0,0,1.5,3.08,21.66,21.66,0,0,0,1.69,2.55c.49.62,1,1.24,1.49,1.86.29.35.61.68.92,1,.52.55,1,1.08,1.59,1.58a31.52,31.52,0,0,0,3.94,2.94c.48.31,1,.58,1.48.87s.7.4,1.07.59l1.88.94c.38.18.79.34,1.18.51l1.31.54c.53.21,1.08.37,1.62.55a21.69,21.69,0,0,0,2.39.67c1.91.42,3.83.76,5.76,1h0c-1-.44-2-.91-3-1.36S159.19,156.48,158.28,156Z"/><path class="cls-1" d="M152.25,139.83c-.8-.57-1.6-1.16-2.4-1.72-1.19-.88-2.4-1.73-3.59-2.6a34.43,34.43,0,0,1-3.26-2.78,35.6,35.6,0,0,1-3.07-3.31c-.7-.9-1.32-1.85-2-2.79h0c.14.66.29,1.32.45,2a14.58,14.58,0,0,0,1.65,3.85,20,20,0,0,0,6.32,6.53c.87.58,1.75,1.13,2.67,1.63s2.11,1.12,3.19,1.63c1.24.6,2.52,1.13,3.79,1.66s2.54,1,3.83,1.49h0c-1.58-1.23-3.19-2.42-4.81-3.58Z"/><path class="cls-1" d="M104.3,187a11.48,11.48,0,0,0,1-.67,16.13,16.13,0,0,0,1.55-1.17c.22-.18.43-.37.63-.56a6.68,6.68,0,0,0,.67-.74,3.88,3.88,0,0,0,.26-.31,2,2,0,0,0,.24-.4l.3-.57c.2-.43.41-.87.58-1.32s.21-.69.32-1v.14c.1-.29.19-.58.28-.87s.21-.6.3-.91a12.17,12.17,0,0,0,.41-2.15c0-.36.06-.72.09-1.09,0-.14,0-.29,0-.44a1.33,1.33,0,0,1,0-.2.45.45,0,0,0,0-.16.37.37,0,0,0,0-.11,4.79,4.79,0,0,0-.12-1.46c0-.07,0-.15-.07-.24,0-.36-.07-.73-.12-1.1-.12-1-.32-2-.49-3-.07-.47-.13-.94-.22-1.41s-.2-1-.29-1.52c-.17-1.06-.34-2.1-.56-3.14s-.45-1.93-.67-2.9c-.12-.51-.26-1-.37-1.52s-.19-1-.28-1.52c-.13-.72-.24-1.45-.36-2.17-.06-.48-.13-1-.19-1.45s-.12-1.09-.18-1.64c-.11-1-.18-2-.22-3s0-2,0-2.94c0-.53,0-1,0-1.57s.06-1,.1-1.45c.08-.65.16-1.31.28-2,.14-.8.31-1.59.49-2.38a32.39,32.39,0,0,1,1.27-4.21c.35-.87.72-1.74,1.12-2.59s.9-1.86,1.41-2.76,1.09-1.87,1.67-2.79,1.09-1.81,1.65-2.71,1.21-1.8,1.85-2.68,1.19-1.53,1.8-2.29h0c.67-.82,1.34-1.63,2-2.42,1.35-1.52,2.63-3.09,4-4.6.68-.75,1.42-1.47,2.14-2.18.35-.34.72-.66,1.07-1s.71-.67,1.06-1c.65-.63,1.27-1.28,1.91-1.92s1.26-1.27,1.87-1.93a0,0,0,0,0,0,0h0a0,0,0,0,1,0,0,.28.28,0,0,1,.09-.1l.16-.17h0l-.23.17c.05-.44.1-.88.17-1.33a6.33,6.33,0,0,1,.36-1.27,12,12,0,0,1,.56-1.14,4.39,4.39,0,0,0,0,2.16,3,3,0,0,0,.54,1,3.45,3.45,0,0,0,.52.56l.28.23a14.42,14.42,0,0,0,1.37.94,10.26,10.26,0,0,0,1.38.66,5.89,5.89,0,0,0,1.08.34,7.33,7.33,0,0,0,1.06.18,0,0,0,0,0,0,0h0s0,0,0,0h.19l-.1,0,0,0,1.29-1.07c.4-.33.81-.66,1.18-1s.71-.73,1-1.12c-.28.69-.54,1.39-.86,2.07a21.15,21.15,0,0,1-1.32,2.49h0a11.09,11.09,0,0,0,1.75-1.87c.27-.37.53-.75.76-1.14s.43-.77.63-1.16a7.69,7.69,0,0,0,.7-1.71,2.55,2.55,0,0,0,.07-.67.83.83,0,0,0-.1-.35.71.71,0,0,0-.26-.23h0a.62.62,0,0,0-.4,0,.85.85,0,0,0-.3.15,2.27,2.27,0,0,0-.39.49l-.33.53a1.47,1.47,0,0,0-.1.22,2.64,2.64,0,0,1-.15.29c-.22.34-.46.68-.69,1-.4.52-.81,1-1.23,1.5s-.88,1.08-1.3,1.63a8.14,8.14,0,0,1-1.19-.74,14.24,14.24,0,0,1-1.48-1.32,15,15,0,0,1-1.32-1.44,3.4,3.4,0,0,1-.31-.52c0-.13-.08-.27-.11-.41s0-.25,0-.37a5.71,5.71,0,0,1,.24-1,11.41,11.41,0,0,1,1.25-2.1,10.52,10.52,0,0,1,.75-.9c.26-.28.54-.55.78-.85.08-.12.17-.23.24-.35a2.77,2.77,0,0,0,.1-.26.9.9,0,0,0,0-.46.74.74,0,0,0-.4-.5l-.21-.08a1.17,1.17,0,0,0-.8.15c-.19.09-.37.2-.56.3l-.21.11a.93.93,0,0,0-.29.3,11.82,11.82,0,0,0-1.63,1.45c-.27.29-.53.58-.78.88a5.58,5.58,0,0,0-.71,1.14,9.59,9.59,0,0,0-.45,1.16,6.2,6.2,0,0,0-.27,1.13,10.44,10.44,0,0,0,0,2.37c-.71.5-1.4,1-2.12,1.48s-1.46,1-2.2,1.45c-.42.26-.82.53-1.24.78s-.88.49-1.31.75-.87.55-1.3.83-.85.59-1.26.9l-.46.37-.12-.08c-.45-.29-.93-.53-1.39-.81-.22-.13-.43-.29-.64-.44l-.65-.44-1.19-.83c-.33-.25-.65-.51-1-.78s-.75-.66-1.14-1-.88-.68-1.34-1-.79-.5-1.2-.74l-2.71-1.61q-1.26-.78-2.46-1.62c-.77-.58-1.51-1.2-2.24-1.83s-1.48-1.24-2.24-1.85c-.39-.31-.79-.6-1.18-.93s-.8-.68-1.19-1-.7-.67-1-1-.71-.82-1-1.25S99,91,98.49,90.42s-.94-1-1.39-1.59a5.36,5.36,0,0,1-.63-1,7.52,7.52,0,0,1-.28-.84c-.1-.35-.21-.69-.32-1h0a.88.88,0,0,0,0,.16h0c.07.45.13.9.2,1.35a4.79,4.79,0,0,0,.42,1.33A11.4,11.4,0,0,0,97.22,90c.26.4.53.81.78,1.22s.5.82.76,1.23.54.89.84,1.3a19.83,19.83,0,0,0,2.09,2.49c.7.69,1.46,1.33,2.2,2s1.49,1.36,2.26,2a27.64,27.64,0,0,0,2.51,1.95c.87.58,1.76,1.11,2.67,1.63.48.28,1,.54,1.45.81l1.18.65c.85.48,1.66,1,2.47,1.6a16.49,16.49,0,0,0,2.3,1.35l1.33.62a10.42,10.42,0,0,0,1.35.51l.93.28c-.57.49-1.13,1-1.68,1.51-.73.68-1.44,1.39-2.12,2.13-1.05,1.12-2,2.31-3,3.52-.31-.11-.61-.2-.92-.29l-1.34-.37c-.86-.24-1.71-.48-2.56-.75-.45-.14-.91-.26-1.36-.42L108,114.5l-1.15-.44a14.48,14.48,0,0,1-2.42-1.23l-1.24-.82-.17-.13c-.39-.31-.77-.63-1.14-1s-.72-.69-1.07-1c-.74-.74-1.47-1.49-2.2-2.24s-1.48-1.42-2.22-2.14c-.39-.37-.76-.74-1.14-1.12s-.66-.69-1-1c-.54-.6-1.06-1.2-1.58-1.81s-1-1.2-1.45-1.8h0l-.32-.4-.43-.55h0v0h0l-.71-.91h0a54.2,54.2,0,0,0,3.12,5.51c.27.41.54.82.82,1.22s.68.91,1,1.36c.66.83,1.36,1.64,2.05,2.45s1.34,1.62,2,2.41a25.54,25.54,0,0,0,2,2.13,14.21,14.21,0,0,0,2.63,1.86c.37.21.74.4,1.12.57a12.39,12.39,0,0,0,1.68.59c.51.15,1,.3,1.55.41l1.12.25c.27.06.55.09.83.14.62.1,1.23.19,1.86.27,1.15.15,2.31.25,3.46.35l-.49.63c-.31.41-.62.83-.92,1.25s-.62.83-.91,1.25-.6.9-.88,1.35l-.82,1.34c-.27.44-.55.86-.82,1.3-.57.89-1.12,1.8-1.66,2.71s-1,1.81-1.44,2.73-.87,1.86-1.25,2.82a30.11,30.11,0,0,0-1.1,3.24c-.28,1-.51,2-.72,3-.1.48-.18,1-.25,1.45s-.18,1.23-.24,1.86-.08,1.09-.1,1.64,0,1.07,0,1.61c0,1,0,2,.1,3s.17,2,.32,3,.36,2.26.62,3.37.46,2,.74,3c.14.5.29,1,.46,1.5s.35,1,.52,1.43c.34.93.7,1.85,1,2.79.16.51.32,1,.46,1.53l.39,1.47c.13.51.29,1,.42,1.52l.42,1.55c.28,1,.51,2,.69,3.08q.1.76.15,1.53a.5.5,0,0,1,0,.13,1.53,1.53,0,0,0,0,.37c0,.15,0,.29,0,.44,0,.33,0,.67-.07,1s-.1.67-.17,1a1.74,1.74,0,0,1,.11.18c-.07.19-.14.37-.22.55a9.66,9.66,0,0,1-.56,1c-.12.2-.24.39-.34.59l-.3.56a16.16,16.16,0,0,1-1.29,1.89l-.41.37a3.86,3.86,0,0,1-.44.38l-1,.69c-.36.24-.73.47-1.1.69a9.52,9.52,0,0,1-1.15.58,12.63,12.63,0,0,1-2.18.39c-.68,0-1.36.06-2,.05a13.29,13.29,0,0,1-2-.21c-.28-.05-.56-.1-.84-.17s-.71-.16-1.05-.26-.72-.2-1.07-.32-.68-.29-1-.44l-2.1-.92-1-.44c-.29-.12-.56-.23-.83-.36-.57-.28-1.13-.59-1.68-.91a9,9,0,0,1-.93-.58c-.31-.22-.62-.45-.91-.69s-.58-.51-.86-.78-.69-.67-1-1a19.89,19.89,0,0,1-1.66-2,11.64,11.64,0,0,1-1-2,19,19,0,0,1-.66-3.91c0-.37,0-.75,0-1.13a8.44,8.44,0,0,1,0-1.51,1.94,1.94,0,0,1,0-.2l.34-.3.9-.84a19.46,19.46,0,0,1,1.85-1.55,17.41,17.41,0,0,1,2.5-1.2c.88-.35,1.77-.68,2.64-1.06a8.26,8.26,0,0,0,1.35-.71,10.88,10.88,0,0,0,1.28-.95,13.68,13.68,0,0,0,2-2.28,2.86,2.86,0,0,0,.47-1.19,1,1,0,0,0-.44-1.12l-.16-.07a1.52,1.52,0,0,0-1,.1,6,6,0,0,0-.7.28,16.18,16.18,0,0,0-2.19,1.39c-.64.45-1.26.93-1.87,1.42l-.91.75c-.27.23-.54.45-.82.66l-.09,0a4.24,4.24,0,0,1-.33-.39,4.33,4.33,0,0,1-.38-.78l-.3-.9c-.11-.29-.23-.58-.33-.87a9.42,9.42,0,0,1-.39-2.17c0-.21,0-.41,0-.62,0,0,0-.06,0-.09v-.09a.25.25,0,0,0,0,.08c0-.05,0-.09,0-.14a2.83,2.83,0,0,1,0-.29,2.28,2.28,0,0,0,0,.26c0-.16,0-.32,0-.48q0-.51,0-1c0-.3,0-.61,0-.92l.06-.13a1.73,1.73,0,0,0,.19-.61.85.85,0,0,0-1.23-.79,1.7,1.7,0,0,0-.5.5,1.3,1.3,0,0,0-.27.57,1.49,1.49,0,0,0,0,.18c-.1.2-.19.4-.28.6a1,1,0,0,0-.11.39.76.76,0,0,0,0,.15,27.37,27.37,0,0,0-1,2.7,14.85,14.85,0,0,0-.6,2.95,11,11,0,0,0-.09,1.41,5.69,5.69,0,0,0,.17,1.42,5.86,5.86,0,0,0,.44,1.3,9.05,9.05,0,0,0,.59,1c-.17.17-.34.33-.5.51s-.28.36-.41.55A9.53,9.53,0,0,0,79,166.4c-.15.31-.28.62-.4.94a6.38,6.38,0,0,0-.27,1.19c-.08.53-.16,1.05-.19,1.59s-.06,1-.07,1.51a13.43,13.43,0,0,0,.25,3.1,10.73,10.73,0,0,0,.57,1.65,9.53,9.53,0,0,0,.68,1.26,12.93,12.93,0,0,0,1,1.4c.31.4.64.78,1,1.15s.7.77,1.09,1.12.89.83,1.37,1.21.78.6,1.19.87.78.48,1.18.7.71.4,1.08.59,1,.44,1.47.66l-.14-.06c1,.43,1.9.84,2.86,1.26a13.23,13.23,0,0,0,1.4.57,13.64,13.64,0,0,0,1.46.41c.56.13,1.12.23,1.69.32a14.18,14.18,0,0,0,1.46.17c.51,0,1,0,1.53,0s1.17-.05,1.75-.13a11.1,11.1,0,0,0,2-.38A6.4,6.4,0,0,0,104.3,187ZM88,160.78c1-.86,2-1.69,3.14-2.46l-.06.08-.06.07h0c-.33.36-.66.7-1,1a9.21,9.21,0,0,1-1,.84,13,13,0,0,1-1.26.7Zm-7,3.85,0,0,.3.43h0c-.08-.17-.15-.35-.22-.52a6.54,6.54,0,0,1,.4-.52c.6-.7,1.21-1.39,1.86-2.05h0c-.49.32-1,.67-1.43,1s-.74.57-1.1.88h0c-.1-.23-.19-.46-.28-.7a3.34,3.34,0,0,1-.18-.69,4.32,4.32,0,0,1-.11-.72,8,8,0,0,1,0-.85,5.56,5.56,0,0,1,.09-.82c.1-.5.2-1,.32-1.47s.31-1.05.49-1.57c.09-.28.2-.55.31-.82,0,.14,0,.26,0,.39a7.28,7.28,0,0,0,.22,1.32,12.86,12.86,0,0,0,.61,1.6c.15.4.29.8.47,1.18a4.48,4.48,0,0,0,.42.7,4.36,4.36,0,0,0,.44.51,3.41,3.41,0,0,0,.89.67l-.67.37a8.1,8.1,0,0,0-1.25.85,9.4,9.4,0,0,0-1.06,1.12c-.3.35-.58.73-.85,1.11l-.65.91a11.24,11.24,0,0,1,.58-1.69A4.24,4.24,0,0,1,81,164.63Z"/><path class="cls-1" d="M105.5,186.2l-.16.1,0,0A1.13,1.13,0,0,1,105.5,186.2Z"/><path class="cls-1" d="M83.38,154.76v.06s0,0,0,.06A.49.49,0,0,1,83.38,154.76Z"/><path class="cls-1" d="M112.63,189l-2.79.73c-.71.19-1.41.4-2.12.58-.39.1-.8.16-1.19.24l-.69.14c-1,.2-1.9.42-2.84.64a24,24,0,0,1-2.68.39l-1,.08h0c.52.11,1,.2,1.57.27a12,12,0,0,0,1.46.08,12.77,12.77,0,0,0,1.37-.09l1.49-.18a14,14,0,0,0,1.52-.29,12,12,0,0,0,1.17-.33c.43-.15.86-.33,1.27-.52.92-.42,1.83-.86,2.72-1.34.24-.13.49-.26.72-.4Z"/><path class="cls-1" d="M112.12,137.19a8.53,8.53,0,0,0,1.81,1.74q.94.69,1.92,1.32c.29.19.6.36.9.53s.58.3.88.44c.64.29,1.3.55,2,.79.47.18,1,.34,1.42.49s.93.26,1.39.38a10.6,10.6,0,0,0,1.25.24l1.68.26h0l-1.52-.49-.68-.21c-.2-.06-.38-.13-.56-.2-.66-.26-1.3-.53-1.95-.81s-1.3-.6-2-.9l-1-.46-.31-.14c-.18-.11-.37-.21-.56-.31-.59-.32-1.17-.65-1.74-1a23.91,23.91,0,0,1-2-1.27,16.79,16.79,0,0,1-1.75-1.62h0C111.57,136.4,111.84,136.8,112.12,137.19Z"/><path class="cls-1" d="M122.2,120a18.28,18.28,0,0,0,2.37,2.2c.46.35.93.7,1.42,1s.89.55,1.36.81a13,13,0,0,0,2.94,1.2c.52.15,1.05.26,1.59.36a14.92,14.92,0,0,0,1.64.16,9.33,9.33,0,0,0,2.58-.22h0a24.44,24.44,0,0,1-4.93-1.45l-.65-.25c-1.37-.6-2.74-1.19-4.09-1.82s-2.83-1.32-4.23-2Z"/></g></svg>