<svg xmlns="http://www.w3.org/2000/svg" xmlns:xlink="http://www.w3.org/1999/xlink" viewBox="0 0 251.17 251.17"><defs><style>.cls-1{isolation:isolate;}.cls-10,.cls-2,.cls-3,.cls-4,.cls-5,.cls-6,.cls-7,.cls-8,.cls-9{mix-blend-mode:screen;}.cls-2{fill:url(#radial-gradient);}.cls-3{fill:url(#radial-gradient-2);}.cls-4{fill:url(#radial-gradient-3);}.cls-5{fill:url(#radial-gradient-4);}.cls-6{fill:url(#radial-gradient-5);}.cls-7{fill:url(#radial-gradient-6);}.cls-8{fill:url(#radial-gradient-7);}.cls-9{fill:url(#radial-gradient-8);}.cls-10{fill:url(#radial-gradient-9);}.cls-11{fill:#def9ff;}</style><radialGradient id="radial-gradient" cx="39.54" cy="151.76" r="7.03" gradientUnits="userSpaceOnUse"><stop offset="0" stop-color="#f1f2ce"/><stop offset="1"/></radialGradient><radialGradient id="radial-gradient-2" cx="33.98" cy="200.04" r="7.03" xlink:href="#radial-gradient"/><radialGradient id="radial-gradient-3" cx="100.14" cy="195" r="7.03" xlink:href="#radial-gradient"/><radialGradient id="radial-gradient-4" cx="106.59" cy="167.79" r="7.03" xlink:href="#radial-gradient"/><radialGradient id="radial-gradient-5" cx="111.84" cy="135.62" r="7.03" xlink:href="#radial-gradient"/><radialGradient id="radial-gradient-6" cx="152.32" cy="83.59" r="7.03" xlink:href="#radial-gradient"/><radialGradient id="radial-gradient-7" cx="208.47" cy="109.5" r="7.03" xlink:href="#radial-gradient"/><radialGradient id="radial-gradient-8" cx="213.1" cy="62.59" r="7.03" xlink:href="#radial-gradient"/><radialGradient id="radial-gradient-9" cx="200.91" cy="40.89" r="7.03" xlink:href="#radial-gradient"/></defs><title>2445646</title><g class="cls-1"><g id="OBJECTS"><circle class="cls-2" cx="39.54" cy="151.76" r="7.03"/><path class="cls-3" d="M41,200a7,7,0,1,1-7-7A7,7,0,0,1,41,200Z"/><path class="cls-4" d="M107.17,195a7,7,0,1,1-7-7A7,7,0,0,1,107.17,195Z"/><path class="cls-5" d="M113.62,167.79a7,7,0,1,1-7-7A7,7,0,0,1,113.62,167.79Z"/><path class="cls-6" d="M118.87,135.62a7,7,0,1,1-7-7A7,7,0,0,1,118.87,135.62Z"/><path class="cls-7" d="M159.35,83.59a7,7,0,1,1-7-7A7,7,0,0,1,159.35,83.59Z"/><path class="cls-8" d="M215.51,109.5a7,7,0,1,1-7-7A7,7,0,0,1,215.51,109.5Z"/><path class="cls-9" d="M220.13,62.59a7,7,0,1,1-7-7A7,7,0,0,1,220.13,62.59Z"/><path class="cls-10" d="M207.94,40.89a7,7,0,1,1-7-7A7,7,0,0,1,207.94,40.89Z"/><path class="cls-11" d="M42.89,151.76a3.35,3.35,0,1,1-3.35-3.35A3.35,3.35,0,0,1,42.89,151.76Z"/><path class="cls-11" d="M37.33,199.76A3.35,3.35,0,1,1,34,196.41,3.35,3.35,0,0,1,37.33,199.76Z"/><path class="cls-11" d="M103.76,194.94a3.35,3.35,0,1,1-3.35-3.35A3.35,3.35,0,0,1,103.76,194.94Z"/><circle class="cls-11" cx="106.32" cy="167.84" r="3.35"/><path class="cls-11" d="M115.41,135.67a3.35,3.35,0,1,1-3.35-3.35A3.35,3.35,0,0,1,115.41,135.67Z"/><circle class="cls-11" cx="152.41" cy="83.33" r="3.35"/><path class="cls-11" d="M216.45,62.46a3.35,3.35,0,1,1-3.35-3.35A3.35,3.35,0,0,1,216.45,62.46Z"/><path class="cls-11" d="M204.62,40.89a3.35,3.35,0,1,1-3.35-3.35A3.35,3.35,0,0,1,204.62,40.89Z"/><path class="cls-11" d="M212.1,109.59a3.35,3.35,0,1,1-3.35-3.35A3.35,3.35,0,0,1,212.1,109.59Z"/><rect class="cls-11" x="12.6" y="175.49" width="48.32" height="0.55" transform="translate(-142.08 191.93) rotate(-83.35)"/><rect class="cls-11" x="33.89" y="197.07" width="66.61" height="0.55" transform="translate(-14.22 5.43) rotate(-4.19)"/><rect class="cls-11" x="89.5" y="181.12" width="27.73" height="0.55" transform="matrix(0.21, -0.98, 0.98, 0.21, -95.89, 243.73)"/><rect class="cls-11" x="92.85" y="151.48" width="32.68" height="0.55" transform="translate(-59.41 232.55) rotate(-79.87)"/><rect class="cls-11" x="99.19" y="109.22" width="66.09" height="0.55" transform="translate(-35.2 147.47) rotate(-52.4)"/><rect class="cls-11" x="150.66" y="72.62" width="64.18" height="0.55" transform="translate(-13.78 63.48) rotate(-19)"/><rect class="cls-11" x="206.91" y="39.38" width="0.55" height="24.59" transform="translate(0.67 105.99) rotate(-28.74)"/><rect class="cls-11" x="187.26" y="85.74" width="47.33" height="0.55" transform="translate(105.88 288.15) rotate(-84.73)"/></g></g></svg>