<svg xmlns="http://www.w3.org/2000/svg" xmlns:xlink="http://www.w3.org/1999/xlink" viewBox="0 0 251.17 251.17"><defs><style>.cls-1{isolation:isolate;}.cls-2,.cls-3,.cls-4,.cls-5,.cls-6,.cls-7{mix-blend-mode:screen;}.cls-2{fill:url(#radial-gradient);}.cls-3{fill:url(#radial-gradient-2);}.cls-4{fill:url(#radial-gradient-3);}.cls-5{fill:url(#radial-gradient-4);}.cls-6{fill:url(#radial-gradient-5);}.cls-7{fill:url(#radial-gradient-6);}.cls-8{fill:#def9ff;}</style><radialGradient id="radial-gradient" cx="51.17" cy="28.63" r="7.03" gradientUnits="userSpaceOnUse"><stop offset="0" stop-color="#f1f2ce"/><stop offset="1"/></radialGradient><radialGradient id="radial-gradient-2" cx="101.19" cy="135.52" r="7.03" xlink:href="#radial-gradient"/><radialGradient id="radial-gradient-3" cx="70.48" cy="148.8" r="7.03" xlink:href="#radial-gradient"/><radialGradient id="radial-gradient-4" cx="105.92" cy="158" r="7.03" xlink:href="#radial-gradient"/><radialGradient id="radial-gradient-5" cx="130.3" cy="184.92" r="7.03" xlink:href="#radial-gradient"/><radialGradient id="radial-gradient-6" cx="187.17" cy="228.97" r="7.03" xlink:href="#radial-gradient"/></defs><title>2445646</title><g class="cls-1"><g id="OBJECTS"><path class="cls-2" d="M58.21,28.63a7,7,0,1,1-7-7A7,7,0,0,1,58.21,28.63Z"/><path class="cls-3" d="M108.23,135.52a7,7,0,1,1-7-7A7,7,0,0,1,108.23,135.52Z"/><path class="cls-4" d="M77.51,148.8a7,7,0,1,1-7-7A7,7,0,0,1,77.51,148.8Z"/><path class="cls-5" d="M113,158a7,7,0,1,1-7-7A7,7,0,0,1,113,158Z"/><path class="cls-6" d="M137.34,184.92a7,7,0,1,1-7-7A7,7,0,0,1,137.34,184.92Z"/><path class="cls-7" d="M194.2,229a7,7,0,1,1-7-7A7,7,0,0,1,194.2,229Z"/><path class="cls-8" d="M54.52,28.63a3.35,3.35,0,1,1-3.35-3.35A3.35,3.35,0,0,1,54.52,28.63Z"/><path class="cls-8" d="M104.43,135.41a3.35,3.35,0,1,1-3.35-3.35A3.35,3.35,0,0,1,104.43,135.41Z"/><path class="cls-8" d="M73.83,148.8a3.35,3.35,0,1,1-3.35-3.35A3.35,3.35,0,0,1,73.83,148.8Z"/><path class="cls-8" d="M109.48,158.19a3.35,3.35,0,1,1-3.35-3.35A3.35,3.35,0,0,1,109.48,158.19Z"/><path class="cls-8" d="M133.82,185.14a3.35,3.35,0,1,1-3.35-3.35A3.35,3.35,0,0,1,133.82,185.14Z"/><path class="cls-8" d="M190.52,229a3.35,3.35,0,1,1-3.35-3.35A3.35,3.35,0,0,1,190.52,229Z"/><rect class="cls-8" x="75.85" y="23.08" width="0.55" height="117.87" transform="translate(-27.57 39.95) rotate(-25.05)"/><rect class="cls-8" x="69.08" y="141.83" width="33.41" height="0.55" transform="translate(-49.72 46.24) rotate(-23.6)"/><rect class="cls-8" x="88.03" y="135.06" width="0.55" height="36.87" transform="translate(-82.62 199.78) rotate(-75.24)"/><rect class="cls-8" x="118.02" y="153.5" width="0.55" height="36.32" transform="translate(-84.56 123.57) rotate(-42.09)"/><rect class="cls-8" x="158.54" y="171.23" width="0.55" height="71.66" transform="translate(-102.13 206.08) rotate(-52.3)"/></g></g></svg>