<svg xmlns="http://www.w3.org/2000/svg" viewBox="0 0 251.17 251.17"><defs><style>.cls-1{fill:#fefefe;}</style></defs><title>2445646</title><g id="OBJECTS"><path class="cls-1" d="M48.59,141.31l1,.16c.41.06.81.12,1.22.16a14,14,0,0,0,2.15,0c1.1-.09,2.2-.17,3.3-.28l1.3-.14h0c-1.54,0-3.08-.1-4.62-.16-.42,0-.84-.06-1.26-.11a11.94,11.94,0,0,1-1.22-.22c-.39-.08-.77-.19-1.16-.28-.23-.06-.47-.12-.71-.2l-.91-.29c-.74-.29-1.49-.57-2.2-.93-.4-.2-.8-.41-1.2-.64s-.61-.36-.91-.55-.88-.6-1.29-.93a17.38,17.38,0,0,1-1.71-1.49,13.83,13.83,0,0,1-1.45-2c-.21-.41-.4-.83-.58-1.25l-.21-.54a10,10,0,0,1-.41-1.2,15.64,15.64,0,0,1-.24-2.45c0-.82,0-1.63,0-2.45,0-.59.13-1.17.21-1.75s.22-1.13.34-1.69c.24-1,.5-2.09.81-3.12,0,.38.12.77.19,1.15a24,24,0,0,0,.83,3.24,18,18,0,0,0,1.28,3,10,10,0,0,0,.84,1.31,14.81,14.81,0,0,0,1.18,1.32,5.18,5.18,0,0,0,1.25.92,5.65,5.65,0,0,0,.6.31,12.93,12.93,0,0,0,1.51.55,6.11,6.11,0,0,0,2.17.18c.41,0,.82-.08,1.22-.16s.86-.18,1.3-.29a9.71,9.71,0,0,0,1-.34,4.88,4.88,0,0,0,.83-.4,5.62,5.62,0,0,0,.53-.44,10.07,10.07,0,0,0,.77-.84,1,1,0,0,1,0,.16c0,.13,0,.27,0,.4,0,.44,0,.89,0,1.32,0,.88,0,1.75.08,2.63a12.64,12.64,0,0,0,.31,2.11c.08.35.17.69.28,1s.25.65.38,1c.26.63.55,1.24.87,1.85s.74,1.22,1.11,1.84c.17.34.33.7.52,1,0,0,0,0,0,0-.12-.31-.19-.62-.29-.93s-.2-.53-.3-.8c-.21-.51-.44-1-.65-1.53s-.37-1-.54-1.5-.35-1.06-.48-1.6a15.63,15.63,0,0,1-.22-1.55,14.79,14.79,0,0,1,0-1.63c0-.53,0-1.06,0-1.6l.06-1.6a16.4,16.4,0,0,1,.57-3.25l0-.08c.2-.58.48-1.13.72-1.71a11.57,11.57,0,0,1,.67-1.48,3.79,3.79,0,0,1,.31-.37,7.51,7.51,0,0,1,1.07-.69l1.91-1h0c.67-.33,1.32-.69,2-1l.41-.21c.82-.41,1.65-.79,2.49-1.17.46-.2.93-.41,1.38-.64s.9-.5,1.35-.75h0a5.82,5.82,0,0,1,1.21-.5c.31,0,.62-.06.94-.08l.67-.06h0l-.67,0c-.33,0-.65-.09-1-.09h0a4.86,4.86,0,0,0-1.06.21c-.21.06-.41.14-.62.21-.43.14-.86.3-1.3.43s-.83.2-1.25.3a17.36,17.36,0,0,0-2.35.75l-1.07.46-1.12.53c-.58.26-1.16.53-1.74.78a15.26,15.26,0,0,0-1.72.85A3.22,3.22,0,0,0,56,122c-.19.52-.3,1.08-.47,1.62a17.45,17.45,0,0,0-.81,2.54c-.07.42-.14.84-.18,1.26,0,.21-.05.4-.07.6s0,.23,0,.34c-.38.27-.75.54-1.15.77l-.25.13a3.3,3.3,0,0,1-.63.2,14.28,14.28,0,0,1-2.69.2l-.42,0a8.74,8.74,0,0,1-1.53-.26,10.1,10.1,0,0,1-1.73-.89l-.34-.25a4.88,4.88,0,0,1-.73-.62,15.13,15.13,0,0,1-1-1.35,10.52,10.52,0,0,1-.74-1.25c-.22-.44-.43-.87-.62-1.32s-.39-1.05-.57-1.57-.37-1.08-.52-1.63-.26-1-.36-1.46a19.35,19.35,0,0,1-.32-2,1.09,1.09,0,0,1,0-.17,1.56,1.56,0,0,0,0-.57,2,2,0,0,0-.52-1.35,1,1,0,0,0-.43-.21.62.62,0,0,0-.2,0,.54.54,0,0,0-.27.05.94.94,0,0,0-.28.15,1.66,1.66,0,0,0-.26.27,5.42,5.42,0,0,0-.61,1.2,24.15,24.15,0,0,0-1,3.11c-.27,1.05-.51,2.1-.71,3.16a22.81,22.81,0,0,0-.36,3.39,23.63,23.63,0,0,0,.1,3.15,9.94,9.94,0,0,0,.35,2c.1.3.22.6.34.9s.22.56.34.84a11.71,11.71,0,0,0,1.61,2.73,9.51,9.51,0,0,0,1.7,1.77c.43.34.85.66,1.29,1s1,.66,1.52,1a12,12,0,0,0,1.39.7,17.4,17.4,0,0,0,3.1,1A6.25,6.25,0,0,0,48.59,141.31Z"/><path class="cls-1" d="M84.19,171a6.37,6.37,0,0,1-1.19-.61c-.26-.18-.51-.37-.76-.58s-.49-.47-.72-.71a5.75,5.75,0,0,1-.54-.68,4.78,4.78,0,0,1-.44-.72,18.91,18.91,0,0,1-.77-1.79,13.87,13.87,0,0,1-.45-1.68c-.14-.71-.24-1.42-.32-2.13s-.22-1.4-.37-2.09a27,27,0,0,0-1.69-5.25,24.86,24.86,0,0,0-1.23-2.48c-.2-.36-.41-.7-.64-1a9.11,9.11,0,0,0-.9-1.07,8.77,8.77,0,0,0-.72-.63,10,10,0,0,0-.89-.68,12.52,12.52,0,0,0-1.1-.68c-.29-.15-.6-.28-.91-.41l-1-.38-1.07-.4c-.35-.13-.7-.27-1-.43a10,10,0,0,1-.9-.52c-1.28-.86-2.44-1.89-3.63-2.87l-.29-.25c.69-.83,1.38-1.65,2.06-2.48h0c-.85.68-1.7,1.37-2.54,2.07l-1.07-1c-.68-.61-1.4-1.19-2.11-1.78h0c.68.8,1.36,1.59,2,2.39.21.26.43.51.66.76-.52.44-1,.87-1.55,1.32-1.55,1.34-3.08,2.7-4.67,4l-.83.69-.75.6a25.17,25.17,0,0,1-3.2,2.24,4.65,4.65,0,0,1-.7.28h-.29a4.55,4.55,0,0,1,.17-.73c.26-.64.57-1.27.89-1.88s.68-1.17,1-1.75c.18-.28.37-.58.57-.85l.69-.89a17.71,17.71,0,0,1,1.67-1.8,7.19,7.19,0,0,1,1.34-.91,8.2,8.2,0,0,1,.76-.32h0c-.22,0-.45.08-.67.14a3.07,3.07,0,0,0-.6.22c-.12,0-.23.1-.35.15a5.32,5.32,0,0,0-.87.5,13.56,13.56,0,0,0-1.25,1c-.36.32-.7.67-1,1s-.69.77-1,1.16-.59.75-.87,1.14-.57.82-.83,1.24-.52.81-.76,1.23c-.11.2-.21.4-.31.6a1.83,1.83,0,0,0-.13,1.88,1.63,1.63,0,0,0,.33.36,2.3,2.3,0,0,0,.43.25,2.9,2.9,0,0,0,1,.22,2.78,2.78,0,0,0,1-.16,6.11,6.11,0,0,0,1.14-.51,13.11,13.11,0,0,0,2.64-1.92c.43-.37.87-.75,1.28-1.14l1.17-1.15c.39-.39.76-.8,1.14-1.21s.68-.75,1-1.13c.59-.67,1.15-1.35,1.73-2l1.12-1.32.69.77c.57.64,1.14,1.27,1.75,1.88.29.31.6.6.91.88a9.48,9.48,0,0,0,1.15.85,24,24,0,0,0,2.21,1.11c.35.16.71.33,1.06.51s.66.34,1,.53.78.58,1.15.89.67.58,1,.9a13.24,13.24,0,0,1,1,1.48c.3.52.59,1,.86,1.58a30,30,0,0,1,1.5,3.5,30.73,30.73,0,0,1,1,3.52c.08.39.15.78.22,1.16s.2,1,.33,1.52a12.66,12.66,0,0,0,.88,2.46,8.59,8.59,0,0,0,1.58,2.38,7.4,7.4,0,0,0,1,.89,7.21,7.21,0,0,0,1.25.74,6.58,6.58,0,0,0,.78.29,5.6,5.6,0,0,0,1,.2c.44.06.89.09,1.34.11s.78,0,1.17,0h0c-.49-.09-1-.19-1.46-.3A12.64,12.64,0,0,1,84.19,171Z"/><path class="cls-1" d="M78.6,159.83l0,.13s0,.06,0,.09A2.25,2.25,0,0,1,78.6,159.83Z"/><path class="cls-1" d="M80.84,165.66a4.39,4.39,0,0,0-.12.71h0a4.15,4.15,0,0,1,.38-.76,2.43,2.43,0,0,1,.34-.38,4.61,4.61,0,0,1,.81-.55,12.48,12.48,0,0,1,2.33-.77c.41-.07.83-.16,1.25-.2s.86-.07,1.3-.08l.33,0a2.31,2.31,0,0,1,.37,0l.34.1c.55.2,1.06.44,1.59.67q.48.21.93.45h0c-.27-.24-.56-.47-.84-.68A9.92,9.92,0,0,0,88,163.11a4.13,4.13,0,0,0-.77-.19c-.17,0-.34,0-.52-.06a3.76,3.76,0,0,0-.58,0,4.07,4.07,0,0,0-.5,0,8.93,8.93,0,0,0-1.17.2,8.4,8.4,0,0,0-1,.32c-.17.06-.34.15-.5.22a5,5,0,0,0-1.13.69,3.09,3.09,0,0,0-.74.83A2.2,2.2,0,0,0,80.84,165.66Z"/><path class="cls-1" d="M88.69,167.64a9.24,9.24,0,0,1,1.48-.2h0a5.12,5.12,0,0,0-1.1-.1,11.39,11.39,0,0,0-1.31.12,18,18,0,0,0-2.51.6h0a19,19,0,0,0,3-.33h0Z"/><path class="cls-1" d="M96.14,167c.14-.28.26-.57.38-.86a.91.91,0,0,0,.15-.21c0-.09.07-.17.1-.25s.14-.38.2-.58.2-.62.28-.94.11-.66.17-1,.11-.69.16-1c.1-.7.17-1.41.29-2.12a15.32,15.32,0,0,1,.44-2c.56-1.54,1.2-3.06,1.89-4.55.36-.79.74-1.57,1.09-2.36.19-.39.36-.78.53-1.18s.34-.78.49-1.17a34.39,34.39,0,0,0,1.51-5.17c.18-.86.36-1.71.48-2.58s.22-1.73.29-2.59c.15-1.83.34-3.66.39-5.49a12.55,12.55,0,0,0-.28-3.35,14.44,14.44,0,0,0-.57-1.68c-.14-.39-.3-.79-.46-1.18l-.42-1c-.12-.28-.23-.57-.35-.85a20.4,20.4,0,0,0-1-2c-.27-.48-.55-1-.87-1.41a4,4,0,0,0-.86-.94,3.94,3.94,0,0,0-1.11-.54c-.52-.16-1-.26-1.58-.38a5.92,5.92,0,0,0-1.1-.14h0s0,0,0,0l.57.16.73.29a12.8,12.8,0,0,1,1.54.74,4.79,4.79,0,0,1,.55.46,5.34,5.34,0,0,1,.49.8,23.32,23.32,0,0,1,.92,2.32c.21.63.39,1.28.57,1.92.37,1.33.81,2.62,1.12,4a13.65,13.65,0,0,1,.13,1.81c0,.47,0,.94,0,1.42l-.12,2.82a37.25,37.25,0,0,1-.52,4.95,48.47,48.47,0,0,1-1.22,5l-.18.59c-.13.38-.27.76-.42,1.13s-.33.79-.51,1.19c-.35.79-.73,1.58-1.11,2.37s-.72,1.55-1.06,2.34-.63,1.59-.9,2.4c-.17.5-.35,1-.48,1.49a9.88,9.88,0,0,0-.27,1.44c-.12,1-.11,2-.16,3,0,.24,0,.47,0,.7a1.34,1.34,0,0,1,0-.2c0,.54-.07,1.09-.16,1.63,0,.26-.1.51-.16.77l-.1.4-.06.19a1,1,0,0,0,0,.25l-.13.43a16.65,16.65,0,0,1-2,3.55v0a8.83,8.83,0,0,1-1.15,1.49c-.19.17-.37.33-.57.48a6.05,6.05,0,0,1-2.18,1c-.6.12-1.2.21-1.8.32h0c.46,0,.92,0,1.38-.08a6.34,6.34,0,0,0,2.37-.56,6.67,6.67,0,0,0,1-.58,7.87,7.87,0,0,0,1.7-1.8,25.38,25.38,0,0,0,1.49-2.08C95.82,167.57,96,167.27,96.14,167Z"/><path class="cls-1" d="M99.17,106.82h0s0,0,0,0a6.8,6.8,0,0,0-.89-.07,4.7,4.7,0,0,0-.65,0,7.89,7.89,0,0,0-.84,0,10.36,10.36,0,0,0-1.64.33c-.47.12-.94.26-1.41.43s-1,.42-1.5.66-1,.57-1.56.88a9,9,0,0,0-1.16.77c-.2.15-.41.29-.6.45l-.72.63a13.91,13.91,0,0,0-1.12,1c-.36.39-.72.77-1,1.19s-.64.87-1,1.32c-.15.22-.32.45-.46.68l-.46.8c-.17.29-.29.6-.44.91s-.16.35-.23.53-.22.52-.32.78a8.08,8.08,0,0,0-.39,5s0,0,0,0c0-.36,0-.73,0-1.11a7.83,7.83,0,0,1,.37-1.78,10.6,10.6,0,0,1,.94-2c.17-.29.35-.58.53-.87a9.28,9.28,0,0,1,.56-.83c.16-.2.31-.41.47-.62s.26-.29.39-.44c.29-.33.58-.65.88-1s.57-.59.87-.88.63-.55,1-.81.8-.61,1.2-.92a12.86,12.86,0,0,1,1.1-.71c.41-.24.83-.47,1.25-.7a18.25,18.25,0,0,1,1.86-.84,19.09,19.09,0,0,1,2-.57c.34-.06.7-.12,1-.15a0,0,0,0,0,0,0c-.53.43-1.07.83-1.61,1.24a21.83,21.83,0,0,0-2.4,2.11c-.41.42-.81.86-1.19,1.32a18.34,18.34,0,0,0-1.59,2.48c-.11.21-.23.42-.35.63s-.26.54-.38.81c-.24.49-.43,1-.62,1.5-.55,1.38-1,2.77-1.5,4.18-.22.72-.41,1.45-.58,2.18a13.13,13.13,0,0,0-.39,2.24s0,0,0,0c.1-.39.21-.78.34-1.16v0a41.75,41.75,0,0,1,1.89-4.59c.37-.73.73-1.47,1.11-2.19l.66-1.27c.1-.18.22-.35.32-.52s.22-.37.33-.54a27.3,27.3,0,0,1,1.81-2.46,18,18,0,0,1,1.65-1.62c.4-.34.81-.66,1.22-1s.61-.44.91-.66l-.46,1.23c-.19.52-.39,1-.58,1.55s-.42,1-.63,1.55-.42,1-.62,1.54-.43,1-.65,1.52-.36.75-.54,1.12-.38.75-.57,1.13-.43.8-.65,1.2-.39.68-.59,1l-.44.67c-.25.35-.5.69-.77,1s-.62.77-.93,1.14h0c.51-.37,1-.74,1.48-1.14a11.43,11.43,0,0,0,1.12-1.08c.15-.16.29-.33.42-.5s.35-.41.51-.62c.33-.46.67-.92,1-1.4s.63-1,.93-1.51.54-1,.8-1.53.42-1,.62-1.46.37-1,.55-1.52.25-.81.37-1.21.17-.58.24-.87c.21-.81.4-1.62.59-2.43,0-.1.05-.2.08-.3l.36-.26c.21-.14.41-.29.61-.44l.49-.37c.13-.12.3-.24.42-.37a2.21,2.21,0,0,0,.37-.55,1.3,1.3,0,0,0-.07-1.28,1.51,1.51,0,0,0-.91-.63l-.25-.06h0Zm-.72,1a.24.24,0,0,0,0,.08h0Z"/><path class="cls-1" d="M81.64,132.5a1.1,1.1,0,0,0-.31,0,.76.76,0,0,0-.46.42,1.77,1.77,0,0,0,.06,1.2c.06.21.12.42.19.63s.08.26.13.38.09.18.13.27c.19.58.41,1.15.63,1.72s.53,1.23.77,1.85.44,1.16.64,1.75.46,1.36.71,2h0c-.26-1.31-.5-2.64-.89-3.93-.18-.61-.4-1.21-.6-1.83s-.4-1.21-.57-1.82c0-.05,0-.08,0-.12a2.3,2.3,0,0,0,0-.26l-.12-.38c-.09-.31-.19-.63-.26-1a.53.53,0,0,1,0-.13,2.77,2.77,0,0,1,.41.12,4.93,4.93,0,0,1,.89.52l.37.28a5.51,5.51,0,0,1,.87.87,4.56,4.56,0,0,1,.52.91,11.44,11.44,0,0,1,.52,1.49c.06.24.13.47.19.7s.18.73.25,1.09.17.89.25,1.34.12.77.18,1.15h0c0,.15,0,.31.07.47v0c0,.23.06.47.1.7h0c0-.75,0-1.5,0-2.25a18.82,18.82,0,0,0-.14-2c0-.37-.1-.73-.16-1.09a10.87,10.87,0,0,0-.57-2.1,5.75,5.75,0,0,0-.29-.62,3.5,3.5,0,0,0-.4-.55,4.9,4.9,0,0,0-.83-.81l-.49-.37a4.49,4.49,0,0,0-1.27-.65A1.41,1.41,0,0,0,81.64,132.5Zm0,.86Zm0,0h0Z"/><path class="cls-1" d="M195.13,110.52c-1-.58-2-1.15-3-1.7s-2.32-1.25-3.5-1.85l-1.73-.87c-.54-.26-1.06-.55-1.61-.82s-1-.56-1.49-.84l-1.6-1c-.18-.1-.35-.23-.52-.34l-1-.71c-.49-.32-1-.67-1.43-1L178,100.5c-.47-.36-1-.7-1.4-1.07s-1-.81-1.53-1.24c-.9-.77-1.82-1.54-2.67-2.36s-1.79-1.72-2.71-2.55-1.72-1.51-2.6-2.25-1.82-1.5-2.7-2.28c-.42-.38-.85-.76-1.28-1.12s-.82-.65-1.23-1q-1.4-1.06-2.88-2a33.59,33.59,0,0,0-3.36-1.89l-.78-.34a8.75,8.75,0,0,0-1.66-.48,6.2,6.2,0,0,0-.75-.14c-.27,0-.54-.09-.81-.12-.59,0-1.18-.06-1.76-.06s-1.34,0-2,0c-2.11.08-4.22.24-6.33.31-1.14,0-2.27,0-3.4-.06s-2.26-.09-3.39-.11c-.7,0-1.41,0-2.12,0-.46,0-.93,0-1.39.06a32.6,32.6,0,0,0-3.56.58,48.29,48.29,0,0,0-7,1.94c-1.1.41-2.19.86-3.28,1.28L113.89,87c-1.11.42-2.23.84-3.32,1.33s-2.21,1-3.28,1.54-2.08,1.11-3.11,1.68-2.12,1.16-3.17,1.76a68.19,68.19,0,0,0-6.12,4.12c-1,.71-1.86,1.47-2.74,2.26s-1.73,1.68-2.56,2.56c-.33.35-.65.71-1,1.09a8.51,8.51,0,0,0-.56.82l0-.23c0-.33,0-.66.08-1,0-.67,0-1.35,0-2a18.08,18.08,0,0,0-.4-2.94c0-.3-.13-.6-.21-.9s-.11-.49-.18-.73-.2-.66-.31-1-.19-.53-.28-.79c-.18-.51-.39-1-.59-1.5a34.2,34.2,0,0,0-1.57-3.22c-.11-.21-.21-.42-.33-.62l-.55-.92c-.3-.48-.62-1-.93-1.42s-.62-.88-.94-1.32c-.15-.22-.32-.42-.48-.63s-.56-.7-.86-1a25.42,25.42,0,0,0-2.13-2,17,17,0,0,0-3.36-2.27,13.38,13.38,0,0,0-2.88-1.1,11.61,11.61,0,0,0-1.45-.28,10.32,10.32,0,0,0-1.24-.08c-.16,0-.32,0-.48,0a5.85,5.85,0,0,0-.75.15,2.2,2.2,0,0,0-.66.25,1,1,0,0,0-.46,1.23,2.34,2.34,0,0,0,.67.86.92.92,0,0,0,.53.3s0,0,0,0c.33.32.66.64,1,1s.83,1,1.23,1.47.86,1.13,1.27,1.71.74,1.05,1.08,1.59c.18.28.37.55.53.84l.53.94c.17.37.34.74.52,1.11s.31.79.46,1.18.26.74.38,1.11c.21.66.4,1.31.55,2a25.35,25.35,0,0,1,.42,6.15c-.05.66-.13,1.32-.23,2,0,.31-.11.62-.17.92s-.13.61-.21.91c-.14.5-.29,1-.42,1.49s-.29.86-.43,1.29-.42,1.14-.64,1.72-.51,1.34-.75,2-.4,1.21-.58,1.82a13.69,13.69,0,0,0-.36,1.93h0c.21-.54.42-1.08.67-1.6s.53-1,.8-1.5c.5-.92,1-1.8,1.53-2.72.28-.52.55-1,.8-1.58l.39-.87a7.44,7.44,0,0,0,.31-.78,18.23,18.23,0,0,0,1-3.23,19.62,19.62,0,0,0,.31-4.9,20.52,20.52,0,0,0-.87-4.79c-.08-.29-.19-.58-.29-.87s-.18-.55-.28-.8l-.35-.84c-.08-.21-.16-.43-.26-.63-.28-.56-.54-1.13-.86-1.67-.17-.3-.34-.59-.52-.88s-.29-.44-.43-.66c-.33-.5-.67-1-1-1.45-.62-.88-1.31-1.71-2-2.52a21.78,21.78,0,0,0-2-2h.51a10.56,10.56,0,0,1,2.48.48,15.24,15.24,0,0,1,2.92,1.44,17.88,17.88,0,0,1,2,1.59c.5.47,1,.93,1.47,1.42a31.52,31.52,0,0,1,2.28,3.12c.55.82,1,1.66,1.51,2.51a40.18,40.18,0,0,1,1.7,3.71c.26.68.52,1.36.73,2.06.1.37.23.74.32,1.11l.21,1a21.42,21.42,0,0,1,.31,2.13,19.64,19.64,0,0,1,0,2.17c0,.34-.07.67-.09,1s-.11.79-.17,1.18a13.29,13.29,0,0,1-.57,2.59c-.12.36-.23.71-.35,1.06s-.32.92-.51,1.38-.42,1-.64,1.56l-1.41,3.28c-.41,1-.87,1.88-1.34,2.81a28.9,28.9,0,0,1-1.51,2.72l-.15.26h0l-.14.22h0a28.89,28.89,0,0,0,4.07-5.08c.58-.9,1.14-1.83,1.67-2.76.3-.52.59-1,.87-1.57s.53-1,.78-1.58.44-1,.65-1.56a14.66,14.66,0,0,0,.82-3.19c0-.11,0-.22,0-.32a9.22,9.22,0,0,1,1-1.12l.66-.64.62-.56,1.28-1.09c.88-.76,1.81-1.44,2.74-2.13s2-1.31,2.93-2,1.9-1.2,2.86-1.78,2-1.16,3-1.71,2.07-1.11,3.11-1.66c.53-.28,1.07-.58,1.62-.84l1.75-.81c1-.47,2.1-.94,3.17-1.34,2-.78,4.07-1.55,6.09-2.35.94-.37,1.88-.75,2.83-1.08s2-.63,3-.92c.66-.15,1.31-.32,2-.45s1.33-.27,2-.38,1.37-.23,2.07-.3,1.2-.08,1.8-.08c2,0,4,.14,6,.26l1.55.07c.55,0,1.11,0,1.66,0l3,0c1.35,0,2.69.06,4,.14.7,0,1.39.1,2.09.18a12.62,12.62,0,0,1,1.71.34,10.13,10.13,0,0,1,1.39.52c.31.15.61.3.92.47s.89.56,1.33.86,1,.67,1.41,1c.92.7,1.84,1.41,2.72,2.17s1.67,1.5,2.5,2.27,1.75,1.54,2.63,2.31,1.74,1.51,2.59,2.29,1.64,1.58,2.5,2.34,1.78,1.58,2.72,2.32c.51.39,1,.81,1.54,1.19l1.72,1.25c.46.33.93.64,1.39,1s.9.6,1.36.89,1.16.73,1.76,1.06,1.07.6,1.63.85,1.1.51,1.65.73,1.12.43,1.69.63c1.23.42,2.48.83,3.72,1.23,1.5.48,3,1,4.47,1.48l4.25,1.37h0C197.32,111.82,196.23,111.17,195.13,110.52Z"/><path class="cls-1" d="M137.83,159.1c.58-.65,1.17-1.31,1.73-2l1.17-1.41c.21-.24.4-.5.59-.75l1-1.3c.29-.38.54-.79.79-1.19a17.8,17.8,0,0,0,1-1.87c.27-.59.47-1.2.69-1.8a17.35,17.35,0,0,0,.66-2.74,21.7,21.7,0,0,0,.34-2.55,10.29,10.29,0,0,0-.08-1.92c0-.36-.13-.72-.19-1.08a25.18,25.18,0,0,0-1.52-5.33c-.34-.81-.68-1.61-1-2.42-.18-.44-.35-.87-.52-1.32s-.3-.89-.45-1.35-.18-.7-.26-1.05-.11-.45-.16-.66-.08-.5-.12-.73a23.15,23.15,0,0,1-.24-2.63v-.7c0-.25,0-.5,0-.74,0-.49.08-1,.14-1.45,0-.31.09-.61.12-.92s.09-.51.14-.76c.09-.49.2-1,.32-1.47h0l.24-.89c.24-.76.49-1.53.77-2.28s.7-1.73,1.05-2.59h0l-.73,1.3c-.22.41-.43.81-.64,1.23s-.37.82-.56,1.23-.31.72-.45,1.1-.33.93-.48,1.39-.27.93-.39,1.39-.2.85-.29,1.27-.15.82-.21,1.23c0,.2-.07.4-.09.61l-.06.87c0,.42,0,.84,0,1.26,0,.26,0,.51,0,.77a5.62,5.62,0,0,0,0,.58c0,.44.08.89.15,1.32l.27,1.45c0,.18.09.35.13.53s.13.5.21.74c.14.44.28.88.44,1.31s.33.89.5,1.33.47,1.16.68,1.74c.12.33.26.66.36,1l.27.9c.08.34.16.67.25,1s.13.66.2,1,.1.64.15,1a17.05,17.05,0,0,1,.2,1.89,13.91,13.91,0,0,1-.32,2.65c-.13.6-.24,1.2-.39,1.79s-.35,1.06-.56,1.59a15.52,15.52,0,0,1-.88,1.9,19.86,19.86,0,0,1-1.38,2.05l-1.11,1.43c-.56.72-1.16,1.41-1.75,2.11s-1.2,1.39-1.81,2.08-1,1.19-1.59,1.78-1.19,1.34-1.81,2l-2.16,2.23c-.73.69-1.45,1.4-2.16,2.1-.18.17-.36.36-.55.52l-.91.81c-1.38,1.23-2.74,2.49-4.12,3.74s-2.63,2.42-3.94,3.65-2.62,2.48-3.94,3.72h0q4.83-3.33,9.54-6.85c1.47-1.09,2.9-2.24,4.32-3.4.59-.48,1.12-1,1.68-1.51s1.15-1.06,1.71-1.61c.76-.78,1.53-1.55,2.3-2.32.26-.25.49-.52.73-.78l1.34-1.44C136.77,160.29,137.3,159.7,137.83,159.1Z"/><path class="cls-1" d="M99.3,173.48h0l0-.1Z"/><path class="cls-1" d="M115.09,154.88q.48-.76,1-1.56l.33-.6.42-.78c.12-.22.22-.45.33-.67s.26-.53.38-.79.21-.45.3-.68.15-.32.22-.47l.09-.2c.19-.52.38-1,.56-1.54.07-.23.16-.45.23-.67l.15-.5c0-.12.08-.24.11-.37.12-.49.24-1,.33-1.47s.16-1,.23-1.53.13-1,.17-1.44c0-.17,0-.34,0-.52a2.45,2.45,0,0,1,0-.27c0-.24,0-.49,0-.73l0-1.78h0c0,.6-.06,1.2-.08,1.81s-.11,1-.18,1.56c0,.28-.09.55-.14.83s-.09.51-.14.76-.1.49-.14.73-.1.46-.16.69-.11.4-.17.6-.06.24-.1.36,0,.2-.09.31c-.11.28-.21.57-.32.85s-.2.5-.3.74-.16.4-.25.6l-.21.5a2.72,2.72,0,0,0-.11.25c-.14.27-.27.55-.41.82s-.17.37-.27.55l-.48.89-.26.48c-.12.22-.25.43-.38.65s-.21.37-.32.55l-1,1.53-.3.45-.62.94c-.28.42-.59.83-.88,1.24s-.64.86-1,1.29-.66.85-1,1.27l-.94,1.14c-.29.34-.57.69-.86,1l-1.29,1.48c-.35.41-.72.81-1.09,1.21l-.9,1c-.32.37-.66.72-1,1.1L103.35,168c-.24.3-.5.58-.73.89l-1.3,1.67-.37.49c-.1.12-.18.26-.27.39l-.87,1.26c-.17.26-.36.5-.51.77l0,0,0,0c-.43.75-.87,1.5-1.29,2.26l0-.09c-.17.29-.32.59-.48.9s-.34.7-.49,1.07a21.25,21.25,0,0,0-.7,2.18c-.18.61-.32,1.23-.48,1.85-.25,1-.49,2-.72,3-.17.73-.34,1.46-.48,2.2h0c.33-1.11.7-2.21,1.06-3.31l1-3.1c.06-.19.13-.38.2-.57.14-.4.28-.81.44-1.2a12.17,12.17,0,0,1,.51-1.17c.19-.38.4-.75.61-1.13a.79.79,0,0,1,0,.09c.32-.56.67-1.12,1-1.67.22-.36.42-.72.66-1.06l1.23-1.72c.09-.13.18-.27.28-.39l.37-.48,1.29-1.68c.24-.3.49-.59.74-.89l1.26-1.49c.31-.37.64-.73,1-1.09s.59-.68.89-1,.74-.79,1.1-1.2.85-1,1.28-1.49c.29-.34.57-.68.85-1,.66-.79,1.31-1.59,1.93-2.42s1.25-1.67,1.82-2.54l.62-.94Z"/><path class="cls-1" d="M166.84,164.18c-2.13-.63-4.23-1.33-6.34-2-1.08-.34-2.16-.66-3.25-1-.56-.16-1.12-.28-1.69-.42l-1.31-.28c-.65-.14-1.3-.28-1.94-.39s-1.55-.24-2.34-.3c-.49,0-1,0-1.49,0h-.69l-1,0c-1,.06-2,.14-3,.27a17,17,0,0,0-8.27,3.41h0l.45-.17h0l.81-.31a19.27,19.27,0,0,1,2.44-.79,18.09,18.09,0,0,1,2.53-.44,35,35,0,0,1,3.55-.16c.55,0,1.11,0,1.67,0s.85,0,1.27.06c.86,0,1.72.11,2.57.23s1.51.29,2.25.45c.49.1,1,.18,1.46.29,1.23.28,2.45.55,3.67.84,2.09.48,4.17,1,6.27,1.36,1.55.29,3.11.55,4.66.78s3,.45,4.59.61h0c-1.09-.32-2.17-.67-3.25-1S168.05,164.54,166.84,164.18Z"/><path class="cls-1" d="M119.36,123.48a11.75,11.75,0,0,1-.42,1.31l-.41,1c-.12.29-.26.56-.39.85s-.32.62-.48.93-.25.49-.39.73-.32.61-.5.9-.44.7-.65,1-.37.54-.55.8c-.37.53-.79,1-1.19,1.55-.25.31-.51.62-.76.94l-1.15,1.38h0c1-.77,2-1.57,2.9-2.42.39-.35.77-.71,1.12-1.09s.81-.92,1.2-1.4.71-.93,1-1.41c.14-.19.26-.38.39-.58s.28-.42.41-.64.34-.56.5-.84.29-.56.42-.83a13.68,13.68,0,0,0,1.31-3.88,12.88,12.88,0,0,0,.19-2,16.89,16.89,0,0,0-.14-2.25,16,16,0,0,0-1.14-4.09c-.27-.68-.59-1.33-.92-2-.21-.4-.41-.79-.63-1.18a27.88,27.88,0,0,0-1.61-2.49l-.52-.69a7.29,7.29,0,0,0-1.12-1.17,9.11,9.11,0,0,0-1.71-1.11h0a11.57,11.57,0,0,1,1.46,1.59,15.87,15.87,0,0,1,1.51,2.78c.31.68.58,1.36.87,2l.63,1.75a21,21,0,0,1,.67,2.22,20.45,20.45,0,0,1,.46,2.48,18,18,0,0,1-.08,4.28C119.6,122.55,119.48,123,119.36,123.48Z"/></g></svg>