<svg xmlns="http://www.w3.org/2000/svg" viewBox="0 0 153.51 163.32"><defs><style>.cls-1{fill:#fff;}</style></defs><title>2413150</title><g id="OBJECTS"><path class="cls-1" d="M133.89,30.5a4.79,4.79,0,0,0-6.65,1.2c-.11.16-11.14,15.16-44.91,15.16-.6,0-1.2,0-1.82,0C46.5,46.29,37.36,31.2,37,30.6A4.77,4.77,0,0,0,28.53,35c.26.52,6.57,12.66,28.51,18.43a43,43,0,0,0-20,35.48,42.84,42.84,0,0,0,42.05,43.45h.71a42.73,42.73,0,0,0,24-78.08c22-4.79,30.35-15.83,31.24-17.12a4.76,4.76,0,0,0-1.19-6.64ZM79.27,122.79a33.21,33.21,0,0,1,.58-66.42,4.35,4.35,0,0,1,.51,0,33.2,33.2,0,0,1-1.09,66.4Z"/></g></svg>