<svg xmlns="http://www.w3.org/2000/svg" xmlns:xlink="http://www.w3.org/1999/xlink" viewBox="0 0 251.17 251.17"><defs><style>.cls-1{isolation:isolate;}.cls-10,.cls-11,.cls-12,.cls-13,.cls-2,.cls-3,.cls-4,.cls-5,.cls-6,.cls-7,.cls-8,.cls-9{mix-blend-mode:screen;}.cls-2{fill:url(#radial-gradient);}.cls-3{fill:url(#radial-gradient-2);}.cls-4{fill:url(#radial-gradient-3);}.cls-5{fill:url(#radial-gradient-4);}.cls-6{fill:url(#radial-gradient-5);}.cls-7{fill:url(#radial-gradient-6);}.cls-8{fill:url(#radial-gradient-7);}.cls-9{fill:url(#radial-gradient-8);}.cls-10{fill:url(#radial-gradient-9);}.cls-11{fill:url(#radial-gradient-10);}.cls-12{fill:url(#radial-gradient-11);}.cls-13{fill:url(#radial-gradient-12);}.cls-14{fill:#def9ff;}</style><radialGradient id="radial-gradient" cx="161.46" cy="35.25" r="5.15" gradientUnits="userSpaceOnUse"><stop offset="0" stop-color="#f1f2ce"/><stop offset="1"/></radialGradient><radialGradient id="radial-gradient-2" cx="159.93" cy="72.83" r="5.15" xlink:href="#radial-gradient"/><radialGradient id="radial-gradient-3" cx="151.05" cy="98.94" r="5.15" xlink:href="#radial-gradient"/><radialGradient id="radial-gradient-4" cx="124.48" cy="103.84" r="5.15" xlink:href="#radial-gradient"/><radialGradient id="radial-gradient-5" cx="88.3" cy="93.28" r="5.15" xlink:href="#radial-gradient"/><radialGradient id="radial-gradient-6" cx="155.69" cy="138.76" r="5.15" xlink:href="#radial-gradient"/><radialGradient id="radial-gradient-7" cx="170.94" cy="164.37" r="5.15" xlink:href="#radial-gradient"/><radialGradient id="radial-gradient-8" cx="121.97" cy="150.79" r="5.15" xlink:href="#radial-gradient"/><radialGradient id="radial-gradient-9" cx="101.55" cy="169.28" r="5.15" xlink:href="#radial-gradient"/><radialGradient id="radial-gradient-10" cx="76.86" cy="210.28" r="5.15" xlink:href="#radial-gradient"/><radialGradient id="radial-gradient-11" cx="118.84" cy="227.55" r="5.15" xlink:href="#radial-gradient"/><radialGradient id="radial-gradient-12" cx="146.1" cy="207.04" r="5.15" xlink:href="#radial-gradient"/></defs><title>2445646</title><g class="cls-1"><g id="OBJECTS"><path class="cls-2" d="M166.61,35.25a5.16,5.16,0,1,1-5.15-5.15A5.16,5.16,0,0,1,166.61,35.25Z"/><path class="cls-3" d="M165.08,72.83a5.16,5.16,0,1,1-5.15-5.15A5.16,5.16,0,0,1,165.08,72.83Z"/><path class="cls-4" d="M156.2,98.94a5.16,5.16,0,1,1-5.15-5.15A5.16,5.16,0,0,1,156.2,98.94Z"/><path class="cls-5" d="M129.63,103.84a5.15,5.15,0,1,1-5.15-5.15A5.16,5.16,0,0,1,129.63,103.84Z"/><path class="cls-6" d="M93.45,93.28a5.15,5.15,0,1,1-5.15-5.15A5.15,5.15,0,0,1,93.45,93.28Z"/><path class="cls-7" d="M160.84,138.76a5.15,5.15,0,1,1-5.15-5.15A5.16,5.16,0,0,1,160.84,138.76Z"/><path class="cls-8" d="M176.09,164.37a5.15,5.15,0,1,1-5.15-5.16A5.15,5.15,0,0,1,176.09,164.37Z"/><path class="cls-9" d="M127.12,150.79a5.15,5.15,0,1,1-5.15-5.15A5.16,5.16,0,0,1,127.12,150.79Z"/><path class="cls-10" d="M106.7,169.28a5.16,5.16,0,1,1-5.15-5.16A5.16,5.16,0,0,1,106.7,169.28Z"/><path class="cls-11" d="M82,210.28a5.16,5.16,0,1,1-5.15-5.15A5.15,5.15,0,0,1,82,210.28Z"/><path class="cls-12" d="M124,227.55a5.15,5.15,0,1,1-5.15-5.15A5.14,5.14,0,0,1,124,227.55Z"/><path class="cls-13" d="M151.25,207a5.15,5.15,0,1,1-5.15-5.15A5.15,5.15,0,0,1,151.25,207Z"/><path class="cls-14" d="M121.42,227.55A2.46,2.46,0,1,1,119,225.1,2.46,2.46,0,0,1,121.42,227.55Z"/><path class="cls-14" d="M148.55,207a2.46,2.46,0,1,1-2.45-2.45A2.45,2.45,0,0,1,148.55,207Z"/><path class="cls-14" d="M173.4,164.37a2.46,2.46,0,1,1-2.46-2.46A2.46,2.46,0,0,1,173.4,164.37Z"/><path class="cls-14" d="M124.48,151a2.46,2.46,0,1,1-2.46-2.46A2.46,2.46,0,0,1,124.48,151Z"/><path class="cls-14" d="M126.93,103.85a2.46,2.46,0,1,1-2.45-2.45A2.46,2.46,0,0,1,126.93,103.85Z"/><circle class="cls-14" cx="88.3" cy="93.28" r="2.45"/><path class="cls-14" d="M158.14,138.76a2.46,2.46,0,1,1-2.45-2.46A2.45,2.45,0,0,1,158.14,138.76Z"/><path class="cls-14" d="M153.46,98.94A2.46,2.46,0,1,1,151,96.49,2.46,2.46,0,0,1,153.46,98.94Z"/><path class="cls-14" d="M162.38,72.83a2.46,2.46,0,1,1-2.45-2.46A2.45,2.45,0,0,1,162.38,72.83Z"/><path class="cls-14" d="M163.91,35.25a2.46,2.46,0,1,1-2.45-2.46A2.45,2.45,0,0,1,163.91,35.25Z"/><path class="cls-14" d="M104,169.28a2.46,2.46,0,1,1-2.45-2.46A2.45,2.45,0,0,1,104,169.28Z"/><path class="cls-14" d="M79.31,210.3a2.46,2.46,0,1,1-2.45-2.46A2.45,2.45,0,0,1,79.31,210.3Z"/><rect class="cls-14" x="141.89" y="53.84" width="37.61" height="0.41" transform="translate(100.24 212.43) rotate(-87.7)"/><rect class="cls-14" x="141.67" y="85.68" width="27.6" height="0.41" transform="translate(23.92 205.22) rotate(-71.13)"/><rect class="cls-14" x="153.15" y="98.81" width="0.41" height="40.09" transform="translate(-12.82 18.71) rotate(-6.7)"/><rect class="cls-14" x="163.11" y="136.66" width="0.41" height="29.8" transform="translate(-54.56 104.93) rotate(-30.78)"/><rect class="cls-14" x="133.83" y="185.5" width="49.38" height="0.41" transform="translate(-81.73 229.21) rotate(-59.78)"/><rect class="cls-14" x="115.52" y="217.09" width="34.01" height="0.41" transform="translate(-104.2 123.8) rotate(-37.07)"/><rect class="cls-14" x="65.26" y="189.58" width="47.88" height="0.41" transform="translate(-119.4 168.31) rotate(-58.95)"/><rect class="cls-14" x="98.06" y="159.93" width="27.45" height="0.41" transform="translate(-78.27 115.21) rotate(-41.78)"/><rect class="cls-14" x="146.28" y="132.32" width="0.41" height="50.72" transform="matrix(0.26, -0.96, 0.96, 0.26, -44.25, 257.39)"/><rect class="cls-14" x="99.65" y="127.22" width="47.2" height="0.41" transform="translate(-10.35 243.94) rotate(-87.05)"/><rect class="cls-14" x="124.25" y="101.2" width="26.98" height="0.41" transform="translate(-16.17 26.79) rotate(-10.5)"/><rect class="cls-14" x="106.18" y="79.72" width="0.41" height="37.69" transform="translate(-18.07 173.03) rotate(-73.71)"/></g></g></svg>